<?xml version="1.0" encoding="UTF-8" standalone="no"?>
<!DOCTYPE svg PUBLIC "-//W3C//DTD SVG 1.1//EN"
 "http://www.w3.org/Graphics/SVG/1.1/DTD/svg11.dtd">
<!-- Generated by graphviz version 12.0.0 (0)
 -->
<!-- Pages: 1 -->
<svg width="1037pt" height="399pt"
 viewBox="0.00 0.00 1037.29 398.50" xmlns="http://www.w3.org/2000/svg" xmlns:xlink="http://www.w3.org/1999/xlink">
<g id="graph0" class="graph" transform="scale(1 1) rotate(0) translate(4 394.5)">
<polygon fill="white" stroke="none" points="-4,4 -4,-394.5 1033.29,-394.5 1033.29,4 -4,4"/>
<g id="clust1" class="cluster">
<title>cluster_basis</title>
<polygon fill="none" stroke="black" points="346.16,-237 346.16,-313.5 416.16,-313.5 416.16,-237 346.16,-237"/>
<text text-anchor="middle" x="394.66" y="-244.2" font-family="Times,serif" font-size="14.00">basis</text>
</g>
<g id="clust2" class="cluster">
<title>cluster_data</title>
<polygon fill="none" stroke="black" points="233.16,-8 233.16,-84.5 303.16,-84.5 303.16,-8 233.16,-8"/>
<text text-anchor="middle" x="283.91" y="-15.2" font-family="Times,serif" font-size="14.00">data</text>
</g>
<!-- intercept -->
<g id="node1" class="node">
<title>intercept</title>
<ellipse fill="white" stroke="black" cx="43.16" cy="-130.5" rx="43.16" ry="18"/>
<text text-anchor="middle" x="43.16" y="-125.45" font-family="Times,serif" font-size="14.00">intercept</text>
</g>
<!-- obs -->
<g id="node12" class="node">
<title>obs</title>
<ellipse fill="grey" stroke="black" cx="268.16" cy="-58.5" rx="27" ry="18"/>
<text text-anchor="middle" x="268.16" y="-53.45" font-family="Times,serif" font-size="14.00">obs</text>
</g>
<!-- intercept&#45;&gt;obs -->
<g id="edge6" class="edge">
<title>intercept&#45;&gt;obs</title>
<path fill="none" stroke="black" d="M76.51,-118.74C83.02,-116.66 89.8,-114.5 96.16,-112.5 143.43,-97.64 198.14,-80.85 232.93,-70.23"/>
<polygon fill="black" stroke="black" points="233.93,-73.58 242.48,-67.31 231.89,-66.89 233.93,-73.58"/>
</g>
<!-- alpha -->
<g id="node2" class="node">
<title>alpha</title>
<ellipse fill="white" stroke="black" cx="173.16" cy="-287.5" rx="30.88" ry="18"/>
<text text-anchor="middle" x="173.16" y="-282.45" font-family="Times,serif" font-size="14.00">alpha</text>
</g>
<!-- beta_temperature -->
<g id="node6" class="node">
<title>beta_temperature</title>
<ellipse fill="white" stroke="black" stroke-dasharray="5,2" cx="328.16" cy="-130.5" rx="75.41" ry="18"/>
<text text-anchor="middle" x="328.16" y="-125.45" font-family="Times,serif" font-size="14.00">beta_temperature</text>
</g>
<!-- alpha&#45;&gt;beta_temperature -->
<g id="edge1" class="edge">
<title>alpha&#45;&gt;beta_temperature</title>
<path fill="none" stroke="black" d="M175.85,-269.22C180.13,-247.04 190.45,-208.57 213.16,-184.5 228.25,-168.51 249.11,-156.92 268.92,-148.74"/>
<polygon fill="black" stroke="black" points="269.99,-152.08 278.05,-145.2 267.46,-145.55 269.99,-152.08"/>
</g>
<!-- length_scale -->
<g id="node3" class="node">
<title>length_scale</title>
<ellipse fill="white" stroke="black" cx="279.16" cy="-287.5" rx="56.98" ry="18"/>
<text text-anchor="middle" x="279.16" y="-282.45" font-family="Times,serif" font-size="14.00">length_scale</text>
</g>
<!-- length_scale&#45;&gt;beta_temperature -->
<g id="edge2" class="edge">
<title>length_scale&#45;&gt;beta_temperature</title>
<path fill="none" stroke="black" d="M284.59,-269.32C292.98,-242.78 309.18,-191.56 319.28,-159.58"/>
<polygon fill="black" stroke="black" points="322.57,-160.79 322.25,-150.2 315.9,-158.68 322.57,-160.79"/>
</g>
<!-- scale -->
<g id="node4" class="node">
<title>scale</title>
<ellipse fill="white" stroke="black" cx="134.16" cy="-130.5" rx="29.34" ry="18"/>
<text text-anchor="middle" x="134.16" y="-125.45" font-family="Times,serif" font-size="14.00">scale</text>
</g>
<!-- scale&#45;&gt;obs -->
<g id="edge7" class="edge">
<title>scale&#45;&gt;obs</title>
<path fill="none" stroke="black" d="M155.99,-118.1C178.05,-106.57 212.35,-88.66 237.21,-75.67"/>
<polygon fill="black" stroke="black" points="238.64,-78.87 245.89,-71.14 235.4,-72.67 238.64,-78.87"/>
</g>
<!-- nu -->
<g id="node5" class="node">
<title>nu</title>
<ellipse fill="white" stroke="black" cx="208.16" cy="-130.5" rx="27" ry="18"/>
<text text-anchor="middle" x="208.16" y="-125.45" font-family="Times,serif" font-size="14.00">nu</text>
</g>
<!-- nu&#45;&gt;obs -->
<g id="edge8" class="edge">
<title>nu&#45;&gt;obs</title>
<path fill="none" stroke="black" d="M221.18,-114.31C228.97,-105.23 239.02,-93.5 247.83,-83.22"/>
<polygon fill="black" stroke="black" points="250.33,-85.68 254.18,-75.81 245.02,-81.12 250.33,-85.68"/>
</g>
<!-- beta_temperature&#45;&gt;obs -->
<g id="edge9" class="edge">
<title>beta_temperature&#45;&gt;obs</title>
<path fill="none" stroke="black" d="M313.64,-112.55C305.99,-103.63 296.5,-92.56 288.16,-82.83"/>
<polygon fill="black" stroke="black" points="291.07,-80.85 281.91,-75.54 285.76,-85.41 291.07,-80.85"/>
</g>
<!-- scale_hour_of_day -->
<g id="node7" class="node">
<title>scale_hour_of_day</title>
<ellipse fill="white" stroke="black" cx="507.16" cy="-287.5" rx="81.04" ry="18"/>
<text text-anchor="middle" x="507.16" y="-282.45" font-family="Times,serif" font-size="14.00">scale_hour_of_day</text>
</g>
<!-- hour_of_day_effect -->
<g id="node8" class="node">
<title>hour_of_day_effect</title>
<ellipse fill="white" stroke="black" cx="505.16" cy="-130.5" rx="83.6" ry="18"/>
<text text-anchor="middle" x="505.16" y="-125.45" font-family="Times,serif" font-size="14.00">hour_of_day_effect</text>
</g>
<!-- scale_hour_of_day&#45;&gt;hour_of_day_effect -->
<g id="edge4" class="edge">
<title>scale_hour_of_day&#45;&gt;hour_of_day_effect</title>
<path fill="none" stroke="black" d="M506.94,-269.02C506.59,-242.48 505.94,-191.76 505.53,-159.88"/>
<polygon fill="black" stroke="black" points="509.03,-160.15 505.4,-150.19 502.03,-160.24 509.03,-160.15"/>
</g>
<!-- hour_of_day_effect&#45;&gt;obs -->
<g id="edge10" class="edge">
<title>hour_of_day_effect&#45;&gt;obs</title>
<path fill="none" stroke="black" d="M457.2,-115.33C411.68,-101.89 344.32,-81.99 303.5,-69.94"/>
<polygon fill="black" stroke="black" points="304.52,-66.59 293.94,-67.11 302.53,-73.3 304.52,-66.59"/>
</g>
<!-- scale_day_of_week -->
<g id="node9" class="node">
<title>scale_day_of_week</title>
<ellipse fill="white" stroke="black" cx="693.16" cy="-287.5" rx="83.6" ry="18"/>
<text text-anchor="middle" x="693.16" y="-282.45" font-family="Times,serif" font-size="14.00">scale_day_of_week</text>
</g>
<!-- day_of_week_effect -->
<g id="node10" class="node">
<title>day_of_week_effect</title>
<ellipse fill="white" stroke="black" cx="693.16" cy="-130.5" rx="86.15" ry="18"/>
<text text-anchor="middle" x="693.16" y="-125.45" font-family="Times,serif" font-size="14.00">day_of_week_effect</text>
</g>
<!-- scale_day_of_week&#45;&gt;day_of_week_effect -->
<g id="edge5" class="edge">
<title>scale_day_of_week&#45;&gt;day_of_week_effect</title>
<path fill="none" stroke="black" d="M693.16,-269.02C693.16,-242.48 693.16,-191.76 693.16,-159.88"/>
<polygon fill="black" stroke="black" points="696.66,-160.19 693.16,-150.19 689.66,-160.19 696.66,-160.19"/>
</g>
<!-- day_of_week_effect&#45;&gt;obs -->
<g id="edge11" class="edge">
<title>day_of_week_effect&#45;&gt;obs</title>
<path fill="none" stroke="black" d="M629.57,-117.96C619.08,-116.1 608.32,-114.22 598.16,-112.5 492.24,-94.52 366.91,-74.82 305.66,-65.3"/>
<polygon fill="black" stroke="black" points="306.2,-61.84 295.78,-63.77 305.12,-68.76 306.2,-61.84"/>
</g>
<!-- beta -->
<g id="node11" class="node">
<title>beta</title>
<ellipse fill="white" stroke="black" cx="381.16" cy="-287.5" rx="27" ry="18"/>
<text text-anchor="middle" x="381.16" y="-282.45" font-family="Times,serif" font-size="14.00">beta</text>
</g>
<!-- beta&#45;&gt;beta_temperature -->
<g id="edge3" class="edge">
<title>beta&#45;&gt;beta_temperature</title>
<path fill="none" stroke="black" d="M375.39,-269.62C366.36,-243.2 348.78,-191.81 337.81,-159.71"/>
<polygon fill="black" stroke="black" points="341.13,-158.6 334.58,-150.27 334.5,-160.86 341.13,-158.6"/>
</g>
<!-- distribution_description_node -->
<g id="node13" class="node">
<title>distribution_description_node</title>
<text text-anchor="start" x="803.04" y="-373.2" font-family="Times,serif" font-size="14.00">intercept ~ Normal</text>
<text text-anchor="start" x="803.04" y="-356.7" font-family="Times,serif" font-size="14.00">alpha ~ InverseGamma</text>
<text text-anchor="start" x="803.04" y="-340.2" font-family="Times,serif" font-size="14.00">length_scale ~ InverseGamma</text>
<text text-anchor="start" x="803.04" y="-323.7" font-family="Times,serif" font-size="14.00">scale ~ HalfNormal</text>
<text text-anchor="start" x="803.04" y="-307.2" font-family="Times,serif" font-size="14.00">nu ~ Gamma</text>
<text text-anchor="start" x="803.04" y="-290.7" font-family="Times,serif" font-size="14.00">beta ~ Normal</text>
<text text-anchor="start" x="803.04" y="-274.2" font-family="Times,serif" font-size="14.00">beta_temperature ~ Deterministic</text>
<text text-anchor="start" x="803.04" y="-257.7" font-family="Times,serif" font-size="14.00">scale_hour_of_day ~ HalfNormal</text>
<text text-anchor="start" x="803.04" y="-241.2" font-family="Times,serif" font-size="14.00">hour_of_day_effect ~ ZeroSumNormal</text>
<text text-anchor="start" x="803.04" y="-224.7" font-family="Times,serif" font-size="14.00">scale_day_of_week ~ HalfNormal</text>
<text text-anchor="start" x="803.04" y="-208.2" font-family="Times,serif" font-size="14.00">day_of_week_effect ~ ZeroSumNormal</text>
<text text-anchor="start" x="803.04" y="-191.7" font-family="Times,serif" font-size="14.00">obs ~ StudentT</text>
</g>
</g>
</svg>
