<?xml version="1.0" encoding="UTF-8" standalone="no"?>
<!DOCTYPE svg PUBLIC "-//W3C//DTD SVG 1.1//EN"
 "http://www.w3.org/Graphics/SVG/1.1/DTD/svg11.dtd">
<!-- Generated by graphviz version 2.50.0 (0)
 -->
<!-- Pages: 1 -->
<svg width="344pt" height="360pt"
 viewBox="0.00 0.00 343.69 359.91" xmlns="http://www.w3.org/2000/svg" xmlns:xlink="http://www.w3.org/1999/xlink">
<g id="graph0" class="graph" transform="scale(1 1) rotate(0) translate(4 355.91)">
<polygon fill="white" stroke="transparent" points="-4,4 -4,-355.91 339.69,-355.91 339.69,4 -4,4"/>
<g id="clust1" class="cluster">
<title>clusterlags (2)</title>
<path fill="none" stroke="black" d="M138.69,-229.95C138.69,-229.95 315.69,-229.95 315.69,-229.95 321.69,-229.95 327.69,-235.95 327.69,-241.95 327.69,-241.95 327.69,-331.91 327.69,-331.91 327.69,-337.91 321.69,-343.91 315.69,-343.91 315.69,-343.91 138.69,-343.91 138.69,-343.91 132.69,-343.91 126.69,-337.91 126.69,-331.91 126.69,-331.91 126.69,-241.95 126.69,-241.95 126.69,-235.95 132.69,-229.95 138.69,-229.95"/>
<text text-anchor="middle" x="298.69" y="-237.75" font-family="Times,serif" font-size="14.00">lags (2)</text>
</g>
<g id="clust2" class="cluster">
<title>clustersteps (98)</title>
<path fill="none" stroke="black" d="M84.69,-108C84.69,-108 252.69,-108 252.69,-108 258.69,-108 264.69,-114 264.69,-120 264.69,-120 264.69,-209.95 264.69,-209.95 264.69,-215.95 258.69,-221.95 252.69,-221.95 252.69,-221.95 84.69,-221.95 84.69,-221.95 78.69,-221.95 72.69,-215.95 72.69,-209.95 72.69,-209.95 72.69,-120 72.69,-120 72.69,-114 78.69,-108 84.69,-108"/>
<text text-anchor="middle" x="229.69" y="-115.8" font-family="Times,serif" font-size="14.00">steps (98)</text>
</g>
<g id="clust3" class="cluster">
<title>clustertimeseries_length (100)</title>
<path fill="none" stroke="black" d="M153.69,-8C153.69,-8 275.69,-8 275.69,-8 281.69,-8 287.69,-14 287.69,-20 287.69,-20 287.69,-88 287.69,-88 287.69,-94 281.69,-100 275.69,-100 275.69,-100 153.69,-100 153.69,-100 147.69,-100 141.69,-94 141.69,-88 141.69,-88 141.69,-20 141.69,-20 141.69,-14 147.69,-8 153.69,-8"/>
<text text-anchor="middle" x="214.69" y="-15.8" font-family="Times,serif" font-size="14.00">timeseries_length (100)</text>
</g>
<!-- rho -->
<g id="node1" class="node">
<title>rho</title>
<ellipse fill="none" stroke="black" cx="176.69" cy="-298.43" rx="41.94" ry="37.45"/>
<text text-anchor="middle" x="176.69" y="-309.73" font-family="Times,serif" font-size="14.00">rho</text>
<text text-anchor="middle" x="176.69" y="-294.73" font-family="Times,serif" font-size="14.00">~</text>
<text text-anchor="middle" x="176.69" y="-279.73" font-family="Times,serif" font-size="14.00">Normal</text>
</g>
<!-- ar_dist -->
<g id="node4" class="node">
<title>ar_dist</title>
<ellipse fill="none" stroke="black" cx="168.69" cy="-176.48" rx="88.28" ry="37.45"/>
<text text-anchor="middle" x="168.69" y="-187.78" font-family="Times,serif" font-size="14.00">ar_dist</text>
<text text-anchor="middle" x="168.69" y="-172.78" font-family="Times,serif" font-size="14.00">~</text>
<text text-anchor="middle" x="168.69" y="-157.78" font-family="Times,serif" font-size="14.00">CustomDist_ar_dist</text>
</g>
<!-- rho&#45;&gt;ar_dist -->
<g id="edge2" class="edge">
<title>rho&#45;&gt;ar_dist</title>
<path fill="none" stroke="black" d="M174.25,-260.79C173.49,-249.38 172.64,-236.65 171.83,-224.63"/>
<polygon fill="black" stroke="black" points="175.3,-224.05 171.15,-214.31 168.32,-224.52 175.3,-224.05"/>
</g>
<!-- ar_init -->
<g id="node2" class="node">
<title>ar_init</title>
<ellipse fill="none" stroke="black" cx="277.69" cy="-298.43" rx="41.94" ry="37.45"/>
<text text-anchor="middle" x="277.69" y="-309.73" font-family="Times,serif" font-size="14.00">ar_init</text>
<text text-anchor="middle" x="277.69" y="-294.73" font-family="Times,serif" font-size="14.00">~</text>
<text text-anchor="middle" x="277.69" y="-279.73" font-family="Times,serif" font-size="14.00">Normal</text>
</g>
<!-- ar_init&#45;&gt;ar_dist -->
<g id="edge3" class="edge">
<title>ar_init&#45;&gt;ar_dist</title>
<path fill="none" stroke="black" d="M256.32,-265.81C247.9,-254.12 237.82,-241.04 227.69,-229.95 223.78,-225.68 219.55,-221.38 215.21,-217.19"/>
<polygon fill="black" stroke="black" points="217.53,-214.57 207.86,-210.25 212.73,-219.66 217.53,-214.57"/>
</g>
<!-- ar -->
<g id="node5" class="node">
<title>ar</title>
<polygon fill="none" stroke="black" points="260.19,-92 169.19,-92 169.19,-39 260.19,-39 260.19,-92"/>
<text text-anchor="middle" x="214.69" y="-76.8" font-family="Times,serif" font-size="14.00">ar</text>
<text text-anchor="middle" x="214.69" y="-61.8" font-family="Times,serif" font-size="14.00">~</text>
<text text-anchor="middle" x="214.69" y="-46.8" font-family="Times,serif" font-size="14.00">Deterministic</text>
</g>
<!-- ar_init&#45;&gt;ar -->
<g id="edge5" class="edge">
<title>ar_init&#45;&gt;ar</title>
<path fill="none" stroke="black" d="M284.57,-261.25C290.29,-221.32 293.93,-156.29 268.69,-108 267.16,-105.07 265.31,-102.28 263.24,-99.64"/>
<polygon fill="black" stroke="black" points="265.77,-97.21 256.45,-92.17 260.59,-101.92 265.77,-97.21"/>
</g>
<!-- sigma -->
<g id="node3" class="node">
<title>sigma</title>
<ellipse fill="none" stroke="black" cx="58.69" cy="-298.43" rx="58.88" ry="37.45"/>
<text text-anchor="middle" x="58.69" y="-309.73" font-family="Times,serif" font-size="14.00">sigma</text>
<text text-anchor="middle" x="58.69" y="-294.73" font-family="Times,serif" font-size="14.00">~</text>
<text text-anchor="middle" x="58.69" y="-279.73" font-family="Times,serif" font-size="14.00">HalfNormal</text>
</g>
<!-- sigma&#45;&gt;ar_dist -->
<g id="edge1" class="edge">
<title>sigma&#45;&gt;ar_dist</title>
<path fill="none" stroke="black" d="M87.88,-265.6C100.89,-251.41 116.39,-234.51 130.32,-219.32"/>
<polygon fill="black" stroke="black" points="133.26,-221.3 137.43,-211.56 128.1,-216.56 133.26,-221.3"/>
</g>
<!-- ar_dist&#45;&gt;ar -->
<g id="edge4" class="edge">
<title>ar_dist&#45;&gt;ar</title>
<path fill="none" stroke="black" d="M183.88,-139.49C189.04,-127.26 194.8,-113.62 199.93,-101.47"/>
<polygon fill="black" stroke="black" points="203.22,-102.68 203.88,-92.1 196.77,-99.95 203.22,-102.68"/>
</g>
</g>
</svg>