<?xml version="1.0" encoding="UTF-8" standalone="no"?>
<!DOCTYPE svg PUBLIC "-//W3C//DTD SVG 1.1//EN"
 "http://www.w3.org/Graphics/SVG/1.1/DTD/svg11.dtd">
<!-- Generated by graphviz version 6.0.1 (20220911.1526)
 -->
<!-- Pages: 1 -->
<svg width="872pt" height="314pt"
 viewBox="0.00 0.00 872.12 314.04" xmlns="http://www.w3.org/2000/svg" xmlns:xlink="http://www.w3.org/1999/xlink">
<g id="graph0" class="graph" transform="scale(1 1) rotate(0) translate(4 310.04)">
<polygon fill="white" stroke="none" points="-4,4 -4,-310.04 868.12,-310.04 868.12,4 -4,4"/>
<g id="clust1" class="cluster">
<title>clustergroup (4)</title>
<path fill="none" stroke="black" d="M212.13,-89.13C212.13,-89.13 602.13,-89.13 602.13,-89.13 608.13,-89.13 614.13,-95.13 614.13,-101.13 614.13,-101.13 614.13,-191.08 614.13,-191.08 614.13,-197.08 608.13,-203.08 602.13,-203.08 602.13,-203.08 212.13,-203.08 212.13,-203.08 206.13,-203.08 200.13,-197.08 200.13,-191.08 200.13,-191.08 200.13,-101.13 200.13,-101.13 200.13,-95.13 206.13,-89.13 212.13,-89.13"/>
<text text-anchor="middle" x="580.13" y="-96.93" font-family="Times,serif" font-size="14.00">group (4)</text>
</g>
<!-- beta_b -->
<g id="node1" class="node">
<title>beta_b</title>
<ellipse fill="none" stroke="black" cx="43.13" cy="-268.56" rx="43.27" ry="37.45"/>
<text text-anchor="middle" x="43.13" y="-279.86" font-family="Times,serif" font-size="14.00">beta_b</text>
<text text-anchor="middle" x="43.13" y="-264.86" font-family="Times,serif" font-size="14.00">~</text>
<text text-anchor="middle" x="43.13" y="-249.86" font-family="Times,serif" font-size="14.00">Gamma</text>
</g>
<!-- b -->
<g id="node12" class="node">
<title>b</title>
<ellipse fill="none" stroke="black" cx="251.13" cy="-157.61" rx="43.27" ry="37.45"/>
<text text-anchor="middle" x="251.13" y="-168.91" font-family="Times,serif" font-size="14.00">b</text>
<text text-anchor="middle" x="251.13" y="-153.91" font-family="Times,serif" font-size="14.00">~</text>
<text text-anchor="middle" x="251.13" y="-138.91" font-family="Times,serif" font-size="14.00">Gamma</text>
</g>
<!-- beta_b&#45;&gt;b -->
<g id="edge3" class="edge">
<title>beta_b&#45;&gt;b</title>
<path fill="none" stroke="black" d="M75.57,-243.5C81.92,-239.16 88.64,-234.83 95.13,-231.08 130.06,-210.93 171.55,-191.87 202.95,-178.36"/>
<polygon fill="black" stroke="black" points="204.53,-181.49 212.36,-174.35 201.78,-175.05 204.53,-181.49"/>
</g>
<!-- alpha_r -->
<g id="node2" class="node">
<title>alpha_r</title>
<ellipse fill="none" stroke="black" cx="251.13" cy="-268.56" rx="43.27" ry="37.45"/>
<text text-anchor="middle" x="251.13" y="-279.86" font-family="Times,serif" font-size="14.00">alpha_r</text>
<text text-anchor="middle" x="251.13" y="-264.86" font-family="Times,serif" font-size="14.00">~</text>
<text text-anchor="middle" x="251.13" y="-249.86" font-family="Times,serif" font-size="14.00">Gamma</text>
</g>
<!-- r -->
<g id="node10" class="node">
<title>r</title>
<ellipse fill="none" stroke="black" cx="355.13" cy="-157.61" rx="43.27" ry="37.45"/>
<text text-anchor="middle" x="355.13" y="-168.91" font-family="Times,serif" font-size="14.00">r</text>
<text text-anchor="middle" x="355.13" y="-153.91" font-family="Times,serif" font-size="14.00">~</text>
<text text-anchor="middle" x="355.13" y="-138.91" font-family="Times,serif" font-size="14.00">Gamma</text>
</g>
<!-- alpha_r&#45;&gt;r -->
<g id="edge7" class="edge">
<title>alpha_r&#45;&gt;r</title>
<path fill="none" stroke="black" d="M278.19,-239.22C291.2,-225.58 306.96,-209.08 320.81,-194.57"/>
<polygon fill="black" stroke="black" points="323.48,-196.83 327.85,-187.18 318.42,-192 323.48,-196.83"/>
</g>
<!-- beta_a -->
<g id="node3" class="node">
<title>beta_a</title>
<ellipse fill="none" stroke="black" cx="459.13" cy="-268.56" rx="43.27" ry="37.45"/>
<text text-anchor="middle" x="459.13" y="-279.86" font-family="Times,serif" font-size="14.00">beta_a</text>
<text text-anchor="middle" x="459.13" y="-264.86" font-family="Times,serif" font-size="14.00">~</text>
<text text-anchor="middle" x="459.13" y="-249.86" font-family="Times,serif" font-size="14.00">Gamma</text>
</g>
<!-- a -->
<g id="node13" class="node">
<title>a</title>
<ellipse fill="none" stroke="black" cx="459.13" cy="-157.61" rx="43.27" ry="37.45"/>
<text text-anchor="middle" x="459.13" y="-168.91" font-family="Times,serif" font-size="14.00">a</text>
<text text-anchor="middle" x="459.13" y="-153.91" font-family="Times,serif" font-size="14.00">~</text>
<text text-anchor="middle" x="459.13" y="-138.91" font-family="Times,serif" font-size="14.00">Gamma</text>
</g>
<!-- beta_a&#45;&gt;a -->
<g id="edge1" class="edge">
<title>beta_a&#45;&gt;a</title>
<path fill="none" stroke="black" d="M459.13,-230.98C459.13,-222.8 459.13,-214.02 459.13,-205.49"/>
<polygon fill="black" stroke="black" points="462.63,-205.28 459.13,-195.28 455.63,-205.28 462.63,-205.28"/>
</g>
<!-- alpha_b -->
<g id="node4" class="node">
<title>alpha_b</title>
<ellipse fill="none" stroke="black" cx="147.13" cy="-268.56" rx="43.27" ry="37.45"/>
<text text-anchor="middle" x="147.13" y="-279.86" font-family="Times,serif" font-size="14.00">alpha_b</text>
<text text-anchor="middle" x="147.13" y="-264.86" font-family="Times,serif" font-size="14.00">~</text>
<text text-anchor="middle" x="147.13" y="-249.86" font-family="Times,serif" font-size="14.00">Gamma</text>
</g>
<!-- alpha_b&#45;&gt;b -->
<g id="edge4" class="edge">
<title>alpha_b&#45;&gt;b</title>
<path fill="none" stroke="black" d="M174.19,-239.22C187.2,-225.58 202.96,-209.08 216.81,-194.57"/>
<polygon fill="black" stroke="black" points="219.48,-196.83 223.85,-187.18 214.42,-192 219.48,-196.83"/>
</g>
<!-- beta_r -->
<g id="node5" class="node">
<title>beta_r</title>
<ellipse fill="none" stroke="black" cx="355.13" cy="-268.56" rx="43.27" ry="37.45"/>
<text text-anchor="middle" x="355.13" y="-279.86" font-family="Times,serif" font-size="14.00">beta_r</text>
<text text-anchor="middle" x="355.13" y="-264.86" font-family="Times,serif" font-size="14.00">~</text>
<text text-anchor="middle" x="355.13" y="-249.86" font-family="Times,serif" font-size="14.00">Gamma</text>
</g>
<!-- beta_r&#45;&gt;r -->
<g id="edge8" class="edge">
<title>beta_r&#45;&gt;r</title>
<path fill="none" stroke="black" d="M355.13,-230.98C355.13,-222.8 355.13,-214.02 355.13,-205.49"/>
<polygon fill="black" stroke="black" points="358.63,-205.28 355.13,-195.28 351.63,-205.28 358.63,-205.28"/>
</g>
<!-- alpha_a -->
<g id="node6" class="node">
<title>alpha_a</title>
<ellipse fill="none" stroke="black" cx="563.13" cy="-268.56" rx="43.27" ry="37.45"/>
<text text-anchor="middle" x="563.13" y="-279.86" font-family="Times,serif" font-size="14.00">alpha_a</text>
<text text-anchor="middle" x="563.13" y="-264.86" font-family="Times,serif" font-size="14.00">~</text>
<text text-anchor="middle" x="563.13" y="-249.86" font-family="Times,serif" font-size="14.00">Gamma</text>
</g>
<!-- alpha_a&#45;&gt;a -->
<g id="edge2" class="edge">
<title>alpha_a&#45;&gt;a</title>
<path fill="none" stroke="black" d="M536.08,-239.22C523.06,-225.58 507.31,-209.08 493.46,-194.57"/>
<polygon fill="black" stroke="black" points="495.85,-192 486.41,-187.18 490.79,-196.83 495.85,-192"/>
</g>
<!-- beta_alpha -->
<g id="node7" class="node">
<title>beta_alpha</title>
<ellipse fill="none" stroke="black" cx="677.13" cy="-268.56" rx="53.07" ry="37.45"/>
<text text-anchor="middle" x="677.13" y="-279.86" font-family="Times,serif" font-size="14.00">beta_alpha</text>
<text text-anchor="middle" x="677.13" y="-264.86" font-family="Times,serif" font-size="14.00">~</text>
<text text-anchor="middle" x="677.13" y="-249.86" font-family="Times,serif" font-size="14.00">Gamma</text>
</g>
<!-- alpha -->
<g id="node11" class="node">
<title>alpha</title>
<ellipse fill="none" stroke="black" cx="563.13" cy="-157.61" rx="43.27" ry="37.45"/>
<text text-anchor="middle" x="563.13" y="-168.91" font-family="Times,serif" font-size="14.00">alpha</text>
<text text-anchor="middle" x="563.13" y="-153.91" font-family="Times,serif" font-size="14.00">~</text>
<text text-anchor="middle" x="563.13" y="-138.91" font-family="Times,serif" font-size="14.00">Gamma</text>
</g>
<!-- beta_alpha&#45;&gt;alpha -->
<g id="edge6" class="edge">
<title>beta_alpha&#45;&gt;alpha</title>
<path fill="none" stroke="black" d="M646.28,-238.07C631.66,-224.1 614.11,-207.33 598.91,-192.8"/>
<polygon fill="black" stroke="black" points="601.31,-190.25 591.66,-185.87 596.47,-195.31 601.31,-190.25"/>
</g>
<!-- likelihood -->
<g id="node8" class="node">
<title>likelihood</title>
<polygon fill="lightgrey" stroke="black" points="461.32,-23.74 461.32,-57.39 429.58,-81.19 384.69,-81.19 352.95,-57.39 352.95,-23.74 384.69,0.06 429.58,0.06 461.32,-23.74"/>
<text text-anchor="middle" x="407.13" y="-51.86" font-family="Times,serif" font-size="14.00">likelihood</text>
<text text-anchor="middle" x="407.13" y="-36.86" font-family="Times,serif" font-size="14.00">~</text>
<text text-anchor="middle" x="407.13" y="-21.86" font-family="Times,serif" font-size="14.00">Potential</text>
</g>
<!-- alpha_alpha -->
<g id="node9" class="node">
<title>alpha_alpha</title>
<ellipse fill="none" stroke="black" cx="806.13" cy="-268.56" rx="57.97" ry="37.45"/>
<text text-anchor="middle" x="806.13" y="-279.86" font-family="Times,serif" font-size="14.00">alpha_alpha</text>
<text text-anchor="middle" x="806.13" y="-264.86" font-family="Times,serif" font-size="14.00">~</text>
<text text-anchor="middle" x="806.13" y="-249.86" font-family="Times,serif" font-size="14.00">Gamma</text>
</g>
<!-- alpha_alpha&#45;&gt;alpha -->
<g id="edge5" class="edge">
<title>alpha_alpha&#45;&gt;alpha</title>
<path fill="none" stroke="black" d="M763.24,-243.32C755.3,-239.09 747.02,-234.84 739.13,-231.08 697,-211.01 647.8,-191.03 612.14,-177.14"/>
<polygon fill="black" stroke="black" points="613.05,-173.74 602.46,-173.4 610.52,-180.27 613.05,-173.74"/>
</g>
<!-- r&#45;&gt;likelihood -->
<g id="edge10" class="edge">
<title>r&#45;&gt;likelihood</title>
<path fill="none" stroke="black" d="M370.59,-122.4C375.09,-112.46 380.08,-101.41 384.9,-90.74"/>
<polygon fill="black" stroke="black" points="388.15,-92.06 389.08,-81.51 381.77,-89.18 388.15,-92.06"/>
</g>
<!-- alpha&#45;&gt;likelihood -->
<g id="edge9" class="edge">
<title>alpha&#45;&gt;likelihood</title>
<path fill="none" stroke="black" d="M543.14,-124.3C534.43,-112.13 523.41,-98.88 511.13,-89.13 498.33,-78.95 482.99,-70.4 468.08,-63.47"/>
<polygon fill="black" stroke="black" points="469.43,-60.25 458.87,-59.38 466.59,-66.64 469.43,-60.25"/>
</g>
<!-- b&#45;&gt;likelihood -->
<g id="edge11" class="edge">
<title>b&#45;&gt;likelihood</title>
<path fill="none" stroke="black" d="M271.13,-124.3C279.84,-112.13 290.86,-98.88 303.13,-89.13 315.94,-78.95 331.28,-70.4 346.19,-63.47"/>
<polygon fill="black" stroke="black" points="347.68,-66.64 355.39,-59.38 344.83,-60.25 347.68,-66.64"/>
</g>
<!-- a&#45;&gt;likelihood -->
<g id="edge12" class="edge">
<title>a&#45;&gt;likelihood</title>
<path fill="none" stroke="black" d="M443.67,-122.4C439.18,-112.46 434.18,-101.41 429.36,-90.74"/>
<polygon fill="black" stroke="black" points="432.5,-89.18 425.19,-81.51 426.12,-92.06 432.5,-89.18"/>
</g>
</g>
</svg>
