<?xml version="1.0" encoding="UTF-8" standalone="no"?>
<!DOCTYPE svg PUBLIC "-//W3C//DTD SVG 1.1//EN"
 "http://www.w3.org/Graphics/SVG/1.1/DTD/svg11.dtd">
<!-- Generated by graphviz version 6.0.1 (20220911.1526)
 -->
<!-- Pages: 1 -->
<svg width="530pt" height="314pt"
 viewBox="0.00 0.00 530.38 314.04" xmlns="http://www.w3.org/2000/svg" xmlns:xlink="http://www.w3.org/1999/xlink">
<g id="graph0" class="graph" transform="scale(1 1) rotate(0) translate(4 310.04)">
<polygon fill="white" stroke="none" points="-4,4 -4,-310.04 526.38,-310.04 526.38,4 -4,4"/>
<g id="clust1" class="cluster">
<title>cluster2357</title>
<path fill="none" stroke="black" d="M176.69,-89.13C176.69,-89.13 330.69,-89.13 330.69,-89.13 336.69,-89.13 342.69,-95.13 342.69,-101.13 342.69,-101.13 342.69,-191.08 342.69,-191.08 342.69,-197.08 336.69,-203.08 330.69,-203.08 330.69,-203.08 176.69,-203.08 176.69,-203.08 170.69,-203.08 164.69,-197.08 164.69,-191.08 164.69,-191.08 164.69,-101.13 164.69,-101.13 164.69,-95.13 170.69,-89.13 176.69,-89.13"/>
<text text-anchor="middle" x="320.69" y="-96.93" font-family="Times,serif" font-size="14.00">2357</text>
</g>
<!-- alpha -->
<g id="node1" class="node">
<title>alpha</title>
<ellipse fill="none" stroke="black" cx="58.69" cy="-268.56" rx="58.88" ry="37.45"/>
<text text-anchor="middle" x="58.69" y="-279.86" font-family="Times,serif" font-size="14.00">alpha</text>
<text text-anchor="middle" x="58.69" y="-264.86" font-family="Times,serif" font-size="14.00">~</text>
<text text-anchor="middle" x="58.69" y="-249.86" font-family="Times,serif" font-size="14.00">HalfNormal</text>
</g>
<!-- lam -->
<g id="node6" class="node">
<title>lam</title>
<ellipse fill="none" stroke="black" cx="215.69" cy="-157.61" rx="43.27" ry="37.45"/>
<text text-anchor="middle" x="215.69" y="-168.91" font-family="Times,serif" font-size="14.00">lam</text>
<text text-anchor="middle" x="215.69" y="-153.91" font-family="Times,serif" font-size="14.00">~</text>
<text text-anchor="middle" x="215.69" y="-138.91" font-family="Times,serif" font-size="14.00">Gamma</text>
</g>
<!-- alpha&#45;&gt;lam -->
<g id="edge1" class="edge">
<title>alpha&#45;&gt;lam</title>
<path fill="none" stroke="black" d="M97.9,-240.35C121.12,-224.24 150.51,-203.84 174.13,-187.45"/>
<polygon fill="black" stroke="black" points="176.32,-190.19 182.54,-181.61 172.33,-184.43 176.32,-190.19"/>
</g>
<!-- r -->
<g id="node2" class="node">
<title>r</title>
<ellipse fill="none" stroke="black" cx="193.69" cy="-268.56" rx="58.88" ry="37.45"/>
<text text-anchor="middle" x="193.69" y="-279.86" font-family="Times,serif" font-size="14.00">r</text>
<text text-anchor="middle" x="193.69" y="-264.86" font-family="Times,serif" font-size="14.00">~</text>
<text text-anchor="middle" x="193.69" y="-249.86" font-family="Times,serif" font-size="14.00">HalfNormal</text>
</g>
<!-- r&#45;&gt;lam -->
<g id="edge2" class="edge">
<title>r&#45;&gt;lam</title>
<path fill="none" stroke="black" d="M201.02,-231.28C202.74,-222.73 204.6,-213.51 206.4,-204.6"/>
<polygon fill="black" stroke="black" points="209.85,-205.22 208.4,-194.73 202.99,-203.84 209.85,-205.22"/>
</g>
<!-- likelihood -->
<g id="node3" class="node">
<title>likelihood</title>
<polygon fill="lightgrey" stroke="black" points="314.87,-23.74 314.87,-57.39 283.13,-81.19 238.25,-81.19 206.51,-57.39 206.51,-23.74 238.25,0.06 283.13,0.06 314.87,-23.74"/>
<text text-anchor="middle" x="260.69" y="-51.86" font-family="Times,serif" font-size="14.00">likelihood</text>
<text text-anchor="middle" x="260.69" y="-36.86" font-family="Times,serif" font-size="14.00">~</text>
<text text-anchor="middle" x="260.69" y="-21.86" font-family="Times,serif" font-size="14.00">Potential</text>
</g>
<!-- a -->
<g id="node4" class="node">
<title>a</title>
<ellipse fill="none" stroke="black" cx="328.69" cy="-268.56" rx="58.88" ry="37.45"/>
<text text-anchor="middle" x="328.69" y="-279.86" font-family="Times,serif" font-size="14.00">a</text>
<text text-anchor="middle" x="328.69" y="-264.86" font-family="Times,serif" font-size="14.00">~</text>
<text text-anchor="middle" x="328.69" y="-249.86" font-family="Times,serif" font-size="14.00">HalfNormal</text>
</g>
<!-- p -->
<g id="node7" class="node">
<title>p</title>
<ellipse fill="none" stroke="black" cx="305.69" cy="-157.61" rx="28.98" ry="37.45"/>
<text text-anchor="middle" x="305.69" y="-168.91" font-family="Times,serif" font-size="14.00">p</text>
<text text-anchor="middle" x="305.69" y="-153.91" font-family="Times,serif" font-size="14.00">~</text>
<text text-anchor="middle" x="305.69" y="-138.91" font-family="Times,serif" font-size="14.00">Beta</text>
</g>
<!-- a&#45;&gt;p -->
<g id="edge4" class="edge">
<title>a&#45;&gt;p</title>
<path fill="none" stroke="black" d="M321.03,-231.28C319.19,-222.55 317.2,-213.12 315.28,-204.04"/>
<polygon fill="black" stroke="black" points="318.65,-203.05 313.16,-193.99 311.8,-204.49 318.65,-203.05"/>
</g>
<!-- b -->
<g id="node5" class="node">
<title>b</title>
<ellipse fill="none" stroke="black" cx="463.69" cy="-268.56" rx="58.88" ry="37.45"/>
<text text-anchor="middle" x="463.69" y="-279.86" font-family="Times,serif" font-size="14.00">b</text>
<text text-anchor="middle" x="463.69" y="-264.86" font-family="Times,serif" font-size="14.00">~</text>
<text text-anchor="middle" x="463.69" y="-249.86" font-family="Times,serif" font-size="14.00">HalfNormal</text>
</g>
<!-- b&#45;&gt;p -->
<g id="edge3" class="edge">
<title>b&#45;&gt;p</title>
<path fill="none" stroke="black" d="M424.23,-240.35C398.23,-222.42 364.53,-199.18 339.71,-182.07"/>
<polygon fill="black" stroke="black" points="341.55,-179.08 331.33,-176.29 337.57,-184.84 341.55,-179.08"/>
</g>
<!-- lam&#45;&gt;likelihood -->
<g id="edge5" class="edge">
<title>lam&#45;&gt;likelihood</title>
<path fill="none" stroke="black" d="M229.31,-121.78C233.12,-112.06 237.32,-101.3 241.39,-90.92"/>
<polygon fill="black" stroke="black" points="244.68,-92.11 245.06,-81.52 238.16,-89.56 244.68,-92.11"/>
</g>
<!-- p&#45;&gt;likelihood -->
<g id="edge6" class="edge">
<title>p&#45;&gt;likelihood</title>
<path fill="none" stroke="black" d="M292.92,-123.95C288.85,-113.57 284.27,-101.85 279.86,-90.58"/>
<polygon fill="black" stroke="black" points="283.12,-89.29 276.22,-81.26 276.6,-91.84 283.12,-89.29"/>
</g>
</g>
</svg>
