<?xml version="1.0" encoding="UTF-8" standalone="no"?>
<!DOCTYPE svg PUBLIC "-//W3C//DTD SVG 1.1//EN"
 "http://www.w3.org/Graphics/SVG/1.1/DTD/svg11.dtd">
<!-- Generated by graphviz version 6.0.1 (20220911.1526)
 -->
<!-- Pages: 1 -->
<svg width="530pt" height="200pt"
 viewBox="0.00 0.00 530.38 200.08" xmlns="http://www.w3.org/2000/svg" xmlns:xlink="http://www.w3.org/1999/xlink">
<g id="graph0" class="graph" transform="scale(1 1) rotate(0) translate(4 196.08)">
<polygon fill="white" stroke="none" points="-4,4 -4,-196.08 526.38,-196.08 526.38,4 -4,4"/>
<!-- alpha -->
<g id="node1" class="node">
<title>alpha</title>
<ellipse fill="none" stroke="black" cx="58.69" cy="-154.61" rx="58.88" ry="37.45"/>
<text text-anchor="middle" x="58.69" y="-165.91" font-family="Times,serif" font-size="14.00">alpha</text>
<text text-anchor="middle" x="58.69" y="-150.91" font-family="Times,serif" font-size="14.00">~</text>
<text text-anchor="middle" x="58.69" y="-135.91" font-family="Times,serif" font-size="14.00">HalfNormal</text>
</g>
<!-- likelihood -->
<g id="node3" class="node">
<title>likelihood</title>
<polygon fill="lightgrey" stroke="black" points="314.87,-23.74 314.87,-57.39 283.13,-81.19 238.25,-81.19 206.51,-57.39 206.51,-23.74 238.25,0.06 283.13,0.06 314.87,-23.74"/>
<text text-anchor="middle" x="260.69" y="-51.86" font-family="Times,serif" font-size="14.00">likelihood</text>
<text text-anchor="middle" x="260.69" y="-36.86" font-family="Times,serif" font-size="14.00">~</text>
<text text-anchor="middle" x="260.69" y="-21.86" font-family="Times,serif" font-size="14.00">Potential</text>
</g>
<!-- alpha&#45;&gt;likelihood -->
<g id="edge1" class="edge">
<title>alpha&#45;&gt;likelihood</title>
<path fill="none" stroke="black" d="M102.52,-129.29C133.6,-112.06 175.44,-88.85 208.28,-70.63"/>
<polygon fill="black" stroke="black" points="210.24,-73.55 217.29,-65.64 206.85,-67.43 210.24,-73.55"/>
</g>
<!-- r -->
<g id="node2" class="node">
<title>r</title>
<ellipse fill="none" stroke="black" cx="193.69" cy="-154.61" rx="58.88" ry="37.45"/>
<text text-anchor="middle" x="193.69" y="-165.91" font-family="Times,serif" font-size="14.00">r</text>
<text text-anchor="middle" x="193.69" y="-150.91" font-family="Times,serif" font-size="14.00">~</text>
<text text-anchor="middle" x="193.69" y="-135.91" font-family="Times,serif" font-size="14.00">HalfNormal</text>
</g>
<!-- r&#45;&gt;likelihood -->
<g id="edge2" class="edge">
<title>r&#45;&gt;likelihood</title>
<path fill="none" stroke="black" d="M214.16,-119.38C219.81,-109.92 226.05,-99.48 232.08,-89.41"/>
<polygon fill="black" stroke="black" points="235.17,-91.06 237.3,-80.68 229.16,-87.46 235.17,-91.06"/>
</g>
<!-- a -->
<g id="node4" class="node">
<title>a</title>
<ellipse fill="none" stroke="black" cx="328.69" cy="-154.61" rx="58.88" ry="37.45"/>
<text text-anchor="middle" x="328.69" y="-165.91" font-family="Times,serif" font-size="14.00">a</text>
<text text-anchor="middle" x="328.69" y="-150.91" font-family="Times,serif" font-size="14.00">~</text>
<text text-anchor="middle" x="328.69" y="-135.91" font-family="Times,serif" font-size="14.00">HalfNormal</text>
</g>
<!-- a&#45;&gt;likelihood -->
<g id="edge4" class="edge">
<title>a&#45;&gt;likelihood</title>
<path fill="none" stroke="black" d="M307.92,-119.38C302.18,-109.92 295.84,-99.48 289.73,-89.41"/>
<polygon fill="black" stroke="black" points="292.61,-87.41 284.43,-80.68 286.62,-91.04 292.61,-87.41"/>
</g>
<!-- b -->
<g id="node5" class="node">
<title>b</title>
<ellipse fill="none" stroke="black" cx="463.69" cy="-154.61" rx="58.88" ry="37.45"/>
<text text-anchor="middle" x="463.69" y="-165.91" font-family="Times,serif" font-size="14.00">b</text>
<text text-anchor="middle" x="463.69" y="-150.91" font-family="Times,serif" font-size="14.00">~</text>
<text text-anchor="middle" x="463.69" y="-135.91" font-family="Times,serif" font-size="14.00">HalfNormal</text>
</g>
<!-- b&#45;&gt;likelihood -->
<g id="edge3" class="edge">
<title>b&#45;&gt;likelihood</title>
<path fill="none" stroke="black" d="M419.64,-129.29C388.41,-112.06 346.36,-88.85 313.36,-70.63"/>
<polygon fill="black" stroke="black" points="314.75,-67.4 304.3,-65.64 311.37,-73.53 314.75,-67.4"/>
</g>
</g>
</svg>
