<?xml version="1.0" encoding="UTF-8" standalone="no"?>
<!DOCTYPE svg PUBLIC "-//W3C//DTD SVG 1.1//EN"
 "http://www.w3.org/Graphics/SVG/1.1/DTD/svg11.dtd">
<!-- Generated by graphviz version 6.0.1 (20220911.1526)
 -->
<!-- Pages: 1 -->
<svg width="559pt" height="311pt"
 viewBox="0.00 0.00 559.41 311.04" xmlns="http://www.w3.org/2000/svg" xmlns:xlink="http://www.w3.org/1999/xlink">
<g id="graph0" class="graph" transform="scale(1 1) rotate(0) translate(4 307.04)">
<polygon fill="white" stroke="none" points="-4,4 -4,-307.04 555.41,-307.04 555.41,4 -4,4"/>
<g id="clust1" class="cluster">
<title>cluster2357</title>
<path fill="none" stroke="black" d="M408.69,-97.11C408.69,-97.11 492.69,-97.11 492.69,-97.11 498.69,-97.11 504.69,-103.11 504.69,-109.11 504.69,-109.11 504.69,-177.11 504.69,-177.11 504.69,-183.11 498.69,-189.11 492.69,-189.11 492.69,-189.11 408.69,-189.11 408.69,-189.11 402.69,-189.11 396.69,-183.11 396.69,-177.11 396.69,-177.11 396.69,-109.11 396.69,-109.11 396.69,-103.11 402.69,-97.11 408.69,-97.11"/>
<text text-anchor="middle" x="482.69" y="-104.91" font-family="Times,serif" font-size="14.00">2357</text>
</g>
<!-- r -->
<g id="node1" class="node">
<title>r</title>
<ellipse fill="none" stroke="black" cx="58.69" cy="-154.61" rx="58.88" ry="37.45"/>
<text text-anchor="middle" x="58.69" y="-165.91" font-family="Times,serif" font-size="14.00">r</text>
<text text-anchor="middle" x="58.69" y="-150.91" font-family="Times,serif" font-size="14.00">~</text>
<text text-anchor="middle" x="58.69" y="-135.91" font-family="Times,serif" font-size="14.00">HalfNormal</text>
</g>
<!-- likelihood -->
<g id="node5" class="node">
<title>likelihood</title>
<polygon fill="lightgrey" stroke="black" points="314.87,-23.74 314.87,-57.39 283.13,-81.19 238.25,-81.19 206.51,-57.39 206.51,-23.74 238.25,0.06 283.13,0.06 314.87,-23.74"/>
<text text-anchor="middle" x="260.69" y="-51.86" font-family="Times,serif" font-size="14.00">likelihood</text>
<text text-anchor="middle" x="260.69" y="-36.86" font-family="Times,serif" font-size="14.00">~</text>
<text text-anchor="middle" x="260.69" y="-21.86" font-family="Times,serif" font-size="14.00">Potential</text>
</g>
<!-- r&#45;&gt;likelihood -->
<g id="edge4" class="edge">
<title>r&#45;&gt;likelihood</title>
<path fill="none" stroke="black" d="M90.87,-122.99C101.44,-113.91 113.59,-104.45 125.69,-97.11 148.35,-83.35 175.03,-71.57 198.66,-62.44"/>
<polygon fill="black" stroke="black" points="200.12,-65.63 208.23,-58.82 197.64,-59.08 200.12,-65.63"/>
</g>
<!-- alpha0 -->
<g id="node2" class="node">
<title>alpha0</title>
<ellipse fill="none" stroke="black" cx="391.69" cy="-265.56" rx="58.88" ry="37.45"/>
<text text-anchor="middle" x="391.69" y="-276.86" font-family="Times,serif" font-size="14.00">alpha0</text>
<text text-anchor="middle" x="391.69" y="-261.86" font-family="Times,serif" font-size="14.00">~</text>
<text text-anchor="middle" x="391.69" y="-246.86" font-family="Times,serif" font-size="14.00">HalfNormal</text>
</g>
<!-- alpha -->
<g id="node7" class="node">
<title>alpha</title>
<polygon fill="none" stroke="black" points="496.19,-181.11 405.19,-181.11 405.19,-128.11 496.19,-128.11 496.19,-181.11"/>
<text text-anchor="middle" x="450.69" y="-165.91" font-family="Times,serif" font-size="14.00">alpha</text>
<text text-anchor="middle" x="450.69" y="-150.91" font-family="Times,serif" font-size="14.00">~</text>
<text text-anchor="middle" x="450.69" y="-135.91" font-family="Times,serif" font-size="14.00">Deterministic</text>
</g>
<!-- alpha0&#45;&gt;alpha -->
<g id="edge2" class="edge">
<title>alpha0&#45;&gt;alpha</title>
<path fill="none" stroke="black" d="M410.52,-229.79C417.36,-217.16 425.08,-202.9 431.92,-190.28"/>
<polygon fill="black" stroke="black" points="435.02,-191.88 436.71,-181.42 428.87,-188.55 435.02,-191.88"/>
</g>
<!-- g1 -->
<g id="node3" class="node">
<title>g1</title>
<ellipse fill="none" stroke="black" cx="509.69" cy="-265.56" rx="41.94" ry="37.45"/>
<text text-anchor="middle" x="509.69" y="-276.86" font-family="Times,serif" font-size="14.00">g1</text>
<text text-anchor="middle" x="509.69" y="-261.86" font-family="Times,serif" font-size="14.00">~</text>
<text text-anchor="middle" x="509.69" y="-246.86" font-family="Times,serif" font-size="14.00">Normal</text>
</g>
<!-- g1&#45;&gt;alpha -->
<g id="edge1" class="edge">
<title>g1&#45;&gt;alpha</title>
<path fill="none" stroke="black" d="M491.83,-231.57C484.72,-218.44 476.53,-203.33 469.35,-190.06"/>
<polygon fill="black" stroke="black" points="472.4,-188.34 464.56,-181.21 466.24,-191.67 472.4,-188.34"/>
</g>
<!-- a -->
<g id="node4" class="node">
<title>a</title>
<ellipse fill="none" stroke="black" cx="193.69" cy="-154.61" rx="58.88" ry="37.45"/>
<text text-anchor="middle" x="193.69" y="-165.91" font-family="Times,serif" font-size="14.00">a</text>
<text text-anchor="middle" x="193.69" y="-150.91" font-family="Times,serif" font-size="14.00">~</text>
<text text-anchor="middle" x="193.69" y="-135.91" font-family="Times,serif" font-size="14.00">HalfNormal</text>
</g>
<!-- a&#45;&gt;likelihood -->
<g id="edge6" class="edge">
<title>a&#45;&gt;likelihood</title>
<path fill="none" stroke="black" d="M214.16,-119.38C219.81,-109.92 226.05,-99.48 232.08,-89.41"/>
<polygon fill="black" stroke="black" points="235.17,-91.06 237.3,-80.68 229.16,-87.46 235.17,-91.06"/>
</g>
<!-- b -->
<g id="node6" class="node">
<title>b</title>
<ellipse fill="none" stroke="black" cx="328.69" cy="-154.61" rx="58.88" ry="37.45"/>
<text text-anchor="middle" x="328.69" y="-165.91" font-family="Times,serif" font-size="14.00">b</text>
<text text-anchor="middle" x="328.69" y="-150.91" font-family="Times,serif" font-size="14.00">~</text>
<text text-anchor="middle" x="328.69" y="-135.91" font-family="Times,serif" font-size="14.00">HalfNormal</text>
</g>
<!-- b&#45;&gt;likelihood -->
<g id="edge5" class="edge">
<title>b&#45;&gt;likelihood</title>
<path fill="none" stroke="black" d="M307.92,-119.38C302.18,-109.92 295.84,-99.48 289.73,-89.41"/>
<polygon fill="black" stroke="black" points="292.61,-87.41 284.43,-80.68 286.62,-91.04 292.61,-87.41"/>
</g>
<!-- alpha&#45;&gt;likelihood -->
<g id="edge3" class="edge">
<title>alpha&#45;&gt;likelihood</title>
<path fill="none" stroke="black" d="M430.32,-127.92C420.94,-117.33 409.14,-105.58 396.69,-97.11 374.73,-82.15 348.13,-70.18 324.3,-61.22"/>
<polygon fill="black" stroke="black" points="325.22,-57.83 314.63,-57.7 322.82,-64.41 325.22,-57.83"/>
</g>
</g>
</svg>
