<?xml version="1.0" encoding="UTF-8" standalone="no"?>
<!DOCTYPE svg PUBLIC "-//W3C//DTD SVG 1.1//EN"
 "http://www.w3.org/Graphics/SVG/1.1/DTD/svg11.dtd">
<!-- Generated by graphviz version 12.0.0 (0)
 -->
<!-- Pages: 1 -->
<svg width="381pt" height="352pt"
 viewBox="0.00 0.00 381.40 352.00" xmlns="http://www.w3.org/2000/svg" xmlns:xlink="http://www.w3.org/1999/xlink">
<g id="graph0" class="graph" transform="scale(1 1) rotate(0) translate(4 348)">
<polygon fill="white" stroke="none" points="-4,4 -4,-348 377.4,-348 377.4,4 -4,4"/>
<g id="clust1" class="cluster">
<title>cluster_n_series</title>
<polygon fill="none" stroke="black" points="15.4,-116 15.4,-192.5 365.4,-192.5 365.4,-116 15.4,-116"/>
<text text-anchor="middle" x="335.27" y="-123.2" font-family="Times,serif" font-size="14.00">n_series</text>
</g>
<!-- noise_scale -->
<g id="node1" class="node">
<title>noise_scale</title>
<ellipse fill="white" stroke="black" cx="53.4" cy="-282.25" rx="53.4" ry="18"/>
<text text-anchor="middle" x="53.4" y="-277.2" font-family="Times,serif" font-size="14.00">noise_scale</text>
</g>
<!-- noise -->
<g id="node7" class="node">
<title>noise</title>
<ellipse fill="white" stroke="black" cx="53.4" cy="-166.5" rx="30.37" ry="18"/>
<text text-anchor="middle" x="53.4" y="-161.45" font-family="Times,serif" font-size="14.00">noise</text>
</g>
<!-- noise_scale&#45;&gt;noise -->
<g id="edge1" class="edge">
<title>noise_scale&#45;&gt;noise</title>
<path fill="none" stroke="black" d="M53.4,-263.97C53.4,-246.02 53.4,-217.61 53.4,-196.26"/>
<polygon fill="black" stroke="black" points="56.9,-196.45 53.4,-186.45 49.9,-196.45 56.9,-196.45"/>
</g>
<!-- pred_raw -->
<g id="node2" class="node">
<title>pred_raw</title>
<ellipse fill="white" stroke="black" cx="165.4" cy="-90" rx="45.72" ry="18"/>
<text text-anchor="middle" x="165.4" y="-84.95" font-family="Times,serif" font-size="14.00">pred_raw</text>
</g>
<!-- pred -->
<g id="node3" class="node">
<title>pred</title>
<ellipse fill="white" stroke="black" stroke-dasharray="5,2" cx="122.4" cy="-18" rx="27.3" ry="18"/>
<text text-anchor="middle" x="122.4" y="-12.95" font-family="Times,serif" font-size="14.00">pred</text>
</g>
<!-- pred_raw&#45;&gt;pred -->
<g id="edge8" class="edge">
<title>pred_raw&#45;&gt;pred</title>
<path fill="none" stroke="black" d="M154.99,-72.05C149.93,-63.82 143.75,-53.76 138.13,-44.61"/>
<polygon fill="black" stroke="black" points="141.13,-42.81 132.91,-36.12 135.17,-46.47 141.13,-42.81"/>
</g>
<!-- forecast -->
<g id="node4" class="node">
<title>forecast</title>
<ellipse fill="white" stroke="black" stroke-dasharray="5,2" cx="223.4" cy="-18" rx="40.09" ry="18"/>
<text text-anchor="middle" x="223.4" y="-12.95" font-family="Times,serif" font-size="14.00">forecast</text>
</g>
<!-- pred_raw&#45;&gt;forecast -->
<g id="edge12" class="edge">
<title>pred_raw&#45;&gt;forecast</title>
<path fill="none" stroke="black" d="M179.14,-72.41C186.25,-63.83 195.07,-53.19 202.96,-43.67"/>
<polygon fill="black" stroke="black" points="205.5,-46.09 209.19,-36.15 200.11,-41.62 205.5,-46.09"/>
</g>
<!-- z_smoothing -->
<g id="node5" class="node">
<title>z_smoothing</title>
<ellipse fill="white" stroke="black" cx="160.4" cy="-166.5" rx="59.03" ry="18"/>
<text text-anchor="middle" x="160.4" y="-161.45" font-family="Times,serif" font-size="14.00">z_smoothing</text>
</g>
<!-- z_smoothing&#45;&gt;pred_raw -->
<g id="edge2" class="edge">
<title>z_smoothing&#45;&gt;pred_raw</title>
<path fill="none" stroke="black" d="M161.56,-148.22C162.13,-139.73 162.83,-129.26 163.48,-119.62"/>
<polygon fill="black" stroke="black" points="166.95,-120.17 164.13,-109.95 159.96,-119.7 166.95,-120.17"/>
</g>
<!-- z_smoothing&#45;&gt;pred -->
<g id="edge5" class="edge">
<title>z_smoothing&#45;&gt;pred</title>
<path fill="none" stroke="black" d="M140.36,-149.13C129.22,-138.68 116.42,-124.11 110.4,-108 103.01,-88.23 106.79,-64.49 111.99,-46.5"/>
<polygon fill="black" stroke="black" points="115.3,-47.64 115.05,-37.05 108.64,-45.49 115.3,-47.64"/>
</g>
<!-- z_smoothing&#45;&gt;forecast -->
<g id="edge9" class="edge">
<title>z_smoothing&#45;&gt;forecast</title>
<path fill="none" stroke="black" d="M184.44,-149.63C197.63,-139.46 212.81,-124.99 220.4,-108 228.84,-89.1 229.27,-65.63 227.77,-47.53"/>
<polygon fill="black" stroke="black" points="231.26,-47.31 226.69,-37.76 224.31,-48.08 231.26,-47.31"/>
</g>
<!-- p_smoothing -->
<g id="node6" class="node">
<title>p_smoothing</title>
<ellipse fill="white" stroke="black" cx="297.4" cy="-166.5" rx="59.54" ry="18"/>
<text text-anchor="middle" x="297.4" y="-161.45" font-family="Times,serif" font-size="14.00">p_smoothing</text>
</g>
<!-- p_smoothing&#45;&gt;pred_raw -->
<g id="edge3" class="edge">
<title>p_smoothing&#45;&gt;pred_raw</title>
<path fill="none" stroke="black" d="M277.43,-149.17C264.1,-138.79 245.86,-125.54 228.4,-116 222.51,-112.78 216.12,-109.76 209.74,-107"/>
<polygon fill="black" stroke="black" points="211.1,-103.77 200.52,-103.2 208.43,-110.25 211.1,-103.77"/>
</g>
<!-- p_smoothing&#45;&gt;pred -->
<g id="edge6" class="edge">
<title>p_smoothing&#45;&gt;pred</title>
<path fill="none" stroke="black" d="M286.51,-148.63C272.9,-128.5 248,-94.72 220.4,-72 200.87,-55.92 175.72,-42.44 155.78,-33.1"/>
<polygon fill="black" stroke="black" points="157.25,-29.92 146.69,-28.97 154.35,-36.29 157.25,-29.92"/>
</g>
<!-- p_smoothing&#45;&gt;forecast -->
<g id="edge10" class="edge">
<title>p_smoothing&#45;&gt;forecast</title>
<path fill="none" stroke="black" d="M300.33,-148.16C302.78,-128.49 304.1,-96.01 291.4,-72 284.04,-58.08 271.25,-46.65 258.73,-38.02"/>
<polygon fill="black" stroke="black" points="260.88,-35.24 250.58,-32.78 257.1,-41.13 260.88,-35.24"/>
</g>
<!-- noise&#45;&gt;pred_raw -->
<g id="edge4" class="edge">
<title>noise&#45;&gt;pred_raw</title>
<path fill="none" stroke="black" d="M62.77,-149.21C69.71,-138.43 80.08,-124.73 92.4,-116 99.47,-110.99 107.62,-106.92 115.86,-103.62"/>
<polygon fill="black" stroke="black" points="117.02,-106.93 125.24,-100.25 114.64,-100.34 117.02,-106.93"/>
</g>
<!-- noise&#45;&gt;pred -->
<g id="edge7" class="edge">
<title>noise&#45;&gt;pred</title>
<path fill="none" stroke="black" d="M45.03,-148.87C36.44,-129.28 26.07,-96.33 39.4,-72 49.72,-53.16 69.9,-40.05 87.78,-31.58"/>
<polygon fill="black" stroke="black" points="89.08,-34.83 96.84,-27.61 86.27,-28.42 89.08,-34.83"/>
</g>
<!-- noise&#45;&gt;forecast -->
<g id="edge11" class="edge">
<title>noise&#45;&gt;forecast</title>
<path fill="none" stroke="black" d="M60.07,-148.6C68.89,-128.13 86.19,-93.7 110.4,-72 130.29,-54.16 157.24,-41.21 179.83,-32.58"/>
<polygon fill="black" stroke="black" points="180.9,-35.91 189.1,-29.2 178.51,-29.34 180.9,-35.91"/>
</g>
<!-- distribution_description_node -->
<g id="node8" class="node">
<title>distribution_description_node</title>
<text text-anchor="start" x="132.9" y="-326.7" font-family="Times,serif" font-size="14.00">noise_scale ~ LogNormal</text>
<text text-anchor="start" x="132.9" y="-310.2" font-family="Times,serif" font-size="14.00">z_smoothing ~ Beta</text>
<text text-anchor="start" x="132.9" y="-293.7" font-family="Times,serif" font-size="14.00">p_smoothing ~ Beta</text>
<text text-anchor="start" x="132.9" y="-277.2" font-family="Times,serif" font-size="14.00">noise ~ HalfNormal</text>
<text text-anchor="start" x="132.9" y="-260.7" font-family="Times,serif" font-size="14.00">pred_raw ~ Normal</text>
<text text-anchor="start" x="132.9" y="-244.2" font-family="Times,serif" font-size="14.00">pred ~ Deterministic</text>
<text text-anchor="start" x="132.9" y="-227.7" font-family="Times,serif" font-size="14.00">forecast ~ Deterministic</text>
</g>
</g>
</svg>
