<?xml version="1.0" encoding="UTF-8" standalone="no"?>
<!DOCTYPE svg PUBLIC "-//W3C//DTD SVG 1.1//EN"
 "http://www.w3.org/Graphics/SVG/1.1/DTD/svg11.dtd">
<!-- Generated by graphviz version 13.1.2 (0)
 -->
<!-- Pages: 1 -->
<svg width="633pt" height="188pt"
 viewBox="0.00 0.00 633.00 188.00" xmlns="http://www.w3.org/2000/svg" xmlns:xlink="http://www.w3.org/1999/xlink">
<g id="graph0" class="graph" transform="scale(1 1) rotate(0) translate(4 184)">
<polygon fill="white" stroke="none" points="-4,4 -4,-184 629.44,-184 629.44,4 -4,4"/>
<!-- treat -->
<g id="node1" class="node">
<title>treat</title>
<ellipse fill="#2a2eec" fill-opacity="0.501961" stroke="#2a2eec" stroke-opacity="0.501961" cx="276.75" cy="-90" rx="27.3" ry="18"/>
<text xml:space="preserve" text-anchor="middle" x="276.75" y="-84.95" font-family="Times,serif" font-size="14.00">treat</text>
</g>
<!-- re78 -->
<g id="node2" class="node">
<title>re78</title>
<ellipse fill="#fa7c17" fill-opacity="0.501961" stroke="#fa7c17" stroke-opacity="0.501961" cx="303.75" cy="-18" rx="27.3" ry="18"/>
<text xml:space="preserve" text-anchor="middle" x="303.75" y="-12.95" font-family="Times,serif" font-size="14.00">re78</text>
</g>
<!-- treat&#45;&gt;re78 -->
<g id="edge1" class="edge">
<title>treat&#45;&gt;re78</title>
<path fill="none" stroke="black" d="M283.28,-72.05C286.27,-64.32 289.88,-54.96 293.23,-46.27"/>
<polygon fill="black" stroke="black" points="296.39,-47.79 296.72,-37.2 289.86,-45.27 296.39,-47.79"/>
</g>
<!-- education -->
<g id="node3" class="node">
<title>education</title>
<ellipse fill="none" stroke="black" cx="46.75" cy="-162" rx="46.75" ry="18"/>
<text xml:space="preserve" text-anchor="middle" x="46.75" y="-156.95" font-family="Times,serif" font-size="14.00">education</text>
</g>
<!-- education&#45;&gt;treat -->
<g id="edge2" class="edge">
<title>education&#45;&gt;treat</title>
<path fill="none" stroke="black" d="M82.68,-150.06C126.06,-136.86 198.52,-114.81 241.56,-101.71"/>
<polygon fill="black" stroke="black" points="242.35,-105.13 250.9,-98.87 240.32,-98.43 242.35,-105.13"/>
</g>
<!-- education&#45;&gt;re78 -->
<g id="edge3" class="edge">
<title>education&#45;&gt;re78</title>
<path fill="none" stroke="black" d="M67.18,-145.57C92.67,-126.75 137.98,-94.64 179.75,-72 209.15,-56.06 244.35,-41.4 269.72,-31.56"/>
<polygon fill="black" stroke="black" points="270.79,-34.91 278.88,-28.06 268.29,-28.37 270.79,-34.91"/>
</g>
<!-- age -->
<g id="node4" class="node">
<title>age</title>
<ellipse fill="none" stroke="black" cx="138.75" cy="-162" rx="27" ry="18"/>
<text xml:space="preserve" text-anchor="middle" x="138.75" y="-156.95" font-family="Times,serif" font-size="14.00">age</text>
</g>
<!-- age&#45;&gt;treat -->
<g id="edge4" class="edge">
<title>age&#45;&gt;treat</title>
<path fill="none" stroke="black" d="M159.7,-150.37C182.5,-138.8 219.19,-120.2 245.41,-106.89"/>
<polygon fill="black" stroke="black" points="246.9,-110.06 254.24,-102.42 243.74,-103.82 246.9,-110.06"/>
</g>
<!-- age&#45;&gt;re78 -->
<g id="edge5" class="edge">
<title>age&#45;&gt;re78</title>
<path fill="none" stroke="black" d="M150.55,-145.67C165.42,-126.95 192.37,-94.95 219.75,-72 236.27,-58.15 256.69,-45.18 273.26,-35.54"/>
<polygon fill="black" stroke="black" points="274.74,-38.73 281.7,-30.74 271.28,-32.65 274.74,-38.73"/>
</g>
<!-- re75 -->
<g id="node5" class="node">
<title>re75</title>
<ellipse fill="none" stroke="black" cx="210.75" cy="-162" rx="27.3" ry="18"/>
<text xml:space="preserve" text-anchor="middle" x="210.75" y="-156.95" font-family="Times,serif" font-size="14.00">re75</text>
</g>
<!-- re75&#45;&gt;treat -->
<g id="edge6" class="edge">
<title>re75&#45;&gt;treat</title>
<path fill="none" stroke="black" d="M224.74,-146.15C233.49,-136.87 244.95,-124.73 254.88,-114.19"/>
<polygon fill="black" stroke="black" points="257.42,-116.6 261.73,-106.93 252.32,-111.8 257.42,-116.6"/>
</g>
<!-- re75&#45;&gt;re78 -->
<g id="edge7" class="edge">
<title>re75&#45;&gt;re78</title>
<path fill="none" stroke="black" d="M213.68,-143.68C217.51,-124.78 225.59,-94.23 240.75,-72 249.83,-58.67 263.14,-46.8 275.2,-37.68"/>
<polygon fill="black" stroke="black" points="277.19,-40.56 283.26,-31.88 273.1,-34.88 277.19,-40.56"/>
</g>
<!-- black -->
<g id="node6" class="node">
<title>black</title>
<ellipse fill="none" stroke="black" cx="286.75" cy="-162" rx="30.88" ry="18"/>
<text xml:space="preserve" text-anchor="middle" x="286.75" y="-156.95" font-family="Times,serif" font-size="14.00">black</text>
</g>
<!-- black&#45;&gt;treat -->
<g id="edge8" class="edge">
<title>black&#45;&gt;treat</title>
<path fill="none" stroke="black" d="M284.27,-143.7C283.22,-136.32 281.96,-127.52 280.78,-119.25"/>
<polygon fill="black" stroke="black" points="284.28,-119.01 279.4,-109.6 277.35,-120 284.28,-119.01"/>
</g>
<!-- black&#45;&gt;re78 -->
<g id="edge9" class="edge">
<title>black&#45;&gt;re78</title>
<path fill="none" stroke="black" d="M296.98,-145.02C302.87,-134.86 309.69,-121.18 312.75,-108 317.42,-87.87 314.8,-64.62 311.21,-46.93"/>
<polygon fill="black" stroke="black" points="314.68,-46.39 309.05,-37.42 307.85,-47.94 314.68,-46.39"/>
</g>
<!-- hispanic -->
<g id="node7" class="node">
<title>hispanic</title>
<ellipse fill="none" stroke="black" cx="377.75" cy="-162" rx="41.63" ry="18"/>
<text xml:space="preserve" text-anchor="middle" x="377.75" y="-156.95" font-family="Times,serif" font-size="14.00">hispanic</text>
</g>
<!-- hispanic&#45;&gt;treat -->
<g id="edge10" class="edge">
<title>hispanic&#45;&gt;treat</title>
<path fill="none" stroke="black" d="M356.33,-146.15C341.13,-135.62 320.6,-121.39 304.19,-110.02"/>
<polygon fill="black" stroke="black" points="306.54,-107.39 296.33,-104.57 302.56,-113.15 306.54,-107.39"/>
</g>
<!-- hispanic&#45;&gt;re78 -->
<g id="edge11" class="edge">
<title>hispanic&#45;&gt;re78</title>
<path fill="none" stroke="black" d="M368.97,-144.15C356.27,-119.79 332.66,-74.48 317.6,-45.58"/>
<polygon fill="black" stroke="black" points="320.71,-43.98 312.98,-36.73 314.5,-47.21 320.71,-43.98"/>
</g>
<!-- married -->
<g id="node8" class="node">
<title>married</title>
<ellipse fill="none" stroke="black" cx="477.75" cy="-162" rx="40.09" ry="18"/>
<text xml:space="preserve" text-anchor="middle" x="477.75" y="-156.95" font-family="Times,serif" font-size="14.00">married</text>
</g>
<!-- married&#45;&gt;treat -->
<g id="edge12" class="edge">
<title>married&#45;&gt;treat</title>
<path fill="none" stroke="black" d="M446.78,-150.22C410.1,-137.44 349.17,-116.22 311.08,-102.96"/>
<polygon fill="black" stroke="black" points="312.53,-99.76 301.94,-99.77 310.23,-106.37 312.53,-99.76"/>
</g>
<!-- married&#45;&gt;re78 -->
<g id="edge13" class="edge">
<title>married&#45;&gt;re78</title>
<path fill="none" stroke="black" d="M459.12,-145.8C427.82,-120.25 364.6,-68.66 329.21,-39.78"/>
<polygon fill="black" stroke="black" points="331.57,-37.19 321.61,-33.58 327.14,-42.61 331.57,-37.19"/>
</g>
<!-- nodegree -->
<g id="node9" class="node">
<title>nodegree</title>
<ellipse fill="none" stroke="black" cx="580.75" cy="-162" rx="44.7" ry="18"/>
<text xml:space="preserve" text-anchor="middle" x="580.75" y="-156.95" font-family="Times,serif" font-size="14.00">nodegree</text>
</g>
<!-- nodegree&#45;&gt;treat -->
<g id="edge14" class="edge">
<title>nodegree&#45;&gt;treat</title>
<path fill="none" stroke="black" d="M546.9,-149.8C540.25,-147.75 533.3,-145.72 526.75,-144 452.02,-124.37 363.27,-106.92 314.16,-97.77"/>
<polygon fill="black" stroke="black" points="314.81,-94.33 304.34,-95.95 313.54,-101.21 314.81,-94.33"/>
</g>
<!-- nodegree&#45;&gt;re78 -->
<g id="edge15" class="edge">
<title>nodegree&#45;&gt;re78</title>
<path fill="none" stroke="black" d="M553.93,-147.26C502.38,-120.83 389.7,-63.06 334.91,-34.97"/>
<polygon fill="black" stroke="black" points="336.6,-31.91 326.1,-30.46 333.4,-38.14 336.6,-31.91"/>
</g>
</g>
</svg>
