<?xml version="1.0" encoding="UTF-8" standalone="no"?>
<!DOCTYPE svg PUBLIC "-//W3C//DTD SVG 1.1//EN"
 "http://www.w3.org/Graphics/SVG/1.1/DTD/svg11.dtd">
<!-- Generated by graphviz version 13.1.2 (0)
 -->
<!-- Pages: 1 -->
<svg width="770pt" height="510pt"
 viewBox="0.00 0.00 770.00 510.00" xmlns="http://www.w3.org/2000/svg" xmlns:xlink="http://www.w3.org/1999/xlink">
<g id="graph0" class="graph" transform="scale(1 1) rotate(0) translate(4 506.27)">
<polygon fill="white" stroke="none" points="-4,4 -4,-506.27 766,-506.27 766,4 -4,4"/>
<g id="clust1" class="cluster">
<title>clusterobs_idx (614) x covariate (7)</title>
<path fill="none" stroke="black" d="M20,-384.36C20,-384.36 171,-384.36 171,-384.36 177,-384.36 183,-390.36 183,-396.36 183,-396.36 183,-470.36 183,-470.36 183,-476.36 177,-482.36 171,-482.36 171,-482.36 20,-482.36 20,-482.36 14,-482.36 8,-476.36 8,-470.36 8,-470.36 8,-396.36 8,-396.36 8,-390.36 14,-384.36 20,-384.36"/>
<text xml:space="preserve" text-anchor="middle" x="95.5" y="-391.56" font-family="Times,serif" font-size="14.00">obs_idx (614) x covariate (7)</text>
</g>
<g id="clust2" class="cluster">
<title>clustercovariate (7)</title>
<path fill="none" stroke="black" d="M346,-372.45C346,-372.45 742,-372.45 742,-372.45 748,-372.45 754,-378.45 754,-384.45 754,-384.45 754,-482.27 754,-482.27 754,-488.27 748,-494.27 742,-494.27 742,-494.27 346,-494.27 346,-494.27 340,-494.27 334,-488.27 334,-482.27 334,-482.27 334,-384.45 334,-384.45 334,-378.45 340,-372.45 346,-372.45"/>
<text xml:space="preserve" text-anchor="middle" x="711.5" y="-379.65" font-family="Times,serif" font-size="14.00">covariate (7)</text>
</g>
<g id="clust3" class="cluster">
<title>clusterobs_idx (614)</title>
<path fill="none" stroke="black" d="M215,-8C215,-8 301,-8 301,-8 307,-8 313,-14 313,-20 313,-20 313,-352.45 313,-352.45 313,-358.45 307,-364.45 301,-364.45 301,-364.45 215,-364.45 215,-364.45 209,-364.45 203,-358.45 203,-352.45 203,-352.45 203,-20 203,-20 203,-14 209,-8 215,-8"/>
<text xml:space="preserve" text-anchor="middle" x="267.12" y="-15.2" font-family="Times,serif" font-size="14.00">obs_idx (614)</text>
</g>
<!-- covariates_data -->
<g id="node1" class="node">
<title>covariates_data</title>
<path fill="lightgrey" stroke="black" d="M162,-474.36C162,-474.36 86,-474.36 86,-474.36 80,-474.36 74,-468.36 74,-462.36 74,-462.36 74,-428.86 74,-428.86 74,-422.86 80,-416.86 86,-416.86 86,-416.86 162,-416.86 162,-416.86 168,-416.86 174,-422.86 174,-428.86 174,-428.86 174,-462.36 174,-462.36 174,-468.36 168,-474.36 162,-474.36"/>
<text xml:space="preserve" text-anchor="middle" x="124" y="-457.06" font-family="Times,serif" font-size="14.00">covariates_data</text>
<text xml:space="preserve" text-anchor="middle" x="124" y="-440.56" font-family="Times,serif" font-size="14.00">~</text>
<text xml:space="preserve" text-anchor="middle" x="124" y="-424.06" font-family="Times,serif" font-size="14.00">Data</text>
</g>
<!-- mu_earnings -->
<g id="node8" class="node">
<title>mu_earnings</title>
<polygon fill="none" stroke="black" points="305.12,-227.23 214.88,-227.23 214.88,-169.73 305.12,-169.73 305.12,-227.23"/>
<text xml:space="preserve" text-anchor="middle" x="260" y="-209.93" font-family="Times,serif" font-size="14.00">mu_earnings</text>
<text xml:space="preserve" text-anchor="middle" x="260" y="-193.43" font-family="Times,serif" font-size="14.00">~</text>
<text xml:space="preserve" text-anchor="middle" x="260" y="-176.93" font-family="Times,serif" font-size="14.00">Deterministic</text>
</g>
<!-- covariates_data&#45;&gt;mu_earnings -->
<g id="edge8" class="edge">
<title>covariates_data&#45;&gt;mu_earnings</title>
<path fill="none" stroke="black" d="M134.63,-416.65C148.2,-382.25 173.4,-322.56 202,-275.13 209.97,-261.92 219.83,-248.3 229.14,-236.31"/>
<polygon fill="black" stroke="black" points="231.71,-238.7 235.18,-228.69 226.22,-234.36 231.71,-238.7"/>
</g>
<!-- treat -->
<g id="node10" class="node">
<title>treat</title>
<ellipse fill="none" stroke="black" cx="258" cy="-315.79" rx="47.38" ry="40.66"/>
<text xml:space="preserve" text-anchor="middle" x="258" y="-327.24" font-family="Times,serif" font-size="14.00">treat</text>
<text xml:space="preserve" text-anchor="middle" x="258" y="-310.74" font-family="Times,serif" font-size="14.00">~</text>
<text xml:space="preserve" text-anchor="middle" x="258" y="-294.24" font-family="Times,serif" font-size="14.00">Bernoulli</text>
</g>
<!-- covariates_data&#45;&gt;treat -->
<g id="edge3" class="edge">
<title>covariates_data&#45;&gt;treat</title>
<path fill="none" stroke="black" d="M144.37,-416.5C155.11,-402.55 168.95,-385.86 183,-372.45 191.89,-363.97 202.09,-355.63 212.05,-348.09"/>
<polygon fill="black" stroke="black" points="213.9,-351.07 219.86,-342.31 209.74,-345.45 213.9,-351.07"/>
</g>
<!-- beta_treat_earnings -->
<g id="node2" class="node">
<title>beta_treat_earnings</title>
<ellipse fill="none" stroke="black" cx="447" cy="-315.79" rx="86.09" ry="40.66"/>
<text xml:space="preserve" text-anchor="middle" x="447" y="-327.24" font-family="Times,serif" font-size="14.00">beta_treat_earnings</text>
<text xml:space="preserve" text-anchor="middle" x="447" y="-310.74" font-family="Times,serif" font-size="14.00">~</text>
<text xml:space="preserve" text-anchor="middle" x="447" y="-294.24" font-family="Times,serif" font-size="14.00">Normal</text>
</g>
<!-- beta_treat_earnings&#45;&gt;mu_earnings -->
<g id="edge6" class="edge">
<title>beta_treat_earnings&#45;&gt;mu_earnings</title>
<path fill="none" stroke="black" d="M390.81,-284.73C366.78,-271.39 338.63,-255.11 314,-239.13 311.48,-237.5 308.92,-235.79 306.35,-234.04"/>
<polygon fill="black" stroke="black" points="308.52,-231.29 298.32,-228.44 304.52,-237.03 308.52,-231.29"/>
</g>
<!-- intercept_treat -->
<g id="node3" class="node">
<title>intercept_treat</title>
<ellipse fill="none" stroke="black" cx="258" cy="-445.61" rx="66.47" ry="40.66"/>
<text xml:space="preserve" text-anchor="middle" x="258" y="-457.06" font-family="Times,serif" font-size="14.00">intercept_treat</text>
<text xml:space="preserve" text-anchor="middle" x="258" y="-440.56" font-family="Times,serif" font-size="14.00">~</text>
<text xml:space="preserve" text-anchor="middle" x="258" y="-424.06" font-family="Times,serif" font-size="14.00">Normal</text>
</g>
<!-- intercept_treat&#45;&gt;treat -->
<g id="edge1" class="edge">
<title>intercept_treat&#45;&gt;treat</title>
<path fill="none" stroke="black" d="M258,-404.52C258,-392.98 258,-380.23 258,-368.11"/>
<polygon fill="black" stroke="black" points="261.5,-368.26 258,-358.26 254.5,-368.26 261.5,-368.26"/>
</g>
<!-- sigma_earnings -->
<g id="node4" class="node">
<title>sigma_earnings</title>
<ellipse fill="none" stroke="black" cx="395" cy="-198.48" rx="71.77" ry="40.66"/>
<text xml:space="preserve" text-anchor="middle" x="395" y="-209.93" font-family="Times,serif" font-size="14.00">sigma_earnings</text>
<text xml:space="preserve" text-anchor="middle" x="395" y="-193.43" font-family="Times,serif" font-size="14.00">~</text>
<text xml:space="preserve" text-anchor="middle" x="395" y="-176.93" font-family="Times,serif" font-size="14.00">Halfnormal</text>
</g>
<!-- earnings -->
<g id="node9" class="node">
<title>earnings</title>
<ellipse fill="none" stroke="black" cx="260" cy="-81.16" rx="43.66" ry="40.66"/>
<text xml:space="preserve" text-anchor="middle" x="260" y="-92.61" font-family="Times,serif" font-size="14.00">earnings</text>
<text xml:space="preserve" text-anchor="middle" x="260" y="-76.11" font-family="Times,serif" font-size="14.00">~</text>
<text xml:space="preserve" text-anchor="middle" x="260" y="-59.61" font-family="Times,serif" font-size="14.00">Normal</text>
</g>
<!-- sigma_earnings&#45;&gt;earnings -->
<g id="edge10" class="edge">
<title>sigma_earnings&#45;&gt;earnings</title>
<path fill="none" stroke="black" d="M355.95,-164.12C338.42,-149.14 317.75,-131.49 300.1,-116.41"/>
<polygon fill="black" stroke="black" points="302.72,-114.05 292.85,-110.22 298.18,-119.37 302.72,-114.05"/>
</g>
<!-- intercept_earnings -->
<g id="node5" class="node">
<title>intercept_earnings</title>
<ellipse fill="none" stroke="black" cx="633" cy="-315.79" rx="81.85" ry="40.66"/>
<text xml:space="preserve" text-anchor="middle" x="633" y="-327.24" font-family="Times,serif" font-size="14.00">intercept_earnings</text>
<text xml:space="preserve" text-anchor="middle" x="633" y="-310.74" font-family="Times,serif" font-size="14.00">~</text>
<text xml:space="preserve" text-anchor="middle" x="633" y="-294.24" font-family="Times,serif" font-size="14.00">Normal</text>
</g>
<!-- intercept_earnings&#45;&gt;mu_earnings -->
<g id="edge5" class="edge">
<title>intercept_earnings&#45;&gt;mu_earnings</title>
<path fill="none" stroke="black" d="M575.07,-286.95C564.26,-282.5 552.92,-278.32 542,-275.13 443.51,-246.41 408.69,-278.61 314,-239.13 310.35,-237.61 306.71,-235.79 303.15,-233.78"/>
<polygon fill="black" stroke="black" points="305,-230.81 294.66,-228.5 301.3,-236.76 305,-230.81"/>
</g>
<!-- beta_covariate_treat -->
<g id="node6" class="node">
<title>beta_covariate_treat</title>
<ellipse fill="none" stroke="black" cx="431" cy="-445.61" rx="88.74" ry="40.66"/>
<text xml:space="preserve" text-anchor="middle" x="431" y="-457.06" font-family="Times,serif" font-size="14.00">beta_covariate_treat</text>
<text xml:space="preserve" text-anchor="middle" x="431" y="-440.56" font-family="Times,serif" font-size="14.00">~</text>
<text xml:space="preserve" text-anchor="middle" x="431" y="-424.06" font-family="Times,serif" font-size="14.00">Normal</text>
</g>
<!-- beta_covariate_treat&#45;&gt;treat -->
<g id="edge2" class="edge">
<title>beta_covariate_treat&#45;&gt;treat</title>
<path fill="none" stroke="black" d="M386.4,-410.09C369.91,-397.78 350.89,-384.09 333,-372.45 326.99,-368.54 324.95,-368.45 319,-364.45 312.93,-360.38 306.68,-355.88 300.61,-351.32"/>
<polygon fill="black" stroke="black" points="303.15,-348.86 293.08,-345.57 298.9,-354.42 303.15,-348.86"/>
</g>
<!-- beta_covariate_earnings -->
<g id="node7" class="node">
<title>beta_covariate_earnings</title>
<ellipse fill="none" stroke="black" cx="642" cy="-445.61" rx="104.12" ry="40.66"/>
<text xml:space="preserve" text-anchor="middle" x="642" y="-457.06" font-family="Times,serif" font-size="14.00">beta_covariate_earnings</text>
<text xml:space="preserve" text-anchor="middle" x="642" y="-440.56" font-family="Times,serif" font-size="14.00">~</text>
<text xml:space="preserve" text-anchor="middle" x="642" y="-424.06" font-family="Times,serif" font-size="14.00">Normal</text>
</g>
<!-- beta_covariate_earnings&#45;&gt;mu_earnings -->
<g id="edge7" class="edge">
<title>beta_covariate_earnings&#45;&gt;mu_earnings</title>
<path fill="none" stroke="black" d="M597.48,-408.51C577.71,-394.59 553.41,-380.18 529,-372.45 510.23,-366.51 368.17,-375.68 352,-364.45 316.56,-339.85 335.1,-312.76 314,-275.13 306.71,-262.14 297.66,-248.68 289.06,-236.78"/>
<polygon fill="black" stroke="black" points="291.95,-234.8 283.2,-228.82 286.31,-238.95 291.95,-234.8"/>
</g>
<!-- mu_earnings&#45;&gt;earnings -->
<g id="edge9" class="edge">
<title>mu_earnings&#45;&gt;earnings</title>
<path fill="none" stroke="black" d="M260,-169.27C260,-158.44 260,-145.73 260,-133.41"/>
<polygon fill="black" stroke="black" points="263.5,-133.78 260,-123.78 256.5,-133.78 263.5,-133.78"/>
</g>
<!-- treat&#45;&gt;mu_earnings -->
<g id="edge4" class="edge">
<title>treat&#45;&gt;mu_earnings</title>
<path fill="none" stroke="black" d="M258.69,-274.78C258.9,-263.08 259.12,-250.29 259.32,-238.64"/>
<polygon fill="black" stroke="black" points="262.81,-239.01 259.49,-228.95 255.82,-238.89 262.81,-239.01"/>
</g>
</g>
</svg>
