<?xml version="1.0" encoding="UTF-8" standalone="no"?>
<!DOCTYPE svg PUBLIC "-//W3C//DTD SVG 1.1//EN"
 "http://www.w3.org/Graphics/SVG/1.1/DTD/svg11.dtd">
<!-- Generated by graphviz version 13.1.2 (0)
 -->
<!-- Pages: 1 -->
<svg width="111pt" height="188pt"
 viewBox="0.00 0.00 111.00 188.00" xmlns="http://www.w3.org/2000/svg" xmlns:xlink="http://www.w3.org/1999/xlink">
<g id="graph0" class="graph" transform="scale(1 1) rotate(0) translate(4 184)">
<polygon fill="white" stroke="none" points="-4,4 -4,-184 106.58,-184 106.58,4 -4,4"/>
<!-- treat -->
<g id="node1" class="node">
<title>treat</title>
<ellipse fill="#2a2eec" fill-opacity="0.501961" stroke="#2a2eec" stroke-opacity="0.501961" cx="27.3" cy="-90" rx="27.3" ry="18"/>
<text xml:space="preserve" text-anchor="middle" x="27.3" y="-84.95" font-family="Times,serif" font-size="14.00">treat</text>
</g>
<!-- re78 -->
<g id="node2" class="node">
<title>re78</title>
<ellipse fill="#fa7c17" fill-opacity="0.501961" stroke="#fa7c17" stroke-opacity="0.501961" cx="54.3" cy="-18" rx="27.3" ry="18"/>
<text xml:space="preserve" text-anchor="middle" x="54.3" y="-12.95" font-family="Times,serif" font-size="14.00">re78</text>
</g>
<!-- treat&#45;&gt;re78 -->
<g id="edge1" class="edge">
<title>treat&#45;&gt;re78</title>
<path fill="none" stroke="black" d="M33.83,-72.05C36.82,-64.32 40.43,-54.96 43.78,-46.27"/>
<polygon fill="black" stroke="black" points="46.94,-47.79 47.28,-37.2 40.41,-45.27 46.94,-47.79"/>
</g>
<!-- covariates -->
<g id="node3" class="node">
<title>covariates</title>
<ellipse fill="none" stroke="black" cx="54.3" cy="-162" rx="48.28" ry="18"/>
<text xml:space="preserve" text-anchor="middle" x="54.3" y="-156.95" font-family="Times,serif" font-size="14.00">covariates</text>
</g>
<!-- covariates&#45;&gt;treat -->
<g id="edge2" class="edge">
<title>covariates&#45;&gt;treat</title>
<path fill="none" stroke="black" d="M47.62,-143.7C44.67,-136.04 41.12,-126.85 37.83,-118.3"/>
<polygon fill="black" stroke="black" points="41.12,-117.1 34.25,-109.03 34.59,-119.62 41.12,-117.1"/>
</g>
<!-- covariates&#45;&gt;re78 -->
<g id="edge3" class="edge">
<title>covariates&#45;&gt;re78</title>
<path fill="none" stroke="black" d="M57.95,-143.91C59.97,-133.57 62.28,-120.09 63.3,-108 64.64,-92.06 64.64,-87.94 63.3,-72 62.62,-63.97 61.38,-55.33 60.02,-47.4"/>
<polygon fill="black" stroke="black" points="63.47,-46.79 58.22,-37.58 56.58,-48.05 63.47,-46.79"/>
</g>
</g>
</svg>
