<?xml version="1.0" encoding="UTF-8" standalone="no"?>
<!DOCTYPE svg PUBLIC "-//W3C//DTD SVG 1.1//EN"
 "http://www.w3.org/Graphics/SVG/1.1/DTD/svg11.dtd">
<!-- Generated by graphviz version 13.1.2 (0)
 -->
<!-- Pages: 1 -->
<svg width="1247pt" height="385pt"
 viewBox="0.00 0.00 1247.00 385.00" xmlns="http://www.w3.org/2000/svg" xmlns:xlink="http://www.w3.org/1999/xlink">
<g id="graph0" class="graph" transform="scale(1 1) rotate(0) translate(4 380.95)">
<polygon fill="white" stroke="none" points="-4,4 -4,-380.95 1243.47,-380.95 1243.47,4 -4,4"/>
<g id="clust1" class="cluster">
<title>clusterobs_idx (614) x covariate (7)</title>
<path fill="none" stroke="black" d="M20,-259.04C20,-259.04 171,-259.04 171,-259.04 177,-259.04 183,-265.04 183,-271.04 183,-271.04 183,-345.04 183,-345.04 183,-351.04 177,-357.04 171,-357.04 171,-357.04 20,-357.04 20,-357.04 14,-357.04 8,-351.04 8,-345.04 8,-345.04 8,-271.04 8,-271.04 8,-265.04 14,-259.04 20,-259.04"/>
<text xml:space="preserve" text-anchor="middle" x="95.5" y="-266.24" font-family="Times,serif" font-size="14.00">obs_idx (614) x covariate (7)</text>
</g>
<g id="clust2" class="cluster">
<title>clustercovariate (7)</title>
<path fill="none" stroke="black" d="M317,-247.13C317,-247.13 713,-247.13 713,-247.13 719,-247.13 725,-253.13 725,-259.13 725,-259.13 725,-356.95 725,-356.95 725,-362.95 719,-368.95 713,-368.95 713,-368.95 317,-368.95 317,-368.95 311,-368.95 305,-362.95 305,-356.95 305,-356.95 305,-259.13 305,-259.13 305,-253.13 311,-247.13 317,-247.13"/>
<text xml:space="preserve" text-anchor="middle" x="682.5" y="-254.33" font-family="Times,serif" font-size="14.00">covariate (7)</text>
</g>
<g id="clust3" class="cluster">
<title>clusterobs_idx (614)</title>
<path fill="none" stroke="black" d="M203,-8C203,-8 285,-8 285,-8 291,-8 297,-14 297,-20 297,-20 297,-345.04 297,-345.04 297,-351.04 291,-357.04 285,-357.04 285,-357.04 203,-357.04 203,-357.04 197,-357.04 191,-351.04 191,-345.04 191,-345.04 191,-20 191,-20 191,-14 197,-8 203,-8"/>
<text xml:space="preserve" text-anchor="middle" x="251.12" y="-15.2" font-family="Times,serif" font-size="14.00">obs_idx (614)</text>
</g>
<!-- covariates_data -->
<g id="node1" class="node">
<title>covariates_data</title>
<path fill="lightgrey" stroke="black" d="M163,-349.04C163,-349.04 87,-349.04 87,-349.04 81,-349.04 75,-343.04 75,-337.04 75,-337.04 75,-303.54 75,-303.54 75,-297.54 81,-291.54 87,-291.54 87,-291.54 163,-291.54 163,-291.54 169,-291.54 175,-297.54 175,-303.54 175,-303.54 175,-337.04 175,-337.04 175,-343.04 169,-349.04 163,-349.04"/>
<text xml:space="preserve" text-anchor="middle" x="125" y="-331.74" font-family="Times,serif" font-size="14.00">covariates_data</text>
<text xml:space="preserve" text-anchor="middle" x="125" y="-315.24" font-family="Times,serif" font-size="14.00">~</text>
<text xml:space="preserve" text-anchor="middle" x="125" y="-298.74" font-family="Times,serif" font-size="14.00">Data</text>
</g>
<!-- mu_earnings -->
<g id="node4" class="node">
<title>mu_earnings</title>
<polygon fill="none" stroke="black" points="289.12,-227.23 198.88,-227.23 198.88,-169.73 289.12,-169.73 289.12,-227.23"/>
<text xml:space="preserve" text-anchor="middle" x="244" y="-209.93" font-family="Times,serif" font-size="14.00">mu_earnings</text>
<text xml:space="preserve" text-anchor="middle" x="244" y="-193.43" font-family="Times,serif" font-size="14.00">~</text>
<text xml:space="preserve" text-anchor="middle" x="244" y="-176.93" font-family="Times,serif" font-size="14.00">Deterministic</text>
</g>
<!-- covariates_data&#45;&gt;mu_earnings -->
<g id="edge5" class="edge">
<title>covariates_data&#45;&gt;mu_earnings</title>
<path fill="none" stroke="black" d="M147.24,-291.28C158.63,-277.5 173.01,-260.94 187,-247.13 191.08,-243.1 195.47,-239.04 199.93,-235.06"/>
<polygon fill="black" stroke="black" points="202.15,-237.78 207.39,-228.57 197.55,-232.49 202.15,-237.78"/>
</g>
<!-- beta_covariate_treat -->
<g id="node2" class="node">
<title>beta_covariate_treat</title>
<ellipse fill="none" stroke="black" cx="402" cy="-320.29" rx="88.74" ry="40.66"/>
<text xml:space="preserve" text-anchor="middle" x="402" y="-331.74" font-family="Times,serif" font-size="14.00">beta_covariate_treat</text>
<text xml:space="preserve" text-anchor="middle" x="402" y="-315.24" font-family="Times,serif" font-size="14.00">~</text>
<text xml:space="preserve" text-anchor="middle" x="402" y="-298.74" font-family="Times,serif" font-size="14.00">Normal</text>
</g>
<!-- beta_covariate_earnings -->
<g id="node3" class="node">
<title>beta_covariate_earnings</title>
<ellipse fill="none" stroke="black" cx="613" cy="-320.29" rx="104.12" ry="40.66"/>
<text xml:space="preserve" text-anchor="middle" x="613" y="-331.74" font-family="Times,serif" font-size="14.00">beta_covariate_earnings</text>
<text xml:space="preserve" text-anchor="middle" x="613" y="-315.24" font-family="Times,serif" font-size="14.00">~</text>
<text xml:space="preserve" text-anchor="middle" x="613" y="-298.74" font-family="Times,serif" font-size="14.00">Normal</text>
</g>
<!-- beta_covariate_earnings&#45;&gt;mu_earnings -->
<g id="edge4" class="edge">
<title>beta_covariate_earnings&#45;&gt;mu_earnings</title>
<path fill="none" stroke="black" d="M568.5,-283.13C548.73,-269.2 524.43,-254.8 500,-247.13 457.14,-233.69 340.4,-253.97 298,-239.13 293.8,-237.66 289.64,-235.75 285.62,-233.55"/>
<polygon fill="black" stroke="black" points="287.57,-230.64 277.21,-228.39 283.91,-236.61 287.57,-230.64"/>
</g>
<!-- earnings -->
<g id="node5" class="node">
<title>earnings</title>
<ellipse fill="lightgrey" stroke="black" cx="244" cy="-81.16" rx="43.66" ry="40.66"/>
<text xml:space="preserve" text-anchor="middle" x="244" y="-92.61" font-family="Times,serif" font-size="14.00">earnings</text>
<text xml:space="preserve" text-anchor="middle" x="244" y="-76.11" font-family="Times,serif" font-size="14.00">~</text>
<text xml:space="preserve" text-anchor="middle" x="244" y="-59.61" font-family="Times,serif" font-size="14.00">Normal</text>
</g>
<!-- mu_earnings&#45;&gt;earnings -->
<g id="edge6" class="edge">
<title>mu_earnings&#45;&gt;earnings</title>
<path fill="none" stroke="black" d="M244,-169.27C244,-158.44 244,-145.73 244,-133.41"/>
<polygon fill="black" stroke="black" points="247.5,-133.78 244,-123.78 240.5,-133.78 247.5,-133.78"/>
</g>
<!-- treat -->
<g id="node6" class="node">
<title>treat</title>
<path fill="lightgrey" stroke="black" d="M259,-349.04C259,-349.04 229,-349.04 229,-349.04 223,-349.04 217,-343.04 217,-337.04 217,-337.04 217,-303.54 217,-303.54 217,-297.54 223,-291.54 229,-291.54 229,-291.54 259,-291.54 259,-291.54 265,-291.54 271,-297.54 271,-303.54 271,-303.54 271,-337.04 271,-337.04 271,-343.04 265,-349.04 259,-349.04"/>
<text xml:space="preserve" text-anchor="middle" x="244" y="-331.74" font-family="Times,serif" font-size="14.00">treat</text>
<text xml:space="preserve" text-anchor="middle" x="244" y="-315.24" font-family="Times,serif" font-size="14.00">~</text>
<text xml:space="preserve" text-anchor="middle" x="244" y="-298.74" font-family="Times,serif" font-size="14.00">Data</text>
</g>
<!-- treat&#45;&gt;mu_earnings -->
<g id="edge1" class="edge">
<title>treat&#45;&gt;mu_earnings</title>
<path fill="none" stroke="black" d="M244,-291.2C244,-275.58 244,-255.89 244,-238.76"/>
<polygon fill="black" stroke="black" points="247.5,-238.91 244,-228.91 240.5,-238.91 247.5,-238.91"/>
</g>
<!-- beta_treat_earnings -->
<g id="node7" class="node">
<title>beta_treat_earnings</title>
<ellipse fill="none" stroke="black" cx="821" cy="-320.29" rx="86.09" ry="40.66"/>
<text xml:space="preserve" text-anchor="middle" x="821" y="-331.74" font-family="Times,serif" font-size="14.00">beta_treat_earnings</text>
<text xml:space="preserve" text-anchor="middle" x="821" y="-315.24" font-family="Times,serif" font-size="14.00">~</text>
<text xml:space="preserve" text-anchor="middle" x="821" y="-298.74" font-family="Times,serif" font-size="14.00">Normal</text>
</g>
<!-- beta_treat_earnings&#45;&gt;mu_earnings -->
<g id="edge3" class="edge">
<title>beta_treat_earnings&#45;&gt;mu_earnings</title>
<path fill="none" stroke="black" d="M785.89,-282.96C769.98,-268.99 750.04,-254.62 729,-247.13 683.87,-231.08 343.37,-254.47 298,-239.13 293.6,-237.65 289.26,-235.66 285.06,-233.36"/>
<polygon fill="black" stroke="black" points="287.23,-230.58 276.88,-228.32 283.56,-236.54 287.23,-230.58"/>
</g>
<!-- intercept_treat -->
<g id="node8" class="node">
<title>intercept_treat</title>
<ellipse fill="none" stroke="black" cx="1173" cy="-320.29" rx="66.47" ry="40.66"/>
<text xml:space="preserve" text-anchor="middle" x="1173" y="-331.74" font-family="Times,serif" font-size="14.00">intercept_treat</text>
<text xml:space="preserve" text-anchor="middle" x="1173" y="-315.24" font-family="Times,serif" font-size="14.00">~</text>
<text xml:space="preserve" text-anchor="middle" x="1173" y="-298.74" font-family="Times,serif" font-size="14.00">Normal</text>
</g>
<!-- sigma_earnings -->
<g id="node9" class="node">
<title>sigma_earnings</title>
<ellipse fill="none" stroke="black" cx="379" cy="-198.48" rx="71.77" ry="40.66"/>
<text xml:space="preserve" text-anchor="middle" x="379" y="-209.93" font-family="Times,serif" font-size="14.00">sigma_earnings</text>
<text xml:space="preserve" text-anchor="middle" x="379" y="-193.43" font-family="Times,serif" font-size="14.00">~</text>
<text xml:space="preserve" text-anchor="middle" x="379" y="-176.93" font-family="Times,serif" font-size="14.00">Halfnormal</text>
</g>
<!-- sigma_earnings&#45;&gt;earnings -->
<g id="edge7" class="edge">
<title>sigma_earnings&#45;&gt;earnings</title>
<path fill="none" stroke="black" d="M339.95,-164.12C322.42,-149.14 301.75,-131.49 284.1,-116.41"/>
<polygon fill="black" stroke="black" points="286.72,-114.05 276.85,-110.22 282.18,-119.37 286.72,-114.05"/>
</g>
<!-- intercept_earnings -->
<g id="node10" class="node">
<title>intercept_earnings</title>
<ellipse fill="none" stroke="black" cx="1007" cy="-320.29" rx="81.85" ry="40.66"/>
<text xml:space="preserve" text-anchor="middle" x="1007" y="-331.74" font-family="Times,serif" font-size="14.00">intercept_earnings</text>
<text xml:space="preserve" text-anchor="middle" x="1007" y="-315.24" font-family="Times,serif" font-size="14.00">~</text>
<text xml:space="preserve" text-anchor="middle" x="1007" y="-298.74" font-family="Times,serif" font-size="14.00">Normal</text>
</g>
<!-- intercept_earnings&#45;&gt;mu_earnings -->
<g id="edge2" class="edge">
<title>intercept_earnings&#45;&gt;mu_earnings</title>
<path fill="none" stroke="black" d="M972.78,-283.29C957,-269.2 937.09,-254.63 916,-247.13 851.3,-224.12 363.12,-260.95 298,-239.13 293.6,-237.66 289.25,-235.68 285.05,-233.39"/>
<polygon fill="black" stroke="black" points="287.22,-230.61 276.86,-228.36 283.55,-236.57 287.22,-230.61"/>
</g>
</g>
</svg>
