<?xml version="1.0" encoding="UTF-8" standalone="no"?>
<!DOCTYPE svg PUBLIC "-//W3C//DTD SVG 1.1//EN"
 "http://www.w3.org/Graphics/SVG/1.1/DTD/svg11.dtd">
<!-- Generated by graphviz version 14.1.2 (0)
 -->
<!-- Pages: 1 -->
<svg width="276pt" height="260pt"
 viewBox="0.00 0.00 276.00 260.00" xmlns="http://www.w3.org/2000/svg" xmlns:xlink="http://www.w3.org/1999/xlink">
<g id="graph0" class="graph" transform="scale(1 1) rotate(0) translate(4 256)">
<polygon fill="white" stroke="none" points="-4,4 -4,-256 271.87,-256 271.87,4 -4,4"/>
<!-- gender -->
<g id="node1" class="node">
<title>gender</title>
<ellipse fill="none" stroke="black" cx="85.02" cy="-234" rx="36" ry="18"/>
<text xml:space="preserve" text-anchor="middle" x="85.02" y="-228.95" font-family="Times,serif" font-size="14.00">gender</text>
</g>
<!-- fam_int -->
<g id="node3" class="node">
<title>fam_int</title>
<ellipse fill="#2a2eec" fill-opacity="0.501961" stroke="#2a2eec" stroke-opacity="0.501961" cx="135.02" cy="-162" rx="40.09" ry="18"/>
<text xml:space="preserve" text-anchor="middle" x="135.02" y="-156.95" font-family="Times,serif" font-size="14.00">fam_int</text>
</g>
<!-- gender&#45;&gt;fam_int -->
<g id="edge1" class="edge">
<title>gender&#45;&gt;fam_int</title>
<path fill="none" stroke="black" d="M96.62,-216.76C102.53,-208.49 109.85,-198.23 116.52,-188.9"/>
<polygon fill="black" stroke="black" points="119.29,-191.04 122.26,-180.87 113.6,-186.97 119.29,-191.04"/>
</g>
<!-- dev_peer -->
<g id="node4" class="node">
<title>dev_peer</title>
<ellipse fill="#ff7f0e" fill-opacity="0.501961" stroke="#ff7f0e" stroke-opacity="0.501961" cx="64.02" cy="-90" rx="44.7" ry="18"/>
<text xml:space="preserve" text-anchor="middle" x="64.02" y="-84.95" font-family="Times,serif" font-size="14.00">dev_peer</text>
</g>
<!-- gender&#45;&gt;dev_peer -->
<g id="edge3" class="edge">
<title>gender&#45;&gt;dev_peer</title>
<path fill="none" stroke="black" d="M72.12,-216.9C64.96,-206.92 56.77,-193.46 53.02,-180 47.46,-160.04 50.65,-136.78 55,-119.05"/>
<polygon fill="black" stroke="black" points="58.36,-120.05 57.62,-109.48 51.6,-118.2 58.36,-120.05"/>
</g>
<!-- sub_exp -->
<g id="node5" class="node">
<title>sub_exp</title>
<ellipse fill="#ff7f0e" fill-opacity="0.501961" stroke="#ff7f0e" stroke-opacity="0.501961" cx="207.02" cy="-90" rx="41.63" ry="18"/>
<text xml:space="preserve" text-anchor="middle" x="207.02" y="-84.95" font-family="Times,serif" font-size="14.00">sub_exp</text>
</g>
<!-- gender&#45;&gt;sub_exp -->
<g id="edge5" class="edge">
<title>gender&#45;&gt;sub_exp</title>
<path fill="none" stroke="black" d="M115.33,-224.12C137.52,-216.08 166.67,-202.07 184.02,-180 197.59,-162.73 203.22,-138.3 205.52,-119.41"/>
<polygon fill="black" stroke="black" points="208.98,-119.99 206.44,-109.7 202.01,-119.32 208.98,-119.99"/>
</g>
<!-- sub_disorder -->
<g id="node6" class="node">
<title>sub_disorder</title>
<ellipse fill="#328c06" fill-opacity="0.501961" stroke="#328c06" stroke-opacity="0.501961" cx="137.02" cy="-18" rx="58.52" ry="18"/>
<text xml:space="preserve" text-anchor="middle" x="137.02" y="-12.95" font-family="Times,serif" font-size="14.00">sub_disorder</text>
</g>
<!-- gender&#45;&gt;sub_disorder -->
<g id="edge7" class="edge">
<title>gender&#45;&gt;sub_disorder</title>
<path fill="none" stroke="black" d="M68.12,-218C37.02,-188.57 -23.15,-121.78 10.02,-72 24.55,-50.19 49.95,-37.34 74.23,-29.77"/>
<polygon fill="black" stroke="black" points="75.14,-33.16 83.81,-27.07 73.24,-26.42 75.14,-33.16"/>
</g>
<!-- conflict -->
<g id="node2" class="node">
<title>conflict</title>
<ellipse fill="none" stroke="black" cx="184.02" cy="-234" rx="39.07" ry="18"/>
<text xml:space="preserve" text-anchor="middle" x="184.02" y="-228.95" font-family="Times,serif" font-size="14.00">conflict</text>
</g>
<!-- conflict&#45;&gt;fam_int -->
<g id="edge2" class="edge">
<title>conflict&#45;&gt;fam_int</title>
<path fill="none" stroke="black" d="M172.41,-216.41C166.61,-208.13 159.47,-197.92 152.98,-188.66"/>
<polygon fill="black" stroke="black" points="156.02,-186.9 147.42,-180.71 150.28,-190.91 156.02,-186.9"/>
</g>
<!-- conflict&#45;&gt;dev_peer -->
<g id="edge4" class="edge">
<title>conflict&#45;&gt;dev_peer</title>
<path fill="none" stroke="black" d="M152.1,-223.41C130.35,-215.26 102.59,-201.41 86.02,-180 72.67,-162.76 67.31,-138.48 65.21,-119.64"/>
<polygon fill="black" stroke="black" points="68.7,-119.35 64.37,-109.68 61.72,-119.94 68.7,-119.35"/>
</g>
<!-- conflict&#45;&gt;sub_exp -->
<g id="edge6" class="edge">
<title>conflict&#45;&gt;sub_exp</title>
<path fill="none" stroke="black" d="M197.32,-216.97C204.7,-207 213.15,-193.55 217.02,-180 222.71,-160.11 219.78,-136.85 215.66,-119.09"/>
<polygon fill="black" stroke="black" points="219.07,-118.31 213.16,-109.52 212.3,-120.08 219.07,-118.31"/>
</g>
<!-- conflict&#45;&gt;sub_disorder -->
<g id="edge8" class="edge">
<title>conflict&#45;&gt;sub_disorder</title>
<path fill="none" stroke="black" d="M201.16,-217.58C231.95,-187.97 290.51,-121.7 258.02,-72 244.48,-51.29 220.85,-38.62 198.05,-30.89"/>
<polygon fill="black" stroke="black" points="199.36,-27.63 188.77,-28.03 197.29,-34.32 199.36,-27.63"/>
</g>
<!-- fam_int&#45;&gt;dev_peer -->
<g id="edge9" class="edge">
<title>fam_int&#45;&gt;dev_peer</title>
<path fill="none" stroke="black" d="M118.91,-145.12C109.83,-136.17 98.31,-124.81 88.17,-114.81"/>
<polygon fill="black" stroke="black" points="90.72,-112.41 81.14,-107.88 85.81,-117.4 90.72,-112.41"/>
</g>
<!-- fam_int&#45;&gt;sub_exp -->
<g id="edge10" class="edge">
<title>fam_int&#45;&gt;sub_exp</title>
<path fill="none" stroke="black" d="M151.36,-145.12C160.56,-136.17 172.24,-124.81 182.52,-114.81"/>
<polygon fill="black" stroke="black" points="184.93,-117.36 189.66,-107.88 180.05,-112.34 184.93,-117.36"/>
</g>
<!-- fam_int&#45;&gt;sub_disorder -->
<g id="edge11" class="edge">
<title>fam_int&#45;&gt;sub_disorder</title>
<path fill="none" stroke="black" d="M135.26,-143.59C135.6,-119.61 136.21,-76.14 136.62,-47.42"/>
<polygon fill="black" stroke="black" points="140.12,-47.67 136.76,-37.62 133.12,-47.57 140.12,-47.67"/>
</g>
<!-- dev_peer&#45;&gt;sub_disorder -->
<g id="edge12" class="edge">
<title>dev_peer&#45;&gt;sub_disorder</title>
<path fill="none" stroke="black" d="M80.58,-73.12C89.72,-64.36 101.26,-53.29 111.52,-43.45"/>
<polygon fill="black" stroke="black" points="113.87,-46.05 118.67,-36.6 109.03,-40.99 113.87,-46.05"/>
</g>
<!-- sub_exp&#45;&gt;sub_disorder -->
<g id="edge13" class="edge">
<title>sub_exp&#45;&gt;sub_disorder</title>
<path fill="none" stroke="black" d="M191.13,-73.12C182.31,-64.29 171.15,-53.13 161.26,-43.24"/>
<polygon fill="black" stroke="black" points="163.94,-40.97 154.4,-36.38 158.99,-45.92 163.94,-40.97"/>
</g>
</g>
</svg>
