<?xml version="1.0" encoding="UTF-8" standalone="no"?>
<!DOCTYPE svg PUBLIC "-//W3C//DTD SVG 1.1//EN"
 "http://www.w3.org/Graphics/SVG/1.1/DTD/svg11.dtd">
<!-- Generated by graphviz version 14.0.5 (0)
 -->
<!-- Pages: 1 -->
<svg width="265pt" height="260pt"
 viewBox="0.00 0.00 265.00 260.00" xmlns="http://www.w3.org/2000/svg" xmlns:xlink="http://www.w3.org/1999/xlink">
<g id="graph0" class="graph" transform="scale(1 1) rotate(0) translate(4 256)">
<polygon fill="white" stroke="none" points="-4,4 -4,-256 260.92,-256 260.92,4 -4,4"/>
<!-- Side&#45;quest Engagement -->
<g id="node1" class="node">
<title>Side&#45;quest Engagement</title>
<ellipse fill="#2a2eec" fill-opacity="0.501961" stroke="#2a2eec" stroke-opacity="0.501961" cx="111.86" cy="-162" rx="98.95" ry="18"/>
<text xml:space="preserve" text-anchor="middle" x="111.86" y="-156.95" font-family="Times,serif" font-size="14.00">Side&#45;quest Engagement</text>
</g>
<!-- Won Items -->
<g id="node4" class="node">
<title>Won Items</title>
<ellipse fill="none" stroke="black" cx="111.86" cy="-90" rx="52.38" ry="18"/>
<text xml:space="preserve" text-anchor="middle" x="111.86" y="-84.95" font-family="Times,serif" font-size="14.00">Won Items</text>
</g>
<!-- Side&#45;quest Engagement&#45;&gt;Won Items -->
<g id="edge1" class="edge">
<title>Side&#45;quest Engagement&#45;&gt;Won Items</title>
<path fill="none" stroke="black" d="M111.86,-143.7C111.86,-136.41 111.86,-127.73 111.86,-119.54"/>
<polygon fill="black" stroke="black" points="115.36,-119.62 111.86,-109.62 108.36,-119.62 115.36,-119.62"/>
</g>
<!-- In&#45;game Purchases -->
<g id="node2" class="node">
<title>In&#45;game Purchases</title>
<ellipse fill="#fa7c17" fill-opacity="0.501961" stroke="#fa7c17" stroke-opacity="0.501961" cx="111.86" cy="-18" rx="81.55" ry="18"/>
<text xml:space="preserve" text-anchor="middle" x="111.86" y="-12.95" font-family="Times,serif" font-size="14.00">In&#45;game Purchases</text>
</g>
<!-- Z -->
<g id="node3" class="node">
<title>Z</title>
<ellipse fill="gray" stroke="black" cx="47.86" cy="-234" rx="27" ry="18"/>
<text xml:space="preserve" text-anchor="middle" x="47.86" y="-228.95" font-family="Times,serif" font-size="14.00">Z</text>
</g>
<!-- Z&#45;&gt;Side&#45;quest Engagement -->
<g id="edge5" class="edge">
<title>Z&#45;&gt;Side&#45;quest Engagement</title>
<path fill="none" stroke="black" d="M61.43,-218.15C69.32,-209.53 79.48,-198.42 88.6,-188.43"/>
<polygon fill="black" stroke="black" points="91.09,-190.9 95.26,-181.16 85.93,-186.18 91.09,-190.9"/>
</g>
<!-- Z&#45;&gt;In&#45;game Purchases -->
<g id="edge6" class="edge">
<title>Z&#45;&gt;In&#45;game Purchases</title>
<path fill="none" stroke="black" d="M32,-219.49C21.81,-209.71 9.46,-195.52 3.86,-180 -1.58,-164.95 -0.71,-159.34 3.86,-144 16.42,-101.77 52.8,-65.21 79.89,-42.72"/>
<polygon fill="black" stroke="black" points="81.9,-45.59 87.49,-36.59 77.51,-40.14 81.9,-45.59"/>
</g>
<!-- Won Items&#45;&gt;In&#45;game Purchases -->
<g id="edge2" class="edge">
<title>Won Items&#45;&gt;In&#45;game Purchases</title>
<path fill="none" stroke="black" d="M111.86,-71.7C111.86,-64.41 111.86,-55.73 111.86,-47.54"/>
<polygon fill="black" stroke="black" points="115.36,-47.62 111.86,-37.62 108.36,-47.62 115.36,-47.62"/>
</g>
<!-- Guild Membership -->
<g id="node5" class="node">
<title>Guild Membership</title>
<ellipse fill="none" stroke="black" cx="174.86" cy="-234" rx="82.06" ry="18"/>
<text xml:space="preserve" text-anchor="middle" x="174.86" y="-228.95" font-family="Times,serif" font-size="14.00">Guild Membership</text>
</g>
<!-- Guild Membership&#45;&gt;Side&#45;quest Engagement -->
<g id="edge3" class="edge">
<title>Guild Membership&#45;&gt;Side&#45;quest Engagement</title>
<path fill="none" stroke="black" d="M159.61,-216.05C152.1,-207.71 142.9,-197.49 134.58,-188.25"/>
<polygon fill="black" stroke="black" points="137.27,-186.01 127.98,-180.91 132.07,-190.69 137.27,-186.01"/>
</g>
<!-- Guild Membership&#45;&gt;In&#45;game Purchases -->
<g id="edge4" class="edge">
<title>Guild Membership&#45;&gt;In&#45;game Purchases</title>
<path fill="none" stroke="black" d="M194.3,-216.46C203.98,-206.92 214.7,-194.05 219.86,-180 225.37,-164.98 224.42,-159.34 219.86,-144 207.29,-101.77 170.91,-65.21 143.83,-42.72"/>
<polygon fill="black" stroke="black" points="146.21,-40.14 136.22,-36.59 141.81,-45.59 146.21,-40.14"/>
</g>
</g>
</svg>
