<?xml version="1.0" encoding="UTF-8" standalone="no"?>
<!DOCTYPE svg PUBLIC "-//W3C//DTD SVG 1.1//EN"
 "http://www.w3.org/Graphics/SVG/1.1/DTD/svg11.dtd">
<!-- Generated by graphviz version 7.0.6 (20230106.0513)
 -->
<!-- Pages: 1 -->
<svg width="669pt" height="663pt"
 viewBox="0.00 0.00 669.00 662.79" xmlns="http://www.w3.org/2000/svg" xmlns:xlink="http://www.w3.org/1999/xlink">
<g id="graph0" class="graph" transform="scale(1 1) rotate(0) translate(4 658.79)">
<polygon fill="white" stroke="none" points="-4,4 -4,-658.79 665,-658.79 665,4 -4,4"/>
<g id="clust1" class="cluster">
<title>clusterdate (179)</title>
<path fill="none" stroke="black" d="M20,-8C20,-8 322,-8 322,-8 328,-8 334,-14 334,-20 334,-20 334,-634.79 334,-634.79 334,-640.79 328,-646.79 322,-646.79 322,-646.79 20,-646.79 20,-646.79 14,-646.79 8,-640.79 8,-634.79 8,-634.79 8,-20 8,-20 8,-14 14,-8 20,-8"/>
<text text-anchor="middle" x="298" y="-15.8" font-family="Times,serif" font-size="14.00">date (179)</text>
</g>
<g id="clust2" class="cluster">
<title>clusterfourier_mode (14)</title>
<path fill="none" stroke="black" d="M548,-321.91C548,-321.91 641,-321.91 641,-321.91 647,-321.91 653,-327.91 653,-333.91 653,-333.91 653,-423.86 653,-423.86 653,-429.86 647,-435.86 641,-435.86 641,-435.86 548,-435.86 548,-435.86 542,-435.86 536,-429.86 536,-423.86 536,-423.86 536,-333.91 536,-333.91 536,-327.91 542,-321.91 548,-321.91"/>
<text text-anchor="middle" x="594.5" y="-329.71" font-family="Times,serif" font-size="14.00">fourier_mode (14)</text>
</g>
<!-- likelihood -->
<g id="node1" class="node">
<title>likelihood</title>
<ellipse fill="lightgrey" stroke="black" cx="276" cy="-76.48" rx="50.41" ry="37.45"/>
<text text-anchor="middle" x="276" y="-87.78" font-family="Times,serif" font-size="14.00">likelihood</text>
<text text-anchor="middle" x="276" y="-72.78" font-family="Times,serif" font-size="14.00">~</text>
<text text-anchor="middle" x="276" y="-57.78" font-family="Times,serif" font-size="14.00">StudentT</text>
</g>
<!-- z_scaled -->
<g id="node2" class="node">
<title>z_scaled</title>
<path fill="lightgrey" stroke="black" d="M227,-638.79C227,-638.79 163,-638.79 163,-638.79 157,-638.79 151,-632.79 151,-626.79 151,-626.79 151,-597.79 151,-597.79 151,-591.79 157,-585.79 163,-585.79 163,-585.79 227,-585.79 227,-585.79 233,-585.79 239,-591.79 239,-597.79 239,-597.79 239,-626.79 239,-626.79 239,-632.79 233,-638.79 227,-638.79"/>
<text text-anchor="middle" x="195" y="-623.59" font-family="Times,serif" font-size="14.00">z_scaled</text>
<text text-anchor="middle" x="195" y="-608.59" font-family="Times,serif" font-size="14.00">~</text>
<text text-anchor="middle" x="195" y="-593.59" font-family="Times,serif" font-size="14.00">MutableData</text>
</g>
<!-- z_adstock -->
<g id="node4" class="node">
<title>z_adstock</title>
<polygon fill="none" stroke="black" points="240.5,-527.84 149.5,-527.84 149.5,-474.84 240.5,-474.84 240.5,-527.84"/>
<text text-anchor="middle" x="195" y="-512.64" font-family="Times,serif" font-size="14.00">z_adstock</text>
<text text-anchor="middle" x="195" y="-497.64" font-family="Times,serif" font-size="14.00">~</text>
<text text-anchor="middle" x="195" y="-482.64" font-family="Times,serif" font-size="14.00">Deterministic</text>
</g>
<!-- z_scaled&#45;&gt;z_adstock -->
<g id="edge5" class="edge">
<title>z_scaled&#45;&gt;z_adstock</title>
<path fill="none" stroke="black" d="M195,-585.47C195,-571.63 195,-554.34 195,-539.12"/>
<polygon fill="black" stroke="black" points="198.5,-539.49 195,-529.49 191.5,-539.49 198.5,-539.49"/>
</g>
<!-- trend -->
<g id="node3" class="node">
<title>trend</title>
<polygon fill="none" stroke="black" points="216.5,-313.91 125.5,-313.91 125.5,-260.91 216.5,-260.91 216.5,-313.91"/>
<text text-anchor="middle" x="171" y="-298.71" font-family="Times,serif" font-size="14.00">trend</text>
<text text-anchor="middle" x="171" y="-283.71" font-family="Times,serif" font-size="14.00">~</text>
<text text-anchor="middle" x="171" y="-268.71" font-family="Times,serif" font-size="14.00">Deterministic</text>
</g>
<!-- mu -->
<g id="node5" class="node">
<title>mu</title>
<polygon fill="none" stroke="black" points="268.5,-213.93 177.5,-213.93 177.5,-160.93 268.5,-160.93 268.5,-213.93"/>
<text text-anchor="middle" x="223" y="-198.73" font-family="Times,serif" font-size="14.00">mu</text>
<text text-anchor="middle" x="223" y="-183.73" font-family="Times,serif" font-size="14.00">~</text>
<text text-anchor="middle" x="223" y="-168.73" font-family="Times,serif" font-size="14.00">Deterministic</text>
</g>
<!-- trend&#45;&gt;mu -->
<g id="edge11" class="edge">
<title>trend&#45;&gt;mu</title>
<path fill="none" stroke="black" d="M184.8,-260.41C190.66,-249.36 197.6,-236.29 203.94,-224.34"/>
<polygon fill="black" stroke="black" points="207.01,-226.02 208.61,-215.55 200.83,-222.74 207.01,-226.02"/>
</g>
<!-- z_adstock_saturated -->
<g id="node6" class="node">
<title>z_adstock_saturated</title>
<polygon fill="none" stroke="black" points="176,-416.88 50,-416.88 50,-363.88 176,-363.88 176,-416.88"/>
<text text-anchor="middle" x="113" y="-401.68" font-family="Times,serif" font-size="14.00">z_adstock_saturated</text>
<text text-anchor="middle" x="113" y="-386.68" font-family="Times,serif" font-size="14.00">~</text>
<text text-anchor="middle" x="113" y="-371.68" font-family="Times,serif" font-size="14.00">Deterministic</text>
</g>
<!-- z_adstock&#45;&gt;z_adstock_saturated -->
<g id="edge8" class="edge">
<title>z_adstock&#45;&gt;z_adstock_saturated</title>
<path fill="none" stroke="black" d="M175.57,-474.52C164.64,-460 150.86,-441.68 139.01,-425.94"/>
<polygon fill="black" stroke="black" points="142.01,-424.11 133.2,-418.23 136.42,-428.32 142.01,-424.11"/>
</g>
<!-- mu&#45;&gt;likelihood -->
<g id="edge15" class="edge">
<title>mu&#45;&gt;likelihood</title>
<path fill="none" stroke="black" d="M235.56,-160.61C241.12,-149.19 247.81,-135.42 254.15,-122.4"/>
<polygon fill="black" stroke="black" points="257.23,-124.07 258.46,-113.54 250.93,-121 257.23,-124.07"/>
</g>
<!-- z_effect -->
<g id="node8" class="node">
<title>z_effect</title>
<polygon fill="none" stroke="black" points="107.5,-313.91 16.5,-313.91 16.5,-260.91 107.5,-260.91 107.5,-313.91"/>
<text text-anchor="middle" x="62" y="-298.71" font-family="Times,serif" font-size="14.00">z_effect</text>
<text text-anchor="middle" x="62" y="-283.71" font-family="Times,serif" font-size="14.00">~</text>
<text text-anchor="middle" x="62" y="-268.71" font-family="Times,serif" font-size="14.00">Deterministic</text>
</g>
<!-- z_adstock_saturated&#45;&gt;z_effect -->
<g id="edge9" class="edge">
<title>z_adstock_saturated&#45;&gt;z_effect</title>
<path fill="none" stroke="black" d="M100,-363.64C93.94,-351.65 86.64,-337.19 80.06,-324.17"/>
<polygon fill="black" stroke="black" points="83.29,-322.8 75.66,-315.45 77.04,-325.96 83.29,-322.8"/>
</g>
<!-- slopes -->
<g id="node7" class="node">
<title>slopes</title>
<ellipse fill="none" stroke="black" cx="259" cy="-390.38" rx="65.11" ry="37.45"/>
<text text-anchor="middle" x="259" y="-401.68" font-family="Times,serif" font-size="14.00">slopes</text>
<text text-anchor="middle" x="259" y="-386.68" font-family="Times,serif" font-size="14.00">~</text>
<text text-anchor="middle" x="259" y="-371.68" font-family="Times,serif" font-size="14.00">RandomWalk</text>
</g>
<!-- slopes&#45;&gt;z_effect -->
<g id="edge10" class="edge">
<title>slopes&#45;&gt;z_effect</title>
<path fill="none" stroke="black" d="M231.22,-356.32C218.51,-343.42 202.4,-329.85 185,-321.91 160.13,-310.55 148.7,-319.83 118.73,-313.66"/>
<polygon fill="black" stroke="black" points="119.83,-310.33 109.28,-311.3 118.13,-317.12 119.83,-310.33"/>
</g>
<!-- z_effect&#45;&gt;mu -->
<g id="edge13" class="edge">
<title>z_effect&#45;&gt;mu</title>
<path fill="none" stroke="black" d="M104.72,-260.41C125,-248.07 149.41,-233.21 170.78,-220.21"/>
<polygon fill="black" stroke="black" points="172.34,-223.36 179.06,-215.17 168.7,-217.38 172.34,-223.36"/>
</g>
<!-- seasonality -->
<g id="node9" class="node">
<title>seasonality</title>
<polygon fill="none" stroke="black" points="325.5,-313.91 234.5,-313.91 234.5,-260.91 325.5,-260.91 325.5,-313.91"/>
<text text-anchor="middle" x="280" y="-298.71" font-family="Times,serif" font-size="14.00">seasonality</text>
<text text-anchor="middle" x="280" y="-283.71" font-family="Times,serif" font-size="14.00">~</text>
<text text-anchor="middle" x="280" y="-268.71" font-family="Times,serif" font-size="14.00">Deterministic</text>
</g>
<!-- seasonality&#45;&gt;mu -->
<g id="edge12" class="edge">
<title>seasonality&#45;&gt;mu</title>
<path fill="none" stroke="black" d="M264.87,-260.41C258.38,-249.25 250.69,-236.03 243.68,-223.98"/>
<polygon fill="black" stroke="black" points="246.81,-222.4 238.76,-215.52 240.76,-225.92 246.81,-222.4"/>
</g>
<!-- b_trend -->
<g id="node10" class="node">
<title>b_trend</title>
<ellipse fill="none" stroke="black" cx="384" cy="-390.38" rx="41.94" ry="37.45"/>
<text text-anchor="middle" x="384" y="-401.68" font-family="Times,serif" font-size="14.00">b_trend</text>
<text text-anchor="middle" x="384" y="-386.68" font-family="Times,serif" font-size="14.00">~</text>
<text text-anchor="middle" x="384" y="-371.68" font-family="Times,serif" font-size="14.00">Normal</text>
</g>
<!-- b_trend&#45;&gt;trend -->
<g id="edge1" class="edge">
<title>b_trend&#45;&gt;trend</title>
<path fill="none" stroke="black" d="M368.76,-355.1C361.34,-342.5 351.15,-329.47 338,-321.91 318.57,-310.73 263.15,-318.22 227.87,-313.29"/>
<polygon fill="black" stroke="black" points="228.74,-309.89 218.25,-311.39 227.38,-316.76 228.74,-309.89"/>
</g>
<!-- sigma -->
<g id="node11" class="node">
<title>sigma</title>
<ellipse fill="none" stroke="black" cx="401" cy="-187.43" rx="58.88" ry="37.45"/>
<text text-anchor="middle" x="401" y="-198.73" font-family="Times,serif" font-size="14.00">sigma</text>
<text text-anchor="middle" x="401" y="-183.73" font-family="Times,serif" font-size="14.00">~</text>
<text text-anchor="middle" x="401" y="-168.73" font-family="Times,serif" font-size="14.00">HalfNormal</text>
</g>
<!-- sigma&#45;&gt;likelihood -->
<g id="edge14" class="edge">
<title>sigma&#45;&gt;likelihood</title>
<path fill="none" stroke="black" d="M366.84,-156.66C351.33,-143.14 332.86,-127.04 316.64,-112.9"/>
<polygon fill="black" stroke="black" points="319.37,-110.64 309.53,-106.71 314.77,-115.92 319.37,-110.64"/>
</g>
<!-- sigma_slope -->
<g id="node12" class="node">
<title>sigma_slope</title>
<ellipse fill="none" stroke="black" cx="506" cy="-501.34" rx="60.21" ry="37.45"/>
<text text-anchor="middle" x="506" y="-512.64" font-family="Times,serif" font-size="14.00">sigma_slope</text>
<text text-anchor="middle" x="506" y="-497.64" font-family="Times,serif" font-size="14.00">~</text>
<text text-anchor="middle" x="506" y="-482.64" font-family="Times,serif" font-size="14.00">HalfNormal</text>
</g>
<!-- sigma_slope&#45;&gt;slopes -->
<g id="edge4" class="edge">
<title>sigma_slope&#45;&gt;slopes</title>
<path fill="none" stroke="black" d="M462.15,-475.29C453.94,-471.14 445.32,-467.13 437,-463.86 392.45,-446.34 377.05,-454.59 333,-435.86 325.6,-432.71 318.06,-428.94 310.75,-424.93"/>
<polygon fill="black" stroke="black" points="312.71,-422.01 302.29,-420.1 309.24,-428.09 312.71,-422.01"/>
</g>
<!-- a -->
<g id="node13" class="node">
<title>a</title>
<ellipse fill="none" stroke="black" cx="485" cy="-390.38" rx="41.94" ry="37.45"/>
<text text-anchor="middle" x="485" y="-401.68" font-family="Times,serif" font-size="14.00">a</text>
<text text-anchor="middle" x="485" y="-386.68" font-family="Times,serif" font-size="14.00">~</text>
<text text-anchor="middle" x="485" y="-371.68" font-family="Times,serif" font-size="14.00">Normal</text>
</g>
<!-- a&#45;&gt;trend -->
<g id="edge2" class="edge">
<title>a&#45;&gt;trend</title>
<path fill="none" stroke="black" d="M468.38,-355.53C460.21,-342.66 449.05,-329.33 435,-321.91 416.25,-312.01 276.63,-318.04 228.05,-313"/>
<polygon fill="black" stroke="black" points="228.65,-309.55 218.23,-311.45 227.56,-316.47 228.65,-309.55"/>
</g>
<!-- lam -->
<g id="node14" class="node">
<title>lam</title>
<ellipse fill="none" stroke="black" cx="385" cy="-501.34" rx="43.27" ry="37.45"/>
<text text-anchor="middle" x="385" y="-512.64" font-family="Times,serif" font-size="14.00">lam</text>
<text text-anchor="middle" x="385" y="-497.64" font-family="Times,serif" font-size="14.00">~</text>
<text text-anchor="middle" x="385" y="-482.64" font-family="Times,serif" font-size="14.00">Gamma</text>
</g>
<!-- lam&#45;&gt;z_adstock_saturated -->
<g id="edge7" class="edge">
<title>lam&#45;&gt;z_adstock_saturated</title>
<path fill="none" stroke="black" d="M355.01,-473.75C349.62,-469.96 343.85,-466.47 338,-463.86 274.89,-435.64 249.52,-460.68 185,-435.86 176.13,-432.45 167.14,-427.92 158.67,-423.06"/>
<polygon fill="black" stroke="black" points="160.66,-420.17 150.29,-418.03 157.06,-426.18 160.66,-420.17"/>
</g>
<!-- alpha -->
<g id="node15" class="node">
<title>alpha</title>
<ellipse fill="none" stroke="black" cx="375" cy="-612.29" rx="32.55" ry="37.45"/>
<text text-anchor="middle" x="375" y="-623.59" font-family="Times,serif" font-size="14.00">alpha</text>
<text text-anchor="middle" x="375" y="-608.59" font-family="Times,serif" font-size="14.00">~</text>
<text text-anchor="middle" x="375" y="-593.59" font-family="Times,serif" font-size="14.00">Beta</text>
</g>
<!-- alpha&#45;&gt;z_adstock -->
<g id="edge6" class="edge">
<title>alpha&#45;&gt;z_adstock</title>
<path fill="none" stroke="black" d="M351.69,-586.2C347.34,-582.15 342.69,-578.18 338,-574.81 311.16,-555.5 278.42,-538.5 251.05,-525.83"/>
<polygon fill="black" stroke="black" points="252.78,-522.77 242.23,-521.81 249.88,-529.14 252.78,-522.77"/>
</g>
<!-- nu -->
<g id="node16" class="node">
<title>nu</title>
<ellipse fill="none" stroke="black" cx="521" cy="-187.43" rx="43.27" ry="37.45"/>
<text text-anchor="middle" x="521" y="-198.73" font-family="Times,serif" font-size="14.00">nu</text>
<text text-anchor="middle" x="521" y="-183.73" font-family="Times,serif" font-size="14.00">~</text>
<text text-anchor="middle" x="521" y="-168.73" font-family="Times,serif" font-size="14.00">Gamma</text>
</g>
<!-- nu&#45;&gt;likelihood -->
<g id="edge16" class="edge">
<title>nu&#45;&gt;likelihood</title>
<path fill="none" stroke="black" d="M488.79,-161.97C482.41,-157.67 475.63,-153.45 469,-149.95 425.4,-126.95 372.85,-107.72 333.6,-94.86"/>
<polygon fill="black" stroke="black" points="334.68,-91.53 324.09,-91.79 332.53,-98.19 334.68,-91.53"/>
</g>
<!-- b_fourier -->
<g id="node17" class="node">
<title>b_fourier</title>
<ellipse fill="none" stroke="black" cx="592" cy="-390.38" rx="47.25" ry="37.45"/>
<text text-anchor="middle" x="592" y="-401.68" font-family="Times,serif" font-size="14.00">b_fourier</text>
<text text-anchor="middle" x="592" y="-386.68" font-family="Times,serif" font-size="14.00">~</text>
<text text-anchor="middle" x="592" y="-371.68" font-family="Times,serif" font-size="14.00">Laplace</text>
</g>
<!-- b_fourier&#45;&gt;seasonality -->
<g id="edge3" class="edge">
<title>b_fourier&#45;&gt;seasonality</title>
<path fill="none" stroke="black" d="M572.18,-356.12C562.84,-343.34 550.53,-329.92 536,-321.91 502.82,-303.6 401.78,-294.86 337,-291.04"/>
<polygon fill="black" stroke="black" points="337.44,-287.56 327.26,-290.49 337.05,-294.55 337.44,-287.56"/>
</g>
</g>
</svg>
