<?xml version="1.0" encoding="utf-8" standalone="no"?>
<!DOCTYPE svg PUBLIC "-//W3C//DTD SVG 1.1//EN"
  "http://www.w3.org/Graphics/SVG/1.1/DTD/svg11.dtd">
<!-- Created with matplotlib (https://matplotlib.org/) -->
<svg height="400.2375pt" version="1.1" viewBox="0 0 628.80625 400.2375" width="628.80625pt" xmlns="http://www.w3.org/2000/svg" xmlns:xlink="http://www.w3.org/1999/xlink">
 <metadata>
  <rdf:RDF xmlns:cc="http://creativecommons.org/ns#" xmlns:dc="http://purl.org/dc/elements/1.1/" xmlns:rdf="http://www.w3.org/1999/02/22-rdf-syntax-ns#">
   <cc:Work>
    <dc:type rdf:resource="http://purl.org/dc/dcmitype/StillImage"/>
    <dc:date>2021-06-30T17:01:01.469880</dc:date>
    <dc:format>image/svg+xml</dc:format>
    <dc:creator>
     <cc:Agent>
      <dc:title>Matplotlib v3.3.4, https://matplotlib.org/</dc:title>
     </cc:Agent>
    </dc:creator>
   </cc:Work>
  </rdf:RDF>
 </metadata>
 <defs>
  <style type="text/css">*{stroke-linecap:butt;stroke-linejoin:round;}</style>
 </defs>
 <g id="figure_1">
  <g id="patch_1">
   <path d="M 0 400.2375 
L 628.80625 400.2375 
L 628.80625 0 
L 0 0 
z
" style="fill:#ffffff;"/>
  </g>
  <g id="axes_1">
   <g id="patch_2">
    <path d="M 63.60625 185.694545 
L 621.60625 185.694545 
L 621.60625 37.44 
L 63.60625 37.44 
z
" style="fill:#e6e6e6;"/>
   </g>
   <g id="matplotlib.axis_1">
    <g id="xtick_1">
     <g id="line2d_1">
      <path clip-path="url(#pe48ed0d073)" d="M 68.861526 185.694545 
L 68.861526 37.44 
" style="fill:none;stroke:#cccccc;stroke-linecap:round;stroke-width:0.8;"/>
     </g>
     <g id="text_1">
      <!-- −2000 -->
      <g style="fill:#262626;" transform="translate(54.819338 199.852358)scale(0.1 -0.1)">
       <defs>
        <path d="M 52.828125 31.203125 
L 5.5625 31.203125 
L 5.5625 39.40625 
L 52.828125 39.40625 
z
" id="ArialMT-8722"/>
        <path d="M 50.34375 8.453125 
L 50.34375 0 
L 3.03125 0 
Q 2.9375 3.171875 4.046875 6.109375 
Q 5.859375 10.9375 9.828125 15.625 
Q 13.8125 20.3125 21.34375 26.46875 
Q 33.015625 36.03125 37.109375 41.625 
Q 41.21875 47.21875 41.21875 52.203125 
Q 41.21875 57.421875 37.46875 61 
Q 33.734375 64.59375 27.734375 64.59375 
Q 21.390625 64.59375 17.578125 60.78125 
Q 13.765625 56.984375 13.71875 50.25 
L 4.6875 51.171875 
Q 5.609375 61.28125 11.65625 66.578125 
Q 17.71875 71.875 27.9375 71.875 
Q 38.234375 71.875 44.234375 66.15625 
Q 50.25 60.453125 50.25 52 
Q 50.25 47.703125 48.484375 43.546875 
Q 46.734375 39.40625 42.65625 34.8125 
Q 38.578125 30.21875 29.109375 22.21875 
Q 21.1875 15.578125 18.9375 13.203125 
Q 16.703125 10.84375 15.234375 8.453125 
z
" id="ArialMT-50"/>
        <path d="M 4.15625 35.296875 
Q 4.15625 48 6.765625 55.734375 
Q 9.375 63.484375 14.515625 67.671875 
Q 19.671875 71.875 27.484375 71.875 
Q 33.25 71.875 37.59375 69.546875 
Q 41.9375 67.234375 44.765625 62.859375 
Q 47.609375 58.5 49.21875 52.21875 
Q 50.828125 45.953125 50.828125 35.296875 
Q 50.828125 22.703125 48.234375 14.96875 
Q 45.65625 7.234375 40.5 3 
Q 35.359375 -1.21875 27.484375 -1.21875 
Q 17.140625 -1.21875 11.234375 6.203125 
Q 4.15625 15.140625 4.15625 35.296875 
z
M 13.1875 35.296875 
Q 13.1875 17.671875 17.3125 11.828125 
Q 21.4375 6 27.484375 6 
Q 33.546875 6 37.671875 11.859375 
Q 41.796875 17.71875 41.796875 35.296875 
Q 41.796875 52.984375 37.671875 58.78125 
Q 33.546875 64.59375 27.390625 64.59375 
Q 21.34375 64.59375 17.71875 59.46875 
Q 13.1875 52.9375 13.1875 35.296875 
z
" id="ArialMT-48"/>
       </defs>
       <use xlink:href="#ArialMT-8722"/>
       <use x="58.398438" xlink:href="#ArialMT-50"/>
       <use x="114.013672" xlink:href="#ArialMT-48"/>
       <use x="169.628906" xlink:href="#ArialMT-48"/>
       <use x="225.244141" xlink:href="#ArialMT-48"/>
      </g>
     </g>
    </g>
    <g id="xtick_2">
     <g id="line2d_2">
      <path clip-path="url(#pe48ed0d073)" d="M 154.836628 185.694545 
L 154.836628 37.44 
" style="fill:none;stroke:#cccccc;stroke-linecap:round;stroke-width:0.8;"/>
     </g>
     <g id="text_2">
      <!-- 0 -->
      <g style="fill:#262626;" transform="translate(152.056159 199.852358)scale(0.1 -0.1)">
       <use xlink:href="#ArialMT-48"/>
      </g>
     </g>
    </g>
    <g id="xtick_3">
     <g id="line2d_3">
      <path clip-path="url(#pe48ed0d073)" d="M 240.811729 185.694545 
L 240.811729 37.44 
" style="fill:none;stroke:#cccccc;stroke-linecap:round;stroke-width:0.8;"/>
     </g>
     <g id="text_3">
      <!-- 2000 -->
      <g style="fill:#262626;" transform="translate(229.689854 199.852358)scale(0.1 -0.1)">
       <use xlink:href="#ArialMT-50"/>
       <use x="55.615234" xlink:href="#ArialMT-48"/>
       <use x="111.230469" xlink:href="#ArialMT-48"/>
       <use x="166.845703" xlink:href="#ArialMT-48"/>
      </g>
     </g>
    </g>
    <g id="xtick_4">
     <g id="line2d_4">
      <path clip-path="url(#pe48ed0d073)" d="M 326.786831 185.694545 
L 326.786831 37.44 
" style="fill:none;stroke:#cccccc;stroke-linecap:round;stroke-width:0.8;"/>
     </g>
     <g id="text_4">
      <!-- 4000 -->
      <g style="fill:#262626;" transform="translate(315.664956 199.852358)scale(0.1 -0.1)">
       <defs>
        <path d="M 32.328125 0 
L 32.328125 17.140625 
L 1.265625 17.140625 
L 1.265625 25.203125 
L 33.9375 71.578125 
L 41.109375 71.578125 
L 41.109375 25.203125 
L 50.78125 25.203125 
L 50.78125 17.140625 
L 41.109375 17.140625 
L 41.109375 0 
z
M 32.328125 25.203125 
L 32.328125 57.46875 
L 9.90625 25.203125 
z
" id="ArialMT-52"/>
       </defs>
       <use xlink:href="#ArialMT-52"/>
       <use x="55.615234" xlink:href="#ArialMT-48"/>
       <use x="111.230469" xlink:href="#ArialMT-48"/>
       <use x="166.845703" xlink:href="#ArialMT-48"/>
      </g>
     </g>
    </g>
    <g id="xtick_5">
     <g id="line2d_5">
      <path clip-path="url(#pe48ed0d073)" d="M 412.761933 185.694545 
L 412.761933 37.44 
" style="fill:none;stroke:#cccccc;stroke-linecap:round;stroke-width:0.8;"/>
     </g>
     <g id="text_5">
      <!-- 6000 -->
      <g style="fill:#262626;" transform="translate(401.640058 199.852358)scale(0.1 -0.1)">
       <defs>
        <path d="M 49.75 54.046875 
L 41.015625 53.375 
Q 39.84375 58.546875 37.703125 60.890625 
Q 34.125 64.65625 28.90625 64.65625 
Q 24.703125 64.65625 21.53125 62.3125 
Q 17.390625 59.28125 14.984375 53.46875 
Q 12.59375 47.65625 12.5 36.921875 
Q 15.671875 41.75 20.265625 44.09375 
Q 24.859375 46.4375 29.890625 46.4375 
Q 38.671875 46.4375 44.84375 39.96875 
Q 51.03125 33.5 51.03125 23.25 
Q 51.03125 16.5 48.125 10.71875 
Q 45.21875 4.9375 40.140625 1.859375 
Q 35.0625 -1.21875 28.609375 -1.21875 
Q 17.625 -1.21875 10.6875 6.859375 
Q 3.765625 14.9375 3.765625 33.5 
Q 3.765625 54.25 11.421875 63.671875 
Q 18.109375 71.875 29.4375 71.875 
Q 37.890625 71.875 43.28125 67.140625 
Q 48.6875 62.40625 49.75 54.046875 
z
M 13.875 23.1875 
Q 13.875 18.65625 15.796875 14.5 
Q 17.71875 10.359375 21.1875 8.171875 
Q 24.65625 6 28.46875 6 
Q 34.03125 6 38.03125 10.484375 
Q 42.046875 14.984375 42.046875 22.703125 
Q 42.046875 30.125 38.078125 34.390625 
Q 34.125 38.671875 28.125 38.671875 
Q 22.171875 38.671875 18.015625 34.390625 
Q 13.875 30.125 13.875 23.1875 
z
" id="ArialMT-54"/>
       </defs>
       <use xlink:href="#ArialMT-54"/>
       <use x="55.615234" xlink:href="#ArialMT-48"/>
       <use x="111.230469" xlink:href="#ArialMT-48"/>
       <use x="166.845703" xlink:href="#ArialMT-48"/>
      </g>
     </g>
    </g>
    <g id="xtick_6">
     <g id="line2d_6">
      <path clip-path="url(#pe48ed0d073)" d="M 498.737035 185.694545 
L 498.737035 37.44 
" style="fill:none;stroke:#cccccc;stroke-linecap:round;stroke-width:0.8;"/>
     </g>
     <g id="text_6">
      <!-- 8000 -->
      <g style="fill:#262626;" transform="translate(487.61516 199.852358)scale(0.1 -0.1)">
       <defs>
        <path d="M 17.671875 38.8125 
Q 12.203125 40.828125 9.5625 44.53125 
Q 6.9375 48.25 6.9375 53.421875 
Q 6.9375 61.234375 12.546875 66.546875 
Q 18.171875 71.875 27.484375 71.875 
Q 36.859375 71.875 42.578125 66.421875 
Q 48.296875 60.984375 48.296875 53.171875 
Q 48.296875 48.1875 45.671875 44.5 
Q 43.0625 40.828125 37.75 38.8125 
Q 44.34375 36.671875 47.78125 31.875 
Q 51.21875 27.09375 51.21875 20.453125 
Q 51.21875 11.28125 44.71875 5.03125 
Q 38.234375 -1.21875 27.640625 -1.21875 
Q 17.046875 -1.21875 10.546875 5.046875 
Q 4.046875 11.328125 4.046875 20.703125 
Q 4.046875 27.6875 7.59375 32.390625 
Q 11.140625 37.109375 17.671875 38.8125 
z
M 15.921875 53.71875 
Q 15.921875 48.640625 19.1875 45.40625 
Q 22.46875 42.1875 27.6875 42.1875 
Q 32.765625 42.1875 36.015625 45.375 
Q 39.265625 48.578125 39.265625 53.21875 
Q 39.265625 58.0625 35.90625 61.359375 
Q 32.5625 64.65625 27.59375 64.65625 
Q 22.5625 64.65625 19.234375 61.421875 
Q 15.921875 58.203125 15.921875 53.71875 
z
M 13.09375 20.65625 
Q 13.09375 16.890625 14.875 13.375 
Q 16.65625 9.859375 20.171875 7.921875 
Q 23.6875 6 27.734375 6 
Q 34.03125 6 38.125 10.046875 
Q 42.234375 14.109375 42.234375 20.359375 
Q 42.234375 26.703125 38.015625 30.859375 
Q 33.796875 35.015625 27.4375 35.015625 
Q 21.234375 35.015625 17.15625 30.90625 
Q 13.09375 26.8125 13.09375 20.65625 
z
" id="ArialMT-56"/>
       </defs>
       <use xlink:href="#ArialMT-56"/>
       <use x="55.615234" xlink:href="#ArialMT-48"/>
       <use x="111.230469" xlink:href="#ArialMT-48"/>
       <use x="166.845703" xlink:href="#ArialMT-48"/>
      </g>
     </g>
    </g>
    <g id="xtick_7">
     <g id="line2d_7">
      <path clip-path="url(#pe48ed0d073)" d="M 584.712137 185.694545 
L 584.712137 37.44 
" style="fill:none;stroke:#cccccc;stroke-linecap:round;stroke-width:0.8;"/>
     </g>
     <g id="text_7">
      <!-- 10000 -->
      <g style="fill:#262626;" transform="translate(570.809793 199.852358)scale(0.1 -0.1)">
       <defs>
        <path d="M 37.25 0 
L 28.46875 0 
L 28.46875 56 
Q 25.296875 52.984375 20.140625 49.953125 
Q 14.984375 46.921875 10.890625 45.40625 
L 10.890625 53.90625 
Q 18.265625 57.375 23.78125 62.296875 
Q 29.296875 67.234375 31.59375 71.875 
L 37.25 71.875 
z
" id="ArialMT-49"/>
       </defs>
       <use xlink:href="#ArialMT-49"/>
       <use x="55.615234" xlink:href="#ArialMT-48"/>
       <use x="111.230469" xlink:href="#ArialMT-48"/>
       <use x="166.845703" xlink:href="#ArialMT-48"/>
       <use x="222.460938" xlink:href="#ArialMT-48"/>
      </g>
     </g>
    </g>
    <g id="text_8">
     <!-- cnt -->
     <g style="fill:#262626;" transform="translate(335.936719 212.99767)scale(0.1 -0.1)">
      <defs>
       <path d="M 40.4375 19 
L 49.078125 17.875 
Q 47.65625 8.9375 41.8125 3.875 
Q 35.984375 -1.171875 27.484375 -1.171875 
Q 16.84375 -1.171875 10.375 5.78125 
Q 3.90625 12.75 3.90625 25.734375 
Q 3.90625 34.125 6.6875 40.421875 
Q 9.46875 46.734375 15.15625 49.875 
Q 20.84375 53.03125 27.546875 53.03125 
Q 35.984375 53.03125 41.359375 48.75 
Q 46.734375 44.484375 48.25 36.625 
L 39.703125 35.296875 
Q 38.484375 40.53125 35.375 43.15625 
Q 32.28125 45.796875 27.875 45.796875 
Q 21.234375 45.796875 17.078125 41.03125 
Q 12.9375 36.28125 12.9375 25.984375 
Q 12.9375 15.53125 16.9375 10.796875 
Q 20.953125 6.0625 27.390625 6.0625 
Q 32.5625 6.0625 36.03125 9.234375 
Q 39.5 12.40625 40.4375 19 
z
" id="ArialMT-99"/>
       <path d="M 6.59375 0 
L 6.59375 51.859375 
L 14.5 51.859375 
L 14.5 44.484375 
Q 20.21875 53.03125 31 53.03125 
Q 35.6875 53.03125 39.625 51.34375 
Q 43.5625 49.65625 45.515625 46.921875 
Q 47.46875 44.1875 48.25 40.4375 
Q 48.734375 37.984375 48.734375 31.890625 
L 48.734375 0 
L 39.9375 0 
L 39.9375 31.546875 
Q 39.9375 36.921875 38.90625 39.578125 
Q 37.890625 42.234375 35.28125 43.8125 
Q 32.671875 45.40625 29.15625 45.40625 
Q 23.53125 45.40625 19.453125 41.84375 
Q 15.375 38.28125 15.375 28.328125 
L 15.375 0 
z
" id="ArialMT-110"/>
       <path d="M 25.78125 7.859375 
L 27.046875 0.09375 
Q 23.34375 -0.6875 20.40625 -0.6875 
Q 15.625 -0.6875 12.984375 0.828125 
Q 10.359375 2.34375 9.28125 4.8125 
Q 8.203125 7.28125 8.203125 15.1875 
L 8.203125 45.015625 
L 1.765625 45.015625 
L 1.765625 51.859375 
L 8.203125 51.859375 
L 8.203125 64.703125 
L 16.9375 69.96875 
L 16.9375 51.859375 
L 25.78125 51.859375 
L 25.78125 45.015625 
L 16.9375 45.015625 
L 16.9375 14.703125 
Q 16.9375 10.9375 17.40625 9.859375 
Q 17.875 8.796875 18.921875 8.15625 
Q 19.96875 7.515625 21.921875 7.515625 
Q 23.390625 7.515625 25.78125 7.859375 
z
" id="ArialMT-116"/>
      </defs>
      <use xlink:href="#ArialMT-99"/>
      <use x="50" xlink:href="#ArialMT-110"/>
      <use x="105.615234" xlink:href="#ArialMT-116"/>
     </g>
    </g>
   </g>
   <g id="matplotlib.axis_2">
    <g id="ytick_1">
     <g id="line2d_8">
      <path clip-path="url(#pe48ed0d073)" d="M 63.60625 185.694545 
L 621.60625 185.694545 
" style="fill:none;stroke:#cccccc;stroke-linecap:round;stroke-width:0.8;"/>
     </g>
     <g id="text_9">
      <!-- 0.00000 -->
      <g style="fill:#262626;" transform="translate(20.4625 189.273452)scale(0.1 -0.1)">
       <defs>
        <path d="M 9.078125 0 
L 9.078125 10.015625 
L 19.09375 10.015625 
L 19.09375 0 
z
" id="ArialMT-46"/>
       </defs>
       <use xlink:href="#ArialMT-48"/>
       <use x="55.615234" xlink:href="#ArialMT-46"/>
       <use x="83.398438" xlink:href="#ArialMT-48"/>
       <use x="139.013672" xlink:href="#ArialMT-48"/>
       <use x="194.628906" xlink:href="#ArialMT-48"/>
       <use x="250.244141" xlink:href="#ArialMT-48"/>
       <use x="305.859375" xlink:href="#ArialMT-48"/>
      </g>
     </g>
    </g>
    <g id="ytick_2">
     <g id="line2d_9">
      <path clip-path="url(#pe48ed0d073)" d="M 63.60625 151.789739 
L 621.60625 151.789739 
" style="fill:none;stroke:#cccccc;stroke-linecap:round;stroke-width:0.8;"/>
     </g>
     <g id="text_10">
      <!-- 0.00005 -->
      <g style="fill:#262626;" transform="translate(20.4625 155.368645)scale(0.1 -0.1)">
       <defs>
        <path d="M 4.15625 18.75 
L 13.375 19.53125 
Q 14.40625 12.796875 18.140625 9.390625 
Q 21.875 6 27.15625 6 
Q 33.5 6 37.890625 10.78125 
Q 42.28125 15.578125 42.28125 23.484375 
Q 42.28125 31 38.0625 35.34375 
Q 33.84375 39.703125 27 39.703125 
Q 22.75 39.703125 19.328125 37.765625 
Q 15.921875 35.84375 13.96875 32.765625 
L 5.71875 33.84375 
L 12.640625 70.609375 
L 48.25 70.609375 
L 48.25 62.203125 
L 19.671875 62.203125 
L 15.828125 42.96875 
Q 22.265625 47.46875 29.34375 47.46875 
Q 38.71875 47.46875 45.15625 40.96875 
Q 51.609375 34.46875 51.609375 24.265625 
Q 51.609375 14.546875 45.953125 7.46875 
Q 39.0625 -1.21875 27.15625 -1.21875 
Q 17.390625 -1.21875 11.203125 4.25 
Q 5.03125 9.71875 4.15625 18.75 
z
" id="ArialMT-53"/>
       </defs>
       <use xlink:href="#ArialMT-48"/>
       <use x="55.615234" xlink:href="#ArialMT-46"/>
       <use x="83.398438" xlink:href="#ArialMT-48"/>
       <use x="139.013672" xlink:href="#ArialMT-48"/>
       <use x="194.628906" xlink:href="#ArialMT-48"/>
       <use x="250.244141" xlink:href="#ArialMT-48"/>
       <use x="305.859375" xlink:href="#ArialMT-53"/>
      </g>
     </g>
    </g>
    <g id="ytick_3">
     <g id="line2d_10">
      <path clip-path="url(#pe48ed0d073)" d="M 63.60625 117.884933 
L 621.60625 117.884933 
" style="fill:none;stroke:#cccccc;stroke-linecap:round;stroke-width:0.8;"/>
     </g>
     <g id="text_11">
      <!-- 0.00010 -->
      <g style="fill:#262626;" transform="translate(20.4625 121.463839)scale(0.1 -0.1)">
       <use xlink:href="#ArialMT-48"/>
       <use x="55.615234" xlink:href="#ArialMT-46"/>
       <use x="83.398438" xlink:href="#ArialMT-48"/>
       <use x="139.013672" xlink:href="#ArialMT-48"/>
       <use x="194.628906" xlink:href="#ArialMT-48"/>
       <use x="250.244141" xlink:href="#ArialMT-49"/>
       <use x="305.859375" xlink:href="#ArialMT-48"/>
      </g>
     </g>
    </g>
    <g id="ytick_4">
     <g id="line2d_11">
      <path clip-path="url(#pe48ed0d073)" d="M 63.60625 83.980126 
L 621.60625 83.980126 
" style="fill:none;stroke:#cccccc;stroke-linecap:round;stroke-width:0.8;"/>
     </g>
     <g id="text_12">
      <!-- 0.00015 -->
      <g style="fill:#262626;" transform="translate(20.4625 87.559032)scale(0.1 -0.1)">
       <use xlink:href="#ArialMT-48"/>
       <use x="55.615234" xlink:href="#ArialMT-46"/>
       <use x="83.398438" xlink:href="#ArialMT-48"/>
       <use x="139.013672" xlink:href="#ArialMT-48"/>
       <use x="194.628906" xlink:href="#ArialMT-48"/>
       <use x="250.244141" xlink:href="#ArialMT-49"/>
       <use x="305.859375" xlink:href="#ArialMT-53"/>
      </g>
     </g>
    </g>
    <g id="ytick_5">
     <g id="line2d_12">
      <path clip-path="url(#pe48ed0d073)" d="M 63.60625 50.07532 
L 621.60625 50.07532 
" style="fill:none;stroke:#cccccc;stroke-linecap:round;stroke-width:0.8;"/>
     </g>
     <g id="text_13">
      <!-- 0.00020 -->
      <g style="fill:#262626;" transform="translate(20.4625 53.654226)scale(0.1 -0.1)">
       <use xlink:href="#ArialMT-48"/>
       <use x="55.615234" xlink:href="#ArialMT-46"/>
       <use x="83.398438" xlink:href="#ArialMT-48"/>
       <use x="139.013672" xlink:href="#ArialMT-48"/>
       <use x="194.628906" xlink:href="#ArialMT-48"/>
       <use x="250.244141" xlink:href="#ArialMT-50"/>
       <use x="305.859375" xlink:href="#ArialMT-48"/>
      </g>
     </g>
    </g>
    <g id="text_14">
     <!-- Density -->
     <g style="fill:#262626;" transform="translate(14.357813 128.239148)rotate(-90)scale(0.1 -0.1)">
      <defs>
       <path d="M 7.71875 0 
L 7.71875 71.578125 
L 32.375 71.578125 
Q 40.71875 71.578125 45.125 70.5625 
Q 51.265625 69.140625 55.609375 65.4375 
Q 61.28125 60.640625 64.078125 53.1875 
Q 66.890625 45.75 66.890625 36.1875 
Q 66.890625 28.03125 64.984375 21.734375 
Q 63.09375 15.4375 60.109375 11.296875 
Q 57.125 7.171875 53.578125 4.796875 
Q 50.046875 2.4375 45.046875 1.21875 
Q 40.046875 0 33.546875 0 
z
M 17.1875 8.453125 
L 32.46875 8.453125 
Q 39.546875 8.453125 43.578125 9.765625 
Q 47.609375 11.078125 50 13.484375 
Q 53.375 16.84375 55.25 22.53125 
Q 57.125 28.21875 57.125 36.328125 
Q 57.125 47.5625 53.4375 53.59375 
Q 49.75 59.625 44.484375 61.671875 
Q 40.671875 63.140625 32.234375 63.140625 
L 17.1875 63.140625 
z
" id="ArialMT-68"/>
       <path d="M 42.09375 16.703125 
L 51.171875 15.578125 
Q 49.03125 7.625 43.21875 3.21875 
Q 37.40625 -1.171875 28.375 -1.171875 
Q 17 -1.171875 10.328125 5.828125 
Q 3.65625 12.84375 3.65625 25.484375 
Q 3.65625 38.578125 10.390625 45.796875 
Q 17.140625 53.03125 27.875 53.03125 
Q 38.28125 53.03125 44.875 45.953125 
Q 51.46875 38.875 51.46875 26.03125 
Q 51.46875 25.25 51.421875 23.6875 
L 12.75 23.6875 
Q 13.234375 15.140625 17.578125 10.59375 
Q 21.921875 6.0625 28.421875 6.0625 
Q 33.25 6.0625 36.671875 8.59375 
Q 40.09375 11.140625 42.09375 16.703125 
z
M 13.234375 30.90625 
L 42.1875 30.90625 
Q 41.609375 37.453125 38.875 40.71875 
Q 34.671875 45.796875 27.984375 45.796875 
Q 21.921875 45.796875 17.796875 41.75 
Q 13.671875 37.703125 13.234375 30.90625 
z
" id="ArialMT-101"/>
       <path d="M 3.078125 15.484375 
L 11.765625 16.84375 
Q 12.5 11.625 15.84375 8.84375 
Q 19.1875 6.0625 25.203125 6.0625 
Q 31.25 6.0625 34.171875 8.515625 
Q 37.109375 10.984375 37.109375 14.3125 
Q 37.109375 17.28125 34.515625 19 
Q 32.71875 20.171875 25.53125 21.96875 
Q 15.875 24.421875 12.140625 26.203125 
Q 8.40625 27.984375 6.46875 31.125 
Q 4.546875 34.28125 4.546875 38.09375 
Q 4.546875 41.546875 6.125 44.5 
Q 7.71875 47.46875 10.453125 49.421875 
Q 12.5 50.921875 16.03125 51.96875 
Q 19.578125 53.03125 23.640625 53.03125 
Q 29.734375 53.03125 34.34375 51.265625 
Q 38.96875 49.515625 41.15625 46.5 
Q 43.359375 43.5 44.1875 38.484375 
L 35.59375 37.3125 
Q 35.015625 41.3125 32.203125 43.546875 
Q 29.390625 45.796875 24.265625 45.796875 
Q 18.21875 45.796875 15.625 43.796875 
Q 13.03125 41.796875 13.03125 39.109375 
Q 13.03125 37.40625 14.109375 36.03125 
Q 15.1875 34.625 17.484375 33.6875 
Q 18.796875 33.203125 25.25 31.453125 
Q 34.578125 28.953125 38.25 27.359375 
Q 41.9375 25.78125 44.03125 22.75 
Q 46.140625 19.734375 46.140625 15.234375 
Q 46.140625 10.84375 43.578125 6.953125 
Q 41.015625 3.078125 36.171875 0.953125 
Q 31.34375 -1.171875 25.25 -1.171875 
Q 15.140625 -1.171875 9.84375 3.03125 
Q 4.546875 7.234375 3.078125 15.484375 
z
" id="ArialMT-115"/>
       <path d="M 6.640625 61.46875 
L 6.640625 71.578125 
L 15.4375 71.578125 
L 15.4375 61.46875 
z
M 6.640625 0 
L 6.640625 51.859375 
L 15.4375 51.859375 
L 15.4375 0 
z
" id="ArialMT-105"/>
       <path d="M 6.203125 -19.96875 
L 5.21875 -11.71875 
Q 8.109375 -12.5 10.25 -12.5 
Q 13.1875 -12.5 14.9375 -11.515625 
Q 16.703125 -10.546875 17.828125 -8.796875 
Q 18.65625 -7.46875 20.515625 -2.25 
Q 20.75 -1.515625 21.296875 -0.09375 
L 1.609375 51.859375 
L 11.078125 51.859375 
L 21.875 21.828125 
Q 23.96875 16.109375 25.640625 9.8125 
Q 27.15625 15.875 29.25 21.625 
L 40.328125 51.859375 
L 49.125 51.859375 
L 29.390625 -0.875 
Q 26.21875 -9.421875 24.46875 -12.640625 
Q 22.125 -17 19.09375 -19.015625 
Q 16.0625 -21.046875 11.859375 -21.046875 
Q 9.328125 -21.046875 6.203125 -19.96875 
z
" id="ArialMT-121"/>
      </defs>
      <use xlink:href="#ArialMT-68"/>
      <use x="72.216797" xlink:href="#ArialMT-101"/>
      <use x="127.832031" xlink:href="#ArialMT-110"/>
      <use x="183.447266" xlink:href="#ArialMT-115"/>
      <use x="233.447266" xlink:href="#ArialMT-105"/>
      <use x="255.664062" xlink:href="#ArialMT-116"/>
      <use x="283.447266" xlink:href="#ArialMT-121"/>
     </g>
    </g>
   </g>
   <g id="PolyCollection_1">
    <defs>
     <path d="M 88.969886 -214.552972 
L 88.969886 -214.542955 
L 91.518996 -214.542955 
L 94.068105 -214.542955 
L 96.617214 -214.542955 
L 99.166323 -214.542955 
L 101.715432 -214.542955 
L 104.264541 -214.542955 
L 106.813651 -214.542955 
L 109.36276 -214.542955 
L 111.911869 -214.542955 
L 114.460978 -214.542955 
L 117.010087 -214.542955 
L 119.559197 -214.542955 
L 122.108306 -214.542955 
L 124.657415 -214.542955 
L 127.206524 -214.542955 
L 129.755633 -214.542955 
L 132.304742 -214.542955 
L 134.853852 -214.542955 
L 137.402961 -214.542955 
L 139.95207 -214.542955 
L 142.501179 -214.542955 
L 145.050288 -214.542955 
L 147.599398 -214.542955 
L 150.148507 -214.542955 
L 152.697616 -214.542955 
L 155.246725 -214.542955 
L 157.795834 -214.542955 
L 160.344943 -214.542955 
L 162.894053 -214.542955 
L 165.443162 -214.542955 
L 167.992271 -214.542955 
L 170.54138 -214.542955 
L 173.090489 -214.542955 
L 175.639599 -214.542955 
L 178.188708 -214.542955 
L 180.737817 -214.542955 
L 183.286926 -214.542955 
L 185.836035 -214.542955 
L 188.385144 -214.542955 
L 190.934254 -214.542955 
L 193.483363 -214.542955 
L 196.032472 -214.542955 
L 198.581581 -214.542955 
L 201.13069 -214.542955 
L 203.6798 -214.542955 
L 206.228909 -214.542955 
L 208.778018 -214.542955 
L 211.327127 -214.542955 
L 213.876236 -214.542955 
L 216.425345 -214.542955 
L 218.974455 -214.542955 
L 221.523564 -214.542955 
L 224.072673 -214.542955 
L 226.621782 -214.542955 
L 229.170891 -214.542955 
L 231.720001 -214.542955 
L 234.26911 -214.542955 
L 236.818219 -214.542955 
L 239.367328 -214.542955 
L 241.916437 -214.542955 
L 244.465546 -214.542955 
L 247.014656 -214.542955 
L 249.563765 -214.542955 
L 252.112874 -214.542955 
L 254.661983 -214.542955 
L 257.211092 -214.542955 
L 259.760202 -214.542955 
L 262.309311 -214.542955 
L 264.85842 -214.542955 
L 267.407529 -214.542955 
L 269.956638 -214.542955 
L 272.505747 -214.542955 
L 275.054857 -214.542955 
L 277.603966 -214.542955 
L 280.153075 -214.542955 
L 282.702184 -214.542955 
L 285.251293 -214.542955 
L 287.800403 -214.542955 
L 290.349512 -214.542955 
L 292.898621 -214.542955 
L 295.44773 -214.542955 
L 297.996839 -214.542955 
L 300.545948 -214.542955 
L 303.095058 -214.542955 
L 305.644167 -214.542955 
L 308.193276 -214.542955 
L 310.742385 -214.542955 
L 313.291494 -214.542955 
L 315.840604 -214.542955 
L 318.389713 -214.542955 
L 320.938822 -214.542955 
L 323.487931 -214.542955 
L 326.03704 -214.542955 
L 328.586149 -214.542955 
L 331.135259 -214.542955 
L 333.684368 -214.542955 
L 336.233477 -214.542955 
L 338.782586 -214.542955 
L 341.331695 -214.542955 
L 343.880805 -214.542955 
L 346.429914 -214.542955 
L 348.979023 -214.542955 
L 351.528132 -214.542955 
L 354.077241 -214.542955 
L 356.626351 -214.542955 
L 359.17546 -214.542955 
L 361.724569 -214.542955 
L 364.273678 -214.542955 
L 366.822787 -214.542955 
L 369.371896 -214.542955 
L 371.921006 -214.542955 
L 374.470115 -214.542955 
L 377.019224 -214.542955 
L 379.568333 -214.542955 
L 382.117442 -214.542955 
L 384.666552 -214.542955 
L 387.215661 -214.542955 
L 389.76477 -214.542955 
L 392.313879 -214.542955 
L 394.862988 -214.542955 
L 397.412097 -214.542955 
L 399.961207 -214.542955 
L 402.510316 -214.542955 
L 405.059425 -214.542955 
L 407.608534 -214.542955 
L 410.157643 -214.542955 
L 412.706753 -214.542955 
L 415.255862 -214.542955 
L 417.804971 -214.542955 
L 420.35408 -214.542955 
L 422.903189 -214.542955 
L 425.452298 -214.542955 
L 428.001408 -214.542955 
L 430.550517 -214.542955 
L 433.099626 -214.542955 
L 435.648735 -214.542955 
L 438.197844 -214.542955 
L 440.746954 -214.542955 
L 443.296063 -214.542955 
L 445.845172 -214.542955 
L 448.394281 -214.542955 
L 450.94339 -214.542955 
L 453.492499 -214.542955 
L 456.041609 -214.542955 
L 458.590718 -214.542955 
L 461.139827 -214.542955 
L 463.688936 -214.542955 
L 466.238045 -214.542955 
L 468.787155 -214.542955 
L 471.336264 -214.542955 
L 473.885373 -214.542955 
L 476.434482 -214.542955 
L 478.983591 -214.542955 
L 481.5327 -214.542955 
L 484.08181 -214.542955 
L 486.630919 -214.542955 
L 489.180028 -214.542955 
L 491.729137 -214.542955 
L 494.278246 -214.542955 
L 496.827356 -214.542955 
L 499.376465 -214.542955 
L 501.925574 -214.542955 
L 504.474683 -214.542955 
L 507.023792 -214.542955 
L 509.572901 -214.542955 
L 512.122011 -214.542955 
L 514.67112 -214.542955 
L 517.220229 -214.542955 
L 519.769338 -214.542955 
L 522.318447 -214.542955 
L 524.867557 -214.542955 
L 527.416666 -214.542955 
L 529.965775 -214.542955 
L 532.514884 -214.542955 
L 535.063993 -214.542955 
L 537.613102 -214.542955 
L 540.162212 -214.542955 
L 542.711321 -214.542955 
L 545.26043 -214.542955 
L 547.809539 -214.542955 
L 550.358648 -214.542955 
L 552.907758 -214.542955 
L 555.456867 -214.542955 
L 558.005976 -214.542955 
L 560.555085 -214.542955 
L 563.104194 -214.542955 
L 565.653303 -214.542955 
L 568.202413 -214.542955 
L 570.751522 -214.542955 
L 573.300631 -214.542955 
L 575.84974 -214.542955 
L 578.398849 -214.542955 
L 580.947959 -214.542955 
L 583.497068 -214.542955 
L 586.046177 -214.542955 
L 588.595286 -214.542955 
L 591.144395 -214.542955 
L 593.693504 -214.542955 
L 596.242614 -214.542955 
L 596.242614 -214.557611 
L 596.242614 -214.557611 
L 593.693504 -214.564167 
L 591.144395 -214.573319 
L 588.595286 -214.585949 
L 586.046177 -214.603179 
L 583.497068 -214.626425 
L 580.947959 -214.657441 
L 578.398849 -214.69838 
L 575.84974 -214.751842 
L 573.300631 -214.820935 
L 570.751522 -214.909325 
L 568.202413 -215.021281 
L 565.653303 -215.161727 
L 563.104194 -215.336269 
L 560.555085 -215.551229 
L 558.005976 -215.813665 
L 555.456867 -216.131383 
L 552.907758 -216.512937 
L 550.358648 -216.967631 
L 547.809539 -217.505494 
L 545.26043 -218.13725 
L 542.711321 -218.874269 
L 540.162212 -219.728483 
L 537.613102 -220.71227 
L 535.063993 -221.838278 
L 532.514884 -223.119196 
L 529.965775 -224.56743 
L 527.416666 -226.194699 
L 524.867557 -228.011528 
L 522.318447 -230.026642 
L 519.769338 -232.246285 
L 517.220229 -234.673469 
L 514.67112 -237.307212 
L 512.122011 -240.141801 
L 509.572901 -243.166157 
L 507.023792 -246.363359 
L 504.474683 -249.710399 
L 501.925574 -253.178236 
L 499.376465 -256.732176 
L 496.827356 -260.332623 
L 494.278246 -263.93617 
L 491.729137 -267.497007 
L 489.180028 -270.968569 
L 486.630919 -274.305322 
L 484.08181 -277.464589 
L 481.5327 -280.408268 
L 478.983591 -283.104343 
L 476.434482 -285.528077 
L 473.885373 -287.662812 
L 471.336264 -289.500334 
L 468.787155 -291.040808 
L 466.238045 -292.292298 
L 463.688936 -293.269963 
L 461.139827 -293.994988 
L 458.590718 -294.49337 
L 456.041609 -294.794652 
L 453.492499 -294.930695 
L 450.94339 -294.934561 
L 448.394281 -294.839566 
L 445.845172 -294.678526 
L 443.296063 -294.483205 
L 440.746954 -294.283942 
L 438.197844 -294.109447 
L 435.648735 -293.986713 
L 433.099626 -293.941001 
L 430.550517 -293.995873 
L 428.001408 -294.173219 
L 425.452298 -294.493257 
L 422.903189 -294.974475 
L 420.35408 -295.633513 
L 417.804971 -296.484968 
L 415.255862 -297.541136 
L 412.706753 -298.811689 
L 410.157643 -300.303326 
L 407.608534 -302.019394 
L 405.059425 -303.959533 
L 402.510316 -306.119339 
L 399.961207 -308.490104 
L 397.412097 -311.058629 
L 394.862988 -313.807138 
L 392.313879 -316.713308 
L 389.76477 -319.750421 
L 387.215661 -322.887633 
L 384.666552 -326.090386 
L 382.117442 -329.32092 
L 379.568333 -332.538919 
L 377.019224 -335.702255 
L 374.470115 -338.76782 
L 371.921006 -341.692442 
L 369.371896 -344.433849 
L 366.822787 -346.951655 
L 364.273678 -349.208342 
L 361.724569 -351.170192 
L 359.17546 -352.808135 
L 356.626351 -354.09847 
L 354.077241 -355.023424 
L 351.528132 -355.571525 
L 348.979023 -355.73776 
L 346.429914 -355.523521 
L 343.880805 -354.936336 
L 341.331695 -353.989412 
L 338.782586 -352.701006 
L 336.233477 -351.093686 
L 333.684368 -349.193505 
L 331.135259 -347.029149 
L 328.586149 -344.631105 
L 326.03704 -342.030893 
L 323.487931 -339.260396 
L 320.938822 -336.351318 
L 318.389713 -333.334777 
L 315.840604 -330.241051 
L 313.291494 -327.09945 
L 310.742385 -323.938298 
L 308.193276 -320.784994 
L 305.644167 -317.666108 
L 303.095058 -314.607472 
L 300.545948 -311.634215 
L 297.996839 -308.770715 
L 295.44773 -306.040437 
L 292.898621 -303.465633 
L 290.349512 -301.066925 
L 287.800403 -298.862769 
L 285.251293 -296.868847 
L 282.702184 -295.09743 
L 280.153075 -293.556758 
L 277.603966 -292.250497 
L 275.054857 -291.177326 
L 272.505747 -290.330683 
L 269.956638 -289.698718 
L 267.407529 -289.264438 
L 264.85842 -289.006067 
L 262.309311 -288.897576 
L 259.760202 -288.909376 
L 257.211092 -289.009117 
L 254.661983 -289.162562 
L 252.112874 -289.334493 
L 249.563765 -289.489612 
L 247.014656 -289.593412 
L 244.465546 -289.612991 
L 241.916437 -289.517791 
L 239.367328 -289.280263 
L 236.818219 -288.876432 
L 234.26911 -288.286367 
L 231.720001 -287.494545 
L 229.170891 -286.490103 
L 226.621782 -285.266962 
L 224.072673 -283.823836 
L 221.523564 -282.164099 
L 218.974455 -280.29554 
L 216.425345 -278.22999 
L 213.876236 -275.982855 
L 211.327127 -273.572575 
L 208.778018 -271.020021 
L 206.228909 -268.347884 
L 203.6798 -265.580059 
L 201.13069 -262.741069 
L 198.581581 -259.855542 
L 196.032472 -256.94774 
L 193.483363 -254.041175 
L 190.934254 -251.158278 
L 188.385144 -248.320139 
L 185.836035 -245.546289 
L 183.286926 -242.854533 
L 180.737817 -240.260802 
L 178.188708 -237.779032 
L 175.639599 -235.421068 
L 173.090489 -233.196582 
L 170.54138 -231.113016 
L 167.992271 -229.175563 
L 165.443162 -227.387178 
L 162.894053 -225.748638 
L 160.344943 -224.258649 
L 157.795834 -222.913998 
L 155.246725 -221.709758 
L 152.697616 -220.639523 
L 150.148507 -219.695675 
L 147.599398 -218.869668 
L 145.050288 -218.152316 
L 142.501179 -217.534067 
L 139.95207 -217.005263 
L 137.402961 -216.556368 
L 134.853852 -216.178161 
L 132.304742 -215.861887 
L 129.755633 -215.599374 
L 127.206524 -215.383108 
L 124.657415 -215.206278 
L 122.108306 -215.062787 
L 119.559197 -214.947241 
L 117.010087 -214.854925 
L 114.460978 -214.781756 
L 111.911869 -214.724238 
L 109.36276 -214.679402 
L 106.813651 -214.644755 
L 104.264541 -214.61822 
L 101.715432 -214.598085 
L 99.166323 -214.582951 
L 96.617214 -214.571687 
L 94.068105 -214.563389 
L 91.518996 -214.557338 
L 88.969886 -214.552972 
z
" id="m6a8fd10c96" style="stroke:#000000;"/>
    </defs>
    <g clip-path="url(#pe48ed0d073)">
     <use style="fill-opacity:0.25;stroke:#000000;" x="0" xlink:href="#m6a8fd10c96" y="400.2375"/>
    </g>
   </g>
   <g id="patch_3">
    <path d="M 63.60625 185.694545 
L 63.60625 37.44 
" style="fill:none;stroke:#ffffff;stroke-linecap:square;stroke-linejoin:miter;stroke-width:0.8;"/>
   </g>
   <g id="patch_4">
    <path d="M 621.60625 185.694545 
L 621.60625 37.44 
" style="fill:none;stroke:#ffffff;stroke-linecap:square;stroke-linejoin:miter;stroke-width:0.8;"/>
   </g>
   <g id="patch_5">
    <path d="M 63.60625 185.694545 
L 621.60625 185.694545 
" style="fill:none;stroke:#ffffff;stroke-linecap:square;stroke-linejoin:miter;stroke-width:0.8;"/>
   </g>
   <g id="patch_6">
    <path d="M 63.60625 37.44 
L 621.60625 37.44 
" style="fill:none;stroke:#ffffff;stroke-linecap:square;stroke-linejoin:miter;stroke-width:0.8;"/>
   </g>
  </g>
  <g id="axes_2">
   <g id="patch_7">
    <path d="M 63.60625 363.6 
L 621.60625 363.6 
L 621.60625 215.345455 
L 63.60625 215.345455 
z
" style="fill:#e6e6e6;"/>
   </g>
   <g id="matplotlib.axis_3">
    <g id="xtick_8">
     <g id="line2d_13">
      <path clip-path="url(#p0905214586)" d="M 88.969886 363.6 
L 88.969886 215.345455 
" style="fill:none;stroke:#cccccc;stroke-linecap:round;stroke-width:0.8;"/>
     </g>
     <g id="text_15">
      <!-- 0 -->
      <g style="fill:#262626;" transform="translate(86.189418 377.757812)scale(0.1 -0.1)">
       <use xlink:href="#ArialMT-48"/>
      </g>
     </g>
    </g>
    <g id="xtick_9">
     <g id="line2d_14">
      <path clip-path="url(#p0905214586)" d="M 158.459301 363.6 
L 158.459301 215.345455 
" style="fill:none;stroke:#cccccc;stroke-linecap:round;stroke-width:0.8;"/>
     </g>
     <g id="text_16">
      <!-- 100 -->
      <g style="fill:#262626;" transform="translate(150.117895 377.757812)scale(0.1 -0.1)">
       <use xlink:href="#ArialMT-49"/>
       <use x="55.615234" xlink:href="#ArialMT-48"/>
       <use x="111.230469" xlink:href="#ArialMT-48"/>
      </g>
     </g>
    </g>
    <g id="xtick_10">
     <g id="line2d_15">
      <path clip-path="url(#p0905214586)" d="M 227.948716 363.6 
L 227.948716 215.345455 
" style="fill:none;stroke:#cccccc;stroke-linecap:round;stroke-width:0.8;"/>
     </g>
     <g id="text_17">
      <!-- 200 -->
      <g style="fill:#262626;" transform="translate(219.60731 377.757812)scale(0.1 -0.1)">
       <use xlink:href="#ArialMT-50"/>
       <use x="55.615234" xlink:href="#ArialMT-48"/>
       <use x="111.230469" xlink:href="#ArialMT-48"/>
      </g>
     </g>
    </g>
    <g id="xtick_11">
     <g id="line2d_16">
      <path clip-path="url(#p0905214586)" d="M 297.43813 363.6 
L 297.43813 215.345455 
" style="fill:none;stroke:#cccccc;stroke-linecap:round;stroke-width:0.8;"/>
     </g>
     <g id="text_18">
      <!-- 300 -->
      <g style="fill:#262626;" transform="translate(289.096724 377.757812)scale(0.1 -0.1)">
       <defs>
        <path d="M 4.203125 18.890625 
L 12.984375 20.0625 
Q 14.5 12.59375 18.140625 9.296875 
Q 21.78125 6 27 6 
Q 33.203125 6 37.46875 10.296875 
Q 41.75 14.59375 41.75 20.953125 
Q 41.75 27 37.796875 30.921875 
Q 33.84375 34.859375 27.734375 34.859375 
Q 25.25 34.859375 21.53125 33.890625 
L 22.515625 41.609375 
Q 23.390625 41.5 23.921875 41.5 
Q 29.546875 41.5 34.03125 44.421875 
Q 38.53125 47.359375 38.53125 53.46875 
Q 38.53125 58.296875 35.25 61.46875 
Q 31.984375 64.65625 26.8125 64.65625 
Q 21.6875 64.65625 18.265625 61.421875 
Q 14.84375 58.203125 13.875 51.765625 
L 5.078125 53.328125 
Q 6.6875 62.15625 12.390625 67.015625 
Q 18.109375 71.875 26.609375 71.875 
Q 32.46875 71.875 37.390625 69.359375 
Q 42.328125 66.84375 44.9375 62.5 
Q 47.5625 58.15625 47.5625 53.265625 
Q 47.5625 48.640625 45.0625 44.828125 
Q 42.578125 41.015625 37.703125 38.765625 
Q 44.046875 37.3125 47.5625 32.6875 
Q 51.078125 28.078125 51.078125 21.140625 
Q 51.078125 11.765625 44.234375 5.25 
Q 37.40625 -1.265625 26.953125 -1.265625 
Q 17.53125 -1.265625 11.296875 4.34375 
Q 5.078125 9.96875 4.203125 18.890625 
z
" id="ArialMT-51"/>
       </defs>
       <use xlink:href="#ArialMT-51"/>
       <use x="55.615234" xlink:href="#ArialMT-48"/>
       <use x="111.230469" xlink:href="#ArialMT-48"/>
      </g>
     </g>
    </g>
    <g id="xtick_12">
     <g id="line2d_17">
      <path clip-path="url(#p0905214586)" d="M 366.927545 363.6 
L 366.927545 215.345455 
" style="fill:none;stroke:#cccccc;stroke-linecap:round;stroke-width:0.8;"/>
     </g>
     <g id="text_19">
      <!-- 400 -->
      <g style="fill:#262626;" transform="translate(358.586139 377.757812)scale(0.1 -0.1)">
       <use xlink:href="#ArialMT-52"/>
       <use x="55.615234" xlink:href="#ArialMT-48"/>
       <use x="111.230469" xlink:href="#ArialMT-48"/>
      </g>
     </g>
    </g>
    <g id="xtick_13">
     <g id="line2d_18">
      <path clip-path="url(#p0905214586)" d="M 436.41696 363.6 
L 436.41696 215.345455 
" style="fill:none;stroke:#cccccc;stroke-linecap:round;stroke-width:0.8;"/>
     </g>
     <g id="text_20">
      <!-- 500 -->
      <g style="fill:#262626;" transform="translate(428.075554 377.757812)scale(0.1 -0.1)">
       <use xlink:href="#ArialMT-53"/>
       <use x="55.615234" xlink:href="#ArialMT-48"/>
       <use x="111.230469" xlink:href="#ArialMT-48"/>
      </g>
     </g>
    </g>
    <g id="xtick_14">
     <g id="line2d_19">
      <path clip-path="url(#p0905214586)" d="M 505.906375 363.6 
L 505.906375 215.345455 
" style="fill:none;stroke:#cccccc;stroke-linecap:round;stroke-width:0.8;"/>
     </g>
     <g id="text_21">
      <!-- 600 -->
      <g style="fill:#262626;" transform="translate(497.564968 377.757812)scale(0.1 -0.1)">
       <use xlink:href="#ArialMT-54"/>
       <use x="55.615234" xlink:href="#ArialMT-48"/>
       <use x="111.230469" xlink:href="#ArialMT-48"/>
      </g>
     </g>
    </g>
    <g id="xtick_15">
     <g id="line2d_20">
      <path clip-path="url(#p0905214586)" d="M 575.395789 363.6 
L 575.395789 215.345455 
" style="fill:none;stroke:#cccccc;stroke-linecap:round;stroke-width:0.8;"/>
     </g>
     <g id="text_22">
      <!-- 700 -->
      <g style="fill:#262626;" transform="translate(567.054383 377.757812)scale(0.1 -0.1)">
       <defs>
        <path d="M 4.734375 62.203125 
L 4.734375 70.65625 
L 51.078125 70.65625 
L 51.078125 63.8125 
Q 44.234375 56.546875 37.515625 44.484375 
Q 30.8125 32.421875 27.15625 19.671875 
Q 24.515625 10.6875 23.78125 0 
L 14.75 0 
Q 14.890625 8.453125 18.0625 20.40625 
Q 21.234375 32.375 27.171875 43.484375 
Q 33.109375 54.59375 39.796875 62.203125 
z
" id="ArialMT-55"/>
       </defs>
       <use xlink:href="#ArialMT-55"/>
       <use x="55.615234" xlink:href="#ArialMT-48"/>
       <use x="111.230469" xlink:href="#ArialMT-48"/>
      </g>
     </g>
    </g>
    <g id="text_23">
     <!-- days_since_2011 -->
     <g style="fill:#262626;" transform="translate(304.059375 390.932812)scale(0.1 -0.1)">
      <defs>
       <path d="M 40.234375 0 
L 40.234375 6.546875 
Q 35.296875 -1.171875 25.734375 -1.171875 
Q 19.53125 -1.171875 14.328125 2.25 
Q 9.125 5.671875 6.265625 11.796875 
Q 3.421875 17.921875 3.421875 25.875 
Q 3.421875 33.640625 6 39.96875 
Q 8.59375 46.296875 13.765625 49.65625 
Q 18.953125 53.03125 25.34375 53.03125 
Q 30.03125 53.03125 33.6875 51.046875 
Q 37.359375 49.078125 39.65625 45.90625 
L 39.65625 71.578125 
L 48.390625 71.578125 
L 48.390625 0 
z
M 12.453125 25.875 
Q 12.453125 15.921875 16.640625 10.984375 
Q 20.84375 6.0625 26.5625 6.0625 
Q 32.328125 6.0625 36.34375 10.765625 
Q 40.375 15.484375 40.375 25.140625 
Q 40.375 35.796875 36.265625 40.765625 
Q 32.171875 45.75 26.171875 45.75 
Q 20.3125 45.75 16.375 40.96875 
Q 12.453125 36.1875 12.453125 25.875 
z
" id="ArialMT-100"/>
       <path d="M 40.4375 6.390625 
Q 35.546875 2.25 31.03125 0.53125 
Q 26.515625 -1.171875 21.34375 -1.171875 
Q 12.796875 -1.171875 8.203125 3 
Q 3.609375 7.171875 3.609375 13.671875 
Q 3.609375 17.484375 5.34375 20.625 
Q 7.078125 23.78125 9.890625 25.6875 
Q 12.703125 27.59375 16.21875 28.5625 
Q 18.796875 29.25 24.03125 29.890625 
Q 34.671875 31.15625 39.703125 32.90625 
Q 39.75 34.71875 39.75 35.203125 
Q 39.75 40.578125 37.25 42.78125 
Q 33.890625 45.75 27.25 45.75 
Q 21.046875 45.75 18.09375 43.578125 
Q 15.140625 41.40625 13.71875 35.890625 
L 5.125 37.0625 
Q 6.296875 42.578125 8.984375 45.96875 
Q 11.671875 49.359375 16.75 51.1875 
Q 21.828125 53.03125 28.515625 53.03125 
Q 35.15625 53.03125 39.296875 51.46875 
Q 43.453125 49.90625 45.40625 47.53125 
Q 47.359375 45.171875 48.140625 41.546875 
Q 48.578125 39.3125 48.578125 33.453125 
L 48.578125 21.734375 
Q 48.578125 9.46875 49.140625 6.21875 
Q 49.703125 2.984375 51.375 0 
L 42.1875 0 
Q 40.828125 2.734375 40.4375 6.390625 
z
M 39.703125 26.03125 
Q 34.90625 24.078125 25.34375 22.703125 
Q 19.921875 21.921875 17.671875 20.9375 
Q 15.4375 19.96875 14.203125 18.09375 
Q 12.984375 16.21875 12.984375 13.921875 
Q 12.984375 10.40625 15.640625 8.0625 
Q 18.3125 5.71875 23.4375 5.71875 
Q 28.515625 5.71875 32.46875 7.9375 
Q 36.421875 10.15625 38.28125 14.015625 
Q 39.703125 17 39.703125 22.796875 
z
" id="ArialMT-97"/>
       <path d="M -1.515625 -19.875 
L -1.515625 -13.53125 
L 56.734375 -13.53125 
L 56.734375 -19.875 
z
" id="ArialMT-95"/>
      </defs>
      <use xlink:href="#ArialMT-100"/>
      <use x="55.615234" xlink:href="#ArialMT-97"/>
      <use x="111.230469" xlink:href="#ArialMT-121"/>
      <use x="161.230469" xlink:href="#ArialMT-115"/>
      <use x="211.230469" xlink:href="#ArialMT-95"/>
      <use x="266.845703" xlink:href="#ArialMT-115"/>
      <use x="316.845703" xlink:href="#ArialMT-105"/>
      <use x="339.0625" xlink:href="#ArialMT-110"/>
      <use x="394.677734" xlink:href="#ArialMT-99"/>
      <use x="444.677734" xlink:href="#ArialMT-101"/>
      <use x="500.292969" xlink:href="#ArialMT-95"/>
      <use x="555.908203" xlink:href="#ArialMT-50"/>
      <use x="611.523438" xlink:href="#ArialMT-48"/>
      <use x="667.138672" xlink:href="#ArialMT-49"/>
      <use x="715.378906" xlink:href="#ArialMT-49"/>
     </g>
    </g>
   </g>
   <g id="matplotlib.axis_4">
    <g id="ytick_6">
     <g id="line2d_21">
      <path clip-path="url(#p0905214586)" d="M 63.60625 357.202286 
L 621.60625 357.202286 
" style="fill:none;stroke:#cccccc;stroke-linecap:round;stroke-width:0.8;"/>
     </g>
     <g id="text_24">
      <!-- 0 -->
      <g style="fill:#262626;" transform="translate(51.045313 360.781192)scale(0.1 -0.1)">
       <use xlink:href="#ArialMT-48"/>
      </g>
     </g>
    </g>
    <g id="ytick_7">
     <g id="line2d_22">
      <path clip-path="url(#p0905214586)" d="M 63.60625 326.190583 
L 621.60625 326.190583 
" style="fill:none;stroke:#cccccc;stroke-linecap:round;stroke-width:0.8;"/>
     </g>
     <g id="text_25">
      <!-- 2000 -->
      <g style="fill:#262626;" transform="translate(34.3625 329.769489)scale(0.1 -0.1)">
       <use xlink:href="#ArialMT-50"/>
       <use x="55.615234" xlink:href="#ArialMT-48"/>
       <use x="111.230469" xlink:href="#ArialMT-48"/>
       <use x="166.845703" xlink:href="#ArialMT-48"/>
      </g>
     </g>
    </g>
    <g id="ytick_8">
     <g id="line2d_23">
      <path clip-path="url(#p0905214586)" d="M 63.60625 295.178881 
L 621.60625 295.178881 
" style="fill:none;stroke:#cccccc;stroke-linecap:round;stroke-width:0.8;"/>
     </g>
     <g id="text_26">
      <!-- 4000 -->
      <g style="fill:#262626;" transform="translate(34.3625 298.757787)scale(0.1 -0.1)">
       <use xlink:href="#ArialMT-52"/>
       <use x="55.615234" xlink:href="#ArialMT-48"/>
       <use x="111.230469" xlink:href="#ArialMT-48"/>
       <use x="166.845703" xlink:href="#ArialMT-48"/>
      </g>
     </g>
    </g>
    <g id="ytick_9">
     <g id="line2d_24">
      <path clip-path="url(#p0905214586)" d="M 63.60625 264.167178 
L 621.60625 264.167178 
" style="fill:none;stroke:#cccccc;stroke-linecap:round;stroke-width:0.8;"/>
     </g>
     <g id="text_27">
      <!-- 6000 -->
      <g style="fill:#262626;" transform="translate(34.3625 267.746084)scale(0.1 -0.1)">
       <use xlink:href="#ArialMT-54"/>
       <use x="55.615234" xlink:href="#ArialMT-48"/>
       <use x="111.230469" xlink:href="#ArialMT-48"/>
       <use x="166.845703" xlink:href="#ArialMT-48"/>
      </g>
     </g>
    </g>
    <g id="ytick_10">
     <g id="line2d_25">
      <path clip-path="url(#p0905214586)" d="M 63.60625 233.155475 
L 621.60625 233.155475 
" style="fill:none;stroke:#cccccc;stroke-linecap:round;stroke-width:0.8;"/>
     </g>
     <g id="text_28">
      <!-- 8000 -->
      <g style="fill:#262626;" transform="translate(34.3625 236.734382)scale(0.1 -0.1)">
       <use xlink:href="#ArialMT-56"/>
       <use x="55.615234" xlink:href="#ArialMT-48"/>
       <use x="111.230469" xlink:href="#ArialMT-48"/>
       <use x="166.845703" xlink:href="#ArialMT-48"/>
      </g>
     </g>
    </g>
    <g id="text_29">
     <!-- cnt -->
     <g style="fill:#262626;" transform="translate(28.375 296.142259)rotate(-90)scale(0.1 -0.1)">
      <use xlink:href="#ArialMT-99"/>
      <use x="50" xlink:href="#ArialMT-110"/>
      <use x="105.615234" xlink:href="#ArialMT-116"/>
     </g>
    </g>
   </g>
   <g id="line2d_26">
    <path clip-path="url(#p0905214586)" d="M 88.969886 341.929022 
L 89.664781 344.782099 
L 90.359675 336.284892 
L 91.054569 332.982146 
L 91.749463 332.392924 
L 92.444357 332.299889 
L 93.139251 333.78845 
L 93.834145 342.332174 
L 94.52904 344.456476 
L 95.223934 336.719056 
L 95.918828 337.618396 
L 96.613722 339.184487 
L 97.308616 335.401059 
L 98.00351 335.168471 
L 98.698404 337.850983 
L 99.393299 338.533241 
L 100.088193 341.696434 
L 100.783087 346.611789 
L 101.477981 331.617631 
L 102.172875 327.32251 
L 102.867769 333.276757 
L 103.562663 341.991046 
L 104.257558 341.913516 
L 104.952452 335.246 
L 105.647346 326.423171 
L 106.34224 349.356325 
L 107.037134 350.519264 
L 107.732028 339.106957 
L 108.426922 340.176861 
L 109.121817 340.207873 
L 109.816711 333.928003 
L 110.511605 336.114328 
L 111.206499 333.540357 
L 111.901393 333.168216 
L 112.596287 330.718292 
L 113.291182 341.618905 
L 113.986076 332.036289 
L 114.68097 330.656268 
L 115.375864 333.478333 
L 116.070758 332.315394 
L 116.765652 333.354286 
L 117.460546 330.129069 
L 118.155441 334.377673 
L 118.850335 332.563488 
L 119.545229 327.539592 
L 120.240123 329.059166 
L 120.935017 324.40741 
L 121.629911 318.825304 
L 122.324805 311.816659 
L 123.0197 331.850219 
L 123.714594 329.105683 
L 124.409488 340.037308 
L 125.104382 334.718801 
L 125.799276 327.477569 
L 126.49417 329.183212 
L 127.189064 334.548237 
L 128.578853 319.957231 
L 129.273747 334.780825 
L 129.968641 328.500955 
L 130.663535 324.112799 
L 131.358429 331.074926 
L 132.053323 327.058911 
L 132.748218 324.996633 
L 133.443112 347.821246 
L 134.138006 328.175332 
L 134.8329 324.128305 
L 135.527794 327.880721 
L 136.222688 347.54214 
L 136.917583 326.547218 
L 137.612477 324.143811 
L 138.307371 319.724643 
L 139.002265 325.477314 
L 139.697159 325.322255 
L 140.392053 323.21346 
L 141.781842 306.978833 
L 142.476736 308.870547 
L 143.17163 318.887327 
L 143.866524 324.996633 
L 144.561418 315.28997 
L 145.256312 324.314375 
L 145.951206 328.283873 
L 146.646101 322.934354 
L 147.340995 318.499681 
L 148.035889 330.95088 
L 148.730783 325.756419 
L 149.425677 319.600596 
L 150.120571 333.385298 
L 150.815465 331.074926 
L 151.51036 322.670755 
L 152.205254 322.283109 
L 152.900148 306.823775 
L 153.595042 308.901559 
L 154.289936 329.369283 
L 154.98483 313.661855 
L 155.679724 308.498407 
L 156.374619 334.393178 
L 157.069513 319.135421 
L 158.459301 305.288696 
L 159.154195 325.663384 
L 159.849089 323.678635 
L 160.543983 306.54467 
L 161.238878 308.730995 
L 161.933772 344.875134 
L 162.628666 299.148378 
L 163.32356 304.032722 
L 164.018454 307.521538 
L 164.713348 296.047208 
L 165.408243 292.248275 
L 166.103137 331.105938 
L 166.798031 294.62067 
L 167.492925 292.217263 
L 168.187819 294.046953 
L 168.882713 288.97654 
L 169.577607 297.16363 
L 170.272502 294.279541 
L 170.967396 285.952899 
L 171.66229 274.835204 
L 172.357184 305.242178 
L 173.052078 288.961034 
L 173.746972 288.185742 
L 174.441866 316.375379 
L 175.136761 288.464847 
L 175.831655 285.751323 
L 176.526549 284.107703 
L 177.221443 290.015432 
L 177.916337 289.565762 
L 178.611231 282.727682 
L 179.306125 292.356816 
L 180.00102 281.781825 
L 181.390808 304.342839 
L 182.085702 286.604145 
L 182.780596 295.830126 
L 183.47549 293.271661 
L 184.170384 297.427229 
L 184.865279 286.263016 
L 185.560173 280.960015 
L 186.255067 267.190819 
L 186.949961 284.945019 
L 187.644855 290.930277 
L 188.339749 287.550002 
L 189.034644 280.014158 
L 189.729538 284.681419 
L 190.424432 284.650408 
L 191.119326 283.425445 
L 191.81422 282.96027 
L 192.509114 293.659307 
L 193.204008 295.457986 
L 193.898903 295.582033 
L 194.593797 280.169216 
L 195.288691 274.835204 
L 195.983585 274.370028 
L 196.678479 281.130579 
L 197.373373 286.681674 
L 198.068267 282.262506 
L 199.458056 296.496878 
L 200.15295 286.092452 
L 200.847844 280.200228 
L 201.542738 288.046189 
L 202.237632 279.362912 
L 202.932526 281.363167 
L 203.627421 276.881976 
L 204.322315 298.791744 
L 205.017209 282.091942 
L 205.712103 277.827833 
L 206.406997 283.642527 
L 207.101891 295.023822 
L 207.796785 282.231495 
L 208.49168 287.317414 
L 209.186574 282.929258 
L 210.576362 276.540847 
L 211.271256 274.943745 
L 211.96615 284.200738 
L 212.661045 285.131089 
L 213.355939 276.184213 
L 214.050833 271.687516 
L 214.745727 274.059911 
L 215.440621 277.827833 
L 216.135515 285.115583 
L 216.830409 263.500426 
L 217.525304 284.867489 
L 218.915092 285.999417 
L 219.609986 294.558646 
L 220.30488 274.463063 
L 220.999774 281.518226 
L 221.694668 293.845377 
L 222.389563 291.178371 
L 223.084457 289.875879 
L 223.779351 278.370538 
L 225.169139 265.361129 
L 225.864033 274.990262 
L 226.558927 288.077201 
L 227.253822 286.790215 
L 227.948716 290.030938 
L 228.64361 298.528144 
L 229.338504 304.683967 
L 230.033398 306.265564 
L 230.728292 301.288186 
L 231.423186 297.659817 
L 232.118081 286.030428 
L 232.812975 285.007042 
L 233.507869 289.131599 
L 234.202763 297.566782 
L 234.897657 287.813601 
L 235.592551 290.496113 
L 236.287446 291.054324 
L 236.98234 282.076436 
L 237.677234 301.784373 
L 238.372128 286.24751 
L 239.067022 281.750813 
L 240.45681 298.512639 
L 241.151705 290.123973 
L 241.846599 285.844358 
L 242.541493 283.084317 
L 243.236387 282.898246 
L 243.931281 281.146085 
L 244.626175 292.853003 
L 245.321069 297.969934 
L 246.015964 289.937903 
L 246.710858 283.937138 
L 247.405752 284.41782 
L 248.100646 298.202522 
L 248.79554 292.806485 
L 249.490434 276.711412 
L 250.185328 297.148124 
L 250.880223 283.425445 
L 251.575117 265.795292 
L 252.270011 277.657269 
L 252.964905 302.28056 
L 253.659799 284.929513 
L 254.354693 339.913262 
L 255.049587 289.999926 
L 255.744482 285.348171 
L 256.439376 276.509836 
L 257.13427 278.77369 
L 257.829164 277.889856 
L 258.524058 283.906127 
L 259.218952 287.674049 
L 259.913847 280.60338 
L 260.608741 305.242178 
L 261.998529 326.252607 
L 262.693423 328.640508 
L 264.083211 274.323511 
L 265.473 284.123209 
L 266.167894 283.347916 
L 266.862788 283.006787 
L 267.557682 300.466376 
L 268.252576 283.394434 
L 269.642365 290.930277 
L 270.337259 286.821227 
L 271.032153 300.745481 
L 271.727047 289.720821 
L 272.421941 282.851729 
L 273.116835 320.065772 
L 273.811729 273.114054 
L 275.896412 293.318178 
L 276.591306 296.620925 
L 277.2862 282.169471 
L 277.981094 276.540847 
L 278.675988 319.538573 
L 279.370883 311.956212 
L 280.065777 301.846397 
L 280.760671 288.108212 
L 281.455565 282.371047 
L 282.150459 283.316904 
L 282.845353 279.905617 
L 283.540248 273.331136 
L 284.235142 271.749539 
L 284.930036 277.858845 
L 285.62493 286.449086 
L 286.319824 319.740149 
L 287.014718 312.033741 
L 287.709612 300.698964 
L 288.404507 276.30826 
L 289.099401 279.037289 
L 289.794295 286.340545 
L 290.489189 283.580504 
L 291.184083 319.616102 
L 291.878977 292.15524 
L 292.573871 290.465102 
L 293.268766 290.403078 
L 293.96366 289.271151 
L 294.658554 292.279286 
L 295.353448 284.526361 
L 296.048342 296.822501 
L 296.743236 315.972227 
L 297.43813 299.101861 
L 298.133025 347.480117 
L 298.827919 305.552295 
L 299.522813 300.311317 
L 300.217707 294.124483 
L 300.912601 292.294792 
L 301.607495 295.582033 
L 302.302389 294.465611 
L 302.997284 296.326314 
L 303.692178 300.621434 
L 304.387072 294.636176 
L 305.081966 292.000181 
L 305.77686 293.488743 
L 306.471754 311.723624 
L 307.166649 304.978579 
L 307.861543 294.139989 
L 308.556437 299.567036 
L 309.251331 287.643037 
L 309.946225 292.15524 
L 310.641119 329.028154 
L 311.336013 309.862922 
L 312.030908 304.606438 
L 312.725802 300.404352 
L 313.420696 302.621689 
L 314.11559 314.328607 
L 314.810484 332.284383 
L 315.505378 317.414271 
L 316.200272 334.021038 
L 316.895167 313.909949 
L 317.590061 309.630334 
L 318.284955 309.583816 
L 318.979849 297.241159 
L 319.674743 312.018235 
L 320.369637 301.179645 
L 321.064531 299.411978 
L 321.759426 296.109232 
L 322.45432 301.164139 
L 323.149214 303.164394 
L 323.844108 298.109486 
L 324.539002 316.980107 
L 325.233896 346.270661 
L 325.92879 305.691848 
L 326.623685 301.071104 
L 328.013473 314.669736 
L 328.708367 305.877918 
L 330.098155 299.210402 
L 330.79305 299.691083 
L 331.487944 301.737856 
L 332.182838 314.731759 
L 332.877732 319.507561 
L 333.572626 304.435874 
L 334.26752 299.055343 
L 334.962414 315.956721 
L 335.657309 309.630334 
L 336.352203 322.94986 
L 337.047097 341.52587 
L 337.741991 345.510874 
L 338.436885 336.78108 
L 339.131779 339.184487 
L 339.826673 321.507816 
L 340.521568 319.631608 
L 341.216462 310.700238 
L 341.911356 318.670245 
L 342.60625 321.631863 
L 343.301144 326.95037 
L 343.996038 322.531202 
L 344.690932 320.48443 
L 346.080721 293.659307 
L 346.775615 287.100332 
L 348.165403 320.360383 
L 348.860297 301.412233 
L 349.555191 323.446047 
L 350.250086 293.674813 
L 350.94498 307.36648 
L 351.639874 318.546198 
L 352.334768 321.368263 
L 353.029662 321.569839 
L 353.724556 311.692612 
L 354.41945 304.854532 
L 355.114345 306.157023 
L 355.809239 308.157278 
L 356.504133 337.029173 
L 357.199027 326.547218 
L 357.893921 319.492055 
L 358.588815 289.922397 
L 359.28371 290.992301 
L 359.978604 294.015942 
L 360.673498 303.614064 
L 361.368392 294.822246 
L 362.063286 306.91681 
L 362.75818 301.009081 
L 363.453074 287.286402 
L 364.147969 286.200993 
L 364.842863 298.884779 
L 365.537757 292.837497 
L 366.232651 313.289715 
L 366.927545 311.506542 
L 367.622439 298.528144 
L 368.317333 289.364186 
L 369.012228 313.75489 
L 369.707122 297.814875 
L 370.402016 297.799369 
L 371.09691 323.570094 
L 371.791804 333.493839 
L 372.486698 304.141263 
L 373.181592 296.388337 
L 373.876487 292.558392 
L 374.571381 310.607203 
L 375.266275 292.790979 
L 375.961169 290.24802 
L 376.656063 315.507052 
L 377.350957 308.684477 
L 378.045851 298.636685 
L 378.740746 283.192857 
L 379.43564 278.711666 
L 380.130534 303.133382 
L 380.825428 314.8403 
L 381.520322 304.652956 
L 382.215216 290.185996 
L 382.910111 289.550257 
L 383.605005 328.764554 
L 384.299899 279.828088 
L 384.994793 307.676597 
L 385.689687 294.155494 
L 386.384581 304.125757 
L 387.079475 305.521283 
L 387.77437 295.861138 
L 388.469264 280.975521 
L 389.164158 273.749794 
L 389.859052 286.356051 
L 390.553946 293.34919 
L 391.24884 281.05305 
L 391.943734 275.052286 
L 393.333523 259.329352 
L 394.028417 261.190055 
L 394.723311 289.317669 
L 395.418205 235.698435 
L 396.113099 265.84181 
L 396.807993 261.794783 
L 397.502888 262.725134 
L 398.197782 260.600832 
L 398.892676 250.661581 
L 399.58757 227.542357 
L 400.282464 304.916555 
L 400.977358 279.735053 
L 401.672252 271.020764 
L 402.367147 278.091432 
L 403.062041 268.849945 
L 403.756935 262.1049 
L 404.451829 272.555844 
L 405.146723 260.523303 
L 405.841617 263.531438 
L 406.536512 265.159552 
L 407.231406 252.196661 
L 407.9263 257.406627 
L 408.621194 257.081004 
L 409.316088 257.034486 
L 410.010982 250.878663 
L 410.705876 277.05254 
L 411.400771 270.602106 
L 412.095665 265.438658 
L 412.790559 281.812837 
L 413.485453 273.331136 
L 414.875241 241.528635 
L 415.570135 246.614554 
L 416.26503 258.430013 
L 416.959924 253.452635 
L 417.654818 289.488233 
L 418.349712 255.406372 
L 419.044606 244.16463 
L 419.7395 254.491527 
L 420.434394 341.277776 
L 421.824183 269.857825 
L 422.519077 261.128031 
L 423.213971 279.269877 
L 423.908865 260.554315 
L 424.603759 291.767593 
L 425.298653 259.453399 
L 425.993548 270.803682 
L 426.688442 268.198699 
L 427.383336 261.546689 
L 428.07823 257.639215 
L 428.773124 259.577446 
L 429.468018 250.475511 
L 430.162913 258.600577 
L 430.857807 259.934081 
L 431.552701 268.38477 
L 432.247595 284.061185 
L 432.942489 255.297831 
L 434.332277 242.009316 
L 435.027172 262.337487 
L 435.722066 313.119151 
L 437.111854 242.086846 
L 437.806748 242.70708 
L 438.501642 238.753088 
L 439.196536 228.596755 
L 439.891431 246.661072 
L 440.586325 289.61228 
L 441.281219 263.035251 
L 441.976113 275.641508 
L 442.671007 252.227672 
L 443.365901 252.785883 
L 444.060795 255.856042 
L 444.75569 255.00322 
L 445.450584 263.500426 
L 446.145478 268.152182 
L 446.840372 250.909675 
L 447.535266 243.420349 
L 448.23016 293.209637 
L 448.925054 231.294773 
L 449.619949 238.722076 
L 450.314843 248.692338 
L 451.009737 248.645821 
L 451.704631 247.808505 
L 452.399525 241.001436 
L 453.094419 237.24902 
L 453.789314 240.939413 
L 454.484208 254.894679 
L 455.179102 253.871293 
L 455.873996 280.107193 
L 456.56889 242.133363 
L 457.263784 243.032703 
L 457.958678 238.349936 
L 458.653573 237.776219 
L 459.348467 249.002455 
L 460.043361 278.13795 
L 460.738255 251.374851 
L 461.433149 260.895443 
L 462.128043 265.640234 
L 462.822937 266.911714 
L 463.517832 241.559647 
L 464.212726 250.351464 
L 464.90762 252.08812 
L 465.602514 241.80774 
L 466.297408 243.466866 
L 466.992302 250.537535 
L 467.687196 272.49382 
L 468.382091 269.020509 
L 469.076985 271.439422 
L 469.771879 260.64735 
L 470.466773 253.933316 
L 471.161667 242.412469 
L 471.856561 260.430268 
L 472.551455 260.957467 
L 473.24635 282.153965 
L 473.941244 284.758948 
L 474.636138 255.344349 
L 475.331032 259.670481 
L 476.025926 244.567782 
L 476.72082 241.745717 
L 477.415715 240.923907 
L 478.110609 249.142008 
L 478.805503 263.686497 
L 479.500397 251.297321 
L 480.195291 251.979579 
L 480.890185 268.617357 
L 481.585079 255.00322 
L 482.279974 266.182939 
L 482.974868 288.061695 
L 483.669762 242.303928 
L 484.364656 249.188526 
L 485.754444 230.472963 
L 486.449338 250.81664 
L 487.144233 250.149888 
L 487.839127 253.54567 
L 488.534021 254.910185 
L 489.228915 247.033212 
L 489.923809 245.312063 
L 490.618703 239.667933 
L 491.313597 244.614299 
L 492.008492 245.947803 
L 492.703386 251.390356 
L 493.39828 272.478314 
L 494.093174 248.459751 
L 495.482962 240.381202 
L 496.177856 244.226653 
L 496.872751 267.48543 
L 497.567645 259.530928 
L 498.262539 255.731995 
L 498.957433 250.475511 
L 499.652327 252.010591 
L 500.347221 243.280796 
L 501.042116 239.280287 
L 501.73701 246.366461 
L 502.431904 235.248765 
L 503.126798 286.666168 
L 503.821692 255.949077 
L 504.516586 248.568292 
L 505.906375 236.79935 
L 506.601269 239.636921 
L 507.296163 263.345368 
L 507.991057 275.719037 
L 508.685951 249.948312 
L 509.380845 248.041093 
L 510.075739 237.853748 
L 510.770634 237.605655 
L 511.465528 243.234279 
L 512.160422 261.996359 
L 512.855316 267.11329 
L 513.55021 263.639979 
L 514.245104 250.770122 
L 514.939998 246.924671 
L 515.634893 261.01949 
L 516.329787 240.846378 
L 517.024681 264.539318 
L 517.719575 229.635647 
L 518.414469 240.520755 
L 519.109363 236.768339 
L 519.804257 235.171236 
L 520.499152 236.194622 
L 521.194046 233.015923 
L 521.88894 222.084298 
L 522.583834 243.497878 
L 523.278728 250.692593 
L 523.973622 294.046953 
L 524.668517 239.497369 
L 525.363411 237.497114 
L 526.058305 230.565998 
L 526.753199 227.030664 
L 528.142987 241.900775 
L 528.837881 240.319179 
L 529.532776 237.295538 
L 530.22767 242.567527 
L 530.922564 242.226398 
L 531.617458 224.549728 
L 532.312352 250.382476 
L 533.007246 252.103626 
L 533.70214 285.270642 
L 534.397035 239.79198 
L 535.091929 243.575407 
L 535.786823 230.736563 
L 536.481717 233.69818 
L 537.176611 302.776748 
L 537.871505 272.261232 
L 538.566399 258.088884 
L 539.261294 237.946783 
L 539.956188 239.822991 
L 540.651082 244.288677 
L 541.345976 246.971189 
L 542.04087 254.258939 
L 542.735764 266.105409 
L 543.430658 240.381202 
L 544.125553 241.513129 
L 544.820447 240.768848 
L 545.515341 273.098548 
L 546.210235 231.759949 
L 546.905129 251.390356 
L 547.600023 247.761987 
L 548.294917 241.4356 
L 548.989812 237.915772 
L 549.684706 243.094726 
L 550.3796 241.776729 
L 551.074494 235.450341 
L 551.769388 288.061695 
L 552.464282 356.861157 
L 553.159177 340.207873 
L 553.854071 270.896717 
L 554.548965 264.38426 
L 555.243859 266.539573 
L 555.938753 277.533222 
L 556.633647 278.013903 
L 557.328541 275.657014 
L 558.023436 269.036015 
L 558.71833 279.130324 
L 559.413224 274.788686 
L 560.108118 264.291225 
L 560.803012 255.856042 
L 561.497906 250.956193 
L 562.1928 259.996104 
L 562.887695 293.721331 
L 563.582589 271.997633 
L 564.277483 272.772925 
L 564.972377 268.849945 
L 565.667271 269.919849 
L 566.362165 284.805466 
L 567.057059 271.935609 
L 567.751954 269.84232 
L 568.446848 277.409175 
L 569.141742 319.600596 
L 569.836636 296.574407 
L 570.53153 321.895462 
L 571.226424 319.616102 
L 571.921318 278.32402 
L 572.616213 295.81462 
L 573.311107 275.641508 
L 574.006001 274.664639 
L 574.700895 269.315121 
L 576.090683 285.115583 
L 576.785578 260.538809 
L 577.480472 254.770632 
L 578.175366 268.369264 
L 579.565154 279.548982 
L 580.260048 270.648624 
L 580.954942 307.149398 
L 581.649837 277.037035 
L 582.344731 271.904598 
L 583.039625 274.726663 
L 583.734519 271.423916 
L 584.429413 270.198954 
L 585.124307 278.944254 
L 585.819201 298.497133 
L 586.514096 286.107958 
L 587.20899 271.03627 
L 587.903884 275.532967 
L 588.598778 293.194132 
L 589.293672 301.024586 
L 589.988566 330.082552 
L 590.68346 329.493329 
L 591.378355 342.936903 
L 592.073249 341.494858 
L 592.768143 350.364205 
L 593.463037 324.422916 
L 594.157931 309.211676 
L 594.852825 336.408939 
L 595.547719 329.353777 
L 596.242614 314.886818 
L 596.242614 314.886818 
" style="fill:none;stroke:#000000;stroke-linecap:round;stroke-width:1.5;"/>
   </g>
   <g id="patch_8">
    <path d="M 63.60625 363.6 
L 63.60625 215.345455 
" style="fill:none;stroke:#ffffff;stroke-linecap:square;stroke-linejoin:miter;stroke-width:0.8;"/>
   </g>
   <g id="patch_9">
    <path d="M 621.60625 363.6 
L 621.60625 215.345455 
" style="fill:none;stroke:#ffffff;stroke-linecap:square;stroke-linejoin:miter;stroke-width:0.8;"/>
   </g>
   <g id="patch_10">
    <path d="M 63.60625 363.6 
L 621.60625 363.6 
" style="fill:none;stroke:#ffffff;stroke-linecap:square;stroke-linejoin:miter;stroke-width:0.8;"/>
   </g>
   <g id="patch_11">
    <path d="M 63.60625 215.345455 
L 621.60625 215.345455 
" style="fill:none;stroke:#ffffff;stroke-linecap:square;stroke-linejoin:miter;stroke-width:0.8;"/>
   </g>
  </g>
  <g id="text_30">
   <!-- cnt: Target Variable -->
   <g style="fill:#262626;" transform="translate(282.465625 15.789375)scale(0.12 -0.12)">
    <defs>
     <path d="M 9.03125 41.84375 
L 9.03125 51.859375 
L 19.046875 51.859375 
L 19.046875 41.84375 
z
M 9.03125 0 
L 9.03125 10.015625 
L 19.046875 10.015625 
L 19.046875 0 
z
" id="ArialMT-58"/>
     <path id="ArialMT-32"/>
     <path d="M 25.921875 0 
L 25.921875 63.140625 
L 2.34375 63.140625 
L 2.34375 71.578125 
L 59.078125 71.578125 
L 59.078125 63.140625 
L 35.40625 63.140625 
L 35.40625 0 
z
" id="ArialMT-84"/>
     <path d="M 6.5 0 
L 6.5 51.859375 
L 14.40625 51.859375 
L 14.40625 44 
Q 17.4375 49.515625 20 51.265625 
Q 22.5625 53.03125 25.640625 53.03125 
Q 30.078125 53.03125 34.671875 50.203125 
L 31.640625 42.046875 
Q 28.421875 43.953125 25.203125 43.953125 
Q 22.3125 43.953125 20.015625 42.21875 
Q 17.71875 40.484375 16.75 37.40625 
Q 15.28125 32.71875 15.28125 27.15625 
L 15.28125 0 
z
" id="ArialMT-114"/>
     <path d="M 4.984375 -4.296875 
L 13.53125 -5.5625 
Q 14.0625 -9.515625 16.5 -11.328125 
Q 19.78125 -13.765625 25.4375 -13.765625 
Q 31.546875 -13.765625 34.859375 -11.328125 
Q 38.1875 -8.890625 39.359375 -4.5 
Q 40.046875 -1.8125 39.984375 6.78125 
Q 34.234375 0 25.640625 0 
Q 14.9375 0 9.078125 7.71875 
Q 3.21875 15.4375 3.21875 26.21875 
Q 3.21875 33.640625 5.90625 39.90625 
Q 8.59375 46.1875 13.6875 49.609375 
Q 18.796875 53.03125 25.6875 53.03125 
Q 34.859375 53.03125 40.828125 45.609375 
L 40.828125 51.859375 
L 48.921875 51.859375 
L 48.921875 7.03125 
Q 48.921875 -5.078125 46.453125 -10.125 
Q 44 -15.1875 38.640625 -18.109375 
Q 33.296875 -21.046875 25.484375 -21.046875 
Q 16.21875 -21.046875 10.5 -16.875 
Q 4.78125 -12.703125 4.984375 -4.296875 
z
M 12.25 26.859375 
Q 12.25 16.65625 16.296875 11.96875 
Q 20.359375 7.28125 26.46875 7.28125 
Q 32.515625 7.28125 36.609375 11.9375 
Q 40.71875 16.609375 40.71875 26.5625 
Q 40.71875 36.078125 36.5 40.90625 
Q 32.28125 45.75 26.3125 45.75 
Q 20.453125 45.75 16.34375 40.984375 
Q 12.25 36.234375 12.25 26.859375 
z
" id="ArialMT-103"/>
     <path d="M 28.171875 0 
L 0.4375 71.578125 
L 10.6875 71.578125 
L 29.296875 19.578125 
Q 31.546875 13.328125 33.0625 7.859375 
Q 34.71875 13.71875 36.921875 19.578125 
L 56.25 71.578125 
L 65.921875 71.578125 
L 37.890625 0 
z
" id="ArialMT-86"/>
     <path d="M 14.703125 0 
L 6.546875 0 
L 6.546875 71.578125 
L 15.328125 71.578125 
L 15.328125 46.046875 
Q 20.90625 53.03125 29.546875 53.03125 
Q 34.328125 53.03125 38.59375 51.09375 
Q 42.875 49.171875 45.625 45.671875 
Q 48.390625 42.1875 49.953125 37.25 
Q 51.515625 32.328125 51.515625 26.703125 
Q 51.515625 13.375 44.921875 6.09375 
Q 38.328125 -1.171875 29.109375 -1.171875 
Q 19.921875 -1.171875 14.703125 6.5 
z
M 14.59375 26.3125 
Q 14.59375 17 17.140625 12.84375 
Q 21.296875 6.0625 28.375 6.0625 
Q 34.125 6.0625 38.328125 11.0625 
Q 42.53125 16.0625 42.53125 25.984375 
Q 42.53125 36.140625 38.5 40.96875 
Q 34.46875 45.796875 28.765625 45.796875 
Q 23 45.796875 18.796875 40.796875 
Q 14.59375 35.796875 14.59375 26.3125 
z
" id="ArialMT-98"/>
     <path d="M 6.390625 0 
L 6.390625 71.578125 
L 15.1875 71.578125 
L 15.1875 0 
z
" id="ArialMT-108"/>
    </defs>
    <use xlink:href="#ArialMT-99"/>
    <use x="50" xlink:href="#ArialMT-110"/>
    <use x="105.615234" xlink:href="#ArialMT-116"/>
    <use x="133.398438" xlink:href="#ArialMT-58"/>
    <use x="161.181641" xlink:href="#ArialMT-32"/>
    <use x="187.214844" xlink:href="#ArialMT-84"/>
    <use x="237.173828" xlink:href="#ArialMT-97"/>
    <use x="292.789062" xlink:href="#ArialMT-114"/>
    <use x="326.089844" xlink:href="#ArialMT-103"/>
    <use x="381.705078" xlink:href="#ArialMT-101"/>
    <use x="437.320312" xlink:href="#ArialMT-116"/>
    <use x="465.103516" xlink:href="#ArialMT-32"/>
    <use x="492.886719" xlink:href="#ArialMT-86"/>
    <use x="552.210938" xlink:href="#ArialMT-97"/>
    <use x="607.826172" xlink:href="#ArialMT-114"/>
    <use x="641.126953" xlink:href="#ArialMT-105"/>
    <use x="663.34375" xlink:href="#ArialMT-97"/>
    <use x="718.958984" xlink:href="#ArialMT-98"/>
    <use x="774.574219" xlink:href="#ArialMT-108"/>
    <use x="796.791016" xlink:href="#ArialMT-101"/>
   </g>
  </g>
 </g>
 <defs>
  <clipPath id="pe48ed0d073">
   <rect height="148.254545" width="558" x="63.60625" y="37.44"/>
  </clipPath>
  <clipPath id="p0905214586">
   <rect height="148.254545" width="558" x="63.60625" y="215.345455"/>
  </clipPath>
 </defs>
</svg>
