<?xml version="1.0" encoding="utf-8" standalone="no"?>
<!DOCTYPE svg PUBLIC "-//W3C//DTD SVG 1.1//EN"
  "http://www.w3.org/Graphics/SVG/1.1/DTD/svg11.dtd">
<!-- Created with matplotlib (https://matplotlib.org/) -->
<svg height="439.185312pt" version="1.1" viewBox="0 0 508.744687 439.185312" width="508.744687pt" xmlns="http://www.w3.org/2000/svg" xmlns:xlink="http://www.w3.org/1999/xlink">
 <metadata>
  <rdf:RDF xmlns:cc="http://creativecommons.org/ns#" xmlns:dc="http://purl.org/dc/elements/1.1/" xmlns:rdf="http://www.w3.org/1999/02/22-rdf-syntax-ns#">
   <cc:Work>
    <dc:type rdf:resource="http://purl.org/dc/dcmitype/StillImage"/>
    <dc:date>2021-06-30T17:01:53.251254</dc:date>
    <dc:format>image/svg+xml</dc:format>
    <dc:creator>
     <cc:Agent>
      <dc:title>Matplotlib v3.3.4, https://matplotlib.org/</dc:title>
     </cc:Agent>
    </dc:creator>
   </cc:Work>
  </rdf:RDF>
 </metadata>
 <defs>
  <style type="text/css">*{stroke-linecap:butt;stroke-linejoin:round;}</style>
 </defs>
 <g id="figure_1">
  <g id="patch_1">
   <path d="M 0 439.185312 
L 508.744687 439.185312 
L 508.744687 0 
L 0 0 
z
" style="fill:#ffffff;"/>
  </g>
  <g id="axes_1">
   <g id="patch_2">
    <path d="M 221.526563 402.455625 
L 500.526562 402.455625 
L 500.526562 21.935625 
L 221.526563 21.935625 
z
" style="fill:#e6e6e6;"/>
   </g>
   <g id="matplotlib.axis_1">
    <g id="xtick_1">
     <g id="line2d_1">
      <path clip-path="url(#p8caed0912f)" d="M 221.526563 402.455625 
L 221.526563 21.935625 
" style="fill:none;stroke:#cccccc;stroke-linecap:round;stroke-width:0.8;"/>
     </g>
     <g id="text_1">
      <!-- 0 -->
      <g style="fill:#262626;" transform="translate(218.746094 416.613437)scale(0.1 -0.1)">
       <defs>
        <path d="M 4.15625 35.296875 
Q 4.15625 48 6.765625 55.734375 
Q 9.375 63.484375 14.515625 67.671875 
Q 19.671875 71.875 27.484375 71.875 
Q 33.25 71.875 37.59375 69.546875 
Q 41.9375 67.234375 44.765625 62.859375 
Q 47.609375 58.5 49.21875 52.21875 
Q 50.828125 45.953125 50.828125 35.296875 
Q 50.828125 22.703125 48.234375 14.96875 
Q 45.65625 7.234375 40.5 3 
Q 35.359375 -1.21875 27.484375 -1.21875 
Q 17.140625 -1.21875 11.234375 6.203125 
Q 4.15625 15.140625 4.15625 35.296875 
z
M 13.1875 35.296875 
Q 13.1875 17.671875 17.3125 11.828125 
Q 21.4375 6 27.484375 6 
Q 33.546875 6 37.671875 11.859375 
Q 41.796875 17.71875 41.796875 35.296875 
Q 41.796875 52.984375 37.671875 58.78125 
Q 33.546875 64.59375 27.390625 64.59375 
Q 21.34375 64.59375 17.71875 59.46875 
Q 13.1875 52.9375 13.1875 35.296875 
z
" id="ArialMT-48"/>
       </defs>
       <use xlink:href="#ArialMT-48"/>
      </g>
     </g>
    </g>
    <g id="xtick_2">
     <g id="line2d_2">
      <path clip-path="url(#p8caed0912f)" d="M 268.866572 402.455625 
L 268.866572 21.935625 
" style="fill:none;stroke:#cccccc;stroke-linecap:round;stroke-width:0.8;"/>
     </g>
     <g id="text_2">
      <!-- 100 -->
      <g style="fill:#262626;" transform="translate(260.525166 416.613437)scale(0.1 -0.1)">
       <defs>
        <path d="M 37.25 0 
L 28.46875 0 
L 28.46875 56 
Q 25.296875 52.984375 20.140625 49.953125 
Q 14.984375 46.921875 10.890625 45.40625 
L 10.890625 53.90625 
Q 18.265625 57.375 23.78125 62.296875 
Q 29.296875 67.234375 31.59375 71.875 
L 37.25 71.875 
z
" id="ArialMT-49"/>
       </defs>
       <use xlink:href="#ArialMT-49"/>
       <use x="55.615234" xlink:href="#ArialMT-48"/>
       <use x="111.230469" xlink:href="#ArialMT-48"/>
      </g>
     </g>
    </g>
    <g id="xtick_3">
     <g id="line2d_3">
      <path clip-path="url(#p8caed0912f)" d="M 316.206581 402.455625 
L 316.206581 21.935625 
" style="fill:none;stroke:#cccccc;stroke-linecap:round;stroke-width:0.8;"/>
     </g>
     <g id="text_3">
      <!-- 200 -->
      <g style="fill:#262626;" transform="translate(307.865175 416.613437)scale(0.1 -0.1)">
       <defs>
        <path d="M 50.34375 8.453125 
L 50.34375 0 
L 3.03125 0 
Q 2.9375 3.171875 4.046875 6.109375 
Q 5.859375 10.9375 9.828125 15.625 
Q 13.8125 20.3125 21.34375 26.46875 
Q 33.015625 36.03125 37.109375 41.625 
Q 41.21875 47.21875 41.21875 52.203125 
Q 41.21875 57.421875 37.46875 61 
Q 33.734375 64.59375 27.734375 64.59375 
Q 21.390625 64.59375 17.578125 60.78125 
Q 13.765625 56.984375 13.71875 50.25 
L 4.6875 51.171875 
Q 5.609375 61.28125 11.65625 66.578125 
Q 17.71875 71.875 27.9375 71.875 
Q 38.234375 71.875 44.234375 66.15625 
Q 50.25 60.453125 50.25 52 
Q 50.25 47.703125 48.484375 43.546875 
Q 46.734375 39.40625 42.65625 34.8125 
Q 38.578125 30.21875 29.109375 22.21875 
Q 21.1875 15.578125 18.9375 13.203125 
Q 16.703125 10.84375 15.234375 8.453125 
z
" id="ArialMT-50"/>
       </defs>
       <use xlink:href="#ArialMT-50"/>
       <use x="55.615234" xlink:href="#ArialMT-48"/>
       <use x="111.230469" xlink:href="#ArialMT-48"/>
      </g>
     </g>
    </g>
    <g id="xtick_4">
     <g id="line2d_4">
      <path clip-path="url(#p8caed0912f)" d="M 363.546591 402.455625 
L 363.546591 21.935625 
" style="fill:none;stroke:#cccccc;stroke-linecap:round;stroke-width:0.8;"/>
     </g>
     <g id="text_4">
      <!-- 300 -->
      <g style="fill:#262626;" transform="translate(355.205185 416.613437)scale(0.1 -0.1)">
       <defs>
        <path d="M 4.203125 18.890625 
L 12.984375 20.0625 
Q 14.5 12.59375 18.140625 9.296875 
Q 21.78125 6 27 6 
Q 33.203125 6 37.46875 10.296875 
Q 41.75 14.59375 41.75 20.953125 
Q 41.75 27 37.796875 30.921875 
Q 33.84375 34.859375 27.734375 34.859375 
Q 25.25 34.859375 21.53125 33.890625 
L 22.515625 41.609375 
Q 23.390625 41.5 23.921875 41.5 
Q 29.546875 41.5 34.03125 44.421875 
Q 38.53125 47.359375 38.53125 53.46875 
Q 38.53125 58.296875 35.25 61.46875 
Q 31.984375 64.65625 26.8125 64.65625 
Q 21.6875 64.65625 18.265625 61.421875 
Q 14.84375 58.203125 13.875 51.765625 
L 5.078125 53.328125 
Q 6.6875 62.15625 12.390625 67.015625 
Q 18.109375 71.875 26.609375 71.875 
Q 32.46875 71.875 37.390625 69.359375 
Q 42.328125 66.84375 44.9375 62.5 
Q 47.5625 58.15625 47.5625 53.265625 
Q 47.5625 48.640625 45.0625 44.828125 
Q 42.578125 41.015625 37.703125 38.765625 
Q 44.046875 37.3125 47.5625 32.6875 
Q 51.078125 28.078125 51.078125 21.140625 
Q 51.078125 11.765625 44.234375 5.25 
Q 37.40625 -1.265625 26.953125 -1.265625 
Q 17.53125 -1.265625 11.296875 4.34375 
Q 5.078125 9.96875 4.203125 18.890625 
z
" id="ArialMT-51"/>
       </defs>
       <use xlink:href="#ArialMT-51"/>
       <use x="55.615234" xlink:href="#ArialMT-48"/>
       <use x="111.230469" xlink:href="#ArialMT-48"/>
      </g>
     </g>
    </g>
    <g id="xtick_5">
     <g id="line2d_5">
      <path clip-path="url(#p8caed0912f)" d="M 410.8866 402.455625 
L 410.8866 21.935625 
" style="fill:none;stroke:#cccccc;stroke-linecap:round;stroke-width:0.8;"/>
     </g>
     <g id="text_5">
      <!-- 400 -->
      <g style="fill:#262626;" transform="translate(402.545194 416.613437)scale(0.1 -0.1)">
       <defs>
        <path d="M 32.328125 0 
L 32.328125 17.140625 
L 1.265625 17.140625 
L 1.265625 25.203125 
L 33.9375 71.578125 
L 41.109375 71.578125 
L 41.109375 25.203125 
L 50.78125 25.203125 
L 50.78125 17.140625 
L 41.109375 17.140625 
L 41.109375 0 
z
M 32.328125 25.203125 
L 32.328125 57.46875 
L 9.90625 25.203125 
z
" id="ArialMT-52"/>
       </defs>
       <use xlink:href="#ArialMT-52"/>
       <use x="55.615234" xlink:href="#ArialMT-48"/>
       <use x="111.230469" xlink:href="#ArialMT-48"/>
      </g>
     </g>
    </g>
    <g id="xtick_6">
     <g id="line2d_6">
      <path clip-path="url(#p8caed0912f)" d="M 458.22661 402.455625 
L 458.22661 21.935625 
" style="fill:none;stroke:#cccccc;stroke-linecap:round;stroke-width:0.8;"/>
     </g>
     <g id="text_6">
      <!-- 500 -->
      <g style="fill:#262626;" transform="translate(449.885204 416.613437)scale(0.1 -0.1)">
       <defs>
        <path d="M 4.15625 18.75 
L 13.375 19.53125 
Q 14.40625 12.796875 18.140625 9.390625 
Q 21.875 6 27.15625 6 
Q 33.5 6 37.890625 10.78125 
Q 42.28125 15.578125 42.28125 23.484375 
Q 42.28125 31 38.0625 35.34375 
Q 33.84375 39.703125 27 39.703125 
Q 22.75 39.703125 19.328125 37.765625 
Q 15.921875 35.84375 13.96875 32.765625 
L 5.71875 33.84375 
L 12.640625 70.609375 
L 48.25 70.609375 
L 48.25 62.203125 
L 19.671875 62.203125 
L 15.828125 42.96875 
Q 22.265625 47.46875 29.34375 47.46875 
Q 38.71875 47.46875 45.15625 40.96875 
Q 51.609375 34.46875 51.609375 24.265625 
Q 51.609375 14.546875 45.953125 7.46875 
Q 39.0625 -1.21875 27.15625 -1.21875 
Q 17.390625 -1.21875 11.203125 4.25 
Q 5.03125 9.71875 4.15625 18.75 
z
" id="ArialMT-53"/>
       </defs>
       <use xlink:href="#ArialMT-53"/>
       <use x="55.615234" xlink:href="#ArialMT-48"/>
       <use x="111.230469" xlink:href="#ArialMT-48"/>
      </g>
     </g>
    </g>
    <g id="text_7">
     <!-- weight effect -->
     <g style="fill:#262626;" transform="translate(333.044531 429.880625)scale(0.1 -0.1)">
      <defs>
       <path d="M 16.15625 0 
L 0.296875 51.859375 
L 9.375 51.859375 
L 17.625 21.921875 
L 20.703125 10.796875 
Q 20.90625 11.625 23.390625 21.484375 
L 31.640625 51.859375 
L 40.671875 51.859375 
L 48.4375 21.78125 
L 51.03125 11.859375 
L 54 21.875 
L 62.890625 51.859375 
L 71.4375 51.859375 
L 55.21875 0 
L 46.09375 0 
L 37.84375 31.0625 
L 35.84375 39.890625 
L 25.34375 0 
z
" id="ArialMT-119"/>
       <path d="M 42.09375 16.703125 
L 51.171875 15.578125 
Q 49.03125 7.625 43.21875 3.21875 
Q 37.40625 -1.171875 28.375 -1.171875 
Q 17 -1.171875 10.328125 5.828125 
Q 3.65625 12.84375 3.65625 25.484375 
Q 3.65625 38.578125 10.390625 45.796875 
Q 17.140625 53.03125 27.875 53.03125 
Q 38.28125 53.03125 44.875 45.953125 
Q 51.46875 38.875 51.46875 26.03125 
Q 51.46875 25.25 51.421875 23.6875 
L 12.75 23.6875 
Q 13.234375 15.140625 17.578125 10.59375 
Q 21.921875 6.0625 28.421875 6.0625 
Q 33.25 6.0625 36.671875 8.59375 
Q 40.09375 11.140625 42.09375 16.703125 
z
M 13.234375 30.90625 
L 42.1875 30.90625 
Q 41.609375 37.453125 38.875 40.71875 
Q 34.671875 45.796875 27.984375 45.796875 
Q 21.921875 45.796875 17.796875 41.75 
Q 13.671875 37.703125 13.234375 30.90625 
z
" id="ArialMT-101"/>
       <path d="M 6.640625 61.46875 
L 6.640625 71.578125 
L 15.4375 71.578125 
L 15.4375 61.46875 
z
M 6.640625 0 
L 6.640625 51.859375 
L 15.4375 51.859375 
L 15.4375 0 
z
" id="ArialMT-105"/>
       <path d="M 4.984375 -4.296875 
L 13.53125 -5.5625 
Q 14.0625 -9.515625 16.5 -11.328125 
Q 19.78125 -13.765625 25.4375 -13.765625 
Q 31.546875 -13.765625 34.859375 -11.328125 
Q 38.1875 -8.890625 39.359375 -4.5 
Q 40.046875 -1.8125 39.984375 6.78125 
Q 34.234375 0 25.640625 0 
Q 14.9375 0 9.078125 7.71875 
Q 3.21875 15.4375 3.21875 26.21875 
Q 3.21875 33.640625 5.90625 39.90625 
Q 8.59375 46.1875 13.6875 49.609375 
Q 18.796875 53.03125 25.6875 53.03125 
Q 34.859375 53.03125 40.828125 45.609375 
L 40.828125 51.859375 
L 48.921875 51.859375 
L 48.921875 7.03125 
Q 48.921875 -5.078125 46.453125 -10.125 
Q 44 -15.1875 38.640625 -18.109375 
Q 33.296875 -21.046875 25.484375 -21.046875 
Q 16.21875 -21.046875 10.5 -16.875 
Q 4.78125 -12.703125 4.984375 -4.296875 
z
M 12.25 26.859375 
Q 12.25 16.65625 16.296875 11.96875 
Q 20.359375 7.28125 26.46875 7.28125 
Q 32.515625 7.28125 36.609375 11.9375 
Q 40.71875 16.609375 40.71875 26.5625 
Q 40.71875 36.078125 36.5 40.90625 
Q 32.28125 45.75 26.3125 45.75 
Q 20.453125 45.75 16.34375 40.984375 
Q 12.25 36.234375 12.25 26.859375 
z
" id="ArialMT-103"/>
       <path d="M 6.59375 0 
L 6.59375 71.578125 
L 15.375 71.578125 
L 15.375 45.90625 
Q 21.53125 53.03125 30.90625 53.03125 
Q 36.671875 53.03125 40.921875 50.75 
Q 45.171875 48.484375 47 44.484375 
Q 48.828125 40.484375 48.828125 32.859375 
L 48.828125 0 
L 40.046875 0 
L 40.046875 32.859375 
Q 40.046875 39.453125 37.1875 42.453125 
Q 34.328125 45.453125 29.109375 45.453125 
Q 25.203125 45.453125 21.75 43.421875 
Q 18.3125 41.40625 16.84375 37.9375 
Q 15.375 34.46875 15.375 28.375 
L 15.375 0 
z
" id="ArialMT-104"/>
       <path d="M 25.78125 7.859375 
L 27.046875 0.09375 
Q 23.34375 -0.6875 20.40625 -0.6875 
Q 15.625 -0.6875 12.984375 0.828125 
Q 10.359375 2.34375 9.28125 4.8125 
Q 8.203125 7.28125 8.203125 15.1875 
L 8.203125 45.015625 
L 1.765625 45.015625 
L 1.765625 51.859375 
L 8.203125 51.859375 
L 8.203125 64.703125 
L 16.9375 69.96875 
L 16.9375 51.859375 
L 25.78125 51.859375 
L 25.78125 45.015625 
L 16.9375 45.015625 
L 16.9375 14.703125 
Q 16.9375 10.9375 17.40625 9.859375 
Q 17.875 8.796875 18.921875 8.15625 
Q 19.96875 7.515625 21.921875 7.515625 
Q 23.390625 7.515625 25.78125 7.859375 
z
" id="ArialMT-116"/>
       <path id="ArialMT-32"/>
       <path d="M 8.6875 0 
L 8.6875 45.015625 
L 0.921875 45.015625 
L 0.921875 51.859375 
L 8.6875 51.859375 
L 8.6875 57.375 
Q 8.6875 62.59375 9.625 65.140625 
Q 10.890625 68.5625 14.078125 70.671875 
Q 17.28125 72.796875 23.046875 72.796875 
Q 26.765625 72.796875 31.25 71.921875 
L 29.9375 64.265625 
Q 27.203125 64.75 24.75 64.75 
Q 20.75 64.75 19.09375 63.03125 
Q 17.4375 61.328125 17.4375 56.640625 
L 17.4375 51.859375 
L 27.546875 51.859375 
L 27.546875 45.015625 
L 17.4375 45.015625 
L 17.4375 0 
z
" id="ArialMT-102"/>
       <path d="M 40.4375 19 
L 49.078125 17.875 
Q 47.65625 8.9375 41.8125 3.875 
Q 35.984375 -1.171875 27.484375 -1.171875 
Q 16.84375 -1.171875 10.375 5.78125 
Q 3.90625 12.75 3.90625 25.734375 
Q 3.90625 34.125 6.6875 40.421875 
Q 9.46875 46.734375 15.15625 49.875 
Q 20.84375 53.03125 27.546875 53.03125 
Q 35.984375 53.03125 41.359375 48.75 
Q 46.734375 44.484375 48.25 36.625 
L 39.703125 35.296875 
Q 38.484375 40.53125 35.375 43.15625 
Q 32.28125 45.796875 27.875 45.796875 
Q 21.234375 45.796875 17.078125 41.03125 
Q 12.9375 36.28125 12.9375 25.984375 
Q 12.9375 15.53125 16.9375 10.796875 
Q 20.953125 6.0625 27.390625 6.0625 
Q 32.5625 6.0625 36.03125 9.234375 
Q 39.5 12.40625 40.4375 19 
z
" id="ArialMT-99"/>
      </defs>
      <use xlink:href="#ArialMT-119"/>
      <use x="72.216797" xlink:href="#ArialMT-101"/>
      <use x="127.832031" xlink:href="#ArialMT-105"/>
      <use x="150.048828" xlink:href="#ArialMT-103"/>
      <use x="205.664062" xlink:href="#ArialMT-104"/>
      <use x="261.279297" xlink:href="#ArialMT-116"/>
      <use x="289.0625" xlink:href="#ArialMT-32"/>
      <use x="316.845703" xlink:href="#ArialMT-101"/>
      <use x="372.460938" xlink:href="#ArialMT-102"/>
      <use x="398.494141" xlink:href="#ArialMT-102"/>
      <use x="426.277344" xlink:href="#ArialMT-101"/>
      <use x="481.892578" xlink:href="#ArialMT-99"/>
      <use x="531.892578" xlink:href="#ArialMT-116"/>
     </g>
    </g>
   </g>
   <g id="matplotlib.axis_2">
    <g id="ytick_1">
     <g id="line2d_7">
      <path clip-path="url(#p8caed0912f)" d="M 221.526563 394.845225 
L 500.526562 394.845225 
" style="fill:none;stroke:#cccccc;stroke-linecap:round;stroke-width:0.8;"/>
     </g>
     <g id="text_8">
      <!-- weathersit_MISTY temp -->
      <g style="fill:#262626;" transform="translate(108.003125 398.485069)scale(0.1 -0.1)">
       <defs>
        <path d="M 40.4375 6.390625 
Q 35.546875 2.25 31.03125 0.53125 
Q 26.515625 -1.171875 21.34375 -1.171875 
Q 12.796875 -1.171875 8.203125 3 
Q 3.609375 7.171875 3.609375 13.671875 
Q 3.609375 17.484375 5.34375 20.625 
Q 7.078125 23.78125 9.890625 25.6875 
Q 12.703125 27.59375 16.21875 28.5625 
Q 18.796875 29.25 24.03125 29.890625 
Q 34.671875 31.15625 39.703125 32.90625 
Q 39.75 34.71875 39.75 35.203125 
Q 39.75 40.578125 37.25 42.78125 
Q 33.890625 45.75 27.25 45.75 
Q 21.046875 45.75 18.09375 43.578125 
Q 15.140625 41.40625 13.71875 35.890625 
L 5.125 37.0625 
Q 6.296875 42.578125 8.984375 45.96875 
Q 11.671875 49.359375 16.75 51.1875 
Q 21.828125 53.03125 28.515625 53.03125 
Q 35.15625 53.03125 39.296875 51.46875 
Q 43.453125 49.90625 45.40625 47.53125 
Q 47.359375 45.171875 48.140625 41.546875 
Q 48.578125 39.3125 48.578125 33.453125 
L 48.578125 21.734375 
Q 48.578125 9.46875 49.140625 6.21875 
Q 49.703125 2.984375 51.375 0 
L 42.1875 0 
Q 40.828125 2.734375 40.4375 6.390625 
z
M 39.703125 26.03125 
Q 34.90625 24.078125 25.34375 22.703125 
Q 19.921875 21.921875 17.671875 20.9375 
Q 15.4375 19.96875 14.203125 18.09375 
Q 12.984375 16.21875 12.984375 13.921875 
Q 12.984375 10.40625 15.640625 8.0625 
Q 18.3125 5.71875 23.4375 5.71875 
Q 28.515625 5.71875 32.46875 7.9375 
Q 36.421875 10.15625 38.28125 14.015625 
Q 39.703125 17 39.703125 22.796875 
z
" id="ArialMT-97"/>
        <path d="M 6.5 0 
L 6.5 51.859375 
L 14.40625 51.859375 
L 14.40625 44 
Q 17.4375 49.515625 20 51.265625 
Q 22.5625 53.03125 25.640625 53.03125 
Q 30.078125 53.03125 34.671875 50.203125 
L 31.640625 42.046875 
Q 28.421875 43.953125 25.203125 43.953125 
Q 22.3125 43.953125 20.015625 42.21875 
Q 17.71875 40.484375 16.75 37.40625 
Q 15.28125 32.71875 15.28125 27.15625 
L 15.28125 0 
z
" id="ArialMT-114"/>
        <path d="M 3.078125 15.484375 
L 11.765625 16.84375 
Q 12.5 11.625 15.84375 8.84375 
Q 19.1875 6.0625 25.203125 6.0625 
Q 31.25 6.0625 34.171875 8.515625 
Q 37.109375 10.984375 37.109375 14.3125 
Q 37.109375 17.28125 34.515625 19 
Q 32.71875 20.171875 25.53125 21.96875 
Q 15.875 24.421875 12.140625 26.203125 
Q 8.40625 27.984375 6.46875 31.125 
Q 4.546875 34.28125 4.546875 38.09375 
Q 4.546875 41.546875 6.125 44.5 
Q 7.71875 47.46875 10.453125 49.421875 
Q 12.5 50.921875 16.03125 51.96875 
Q 19.578125 53.03125 23.640625 53.03125 
Q 29.734375 53.03125 34.34375 51.265625 
Q 38.96875 49.515625 41.15625 46.5 
Q 43.359375 43.5 44.1875 38.484375 
L 35.59375 37.3125 
Q 35.015625 41.3125 32.203125 43.546875 
Q 29.390625 45.796875 24.265625 45.796875 
Q 18.21875 45.796875 15.625 43.796875 
Q 13.03125 41.796875 13.03125 39.109375 
Q 13.03125 37.40625 14.109375 36.03125 
Q 15.1875 34.625 17.484375 33.6875 
Q 18.796875 33.203125 25.25 31.453125 
Q 34.578125 28.953125 38.25 27.359375 
Q 41.9375 25.78125 44.03125 22.75 
Q 46.140625 19.734375 46.140625 15.234375 
Q 46.140625 10.84375 43.578125 6.953125 
Q 41.015625 3.078125 36.171875 0.953125 
Q 31.34375 -1.171875 25.25 -1.171875 
Q 15.140625 -1.171875 9.84375 3.03125 
Q 4.546875 7.234375 3.078125 15.484375 
z
" id="ArialMT-115"/>
        <path d="M -1.515625 -19.875 
L -1.515625 -13.53125 
L 56.734375 -13.53125 
L 56.734375 -19.875 
z
" id="ArialMT-95"/>
        <path d="M 7.421875 0 
L 7.421875 71.578125 
L 21.6875 71.578125 
L 38.625 20.90625 
Q 40.96875 13.8125 42.046875 10.296875 
Q 43.265625 14.203125 45.84375 21.78125 
L 62.984375 71.578125 
L 75.734375 71.578125 
L 75.734375 0 
L 66.609375 0 
L 66.609375 59.90625 
L 45.796875 0 
L 37.25 0 
L 16.546875 60.9375 
L 16.546875 0 
z
" id="ArialMT-77"/>
        <path d="M 9.328125 0 
L 9.328125 71.578125 
L 18.796875 71.578125 
L 18.796875 0 
z
" id="ArialMT-73"/>
        <path d="M 4.5 23 
L 13.421875 23.78125 
Q 14.0625 18.40625 16.375 14.96875 
Q 18.703125 11.53125 23.578125 9.40625 
Q 28.46875 7.28125 34.578125 7.28125 
Q 39.984375 7.28125 44.140625 8.890625 
Q 48.296875 10.5 50.3125 13.296875 
Q 52.34375 16.109375 52.34375 19.4375 
Q 52.34375 22.796875 50.390625 25.3125 
Q 48.4375 27.828125 43.953125 29.546875 
Q 41.0625 30.671875 31.203125 33.03125 
Q 21.34375 35.40625 17.390625 37.5 
Q 12.25 40.1875 9.734375 44.15625 
Q 7.234375 48.140625 7.234375 53.078125 
Q 7.234375 58.5 10.296875 63.203125 
Q 13.375 67.921875 19.28125 70.359375 
Q 25.203125 72.796875 32.421875 72.796875 
Q 40.375 72.796875 46.453125 70.234375 
Q 52.546875 67.671875 55.8125 62.6875 
Q 59.078125 57.71875 59.328125 51.421875 
L 50.25 50.734375 
Q 49.515625 57.515625 45.28125 60.984375 
Q 41.0625 64.453125 32.8125 64.453125 
Q 24.21875 64.453125 20.28125 61.296875 
Q 16.359375 58.15625 16.359375 53.71875 
Q 16.359375 49.859375 19.140625 47.359375 
Q 21.875 44.875 33.421875 42.265625 
Q 44.96875 39.65625 49.265625 37.703125 
Q 55.515625 34.8125 58.484375 30.390625 
Q 61.46875 25.984375 61.46875 20.21875 
Q 61.46875 14.5 58.203125 9.4375 
Q 54.9375 4.390625 48.796875 1.578125 
Q 42.671875 -1.21875 35.015625 -1.21875 
Q 25.296875 -1.21875 18.71875 1.609375 
Q 12.15625 4.4375 8.421875 10.125 
Q 4.6875 15.828125 4.5 23 
z
" id="ArialMT-83"/>
        <path d="M 25.921875 0 
L 25.921875 63.140625 
L 2.34375 63.140625 
L 2.34375 71.578125 
L 59.078125 71.578125 
L 59.078125 63.140625 
L 35.40625 63.140625 
L 35.40625 0 
z
" id="ArialMT-84"/>
        <path d="M 27.875 0 
L 27.875 30.328125 
L 0.296875 71.578125 
L 11.8125 71.578125 
L 25.921875 50 
Q 29.828125 43.953125 33.203125 37.890625 
Q 36.421875 43.5 41.015625 50.53125 
L 54.890625 71.578125 
L 65.921875 71.578125 
L 37.359375 30.328125 
L 37.359375 0 
z
" id="ArialMT-89"/>
        <path d="M 6.59375 0 
L 6.59375 51.859375 
L 14.453125 51.859375 
L 14.453125 44.578125 
Q 16.890625 48.390625 20.9375 50.703125 
Q 25 53.03125 30.171875 53.03125 
Q 35.9375 53.03125 39.625 50.640625 
Q 43.3125 48.25 44.828125 43.953125 
Q 50.984375 53.03125 60.84375 53.03125 
Q 68.5625 53.03125 72.703125 48.75 
Q 76.859375 44.484375 76.859375 35.59375 
L 76.859375 0 
L 68.109375 0 
L 68.109375 32.671875 
Q 68.109375 37.9375 67.25 40.25 
Q 66.40625 42.578125 64.15625 43.984375 
Q 61.921875 45.40625 58.890625 45.40625 
Q 53.421875 45.40625 49.796875 41.765625 
Q 46.1875 38.140625 46.1875 30.125 
L 46.1875 0 
L 37.40625 0 
L 37.40625 33.6875 
Q 37.40625 39.546875 35.25 42.46875 
Q 33.109375 45.40625 28.21875 45.40625 
Q 24.515625 45.40625 21.359375 43.453125 
Q 18.21875 41.5 16.796875 37.734375 
Q 15.375 33.984375 15.375 26.90625 
L 15.375 0 
z
" id="ArialMT-109"/>
        <path d="M 6.59375 -19.875 
L 6.59375 51.859375 
L 14.59375 51.859375 
L 14.59375 45.125 
Q 17.4375 49.078125 21 51.046875 
Q 24.5625 53.03125 29.640625 53.03125 
Q 36.28125 53.03125 41.359375 49.609375 
Q 46.4375 46.1875 49.015625 39.953125 
Q 51.609375 33.734375 51.609375 26.3125 
Q 51.609375 18.359375 48.75 11.984375 
Q 45.90625 5.609375 40.453125 2.21875 
Q 35.015625 -1.171875 29 -1.171875 
Q 24.609375 -1.171875 21.109375 0.6875 
Q 17.625 2.546875 15.375 5.375 
L 15.375 -19.875 
z
M 14.546875 25.640625 
Q 14.546875 15.625 18.59375 10.84375 
Q 22.65625 6.0625 28.421875 6.0625 
Q 34.28125 6.0625 38.453125 11.015625 
Q 42.625 15.96875 42.625 26.375 
Q 42.625 36.28125 38.546875 41.203125 
Q 34.46875 46.140625 28.8125 46.140625 
Q 23.1875 46.140625 18.859375 40.890625 
Q 14.546875 35.640625 14.546875 25.640625 
z
" id="ArialMT-112"/>
       </defs>
       <use xlink:href="#ArialMT-119"/>
       <use x="72.216797" xlink:href="#ArialMT-101"/>
       <use x="127.832031" xlink:href="#ArialMT-97"/>
       <use x="183.447266" xlink:href="#ArialMT-116"/>
       <use x="211.230469" xlink:href="#ArialMT-104"/>
       <use x="266.845703" xlink:href="#ArialMT-101"/>
       <use x="322.460938" xlink:href="#ArialMT-114"/>
       <use x="355.761719" xlink:href="#ArialMT-115"/>
       <use x="405.761719" xlink:href="#ArialMT-105"/>
       <use x="427.978516" xlink:href="#ArialMT-116"/>
       <use x="455.761719" xlink:href="#ArialMT-95"/>
       <use x="511.376953" xlink:href="#ArialMT-77"/>
       <use x="594.677734" xlink:href="#ArialMT-73"/>
       <use x="622.460938" xlink:href="#ArialMT-83"/>
       <use x="689.160156" xlink:href="#ArialMT-84"/>
       <use x="750.244141" xlink:href="#ArialMT-89"/>
       <use x="815.193359" xlink:href="#ArialMT-32"/>
       <use x="842.976562" xlink:href="#ArialMT-116"/>
       <use x="870.759766" xlink:href="#ArialMT-101"/>
       <use x="926.375" xlink:href="#ArialMT-109"/>
       <use x="1009.675781" xlink:href="#ArialMT-112"/>
      </g>
     </g>
    </g>
    <g id="ytick_2">
     <g id="line2d_8">
      <path clip-path="url(#p8caed0912f)" d="M 221.526563 379.624425 
L 500.526562 379.624425 
" style="fill:none;stroke:#cccccc;stroke-linecap:round;stroke-width:0.8;"/>
     </g>
     <g id="text_9">
      <!-- windspeed yr -->
      <g style="fill:#262626;" transform="translate(155.609375 383.203331)scale(0.1 -0.1)">
       <defs>
        <path d="M 6.59375 0 
L 6.59375 51.859375 
L 14.5 51.859375 
L 14.5 44.484375 
Q 20.21875 53.03125 31 53.03125 
Q 35.6875 53.03125 39.625 51.34375 
Q 43.5625 49.65625 45.515625 46.921875 
Q 47.46875 44.1875 48.25 40.4375 
Q 48.734375 37.984375 48.734375 31.890625 
L 48.734375 0 
L 39.9375 0 
L 39.9375 31.546875 
Q 39.9375 36.921875 38.90625 39.578125 
Q 37.890625 42.234375 35.28125 43.8125 
Q 32.671875 45.40625 29.15625 45.40625 
Q 23.53125 45.40625 19.453125 41.84375 
Q 15.375 38.28125 15.375 28.328125 
L 15.375 0 
z
" id="ArialMT-110"/>
        <path d="M 40.234375 0 
L 40.234375 6.546875 
Q 35.296875 -1.171875 25.734375 -1.171875 
Q 19.53125 -1.171875 14.328125 2.25 
Q 9.125 5.671875 6.265625 11.796875 
Q 3.421875 17.921875 3.421875 25.875 
Q 3.421875 33.640625 6 39.96875 
Q 8.59375 46.296875 13.765625 49.65625 
Q 18.953125 53.03125 25.34375 53.03125 
Q 30.03125 53.03125 33.6875 51.046875 
Q 37.359375 49.078125 39.65625 45.90625 
L 39.65625 71.578125 
L 48.390625 71.578125 
L 48.390625 0 
z
M 12.453125 25.875 
Q 12.453125 15.921875 16.640625 10.984375 
Q 20.84375 6.0625 26.5625 6.0625 
Q 32.328125 6.0625 36.34375 10.765625 
Q 40.375 15.484375 40.375 25.140625 
Q 40.375 35.796875 36.265625 40.765625 
Q 32.171875 45.75 26.171875 45.75 
Q 20.3125 45.75 16.375 40.96875 
Q 12.453125 36.1875 12.453125 25.875 
z
" id="ArialMT-100"/>
        <path d="M 6.203125 -19.96875 
L 5.21875 -11.71875 
Q 8.109375 -12.5 10.25 -12.5 
Q 13.1875 -12.5 14.9375 -11.515625 
Q 16.703125 -10.546875 17.828125 -8.796875 
Q 18.65625 -7.46875 20.515625 -2.25 
Q 20.75 -1.515625 21.296875 -0.09375 
L 1.609375 51.859375 
L 11.078125 51.859375 
L 21.875 21.828125 
Q 23.96875 16.109375 25.640625 9.8125 
Q 27.15625 15.875 29.25 21.625 
L 40.328125 51.859375 
L 49.125 51.859375 
L 29.390625 -0.875 
Q 26.21875 -9.421875 24.46875 -12.640625 
Q 22.125 -17 19.09375 -19.015625 
Q 16.0625 -21.046875 11.859375 -21.046875 
Q 9.328125 -21.046875 6.203125 -19.96875 
z
" id="ArialMT-121"/>
       </defs>
       <use xlink:href="#ArialMT-119"/>
       <use x="72.216797" xlink:href="#ArialMT-105"/>
       <use x="94.433594" xlink:href="#ArialMT-110"/>
       <use x="150.048828" xlink:href="#ArialMT-100"/>
       <use x="205.664062" xlink:href="#ArialMT-115"/>
       <use x="255.664062" xlink:href="#ArialMT-112"/>
       <use x="311.279297" xlink:href="#ArialMT-101"/>
       <use x="366.894531" xlink:href="#ArialMT-101"/>
       <use x="422.509766" xlink:href="#ArialMT-100"/>
       <use x="478.125" xlink:href="#ArialMT-32"/>
       <use x="505.908203" xlink:href="#ArialMT-121"/>
       <use x="555.908203" xlink:href="#ArialMT-114"/>
      </g>
     </g>
    </g>
    <g id="ytick_3">
     <g id="line2d_9">
      <path clip-path="url(#p8caed0912f)" d="M 221.526563 364.403625 
L 500.526562 364.403625 
" style="fill:none;stroke:#cccccc;stroke-linecap:round;stroke-width:0.8;"/>
     </g>
     <g id="text_10">
      <!-- temp days_since_2011 -->
      <g style="fill:#262626;" transform="translate(112.425 367.997375)scale(0.1 -0.1)">
       <use xlink:href="#ArialMT-116"/>
       <use x="27.783203" xlink:href="#ArialMT-101"/>
       <use x="83.398438" xlink:href="#ArialMT-109"/>
       <use x="166.699219" xlink:href="#ArialMT-112"/>
       <use x="222.314453" xlink:href="#ArialMT-32"/>
       <use x="250.097656" xlink:href="#ArialMT-100"/>
       <use x="305.712891" xlink:href="#ArialMT-97"/>
       <use x="361.328125" xlink:href="#ArialMT-121"/>
       <use x="411.328125" xlink:href="#ArialMT-115"/>
       <use x="461.328125" xlink:href="#ArialMT-95"/>
       <use x="516.943359" xlink:href="#ArialMT-115"/>
       <use x="566.943359" xlink:href="#ArialMT-105"/>
       <use x="589.160156" xlink:href="#ArialMT-110"/>
       <use x="644.775391" xlink:href="#ArialMT-99"/>
       <use x="694.775391" xlink:href="#ArialMT-101"/>
       <use x="750.390625" xlink:href="#ArialMT-95"/>
       <use x="806.005859" xlink:href="#ArialMT-50"/>
       <use x="861.621094" xlink:href="#ArialMT-48"/>
       <use x="917.236328" xlink:href="#ArialMT-49"/>
       <use x="965.476562" xlink:href="#ArialMT-49"/>
      </g>
     </g>
    </g>
    <g id="ytick_4">
     <g id="line2d_10">
      <path clip-path="url(#p8caed0912f)" d="M 221.526563 349.182825 
L 500.526562 349.182825 
" style="fill:none;stroke:#cccccc;stroke-linecap:round;stroke-width:0.8;"/>
     </g>
     <g id="text_11">
      <!-- season_SUMMER -->
      <g style="fill:#262626;" transform="translate(132.278125 352.822669)scale(0.1 -0.1)">
       <defs>
        <path d="M 3.328125 25.921875 
Q 3.328125 40.328125 11.328125 47.265625 
Q 18.015625 53.03125 27.640625 53.03125 
Q 38.328125 53.03125 45.109375 46.015625 
Q 51.90625 39.015625 51.90625 26.65625 
Q 51.90625 16.65625 48.90625 10.90625 
Q 45.90625 5.171875 40.15625 2 
Q 34.421875 -1.171875 27.640625 -1.171875 
Q 16.75 -1.171875 10.03125 5.8125 
Q 3.328125 12.796875 3.328125 25.921875 
z
M 12.359375 25.921875 
Q 12.359375 15.96875 16.703125 11.015625 
Q 21.046875 6.0625 27.640625 6.0625 
Q 34.1875 6.0625 38.53125 11.03125 
Q 42.875 16.015625 42.875 26.21875 
Q 42.875 35.84375 38.5 40.796875 
Q 34.125 45.75 27.640625 45.75 
Q 21.046875 45.75 16.703125 40.8125 
Q 12.359375 35.890625 12.359375 25.921875 
z
" id="ArialMT-111"/>
        <path d="M 54.6875 71.578125 
L 64.15625 71.578125 
L 64.15625 30.21875 
Q 64.15625 19.4375 61.71875 13.078125 
Q 59.28125 6.734375 52.90625 2.75 
Q 46.53125 -1.21875 36.1875 -1.21875 
Q 26.125 -1.21875 19.71875 2.25 
Q 13.328125 5.71875 10.59375 12.28125 
Q 7.859375 18.84375 7.859375 30.21875 
L 7.859375 71.578125 
L 17.328125 71.578125 
L 17.328125 30.28125 
Q 17.328125 20.953125 19.0625 16.53125 
Q 20.796875 12.109375 25.015625 9.71875 
Q 29.25 7.328125 35.359375 7.328125 
Q 45.796875 7.328125 50.234375 12.0625 
Q 54.6875 16.796875 54.6875 30.28125 
z
" id="ArialMT-85"/>
        <path d="M 7.90625 0 
L 7.90625 71.578125 
L 59.671875 71.578125 
L 59.671875 63.140625 
L 17.390625 63.140625 
L 17.390625 41.21875 
L 56.984375 41.21875 
L 56.984375 32.8125 
L 17.390625 32.8125 
L 17.390625 8.453125 
L 61.328125 8.453125 
L 61.328125 0 
z
" id="ArialMT-69"/>
        <path d="M 7.859375 0 
L 7.859375 71.578125 
L 39.59375 71.578125 
Q 49.171875 71.578125 54.140625 69.640625 
Q 59.125 67.71875 62.109375 62.828125 
Q 65.09375 57.953125 65.09375 52.046875 
Q 65.09375 44.4375 60.15625 39.203125 
Q 55.21875 33.984375 44.921875 32.5625 
Q 48.6875 30.765625 50.640625 29 
Q 54.78125 25.203125 58.5 19.484375 
L 70.953125 0 
L 59.03125 0 
L 49.5625 14.890625 
Q 45.40625 21.34375 42.71875 24.75 
Q 40.046875 28.171875 37.921875 29.53125 
Q 35.796875 30.90625 33.59375 31.453125 
Q 31.984375 31.78125 28.328125 31.78125 
L 17.328125 31.78125 
L 17.328125 0 
z
M 17.328125 39.984375 
L 37.703125 39.984375 
Q 44.1875 39.984375 47.84375 41.328125 
Q 51.515625 42.671875 53.421875 45.625 
Q 55.328125 48.578125 55.328125 52.046875 
Q 55.328125 57.125 51.640625 60.390625 
Q 47.953125 63.671875 39.984375 63.671875 
L 17.328125 63.671875 
z
" id="ArialMT-82"/>
       </defs>
       <use xlink:href="#ArialMT-115"/>
       <use x="50" xlink:href="#ArialMT-101"/>
       <use x="105.615234" xlink:href="#ArialMT-97"/>
       <use x="161.230469" xlink:href="#ArialMT-115"/>
       <use x="211.230469" xlink:href="#ArialMT-111"/>
       <use x="266.845703" xlink:href="#ArialMT-110"/>
       <use x="322.460938" xlink:href="#ArialMT-95"/>
       <use x="378.076172" xlink:href="#ArialMT-83"/>
       <use x="444.775391" xlink:href="#ArialMT-85"/>
       <use x="516.992188" xlink:href="#ArialMT-77"/>
       <use x="600.292969" xlink:href="#ArialMT-77"/>
       <use x="683.59375" xlink:href="#ArialMT-69"/>
       <use x="750.292969" xlink:href="#ArialMT-82"/>
      </g>
     </g>
    </g>
    <g id="ytick_5">
     <g id="line2d_11">
      <path clip-path="url(#p8caed0912f)" d="M 221.526563 333.962025 
L 500.526562 333.962025 
" style="fill:none;stroke:#cccccc;stroke-linecap:round;stroke-width:0.8;"/>
     </g>
     <g id="text_12">
      <!-- weathersit_MISTY hum -->
      <g style="fill:#262626;" transform="translate(110.78125 337.601869)scale(0.1 -0.1)">
       <defs>
        <path d="M 40.578125 0 
L 40.578125 7.625 
Q 34.515625 -1.171875 24.125 -1.171875 
Q 19.53125 -1.171875 15.546875 0.578125 
Q 11.578125 2.34375 9.640625 5 
Q 7.71875 7.671875 6.9375 11.53125 
Q 6.390625 14.109375 6.390625 19.734375 
L 6.390625 51.859375 
L 15.1875 51.859375 
L 15.1875 23.09375 
Q 15.1875 16.21875 15.71875 13.8125 
Q 16.546875 10.359375 19.234375 8.375 
Q 21.921875 6.390625 25.875 6.390625 
Q 29.828125 6.390625 33.296875 8.421875 
Q 36.765625 10.453125 38.203125 13.9375 
Q 39.65625 17.4375 39.65625 24.078125 
L 39.65625 51.859375 
L 48.4375 51.859375 
L 48.4375 0 
z
" id="ArialMT-117"/>
       </defs>
       <use xlink:href="#ArialMT-119"/>
       <use x="72.216797" xlink:href="#ArialMT-101"/>
       <use x="127.832031" xlink:href="#ArialMT-97"/>
       <use x="183.447266" xlink:href="#ArialMT-116"/>
       <use x="211.230469" xlink:href="#ArialMT-104"/>
       <use x="266.845703" xlink:href="#ArialMT-101"/>
       <use x="322.460938" xlink:href="#ArialMT-114"/>
       <use x="355.761719" xlink:href="#ArialMT-115"/>
       <use x="405.761719" xlink:href="#ArialMT-105"/>
       <use x="427.978516" xlink:href="#ArialMT-116"/>
       <use x="455.761719" xlink:href="#ArialMT-95"/>
       <use x="511.376953" xlink:href="#ArialMT-77"/>
       <use x="594.677734" xlink:href="#ArialMT-73"/>
       <use x="622.460938" xlink:href="#ArialMT-83"/>
       <use x="689.160156" xlink:href="#ArialMT-84"/>
       <use x="750.244141" xlink:href="#ArialMT-89"/>
       <use x="815.193359" xlink:href="#ArialMT-32"/>
       <use x="842.976562" xlink:href="#ArialMT-104"/>
       <use x="898.591797" xlink:href="#ArialMT-117"/>
       <use x="954.207031" xlink:href="#ArialMT-109"/>
      </g>
     </g>
    </g>
    <g id="ytick_6">
     <g id="line2d_12">
      <path clip-path="url(#p8caed0912f)" d="M 221.526563 318.741225 
L 500.526562 318.741225 
" style="fill:none;stroke:#cccccc;stroke-linecap:round;stroke-width:0.8;"/>
     </g>
     <g id="text_13">
      <!-- mnth_JUN -->
      <g style="fill:#262626;" transform="translate(167.292188 322.320131)scale(0.1 -0.1)">
       <defs>
        <path d="M 2.875 20.3125 
L 11.421875 21.484375 
Q 11.765625 13.28125 14.5 10.25 
Q 17.234375 7.234375 22.078125 7.234375 
Q 25.640625 7.234375 28.21875 8.859375 
Q 30.8125 10.5 31.78125 13.296875 
Q 32.765625 16.109375 32.765625 22.265625 
L 32.765625 71.578125 
L 42.234375 71.578125 
L 42.234375 22.796875 
Q 42.234375 13.8125 40.0625 8.875 
Q 37.890625 3.953125 33.171875 1.359375 
Q 28.46875 -1.21875 22.125 -1.21875 
Q 12.703125 -1.21875 7.6875 4.203125 
Q 2.6875 9.625 2.875 20.3125 
z
" id="ArialMT-74"/>
        <path d="M 7.625 0 
L 7.625 71.578125 
L 17.328125 71.578125 
L 54.9375 15.375 
L 54.9375 71.578125 
L 64.015625 71.578125 
L 64.015625 0 
L 54.296875 0 
L 16.703125 56.25 
L 16.703125 0 
z
" id="ArialMT-78"/>
       </defs>
       <use xlink:href="#ArialMT-109"/>
       <use x="83.300781" xlink:href="#ArialMT-110"/>
       <use x="138.916016" xlink:href="#ArialMT-116"/>
       <use x="166.699219" xlink:href="#ArialMT-104"/>
       <use x="222.314453" xlink:href="#ArialMT-95"/>
       <use x="277.929688" xlink:href="#ArialMT-74"/>
       <use x="327.929688" xlink:href="#ArialMT-85"/>
       <use x="400.146484" xlink:href="#ArialMT-78"/>
      </g>
     </g>
    </g>
    <g id="ytick_7">
     <g id="line2d_13">
      <path clip-path="url(#p8caed0912f)" d="M 221.526563 303.520425 
L 500.526562 303.520425 
" style="fill:none;stroke:#cccccc;stroke-linecap:round;stroke-width:0.8;"/>
     </g>
     <g id="text_14">
      <!-- season_SUMMER temp -->
      <g style="fill:#262626;" transform="translate(107.270313 307.160269)scale(0.1 -0.1)">
       <use xlink:href="#ArialMT-115"/>
       <use x="50" xlink:href="#ArialMT-101"/>
       <use x="105.615234" xlink:href="#ArialMT-97"/>
       <use x="161.230469" xlink:href="#ArialMT-115"/>
       <use x="211.230469" xlink:href="#ArialMT-111"/>
       <use x="266.845703" xlink:href="#ArialMT-110"/>
       <use x="322.460938" xlink:href="#ArialMT-95"/>
       <use x="378.076172" xlink:href="#ArialMT-83"/>
       <use x="444.775391" xlink:href="#ArialMT-85"/>
       <use x="516.992188" xlink:href="#ArialMT-77"/>
       <use x="600.292969" xlink:href="#ArialMT-77"/>
       <use x="683.59375" xlink:href="#ArialMT-69"/>
       <use x="750.292969" xlink:href="#ArialMT-82"/>
       <use x="822.509766" xlink:href="#ArialMT-32"/>
       <use x="850.292969" xlink:href="#ArialMT-116"/>
       <use x="878.076172" xlink:href="#ArialMT-101"/>
       <use x="933.691406" xlink:href="#ArialMT-109"/>
       <use x="1016.992188" xlink:href="#ArialMT-112"/>
      </g>
     </g>
    </g>
    <g id="ytick_8">
     <g id="line2d_14">
      <path clip-path="url(#p8caed0912f)" d="M 221.526563 288.299625 
L 500.526562 288.299625 
" style="fill:none;stroke:#cccccc;stroke-linecap:round;stroke-width:0.8;"/>
     </g>
     <g id="text_15">
      <!-- season_SPRING days_since_2011 -->
      <g style="fill:#262626;" transform="translate(58.509375 291.939469)scale(0.1 -0.1)">
       <defs>
        <path d="M 7.71875 0 
L 7.71875 71.578125 
L 34.71875 71.578125 
Q 41.84375 71.578125 45.609375 70.90625 
Q 50.875 70.015625 54.4375 67.546875 
Q 58.015625 65.09375 60.1875 60.640625 
Q 62.359375 56.203125 62.359375 50.875 
Q 62.359375 41.75 56.546875 35.421875 
Q 50.734375 29.109375 35.546875 29.109375 
L 17.1875 29.109375 
L 17.1875 0 
z
M 17.1875 37.546875 
L 35.6875 37.546875 
Q 44.875 37.546875 48.734375 40.96875 
Q 52.59375 44.390625 52.59375 50.59375 
Q 52.59375 55.078125 50.3125 58.265625 
Q 48.046875 61.46875 44.34375 62.5 
Q 41.9375 63.140625 35.5 63.140625 
L 17.1875 63.140625 
z
" id="ArialMT-80"/>
        <path d="M 41.21875 28.078125 
L 41.21875 36.46875 
L 71.53125 36.53125 
L 71.53125 9.96875 
Q 64.546875 4.390625 57.125 1.578125 
Q 49.703125 -1.21875 41.890625 -1.21875 
Q 31.34375 -1.21875 22.71875 3.296875 
Q 14.109375 7.8125 9.71875 16.359375 
Q 5.328125 24.90625 5.328125 35.453125 
Q 5.328125 45.90625 9.6875 54.953125 
Q 14.0625 64.015625 22.265625 68.40625 
Q 30.46875 72.796875 41.15625 72.796875 
Q 48.921875 72.796875 55.1875 70.28125 
Q 61.46875 67.78125 65.03125 63.28125 
Q 68.609375 58.796875 70.453125 51.5625 
L 61.921875 49.21875 
Q 60.296875 54.6875 57.90625 57.8125 
Q 55.515625 60.9375 51.0625 62.8125 
Q 46.625 64.703125 41.21875 64.703125 
Q 34.71875 64.703125 29.984375 62.71875 
Q 25.25 60.75 22.34375 57.515625 
Q 19.4375 54.296875 17.828125 50.4375 
Q 15.09375 43.796875 15.09375 36.03125 
Q 15.09375 26.46875 18.390625 20.015625 
Q 21.6875 13.578125 27.984375 10.453125 
Q 34.28125 7.328125 41.359375 7.328125 
Q 47.515625 7.328125 53.375 9.6875 
Q 59.234375 12.0625 62.25 14.75 
L 62.25 28.078125 
z
" id="ArialMT-71"/>
       </defs>
       <use xlink:href="#ArialMT-115"/>
       <use x="50" xlink:href="#ArialMT-101"/>
       <use x="105.615234" xlink:href="#ArialMT-97"/>
       <use x="161.230469" xlink:href="#ArialMT-115"/>
       <use x="211.230469" xlink:href="#ArialMT-111"/>
       <use x="266.845703" xlink:href="#ArialMT-110"/>
       <use x="322.460938" xlink:href="#ArialMT-95"/>
       <use x="378.076172" xlink:href="#ArialMT-83"/>
       <use x="444.775391" xlink:href="#ArialMT-80"/>
       <use x="511.474609" xlink:href="#ArialMT-82"/>
       <use x="583.691406" xlink:href="#ArialMT-73"/>
       <use x="611.474609" xlink:href="#ArialMT-78"/>
       <use x="683.691406" xlink:href="#ArialMT-71"/>
       <use x="761.474609" xlink:href="#ArialMT-32"/>
       <use x="789.257812" xlink:href="#ArialMT-100"/>
       <use x="844.873047" xlink:href="#ArialMT-97"/>
       <use x="900.488281" xlink:href="#ArialMT-121"/>
       <use x="950.488281" xlink:href="#ArialMT-115"/>
       <use x="1000.488281" xlink:href="#ArialMT-95"/>
       <use x="1056.103516" xlink:href="#ArialMT-115"/>
       <use x="1106.103516" xlink:href="#ArialMT-105"/>
       <use x="1128.320312" xlink:href="#ArialMT-110"/>
       <use x="1183.935547" xlink:href="#ArialMT-99"/>
       <use x="1233.935547" xlink:href="#ArialMT-101"/>
       <use x="1289.550781" xlink:href="#ArialMT-95"/>
       <use x="1345.166016" xlink:href="#ArialMT-50"/>
       <use x="1400.78125" xlink:href="#ArialMT-48"/>
       <use x="1456.396484" xlink:href="#ArialMT-49"/>
       <use x="1504.636719" xlink:href="#ArialMT-49"/>
      </g>
     </g>
    </g>
    <g id="ytick_9">
     <g id="line2d_15">
      <path clip-path="url(#p8caed0912f)" d="M 221.526563 273.078825 
L 500.526562 273.078825 
" style="fill:none;stroke:#cccccc;stroke-linecap:round;stroke-width:0.8;"/>
     </g>
     <g id="text_16">
      <!-- workingday_WORKING DAY yr -->
      <g style="fill:#262626;" transform="translate(75.964063 276.721794)scale(0.1 -0.1)">
       <defs>
        <path d="M 6.640625 0 
L 6.640625 71.578125 
L 15.4375 71.578125 
L 15.4375 30.765625 
L 36.234375 51.859375 
L 47.609375 51.859375 
L 27.78125 32.625 
L 49.609375 0 
L 38.765625 0 
L 21.625 26.515625 
L 15.4375 20.5625 
L 15.4375 0 
z
" id="ArialMT-107"/>
        <path d="M 20.21875 0 
L 1.21875 71.578125 
L 10.9375 71.578125 
L 21.828125 24.65625 
Q 23.578125 17.28125 24.859375 10.015625 
Q 27.59375 21.484375 28.078125 23.25 
L 41.703125 71.578125 
L 53.125 71.578125 
L 63.375 35.359375 
Q 67.234375 21.875 68.953125 10.015625 
Q 70.3125 16.796875 72.515625 25.59375 
L 83.734375 71.578125 
L 93.265625 71.578125 
L 73.640625 0 
L 64.5 0 
L 49.421875 54.546875 
Q 47.515625 61.375 47.171875 62.9375 
Q 46.046875 58.015625 45.0625 54.546875 
L 29.890625 0 
z
" id="ArialMT-87"/>
        <path d="M 4.828125 34.859375 
Q 4.828125 52.6875 14.390625 62.765625 
Q 23.96875 72.859375 39.109375 72.859375 
Q 49.03125 72.859375 56.984375 68.109375 
Q 64.9375 63.375 69.109375 54.90625 
Q 73.296875 46.4375 73.296875 35.6875 
Q 73.296875 24.8125 68.890625 16.21875 
Q 64.5 7.625 56.4375 3.203125 
Q 48.390625 -1.21875 39.0625 -1.21875 
Q 28.953125 -1.21875 20.984375 3.65625 
Q 13.03125 8.546875 8.921875 16.984375 
Q 4.828125 25.4375 4.828125 34.859375 
z
M 14.59375 34.71875 
Q 14.59375 21.78125 21.546875 14.328125 
Q 28.515625 6.890625 39.015625 6.890625 
Q 49.703125 6.890625 56.609375 14.40625 
Q 63.53125 21.921875 63.53125 35.75 
Q 63.53125 44.484375 60.578125 51 
Q 57.625 57.515625 51.921875 61.109375 
Q 46.234375 64.703125 39.15625 64.703125 
Q 29.109375 64.703125 21.84375 57.78125 
Q 14.59375 50.875 14.59375 34.71875 
z
" id="ArialMT-79"/>
        <path d="M 7.328125 0 
L 7.328125 71.578125 
L 16.796875 71.578125 
L 16.796875 36.078125 
L 52.34375 71.578125 
L 65.1875 71.578125 
L 35.15625 42.578125 
L 66.5 0 
L 54 0 
L 28.515625 36.234375 
L 16.796875 24.8125 
L 16.796875 0 
z
" id="ArialMT-75"/>
        <path d="M 7.71875 0 
L 7.71875 71.578125 
L 32.375 71.578125 
Q 40.71875 71.578125 45.125 70.5625 
Q 51.265625 69.140625 55.609375 65.4375 
Q 61.28125 60.640625 64.078125 53.1875 
Q 66.890625 45.75 66.890625 36.1875 
Q 66.890625 28.03125 64.984375 21.734375 
Q 63.09375 15.4375 60.109375 11.296875 
Q 57.125 7.171875 53.578125 4.796875 
Q 50.046875 2.4375 45.046875 1.21875 
Q 40.046875 0 33.546875 0 
z
M 17.1875 8.453125 
L 32.46875 8.453125 
Q 39.546875 8.453125 43.578125 9.765625 
Q 47.609375 11.078125 50 13.484375 
Q 53.375 16.84375 55.25 22.53125 
Q 57.125 28.21875 57.125 36.328125 
Q 57.125 47.5625 53.4375 53.59375 
Q 49.75 59.625 44.484375 61.671875 
Q 40.671875 63.140625 32.234375 63.140625 
L 17.1875 63.140625 
z
" id="ArialMT-68"/>
        <path d="M -0.140625 0 
L 27.34375 71.578125 
L 37.546875 71.578125 
L 66.84375 0 
L 56.0625 0 
L 47.703125 21.6875 
L 17.78125 21.6875 
L 9.90625 0 
z
M 20.515625 29.390625 
L 44.78125 29.390625 
L 37.3125 49.21875 
Q 33.890625 58.25 32.234375 64.0625 
Q 30.859375 57.171875 28.375 50.390625 
z
" id="ArialMT-65"/>
       </defs>
       <use xlink:href="#ArialMT-119"/>
       <use x="72.216797" xlink:href="#ArialMT-111"/>
       <use x="127.832031" xlink:href="#ArialMT-114"/>
       <use x="161.132812" xlink:href="#ArialMT-107"/>
       <use x="211.132812" xlink:href="#ArialMT-105"/>
       <use x="233.349609" xlink:href="#ArialMT-110"/>
       <use x="288.964844" xlink:href="#ArialMT-103"/>
       <use x="344.580078" xlink:href="#ArialMT-100"/>
       <use x="400.195312" xlink:href="#ArialMT-97"/>
       <use x="455.810547" xlink:href="#ArialMT-121"/>
       <use x="505.810547" xlink:href="#ArialMT-95"/>
       <use x="561.425781" xlink:href="#ArialMT-87"/>
       <use x="655.810547" xlink:href="#ArialMT-79"/>
       <use x="733.59375" xlink:href="#ArialMT-82"/>
       <use x="805.810547" xlink:href="#ArialMT-75"/>
       <use x="872.509766" xlink:href="#ArialMT-73"/>
       <use x="900.292969" xlink:href="#ArialMT-78"/>
       <use x="972.509766" xlink:href="#ArialMT-71"/>
       <use x="1050.292969" xlink:href="#ArialMT-32"/>
       <use x="1078.076172" xlink:href="#ArialMT-68"/>
       <use x="1150.292969" xlink:href="#ArialMT-65"/>
       <use x="1209.617188" xlink:href="#ArialMT-89"/>
       <use x="1274.566406" xlink:href="#ArialMT-32"/>
       <use x="1302.349609" xlink:href="#ArialMT-121"/>
       <use x="1352.349609" xlink:href="#ArialMT-114"/>
      </g>
     </g>
    </g>
    <g id="ytick_10">
     <g id="line2d_16">
      <path clip-path="url(#p8caed0912f)" d="M 221.526563 257.858025 
L 500.526562 257.858025 
" style="fill:none;stroke:#cccccc;stroke-linecap:round;stroke-width:0.8;"/>
     </g>
     <g id="text_17">
      <!-- workingday_WORKING DAY windspeed -->
      <g style="fill:#262626;" transform="translate(36.484375 261.500994)scale(0.1 -0.1)">
       <use xlink:href="#ArialMT-119"/>
       <use x="72.216797" xlink:href="#ArialMT-111"/>
       <use x="127.832031" xlink:href="#ArialMT-114"/>
       <use x="161.132812" xlink:href="#ArialMT-107"/>
       <use x="211.132812" xlink:href="#ArialMT-105"/>
       <use x="233.349609" xlink:href="#ArialMT-110"/>
       <use x="288.964844" xlink:href="#ArialMT-103"/>
       <use x="344.580078" xlink:href="#ArialMT-100"/>
       <use x="400.195312" xlink:href="#ArialMT-97"/>
       <use x="455.810547" xlink:href="#ArialMT-121"/>
       <use x="505.810547" xlink:href="#ArialMT-95"/>
       <use x="561.425781" xlink:href="#ArialMT-87"/>
       <use x="655.810547" xlink:href="#ArialMT-79"/>
       <use x="733.59375" xlink:href="#ArialMT-82"/>
       <use x="805.810547" xlink:href="#ArialMT-75"/>
       <use x="872.509766" xlink:href="#ArialMT-73"/>
       <use x="900.292969" xlink:href="#ArialMT-78"/>
       <use x="972.509766" xlink:href="#ArialMT-71"/>
       <use x="1050.292969" xlink:href="#ArialMT-32"/>
       <use x="1078.076172" xlink:href="#ArialMT-68"/>
       <use x="1150.292969" xlink:href="#ArialMT-65"/>
       <use x="1209.617188" xlink:href="#ArialMT-89"/>
       <use x="1274.566406" xlink:href="#ArialMT-32"/>
       <use x="1302.349609" xlink:href="#ArialMT-119"/>
       <use x="1374.566406" xlink:href="#ArialMT-105"/>
       <use x="1396.783203" xlink:href="#ArialMT-110"/>
       <use x="1452.398438" xlink:href="#ArialMT-100"/>
       <use x="1508.013672" xlink:href="#ArialMT-115"/>
       <use x="1558.013672" xlink:href="#ArialMT-112"/>
       <use x="1613.628906" xlink:href="#ArialMT-101"/>
       <use x="1669.244141" xlink:href="#ArialMT-101"/>
       <use x="1724.859375" xlink:href="#ArialMT-100"/>
      </g>
     </g>
    </g>
    <g id="ytick_11">
     <g id="line2d_17">
      <path clip-path="url(#p8caed0912f)" d="M 221.526563 242.637225 
L 500.526562 242.637225 
" style="fill:none;stroke:#cccccc;stroke-linecap:round;stroke-width:0.8;"/>
     </g>
     <g id="text_18">
      <!-- workingday_WORKING DAY temp -->
      <g style="fill:#262626;" transform="translate(62.064063 246.280194)scale(0.1 -0.1)">
       <use xlink:href="#ArialMT-119"/>
       <use x="72.216797" xlink:href="#ArialMT-111"/>
       <use x="127.832031" xlink:href="#ArialMT-114"/>
       <use x="161.132812" xlink:href="#ArialMT-107"/>
       <use x="211.132812" xlink:href="#ArialMT-105"/>
       <use x="233.349609" xlink:href="#ArialMT-110"/>
       <use x="288.964844" xlink:href="#ArialMT-103"/>
       <use x="344.580078" xlink:href="#ArialMT-100"/>
       <use x="400.195312" xlink:href="#ArialMT-97"/>
       <use x="455.810547" xlink:href="#ArialMT-121"/>
       <use x="505.810547" xlink:href="#ArialMT-95"/>
       <use x="561.425781" xlink:href="#ArialMT-87"/>
       <use x="655.810547" xlink:href="#ArialMT-79"/>
       <use x="733.59375" xlink:href="#ArialMT-82"/>
       <use x="805.810547" xlink:href="#ArialMT-75"/>
       <use x="872.509766" xlink:href="#ArialMT-73"/>
       <use x="900.292969" xlink:href="#ArialMT-78"/>
       <use x="972.509766" xlink:href="#ArialMT-71"/>
       <use x="1050.292969" xlink:href="#ArialMT-32"/>
       <use x="1078.076172" xlink:href="#ArialMT-68"/>
       <use x="1150.292969" xlink:href="#ArialMT-65"/>
       <use x="1209.617188" xlink:href="#ArialMT-89"/>
       <use x="1274.566406" xlink:href="#ArialMT-32"/>
       <use x="1302.349609" xlink:href="#ArialMT-116"/>
       <use x="1330.132812" xlink:href="#ArialMT-101"/>
       <use x="1385.748047" xlink:href="#ArialMT-109"/>
       <use x="1469.048828" xlink:href="#ArialMT-112"/>
      </g>
     </g>
    </g>
    <g id="ytick_12">
     <g id="line2d_18">
      <path clip-path="url(#p8caed0912f)" d="M 221.526563 227.416425 
L 500.526562 227.416425 
" style="fill:none;stroke:#cccccc;stroke-linecap:round;stroke-width:0.8;"/>
     </g>
     <g id="text_19">
      <!-- days_since_2011 -->
      <g style="fill:#262626;" transform="translate(137.432813 231.010175)scale(0.1 -0.1)">
       <use xlink:href="#ArialMT-100"/>
       <use x="55.615234" xlink:href="#ArialMT-97"/>
       <use x="111.230469" xlink:href="#ArialMT-121"/>
       <use x="161.230469" xlink:href="#ArialMT-115"/>
       <use x="211.230469" xlink:href="#ArialMT-95"/>
       <use x="266.845703" xlink:href="#ArialMT-115"/>
       <use x="316.845703" xlink:href="#ArialMT-105"/>
       <use x="339.0625" xlink:href="#ArialMT-110"/>
       <use x="394.677734" xlink:href="#ArialMT-99"/>
       <use x="444.677734" xlink:href="#ArialMT-101"/>
       <use x="500.292969" xlink:href="#ArialMT-95"/>
       <use x="555.908203" xlink:href="#ArialMT-50"/>
       <use x="611.523438" xlink:href="#ArialMT-48"/>
       <use x="667.138672" xlink:href="#ArialMT-49"/>
       <use x="715.378906" xlink:href="#ArialMT-49"/>
      </g>
     </g>
    </g>
    <g id="ytick_13">
     <g id="line2d_19">
      <path clip-path="url(#p8caed0912f)" d="M 221.526563 212.195625 
L 500.526562 212.195625 
" style="fill:none;stroke:#cccccc;stroke-linecap:round;stroke-width:0.8;"/>
     </g>
     <g id="text_20">
      <!-- workingday_WORKING DAY days_since_2011 -->
      <g style="fill:#262626;" transform="translate(7.2 215.838594)scale(0.1 -0.1)">
       <use xlink:href="#ArialMT-119"/>
       <use x="72.216797" xlink:href="#ArialMT-111"/>
       <use x="127.832031" xlink:href="#ArialMT-114"/>
       <use x="161.132812" xlink:href="#ArialMT-107"/>
       <use x="211.132812" xlink:href="#ArialMT-105"/>
       <use x="233.349609" xlink:href="#ArialMT-110"/>
       <use x="288.964844" xlink:href="#ArialMT-103"/>
       <use x="344.580078" xlink:href="#ArialMT-100"/>
       <use x="400.195312" xlink:href="#ArialMT-97"/>
       <use x="455.810547" xlink:href="#ArialMT-121"/>
       <use x="505.810547" xlink:href="#ArialMT-95"/>
       <use x="561.425781" xlink:href="#ArialMT-87"/>
       <use x="655.810547" xlink:href="#ArialMT-79"/>
       <use x="733.59375" xlink:href="#ArialMT-82"/>
       <use x="805.810547" xlink:href="#ArialMT-75"/>
       <use x="872.509766" xlink:href="#ArialMT-73"/>
       <use x="900.292969" xlink:href="#ArialMT-78"/>
       <use x="972.509766" xlink:href="#ArialMT-71"/>
       <use x="1050.292969" xlink:href="#ArialMT-32"/>
       <use x="1078.076172" xlink:href="#ArialMT-68"/>
       <use x="1150.292969" xlink:href="#ArialMT-65"/>
       <use x="1209.617188" xlink:href="#ArialMT-89"/>
       <use x="1274.566406" xlink:href="#ArialMT-32"/>
       <use x="1302.349609" xlink:href="#ArialMT-100"/>
       <use x="1357.964844" xlink:href="#ArialMT-97"/>
       <use x="1413.580078" xlink:href="#ArialMT-121"/>
       <use x="1463.580078" xlink:href="#ArialMT-115"/>
       <use x="1513.580078" xlink:href="#ArialMT-95"/>
       <use x="1569.195312" xlink:href="#ArialMT-115"/>
       <use x="1619.195312" xlink:href="#ArialMT-105"/>
       <use x="1641.412109" xlink:href="#ArialMT-110"/>
       <use x="1697.027344" xlink:href="#ArialMT-99"/>
       <use x="1747.027344" xlink:href="#ArialMT-101"/>
       <use x="1802.642578" xlink:href="#ArialMT-95"/>
       <use x="1858.257812" xlink:href="#ArialMT-50"/>
       <use x="1913.873047" xlink:href="#ArialMT-48"/>
       <use x="1969.488281" xlink:href="#ArialMT-49"/>
       <use x="2017.728516" xlink:href="#ArialMT-49"/>
      </g>
     </g>
    </g>
    <g id="ytick_14">
     <g id="line2d_20">
      <path clip-path="url(#p8caed0912f)" d="M 221.526563 196.974825 
L 500.526562 196.974825 
" style="fill:none;stroke:#cccccc;stroke-linecap:round;stroke-width:0.8;"/>
     </g>
     <g id="text_21">
      <!-- mnth_JUN temp -->
      <g style="fill:#262626;" transform="translate(142.284375 200.553731)scale(0.1 -0.1)">
       <use xlink:href="#ArialMT-109"/>
       <use x="83.300781" xlink:href="#ArialMT-110"/>
       <use x="138.916016" xlink:href="#ArialMT-116"/>
       <use x="166.699219" xlink:href="#ArialMT-104"/>
       <use x="222.314453" xlink:href="#ArialMT-95"/>
       <use x="277.929688" xlink:href="#ArialMT-74"/>
       <use x="327.929688" xlink:href="#ArialMT-85"/>
       <use x="400.146484" xlink:href="#ArialMT-78"/>
       <use x="472.363281" xlink:href="#ArialMT-32"/>
       <use x="500.146484" xlink:href="#ArialMT-116"/>
       <use x="527.929688" xlink:href="#ArialMT-101"/>
       <use x="583.544922" xlink:href="#ArialMT-109"/>
       <use x="666.845703" xlink:href="#ArialMT-112"/>
      </g>
     </g>
    </g>
    <g id="ytick_15">
     <g id="line2d_21">
      <path clip-path="url(#p8caed0912f)" d="M 221.526563 181.754025 
L 500.526562 181.754025 
" style="fill:none;stroke:#cccccc;stroke-linecap:round;stroke-width:0.8;"/>
     </g>
     <g id="text_22">
      <!-- season_SPRING temp -->
      <g style="fill:#262626;" transform="translate(113.373438 185.393869)scale(0.1 -0.1)">
       <use xlink:href="#ArialMT-115"/>
       <use x="50" xlink:href="#ArialMT-101"/>
       <use x="105.615234" xlink:href="#ArialMT-97"/>
       <use x="161.230469" xlink:href="#ArialMT-115"/>
       <use x="211.230469" xlink:href="#ArialMT-111"/>
       <use x="266.845703" xlink:href="#ArialMT-110"/>
       <use x="322.460938" xlink:href="#ArialMT-95"/>
       <use x="378.076172" xlink:href="#ArialMT-83"/>
       <use x="444.775391" xlink:href="#ArialMT-80"/>
       <use x="511.474609" xlink:href="#ArialMT-82"/>
       <use x="583.691406" xlink:href="#ArialMT-73"/>
       <use x="611.474609" xlink:href="#ArialMT-78"/>
       <use x="683.691406" xlink:href="#ArialMT-71"/>
       <use x="761.474609" xlink:href="#ArialMT-32"/>
       <use x="789.257812" xlink:href="#ArialMT-116"/>
       <use x="817.041016" xlink:href="#ArialMT-101"/>
       <use x="872.65625" xlink:href="#ArialMT-109"/>
       <use x="955.957031" xlink:href="#ArialMT-112"/>
      </g>
     </g>
    </g>
    <g id="ytick_16">
     <g id="line2d_22">
      <path clip-path="url(#p8caed0912f)" d="M 221.526563 166.533225 
L 500.526562 166.533225 
" style="fill:none;stroke:#cccccc;stroke-linecap:round;stroke-width:0.8;"/>
     </g>
     <g id="text_23">
      <!-- season_SUMMER days_since_2011 -->
      <g style="fill:#262626;" transform="translate(52.40625 170.173069)scale(0.1 -0.1)">
       <use xlink:href="#ArialMT-115"/>
       <use x="50" xlink:href="#ArialMT-101"/>
       <use x="105.615234" xlink:href="#ArialMT-97"/>
       <use x="161.230469" xlink:href="#ArialMT-115"/>
       <use x="211.230469" xlink:href="#ArialMT-111"/>
       <use x="266.845703" xlink:href="#ArialMT-110"/>
       <use x="322.460938" xlink:href="#ArialMT-95"/>
       <use x="378.076172" xlink:href="#ArialMT-83"/>
       <use x="444.775391" xlink:href="#ArialMT-85"/>
       <use x="516.992188" xlink:href="#ArialMT-77"/>
       <use x="600.292969" xlink:href="#ArialMT-77"/>
       <use x="683.59375" xlink:href="#ArialMT-69"/>
       <use x="750.292969" xlink:href="#ArialMT-82"/>
       <use x="822.509766" xlink:href="#ArialMT-32"/>
       <use x="850.292969" xlink:href="#ArialMT-100"/>
       <use x="905.908203" xlink:href="#ArialMT-97"/>
       <use x="961.523438" xlink:href="#ArialMT-121"/>
       <use x="1011.523438" xlink:href="#ArialMT-115"/>
       <use x="1061.523438" xlink:href="#ArialMT-95"/>
       <use x="1117.138672" xlink:href="#ArialMT-115"/>
       <use x="1167.138672" xlink:href="#ArialMT-105"/>
       <use x="1189.355469" xlink:href="#ArialMT-110"/>
       <use x="1244.970703" xlink:href="#ArialMT-99"/>
       <use x="1294.970703" xlink:href="#ArialMT-101"/>
       <use x="1350.585938" xlink:href="#ArialMT-95"/>
       <use x="1406.201172" xlink:href="#ArialMT-50"/>
       <use x="1461.816406" xlink:href="#ArialMT-48"/>
       <use x="1517.431641" xlink:href="#ArialMT-49"/>
       <use x="1565.671875" xlink:href="#ArialMT-49"/>
      </g>
     </g>
    </g>
    <g id="ytick_17">
     <g id="line2d_23">
      <path clip-path="url(#p8caed0912f)" d="M 221.526563 151.312425 
L 500.526562 151.312425 
" style="fill:none;stroke:#cccccc;stroke-linecap:round;stroke-width:0.8;"/>
     </g>
     <g id="text_24">
      <!-- windspeed -->
      <g style="fill:#262626;" transform="translate(166.717188 154.891331)scale(0.1 -0.1)">
       <use xlink:href="#ArialMT-119"/>
       <use x="72.216797" xlink:href="#ArialMT-105"/>
       <use x="94.433594" xlink:href="#ArialMT-110"/>
       <use x="150.048828" xlink:href="#ArialMT-100"/>
       <use x="205.664062" xlink:href="#ArialMT-115"/>
       <use x="255.664062" xlink:href="#ArialMT-112"/>
       <use x="311.279297" xlink:href="#ArialMT-101"/>
       <use x="366.894531" xlink:href="#ArialMT-101"/>
       <use x="422.509766" xlink:href="#ArialMT-100"/>
      </g>
     </g>
    </g>
    <g id="ytick_18">
     <g id="line2d_24">
      <path clip-path="url(#p8caed0912f)" d="M 221.526563 136.091625 
L 500.526562 136.091625 
" style="fill:none;stroke:#cccccc;stroke-linecap:round;stroke-width:0.8;"/>
     </g>
     <g id="text_25">
      <!-- hum -->
      <g style="fill:#262626;" transform="translate(195.075 139.670531)scale(0.1 -0.1)">
       <use xlink:href="#ArialMT-104"/>
       <use x="55.615234" xlink:href="#ArialMT-117"/>
       <use x="111.230469" xlink:href="#ArialMT-109"/>
      </g>
     </g>
    </g>
    <g id="ytick_19">
     <g id="line2d_25">
      <path clip-path="url(#p8caed0912f)" d="M 221.526563 120.870825 
L 500.526562 120.870825 
" style="fill:none;stroke:#cccccc;stroke-linecap:round;stroke-width:0.8;"/>
     </g>
     <g id="text_26">
      <!-- mnth_JUL -->
      <g style="fill:#262626;" transform="translate(168.953125 124.449731)scale(0.1 -0.1)">
       <defs>
        <path d="M 7.328125 0 
L 7.328125 71.578125 
L 16.796875 71.578125 
L 16.796875 8.453125 
L 52.046875 8.453125 
L 52.046875 0 
z
" id="ArialMT-76"/>
       </defs>
       <use xlink:href="#ArialMT-109"/>
       <use x="83.300781" xlink:href="#ArialMT-110"/>
       <use x="138.916016" xlink:href="#ArialMT-116"/>
       <use x="166.699219" xlink:href="#ArialMT-104"/>
       <use x="222.314453" xlink:href="#ArialMT-95"/>
       <use x="277.929688" xlink:href="#ArialMT-74"/>
       <use x="327.929688" xlink:href="#ArialMT-85"/>
       <use x="400.146484" xlink:href="#ArialMT-76"/>
      </g>
     </g>
    </g>
    <g id="ytick_20">
     <g id="line2d_26">
      <path clip-path="url(#p8caed0912f)" d="M 221.526563 105.650025 
L 500.526562 105.650025 
" style="fill:none;stroke:#cccccc;stroke-linecap:round;stroke-width:0.8;"/>
     </g>
     <g id="text_27">
      <!-- holiday_NO HOLIDAY -->
      <g style="fill:#262626;" transform="translate(116.335938 109.292994)scale(0.1 -0.1)">
       <defs>
        <path d="M 6.390625 0 
L 6.390625 71.578125 
L 15.1875 71.578125 
L 15.1875 0 
z
" id="ArialMT-108"/>
        <path d="M 8.015625 0 
L 8.015625 71.578125 
L 17.484375 71.578125 
L 17.484375 42.1875 
L 54.6875 42.1875 
L 54.6875 71.578125 
L 64.15625 71.578125 
L 64.15625 0 
L 54.6875 0 
L 54.6875 33.734375 
L 17.484375 33.734375 
L 17.484375 0 
z
" id="ArialMT-72"/>
       </defs>
       <use xlink:href="#ArialMT-104"/>
       <use x="55.615234" xlink:href="#ArialMT-111"/>
       <use x="111.230469" xlink:href="#ArialMT-108"/>
       <use x="133.447266" xlink:href="#ArialMT-105"/>
       <use x="155.664062" xlink:href="#ArialMT-100"/>
       <use x="211.279297" xlink:href="#ArialMT-97"/>
       <use x="266.894531" xlink:href="#ArialMT-121"/>
       <use x="316.894531" xlink:href="#ArialMT-95"/>
       <use x="372.509766" xlink:href="#ArialMT-78"/>
       <use x="444.726562" xlink:href="#ArialMT-79"/>
       <use x="522.509766" xlink:href="#ArialMT-32"/>
       <use x="550.292969" xlink:href="#ArialMT-72"/>
       <use x="622.509766" xlink:href="#ArialMT-79"/>
       <use x="700.292969" xlink:href="#ArialMT-76"/>
       <use x="755.908203" xlink:href="#ArialMT-73"/>
       <use x="783.691406" xlink:href="#ArialMT-68"/>
       <use x="855.908203" xlink:href="#ArialMT-65"/>
       <use x="915.232422" xlink:href="#ArialMT-89"/>
      </g>
     </g>
    </g>
    <g id="ytick_21">
     <g id="line2d_27">
      <path clip-path="url(#p8caed0912f)" d="M 221.526563 90.429225 
L 500.526562 90.429225 
" style="fill:none;stroke:#cccccc;stroke-linecap:round;stroke-width:0.8;"/>
     </g>
     <g id="text_28">
      <!-- mnth_JUL temp -->
      <g style="fill:#262626;" transform="translate(144.320312 94.008131)scale(0.1 -0.1)">
       <use xlink:href="#ArialMT-109"/>
       <use x="83.300781" xlink:href="#ArialMT-110"/>
       <use x="138.916016" xlink:href="#ArialMT-116"/>
       <use x="166.699219" xlink:href="#ArialMT-104"/>
       <use x="222.314453" xlink:href="#ArialMT-95"/>
       <use x="277.929688" xlink:href="#ArialMT-74"/>
       <use x="327.929688" xlink:href="#ArialMT-85"/>
       <use x="400.146484" xlink:href="#ArialMT-76"/>
       <use x="452.011719" xlink:href="#ArialMT-32"/>
       <use x="479.794922" xlink:href="#ArialMT-116"/>
       <use x="507.578125" xlink:href="#ArialMT-101"/>
       <use x="563.193359" xlink:href="#ArialMT-109"/>
       <use x="646.494141" xlink:href="#ArialMT-112"/>
      </g>
     </g>
    </g>
    <g id="ytick_22">
     <g id="line2d_28">
      <path clip-path="url(#p8caed0912f)" d="M 221.526563 75.208425 
L 500.526562 75.208425 
" style="fill:none;stroke:#cccccc;stroke-linecap:round;stroke-width:0.8;"/>
     </g>
     <g id="text_29">
      <!-- season_SPRING -->
      <g style="fill:#262626;" transform="translate(138.38125 78.848269)scale(0.1 -0.1)">
       <use xlink:href="#ArialMT-115"/>
       <use x="50" xlink:href="#ArialMT-101"/>
       <use x="105.615234" xlink:href="#ArialMT-97"/>
       <use x="161.230469" xlink:href="#ArialMT-115"/>
       <use x="211.230469" xlink:href="#ArialMT-111"/>
       <use x="266.845703" xlink:href="#ArialMT-110"/>
       <use x="322.460938" xlink:href="#ArialMT-95"/>
       <use x="378.076172" xlink:href="#ArialMT-83"/>
       <use x="444.775391" xlink:href="#ArialMT-80"/>
       <use x="511.474609" xlink:href="#ArialMT-82"/>
       <use x="583.691406" xlink:href="#ArialMT-73"/>
       <use x="611.474609" xlink:href="#ArialMT-78"/>
       <use x="683.691406" xlink:href="#ArialMT-71"/>
      </g>
     </g>
    </g>
    <g id="ytick_23">
     <g id="line2d_29">
      <path clip-path="url(#p8caed0912f)" d="M 221.526563 59.987625 
L 500.526562 59.987625 
" style="fill:none;stroke:#cccccc;stroke-linecap:round;stroke-width:0.8;"/>
     </g>
     <g id="text_30">
      <!-- yr -->
      <g style="fill:#262626;" transform="translate(206.196875 63.507937)scale(0.1 -0.1)">
       <use xlink:href="#ArialMT-121"/>
       <use x="50" xlink:href="#ArialMT-114"/>
      </g>
     </g>
    </g>
    <g id="ytick_24">
     <g id="line2d_30">
      <path clip-path="url(#p8caed0912f)" d="M 221.526563 44.766825 
L 500.526562 44.766825 
" style="fill:none;stroke:#cccccc;stroke-linecap:round;stroke-width:0.8;"/>
     </g>
     <g id="text_31">
      <!-- days_since_2011 yr -->
      <g style="fill:#262626;" transform="translate(126.325 48.360575)scale(0.1 -0.1)">
       <use xlink:href="#ArialMT-100"/>
       <use x="55.615234" xlink:href="#ArialMT-97"/>
       <use x="111.230469" xlink:href="#ArialMT-121"/>
       <use x="161.230469" xlink:href="#ArialMT-115"/>
       <use x="211.230469" xlink:href="#ArialMT-95"/>
       <use x="266.845703" xlink:href="#ArialMT-115"/>
       <use x="316.845703" xlink:href="#ArialMT-105"/>
       <use x="339.0625" xlink:href="#ArialMT-110"/>
       <use x="394.677734" xlink:href="#ArialMT-99"/>
       <use x="444.677734" xlink:href="#ArialMT-101"/>
       <use x="500.292969" xlink:href="#ArialMT-95"/>
       <use x="555.908203" xlink:href="#ArialMT-50"/>
       <use x="611.523438" xlink:href="#ArialMT-48"/>
       <use x="667.138672" xlink:href="#ArialMT-49"/>
       <use x="715.378906" xlink:href="#ArialMT-49"/>
       <use x="770.994141" xlink:href="#ArialMT-32"/>
       <use x="798.777344" xlink:href="#ArialMT-121"/>
       <use x="848.777344" xlink:href="#ArialMT-114"/>
      </g>
     </g>
    </g>
    <g id="ytick_25">
     <g id="line2d_31">
      <path clip-path="url(#p8caed0912f)" d="M 221.526563 29.546025 
L 500.526562 29.546025 
" style="fill:none;stroke:#cccccc;stroke-linecap:round;stroke-width:0.8;"/>
     </g>
     <g id="text_32">
      <!-- temp -->
      <g style="fill:#262626;" transform="translate(192.296875 33.124931)scale(0.1 -0.1)">
       <use xlink:href="#ArialMT-116"/>
       <use x="27.783203" xlink:href="#ArialMT-101"/>
       <use x="83.398438" xlink:href="#ArialMT-109"/>
       <use x="166.699219" xlink:href="#ArialMT-112"/>
      </g>
     </g>
    </g>
   </g>
   <g id="patch_3">
    <path clip-path="url(#p8caed0912f)" d="M 221.526563 398.650425 
L 248.566697 398.650425 
L 248.566697 391.040025 
L 221.526563 391.040025 
z
" style="fill:#4c72b0;stroke:#ffffff;stroke-linejoin:miter;"/>
   </g>
   <g id="patch_4">
    <path clip-path="url(#p8caed0912f)" d="M 221.526563 383.429625 
L 249.186636 383.429625 
L 249.186636 375.819225 
L 221.526563 375.819225 
z
" style="fill:#4c72b0;stroke:#ffffff;stroke-linejoin:miter;"/>
   </g>
   <g id="patch_5">
    <path clip-path="url(#p8caed0912f)" d="M 221.526563 368.208825 
L 251.980632 368.208825 
L 251.980632 360.598425 
L 221.526563 360.598425 
z
" style="fill:#4c72b0;stroke:#ffffff;stroke-linejoin:miter;"/>
   </g>
   <g id="patch_6">
    <path clip-path="url(#p8caed0912f)" d="M 221.526563 352.988025 
L 257.502948 352.988025 
L 257.502948 345.377625 
L 221.526563 345.377625 
z
" style="fill:#4c72b0;stroke:#ffffff;stroke-linejoin:miter;"/>
   </g>
   <g id="patch_7">
    <path clip-path="url(#p8caed0912f)" d="M 221.526563 337.767225 
L 260.564266 337.767225 
L 260.564266 330.156825 
L 221.526563 330.156825 
z
" style="fill:#4c72b0;stroke:#ffffff;stroke-linejoin:miter;"/>
   </g>
   <g id="patch_8">
    <path clip-path="url(#p8caed0912f)" d="M 221.526563 322.546425 
L 262.635964 322.546425 
L 262.635964 314.936025 
L 221.526563 314.936025 
z
" style="fill:#4c72b0;stroke:#ffffff;stroke-linejoin:miter;"/>
   </g>
   <g id="patch_9">
    <path clip-path="url(#p8caed0912f)" d="M 221.526563 307.325625 
L 264.241647 307.325625 
L 264.241647 299.715225 
L 221.526563 299.715225 
z
" style="fill:#4c72b0;stroke:#ffffff;stroke-linejoin:miter;"/>
   </g>
   <g id="patch_10">
    <path clip-path="url(#p8caed0912f)" d="M 221.526563 292.104825 
L 264.722937 292.104825 
L 264.722937 284.494425 
L 221.526563 284.494425 
z
" style="fill:#4c72b0;stroke:#ffffff;stroke-linejoin:miter;"/>
   </g>
   <g id="patch_11">
    <path clip-path="url(#p8caed0912f)" d="M 221.526563 276.884025 
L 265.431371 276.884025 
L 265.431371 269.273625 
L 221.526563 269.273625 
z
" style="fill:#4c72b0;stroke:#ffffff;stroke-linejoin:miter;"/>
   </g>
   <g id="patch_12">
    <path clip-path="url(#p8caed0912f)" d="M 221.526563 261.663225 
L 267.090541 261.663225 
L 267.090541 254.052825 
L 221.526563 254.052825 
z
" style="fill:#4c72b0;stroke:#ffffff;stroke-linejoin:miter;"/>
   </g>
   <g id="patch_13">
    <path clip-path="url(#p8caed0912f)" d="M 221.526563 246.442425 
L 276.419558 246.442425 
L 276.419558 238.832025 
L 221.526563 238.832025 
z
" style="fill:#4c72b0;stroke:#ffffff;stroke-linejoin:miter;"/>
   </g>
   <g id="patch_14">
    <path clip-path="url(#p8caed0912f)" d="M 221.526563 231.221625 
L 279.092354 231.221625 
L 279.092354 223.611225 
L 221.526563 223.611225 
z
" style="fill:#4c72b0;stroke:#ffffff;stroke-linejoin:miter;"/>
   </g>
   <g id="patch_15">
    <path clip-path="url(#p8caed0912f)" d="M 221.526563 216.000825 
L 279.295278 216.000825 
L 279.295278 208.390425 
L 221.526563 208.390425 
z
" style="fill:#4c72b0;stroke:#ffffff;stroke-linejoin:miter;"/>
   </g>
   <g id="patch_16">
    <path clip-path="url(#p8caed0912f)" d="M 221.526563 200.780025 
L 284.290978 200.780025 
L 284.290978 193.169625 
L 221.526563 193.169625 
z
" style="fill:#4c72b0;stroke:#ffffff;stroke-linejoin:miter;"/>
   </g>
   <g id="patch_17">
    <path clip-path="url(#p8caed0912f)" d="M 221.526563 185.559225 
L 290.402778 185.559225 
L 290.402778 177.948825 
L 221.526563 177.948825 
z
" style="fill:#4c72b0;stroke:#ffffff;stroke-linejoin:miter;"/>
   </g>
   <g id="patch_18">
    <path clip-path="url(#p8caed0912f)" d="M 221.526563 170.338425 
L 295.054091 170.338425 
L 295.054091 162.728025 
L 221.526563 162.728025 
z
" style="fill:#4c72b0;stroke:#ffffff;stroke-linejoin:miter;"/>
   </g>
   <g id="patch_19">
    <path clip-path="url(#p8caed0912f)" d="M 221.526563 155.117625 
L 319.946528 155.117625 
L 319.946528 147.507225 
L 221.526563 147.507225 
z
" style="fill:#4c72b0;stroke:#ffffff;stroke-linejoin:miter;"/>
   </g>
   <g id="patch_20">
    <path clip-path="url(#p8caed0912f)" d="M 221.526563 139.896825 
L 331.309254 139.896825 
L 331.309254 132.286425 
L 221.526563 132.286425 
z
" style="fill:#4c72b0;stroke:#ffffff;stroke-linejoin:miter;"/>
   </g>
   <g id="patch_21">
    <path clip-path="url(#p8caed0912f)" d="M 221.526563 124.676025 
L 333.485429 124.676025 
L 333.485429 117.065625 
L 221.526563 117.065625 
z
" style="fill:#4c72b0;stroke:#ffffff;stroke-linejoin:miter;"/>
   </g>
   <g id="patch_22">
    <path clip-path="url(#p8caed0912f)" d="M 221.526563 109.455225 
L 355.360416 109.455225 
L 355.360416 101.844825 
L 221.526563 101.844825 
z
" style="fill:#4c72b0;stroke:#ffffff;stroke-linejoin:miter;"/>
   </g>
   <g id="patch_23">
    <path clip-path="url(#p8caed0912f)" d="M 221.526563 94.234425 
L 380.507705 94.234425 
L 380.507705 86.624025 
L 221.526563 86.624025 
z
" style="fill:#4c72b0;stroke:#ffffff;stroke-linejoin:miter;"/>
   </g>
   <g id="patch_24">
    <path clip-path="url(#p8caed0912f)" d="M 221.526563 79.013625 
L 397.865717 79.013625 
L 397.865717 71.403225 
L 221.526563 71.403225 
z
" style="fill:#4c72b0;stroke:#ffffff;stroke-linejoin:miter;"/>
   </g>
   <g id="patch_25">
    <path clip-path="url(#p8caed0912f)" d="M 221.526563 63.792825 
L 406.340014 63.792825 
L 406.340014 56.182425 
L 221.526563 56.182425 
z
" style="fill:#4c72b0;stroke:#ffffff;stroke-linejoin:miter;"/>
   </g>
   <g id="patch_26">
    <path clip-path="url(#p8caed0912f)" d="M 221.526563 48.572025 
L 415.374611 48.572025 
L 415.374611 40.961625 
L 221.526563 40.961625 
z
" style="fill:#4c72b0;stroke:#ffffff;stroke-linejoin:miter;"/>
   </g>
   <g id="patch_27">
    <path clip-path="url(#p8caed0912f)" d="M 221.526563 33.351225 
L 487.240848 33.351225 
L 487.240848 25.740825 
L 221.526563 25.740825 
z
" style="fill:#4c72b0;stroke:#ffffff;stroke-linejoin:miter;"/>
   </g>
   <g id="patch_28">
    <path d="M 221.526563 402.455625 
L 221.526563 21.935625 
" style="fill:none;stroke:#ffffff;stroke-linecap:square;stroke-linejoin:miter;stroke-width:0.8;"/>
   </g>
   <g id="patch_29">
    <path d="M 500.526562 402.455625 
L 500.526562 21.935625 
" style="fill:none;stroke:#ffffff;stroke-linecap:square;stroke-linejoin:miter;stroke-width:0.8;"/>
   </g>
   <g id="patch_30">
    <path d="M 221.526563 402.455625 
L 500.526562 402.455625 
" style="fill:none;stroke:#ffffff;stroke-linecap:square;stroke-linejoin:miter;stroke-width:0.8;"/>
   </g>
   <g id="patch_31">
    <path d="M 221.526563 21.935625 
L 500.526562 21.935625 
" style="fill:none;stroke:#ffffff;stroke-linecap:square;stroke-linejoin:miter;stroke-width:0.8;"/>
   </g>
   <g id="text_33">
    <!-- Mean Absolute Weight Effect - Linear Model (Top 25) -->
    <g style="fill:#262626;" transform="translate(220.508437 15.935625)scale(0.12 -0.12)">
     <defs>
      <path d="M 14.703125 0 
L 6.546875 0 
L 6.546875 71.578125 
L 15.328125 71.578125 
L 15.328125 46.046875 
Q 20.90625 53.03125 29.546875 53.03125 
Q 34.328125 53.03125 38.59375 51.09375 
Q 42.875 49.171875 45.625 45.671875 
Q 48.390625 42.1875 49.953125 37.25 
Q 51.515625 32.328125 51.515625 26.703125 
Q 51.515625 13.375 44.921875 6.09375 
Q 38.328125 -1.171875 29.109375 -1.171875 
Q 19.921875 -1.171875 14.703125 6.5 
z
M 14.59375 26.3125 
Q 14.59375 17 17.140625 12.84375 
Q 21.296875 6.0625 28.375 6.0625 
Q 34.125 6.0625 38.328125 11.0625 
Q 42.53125 16.0625 42.53125 25.984375 
Q 42.53125 36.140625 38.5 40.96875 
Q 34.46875 45.796875 28.765625 45.796875 
Q 23 45.796875 18.796875 40.796875 
Q 14.59375 35.796875 14.59375 26.3125 
z
" id="ArialMT-98"/>
      <path d="M 3.171875 21.484375 
L 3.171875 30.328125 
L 30.171875 30.328125 
L 30.171875 21.484375 
z
" id="ArialMT-45"/>
      <path d="M 23.390625 -21.046875 
Q 16.109375 -11.859375 11.078125 0.4375 
Q 6.0625 12.75 6.0625 25.921875 
Q 6.0625 37.546875 9.8125 48.1875 
Q 14.203125 60.546875 23.390625 72.796875 
L 29.6875 72.796875 
Q 23.78125 62.640625 21.875 58.296875 
Q 18.890625 51.5625 17.1875 44.234375 
Q 15.09375 35.109375 15.09375 25.875 
Q 15.09375 2.390625 29.6875 -21.046875 
z
" id="ArialMT-40"/>
      <path d="M 12.359375 -21.046875 
L 6.0625 -21.046875 
Q 20.65625 2.390625 20.65625 25.875 
Q 20.65625 35.0625 18.5625 44.09375 
Q 16.890625 51.421875 13.921875 58.15625 
Q 12.015625 62.546875 6.0625 72.796875 
L 12.359375 72.796875 
Q 21.53125 60.546875 25.921875 48.1875 
Q 29.6875 37.546875 29.6875 25.921875 
Q 29.6875 12.75 24.625 0.4375 
Q 19.578125 -11.859375 12.359375 -21.046875 
z
" id="ArialMT-41"/>
     </defs>
     <use xlink:href="#ArialMT-77"/>
     <use x="83.300781" xlink:href="#ArialMT-101"/>
     <use x="138.916016" xlink:href="#ArialMT-97"/>
     <use x="194.53125" xlink:href="#ArialMT-110"/>
     <use x="250.146484" xlink:href="#ArialMT-32"/>
     <use x="272.429688" xlink:href="#ArialMT-65"/>
     <use x="339.128906" xlink:href="#ArialMT-98"/>
     <use x="394.744141" xlink:href="#ArialMT-115"/>
     <use x="444.744141" xlink:href="#ArialMT-111"/>
     <use x="500.359375" xlink:href="#ArialMT-108"/>
     <use x="522.576172" xlink:href="#ArialMT-117"/>
     <use x="578.191406" xlink:href="#ArialMT-116"/>
     <use x="605.974609" xlink:href="#ArialMT-101"/>
     <use x="661.589844" xlink:href="#ArialMT-32"/>
     <use x="689.373047" xlink:href="#ArialMT-87"/>
     <use x="782.007812" xlink:href="#ArialMT-101"/>
     <use x="837.623047" xlink:href="#ArialMT-105"/>
     <use x="859.839844" xlink:href="#ArialMT-103"/>
     <use x="915.455078" xlink:href="#ArialMT-104"/>
     <use x="971.070312" xlink:href="#ArialMT-116"/>
     <use x="998.853516" xlink:href="#ArialMT-32"/>
     <use x="1026.636719" xlink:href="#ArialMT-69"/>
     <use x="1093.335938" xlink:href="#ArialMT-102"/>
     <use x="1119.369141" xlink:href="#ArialMT-102"/>
     <use x="1147.152344" xlink:href="#ArialMT-101"/>
     <use x="1202.767578" xlink:href="#ArialMT-99"/>
     <use x="1252.767578" xlink:href="#ArialMT-116"/>
     <use x="1280.550781" xlink:href="#ArialMT-32"/>
     <use x="1308.333984" xlink:href="#ArialMT-45"/>
     <use x="1341.634766" xlink:href="#ArialMT-32"/>
     <use x="1369.417969" xlink:href="#ArialMT-76"/>
     <use x="1425.033203" xlink:href="#ArialMT-105"/>
     <use x="1447.25" xlink:href="#ArialMT-110"/>
     <use x="1502.865234" xlink:href="#ArialMT-101"/>
     <use x="1558.480469" xlink:href="#ArialMT-97"/>
     <use x="1614.095703" xlink:href="#ArialMT-114"/>
     <use x="1647.396484" xlink:href="#ArialMT-32"/>
     <use x="1675.179688" xlink:href="#ArialMT-77"/>
     <use x="1758.480469" xlink:href="#ArialMT-111"/>
     <use x="1814.095703" xlink:href="#ArialMT-100"/>
     <use x="1869.710938" xlink:href="#ArialMT-101"/>
     <use x="1925.326172" xlink:href="#ArialMT-108"/>
     <use x="1947.542969" xlink:href="#ArialMT-32"/>
     <use x="1975.326172" xlink:href="#ArialMT-40"/>
     <use x="2008.626953" xlink:href="#ArialMT-84"/>
     <use x="2058.585938" xlink:href="#ArialMT-111"/>
     <use x="2114.201172" xlink:href="#ArialMT-112"/>
     <use x="2169.816406" xlink:href="#ArialMT-32"/>
     <use x="2197.599609" xlink:href="#ArialMT-50"/>
     <use x="2253.214844" xlink:href="#ArialMT-53"/>
     <use x="2308.830078" xlink:href="#ArialMT-41"/>
    </g>
   </g>
  </g>
 </g>
 <defs>
  <clipPath id="p8caed0912f">
   <rect height="380.52" width="279" x="221.526563" y="21.935625"/>
  </clipPath>
 </defs>
</svg>
