<?xml version="1.0" encoding="utf-8" standalone="no"?>
<!DOCTYPE svg PUBLIC "-//W3C//DTD SVG 1.1//EN"
  "http://www.w3.org/Graphics/SVG/1.1/DTD/svg11.dtd">
<!-- Created with matplotlib (https://matplotlib.org/) -->
<svg height="371.448438pt" version="1.1" viewBox="0 0 614.789062 371.448438" width="614.789062pt" xmlns="http://www.w3.org/2000/svg" xmlns:xlink="http://www.w3.org/1999/xlink">
 <metadata>
  <rdf:RDF xmlns:cc="http://creativecommons.org/ns#" xmlns:dc="http://purl.org/dc/elements/1.1/" xmlns:rdf="http://www.w3.org/1999/02/22-rdf-syntax-ns#">
   <cc:Work>
    <dc:type rdf:resource="http://purl.org/dc/dcmitype/StillImage"/>
    <dc:date>2021-06-30T17:01:47.853384</dc:date>
    <dc:format>image/svg+xml</dc:format>
    <dc:creator>
     <cc:Agent>
      <dc:title>Matplotlib v3.3.4, https://matplotlib.org/</dc:title>
     </cc:Agent>
    </dc:creator>
   </cc:Work>
  </rdf:RDF>
 </metadata>
 <defs>
  <style type="text/css">*{stroke-linecap:butt;stroke-linejoin:round;}</style>
 </defs>
 <g id="figure_1">
  <g id="patch_1">
   <path d="M 0 371.448438 
L 614.789062 371.448438 
L 614.789062 0 
L 0 0 
z
" style="fill:#ffffff;"/>
  </g>
  <g id="axes_1">
   <g id="patch_2">
    <path d="M 49.589063 348.103125 
L 607.589062 348.103125 
L 607.589062 21.943125 
L 49.589063 21.943125 
z
" style="fill:#e6e6e6;"/>
   </g>
   <g id="matplotlib.axis_1">
    <g id="xtick_1">
     <g id="line2d_1">
      <path clip-path="url(#p2f819cdc35)" d="M 74.952699 348.103125 
L 74.952699 21.943125 
" style="fill:none;stroke:#cccccc;stroke-linecap:round;stroke-width:0.8;"/>
     </g>
     <g id="text_1">
      <!-- 0 -->
      <g style="fill:#262626;" transform="translate(72.17223 362.260938)scale(0.1 -0.1)">
       <defs>
        <path d="M 4.15625 35.296875 
Q 4.15625 48 6.765625 55.734375 
Q 9.375 63.484375 14.515625 67.671875 
Q 19.671875 71.875 27.484375 71.875 
Q 33.25 71.875 37.59375 69.546875 
Q 41.9375 67.234375 44.765625 62.859375 
Q 47.609375 58.5 49.21875 52.21875 
Q 50.828125 45.953125 50.828125 35.296875 
Q 50.828125 22.703125 48.234375 14.96875 
Q 45.65625 7.234375 40.5 3 
Q 35.359375 -1.21875 27.484375 -1.21875 
Q 17.140625 -1.21875 11.234375 6.203125 
Q 4.15625 15.140625 4.15625 35.296875 
z
M 13.1875 35.296875 
Q 13.1875 17.671875 17.3125 11.828125 
Q 21.4375 6 27.484375 6 
Q 33.546875 6 37.671875 11.859375 
Q 41.796875 17.71875 41.796875 35.296875 
Q 41.796875 52.984375 37.671875 58.78125 
Q 33.546875 64.59375 27.390625 64.59375 
Q 21.34375 64.59375 17.71875 59.46875 
Q 13.1875 52.9375 13.1875 35.296875 
z
" id="ArialMT-48"/>
       </defs>
       <use xlink:href="#ArialMT-48"/>
      </g>
     </g>
    </g>
    <g id="xtick_2">
     <g id="line2d_2">
      <path clip-path="url(#p2f819cdc35)" d="M 144.442114 348.103125 
L 144.442114 21.943125 
" style="fill:none;stroke:#cccccc;stroke-linecap:round;stroke-width:0.8;"/>
     </g>
     <g id="text_2">
      <!-- 20 -->
      <g style="fill:#262626;" transform="translate(138.881176 362.260938)scale(0.1 -0.1)">
       <defs>
        <path d="M 50.34375 8.453125 
L 50.34375 0 
L 3.03125 0 
Q 2.9375 3.171875 4.046875 6.109375 
Q 5.859375 10.9375 9.828125 15.625 
Q 13.8125 20.3125 21.34375 26.46875 
Q 33.015625 36.03125 37.109375 41.625 
Q 41.21875 47.21875 41.21875 52.203125 
Q 41.21875 57.421875 37.46875 61 
Q 33.734375 64.59375 27.734375 64.59375 
Q 21.390625 64.59375 17.578125 60.78125 
Q 13.765625 56.984375 13.71875 50.25 
L 4.6875 51.171875 
Q 5.609375 61.28125 11.65625 66.578125 
Q 17.71875 71.875 27.9375 71.875 
Q 38.234375 71.875 44.234375 66.15625 
Q 50.25 60.453125 50.25 52 
Q 50.25 47.703125 48.484375 43.546875 
Q 46.734375 39.40625 42.65625 34.8125 
Q 38.578125 30.21875 29.109375 22.21875 
Q 21.1875 15.578125 18.9375 13.203125 
Q 16.703125 10.84375 15.234375 8.453125 
z
" id="ArialMT-50"/>
       </defs>
       <use xlink:href="#ArialMT-50"/>
       <use x="55.615234" xlink:href="#ArialMT-48"/>
      </g>
     </g>
    </g>
    <g id="xtick_3">
     <g id="line2d_3">
      <path clip-path="url(#p2f819cdc35)" d="M 213.931528 348.103125 
L 213.931528 21.943125 
" style="fill:none;stroke:#cccccc;stroke-linecap:round;stroke-width:0.8;"/>
     </g>
     <g id="text_3">
      <!-- 40 -->
      <g style="fill:#262626;" transform="translate(208.370591 362.260938)scale(0.1 -0.1)">
       <defs>
        <path d="M 32.328125 0 
L 32.328125 17.140625 
L 1.265625 17.140625 
L 1.265625 25.203125 
L 33.9375 71.578125 
L 41.109375 71.578125 
L 41.109375 25.203125 
L 50.78125 25.203125 
L 50.78125 17.140625 
L 41.109375 17.140625 
L 41.109375 0 
z
M 32.328125 25.203125 
L 32.328125 57.46875 
L 9.90625 25.203125 
z
" id="ArialMT-52"/>
       </defs>
       <use xlink:href="#ArialMT-52"/>
       <use x="55.615234" xlink:href="#ArialMT-48"/>
      </g>
     </g>
    </g>
    <g id="xtick_4">
     <g id="line2d_4">
      <path clip-path="url(#p2f819cdc35)" d="M 283.420943 348.103125 
L 283.420943 21.943125 
" style="fill:none;stroke:#cccccc;stroke-linecap:round;stroke-width:0.8;"/>
     </g>
     <g id="text_4">
      <!-- 60 -->
      <g style="fill:#262626;" transform="translate(277.860005 362.260938)scale(0.1 -0.1)">
       <defs>
        <path d="M 49.75 54.046875 
L 41.015625 53.375 
Q 39.84375 58.546875 37.703125 60.890625 
Q 34.125 64.65625 28.90625 64.65625 
Q 24.703125 64.65625 21.53125 62.3125 
Q 17.390625 59.28125 14.984375 53.46875 
Q 12.59375 47.65625 12.5 36.921875 
Q 15.671875 41.75 20.265625 44.09375 
Q 24.859375 46.4375 29.890625 46.4375 
Q 38.671875 46.4375 44.84375 39.96875 
Q 51.03125 33.5 51.03125 23.25 
Q 51.03125 16.5 48.125 10.71875 
Q 45.21875 4.9375 40.140625 1.859375 
Q 35.0625 -1.21875 28.609375 -1.21875 
Q 17.625 -1.21875 10.6875 6.859375 
Q 3.765625 14.9375 3.765625 33.5 
Q 3.765625 54.25 11.421875 63.671875 
Q 18.109375 71.875 29.4375 71.875 
Q 37.890625 71.875 43.28125 67.140625 
Q 48.6875 62.40625 49.75 54.046875 
z
M 13.875 23.1875 
Q 13.875 18.65625 15.796875 14.5 
Q 17.71875 10.359375 21.1875 8.171875 
Q 24.65625 6 28.46875 6 
Q 34.03125 6 38.03125 10.484375 
Q 42.046875 14.984375 42.046875 22.703125 
Q 42.046875 30.125 38.078125 34.390625 
Q 34.125 38.671875 28.125 38.671875 
Q 22.171875 38.671875 18.015625 34.390625 
Q 13.875 30.125 13.875 23.1875 
z
" id="ArialMT-54"/>
       </defs>
       <use xlink:href="#ArialMT-54"/>
       <use x="55.615234" xlink:href="#ArialMT-48"/>
      </g>
     </g>
    </g>
    <g id="xtick_5">
     <g id="line2d_5">
      <path clip-path="url(#p2f819cdc35)" d="M 352.910358 348.103125 
L 352.910358 21.943125 
" style="fill:none;stroke:#cccccc;stroke-linecap:round;stroke-width:0.8;"/>
     </g>
     <g id="text_5">
      <!-- 80 -->
      <g style="fill:#262626;" transform="translate(347.34942 362.260938)scale(0.1 -0.1)">
       <defs>
        <path d="M 17.671875 38.8125 
Q 12.203125 40.828125 9.5625 44.53125 
Q 6.9375 48.25 6.9375 53.421875 
Q 6.9375 61.234375 12.546875 66.546875 
Q 18.171875 71.875 27.484375 71.875 
Q 36.859375 71.875 42.578125 66.421875 
Q 48.296875 60.984375 48.296875 53.171875 
Q 48.296875 48.1875 45.671875 44.5 
Q 43.0625 40.828125 37.75 38.8125 
Q 44.34375 36.671875 47.78125 31.875 
Q 51.21875 27.09375 51.21875 20.453125 
Q 51.21875 11.28125 44.71875 5.03125 
Q 38.234375 -1.21875 27.640625 -1.21875 
Q 17.046875 -1.21875 10.546875 5.046875 
Q 4.046875 11.328125 4.046875 20.703125 
Q 4.046875 27.6875 7.59375 32.390625 
Q 11.140625 37.109375 17.671875 38.8125 
z
M 15.921875 53.71875 
Q 15.921875 48.640625 19.1875 45.40625 
Q 22.46875 42.1875 27.6875 42.1875 
Q 32.765625 42.1875 36.015625 45.375 
Q 39.265625 48.578125 39.265625 53.21875 
Q 39.265625 58.0625 35.90625 61.359375 
Q 32.5625 64.65625 27.59375 64.65625 
Q 22.5625 64.65625 19.234375 61.421875 
Q 15.921875 58.203125 15.921875 53.71875 
z
M 13.09375 20.65625 
Q 13.09375 16.890625 14.875 13.375 
Q 16.65625 9.859375 20.171875 7.921875 
Q 23.6875 6 27.734375 6 
Q 34.03125 6 38.125 10.046875 
Q 42.234375 14.109375 42.234375 20.359375 
Q 42.234375 26.703125 38.015625 30.859375 
Q 33.796875 35.015625 27.4375 35.015625 
Q 21.234375 35.015625 17.15625 30.90625 
Q 13.09375 26.8125 13.09375 20.65625 
z
" id="ArialMT-56"/>
       </defs>
       <use xlink:href="#ArialMT-56"/>
       <use x="55.615234" xlink:href="#ArialMT-48"/>
      </g>
     </g>
    </g>
    <g id="xtick_6">
     <g id="line2d_6">
      <path clip-path="url(#p2f819cdc35)" d="M 422.399772 348.103125 
L 422.399772 21.943125 
" style="fill:none;stroke:#cccccc;stroke-linecap:round;stroke-width:0.8;"/>
     </g>
     <g id="text_6">
      <!-- 100 -->
      <g style="fill:#262626;" transform="translate(414.058366 362.260938)scale(0.1 -0.1)">
       <defs>
        <path d="M 37.25 0 
L 28.46875 0 
L 28.46875 56 
Q 25.296875 52.984375 20.140625 49.953125 
Q 14.984375 46.921875 10.890625 45.40625 
L 10.890625 53.90625 
Q 18.265625 57.375 23.78125 62.296875 
Q 29.296875 67.234375 31.59375 71.875 
L 37.25 71.875 
z
" id="ArialMT-49"/>
       </defs>
       <use xlink:href="#ArialMT-49"/>
       <use x="55.615234" xlink:href="#ArialMT-48"/>
       <use x="111.230469" xlink:href="#ArialMT-48"/>
      </g>
     </g>
    </g>
    <g id="xtick_7">
     <g id="line2d_7">
      <path clip-path="url(#p2f819cdc35)" d="M 491.889187 348.103125 
L 491.889187 21.943125 
" style="fill:none;stroke:#cccccc;stroke-linecap:round;stroke-width:0.8;"/>
     </g>
     <g id="text_7">
      <!-- 120 -->
      <g style="fill:#262626;" transform="translate(483.547781 362.260938)scale(0.1 -0.1)">
       <use xlink:href="#ArialMT-49"/>
       <use x="55.615234" xlink:href="#ArialMT-50"/>
       <use x="111.230469" xlink:href="#ArialMT-48"/>
      </g>
     </g>
    </g>
    <g id="xtick_8">
     <g id="line2d_8">
      <path clip-path="url(#p2f819cdc35)" d="M 561.378602 348.103125 
L 561.378602 21.943125 
" style="fill:none;stroke:#cccccc;stroke-linecap:round;stroke-width:0.8;"/>
     </g>
     <g id="text_8">
      <!-- 140 -->
      <g style="fill:#262626;" transform="translate(553.037195 362.260938)scale(0.1 -0.1)">
       <use xlink:href="#ArialMT-49"/>
       <use x="55.615234" xlink:href="#ArialMT-52"/>
       <use x="111.230469" xlink:href="#ArialMT-48"/>
      </g>
     </g>
    </g>
   </g>
   <g id="matplotlib.axis_2">
    <g id="ytick_1">
     <g id="line2d_9">
      <path clip-path="url(#p2f819cdc35)" d="M 49.589063 334.028154 
L 607.589062 334.028154 
" style="fill:none;stroke:#cccccc;stroke-linecap:round;stroke-width:0.8;"/>
     </g>
     <g id="text_9">
      <!-- 0 -->
      <g style="fill:#262626;" transform="translate(37.028125 337.60706)scale(0.1 -0.1)">
       <use xlink:href="#ArialMT-48"/>
      </g>
     </g>
    </g>
    <g id="ytick_2">
     <g id="line2d_10">
      <path clip-path="url(#p2f819cdc35)" d="M 49.589063 265.802408 
L 607.589062 265.802408 
" style="fill:none;stroke:#cccccc;stroke-linecap:round;stroke-width:0.8;"/>
     </g>
     <g id="text_10">
      <!-- 2000 -->
      <g style="fill:#262626;" transform="translate(20.345313 269.381314)scale(0.1 -0.1)">
       <use xlink:href="#ArialMT-50"/>
       <use x="55.615234" xlink:href="#ArialMT-48"/>
       <use x="111.230469" xlink:href="#ArialMT-48"/>
       <use x="166.845703" xlink:href="#ArialMT-48"/>
      </g>
     </g>
    </g>
    <g id="ytick_3">
     <g id="line2d_11">
      <path clip-path="url(#p2f819cdc35)" d="M 49.589063 197.576662 
L 607.589062 197.576662 
" style="fill:none;stroke:#cccccc;stroke-linecap:round;stroke-width:0.8;"/>
     </g>
     <g id="text_11">
      <!-- 4000 -->
      <g style="fill:#262626;" transform="translate(20.345313 201.155568)scale(0.1 -0.1)">
       <use xlink:href="#ArialMT-52"/>
       <use x="55.615234" xlink:href="#ArialMT-48"/>
       <use x="111.230469" xlink:href="#ArialMT-48"/>
       <use x="166.845703" xlink:href="#ArialMT-48"/>
      </g>
     </g>
    </g>
    <g id="ytick_4">
     <g id="line2d_12">
      <path clip-path="url(#p2f819cdc35)" d="M 49.589063 129.350916 
L 607.589062 129.350916 
" style="fill:none;stroke:#cccccc;stroke-linecap:round;stroke-width:0.8;"/>
     </g>
     <g id="text_12">
      <!-- 6000 -->
      <g style="fill:#262626;" transform="translate(20.345313 132.929823)scale(0.1 -0.1)">
       <use xlink:href="#ArialMT-54"/>
       <use x="55.615234" xlink:href="#ArialMT-48"/>
       <use x="111.230469" xlink:href="#ArialMT-48"/>
       <use x="166.845703" xlink:href="#ArialMT-48"/>
      </g>
     </g>
    </g>
    <g id="ytick_5">
     <g id="line2d_13">
      <path clip-path="url(#p2f819cdc35)" d="M 49.589063 61.125171 
L 607.589062 61.125171 
" style="fill:none;stroke:#cccccc;stroke-linecap:round;stroke-width:0.8;"/>
     </g>
     <g id="text_13">
      <!-- 8000 -->
      <g style="fill:#262626;" transform="translate(20.345313 64.704077)scale(0.1 -0.1)">
       <use xlink:href="#ArialMT-56"/>
       <use x="55.615234" xlink:href="#ArialMT-48"/>
       <use x="111.230469" xlink:href="#ArialMT-48"/>
       <use x="166.845703" xlink:href="#ArialMT-48"/>
      </g>
     </g>
    </g>
    <g id="text_14">
     <!-- cnt -->
     <g style="fill:#262626;" transform="translate(14.357813 191.692656)rotate(-90)scale(0.1 -0.1)">
      <defs>
       <path d="M 40.4375 19 
L 49.078125 17.875 
Q 47.65625 8.9375 41.8125 3.875 
Q 35.984375 -1.171875 27.484375 -1.171875 
Q 16.84375 -1.171875 10.375 5.78125 
Q 3.90625 12.75 3.90625 25.734375 
Q 3.90625 34.125 6.6875 40.421875 
Q 9.46875 46.734375 15.15625 49.875 
Q 20.84375 53.03125 27.546875 53.03125 
Q 35.984375 53.03125 41.359375 48.75 
Q 46.734375 44.484375 48.25 36.625 
L 39.703125 35.296875 
Q 38.484375 40.53125 35.375 43.15625 
Q 32.28125 45.796875 27.875 45.796875 
Q 21.234375 45.796875 17.078125 41.03125 
Q 12.9375 36.28125 12.9375 25.984375 
Q 12.9375 15.53125 16.9375 10.796875 
Q 20.953125 6.0625 27.390625 6.0625 
Q 32.5625 6.0625 36.03125 9.234375 
Q 39.5 12.40625 40.4375 19 
z
" id="ArialMT-99"/>
       <path d="M 6.59375 0 
L 6.59375 51.859375 
L 14.5 51.859375 
L 14.5 44.484375 
Q 20.21875 53.03125 31 53.03125 
Q 35.6875 53.03125 39.625 51.34375 
Q 43.5625 49.65625 45.515625 46.921875 
Q 47.46875 44.1875 48.25 40.4375 
Q 48.734375 37.984375 48.734375 31.890625 
L 48.734375 0 
L 39.9375 0 
L 39.9375 31.546875 
Q 39.9375 36.921875 38.90625 39.578125 
Q 37.890625 42.234375 35.28125 43.8125 
Q 32.671875 45.40625 29.15625 45.40625 
Q 23.53125 45.40625 19.453125 41.84375 
Q 15.375 38.28125 15.375 28.328125 
L 15.375 0 
z
" id="ArialMT-110"/>
       <path d="M 25.78125 7.859375 
L 27.046875 0.09375 
Q 23.34375 -0.6875 20.40625 -0.6875 
Q 15.625 -0.6875 12.984375 0.828125 
Q 10.359375 2.34375 9.28125 4.8125 
Q 8.203125 7.28125 8.203125 15.1875 
L 8.203125 45.015625 
L 1.765625 45.015625 
L 1.765625 51.859375 
L 8.203125 51.859375 
L 8.203125 64.703125 
L 16.9375 69.96875 
L 16.9375 51.859375 
L 25.78125 51.859375 
L 25.78125 45.015625 
L 16.9375 45.015625 
L 16.9375 14.703125 
Q 16.9375 10.9375 17.40625 9.859375 
Q 17.875 8.796875 18.921875 8.15625 
Q 19.96875 7.515625 21.921875 7.515625 
Q 23.390625 7.515625 25.78125 7.859375 
z
" id="ArialMT-116"/>
      </defs>
      <use xlink:href="#ArialMT-99"/>
      <use x="50" xlink:href="#ArialMT-110"/>
      <use x="105.615234" xlink:href="#ArialMT-116"/>
     </g>
    </g>
   </g>
   <g id="line2d_14">
    <path clip-path="url(#p2f819cdc35)" d="M 74.952699 91.916208 
L 78.42717 91.628444 
L 81.90164 81.163679 
L 85.376111 133.080152 
L 88.850582 125.13931 
L 92.325053 70.049287 
L 95.799523 72.186832 
L 99.273994 87.902035 
L 102.748465 84.504105 
L 106.222935 67.979953 
L 109.697406 89.198188 
L 113.171877 83.40623 
L 116.646348 85.340149 
L 120.120818 109.031576 
L 123.595289 67.651201 
L 127.06976 71.228926 
L 130.544231 68.435587 
L 134.018701 67.787331 
L 137.493172 134.358936 
L 140.967643 158.437478 
L 144.442114 89.071687 
L 147.916584 80.552158 
L 151.391055 62.769419 
L 154.865526 61.43423 
L 158.339996 76.098098 
L 161.814467 52.80284 
L 165.288938 92.670655 
L 168.763409 99.587023 
L 172.237879 89.007926 
L 175.71235 85.478229 
L 179.186821 108.546729 
L 182.661292 88.672696 
L 186.135762 143.453973 
L 189.610233 93.80218 
L 193.084704 82.199995 
L 196.559175 63.574064 
L 200.033645 74.990656 
L 203.508116 74.968041 
L 206.982587 79.753703 
L 210.457058 73.148712 
L 213.931528 78.180591 
L 217.405999 119.069271 
L 220.88047 170.329486 
L 224.35494 80.771058 
L 227.829411 80.665434 
L 231.303882 86.159777 
L 234.778353 94.234528 
L 238.252823 85.664296 
L 241.727294 68.835743 
L 245.201765 77.058825 
L 248.676236 75.937921 
L 252.150706 93.54736 
L 255.625177 98.98345 
L 259.099648 73.032026 
L 262.574119 89.531275 
L 266.048589 97.668661 
L 269.52306 163.093463 
L 272.997531 92.513082 
L 276.472001 93.144202 
L 279.946472 61.727116 
L 283.420943 105.452453 
L 290.369884 172.393941 
L 293.844355 151.13467 
L 297.318826 90.162346 
L 300.793297 91.273931 
L 304.267767 94.502242 
L 307.742238 89.357402 
L 311.216709 117.386981 
L 314.69118 142.977949 
L 318.16565 83.914269 
L 321.640121 95.602731 
L 325.114592 140.48138 
L 328.589062 127.154655 
L 332.063533 74.680867 
L 335.538004 89.004568 
L 339.012475 70.844962 
L 342.486945 67.4439 
L 345.961416 60.125611 
L 349.435887 125.990381 
L 352.910358 127.897915 
L 356.384828 137.07777 
L 359.859299 189.87107 
L 363.33377 222.221701 
L 366.808241 194.47104 
L 370.282711 153.558071 
L 373.757182 145.238198 
L 377.231653 116.355634 
L 380.706124 150.382556 
L 384.180594 142.954606 
L 387.655065 123.213598 
L 391.129536 128.42984 
L 394.604006 172.630637 
L 398.078477 110.735777 
L 401.552948 112.689533 
L 405.027419 106.251175 
L 408.501889 125.826192 
L 411.97636 127.260628 
L 415.450831 177.581264 
L 418.925302 129.778251 
L 422.399772 157.018079 
L 425.874243 109.965157 
L 429.348714 126.412542 
L 432.823185 159.80501 
L 436.297655 150.950355 
L 439.772126 136.565523 
L 443.246597 115.390122 
L 446.721067 136.579419 
L 450.195538 107.4566 
L 453.670009 144.952291 
L 457.14448 146.67091 
L 460.61895 107.516526 
L 464.093421 192.595848 
L 467.567892 122.392468 
L 471.042363 129.351619 
L 474.516833 119.708516 
L 477.991304 163.965381 
L 481.465775 177.768059 
L 484.940246 86.490937 
L 488.414716 89.062105 
L 491.889187 95.641905 
L 495.363658 124.785706 
L 498.838129 162.624108 
L 502.312599 169.024326 
L 505.78707 190.499549 
L 509.261541 171.240792 
L 512.736011 156.239518 
L 516.210482 142.240011 
L 519.684953 111.88099 
L 523.159424 120.553384 
L 526.633894 117.792878 
L 530.108365 167.235148 
L 533.582836 155.267825 
L 537.057307 102.952365 
L 540.531777 116.814813 
L 544.006248 143.275281 
L 547.480719 194.678974 
L 550.95519 205.415551 
L 554.42966 172.818312 
L 557.904131 189.740366 
L 561.378602 209.567033 
L 564.853072 238.602385 
L 568.327543 211.122137 
L 571.802014 175.497642 
L 575.276485 205.867591 
L 578.750955 211.876307 
L 582.225426 186.04546 
L 582.225426 186.04546 
" style="fill:none;stroke:#4c72b0;stroke-linecap:round;stroke-width:1.5;"/>
    <defs>
     <path d="M 0 2 
C 0.530406 2 1.03916 1.789267 1.414214 1.414214 
C 1.789267 1.03916 2 0.530406 2 0 
C 2 -0.530406 1.789267 -1.03916 1.414214 -1.414214 
C 1.03916 -1.789267 0.530406 -2 0 -2 
C -0.530406 -2 -1.03916 -1.789267 -1.414214 -1.414214 
C -1.789267 -1.03916 -2 -0.530406 -2 0 
C -2 0.530406 -1.789267 1.03916 -1.414214 1.414214 
C -1.03916 1.789267 -0.530406 2 0 2 
z
" id="m2d3ea1af3e" style="stroke:#ffffff;stroke-width:0.75;"/>
    </defs>
    <g clip-path="url(#p2f819cdc35)">
     <use style="fill:#4c72b0;stroke:#ffffff;stroke-width:0.75;" x="74.952699" xlink:href="#m2d3ea1af3e" y="91.916208"/>
     <use style="fill:#4c72b0;stroke:#ffffff;stroke-width:0.75;" x="78.42717" xlink:href="#m2d3ea1af3e" y="91.628444"/>
     <use style="fill:#4c72b0;stroke:#ffffff;stroke-width:0.75;" x="81.90164" xlink:href="#m2d3ea1af3e" y="81.163679"/>
     <use style="fill:#4c72b0;stroke:#ffffff;stroke-width:0.75;" x="85.376111" xlink:href="#m2d3ea1af3e" y="133.080152"/>
     <use style="fill:#4c72b0;stroke:#ffffff;stroke-width:0.75;" x="88.850582" xlink:href="#m2d3ea1af3e" y="125.13931"/>
     <use style="fill:#4c72b0;stroke:#ffffff;stroke-width:0.75;" x="92.325053" xlink:href="#m2d3ea1af3e" y="70.049287"/>
     <use style="fill:#4c72b0;stroke:#ffffff;stroke-width:0.75;" x="95.799523" xlink:href="#m2d3ea1af3e" y="72.186832"/>
     <use style="fill:#4c72b0;stroke:#ffffff;stroke-width:0.75;" x="99.273994" xlink:href="#m2d3ea1af3e" y="87.902035"/>
     <use style="fill:#4c72b0;stroke:#ffffff;stroke-width:0.75;" x="102.748465" xlink:href="#m2d3ea1af3e" y="84.504105"/>
     <use style="fill:#4c72b0;stroke:#ffffff;stroke-width:0.75;" x="106.222935" xlink:href="#m2d3ea1af3e" y="67.979953"/>
     <use style="fill:#4c72b0;stroke:#ffffff;stroke-width:0.75;" x="109.697406" xlink:href="#m2d3ea1af3e" y="89.198188"/>
     <use style="fill:#4c72b0;stroke:#ffffff;stroke-width:0.75;" x="113.171877" xlink:href="#m2d3ea1af3e" y="83.40623"/>
     <use style="fill:#4c72b0;stroke:#ffffff;stroke-width:0.75;" x="116.646348" xlink:href="#m2d3ea1af3e" y="85.340149"/>
     <use style="fill:#4c72b0;stroke:#ffffff;stroke-width:0.75;" x="120.120818" xlink:href="#m2d3ea1af3e" y="109.031576"/>
     <use style="fill:#4c72b0;stroke:#ffffff;stroke-width:0.75;" x="123.595289" xlink:href="#m2d3ea1af3e" y="67.651201"/>
     <use style="fill:#4c72b0;stroke:#ffffff;stroke-width:0.75;" x="127.06976" xlink:href="#m2d3ea1af3e" y="71.228926"/>
     <use style="fill:#4c72b0;stroke:#ffffff;stroke-width:0.75;" x="130.544231" xlink:href="#m2d3ea1af3e" y="68.435587"/>
     <use style="fill:#4c72b0;stroke:#ffffff;stroke-width:0.75;" x="134.018701" xlink:href="#m2d3ea1af3e" y="67.787331"/>
     <use style="fill:#4c72b0;stroke:#ffffff;stroke-width:0.75;" x="137.493172" xlink:href="#m2d3ea1af3e" y="134.358936"/>
     <use style="fill:#4c72b0;stroke:#ffffff;stroke-width:0.75;" x="140.967643" xlink:href="#m2d3ea1af3e" y="158.437478"/>
     <use style="fill:#4c72b0;stroke:#ffffff;stroke-width:0.75;" x="144.442114" xlink:href="#m2d3ea1af3e" y="89.071687"/>
     <use style="fill:#4c72b0;stroke:#ffffff;stroke-width:0.75;" x="147.916584" xlink:href="#m2d3ea1af3e" y="80.552158"/>
     <use style="fill:#4c72b0;stroke:#ffffff;stroke-width:0.75;" x="151.391055" xlink:href="#m2d3ea1af3e" y="62.769419"/>
     <use style="fill:#4c72b0;stroke:#ffffff;stroke-width:0.75;" x="154.865526" xlink:href="#m2d3ea1af3e" y="61.43423"/>
     <use style="fill:#4c72b0;stroke:#ffffff;stroke-width:0.75;" x="158.339996" xlink:href="#m2d3ea1af3e" y="76.098098"/>
     <use style="fill:#4c72b0;stroke:#ffffff;stroke-width:0.75;" x="161.814467" xlink:href="#m2d3ea1af3e" y="52.80284"/>
     <use style="fill:#4c72b0;stroke:#ffffff;stroke-width:0.75;" x="165.288938" xlink:href="#m2d3ea1af3e" y="92.670655"/>
     <use style="fill:#4c72b0;stroke:#ffffff;stroke-width:0.75;" x="168.763409" xlink:href="#m2d3ea1af3e" y="99.587023"/>
     <use style="fill:#4c72b0;stroke:#ffffff;stroke-width:0.75;" x="172.237879" xlink:href="#m2d3ea1af3e" y="89.007926"/>
     <use style="fill:#4c72b0;stroke:#ffffff;stroke-width:0.75;" x="175.71235" xlink:href="#m2d3ea1af3e" y="85.478229"/>
     <use style="fill:#4c72b0;stroke:#ffffff;stroke-width:0.75;" x="179.186821" xlink:href="#m2d3ea1af3e" y="108.546729"/>
     <use style="fill:#4c72b0;stroke:#ffffff;stroke-width:0.75;" x="182.661292" xlink:href="#m2d3ea1af3e" y="88.672696"/>
     <use style="fill:#4c72b0;stroke:#ffffff;stroke-width:0.75;" x="186.135762" xlink:href="#m2d3ea1af3e" y="143.453973"/>
     <use style="fill:#4c72b0;stroke:#ffffff;stroke-width:0.75;" x="189.610233" xlink:href="#m2d3ea1af3e" y="93.80218"/>
     <use style="fill:#4c72b0;stroke:#ffffff;stroke-width:0.75;" x="193.084704" xlink:href="#m2d3ea1af3e" y="82.199995"/>
     <use style="fill:#4c72b0;stroke:#ffffff;stroke-width:0.75;" x="196.559175" xlink:href="#m2d3ea1af3e" y="63.574064"/>
     <use style="fill:#4c72b0;stroke:#ffffff;stroke-width:0.75;" x="200.033645" xlink:href="#m2d3ea1af3e" y="74.990656"/>
     <use style="fill:#4c72b0;stroke:#ffffff;stroke-width:0.75;" x="203.508116" xlink:href="#m2d3ea1af3e" y="74.968041"/>
     <use style="fill:#4c72b0;stroke:#ffffff;stroke-width:0.75;" x="206.982587" xlink:href="#m2d3ea1af3e" y="79.753703"/>
     <use style="fill:#4c72b0;stroke:#ffffff;stroke-width:0.75;" x="210.457058" xlink:href="#m2d3ea1af3e" y="73.148712"/>
     <use style="fill:#4c72b0;stroke:#ffffff;stroke-width:0.75;" x="213.931528" xlink:href="#m2d3ea1af3e" y="78.180591"/>
     <use style="fill:#4c72b0;stroke:#ffffff;stroke-width:0.75;" x="217.405999" xlink:href="#m2d3ea1af3e" y="119.069271"/>
     <use style="fill:#4c72b0;stroke:#ffffff;stroke-width:0.75;" x="220.88047" xlink:href="#m2d3ea1af3e" y="170.329486"/>
     <use style="fill:#4c72b0;stroke:#ffffff;stroke-width:0.75;" x="224.35494" xlink:href="#m2d3ea1af3e" y="80.771058"/>
     <use style="fill:#4c72b0;stroke:#ffffff;stroke-width:0.75;" x="227.829411" xlink:href="#m2d3ea1af3e" y="80.665434"/>
     <use style="fill:#4c72b0;stroke:#ffffff;stroke-width:0.75;" x="231.303882" xlink:href="#m2d3ea1af3e" y="86.159777"/>
     <use style="fill:#4c72b0;stroke:#ffffff;stroke-width:0.75;" x="234.778353" xlink:href="#m2d3ea1af3e" y="94.234528"/>
     <use style="fill:#4c72b0;stroke:#ffffff;stroke-width:0.75;" x="238.252823" xlink:href="#m2d3ea1af3e" y="85.664296"/>
     <use style="fill:#4c72b0;stroke:#ffffff;stroke-width:0.75;" x="241.727294" xlink:href="#m2d3ea1af3e" y="68.835743"/>
     <use style="fill:#4c72b0;stroke:#ffffff;stroke-width:0.75;" x="245.201765" xlink:href="#m2d3ea1af3e" y="77.058825"/>
     <use style="fill:#4c72b0;stroke:#ffffff;stroke-width:0.75;" x="248.676236" xlink:href="#m2d3ea1af3e" y="75.937921"/>
     <use style="fill:#4c72b0;stroke:#ffffff;stroke-width:0.75;" x="252.150706" xlink:href="#m2d3ea1af3e" y="93.54736"/>
     <use style="fill:#4c72b0;stroke:#ffffff;stroke-width:0.75;" x="255.625177" xlink:href="#m2d3ea1af3e" y="98.98345"/>
     <use style="fill:#4c72b0;stroke:#ffffff;stroke-width:0.75;" x="259.099648" xlink:href="#m2d3ea1af3e" y="73.032026"/>
     <use style="fill:#4c72b0;stroke:#ffffff;stroke-width:0.75;" x="262.574119" xlink:href="#m2d3ea1af3e" y="89.531275"/>
     <use style="fill:#4c72b0;stroke:#ffffff;stroke-width:0.75;" x="266.048589" xlink:href="#m2d3ea1af3e" y="97.668661"/>
     <use style="fill:#4c72b0;stroke:#ffffff;stroke-width:0.75;" x="269.52306" xlink:href="#m2d3ea1af3e" y="163.093463"/>
     <use style="fill:#4c72b0;stroke:#ffffff;stroke-width:0.75;" x="272.997531" xlink:href="#m2d3ea1af3e" y="92.513082"/>
     <use style="fill:#4c72b0;stroke:#ffffff;stroke-width:0.75;" x="276.472001" xlink:href="#m2d3ea1af3e" y="93.144202"/>
     <use style="fill:#4c72b0;stroke:#ffffff;stroke-width:0.75;" x="279.946472" xlink:href="#m2d3ea1af3e" y="61.727116"/>
     <use style="fill:#4c72b0;stroke:#ffffff;stroke-width:0.75;" x="283.420943" xlink:href="#m2d3ea1af3e" y="105.452453"/>
     <use style="fill:#4c72b0;stroke:#ffffff;stroke-width:0.75;" x="286.895414" xlink:href="#m2d3ea1af3e" y="139.323785"/>
     <use style="fill:#4c72b0;stroke:#ffffff;stroke-width:0.75;" x="290.369884" xlink:href="#m2d3ea1af3e" y="172.393941"/>
     <use style="fill:#4c72b0;stroke:#ffffff;stroke-width:0.75;" x="293.844355" xlink:href="#m2d3ea1af3e" y="151.13467"/>
     <use style="fill:#4c72b0;stroke:#ffffff;stroke-width:0.75;" x="297.318826" xlink:href="#m2d3ea1af3e" y="90.162346"/>
     <use style="fill:#4c72b0;stroke:#ffffff;stroke-width:0.75;" x="300.793297" xlink:href="#m2d3ea1af3e" y="91.273931"/>
     <use style="fill:#4c72b0;stroke:#ffffff;stroke-width:0.75;" x="304.267767" xlink:href="#m2d3ea1af3e" y="94.502242"/>
     <use style="fill:#4c72b0;stroke:#ffffff;stroke-width:0.75;" x="307.742238" xlink:href="#m2d3ea1af3e" y="89.357402"/>
     <use style="fill:#4c72b0;stroke:#ffffff;stroke-width:0.75;" x="311.216709" xlink:href="#m2d3ea1af3e" y="117.386981"/>
     <use style="fill:#4c72b0;stroke:#ffffff;stroke-width:0.75;" x="314.69118" xlink:href="#m2d3ea1af3e" y="142.977949"/>
     <use style="fill:#4c72b0;stroke:#ffffff;stroke-width:0.75;" x="318.16565" xlink:href="#m2d3ea1af3e" y="83.914269"/>
     <use style="fill:#4c72b0;stroke:#ffffff;stroke-width:0.75;" x="321.640121" xlink:href="#m2d3ea1af3e" y="95.602731"/>
     <use style="fill:#4c72b0;stroke:#ffffff;stroke-width:0.75;" x="325.114592" xlink:href="#m2d3ea1af3e" y="140.48138"/>
     <use style="fill:#4c72b0;stroke:#ffffff;stroke-width:0.75;" x="328.589062" xlink:href="#m2d3ea1af3e" y="127.154655"/>
     <use style="fill:#4c72b0;stroke:#ffffff;stroke-width:0.75;" x="332.063533" xlink:href="#m2d3ea1af3e" y="74.680867"/>
     <use style="fill:#4c72b0;stroke:#ffffff;stroke-width:0.75;" x="335.538004" xlink:href="#m2d3ea1af3e" y="89.004568"/>
     <use style="fill:#4c72b0;stroke:#ffffff;stroke-width:0.75;" x="339.012475" xlink:href="#m2d3ea1af3e" y="70.844962"/>
     <use style="fill:#4c72b0;stroke:#ffffff;stroke-width:0.75;" x="342.486945" xlink:href="#m2d3ea1af3e" y="67.4439"/>
     <use style="fill:#4c72b0;stroke:#ffffff;stroke-width:0.75;" x="345.961416" xlink:href="#m2d3ea1af3e" y="60.125611"/>
     <use style="fill:#4c72b0;stroke:#ffffff;stroke-width:0.75;" x="349.435887" xlink:href="#m2d3ea1af3e" y="125.990381"/>
     <use style="fill:#4c72b0;stroke:#ffffff;stroke-width:0.75;" x="352.910358" xlink:href="#m2d3ea1af3e" y="127.897915"/>
     <use style="fill:#4c72b0;stroke:#ffffff;stroke-width:0.75;" x="356.384828" xlink:href="#m2d3ea1af3e" y="137.07777"/>
     <use style="fill:#4c72b0;stroke:#ffffff;stroke-width:0.75;" x="359.859299" xlink:href="#m2d3ea1af3e" y="189.87107"/>
     <use style="fill:#4c72b0;stroke:#ffffff;stroke-width:0.75;" x="363.33377" xlink:href="#m2d3ea1af3e" y="222.221701"/>
     <use style="fill:#4c72b0;stroke:#ffffff;stroke-width:0.75;" x="366.808241" xlink:href="#m2d3ea1af3e" y="194.47104"/>
     <use style="fill:#4c72b0;stroke:#ffffff;stroke-width:0.75;" x="370.282711" xlink:href="#m2d3ea1af3e" y="153.558071"/>
     <use style="fill:#4c72b0;stroke:#ffffff;stroke-width:0.75;" x="373.757182" xlink:href="#m2d3ea1af3e" y="145.238198"/>
     <use style="fill:#4c72b0;stroke:#ffffff;stroke-width:0.75;" x="377.231653" xlink:href="#m2d3ea1af3e" y="116.355634"/>
     <use style="fill:#4c72b0;stroke:#ffffff;stroke-width:0.75;" x="380.706124" xlink:href="#m2d3ea1af3e" y="150.382556"/>
     <use style="fill:#4c72b0;stroke:#ffffff;stroke-width:0.75;" x="384.180594" xlink:href="#m2d3ea1af3e" y="142.954606"/>
     <use style="fill:#4c72b0;stroke:#ffffff;stroke-width:0.75;" x="387.655065" xlink:href="#m2d3ea1af3e" y="123.213598"/>
     <use style="fill:#4c72b0;stroke:#ffffff;stroke-width:0.75;" x="391.129536" xlink:href="#m2d3ea1af3e" y="128.42984"/>
     <use style="fill:#4c72b0;stroke:#ffffff;stroke-width:0.75;" x="394.604006" xlink:href="#m2d3ea1af3e" y="172.630637"/>
     <use style="fill:#4c72b0;stroke:#ffffff;stroke-width:0.75;" x="398.078477" xlink:href="#m2d3ea1af3e" y="110.735777"/>
     <use style="fill:#4c72b0;stroke:#ffffff;stroke-width:0.75;" x="401.552948" xlink:href="#m2d3ea1af3e" y="112.689533"/>
     <use style="fill:#4c72b0;stroke:#ffffff;stroke-width:0.75;" x="405.027419" xlink:href="#m2d3ea1af3e" y="106.251175"/>
     <use style="fill:#4c72b0;stroke:#ffffff;stroke-width:0.75;" x="408.501889" xlink:href="#m2d3ea1af3e" y="125.826192"/>
     <use style="fill:#4c72b0;stroke:#ffffff;stroke-width:0.75;" x="411.97636" xlink:href="#m2d3ea1af3e" y="127.260628"/>
     <use style="fill:#4c72b0;stroke:#ffffff;stroke-width:0.75;" x="415.450831" xlink:href="#m2d3ea1af3e" y="177.581264"/>
     <use style="fill:#4c72b0;stroke:#ffffff;stroke-width:0.75;" x="418.925302" xlink:href="#m2d3ea1af3e" y="129.778251"/>
     <use style="fill:#4c72b0;stroke:#ffffff;stroke-width:0.75;" x="422.399772" xlink:href="#m2d3ea1af3e" y="157.018079"/>
     <use style="fill:#4c72b0;stroke:#ffffff;stroke-width:0.75;" x="425.874243" xlink:href="#m2d3ea1af3e" y="109.965157"/>
     <use style="fill:#4c72b0;stroke:#ffffff;stroke-width:0.75;" x="429.348714" xlink:href="#m2d3ea1af3e" y="126.412542"/>
     <use style="fill:#4c72b0;stroke:#ffffff;stroke-width:0.75;" x="432.823185" xlink:href="#m2d3ea1af3e" y="159.80501"/>
     <use style="fill:#4c72b0;stroke:#ffffff;stroke-width:0.75;" x="436.297655" xlink:href="#m2d3ea1af3e" y="150.950355"/>
     <use style="fill:#4c72b0;stroke:#ffffff;stroke-width:0.75;" x="439.772126" xlink:href="#m2d3ea1af3e" y="136.565523"/>
     <use style="fill:#4c72b0;stroke:#ffffff;stroke-width:0.75;" x="443.246597" xlink:href="#m2d3ea1af3e" y="115.390122"/>
     <use style="fill:#4c72b0;stroke:#ffffff;stroke-width:0.75;" x="446.721067" xlink:href="#m2d3ea1af3e" y="136.579419"/>
     <use style="fill:#4c72b0;stroke:#ffffff;stroke-width:0.75;" x="450.195538" xlink:href="#m2d3ea1af3e" y="107.4566"/>
     <use style="fill:#4c72b0;stroke:#ffffff;stroke-width:0.75;" x="453.670009" xlink:href="#m2d3ea1af3e" y="144.952291"/>
     <use style="fill:#4c72b0;stroke:#ffffff;stroke-width:0.75;" x="457.14448" xlink:href="#m2d3ea1af3e" y="146.67091"/>
     <use style="fill:#4c72b0;stroke:#ffffff;stroke-width:0.75;" x="460.61895" xlink:href="#m2d3ea1af3e" y="107.516526"/>
     <use style="fill:#4c72b0;stroke:#ffffff;stroke-width:0.75;" x="464.093421" xlink:href="#m2d3ea1af3e" y="192.595848"/>
     <use style="fill:#4c72b0;stroke:#ffffff;stroke-width:0.75;" x="467.567892" xlink:href="#m2d3ea1af3e" y="122.392468"/>
     <use style="fill:#4c72b0;stroke:#ffffff;stroke-width:0.75;" x="471.042363" xlink:href="#m2d3ea1af3e" y="129.351619"/>
     <use style="fill:#4c72b0;stroke:#ffffff;stroke-width:0.75;" x="474.516833" xlink:href="#m2d3ea1af3e" y="119.708516"/>
     <use style="fill:#4c72b0;stroke:#ffffff;stroke-width:0.75;" x="477.991304" xlink:href="#m2d3ea1af3e" y="163.965381"/>
     <use style="fill:#4c72b0;stroke:#ffffff;stroke-width:0.75;" x="481.465775" xlink:href="#m2d3ea1af3e" y="177.768059"/>
     <use style="fill:#4c72b0;stroke:#ffffff;stroke-width:0.75;" x="484.940246" xlink:href="#m2d3ea1af3e" y="86.490937"/>
     <use style="fill:#4c72b0;stroke:#ffffff;stroke-width:0.75;" x="488.414716" xlink:href="#m2d3ea1af3e" y="89.062105"/>
     <use style="fill:#4c72b0;stroke:#ffffff;stroke-width:0.75;" x="491.889187" xlink:href="#m2d3ea1af3e" y="95.641905"/>
     <use style="fill:#4c72b0;stroke:#ffffff;stroke-width:0.75;" x="495.363658" xlink:href="#m2d3ea1af3e" y="124.785706"/>
     <use style="fill:#4c72b0;stroke:#ffffff;stroke-width:0.75;" x="498.838129" xlink:href="#m2d3ea1af3e" y="162.624108"/>
     <use style="fill:#4c72b0;stroke:#ffffff;stroke-width:0.75;" x="502.312599" xlink:href="#m2d3ea1af3e" y="169.024326"/>
     <use style="fill:#4c72b0;stroke:#ffffff;stroke-width:0.75;" x="505.78707" xlink:href="#m2d3ea1af3e" y="190.499549"/>
     <use style="fill:#4c72b0;stroke:#ffffff;stroke-width:0.75;" x="509.261541" xlink:href="#m2d3ea1af3e" y="171.240792"/>
     <use style="fill:#4c72b0;stroke:#ffffff;stroke-width:0.75;" x="512.736011" xlink:href="#m2d3ea1af3e" y="156.239518"/>
     <use style="fill:#4c72b0;stroke:#ffffff;stroke-width:0.75;" x="516.210482" xlink:href="#m2d3ea1af3e" y="142.240011"/>
     <use style="fill:#4c72b0;stroke:#ffffff;stroke-width:0.75;" x="519.684953" xlink:href="#m2d3ea1af3e" y="111.88099"/>
     <use style="fill:#4c72b0;stroke:#ffffff;stroke-width:0.75;" x="523.159424" xlink:href="#m2d3ea1af3e" y="120.553384"/>
     <use style="fill:#4c72b0;stroke:#ffffff;stroke-width:0.75;" x="526.633894" xlink:href="#m2d3ea1af3e" y="117.792878"/>
     <use style="fill:#4c72b0;stroke:#ffffff;stroke-width:0.75;" x="530.108365" xlink:href="#m2d3ea1af3e" y="167.235148"/>
     <use style="fill:#4c72b0;stroke:#ffffff;stroke-width:0.75;" x="533.582836" xlink:href="#m2d3ea1af3e" y="155.267825"/>
     <use style="fill:#4c72b0;stroke:#ffffff;stroke-width:0.75;" x="537.057307" xlink:href="#m2d3ea1af3e" y="102.952365"/>
     <use style="fill:#4c72b0;stroke:#ffffff;stroke-width:0.75;" x="540.531777" xlink:href="#m2d3ea1af3e" y="116.814813"/>
     <use style="fill:#4c72b0;stroke:#ffffff;stroke-width:0.75;" x="544.006248" xlink:href="#m2d3ea1af3e" y="143.275281"/>
     <use style="fill:#4c72b0;stroke:#ffffff;stroke-width:0.75;" x="547.480719" xlink:href="#m2d3ea1af3e" y="194.678974"/>
     <use style="fill:#4c72b0;stroke:#ffffff;stroke-width:0.75;" x="550.95519" xlink:href="#m2d3ea1af3e" y="205.415551"/>
     <use style="fill:#4c72b0;stroke:#ffffff;stroke-width:0.75;" x="554.42966" xlink:href="#m2d3ea1af3e" y="172.818312"/>
     <use style="fill:#4c72b0;stroke:#ffffff;stroke-width:0.75;" x="557.904131" xlink:href="#m2d3ea1af3e" y="189.740366"/>
     <use style="fill:#4c72b0;stroke:#ffffff;stroke-width:0.75;" x="561.378602" xlink:href="#m2d3ea1af3e" y="209.567033"/>
     <use style="fill:#4c72b0;stroke:#ffffff;stroke-width:0.75;" x="564.853072" xlink:href="#m2d3ea1af3e" y="238.602385"/>
     <use style="fill:#4c72b0;stroke:#ffffff;stroke-width:0.75;" x="568.327543" xlink:href="#m2d3ea1af3e" y="211.122137"/>
     <use style="fill:#4c72b0;stroke:#ffffff;stroke-width:0.75;" x="571.802014" xlink:href="#m2d3ea1af3e" y="175.497642"/>
     <use style="fill:#4c72b0;stroke:#ffffff;stroke-width:0.75;" x="575.276485" xlink:href="#m2d3ea1af3e" y="205.867591"/>
     <use style="fill:#4c72b0;stroke:#ffffff;stroke-width:0.75;" x="578.750955" xlink:href="#m2d3ea1af3e" y="211.876307"/>
     <use style="fill:#4c72b0;stroke:#ffffff;stroke-width:0.75;" x="582.225426" xlink:href="#m2d3ea1af3e" y="186.04546"/>
    </g>
   </g>
   <g id="line2d_15">
    <path clip-path="url(#p2f819cdc35)" d="M 74.952699 88.356454 
L 78.42717 92.558517 
L 81.90164 95.356406 
L 85.376111 97.607423 
L 88.850582 86.84093 
L 92.325053 89.641334 
L 95.799523 87.722052 
L 99.273994 89.10882 
L 102.748465 83.309965 
L 106.222935 74.574754 
L 109.697406 74.554483 
L 113.171877 72.706008 
L 116.646348 91.562665 
L 120.120818 87.191087 
L 127.06976 69.688651 
L 130.544231 73.481726 
L 134.018701 83.761327 
L 137.493172 93.125944 
L 140.967643 169.314314 
L 144.442114 88.611501 
L 147.916584 75.017921 
L 151.391055 65.031311 
L 154.865526 74.61513 
L 158.339996 103.713194 
L 161.814467 92.449649 
L 165.288938 112.084456 
L 168.763409 127.713765 
L 172.237879 124.43728 
L 175.71235 95.124162 
L 179.186821 115.824646 
L 182.661292 80.148727 
L 186.135762 156.339846 
L 189.610233 77.689519 
L 193.084704 70.914633 
L 196.559175 62.131784 
L 200.033645 75.008727 
L 203.508116 69.798235 
L 206.982587 77.452045 
L 210.457058 61.390895 
L 213.931528 79.730611 
L 217.405999 87.332885 
L 220.88047 166.247103 
L 224.35494 66.630785 
L 227.829411 69.780896 
L 231.303882 67.998498 
L 234.778353 83.121611 
L 238.252823 76.726996 
L 241.727294 76.333016 
L 245.201765 74.751131 
L 248.676236 73.991654 
L 252.150706 83.574273 
L 255.625177 85.957776 
L 259.099648 64.032377 
L 262.574119 77.738273 
L 266.048589 83.447615 
L 269.52306 131.41826 
L 272.997531 114.61239 
L 276.472001 77.212072 
L 279.946472 76.989972 
L 283.420943 90.344462 
L 286.895414 142.01637 
L 290.369884 159.151026 
L 293.844355 157.329918 
L 297.318826 78.149676 
L 300.793297 88.888868 
L 304.267767 89.936423 
L 307.742238 131.902869 
L 311.216709 95.164088 
L 314.69118 97.160291 
L 318.16565 85.164719 
L 321.640121 115.175319 
L 325.114592 96.934493 
L 328.589062 117.260485 
L 332.063533 93.813765 
L 335.538004 117.047063 
L 339.012475 97.442605 
L 342.486945 76.060413 
L 345.961416 78.974931 
L 349.435887 123.812988 
L 352.910358 128.914745 
L 356.384828 93.774671 
L 359.859299 161.142848 
L 363.33377 209.415703 
L 366.808241 210.11261 
L 370.282711 175.940023 
L 373.757182 151.689368 
L 377.231653 136.815323 
L 380.706124 149.482775 
L 384.180594 145.021884 
L 387.655065 156.069574 
L 391.129536 147.582415 
L 394.604006 162.681559 
L 398.078477 141.841658 
L 401.552948 130.403618 
L 405.027419 152.504046 
L 408.501889 123.988566 
L 415.450831 173.356772 
L 418.925302 149.071338 
L 422.399772 172.358005 
L 425.874243 138.480457 
L 429.348714 147.609332 
L 432.823185 165.905158 
L 436.297655 141.245116 
L 439.772126 176.100727 
L 443.246597 152.241487 
L 446.721067 144.497199 
L 450.195538 144.698361 
L 453.670009 178.918953 
L 457.14448 173.191355 
L 460.61895 141.289856 
L 464.093421 227.395261 
L 467.567892 144.726111 
L 471.042363 140.317889 
L 474.516833 156.992571 
L 477.991304 186.347764 
L 481.465775 188.874348 
L 484.940246 125.589622 
L 488.414716 112.693591 
L 491.889187 93.992674 
L 495.363658 134.465749 
L 498.838129 165.436356 
L 502.312599 176.163772 
L 505.78707 176.465025 
L 509.261541 179.698252 
L 512.736011 134.156751 
L 516.210482 151.08693 
L 519.684953 138.413981 
L 523.159424 147.772234 
L 526.633894 152.816642 
L 530.108365 186.720773 
L 533.582836 165.85204 
L 537.057307 131.483054 
L 540.531777 142.282077 
L 544.006248 158.348424 
L 547.480719 146.096356 
L 550.95519 177.022124 
L 554.42966 170.583153 
L 557.904131 194.15125 
L 561.378602 194.711123 
L 564.853072 243.509521 
L 568.327543 176.886422 
L 571.802014 152.768937 
L 575.276485 177.590383 
L 578.750955 195.219243 
L 582.225426 159.414252 
L 582.225426 159.414252 
" style="fill:none;stroke:#dd8452;stroke-linecap:round;stroke-width:1.5;"/>
    <defs>
     <path d="M 0 2 
C 0.530406 2 1.03916 1.789267 1.414214 1.414214 
C 1.789267 1.03916 2 0.530406 2 0 
C 2 -0.530406 1.789267 -1.03916 1.414214 -1.414214 
C 1.03916 -1.789267 0.530406 -2 0 -2 
C -0.530406 -2 -1.03916 -1.789267 -1.414214 -1.414214 
C -1.789267 -1.03916 -2 -0.530406 -2 0 
C -2 0.530406 -1.789267 1.03916 -1.414214 1.414214 
C -1.03916 1.789267 -0.530406 2 0 2 
z
" id="m7386b292e2" style="stroke:#ffffff;stroke-width:0.75;"/>
    </defs>
    <g clip-path="url(#p2f819cdc35)">
     <use style="fill:#dd8452;stroke:#ffffff;stroke-width:0.75;" x="74.952699" xlink:href="#m7386b292e2" y="88.356454"/>
     <use style="fill:#dd8452;stroke:#ffffff;stroke-width:0.75;" x="78.42717" xlink:href="#m7386b292e2" y="92.558517"/>
     <use style="fill:#dd8452;stroke:#ffffff;stroke-width:0.75;" x="81.90164" xlink:href="#m7386b292e2" y="95.356406"/>
     <use style="fill:#dd8452;stroke:#ffffff;stroke-width:0.75;" x="85.376111" xlink:href="#m7386b292e2" y="97.607423"/>
     <use style="fill:#dd8452;stroke:#ffffff;stroke-width:0.75;" x="88.850582" xlink:href="#m7386b292e2" y="86.84093"/>
     <use style="fill:#dd8452;stroke:#ffffff;stroke-width:0.75;" x="92.325053" xlink:href="#m7386b292e2" y="89.641334"/>
     <use style="fill:#dd8452;stroke:#ffffff;stroke-width:0.75;" x="95.799523" xlink:href="#m7386b292e2" y="87.722052"/>
     <use style="fill:#dd8452;stroke:#ffffff;stroke-width:0.75;" x="99.273994" xlink:href="#m7386b292e2" y="89.10882"/>
     <use style="fill:#dd8452;stroke:#ffffff;stroke-width:0.75;" x="102.748465" xlink:href="#m7386b292e2" y="83.309965"/>
     <use style="fill:#dd8452;stroke:#ffffff;stroke-width:0.75;" x="106.222935" xlink:href="#m7386b292e2" y="74.574754"/>
     <use style="fill:#dd8452;stroke:#ffffff;stroke-width:0.75;" x="109.697406" xlink:href="#m7386b292e2" y="74.554483"/>
     <use style="fill:#dd8452;stroke:#ffffff;stroke-width:0.75;" x="113.171877" xlink:href="#m7386b292e2" y="72.706008"/>
     <use style="fill:#dd8452;stroke:#ffffff;stroke-width:0.75;" x="116.646348" xlink:href="#m7386b292e2" y="91.562665"/>
     <use style="fill:#dd8452;stroke:#ffffff;stroke-width:0.75;" x="120.120818" xlink:href="#m7386b292e2" y="87.191087"/>
     <use style="fill:#dd8452;stroke:#ffffff;stroke-width:0.75;" x="123.595289" xlink:href="#m7386b292e2" y="78.448147"/>
     <use style="fill:#dd8452;stroke:#ffffff;stroke-width:0.75;" x="127.06976" xlink:href="#m7386b292e2" y="69.688651"/>
     <use style="fill:#dd8452;stroke:#ffffff;stroke-width:0.75;" x="130.544231" xlink:href="#m7386b292e2" y="73.481726"/>
     <use style="fill:#dd8452;stroke:#ffffff;stroke-width:0.75;" x="134.018701" xlink:href="#m7386b292e2" y="83.761327"/>
     <use style="fill:#dd8452;stroke:#ffffff;stroke-width:0.75;" x="137.493172" xlink:href="#m7386b292e2" y="93.125944"/>
     <use style="fill:#dd8452;stroke:#ffffff;stroke-width:0.75;" x="140.967643" xlink:href="#m7386b292e2" y="169.314314"/>
     <use style="fill:#dd8452;stroke:#ffffff;stroke-width:0.75;" x="144.442114" xlink:href="#m7386b292e2" y="88.611501"/>
     <use style="fill:#dd8452;stroke:#ffffff;stroke-width:0.75;" x="147.916584" xlink:href="#m7386b292e2" y="75.017921"/>
     <use style="fill:#dd8452;stroke:#ffffff;stroke-width:0.75;" x="151.391055" xlink:href="#m7386b292e2" y="65.031311"/>
     <use style="fill:#dd8452;stroke:#ffffff;stroke-width:0.75;" x="154.865526" xlink:href="#m7386b292e2" y="74.61513"/>
     <use style="fill:#dd8452;stroke:#ffffff;stroke-width:0.75;" x="158.339996" xlink:href="#m7386b292e2" y="103.713194"/>
     <use style="fill:#dd8452;stroke:#ffffff;stroke-width:0.75;" x="161.814467" xlink:href="#m7386b292e2" y="92.449649"/>
     <use style="fill:#dd8452;stroke:#ffffff;stroke-width:0.75;" x="165.288938" xlink:href="#m7386b292e2" y="112.084456"/>
     <use style="fill:#dd8452;stroke:#ffffff;stroke-width:0.75;" x="168.763409" xlink:href="#m7386b292e2" y="127.713765"/>
     <use style="fill:#dd8452;stroke:#ffffff;stroke-width:0.75;" x="172.237879" xlink:href="#m7386b292e2" y="124.43728"/>
     <use style="fill:#dd8452;stroke:#ffffff;stroke-width:0.75;" x="175.71235" xlink:href="#m7386b292e2" y="95.124162"/>
     <use style="fill:#dd8452;stroke:#ffffff;stroke-width:0.75;" x="179.186821" xlink:href="#m7386b292e2" y="115.824646"/>
     <use style="fill:#dd8452;stroke:#ffffff;stroke-width:0.75;" x="182.661292" xlink:href="#m7386b292e2" y="80.148727"/>
     <use style="fill:#dd8452;stroke:#ffffff;stroke-width:0.75;" x="186.135762" xlink:href="#m7386b292e2" y="156.339846"/>
     <use style="fill:#dd8452;stroke:#ffffff;stroke-width:0.75;" x="189.610233" xlink:href="#m7386b292e2" y="77.689519"/>
     <use style="fill:#dd8452;stroke:#ffffff;stroke-width:0.75;" x="193.084704" xlink:href="#m7386b292e2" y="70.914633"/>
     <use style="fill:#dd8452;stroke:#ffffff;stroke-width:0.75;" x="196.559175" xlink:href="#m7386b292e2" y="62.131784"/>
     <use style="fill:#dd8452;stroke:#ffffff;stroke-width:0.75;" x="200.033645" xlink:href="#m7386b292e2" y="75.008727"/>
     <use style="fill:#dd8452;stroke:#ffffff;stroke-width:0.75;" x="203.508116" xlink:href="#m7386b292e2" y="69.798235"/>
     <use style="fill:#dd8452;stroke:#ffffff;stroke-width:0.75;" x="206.982587" xlink:href="#m7386b292e2" y="77.452045"/>
     <use style="fill:#dd8452;stroke:#ffffff;stroke-width:0.75;" x="210.457058" xlink:href="#m7386b292e2" y="61.390895"/>
     <use style="fill:#dd8452;stroke:#ffffff;stroke-width:0.75;" x="213.931528" xlink:href="#m7386b292e2" y="79.730611"/>
     <use style="fill:#dd8452;stroke:#ffffff;stroke-width:0.75;" x="217.405999" xlink:href="#m7386b292e2" y="87.332885"/>
     <use style="fill:#dd8452;stroke:#ffffff;stroke-width:0.75;" x="220.88047" xlink:href="#m7386b292e2" y="166.247103"/>
     <use style="fill:#dd8452;stroke:#ffffff;stroke-width:0.75;" x="224.35494" xlink:href="#m7386b292e2" y="66.630785"/>
     <use style="fill:#dd8452;stroke:#ffffff;stroke-width:0.75;" x="227.829411" xlink:href="#m7386b292e2" y="69.780896"/>
     <use style="fill:#dd8452;stroke:#ffffff;stroke-width:0.75;" x="231.303882" xlink:href="#m7386b292e2" y="67.998498"/>
     <use style="fill:#dd8452;stroke:#ffffff;stroke-width:0.75;" x="234.778353" xlink:href="#m7386b292e2" y="83.121611"/>
     <use style="fill:#dd8452;stroke:#ffffff;stroke-width:0.75;" x="238.252823" xlink:href="#m7386b292e2" y="76.726996"/>
     <use style="fill:#dd8452;stroke:#ffffff;stroke-width:0.75;" x="241.727294" xlink:href="#m7386b292e2" y="76.333016"/>
     <use style="fill:#dd8452;stroke:#ffffff;stroke-width:0.75;" x="245.201765" xlink:href="#m7386b292e2" y="74.751131"/>
     <use style="fill:#dd8452;stroke:#ffffff;stroke-width:0.75;" x="248.676236" xlink:href="#m7386b292e2" y="73.991654"/>
     <use style="fill:#dd8452;stroke:#ffffff;stroke-width:0.75;" x="252.150706" xlink:href="#m7386b292e2" y="83.574273"/>
     <use style="fill:#dd8452;stroke:#ffffff;stroke-width:0.75;" x="255.625177" xlink:href="#m7386b292e2" y="85.957776"/>
     <use style="fill:#dd8452;stroke:#ffffff;stroke-width:0.75;" x="259.099648" xlink:href="#m7386b292e2" y="64.032377"/>
     <use style="fill:#dd8452;stroke:#ffffff;stroke-width:0.75;" x="262.574119" xlink:href="#m7386b292e2" y="77.738273"/>
     <use style="fill:#dd8452;stroke:#ffffff;stroke-width:0.75;" x="266.048589" xlink:href="#m7386b292e2" y="83.447615"/>
     <use style="fill:#dd8452;stroke:#ffffff;stroke-width:0.75;" x="269.52306" xlink:href="#m7386b292e2" y="131.41826"/>
     <use style="fill:#dd8452;stroke:#ffffff;stroke-width:0.75;" x="272.997531" xlink:href="#m7386b292e2" y="114.61239"/>
     <use style="fill:#dd8452;stroke:#ffffff;stroke-width:0.75;" x="276.472001" xlink:href="#m7386b292e2" y="77.212072"/>
     <use style="fill:#dd8452;stroke:#ffffff;stroke-width:0.75;" x="279.946472" xlink:href="#m7386b292e2" y="76.989972"/>
     <use style="fill:#dd8452;stroke:#ffffff;stroke-width:0.75;" x="283.420943" xlink:href="#m7386b292e2" y="90.344462"/>
     <use style="fill:#dd8452;stroke:#ffffff;stroke-width:0.75;" x="286.895414" xlink:href="#m7386b292e2" y="142.01637"/>
     <use style="fill:#dd8452;stroke:#ffffff;stroke-width:0.75;" x="290.369884" xlink:href="#m7386b292e2" y="159.151026"/>
     <use style="fill:#dd8452;stroke:#ffffff;stroke-width:0.75;" x="293.844355" xlink:href="#m7386b292e2" y="157.329918"/>
     <use style="fill:#dd8452;stroke:#ffffff;stroke-width:0.75;" x="297.318826" xlink:href="#m7386b292e2" y="78.149676"/>
     <use style="fill:#dd8452;stroke:#ffffff;stroke-width:0.75;" x="300.793297" xlink:href="#m7386b292e2" y="88.888868"/>
     <use style="fill:#dd8452;stroke:#ffffff;stroke-width:0.75;" x="304.267767" xlink:href="#m7386b292e2" y="89.936423"/>
     <use style="fill:#dd8452;stroke:#ffffff;stroke-width:0.75;" x="307.742238" xlink:href="#m7386b292e2" y="131.902869"/>
     <use style="fill:#dd8452;stroke:#ffffff;stroke-width:0.75;" x="311.216709" xlink:href="#m7386b292e2" y="95.164088"/>
     <use style="fill:#dd8452;stroke:#ffffff;stroke-width:0.75;" x="314.69118" xlink:href="#m7386b292e2" y="97.160291"/>
     <use style="fill:#dd8452;stroke:#ffffff;stroke-width:0.75;" x="318.16565" xlink:href="#m7386b292e2" y="85.164719"/>
     <use style="fill:#dd8452;stroke:#ffffff;stroke-width:0.75;" x="321.640121" xlink:href="#m7386b292e2" y="115.175319"/>
     <use style="fill:#dd8452;stroke:#ffffff;stroke-width:0.75;" x="325.114592" xlink:href="#m7386b292e2" y="96.934493"/>
     <use style="fill:#dd8452;stroke:#ffffff;stroke-width:0.75;" x="328.589062" xlink:href="#m7386b292e2" y="117.260485"/>
     <use style="fill:#dd8452;stroke:#ffffff;stroke-width:0.75;" x="332.063533" xlink:href="#m7386b292e2" y="93.813765"/>
     <use style="fill:#dd8452;stroke:#ffffff;stroke-width:0.75;" x="335.538004" xlink:href="#m7386b292e2" y="117.047063"/>
     <use style="fill:#dd8452;stroke:#ffffff;stroke-width:0.75;" x="339.012475" xlink:href="#m7386b292e2" y="97.442605"/>
     <use style="fill:#dd8452;stroke:#ffffff;stroke-width:0.75;" x="342.486945" xlink:href="#m7386b292e2" y="76.060413"/>
     <use style="fill:#dd8452;stroke:#ffffff;stroke-width:0.75;" x="345.961416" xlink:href="#m7386b292e2" y="78.974931"/>
     <use style="fill:#dd8452;stroke:#ffffff;stroke-width:0.75;" x="349.435887" xlink:href="#m7386b292e2" y="123.812988"/>
     <use style="fill:#dd8452;stroke:#ffffff;stroke-width:0.75;" x="352.910358" xlink:href="#m7386b292e2" y="128.914745"/>
     <use style="fill:#dd8452;stroke:#ffffff;stroke-width:0.75;" x="356.384828" xlink:href="#m7386b292e2" y="93.774671"/>
     <use style="fill:#dd8452;stroke:#ffffff;stroke-width:0.75;" x="359.859299" xlink:href="#m7386b292e2" y="161.142848"/>
     <use style="fill:#dd8452;stroke:#ffffff;stroke-width:0.75;" x="363.33377" xlink:href="#m7386b292e2" y="209.415703"/>
     <use style="fill:#dd8452;stroke:#ffffff;stroke-width:0.75;" x="366.808241" xlink:href="#m7386b292e2" y="210.11261"/>
     <use style="fill:#dd8452;stroke:#ffffff;stroke-width:0.75;" x="370.282711" xlink:href="#m7386b292e2" y="175.940023"/>
     <use style="fill:#dd8452;stroke:#ffffff;stroke-width:0.75;" x="373.757182" xlink:href="#m7386b292e2" y="151.689368"/>
     <use style="fill:#dd8452;stroke:#ffffff;stroke-width:0.75;" x="377.231653" xlink:href="#m7386b292e2" y="136.815323"/>
     <use style="fill:#dd8452;stroke:#ffffff;stroke-width:0.75;" x="380.706124" xlink:href="#m7386b292e2" y="149.482775"/>
     <use style="fill:#dd8452;stroke:#ffffff;stroke-width:0.75;" x="384.180594" xlink:href="#m7386b292e2" y="145.021884"/>
     <use style="fill:#dd8452;stroke:#ffffff;stroke-width:0.75;" x="387.655065" xlink:href="#m7386b292e2" y="156.069574"/>
     <use style="fill:#dd8452;stroke:#ffffff;stroke-width:0.75;" x="391.129536" xlink:href="#m7386b292e2" y="147.582415"/>
     <use style="fill:#dd8452;stroke:#ffffff;stroke-width:0.75;" x="394.604006" xlink:href="#m7386b292e2" y="162.681559"/>
     <use style="fill:#dd8452;stroke:#ffffff;stroke-width:0.75;" x="398.078477" xlink:href="#m7386b292e2" y="141.841658"/>
     <use style="fill:#dd8452;stroke:#ffffff;stroke-width:0.75;" x="401.552948" xlink:href="#m7386b292e2" y="130.403618"/>
     <use style="fill:#dd8452;stroke:#ffffff;stroke-width:0.75;" x="405.027419" xlink:href="#m7386b292e2" y="152.504046"/>
     <use style="fill:#dd8452;stroke:#ffffff;stroke-width:0.75;" x="408.501889" xlink:href="#m7386b292e2" y="123.988566"/>
     <use style="fill:#dd8452;stroke:#ffffff;stroke-width:0.75;" x="411.97636" xlink:href="#m7386b292e2" y="148.455908"/>
     <use style="fill:#dd8452;stroke:#ffffff;stroke-width:0.75;" x="415.450831" xlink:href="#m7386b292e2" y="173.356772"/>
     <use style="fill:#dd8452;stroke:#ffffff;stroke-width:0.75;" x="418.925302" xlink:href="#m7386b292e2" y="149.071338"/>
     <use style="fill:#dd8452;stroke:#ffffff;stroke-width:0.75;" x="422.399772" xlink:href="#m7386b292e2" y="172.358005"/>
     <use style="fill:#dd8452;stroke:#ffffff;stroke-width:0.75;" x="425.874243" xlink:href="#m7386b292e2" y="138.480457"/>
     <use style="fill:#dd8452;stroke:#ffffff;stroke-width:0.75;" x="429.348714" xlink:href="#m7386b292e2" y="147.609332"/>
     <use style="fill:#dd8452;stroke:#ffffff;stroke-width:0.75;" x="432.823185" xlink:href="#m7386b292e2" y="165.905158"/>
     <use style="fill:#dd8452;stroke:#ffffff;stroke-width:0.75;" x="436.297655" xlink:href="#m7386b292e2" y="141.245116"/>
     <use style="fill:#dd8452;stroke:#ffffff;stroke-width:0.75;" x="439.772126" xlink:href="#m7386b292e2" y="176.100727"/>
     <use style="fill:#dd8452;stroke:#ffffff;stroke-width:0.75;" x="443.246597" xlink:href="#m7386b292e2" y="152.241487"/>
     <use style="fill:#dd8452;stroke:#ffffff;stroke-width:0.75;" x="446.721067" xlink:href="#m7386b292e2" y="144.497199"/>
     <use style="fill:#dd8452;stroke:#ffffff;stroke-width:0.75;" x="450.195538" xlink:href="#m7386b292e2" y="144.698361"/>
     <use style="fill:#dd8452;stroke:#ffffff;stroke-width:0.75;" x="453.670009" xlink:href="#m7386b292e2" y="178.918953"/>
     <use style="fill:#dd8452;stroke:#ffffff;stroke-width:0.75;" x="457.14448" xlink:href="#m7386b292e2" y="173.191355"/>
     <use style="fill:#dd8452;stroke:#ffffff;stroke-width:0.75;" x="460.61895" xlink:href="#m7386b292e2" y="141.289856"/>
     <use style="fill:#dd8452;stroke:#ffffff;stroke-width:0.75;" x="464.093421" xlink:href="#m7386b292e2" y="227.395261"/>
     <use style="fill:#dd8452;stroke:#ffffff;stroke-width:0.75;" x="467.567892" xlink:href="#m7386b292e2" y="144.726111"/>
     <use style="fill:#dd8452;stroke:#ffffff;stroke-width:0.75;" x="471.042363" xlink:href="#m7386b292e2" y="140.317889"/>
     <use style="fill:#dd8452;stroke:#ffffff;stroke-width:0.75;" x="474.516833" xlink:href="#m7386b292e2" y="156.992571"/>
     <use style="fill:#dd8452;stroke:#ffffff;stroke-width:0.75;" x="477.991304" xlink:href="#m7386b292e2" y="186.347764"/>
     <use style="fill:#dd8452;stroke:#ffffff;stroke-width:0.75;" x="481.465775" xlink:href="#m7386b292e2" y="188.874348"/>
     <use style="fill:#dd8452;stroke:#ffffff;stroke-width:0.75;" x="484.940246" xlink:href="#m7386b292e2" y="125.589622"/>
     <use style="fill:#dd8452;stroke:#ffffff;stroke-width:0.75;" x="488.414716" xlink:href="#m7386b292e2" y="112.693591"/>
     <use style="fill:#dd8452;stroke:#ffffff;stroke-width:0.75;" x="491.889187" xlink:href="#m7386b292e2" y="93.992674"/>
     <use style="fill:#dd8452;stroke:#ffffff;stroke-width:0.75;" x="495.363658" xlink:href="#m7386b292e2" y="134.465749"/>
     <use style="fill:#dd8452;stroke:#ffffff;stroke-width:0.75;" x="498.838129" xlink:href="#m7386b292e2" y="165.436356"/>
     <use style="fill:#dd8452;stroke:#ffffff;stroke-width:0.75;" x="502.312599" xlink:href="#m7386b292e2" y="176.163772"/>
     <use style="fill:#dd8452;stroke:#ffffff;stroke-width:0.75;" x="505.78707" xlink:href="#m7386b292e2" y="176.465025"/>
     <use style="fill:#dd8452;stroke:#ffffff;stroke-width:0.75;" x="509.261541" xlink:href="#m7386b292e2" y="179.698252"/>
     <use style="fill:#dd8452;stroke:#ffffff;stroke-width:0.75;" x="512.736011" xlink:href="#m7386b292e2" y="134.156751"/>
     <use style="fill:#dd8452;stroke:#ffffff;stroke-width:0.75;" x="516.210482" xlink:href="#m7386b292e2" y="151.08693"/>
     <use style="fill:#dd8452;stroke:#ffffff;stroke-width:0.75;" x="519.684953" xlink:href="#m7386b292e2" y="138.413981"/>
     <use style="fill:#dd8452;stroke:#ffffff;stroke-width:0.75;" x="523.159424" xlink:href="#m7386b292e2" y="147.772234"/>
     <use style="fill:#dd8452;stroke:#ffffff;stroke-width:0.75;" x="526.633894" xlink:href="#m7386b292e2" y="152.816642"/>
     <use style="fill:#dd8452;stroke:#ffffff;stroke-width:0.75;" x="530.108365" xlink:href="#m7386b292e2" y="186.720773"/>
     <use style="fill:#dd8452;stroke:#ffffff;stroke-width:0.75;" x="533.582836" xlink:href="#m7386b292e2" y="165.85204"/>
     <use style="fill:#dd8452;stroke:#ffffff;stroke-width:0.75;" x="537.057307" xlink:href="#m7386b292e2" y="131.483054"/>
     <use style="fill:#dd8452;stroke:#ffffff;stroke-width:0.75;" x="540.531777" xlink:href="#m7386b292e2" y="142.282077"/>
     <use style="fill:#dd8452;stroke:#ffffff;stroke-width:0.75;" x="544.006248" xlink:href="#m7386b292e2" y="158.348424"/>
     <use style="fill:#dd8452;stroke:#ffffff;stroke-width:0.75;" x="547.480719" xlink:href="#m7386b292e2" y="146.096356"/>
     <use style="fill:#dd8452;stroke:#ffffff;stroke-width:0.75;" x="550.95519" xlink:href="#m7386b292e2" y="177.022124"/>
     <use style="fill:#dd8452;stroke:#ffffff;stroke-width:0.75;" x="554.42966" xlink:href="#m7386b292e2" y="170.583153"/>
     <use style="fill:#dd8452;stroke:#ffffff;stroke-width:0.75;" x="557.904131" xlink:href="#m7386b292e2" y="194.15125"/>
     <use style="fill:#dd8452;stroke:#ffffff;stroke-width:0.75;" x="561.378602" xlink:href="#m7386b292e2" y="194.711123"/>
     <use style="fill:#dd8452;stroke:#ffffff;stroke-width:0.75;" x="564.853072" xlink:href="#m7386b292e2" y="243.509521"/>
     <use style="fill:#dd8452;stroke:#ffffff;stroke-width:0.75;" x="568.327543" xlink:href="#m7386b292e2" y="176.886422"/>
     <use style="fill:#dd8452;stroke:#ffffff;stroke-width:0.75;" x="571.802014" xlink:href="#m7386b292e2" y="152.768937"/>
     <use style="fill:#dd8452;stroke:#ffffff;stroke-width:0.75;" x="575.276485" xlink:href="#m7386b292e2" y="177.590383"/>
     <use style="fill:#dd8452;stroke:#ffffff;stroke-width:0.75;" x="578.750955" xlink:href="#m7386b292e2" y="195.219243"/>
     <use style="fill:#dd8452;stroke:#ffffff;stroke-width:0.75;" x="582.225426" xlink:href="#m7386b292e2" y="159.414252"/>
    </g>
   </g>
   <g id="line2d_16">
    <path clip-path="url(#p2f819cdc35)" d="M 74.952699 85.925229 
L 78.42717 77.02177 
L 81.90164 85.481762 
L 85.376111 136.651071 
L 88.850582 119.151168 
L 92.325053 110.793514 
L 95.799523 99.22925 
L 99.273994 102.606424 
L 102.748465 83.400877 
L 106.222935 74.599756 
L 109.697406 90.189338 
L 113.171877 65.730409 
L 116.646348 178.848695 
L 120.120818 111.271094 
L 123.595289 95.033366 
L 127.06976 82.445716 
L 130.544231 69.141696 
L 134.018701 75.384352 
L 137.493172 127.542934 
L 140.967643 154.765007 
L 144.442114 98.069412 
L 147.916584 93.873529 
L 151.391055 71.461371 
L 154.865526 70.915565 
L 158.339996 83.298538 
L 161.814467 124.575114 
L 165.288938 135.832362 
L 168.763409 128.191079 
L 172.237879 99.877394 
L 175.71235 91.417402 
L 179.186821 122.426003 
L 182.661292 78.045156 
L 186.135762 130.169625 
L 189.610233 53.381549 
L 193.084704 77.328785 
L 196.559175 69.07347 
L 200.033645 65.559844 
L 203.508116 67.811294 
L 206.982587 60.818155 
L 210.457058 36.76858 
L 213.931528 83.878457 
L 217.405999 99.70683 
L 220.88047 195.086422 
L 224.35494 75.077336 
L 227.829411 70.676775 
L 231.303882 55.428321 
L 234.778353 47.650586 
L 238.252823 64.297668 
L 241.727294 80.364831 
L 245.201765 76.885318 
L 248.676236 70.233308 
L 252.150706 81.831685 
L 255.625177 81.081201 
L 259.099648 42.192526 
L 262.574119 99.024573 
L 266.048589 102.811101 
L 269.52306 175.778536 
L 272.997531 75.72548 
L 276.472001 84.049021 
L 279.946472 55.803563 
L 283.420943 62.319121 
L 286.895414 214.29197 
L 290.369884 147.157836 
L 293.844355 115.97867 
L 297.318826 71.666048 
L 300.793297 75.793706 
L 304.267767 85.618213 
L 307.742238 91.51974 
L 311.216709 107.552791 
L 314.69118 133.615026 
L 318.16565 77.02177 
L 321.640121 79.512009 
L 325.114592 77.874591 
L 328.589062 148.999931 
L 332.063533 58.055012 
L 335.538004 101.241909 
L 339.012475 93.259497 
L 342.486945 79.341445 
L 345.961416 71.597823 
L 349.435887 82.991522 
L 352.910358 80.091928 
L 356.384828 66.173876 
L 359.859299 181.918854 
L 363.33377 333.27767 
L 366.808241 296.640445 
L 370.282711 144.155903 
L 373.757182 129.828497 
L 377.231653 134.570186 
L 380.706124 158.756213 
L 384.180594 159.813712 
L 387.655065 154.628555 
L 391.129536 140.062359 
L 394.604006 162.269839 
L 398.078477 152.718234 
L 401.552948 129.623819 
L 405.027419 111.066417 
L 408.501889 100.286749 
L 411.97636 120.174554 
L 415.450831 194.370052 
L 418.925302 146.577917 
L 422.399772 148.283561 
L 425.874243 139.653004 
L 429.348714 142.006792 
L 432.823185 174.75515 
L 436.297655 146.441466 
L 439.772126 141.836228 
L 443.246597 158.48331 
L 446.721067 251.304437 
L 450.195538 200.646821 
L 453.670009 256.353142 
L 457.14448 251.33855 
L 460.61895 160.495969 
L 464.093421 198.97529 
L 467.567892 154.594442 
L 471.042363 152.445331 
L 474.516833 140.67639 
L 477.991304 156.948231 
L 481.465775 175.437408 
L 484.940246 121.368504 
L 488.414716 108.678516 
L 491.889187 138.595505 
L 495.363658 150.671462 
L 498.838129 163.190886 
L 502.312599 143.610097 
L 505.78707 223.9118 
L 509.261541 157.664601 
L 512.736011 146.37324 
L 516.210482 152.581783 
L 519.684953 145.315741 
L 523.159424 142.620824 
L 526.633894 161.860484 
L 530.108365 204.876817 
L 533.582836 177.620632 
L 537.057307 144.462919 
L 540.531777 154.355652 
L 544.006248 193.210214 
L 547.480719 210.437215 
L 550.95519 274.364739 
L 554.42966 273.06845 
L 557.904131 302.644311 
L 561.378602 299.471813 
L 564.853072 318.984377 
L 568.327543 261.91354 
L 571.802014 228.448812 
L 575.276485 288.282791 
L 578.750955 272.761434 
L 582.225426 240.934124 
L 582.225426 240.934124 
" style="fill:none;stroke:#000000;stroke-linecap:round;stroke-width:1.5;"/>
    <defs>
     <path d="M 0 2 
C 0.530406 2 1.03916 1.789267 1.414214 1.414214 
C 1.789267 1.03916 2 0.530406 2 0 
C 2 -0.530406 1.789267 -1.03916 1.414214 -1.414214 
C 1.03916 -1.789267 0.530406 -2 0 -2 
C -0.530406 -2 -1.03916 -1.789267 -1.414214 -1.414214 
C -1.789267 -1.03916 -2 -0.530406 -2 0 
C -2 0.530406 -1.789267 1.03916 -1.414214 1.414214 
C -1.03916 1.789267 -0.530406 2 0 2 
z
" id="me27831dfef" style="stroke:#ffffff;stroke-width:0.75;"/>
    </defs>
    <g clip-path="url(#p2f819cdc35)">
     <use style="stroke:#ffffff;stroke-width:0.75;" x="74.952699" xlink:href="#me27831dfef" y="85.925229"/>
     <use style="stroke:#ffffff;stroke-width:0.75;" x="78.42717" xlink:href="#me27831dfef" y="77.02177"/>
     <use style="stroke:#ffffff;stroke-width:0.75;" x="81.90164" xlink:href="#me27831dfef" y="85.481762"/>
     <use style="stroke:#ffffff;stroke-width:0.75;" x="85.376111" xlink:href="#me27831dfef" y="136.651071"/>
     <use style="stroke:#ffffff;stroke-width:0.75;" x="88.850582" xlink:href="#me27831dfef" y="119.151168"/>
     <use style="stroke:#ffffff;stroke-width:0.75;" x="92.325053" xlink:href="#me27831dfef" y="110.793514"/>
     <use style="stroke:#ffffff;stroke-width:0.75;" x="95.799523" xlink:href="#me27831dfef" y="99.22925"/>
     <use style="stroke:#ffffff;stroke-width:0.75;" x="99.273994" xlink:href="#me27831dfef" y="102.606424"/>
     <use style="stroke:#ffffff;stroke-width:0.75;" x="102.748465" xlink:href="#me27831dfef" y="83.400877"/>
     <use style="stroke:#ffffff;stroke-width:0.75;" x="106.222935" xlink:href="#me27831dfef" y="74.599756"/>
     <use style="stroke:#ffffff;stroke-width:0.75;" x="109.697406" xlink:href="#me27831dfef" y="90.189338"/>
     <use style="stroke:#ffffff;stroke-width:0.75;" x="113.171877" xlink:href="#me27831dfef" y="65.730409"/>
     <use style="stroke:#ffffff;stroke-width:0.75;" x="116.646348" xlink:href="#me27831dfef" y="178.848695"/>
     <use style="stroke:#ffffff;stroke-width:0.75;" x="120.120818" xlink:href="#me27831dfef" y="111.271094"/>
     <use style="stroke:#ffffff;stroke-width:0.75;" x="123.595289" xlink:href="#me27831dfef" y="95.033366"/>
     <use style="stroke:#ffffff;stroke-width:0.75;" x="127.06976" xlink:href="#me27831dfef" y="82.445716"/>
     <use style="stroke:#ffffff;stroke-width:0.75;" x="130.544231" xlink:href="#me27831dfef" y="69.141696"/>
     <use style="stroke:#ffffff;stroke-width:0.75;" x="134.018701" xlink:href="#me27831dfef" y="75.384352"/>
     <use style="stroke:#ffffff;stroke-width:0.75;" x="137.493172" xlink:href="#me27831dfef" y="127.542934"/>
     <use style="stroke:#ffffff;stroke-width:0.75;" x="140.967643" xlink:href="#me27831dfef" y="154.765007"/>
     <use style="stroke:#ffffff;stroke-width:0.75;" x="144.442114" xlink:href="#me27831dfef" y="98.069412"/>
     <use style="stroke:#ffffff;stroke-width:0.75;" x="147.916584" xlink:href="#me27831dfef" y="93.873529"/>
     <use style="stroke:#ffffff;stroke-width:0.75;" x="151.391055" xlink:href="#me27831dfef" y="71.461371"/>
     <use style="stroke:#ffffff;stroke-width:0.75;" x="154.865526" xlink:href="#me27831dfef" y="70.915565"/>
     <use style="stroke:#ffffff;stroke-width:0.75;" x="158.339996" xlink:href="#me27831dfef" y="83.298538"/>
     <use style="stroke:#ffffff;stroke-width:0.75;" x="161.814467" xlink:href="#me27831dfef" y="124.575114"/>
     <use style="stroke:#ffffff;stroke-width:0.75;" x="165.288938" xlink:href="#me27831dfef" y="135.832362"/>
     <use style="stroke:#ffffff;stroke-width:0.75;" x="168.763409" xlink:href="#me27831dfef" y="128.191079"/>
     <use style="stroke:#ffffff;stroke-width:0.75;" x="172.237879" xlink:href="#me27831dfef" y="99.877394"/>
     <use style="stroke:#ffffff;stroke-width:0.75;" x="175.71235" xlink:href="#me27831dfef" y="91.417402"/>
     <use style="stroke:#ffffff;stroke-width:0.75;" x="179.186821" xlink:href="#me27831dfef" y="122.426003"/>
     <use style="stroke:#ffffff;stroke-width:0.75;" x="182.661292" xlink:href="#me27831dfef" y="78.045156"/>
     <use style="stroke:#ffffff;stroke-width:0.75;" x="186.135762" xlink:href="#me27831dfef" y="130.169625"/>
     <use style="stroke:#ffffff;stroke-width:0.75;" x="189.610233" xlink:href="#me27831dfef" y="53.381549"/>
     <use style="stroke:#ffffff;stroke-width:0.75;" x="193.084704" xlink:href="#me27831dfef" y="77.328785"/>
     <use style="stroke:#ffffff;stroke-width:0.75;" x="196.559175" xlink:href="#me27831dfef" y="69.07347"/>
     <use style="stroke:#ffffff;stroke-width:0.75;" x="200.033645" xlink:href="#me27831dfef" y="65.559844"/>
     <use style="stroke:#ffffff;stroke-width:0.75;" x="203.508116" xlink:href="#me27831dfef" y="67.811294"/>
     <use style="stroke:#ffffff;stroke-width:0.75;" x="206.982587" xlink:href="#me27831dfef" y="60.818155"/>
     <use style="stroke:#ffffff;stroke-width:0.75;" x="210.457058" xlink:href="#me27831dfef" y="36.76858"/>
     <use style="stroke:#ffffff;stroke-width:0.75;" x="213.931528" xlink:href="#me27831dfef" y="83.878457"/>
     <use style="stroke:#ffffff;stroke-width:0.75;" x="217.405999" xlink:href="#me27831dfef" y="99.70683"/>
     <use style="stroke:#ffffff;stroke-width:0.75;" x="220.88047" xlink:href="#me27831dfef" y="195.086422"/>
     <use style="stroke:#ffffff;stroke-width:0.75;" x="224.35494" xlink:href="#me27831dfef" y="75.077336"/>
     <use style="stroke:#ffffff;stroke-width:0.75;" x="227.829411" xlink:href="#me27831dfef" y="70.676775"/>
     <use style="stroke:#ffffff;stroke-width:0.75;" x="231.303882" xlink:href="#me27831dfef" y="55.428321"/>
     <use style="stroke:#ffffff;stroke-width:0.75;" x="234.778353" xlink:href="#me27831dfef" y="47.650586"/>
     <use style="stroke:#ffffff;stroke-width:0.75;" x="238.252823" xlink:href="#me27831dfef" y="64.297668"/>
     <use style="stroke:#ffffff;stroke-width:0.75;" x="241.727294" xlink:href="#me27831dfef" y="80.364831"/>
     <use style="stroke:#ffffff;stroke-width:0.75;" x="245.201765" xlink:href="#me27831dfef" y="76.885318"/>
     <use style="stroke:#ffffff;stroke-width:0.75;" x="248.676236" xlink:href="#me27831dfef" y="70.233308"/>
     <use style="stroke:#ffffff;stroke-width:0.75;" x="252.150706" xlink:href="#me27831dfef" y="81.831685"/>
     <use style="stroke:#ffffff;stroke-width:0.75;" x="255.625177" xlink:href="#me27831dfef" y="81.081201"/>
     <use style="stroke:#ffffff;stroke-width:0.75;" x="259.099648" xlink:href="#me27831dfef" y="42.192526"/>
     <use style="stroke:#ffffff;stroke-width:0.75;" x="262.574119" xlink:href="#me27831dfef" y="99.024573"/>
     <use style="stroke:#ffffff;stroke-width:0.75;" x="266.048589" xlink:href="#me27831dfef" y="102.811101"/>
     <use style="stroke:#ffffff;stroke-width:0.75;" x="269.52306" xlink:href="#me27831dfef" y="175.778536"/>
     <use style="stroke:#ffffff;stroke-width:0.75;" x="272.997531" xlink:href="#me27831dfef" y="75.72548"/>
     <use style="stroke:#ffffff;stroke-width:0.75;" x="276.472001" xlink:href="#me27831dfef" y="84.049021"/>
     <use style="stroke:#ffffff;stroke-width:0.75;" x="279.946472" xlink:href="#me27831dfef" y="55.803563"/>
     <use style="stroke:#ffffff;stroke-width:0.75;" x="283.420943" xlink:href="#me27831dfef" y="62.319121"/>
     <use style="stroke:#ffffff;stroke-width:0.75;" x="286.895414" xlink:href="#me27831dfef" y="214.29197"/>
     <use style="stroke:#ffffff;stroke-width:0.75;" x="290.369884" xlink:href="#me27831dfef" y="147.157836"/>
     <use style="stroke:#ffffff;stroke-width:0.75;" x="293.844355" xlink:href="#me27831dfef" y="115.97867"/>
     <use style="stroke:#ffffff;stroke-width:0.75;" x="297.318826" xlink:href="#me27831dfef" y="71.666048"/>
     <use style="stroke:#ffffff;stroke-width:0.75;" x="300.793297" xlink:href="#me27831dfef" y="75.793706"/>
     <use style="stroke:#ffffff;stroke-width:0.75;" x="304.267767" xlink:href="#me27831dfef" y="85.618213"/>
     <use style="stroke:#ffffff;stroke-width:0.75;" x="307.742238" xlink:href="#me27831dfef" y="91.51974"/>
     <use style="stroke:#ffffff;stroke-width:0.75;" x="311.216709" xlink:href="#me27831dfef" y="107.552791"/>
     <use style="stroke:#ffffff;stroke-width:0.75;" x="314.69118" xlink:href="#me27831dfef" y="133.615026"/>
     <use style="stroke:#ffffff;stroke-width:0.75;" x="318.16565" xlink:href="#me27831dfef" y="77.02177"/>
     <use style="stroke:#ffffff;stroke-width:0.75;" x="321.640121" xlink:href="#me27831dfef" y="79.512009"/>
     <use style="stroke:#ffffff;stroke-width:0.75;" x="325.114592" xlink:href="#me27831dfef" y="77.874591"/>
     <use style="stroke:#ffffff;stroke-width:0.75;" x="328.589062" xlink:href="#me27831dfef" y="148.999931"/>
     <use style="stroke:#ffffff;stroke-width:0.75;" x="332.063533" xlink:href="#me27831dfef" y="58.055012"/>
     <use style="stroke:#ffffff;stroke-width:0.75;" x="335.538004" xlink:href="#me27831dfef" y="101.241909"/>
     <use style="stroke:#ffffff;stroke-width:0.75;" x="339.012475" xlink:href="#me27831dfef" y="93.259497"/>
     <use style="stroke:#ffffff;stroke-width:0.75;" x="342.486945" xlink:href="#me27831dfef" y="79.341445"/>
     <use style="stroke:#ffffff;stroke-width:0.75;" x="345.961416" xlink:href="#me27831dfef" y="71.597823"/>
     <use style="stroke:#ffffff;stroke-width:0.75;" x="349.435887" xlink:href="#me27831dfef" y="82.991522"/>
     <use style="stroke:#ffffff;stroke-width:0.75;" x="352.910358" xlink:href="#me27831dfef" y="80.091928"/>
     <use style="stroke:#ffffff;stroke-width:0.75;" x="356.384828" xlink:href="#me27831dfef" y="66.173876"/>
     <use style="stroke:#ffffff;stroke-width:0.75;" x="359.859299" xlink:href="#me27831dfef" y="181.918854"/>
     <use style="stroke:#ffffff;stroke-width:0.75;" x="363.33377" xlink:href="#me27831dfef" y="333.27767"/>
     <use style="stroke:#ffffff;stroke-width:0.75;" x="366.808241" xlink:href="#me27831dfef" y="296.640445"/>
     <use style="stroke:#ffffff;stroke-width:0.75;" x="370.282711" xlink:href="#me27831dfef" y="144.155903"/>
     <use style="stroke:#ffffff;stroke-width:0.75;" x="373.757182" xlink:href="#me27831dfef" y="129.828497"/>
     <use style="stroke:#ffffff;stroke-width:0.75;" x="377.231653" xlink:href="#me27831dfef" y="134.570186"/>
     <use style="stroke:#ffffff;stroke-width:0.75;" x="380.706124" xlink:href="#me27831dfef" y="158.756213"/>
     <use style="stroke:#ffffff;stroke-width:0.75;" x="384.180594" xlink:href="#me27831dfef" y="159.813712"/>
     <use style="stroke:#ffffff;stroke-width:0.75;" x="387.655065" xlink:href="#me27831dfef" y="154.628555"/>
     <use style="stroke:#ffffff;stroke-width:0.75;" x="391.129536" xlink:href="#me27831dfef" y="140.062359"/>
     <use style="stroke:#ffffff;stroke-width:0.75;" x="394.604006" xlink:href="#me27831dfef" y="162.269839"/>
     <use style="stroke:#ffffff;stroke-width:0.75;" x="398.078477" xlink:href="#me27831dfef" y="152.718234"/>
     <use style="stroke:#ffffff;stroke-width:0.75;" x="401.552948" xlink:href="#me27831dfef" y="129.623819"/>
     <use style="stroke:#ffffff;stroke-width:0.75;" x="405.027419" xlink:href="#me27831dfef" y="111.066417"/>
     <use style="stroke:#ffffff;stroke-width:0.75;" x="408.501889" xlink:href="#me27831dfef" y="100.286749"/>
     <use style="stroke:#ffffff;stroke-width:0.75;" x="411.97636" xlink:href="#me27831dfef" y="120.174554"/>
     <use style="stroke:#ffffff;stroke-width:0.75;" x="415.450831" xlink:href="#me27831dfef" y="194.370052"/>
     <use style="stroke:#ffffff;stroke-width:0.75;" x="418.925302" xlink:href="#me27831dfef" y="146.577917"/>
     <use style="stroke:#ffffff;stroke-width:0.75;" x="422.399772" xlink:href="#me27831dfef" y="148.283561"/>
     <use style="stroke:#ffffff;stroke-width:0.75;" x="425.874243" xlink:href="#me27831dfef" y="139.653004"/>
     <use style="stroke:#ffffff;stroke-width:0.75;" x="429.348714" xlink:href="#me27831dfef" y="142.006792"/>
     <use style="stroke:#ffffff;stroke-width:0.75;" x="432.823185" xlink:href="#me27831dfef" y="174.75515"/>
     <use style="stroke:#ffffff;stroke-width:0.75;" x="436.297655" xlink:href="#me27831dfef" y="146.441466"/>
     <use style="stroke:#ffffff;stroke-width:0.75;" x="439.772126" xlink:href="#me27831dfef" y="141.836228"/>
     <use style="stroke:#ffffff;stroke-width:0.75;" x="443.246597" xlink:href="#me27831dfef" y="158.48331"/>
     <use style="stroke:#ffffff;stroke-width:0.75;" x="446.721067" xlink:href="#me27831dfef" y="251.304437"/>
     <use style="stroke:#ffffff;stroke-width:0.75;" x="450.195538" xlink:href="#me27831dfef" y="200.646821"/>
     <use style="stroke:#ffffff;stroke-width:0.75;" x="453.670009" xlink:href="#me27831dfef" y="256.353142"/>
     <use style="stroke:#ffffff;stroke-width:0.75;" x="457.14448" xlink:href="#me27831dfef" y="251.33855"/>
     <use style="stroke:#ffffff;stroke-width:0.75;" x="460.61895" xlink:href="#me27831dfef" y="160.495969"/>
     <use style="stroke:#ffffff;stroke-width:0.75;" x="464.093421" xlink:href="#me27831dfef" y="198.97529"/>
     <use style="stroke:#ffffff;stroke-width:0.75;" x="467.567892" xlink:href="#me27831dfef" y="154.594442"/>
     <use style="stroke:#ffffff;stroke-width:0.75;" x="471.042363" xlink:href="#me27831dfef" y="152.445331"/>
     <use style="stroke:#ffffff;stroke-width:0.75;" x="474.516833" xlink:href="#me27831dfef" y="140.67639"/>
     <use style="stroke:#ffffff;stroke-width:0.75;" x="477.991304" xlink:href="#me27831dfef" y="156.948231"/>
     <use style="stroke:#ffffff;stroke-width:0.75;" x="481.465775" xlink:href="#me27831dfef" y="175.437408"/>
     <use style="stroke:#ffffff;stroke-width:0.75;" x="484.940246" xlink:href="#me27831dfef" y="121.368504"/>
     <use style="stroke:#ffffff;stroke-width:0.75;" x="488.414716" xlink:href="#me27831dfef" y="108.678516"/>
     <use style="stroke:#ffffff;stroke-width:0.75;" x="491.889187" xlink:href="#me27831dfef" y="138.595505"/>
     <use style="stroke:#ffffff;stroke-width:0.75;" x="495.363658" xlink:href="#me27831dfef" y="150.671462"/>
     <use style="stroke:#ffffff;stroke-width:0.75;" x="498.838129" xlink:href="#me27831dfef" y="163.190886"/>
     <use style="stroke:#ffffff;stroke-width:0.75;" x="502.312599" xlink:href="#me27831dfef" y="143.610097"/>
     <use style="stroke:#ffffff;stroke-width:0.75;" x="505.78707" xlink:href="#me27831dfef" y="223.9118"/>
     <use style="stroke:#ffffff;stroke-width:0.75;" x="509.261541" xlink:href="#me27831dfef" y="157.664601"/>
     <use style="stroke:#ffffff;stroke-width:0.75;" x="512.736011" xlink:href="#me27831dfef" y="146.37324"/>
     <use style="stroke:#ffffff;stroke-width:0.75;" x="516.210482" xlink:href="#me27831dfef" y="152.581783"/>
     <use style="stroke:#ffffff;stroke-width:0.75;" x="519.684953" xlink:href="#me27831dfef" y="145.315741"/>
     <use style="stroke:#ffffff;stroke-width:0.75;" x="523.159424" xlink:href="#me27831dfef" y="142.620824"/>
     <use style="stroke:#ffffff;stroke-width:0.75;" x="526.633894" xlink:href="#me27831dfef" y="161.860484"/>
     <use style="stroke:#ffffff;stroke-width:0.75;" x="530.108365" xlink:href="#me27831dfef" y="204.876817"/>
     <use style="stroke:#ffffff;stroke-width:0.75;" x="533.582836" xlink:href="#me27831dfef" y="177.620632"/>
     <use style="stroke:#ffffff;stroke-width:0.75;" x="537.057307" xlink:href="#me27831dfef" y="144.462919"/>
     <use style="stroke:#ffffff;stroke-width:0.75;" x="540.531777" xlink:href="#me27831dfef" y="154.355652"/>
     <use style="stroke:#ffffff;stroke-width:0.75;" x="544.006248" xlink:href="#me27831dfef" y="193.210214"/>
     <use style="stroke:#ffffff;stroke-width:0.75;" x="547.480719" xlink:href="#me27831dfef" y="210.437215"/>
     <use style="stroke:#ffffff;stroke-width:0.75;" x="550.95519" xlink:href="#me27831dfef" y="274.364739"/>
     <use style="stroke:#ffffff;stroke-width:0.75;" x="554.42966" xlink:href="#me27831dfef" y="273.06845"/>
     <use style="stroke:#ffffff;stroke-width:0.75;" x="557.904131" xlink:href="#me27831dfef" y="302.644311"/>
     <use style="stroke:#ffffff;stroke-width:0.75;" x="561.378602" xlink:href="#me27831dfef" y="299.471813"/>
     <use style="stroke:#ffffff;stroke-width:0.75;" x="564.853072" xlink:href="#me27831dfef" y="318.984377"/>
     <use style="stroke:#ffffff;stroke-width:0.75;" x="568.327543" xlink:href="#me27831dfef" y="261.91354"/>
     <use style="stroke:#ffffff;stroke-width:0.75;" x="571.802014" xlink:href="#me27831dfef" y="228.448812"/>
     <use style="stroke:#ffffff;stroke-width:0.75;" x="575.276485" xlink:href="#me27831dfef" y="288.282791"/>
     <use style="stroke:#ffffff;stroke-width:0.75;" x="578.750955" xlink:href="#me27831dfef" y="272.761434"/>
     <use style="stroke:#ffffff;stroke-width:0.75;" x="582.225426" xlink:href="#me27831dfef" y="240.934124"/>
    </g>
   </g>
   <g id="patch_3">
    <path d="M 49.589063 348.103125 
L 49.589063 21.943125 
" style="fill:none;stroke:#ffffff;stroke-linecap:square;stroke-linejoin:miter;stroke-width:0.8;"/>
   </g>
   <g id="patch_4">
    <path d="M 607.589062 348.103125 
L 607.589062 21.943125 
" style="fill:none;stroke:#ffffff;stroke-linecap:square;stroke-linejoin:miter;stroke-width:0.8;"/>
   </g>
   <g id="patch_5">
    <path d="M 49.589062 348.103125 
L 607.589062 348.103125 
" style="fill:none;stroke:#ffffff;stroke-linecap:square;stroke-linejoin:miter;stroke-width:0.8;"/>
   </g>
   <g id="patch_6">
    <path d="M 49.589062 21.943125 
L 607.589062 21.943125 
" style="fill:none;stroke:#ffffff;stroke-linecap:square;stroke-linejoin:miter;stroke-width:0.8;"/>
   </g>
   <g id="text_15">
    <!-- Out-Sample Predictions -->
    <g style="fill:#262626;" transform="translate(265.231875 15.943125)scale(0.12 -0.12)">
     <defs>
      <path d="M 4.828125 34.859375 
Q 4.828125 52.6875 14.390625 62.765625 
Q 23.96875 72.859375 39.109375 72.859375 
Q 49.03125 72.859375 56.984375 68.109375 
Q 64.9375 63.375 69.109375 54.90625 
Q 73.296875 46.4375 73.296875 35.6875 
Q 73.296875 24.8125 68.890625 16.21875 
Q 64.5 7.625 56.4375 3.203125 
Q 48.390625 -1.21875 39.0625 -1.21875 
Q 28.953125 -1.21875 20.984375 3.65625 
Q 13.03125 8.546875 8.921875 16.984375 
Q 4.828125 25.4375 4.828125 34.859375 
z
M 14.59375 34.71875 
Q 14.59375 21.78125 21.546875 14.328125 
Q 28.515625 6.890625 39.015625 6.890625 
Q 49.703125 6.890625 56.609375 14.40625 
Q 63.53125 21.921875 63.53125 35.75 
Q 63.53125 44.484375 60.578125 51 
Q 57.625 57.515625 51.921875 61.109375 
Q 46.234375 64.703125 39.15625 64.703125 
Q 29.109375 64.703125 21.84375 57.78125 
Q 14.59375 50.875 14.59375 34.71875 
z
" id="ArialMT-79"/>
      <path d="M 40.578125 0 
L 40.578125 7.625 
Q 34.515625 -1.171875 24.125 -1.171875 
Q 19.53125 -1.171875 15.546875 0.578125 
Q 11.578125 2.34375 9.640625 5 
Q 7.71875 7.671875 6.9375 11.53125 
Q 6.390625 14.109375 6.390625 19.734375 
L 6.390625 51.859375 
L 15.1875 51.859375 
L 15.1875 23.09375 
Q 15.1875 16.21875 15.71875 13.8125 
Q 16.546875 10.359375 19.234375 8.375 
Q 21.921875 6.390625 25.875 6.390625 
Q 29.828125 6.390625 33.296875 8.421875 
Q 36.765625 10.453125 38.203125 13.9375 
Q 39.65625 17.4375 39.65625 24.078125 
L 39.65625 51.859375 
L 48.4375 51.859375 
L 48.4375 0 
z
" id="ArialMT-117"/>
      <path d="M 3.171875 21.484375 
L 3.171875 30.328125 
L 30.171875 30.328125 
L 30.171875 21.484375 
z
" id="ArialMT-45"/>
      <path d="M 4.5 23 
L 13.421875 23.78125 
Q 14.0625 18.40625 16.375 14.96875 
Q 18.703125 11.53125 23.578125 9.40625 
Q 28.46875 7.28125 34.578125 7.28125 
Q 39.984375 7.28125 44.140625 8.890625 
Q 48.296875 10.5 50.3125 13.296875 
Q 52.34375 16.109375 52.34375 19.4375 
Q 52.34375 22.796875 50.390625 25.3125 
Q 48.4375 27.828125 43.953125 29.546875 
Q 41.0625 30.671875 31.203125 33.03125 
Q 21.34375 35.40625 17.390625 37.5 
Q 12.25 40.1875 9.734375 44.15625 
Q 7.234375 48.140625 7.234375 53.078125 
Q 7.234375 58.5 10.296875 63.203125 
Q 13.375 67.921875 19.28125 70.359375 
Q 25.203125 72.796875 32.421875 72.796875 
Q 40.375 72.796875 46.453125 70.234375 
Q 52.546875 67.671875 55.8125 62.6875 
Q 59.078125 57.71875 59.328125 51.421875 
L 50.25 50.734375 
Q 49.515625 57.515625 45.28125 60.984375 
Q 41.0625 64.453125 32.8125 64.453125 
Q 24.21875 64.453125 20.28125 61.296875 
Q 16.359375 58.15625 16.359375 53.71875 
Q 16.359375 49.859375 19.140625 47.359375 
Q 21.875 44.875 33.421875 42.265625 
Q 44.96875 39.65625 49.265625 37.703125 
Q 55.515625 34.8125 58.484375 30.390625 
Q 61.46875 25.984375 61.46875 20.21875 
Q 61.46875 14.5 58.203125 9.4375 
Q 54.9375 4.390625 48.796875 1.578125 
Q 42.671875 -1.21875 35.015625 -1.21875 
Q 25.296875 -1.21875 18.71875 1.609375 
Q 12.15625 4.4375 8.421875 10.125 
Q 4.6875 15.828125 4.5 23 
z
" id="ArialMT-83"/>
      <path d="M 40.4375 6.390625 
Q 35.546875 2.25 31.03125 0.53125 
Q 26.515625 -1.171875 21.34375 -1.171875 
Q 12.796875 -1.171875 8.203125 3 
Q 3.609375 7.171875 3.609375 13.671875 
Q 3.609375 17.484375 5.34375 20.625 
Q 7.078125 23.78125 9.890625 25.6875 
Q 12.703125 27.59375 16.21875 28.5625 
Q 18.796875 29.25 24.03125 29.890625 
Q 34.671875 31.15625 39.703125 32.90625 
Q 39.75 34.71875 39.75 35.203125 
Q 39.75 40.578125 37.25 42.78125 
Q 33.890625 45.75 27.25 45.75 
Q 21.046875 45.75 18.09375 43.578125 
Q 15.140625 41.40625 13.71875 35.890625 
L 5.125 37.0625 
Q 6.296875 42.578125 8.984375 45.96875 
Q 11.671875 49.359375 16.75 51.1875 
Q 21.828125 53.03125 28.515625 53.03125 
Q 35.15625 53.03125 39.296875 51.46875 
Q 43.453125 49.90625 45.40625 47.53125 
Q 47.359375 45.171875 48.140625 41.546875 
Q 48.578125 39.3125 48.578125 33.453125 
L 48.578125 21.734375 
Q 48.578125 9.46875 49.140625 6.21875 
Q 49.703125 2.984375 51.375 0 
L 42.1875 0 
Q 40.828125 2.734375 40.4375 6.390625 
z
M 39.703125 26.03125 
Q 34.90625 24.078125 25.34375 22.703125 
Q 19.921875 21.921875 17.671875 20.9375 
Q 15.4375 19.96875 14.203125 18.09375 
Q 12.984375 16.21875 12.984375 13.921875 
Q 12.984375 10.40625 15.640625 8.0625 
Q 18.3125 5.71875 23.4375 5.71875 
Q 28.515625 5.71875 32.46875 7.9375 
Q 36.421875 10.15625 38.28125 14.015625 
Q 39.703125 17 39.703125 22.796875 
z
" id="ArialMT-97"/>
      <path d="M 6.59375 0 
L 6.59375 51.859375 
L 14.453125 51.859375 
L 14.453125 44.578125 
Q 16.890625 48.390625 20.9375 50.703125 
Q 25 53.03125 30.171875 53.03125 
Q 35.9375 53.03125 39.625 50.640625 
Q 43.3125 48.25 44.828125 43.953125 
Q 50.984375 53.03125 60.84375 53.03125 
Q 68.5625 53.03125 72.703125 48.75 
Q 76.859375 44.484375 76.859375 35.59375 
L 76.859375 0 
L 68.109375 0 
L 68.109375 32.671875 
Q 68.109375 37.9375 67.25 40.25 
Q 66.40625 42.578125 64.15625 43.984375 
Q 61.921875 45.40625 58.890625 45.40625 
Q 53.421875 45.40625 49.796875 41.765625 
Q 46.1875 38.140625 46.1875 30.125 
L 46.1875 0 
L 37.40625 0 
L 37.40625 33.6875 
Q 37.40625 39.546875 35.25 42.46875 
Q 33.109375 45.40625 28.21875 45.40625 
Q 24.515625 45.40625 21.359375 43.453125 
Q 18.21875 41.5 16.796875 37.734375 
Q 15.375 33.984375 15.375 26.90625 
L 15.375 0 
z
" id="ArialMT-109"/>
      <path d="M 6.59375 -19.875 
L 6.59375 51.859375 
L 14.59375 51.859375 
L 14.59375 45.125 
Q 17.4375 49.078125 21 51.046875 
Q 24.5625 53.03125 29.640625 53.03125 
Q 36.28125 53.03125 41.359375 49.609375 
Q 46.4375 46.1875 49.015625 39.953125 
Q 51.609375 33.734375 51.609375 26.3125 
Q 51.609375 18.359375 48.75 11.984375 
Q 45.90625 5.609375 40.453125 2.21875 
Q 35.015625 -1.171875 29 -1.171875 
Q 24.609375 -1.171875 21.109375 0.6875 
Q 17.625 2.546875 15.375 5.375 
L 15.375 -19.875 
z
M 14.546875 25.640625 
Q 14.546875 15.625 18.59375 10.84375 
Q 22.65625 6.0625 28.421875 6.0625 
Q 34.28125 6.0625 38.453125 11.015625 
Q 42.625 15.96875 42.625 26.375 
Q 42.625 36.28125 38.546875 41.203125 
Q 34.46875 46.140625 28.8125 46.140625 
Q 23.1875 46.140625 18.859375 40.890625 
Q 14.546875 35.640625 14.546875 25.640625 
z
" id="ArialMT-112"/>
      <path d="M 6.390625 0 
L 6.390625 71.578125 
L 15.1875 71.578125 
L 15.1875 0 
z
" id="ArialMT-108"/>
      <path d="M 42.09375 16.703125 
L 51.171875 15.578125 
Q 49.03125 7.625 43.21875 3.21875 
Q 37.40625 -1.171875 28.375 -1.171875 
Q 17 -1.171875 10.328125 5.828125 
Q 3.65625 12.84375 3.65625 25.484375 
Q 3.65625 38.578125 10.390625 45.796875 
Q 17.140625 53.03125 27.875 53.03125 
Q 38.28125 53.03125 44.875 45.953125 
Q 51.46875 38.875 51.46875 26.03125 
Q 51.46875 25.25 51.421875 23.6875 
L 12.75 23.6875 
Q 13.234375 15.140625 17.578125 10.59375 
Q 21.921875 6.0625 28.421875 6.0625 
Q 33.25 6.0625 36.671875 8.59375 
Q 40.09375 11.140625 42.09375 16.703125 
z
M 13.234375 30.90625 
L 42.1875 30.90625 
Q 41.609375 37.453125 38.875 40.71875 
Q 34.671875 45.796875 27.984375 45.796875 
Q 21.921875 45.796875 17.796875 41.75 
Q 13.671875 37.703125 13.234375 30.90625 
z
" id="ArialMT-101"/>
      <path id="ArialMT-32"/>
      <path d="M 7.71875 0 
L 7.71875 71.578125 
L 34.71875 71.578125 
Q 41.84375 71.578125 45.609375 70.90625 
Q 50.875 70.015625 54.4375 67.546875 
Q 58.015625 65.09375 60.1875 60.640625 
Q 62.359375 56.203125 62.359375 50.875 
Q 62.359375 41.75 56.546875 35.421875 
Q 50.734375 29.109375 35.546875 29.109375 
L 17.1875 29.109375 
L 17.1875 0 
z
M 17.1875 37.546875 
L 35.6875 37.546875 
Q 44.875 37.546875 48.734375 40.96875 
Q 52.59375 44.390625 52.59375 50.59375 
Q 52.59375 55.078125 50.3125 58.265625 
Q 48.046875 61.46875 44.34375 62.5 
Q 41.9375 63.140625 35.5 63.140625 
L 17.1875 63.140625 
z
" id="ArialMT-80"/>
      <path d="M 6.5 0 
L 6.5 51.859375 
L 14.40625 51.859375 
L 14.40625 44 
Q 17.4375 49.515625 20 51.265625 
Q 22.5625 53.03125 25.640625 53.03125 
Q 30.078125 53.03125 34.671875 50.203125 
L 31.640625 42.046875 
Q 28.421875 43.953125 25.203125 43.953125 
Q 22.3125 43.953125 20.015625 42.21875 
Q 17.71875 40.484375 16.75 37.40625 
Q 15.28125 32.71875 15.28125 27.15625 
L 15.28125 0 
z
" id="ArialMT-114"/>
      <path d="M 40.234375 0 
L 40.234375 6.546875 
Q 35.296875 -1.171875 25.734375 -1.171875 
Q 19.53125 -1.171875 14.328125 2.25 
Q 9.125 5.671875 6.265625 11.796875 
Q 3.421875 17.921875 3.421875 25.875 
Q 3.421875 33.640625 6 39.96875 
Q 8.59375 46.296875 13.765625 49.65625 
Q 18.953125 53.03125 25.34375 53.03125 
Q 30.03125 53.03125 33.6875 51.046875 
Q 37.359375 49.078125 39.65625 45.90625 
L 39.65625 71.578125 
L 48.390625 71.578125 
L 48.390625 0 
z
M 12.453125 25.875 
Q 12.453125 15.921875 16.640625 10.984375 
Q 20.84375 6.0625 26.5625 6.0625 
Q 32.328125 6.0625 36.34375 10.765625 
Q 40.375 15.484375 40.375 25.140625 
Q 40.375 35.796875 36.265625 40.765625 
Q 32.171875 45.75 26.171875 45.75 
Q 20.3125 45.75 16.375 40.96875 
Q 12.453125 36.1875 12.453125 25.875 
z
" id="ArialMT-100"/>
      <path d="M 6.640625 61.46875 
L 6.640625 71.578125 
L 15.4375 71.578125 
L 15.4375 61.46875 
z
M 6.640625 0 
L 6.640625 51.859375 
L 15.4375 51.859375 
L 15.4375 0 
z
" id="ArialMT-105"/>
      <path d="M 3.328125 25.921875 
Q 3.328125 40.328125 11.328125 47.265625 
Q 18.015625 53.03125 27.640625 53.03125 
Q 38.328125 53.03125 45.109375 46.015625 
Q 51.90625 39.015625 51.90625 26.65625 
Q 51.90625 16.65625 48.90625 10.90625 
Q 45.90625 5.171875 40.15625 2 
Q 34.421875 -1.171875 27.640625 -1.171875 
Q 16.75 -1.171875 10.03125 5.8125 
Q 3.328125 12.796875 3.328125 25.921875 
z
M 12.359375 25.921875 
Q 12.359375 15.96875 16.703125 11.015625 
Q 21.046875 6.0625 27.640625 6.0625 
Q 34.1875 6.0625 38.53125 11.03125 
Q 42.875 16.015625 42.875 26.21875 
Q 42.875 35.84375 38.5 40.796875 
Q 34.125 45.75 27.640625 45.75 
Q 21.046875 45.75 16.703125 40.8125 
Q 12.359375 35.890625 12.359375 25.921875 
z
" id="ArialMT-111"/>
      <path d="M 3.078125 15.484375 
L 11.765625 16.84375 
Q 12.5 11.625 15.84375 8.84375 
Q 19.1875 6.0625 25.203125 6.0625 
Q 31.25 6.0625 34.171875 8.515625 
Q 37.109375 10.984375 37.109375 14.3125 
Q 37.109375 17.28125 34.515625 19 
Q 32.71875 20.171875 25.53125 21.96875 
Q 15.875 24.421875 12.140625 26.203125 
Q 8.40625 27.984375 6.46875 31.125 
Q 4.546875 34.28125 4.546875 38.09375 
Q 4.546875 41.546875 6.125 44.5 
Q 7.71875 47.46875 10.453125 49.421875 
Q 12.5 50.921875 16.03125 51.96875 
Q 19.578125 53.03125 23.640625 53.03125 
Q 29.734375 53.03125 34.34375 51.265625 
Q 38.96875 49.515625 41.15625 46.5 
Q 43.359375 43.5 44.1875 38.484375 
L 35.59375 37.3125 
Q 35.015625 41.3125 32.203125 43.546875 
Q 29.390625 45.796875 24.265625 45.796875 
Q 18.21875 45.796875 15.625 43.796875 
Q 13.03125 41.796875 13.03125 39.109375 
Q 13.03125 37.40625 14.109375 36.03125 
Q 15.1875 34.625 17.484375 33.6875 
Q 18.796875 33.203125 25.25 31.453125 
Q 34.578125 28.953125 38.25 27.359375 
Q 41.9375 25.78125 44.03125 22.75 
Q 46.140625 19.734375 46.140625 15.234375 
Q 46.140625 10.84375 43.578125 6.953125 
Q 41.015625 3.078125 36.171875 0.953125 
Q 31.34375 -1.171875 25.25 -1.171875 
Q 15.140625 -1.171875 9.84375 3.03125 
Q 4.546875 7.234375 3.078125 15.484375 
z
" id="ArialMT-115"/>
     </defs>
     <use xlink:href="#ArialMT-79"/>
     <use x="77.783203" xlink:href="#ArialMT-117"/>
     <use x="133.398438" xlink:href="#ArialMT-116"/>
     <use x="161.181641" xlink:href="#ArialMT-45"/>
     <use x="194.482422" xlink:href="#ArialMT-83"/>
     <use x="261.181641" xlink:href="#ArialMT-97"/>
     <use x="316.796875" xlink:href="#ArialMT-109"/>
     <use x="400.097656" xlink:href="#ArialMT-112"/>
     <use x="455.712891" xlink:href="#ArialMT-108"/>
     <use x="477.929688" xlink:href="#ArialMT-101"/>
     <use x="533.544922" xlink:href="#ArialMT-32"/>
     <use x="561.328125" xlink:href="#ArialMT-80"/>
     <use x="628.027344" xlink:href="#ArialMT-114"/>
     <use x="661.328125" xlink:href="#ArialMT-101"/>
     <use x="716.943359" xlink:href="#ArialMT-100"/>
     <use x="772.558594" xlink:href="#ArialMT-105"/>
     <use x="794.775391" xlink:href="#ArialMT-99"/>
     <use x="844.775391" xlink:href="#ArialMT-116"/>
     <use x="872.558594" xlink:href="#ArialMT-105"/>
     <use x="894.775391" xlink:href="#ArialMT-111"/>
     <use x="950.390625" xlink:href="#ArialMT-110"/>
     <use x="1006.005859" xlink:href="#ArialMT-115"/>
    </g>
   </g>
   <g id="legend_1">
    <g id="patch_7">
     <path d="M 541.910937 72.49625 
L 600.589062 72.49625 
Q 602.589062 72.49625 602.589062 70.49625 
L 602.589062 28.943125 
Q 602.589062 26.943125 600.589062 26.943125 
L 541.910937 26.943125 
Q 539.910937 26.943125 539.910937 28.943125 
L 539.910937 70.49625 
Q 539.910937 72.49625 541.910937 72.49625 
z
" style="fill:#e6e6e6;opacity:0.8;stroke:#cccccc;stroke-linejoin:miter;"/>
    </g>
    <g id="line2d_17">
     <path d="M 543.910937 34.600938 
L 563.910937 34.600938 
" style="fill:none;stroke:#4c72b0;stroke-linecap:round;stroke-width:1.5;"/>
    </g>
    <g id="line2d_18">
     <g>
      <use style="fill:#4c72b0;stroke:#ffffff;stroke-width:0.75;" x="553.910937" xlink:href="#m2d3ea1af3e" y="34.600938"/>
     </g>
    </g>
    <g id="text_16">
     <!-- linear -->
     <g style="fill:#262626;" transform="translate(571.910937 38.100938)scale(0.1 -0.1)">
      <use xlink:href="#ArialMT-108"/>
      <use x="22.216797" xlink:href="#ArialMT-105"/>
      <use x="44.433594" xlink:href="#ArialMT-110"/>
      <use x="100.048828" xlink:href="#ArialMT-101"/>
      <use x="155.664062" xlink:href="#ArialMT-97"/>
      <use x="211.279297" xlink:href="#ArialMT-114"/>
     </g>
    </g>
    <g id="line2d_19">
     <path d="M 543.910937 48.74625 
L 563.910937 48.74625 
" style="fill:none;stroke:#dd8452;stroke-linecap:round;stroke-width:1.5;"/>
    </g>
    <g id="line2d_20">
     <g>
      <use style="fill:#dd8452;stroke:#ffffff;stroke-width:0.75;" x="553.910937" xlink:href="#m7386b292e2" y="48.74625"/>
     </g>
    </g>
    <g id="text_17">
     <!-- tree -->
     <g style="fill:#262626;" transform="translate(571.910937 52.24625)scale(0.1 -0.1)">
      <use xlink:href="#ArialMT-116"/>
      <use x="27.783203" xlink:href="#ArialMT-114"/>
      <use x="61.083984" xlink:href="#ArialMT-101"/>
      <use x="116.699219" xlink:href="#ArialMT-101"/>
     </g>
    </g>
    <g id="line2d_21">
     <path d="M 543.910937 62.891563 
L 563.910937 62.891563 
" style="fill:none;stroke:#000000;stroke-linecap:round;stroke-width:1.5;"/>
    </g>
    <g id="line2d_22">
     <g>
      <use style="stroke:#ffffff;stroke-width:0.75;" x="553.910937" xlink:href="#me27831dfef" y="62.891563"/>
     </g>
    </g>
    <g id="text_18">
     <!-- y_test -->
     <g style="fill:#262626;" transform="translate(571.910937 66.391563)scale(0.1 -0.1)">
      <defs>
       <path d="M 6.203125 -19.96875 
L 5.21875 -11.71875 
Q 8.109375 -12.5 10.25 -12.5 
Q 13.1875 -12.5 14.9375 -11.515625 
Q 16.703125 -10.546875 17.828125 -8.796875 
Q 18.65625 -7.46875 20.515625 -2.25 
Q 20.75 -1.515625 21.296875 -0.09375 
L 1.609375 51.859375 
L 11.078125 51.859375 
L 21.875 21.828125 
Q 23.96875 16.109375 25.640625 9.8125 
Q 27.15625 15.875 29.25 21.625 
L 40.328125 51.859375 
L 49.125 51.859375 
L 29.390625 -0.875 
Q 26.21875 -9.421875 24.46875 -12.640625 
Q 22.125 -17 19.09375 -19.015625 
Q 16.0625 -21.046875 11.859375 -21.046875 
Q 9.328125 -21.046875 6.203125 -19.96875 
z
" id="ArialMT-121"/>
       <path d="M -1.515625 -19.875 
L -1.515625 -13.53125 
L 56.734375 -13.53125 
L 56.734375 -19.875 
z
" id="ArialMT-95"/>
      </defs>
      <use xlink:href="#ArialMT-121"/>
      <use x="50" xlink:href="#ArialMT-95"/>
      <use x="105.615234" xlink:href="#ArialMT-116"/>
      <use x="133.398438" xlink:href="#ArialMT-101"/>
      <use x="189.013672" xlink:href="#ArialMT-115"/>
      <use x="239.013672" xlink:href="#ArialMT-116"/>
     </g>
    </g>
   </g>
  </g>
 </g>
 <defs>
  <clipPath id="p2f819cdc35">
   <rect height="326.16" width="558" x="49.589063" y="21.943125"/>
  </clipPath>
 </defs>
</svg>
