<?xml version="1.0" encoding="utf-8" standalone="no"?>
<!DOCTYPE svg PUBLIC "-//W3C//DTD SVG 1.1//EN"
  "http://www.w3.org/Graphics/SVG/1.1/DTD/svg11.dtd">
<!-- Created with matplotlib (https://matplotlib.org/) -->
<svg height="371.440938pt" version="1.1" viewBox="0 0 614.789062 371.440938" width="614.789062pt" xmlns="http://www.w3.org/2000/svg" xmlns:xlink="http://www.w3.org/1999/xlink">
 <metadata>
  <rdf:RDF xmlns:cc="http://creativecommons.org/ns#" xmlns:dc="http://purl.org/dc/elements/1.1/" xmlns:rdf="http://www.w3.org/1999/02/22-rdf-syntax-ns#">
   <cc:Work>
    <dc:type rdf:resource="http://purl.org/dc/dcmitype/StillImage"/>
    <dc:date>2021-06-30T17:01:47.397238</dc:date>
    <dc:format>image/svg+xml</dc:format>
    <dc:creator>
     <cc:Agent>
      <dc:title>Matplotlib v3.3.4, https://matplotlib.org/</dc:title>
     </cc:Agent>
    </dc:creator>
   </cc:Work>
  </rdf:RDF>
 </metadata>
 <defs>
  <style type="text/css">*{stroke-linecap:butt;stroke-linejoin:round;}</style>
 </defs>
 <g id="figure_1">
  <g id="patch_1">
   <path d="M 0 371.440938 
L 614.789062 371.440938 
L 614.789062 0 
L 0 0 
z
" style="fill:#ffffff;"/>
  </g>
  <g id="axes_1">
   <g id="patch_2">
    <path d="M 49.589063 348.095625 
L 607.589062 348.095625 
L 607.589062 21.935625 
L 49.589063 21.935625 
z
" style="fill:#e6e6e6;"/>
   </g>
   <g id="matplotlib.axis_1">
    <g id="xtick_1">
     <g id="line2d_1">
      <path clip-path="url(#pf4b15597a0)" d="M 74.952699 348.095625 
L 74.952699 21.935625 
" style="fill:none;stroke:#cccccc;stroke-linecap:round;stroke-width:0.8;"/>
     </g>
     <g id="text_1">
      <!-- 0 -->
      <g style="fill:#262626;" transform="translate(72.17223 362.253438)scale(0.1 -0.1)">
       <defs>
        <path d="M 4.15625 35.296875 
Q 4.15625 48 6.765625 55.734375 
Q 9.375 63.484375 14.515625 67.671875 
Q 19.671875 71.875 27.484375 71.875 
Q 33.25 71.875 37.59375 69.546875 
Q 41.9375 67.234375 44.765625 62.859375 
Q 47.609375 58.5 49.21875 52.21875 
Q 50.828125 45.953125 50.828125 35.296875 
Q 50.828125 22.703125 48.234375 14.96875 
Q 45.65625 7.234375 40.5 3 
Q 35.359375 -1.21875 27.484375 -1.21875 
Q 17.140625 -1.21875 11.234375 6.203125 
Q 4.15625 15.140625 4.15625 35.296875 
z
M 13.1875 35.296875 
Q 13.1875 17.671875 17.3125 11.828125 
Q 21.4375 6 27.484375 6 
Q 33.546875 6 37.671875 11.859375 
Q 41.796875 17.71875 41.796875 35.296875 
Q 41.796875 52.984375 37.671875 58.78125 
Q 33.546875 64.59375 27.390625 64.59375 
Q 21.34375 64.59375 17.71875 59.46875 
Q 13.1875 52.9375 13.1875 35.296875 
z
" id="ArialMT-48"/>
       </defs>
       <use xlink:href="#ArialMT-48"/>
      </g>
     </g>
    </g>
    <g id="xtick_2">
     <g id="line2d_2">
      <path clip-path="url(#pf4b15597a0)" d="M 161.963458 348.095625 
L 161.963458 21.935625 
" style="fill:none;stroke:#cccccc;stroke-linecap:round;stroke-width:0.8;"/>
     </g>
     <g id="text_2">
      <!-- 100 -->
      <g style="fill:#262626;" transform="translate(153.622052 362.253438)scale(0.1 -0.1)">
       <defs>
        <path d="M 37.25 0 
L 28.46875 0 
L 28.46875 56 
Q 25.296875 52.984375 20.140625 49.953125 
Q 14.984375 46.921875 10.890625 45.40625 
L 10.890625 53.90625 
Q 18.265625 57.375 23.78125 62.296875 
Q 29.296875 67.234375 31.59375 71.875 
L 37.25 71.875 
z
" id="ArialMT-49"/>
       </defs>
       <use xlink:href="#ArialMT-49"/>
       <use x="55.615234" xlink:href="#ArialMT-48"/>
       <use x="111.230469" xlink:href="#ArialMT-48"/>
      </g>
     </g>
    </g>
    <g id="xtick_3">
     <g id="line2d_3">
      <path clip-path="url(#pf4b15597a0)" d="M 248.974218 348.095625 
L 248.974218 21.935625 
" style="fill:none;stroke:#cccccc;stroke-linecap:round;stroke-width:0.8;"/>
     </g>
     <g id="text_3">
      <!-- 200 -->
      <g style="fill:#262626;" transform="translate(240.632811 362.253438)scale(0.1 -0.1)">
       <defs>
        <path d="M 50.34375 8.453125 
L 50.34375 0 
L 3.03125 0 
Q 2.9375 3.171875 4.046875 6.109375 
Q 5.859375 10.9375 9.828125 15.625 
Q 13.8125 20.3125 21.34375 26.46875 
Q 33.015625 36.03125 37.109375 41.625 
Q 41.21875 47.21875 41.21875 52.203125 
Q 41.21875 57.421875 37.46875 61 
Q 33.734375 64.59375 27.734375 64.59375 
Q 21.390625 64.59375 17.578125 60.78125 
Q 13.765625 56.984375 13.71875 50.25 
L 4.6875 51.171875 
Q 5.609375 61.28125 11.65625 66.578125 
Q 17.71875 71.875 27.9375 71.875 
Q 38.234375 71.875 44.234375 66.15625 
Q 50.25 60.453125 50.25 52 
Q 50.25 47.703125 48.484375 43.546875 
Q 46.734375 39.40625 42.65625 34.8125 
Q 38.578125 30.21875 29.109375 22.21875 
Q 21.1875 15.578125 18.9375 13.203125 
Q 16.703125 10.84375 15.234375 8.453125 
z
" id="ArialMT-50"/>
       </defs>
       <use xlink:href="#ArialMT-50"/>
       <use x="55.615234" xlink:href="#ArialMT-48"/>
       <use x="111.230469" xlink:href="#ArialMT-48"/>
      </g>
     </g>
    </g>
    <g id="xtick_4">
     <g id="line2d_4">
      <path clip-path="url(#pf4b15597a0)" d="M 335.984977 348.095625 
L 335.984977 21.935625 
" style="fill:none;stroke:#cccccc;stroke-linecap:round;stroke-width:0.8;"/>
     </g>
     <g id="text_4">
      <!-- 300 -->
      <g style="fill:#262626;" transform="translate(327.643571 362.253438)scale(0.1 -0.1)">
       <defs>
        <path d="M 4.203125 18.890625 
L 12.984375 20.0625 
Q 14.5 12.59375 18.140625 9.296875 
Q 21.78125 6 27 6 
Q 33.203125 6 37.46875 10.296875 
Q 41.75 14.59375 41.75 20.953125 
Q 41.75 27 37.796875 30.921875 
Q 33.84375 34.859375 27.734375 34.859375 
Q 25.25 34.859375 21.53125 33.890625 
L 22.515625 41.609375 
Q 23.390625 41.5 23.921875 41.5 
Q 29.546875 41.5 34.03125 44.421875 
Q 38.53125 47.359375 38.53125 53.46875 
Q 38.53125 58.296875 35.25 61.46875 
Q 31.984375 64.65625 26.8125 64.65625 
Q 21.6875 64.65625 18.265625 61.421875 
Q 14.84375 58.203125 13.875 51.765625 
L 5.078125 53.328125 
Q 6.6875 62.15625 12.390625 67.015625 
Q 18.109375 71.875 26.609375 71.875 
Q 32.46875 71.875 37.390625 69.359375 
Q 42.328125 66.84375 44.9375 62.5 
Q 47.5625 58.15625 47.5625 53.265625 
Q 47.5625 48.640625 45.0625 44.828125 
Q 42.578125 41.015625 37.703125 38.765625 
Q 44.046875 37.3125 47.5625 32.6875 
Q 51.078125 28.078125 51.078125 21.140625 
Q 51.078125 11.765625 44.234375 5.25 
Q 37.40625 -1.265625 26.953125 -1.265625 
Q 17.53125 -1.265625 11.296875 4.34375 
Q 5.078125 9.96875 4.203125 18.890625 
z
" id="ArialMT-51"/>
       </defs>
       <use xlink:href="#ArialMT-51"/>
       <use x="55.615234" xlink:href="#ArialMT-48"/>
       <use x="111.230469" xlink:href="#ArialMT-48"/>
      </g>
     </g>
    </g>
    <g id="xtick_5">
     <g id="line2d_5">
      <path clip-path="url(#pf4b15597a0)" d="M 422.995736 348.095625 
L 422.995736 21.935625 
" style="fill:none;stroke:#cccccc;stroke-linecap:round;stroke-width:0.8;"/>
     </g>
     <g id="text_5">
      <!-- 400 -->
      <g style="fill:#262626;" transform="translate(414.65433 362.253438)scale(0.1 -0.1)">
       <defs>
        <path d="M 32.328125 0 
L 32.328125 17.140625 
L 1.265625 17.140625 
L 1.265625 25.203125 
L 33.9375 71.578125 
L 41.109375 71.578125 
L 41.109375 25.203125 
L 50.78125 25.203125 
L 50.78125 17.140625 
L 41.109375 17.140625 
L 41.109375 0 
z
M 32.328125 25.203125 
L 32.328125 57.46875 
L 9.90625 25.203125 
z
" id="ArialMT-52"/>
       </defs>
       <use xlink:href="#ArialMT-52"/>
       <use x="55.615234" xlink:href="#ArialMT-48"/>
       <use x="111.230469" xlink:href="#ArialMT-48"/>
      </g>
     </g>
    </g>
    <g id="xtick_6">
     <g id="line2d_6">
      <path clip-path="url(#pf4b15597a0)" d="M 510.006496 348.095625 
L 510.006496 21.935625 
" style="fill:none;stroke:#cccccc;stroke-linecap:round;stroke-width:0.8;"/>
     </g>
     <g id="text_6">
      <!-- 500 -->
      <g style="fill:#262626;" transform="translate(501.66509 362.253438)scale(0.1 -0.1)">
       <defs>
        <path d="M 4.15625 18.75 
L 13.375 19.53125 
Q 14.40625 12.796875 18.140625 9.390625 
Q 21.875 6 27.15625 6 
Q 33.5 6 37.890625 10.78125 
Q 42.28125 15.578125 42.28125 23.484375 
Q 42.28125 31 38.0625 35.34375 
Q 33.84375 39.703125 27 39.703125 
Q 22.75 39.703125 19.328125 37.765625 
Q 15.921875 35.84375 13.96875 32.765625 
L 5.71875 33.84375 
L 12.640625 70.609375 
L 48.25 70.609375 
L 48.25 62.203125 
L 19.671875 62.203125 
L 15.828125 42.96875 
Q 22.265625 47.46875 29.34375 47.46875 
Q 38.71875 47.46875 45.15625 40.96875 
Q 51.609375 34.46875 51.609375 24.265625 
Q 51.609375 14.546875 45.953125 7.46875 
Q 39.0625 -1.21875 27.15625 -1.21875 
Q 17.390625 -1.21875 11.203125 4.25 
Q 5.03125 9.71875 4.15625 18.75 
z
" id="ArialMT-53"/>
       </defs>
       <use xlink:href="#ArialMT-53"/>
       <use x="55.615234" xlink:href="#ArialMT-48"/>
       <use x="111.230469" xlink:href="#ArialMT-48"/>
      </g>
     </g>
    </g>
    <g id="xtick_7">
     <g id="line2d_7">
      <path clip-path="url(#pf4b15597a0)" d="M 597.017255 348.095625 
L 597.017255 21.935625 
" style="fill:none;stroke:#cccccc;stroke-linecap:round;stroke-width:0.8;"/>
     </g>
     <g id="text_7">
      <!-- 600 -->
      <g style="fill:#262626;" transform="translate(588.675849 362.253438)scale(0.1 -0.1)">
       <defs>
        <path d="M 49.75 54.046875 
L 41.015625 53.375 
Q 39.84375 58.546875 37.703125 60.890625 
Q 34.125 64.65625 28.90625 64.65625 
Q 24.703125 64.65625 21.53125 62.3125 
Q 17.390625 59.28125 14.984375 53.46875 
Q 12.59375 47.65625 12.5 36.921875 
Q 15.671875 41.75 20.265625 44.09375 
Q 24.859375 46.4375 29.890625 46.4375 
Q 38.671875 46.4375 44.84375 39.96875 
Q 51.03125 33.5 51.03125 23.25 
Q 51.03125 16.5 48.125 10.71875 
Q 45.21875 4.9375 40.140625 1.859375 
Q 35.0625 -1.21875 28.609375 -1.21875 
Q 17.625 -1.21875 10.6875 6.859375 
Q 3.765625 14.9375 3.765625 33.5 
Q 3.765625 54.25 11.421875 63.671875 
Q 18.109375 71.875 29.4375 71.875 
Q 37.890625 71.875 43.28125 67.140625 
Q 48.6875 62.40625 49.75 54.046875 
z
M 13.875 23.1875 
Q 13.875 18.65625 15.796875 14.5 
Q 17.71875 10.359375 21.1875 8.171875 
Q 24.65625 6 28.46875 6 
Q 34.03125 6 38.03125 10.484375 
Q 42.046875 14.984375 42.046875 22.703125 
Q 42.046875 30.125 38.078125 34.390625 
Q 34.125 38.671875 28.125 38.671875 
Q 22.171875 38.671875 18.015625 34.390625 
Q 13.875 30.125 13.875 23.1875 
z
" id="ArialMT-54"/>
       </defs>
       <use xlink:href="#ArialMT-54"/>
       <use x="55.615234" xlink:href="#ArialMT-48"/>
       <use x="111.230469" xlink:href="#ArialMT-48"/>
      </g>
     </g>
    </g>
   </g>
   <g id="matplotlib.axis_2">
    <g id="ytick_1">
     <g id="line2d_8">
      <path clip-path="url(#pf4b15597a0)" d="M 49.589063 347.994184 
L 607.589062 347.994184 
" style="fill:none;stroke:#cccccc;stroke-linecap:round;stroke-width:0.8;"/>
     </g>
     <g id="text_8">
      <!-- 0 -->
      <g style="fill:#262626;" transform="translate(37.028125 351.57309)scale(0.1 -0.1)">
       <use xlink:href="#ArialMT-48"/>
      </g>
     </g>
    </g>
    <g id="ytick_2">
     <g id="line2d_9">
      <path clip-path="url(#pf4b15597a0)" d="M 49.589063 310.774248 
L 607.589062 310.774248 
" style="fill:none;stroke:#cccccc;stroke-linecap:round;stroke-width:0.8;"/>
     </g>
     <g id="text_9">
      <!-- 1000 -->
      <g style="fill:#262626;" transform="translate(20.345313 314.353154)scale(0.1 -0.1)">
       <use xlink:href="#ArialMT-49"/>
       <use x="55.615234" xlink:href="#ArialMT-48"/>
       <use x="111.230469" xlink:href="#ArialMT-48"/>
       <use x="166.845703" xlink:href="#ArialMT-48"/>
      </g>
     </g>
    </g>
    <g id="ytick_3">
     <g id="line2d_10">
      <path clip-path="url(#pf4b15597a0)" d="M 49.589063 273.554312 
L 607.589062 273.554312 
" style="fill:none;stroke:#cccccc;stroke-linecap:round;stroke-width:0.8;"/>
     </g>
     <g id="text_10">
      <!-- 2000 -->
      <g style="fill:#262626;" transform="translate(20.345313 277.133218)scale(0.1 -0.1)">
       <use xlink:href="#ArialMT-50"/>
       <use x="55.615234" xlink:href="#ArialMT-48"/>
       <use x="111.230469" xlink:href="#ArialMT-48"/>
       <use x="166.845703" xlink:href="#ArialMT-48"/>
      </g>
     </g>
    </g>
    <g id="ytick_4">
     <g id="line2d_11">
      <path clip-path="url(#pf4b15597a0)" d="M 49.589063 236.334376 
L 607.589062 236.334376 
" style="fill:none;stroke:#cccccc;stroke-linecap:round;stroke-width:0.8;"/>
     </g>
     <g id="text_11">
      <!-- 3000 -->
      <g style="fill:#262626;" transform="translate(20.345313 239.913283)scale(0.1 -0.1)">
       <use xlink:href="#ArialMT-51"/>
       <use x="55.615234" xlink:href="#ArialMT-48"/>
       <use x="111.230469" xlink:href="#ArialMT-48"/>
       <use x="166.845703" xlink:href="#ArialMT-48"/>
      </g>
     </g>
    </g>
    <g id="ytick_5">
     <g id="line2d_12">
      <path clip-path="url(#pf4b15597a0)" d="M 49.589063 199.11444 
L 607.589062 199.11444 
" style="fill:none;stroke:#cccccc;stroke-linecap:round;stroke-width:0.8;"/>
     </g>
     <g id="text_12">
      <!-- 4000 -->
      <g style="fill:#262626;" transform="translate(20.345313 202.693347)scale(0.1 -0.1)">
       <use xlink:href="#ArialMT-52"/>
       <use x="55.615234" xlink:href="#ArialMT-48"/>
       <use x="111.230469" xlink:href="#ArialMT-48"/>
       <use x="166.845703" xlink:href="#ArialMT-48"/>
      </g>
     </g>
    </g>
    <g id="ytick_6">
     <g id="line2d_13">
      <path clip-path="url(#pf4b15597a0)" d="M 49.589063 161.894504 
L 607.589062 161.894504 
" style="fill:none;stroke:#cccccc;stroke-linecap:round;stroke-width:0.8;"/>
     </g>
     <g id="text_13">
      <!-- 5000 -->
      <g style="fill:#262626;" transform="translate(20.345313 165.473411)scale(0.1 -0.1)">
       <use xlink:href="#ArialMT-53"/>
       <use x="55.615234" xlink:href="#ArialMT-48"/>
       <use x="111.230469" xlink:href="#ArialMT-48"/>
       <use x="166.845703" xlink:href="#ArialMT-48"/>
      </g>
     </g>
    </g>
    <g id="ytick_7">
     <g id="line2d_14">
      <path clip-path="url(#pf4b15597a0)" d="M 49.589063 124.674568 
L 607.589062 124.674568 
" style="fill:none;stroke:#cccccc;stroke-linecap:round;stroke-width:0.8;"/>
     </g>
     <g id="text_14">
      <!-- 6000 -->
      <g style="fill:#262626;" transform="translate(20.345313 128.253475)scale(0.1 -0.1)">
       <use xlink:href="#ArialMT-54"/>
       <use x="55.615234" xlink:href="#ArialMT-48"/>
       <use x="111.230469" xlink:href="#ArialMT-48"/>
       <use x="166.845703" xlink:href="#ArialMT-48"/>
      </g>
     </g>
    </g>
    <g id="ytick_8">
     <g id="line2d_15">
      <path clip-path="url(#pf4b15597a0)" d="M 49.589063 87.454632 
L 607.589062 87.454632 
" style="fill:none;stroke:#cccccc;stroke-linecap:round;stroke-width:0.8;"/>
     </g>
     <g id="text_15">
      <!-- 7000 -->
      <g style="fill:#262626;" transform="translate(20.345313 91.033539)scale(0.1 -0.1)">
       <defs>
        <path d="M 4.734375 62.203125 
L 4.734375 70.65625 
L 51.078125 70.65625 
L 51.078125 63.8125 
Q 44.234375 56.546875 37.515625 44.484375 
Q 30.8125 32.421875 27.15625 19.671875 
Q 24.515625 10.6875 23.78125 0 
L 14.75 0 
Q 14.890625 8.453125 18.0625 20.40625 
Q 21.234375 32.375 27.171875 43.484375 
Q 33.109375 54.59375 39.796875 62.203125 
z
" id="ArialMT-55"/>
       </defs>
       <use xlink:href="#ArialMT-55"/>
       <use x="55.615234" xlink:href="#ArialMT-48"/>
       <use x="111.230469" xlink:href="#ArialMT-48"/>
       <use x="166.845703" xlink:href="#ArialMT-48"/>
      </g>
     </g>
    </g>
    <g id="ytick_9">
     <g id="line2d_16">
      <path clip-path="url(#pf4b15597a0)" d="M 49.589063 50.234696 
L 607.589062 50.234696 
" style="fill:none;stroke:#cccccc;stroke-linecap:round;stroke-width:0.8;"/>
     </g>
     <g id="text_16">
      <!-- 8000 -->
      <g style="fill:#262626;" transform="translate(20.345313 53.813603)scale(0.1 -0.1)">
       <defs>
        <path d="M 17.671875 38.8125 
Q 12.203125 40.828125 9.5625 44.53125 
Q 6.9375 48.25 6.9375 53.421875 
Q 6.9375 61.234375 12.546875 66.546875 
Q 18.171875 71.875 27.484375 71.875 
Q 36.859375 71.875 42.578125 66.421875 
Q 48.296875 60.984375 48.296875 53.171875 
Q 48.296875 48.1875 45.671875 44.5 
Q 43.0625 40.828125 37.75 38.8125 
Q 44.34375 36.671875 47.78125 31.875 
Q 51.21875 27.09375 51.21875 20.453125 
Q 51.21875 11.28125 44.71875 5.03125 
Q 38.234375 -1.21875 27.640625 -1.21875 
Q 17.046875 -1.21875 10.546875 5.046875 
Q 4.046875 11.328125 4.046875 20.703125 
Q 4.046875 27.6875 7.59375 32.390625 
Q 11.140625 37.109375 17.671875 38.8125 
z
M 15.921875 53.71875 
Q 15.921875 48.640625 19.1875 45.40625 
Q 22.46875 42.1875 27.6875 42.1875 
Q 32.765625 42.1875 36.015625 45.375 
Q 39.265625 48.578125 39.265625 53.21875 
Q 39.265625 58.0625 35.90625 61.359375 
Q 32.5625 64.65625 27.59375 64.65625 
Q 22.5625 64.65625 19.234375 61.421875 
Q 15.921875 58.203125 15.921875 53.71875 
z
M 13.09375 20.65625 
Q 13.09375 16.890625 14.875 13.375 
Q 16.65625 9.859375 20.171875 7.921875 
Q 23.6875 6 27.734375 6 
Q 34.03125 6 38.125 10.046875 
Q 42.234375 14.109375 42.234375 20.359375 
Q 42.234375 26.703125 38.015625 30.859375 
Q 33.796875 35.015625 27.4375 35.015625 
Q 21.234375 35.015625 17.15625 30.90625 
Q 13.09375 26.8125 13.09375 20.65625 
z
" id="ArialMT-56"/>
       </defs>
       <use xlink:href="#ArialMT-56"/>
       <use x="55.615234" xlink:href="#ArialMT-48"/>
       <use x="111.230469" xlink:href="#ArialMT-48"/>
       <use x="166.845703" xlink:href="#ArialMT-48"/>
      </g>
     </g>
    </g>
    <g id="text_17">
     <!-- cnt -->
     <g style="fill:#262626;" transform="translate(14.357813 191.685156)rotate(-90)scale(0.1 -0.1)">
      <defs>
       <path d="M 40.4375 19 
L 49.078125 17.875 
Q 47.65625 8.9375 41.8125 3.875 
Q 35.984375 -1.171875 27.484375 -1.171875 
Q 16.84375 -1.171875 10.375 5.78125 
Q 3.90625 12.75 3.90625 25.734375 
Q 3.90625 34.125 6.6875 40.421875 
Q 9.46875 46.734375 15.15625 49.875 
Q 20.84375 53.03125 27.546875 53.03125 
Q 35.984375 53.03125 41.359375 48.75 
Q 46.734375 44.484375 48.25 36.625 
L 39.703125 35.296875 
Q 38.484375 40.53125 35.375 43.15625 
Q 32.28125 45.796875 27.875 45.796875 
Q 21.234375 45.796875 17.078125 41.03125 
Q 12.9375 36.28125 12.9375 25.984375 
Q 12.9375 15.53125 16.9375 10.796875 
Q 20.953125 6.0625 27.390625 6.0625 
Q 32.5625 6.0625 36.03125 9.234375 
Q 39.5 12.40625 40.4375 19 
z
" id="ArialMT-99"/>
       <path d="M 6.59375 0 
L 6.59375 51.859375 
L 14.5 51.859375 
L 14.5 44.484375 
Q 20.21875 53.03125 31 53.03125 
Q 35.6875 53.03125 39.625 51.34375 
Q 43.5625 49.65625 45.515625 46.921875 
Q 47.46875 44.1875 48.25 40.4375 
Q 48.734375 37.984375 48.734375 31.890625 
L 48.734375 0 
L 39.9375 0 
L 39.9375 31.546875 
Q 39.9375 36.921875 38.90625 39.578125 
Q 37.890625 42.234375 35.28125 43.8125 
Q 32.671875 45.40625 29.15625 45.40625 
Q 23.53125 45.40625 19.453125 41.84375 
Q 15.375 38.28125 15.375 28.328125 
L 15.375 0 
z
" id="ArialMT-110"/>
       <path d="M 25.78125 7.859375 
L 27.046875 0.09375 
Q 23.34375 -0.6875 20.40625 -0.6875 
Q 15.625 -0.6875 12.984375 0.828125 
Q 10.359375 2.34375 9.28125 4.8125 
Q 8.203125 7.28125 8.203125 15.1875 
L 8.203125 45.015625 
L 1.765625 45.015625 
L 1.765625 51.859375 
L 8.203125 51.859375 
L 8.203125 64.703125 
L 16.9375 69.96875 
L 16.9375 51.859375 
L 25.78125 51.859375 
L 25.78125 45.015625 
L 16.9375 45.015625 
L 16.9375 14.703125 
Q 16.9375 10.9375 17.40625 9.859375 
Q 17.875 8.796875 18.921875 8.15625 
Q 19.96875 7.515625 21.921875 7.515625 
Q 23.390625 7.515625 25.78125 7.859375 
z
" id="ArialMT-116"/>
      </defs>
      <use xlink:href="#ArialMT-99"/>
      <use x="50" xlink:href="#ArialMT-110"/>
      <use x="105.615234" xlink:href="#ArialMT-116"/>
     </g>
    </g>
   </g>
   <g id="line2d_17">
    <path clip-path="url(#pf4b15597a0)" d="M 74.952699 283.568309 
L 75.822806 283.762579 
L 76.692914 297.127613 
L 77.563022 294.033734 
L 78.433129 286.877829 
L 79.303237 298.827123 
L 80.173344 290.115672 
L 81.043452 318.069083 
L 81.91356 333.27017 
L 82.783667 302.794068 
L 83.653775 308.034725 
L 84.523882 295.773108 
L 85.39399 296.583471 
L 86.264098 296.256575 
L 87.134205 281.696609 
L 88.004313 302.945914 
L 88.87442 318.371776 
L 89.744528 311.783698 
L 90.614636 294.548939 
L 91.484743 285.792268 
L 92.354851 290.703238 
L 93.224958 322.329123 
L 94.095066 331.751035 
L 94.965174 307.908953 
L 95.835281 292.233397 
L 96.705389 328.170019 
L 97.575496 291.760895 
L 98.445604 308.271588 
L 99.315711 299.452363 
L 100.185819 295.057166 
L 101.055927 304.022091 
L 101.926034 299.132554 
L 102.796142 307.203522 
L 103.666249 291.276999 
L 104.536357 287.262473 
L 105.406465 311.43912 
L 106.276572 277.347914 
L 107.14668 268.17018 
L 108.886895 304.656516 
L 109.757003 298.500746 
L 110.62711 284.912311 
L 111.497218 287.669588 
L 112.367325 282.992218 
L 113.237433 265.118496 
L 114.107541 277.359334 
L 115.847756 254.555565 
L 116.717863 239.071524 
L 117.587971 268.732979 
L 118.458079 284.573705 
L 119.328186 309.373893 
L 120.198294 289.663082 
L 121.068401 280.076081 
L 121.938509 287.30074 
L 122.808617 290.380431 
L 123.678724 274.508683 
L 124.548832 263.971028 
L 125.418939 291.711414 
L 126.289047 279.835316 
L 127.159155 263.803758 
L 128.029262 301.132962 
L 128.89937 281.07053 
L 129.769477 270.244287 
L 130.639585 298.821778 
L 131.509692 289.847252 
L 132.3798 273.483757 
L 133.249908 286.657976 
L 134.120015 314.45872 
L 134.990123 273.493201 
L 135.86023 269.931881 
L 136.730338 265.403553 
L 137.600446 266.270849 
L 138.470553 268.047967 
L 139.340661 266.108665 
L 140.210768 247.171952 
L 141.080876 220.851514 
L 142.821091 271.16816 
L 143.691199 262.438116 
L 144.561306 231.884619 
L 145.431414 284.880292 
L 146.301522 282.38108 
L 147.171629 257.267959 
L 148.041737 254.926923 
L 148.911844 263.797544 
L 149.781952 271.515653 
L 150.65206 265.727041 
L 151.522167 278.452056 
L 152.392275 302.440447 
L 153.262382 271.245309 
L 154.13249 251.701876 
L 155.872705 205.254996 
L 156.742813 266.11144 
L 157.61292 227.374854 
L 158.483028 214.902506 
L 159.353135 274.389403 
L 161.093351 235.908206 
L 161.963458 230.312176 
L 162.833566 244.162914 
L 163.703673 268.443483 
L 164.573781 212.976419 
L 165.443889 225.467277 
L 166.313996 301.244169 
L 167.184104 221.248324 
L 168.054211 208.352533 
L 168.924319 226.923731 
L 169.794427 191.089173 
L 170.664534 208.108073 
L 171.534642 263.34172 
L 172.404749 244.946344 
L 173.274857 202.263731 
L 174.144965 192.39372 
L 175.015072 189.77131 
L 175.88518 229.14949 
L 176.755287 205.012177 
L 177.625395 195.066295 
L 178.495503 197.384852 
L 179.36561 184.33726 
L 180.235718 203.987953 
L 181.105825 198.834012 
L 181.975933 231.307353 
L 182.846041 171.148251 
L 183.716148 177.388695 
L 184.586256 159.9086 
L 185.456363 170.00287 
L 186.326471 190.701796 
L 187.196578 178.091095 
L 188.066686 180.478367 
L 188.936794 179.21756 
L 189.806901 212.553957 
L 190.677009 199.278336 
L 191.547116 189.8441 
L 192.417224 195.251905 
L 193.287332 220.083143 
L 194.157439 218.259762 
L 195.027547 193.084656 
L 195.897654 180.128624 
L 196.767762 153.11789 
L 197.63787 175.720158 
L 198.507977 211.148165 
L 199.378085 186.35163 
L 200.248192 173.119661 
L 201.1183 162.823129 
L 201.988408 166.04993 
L 202.858515 166.274737 
L 203.728623 180.230021 
L 204.59873 181.916787 
L 205.468838 162.103391 
L 206.338946 202.995004 
L 207.209053 153.26559 
L 208.079161 140.891371 
L 208.949268 142.463093 
L 209.819376 168.542828 
L 210.689484 184.95754 
L 211.559591 178.486895 
L 212.429699 188.212721 
L 213.299806 187.144329 
L 214.169914 181.240066 
L 215.040021 162.943022 
L 215.910129 180.183618 
L 216.780237 164.653568 
L 217.650344 157.544346 
L 218.520452 164.426647 
L 219.390559 189.856407 
L 220.260667 180.523293 
L 221.130775 161.545608 
L 222.000882 166.87457 
L 222.87099 205.845941 
L 223.741097 181.189211 
L 224.611205 182.99281 
L 225.481313 182.203072 
L 226.35142 167.99709 
L 227.221528 146.143364 
L 228.091635 154.80976 
L 228.961743 169.274281 
L 229.831851 174.48679 
L 230.701958 153.912928 
L 231.572066 157.40526 
L 232.442173 159.78117 
L 233.312281 157.54735 
L 234.182389 167.50545 
L 235.052496 148.545791 
L 235.922604 171.976572 
L 236.792711 168.951614 
L 237.662819 182.09155 
L 238.532927 180.404921 
L 239.403034 169.317509 
L 241.143249 190.945137 
L 242.013357 187.794414 
L 242.883464 174.578569 
L 243.753572 149.173714 
L 244.62368 145.226425 
L 245.493787 155.291493 
L 246.363895 177.360717 
L 247.234002 183.496513 
L 248.10411 184.686211 
L 248.974218 184.875241 
L 249.844325 203.828761 
L 250.714433 215.392445 
L 251.58454 200.083498 
L 252.454648 206.684774 
L 253.324756 181.568746 
L 255.064971 175.329937 
L 255.935078 191.211275 
L 256.805186 209.148992 
L 257.675294 185.245333 
L 258.545401 194.906904 
L 259.415509 175.153203 
L 260.285616 167.3694 
L 261.155724 173.480252 
L 262.025832 199.745534 
L 262.895939 181.980358 
L 263.766047 202.801654 
L 264.636154 197.2665 
L 265.506262 183.379031 
L 266.37637 167.579842 
L 267.246477 160.983638 
L 268.116585 167.239174 
L 268.986692 152.600999 
L 269.8568 195.186968 
L 270.726908 212.234227 
L 272.467123 176.944947 
L 273.33723 167.256477 
L 274.207338 187.571431 
L 275.077445 187.383049 
L 275.947553 163.599907 
L 276.817661 210.19238 
L 278.557876 154.050985 
L 279.427983 182.237292 
L 280.298091 204.711104 
L 281.168199 180.766249 
L 282.038306 269.338887 
L 282.908414 199.040077 
L 283.778521 170.469973 
L 284.648629 159.514496 
L 285.518737 160.266699 
L 286.388844 163.181493 
L 287.258952 176.298732 
L 288.129059 160.596237 
L 288.999167 172.012868 
L 289.869275 192.242353 
L 290.739382 267.560457 
L 291.60949 264.897499 
L 292.479597 263.011165 
L 293.349705 203.975204 
L 294.219813 162.739687 
L 295.08992 166.175804 
L 295.960028 165.740959 
L 296.830135 163.528174 
L 297.700243 161.984853 
L 298.570351 188.403206 
L 299.440458 176.315502 
L 300.310566 192.039827 
L 301.180673 189.168736 
L 302.050781 182.874018 
L 302.920888 207.233265 
L 303.790996 206.461658 
L 304.661104 200.16 
L 305.531211 219.051228 
L 306.401319 172.293286 
L 307.271426 164.744324 
L 308.141534 186.306929 
L 309.011642 192.773691 
L 309.881749 195.0375 
L 310.751857 174.060423 
L 311.621964 166.720497 
L 312.492072 247.165927 
L 313.36218 246.161235 
L 315.102395 181.971915 
L 315.972502 167.072255 
L 316.84261 184.395195 
L 317.712718 167.928245 
L 318.582825 156.185009 
L 319.452933 160.527582 
L 320.32304 162.930199 
L 321.193148 192.776023 
L 322.063256 268.542258 
L 322.933363 211.193119 
L 323.803471 197.480036 
L 324.673578 164.695787 
L 325.543686 173.496443 
L 326.413794 165.83862 
L 327.283901 179.439553 
L 328.154009 267.459457 
L 329.024116 193.248162 
L 329.894224 180.740503 
L 330.764331 175.637761 
L 331.634439 191.165539 
L 332.504547 188.44453 
L 333.374654 174.263524 
L 335.114869 231.366617 
L 335.984977 218.872631 
L 336.855085 321.761823 
L 337.725192 211.497245 
L 338.5953 200.861606 
L 339.465407 202.470134 
L 340.335515 208.933547 
L 342.07573 219.462354 
L 342.945838 211.875509 
L 343.815945 225.542988 
L 344.686053 206.568522 
L 345.556161 202.770113 
L 346.426268 206.723665 
L 347.296376 249.123634 
L 348.166483 234.890577 
L 349.036591 210.667085 
L 349.906699 206.041066 
L 350.776806 183.736276 
L 351.646914 195.154539 
L 352.517021 272.131198 
L 353.387129 236.525984 
L 354.257237 206.296907 
L 355.127344 213.169065 
L 355.997452 212.002297 
L 356.867559 270.544088 
L 357.737667 272.059858 
L 358.607774 239.618404 
L 359.477882 240.152961 
L 360.34799 206.660387 
L 361.218097 205.607417 
L 362.088205 213.496228 
L 362.958312 192.176909 
L 363.82842 234.334753 
L 364.698528 212.697497 
L 365.568635 214.504549 
L 366.438743 205.363648 
L 367.30885 213.195219 
L 368.178958 228.599048 
L 369.049066 218.738984 
L 369.919173 269.528856 
L 370.789281 288.362334 
L 371.659388 229.103167 
L 372.529496 215.391731 
L 373.399604 230.510475 
L 374.269711 233.87146 
L 375.139819 222.497009 
L 376.009926 213.570559 
L 376.880034 222.270694 
L 377.750142 218.743019 
L 378.620249 203.930501 
L 379.490357 257.795622 
L 380.360464 253.238866 
L 381.230572 222.955551 
L 382.10068 188.61869 
L 382.970787 272.682884 
L 383.840895 234.439534 
L 384.711002 253.82823 
L 385.58111 279.268839 
L 386.451217 294.649622 
L 387.321325 298.969019 
L 388.191433 289.332207 
L 389.06154 263.954532 
L 389.931648 269.662522 
L 390.801755 256.188758 
L 391.671863 255.9748 
L 392.541971 223.648267 
L 393.412078 259.951119 
L 394.282186 247.516437 
L 395.152293 257.308423 
L 396.022401 209.874969 
L 396.892509 199.104172 
L 397.762616 194.181063 
L 398.632724 218.845619 
L 399.502831 239.634619 
L 400.372939 209.350074 
L 401.243047 253.922473 
L 402.113154 219.535377 
L 402.983262 222.809748 
L 403.853369 236.789971 
L 404.723477 261.491337 
L 405.593585 263.296185 
L 406.463692 248.021365 
L 407.3338 217.355791 
L 408.203907 222.885703 
L 409.074015 225.555661 
L 409.944123 303.770431 
L 410.81423 297.239826 
L 411.684338 261.919055 
L 412.554445 198.28128 
L 413.424553 205.537672 
L 414.294661 207.389301 
L 415.164768 237.893401 
L 416.034876 212.426738 
L 416.904983 224.791792 
L 417.775091 206.567936 
L 418.645198 183.423629 
L 419.515306 173.566329 
L 420.385414 207.804278 
L 421.255521 199.983685 
L 422.125629 240.835042 
L 422.995736 246.19103 
L 423.865844 208.782597 
L 424.735952 188.762325 
L 425.606059 243.874229 
L 426.476167 208.200199 
L 427.346274 210.333835 
L 428.216382 296.661588 
L 429.08649 292.111309 
L 429.956597 212.177656 
L 430.826705 203.111985 
L 431.696812 192.186589 
L 432.56692 214.368509 
L 433.437028 198.662557 
L 434.307135 196.269815 
L 435.177243 239.759048 
L 436.04735 233.08949 
L 436.917458 206.319086 
L 438.657673 170.353786 
L 439.527781 223.978314 
L 440.397888 237.424828 
L 442.138104 197.65579 
L 443.008211 182.363313 
L 443.878319 235.600742 
L 444.748426 145.590219 
L 445.618534 186.214304 
L 446.488641 162.345455 
L 447.358749 216.477401 
L 448.228857 208.802864 
L 449.098964 196.943814 
L 449.969072 177.208241 
L 450.839179 148.976467 
L 451.709287 184.715934 
L 452.579395 192.356548 
L 453.449502 188.125109 
L 454.31961 150.301289 
L 455.189717 126.29188 
L 456.059825 108.614561 
L 456.929933 118.578934 
L 457.80004 173.381362 
L 458.670148 128.917866 
L 459.540255 151.168046 
L 460.410363 129.706489 
L 461.280471 115.894938 
L 462.150578 128.814353 
L 463.020686 80.028393 
L 463.890793 89.296627 
L 464.760901 144.662688 
L 465.631009 177.354775 
L 466.501116 149.114956 
L 467.371224 150.152877 
L 468.241331 123.439632 
L 469.111439 108.795608 
L 469.981547 147.422978 
L 470.851654 168.33417 
L 471.721762 166.476063 
L 472.591869 147.52031 
L 473.461977 116.952609 
L 474.332084 109.065847 
L 475.202192 121.394937 
L 476.0723 126.295248 
L 476.942407 111.927838 
L 477.812515 115.078853 
L 478.682622 129.114928 
L 479.55273 131.005744 
L 480.422838 155.561294 
L 482.163053 108.154125 
L 483.03316 100.201022 
L 483.903268 98.665477 
L 484.773376 110.289178 
L 485.643483 95.085483 
L 486.513591 154.878146 
L 487.383698 99.750787 
L 488.253806 103.215611 
L 489.123914 108.948141 
L 489.994021 278.502002 
L 490.864129 233.271342 
L 491.734236 134.287525 
L 492.604344 109.270072 
L 493.474452 146.238091 
L 494.344559 113.961586 
L 495.214667 130.072044 
L 496.084774 114.588859 
L 496.954882 146.937703 
L 497.82499 120.734073 
L 498.695097 124.99754 
L 499.565205 127.320961 
L 500.435312 106.369916 
L 501.30542 111.636993 
L 502.175527 127.427139 
L 503.045635 154.049602 
L 503.915743 153.26144 
L 504.78585 154.113896 
L 505.655958 106.047507 
L 506.526065 79.529367 
L 507.396173 70.001182 
L 508.266281 109.026906 
L 509.136388 165.089656 
L 510.006496 138.819483 
L 510.876603 101.977058 
L 511.746711 88.036024 
L 512.616819 84.973974 
L 513.486926 54.116367 
L 514.357034 106.380929 
L 515.227141 167.965183 
L 516.097249 126.890543 
L 516.967357 127.70056 
L 517.837464 90.263237 
L 518.707572 94.285198 
L 519.577679 90.651648 
L 521.317895 119.029625 
L 522.188002 104.479147 
L 523.05811 109.077337 
L 523.928217 71.347541 
L 524.798325 144.130162 
L 525.668433 68.246757 
L 526.53854 79.995383 
L 527.408648 83.543759 
L 528.278755 118.607464 
L 529.148863 87.333055 
L 530.889078 66.794726 
L 531.759186 50.966394 
L 532.629293 80.609579 
L 534.369508 156.269293 
L 535.239616 90.030487 
L 536.109724 74.879562 
L 536.979831 78.237301 
L 537.849939 57.605198 
L 538.720046 83.926151 
L 539.590154 144.431645 
L 540.460262 94.747057 
L 541.330369 91.165919 
L 542.200477 126.544443 
L 543.070584 122.822609 
L 543.940692 104.012775 
L 544.8108 105.890406 
L 545.680907 110.51086 
L 546.551015 62.351023 
L 547.421122 78.190984 
L 549.161338 116.615364 
L 550.031445 115.45352 
L 550.901553 125.035533 
L 551.77166 105.137091 
L 552.641768 93.615142 
L 553.511876 108.551867 
L 554.381983 117.861705 
L 555.252091 111.773328 
L 556.122198 122.524642 
L 556.992306 123.35295 
L 557.862414 108.651655 
L 558.732521 96.983942 
L 559.602629 87.352185 
L 560.472736 79.100713 
L 561.342844 66.316701 
L 562.212951 95.713346 
L 563.083059 117.351524 
L 563.953167 107.826877 
L 564.823274 102.903033 
L 565.693382 105.938305 
L 566.563489 100.720184 
L 567.433597 124.138531 
L 568.303705 165.712406 
L 569.173812 85.03778 
L 570.04392 99.605401 
L 570.914027 97.780473 
L 571.784135 72.96887 
L 572.654243 106.297886 
L 573.52435 103.644396 
L 574.394458 96.630357 
L 575.264565 99.806907 
L 576.134673 94.036244 
L 577.004781 83.7511 
L 577.874888 80.749862 
L 578.744996 73.367312 
L 579.615103 104.854813 
L 580.485211 97.000951 
L 581.355319 124.071506 
L 582.225426 83.148645 
L 582.225426 83.148645 
" style="fill:none;stroke:#4c72b0;stroke-linecap:round;stroke-opacity:0.8;stroke-width:1.5;"/>
   </g>
   <g id="line2d_18">
    <path clip-path="url(#pf4b15597a0)" d="M 74.952699 308.860593 
L 75.822806 311.542291 
L 76.692914 300.156294 
L 77.563022 290.990221 
L 78.433129 287.694194 
L 79.303237 292.789436 
L 80.173344 291.527638 
L 81.043452 309.042181 
L 81.91356 317.705575 
L 82.783667 299.648086 
L 83.653775 304.065795 
L 84.523882 300.640671 
L 85.39399 295.974339 
L 86.264098 292.970974 
L 87.134205 303.775355 
L 88.004313 303.004137 
L 88.87442 316.6508 
L 89.744528 313.676174 
L 90.614636 290.080305 
L 91.484743 281.123939 
L 92.354851 290.276563 
L 93.224958 307.909681 
L 94.095066 312.966478 
L 95.835281 277.472774 
L 96.705389 327.293864 
L 97.575496 318.490163 
L 98.445604 307.176532 
L 99.315711 307.670854 
L 100.185819 310.07216 
L 101.055927 294.049757 
L 101.926034 296.446072 
L 102.796142 292.205985 
L 103.666249 289.433286 
L 104.536357 284.926316 
L 105.406465 312.717761 
L 106.276572 287.723227 
L 107.14668 287.325611 
L 108.016787 289.462214 
L 108.886895 290.915927 
L 109.757003 291.492822 
L 110.62711 287.990654 
L 111.497218 293.010143 
L 112.367325 288.735984 
L 113.237433 275.318443 
L 114.107541 278.445254 
L 114.977648 265.779971 
L 115.847756 245.753046 
L 116.717863 241.649921 
L 117.587971 285.78277 
L 118.458079 280.342702 
L 119.328186 307.005907 
L 121.068401 276.749761 
L 121.938509 282.078763 
L 122.808617 295.361478 
L 123.678724 277.058765 
L 124.548832 265.984771 
L 125.418939 295.379538 
L 126.289047 275.246043 
L 127.159155 273.37714 
L 128.029262 286.184451 
L 128.89937 272.912491 
L 129.769477 273.828528 
L 130.639585 324.378028 
L 131.509692 282.115116 
L 132.3798 267.516386 
L 133.249908 279.663688 
L 134.120015 310.530931 
L 134.990123 269.894746 
L 135.86023 267.308823 
L 136.730338 258.928804 
L 137.600446 268.787389 
L 138.470553 274.264172 
L 139.340661 269.941843 
L 140.210768 253.528951 
L 141.080876 226.706453 
L 141.950984 231.877325 
L 142.821091 259.816276 
L 143.691199 271.884895 
L 144.561306 236.267188 
L 145.431414 274.066423 
L 146.301522 278.518767 
L 147.171629 262.865648 
L 148.041737 257.731032 
L 148.911844 277.868776 
L 149.781952 272.898215 
L 150.65206 266.230472 
L 151.522167 279.050368 
L 152.392275 289.767384 
L 153.262382 266.292999 
L 154.13249 266.440952 
L 155.002598 234.712846 
L 155.872705 236.177137 
L 156.742813 284.742788 
L 157.61292 244.673359 
L 158.483028 236.060352 
L 159.353135 280.709409 
L 160.223243 259.297314 
L 161.093351 241.316223 
L 161.963458 229.502483 
L 162.833566 262.552695 
L 163.703673 271.251338 
L 164.573781 231.344906 
L 165.443889 239.514736 
L 166.313996 309.984601 
L 167.184104 208.632476 
L 168.054211 219.262484 
L 168.924319 225.081179 
L 169.794427 195.574112 
L 170.664534 190.194941 
L 171.534642 273.314918 
L 172.404749 205.415904 
L 173.274857 192.485639 
L 174.144965 196.142034 
L 175.015072 182.710062 
L 175.88518 207.271631 
L 177.625395 177.394609 
L 178.495503 155.162348 
L 179.36561 218.934592 
L 180.235718 189.219626 
L 181.105825 187.477776 
L 181.975933 248.562934 
L 182.846041 179.904101 
L 183.716148 176.915256 
L 184.586256 170.893641 
L 185.456363 178.62383 
L 186.326471 180.551742 
L 187.196578 170.235205 
L 188.066686 183.692193 
L 188.936794 170.699963 
L 190.677009 221.707014 
L 191.547116 183.922509 
L 192.417224 192.400949 
L 193.287332 199.156713 
L 194.157439 201.175912 
L 195.027547 175.697558 
L 195.897654 169.310468 
L 196.767762 138.112455 
L 197.63787 171.350167 
L 198.507977 190.388092 
L 199.378085 181.098119 
L 200.248192 164.582936 
L 201.1183 174.574017 
L 201.988408 175.564126 
L 202.858515 166.880595 
L 203.728623 168.135786 
L 204.59873 193.344805 
L 205.468838 191.625 
L 206.338946 196.204397 
L 207.209053 167.683931 
L 208.079161 152.096084 
L 208.949268 146.667552 
L 209.819376 169.473868 
L 210.689484 175.547369 
L 211.559591 161.720127 
L 212.429699 188.754213 
L 213.299806 207.813546 
L 214.169914 180.588853 
L 215.040021 164.478291 
L 215.910129 179.548403 
L 216.780237 163.615981 
L 217.650344 160.809892 
L 218.520452 163.878592 
L 219.390559 188.824164 
L 220.260667 167.991359 
L 221.130775 156.32956 
L 222.000882 171.610071 
L 222.87099 196.090957 
L 223.741097 177.645389 
L 224.611205 178.205323 
L 225.481313 185.731711 
L 226.35142 161.173277 
L 227.221528 147.113755 
L 228.091635 152.149151 
L 228.961743 169.466726 
L 229.831851 175.5813 
L 230.701958 154.336604 
L 231.572066 151.960471 
L 232.442173 148.920303 
L 233.312281 155.108372 
L 234.182389 177.122892 
L 235.052496 130.98382 
L 235.922604 174.40969 
L 236.792711 172.192196 
L 237.662819 177.421942 
L 238.532927 191.758578 
L 239.403034 154.97096 
L 240.273142 166.645026 
L 241.143249 194.758654 
L 242.013357 185.367926 
L 242.883464 184.09427 
L 243.753572 154.890596 
L 244.62368 148.506432 
L 245.493787 136.316321 
L 246.363895 155.424633 
L 247.234002 182.113744 
L 248.10411 183.912368 
L 248.974218 189.889621 
L 249.844325 207.910058 
L 250.714433 218.941898 
L 251.58454 214.293732 
L 252.454648 213.181777 
L 253.324756 202.560219 
L 254.194863 177.581308 
L 255.064971 173.298689 
L 255.935078 187.26587 
L 256.805186 208.796721 
L 257.675294 182.337881 
L 258.545401 188.453346 
L 259.415509 189.402018 
L 260.285616 169.678759 
L 261.155724 205.879654 
L 262.025832 194.593072 
L 262.895939 168.415917 
L 263.766047 189.979836 
L 264.636154 200.488116 
L 265.506262 187.69897 
L 266.37637 186.431111 
L 267.246477 170.185917 
L 268.116585 164.998189 
L 268.986692 165.449626 
L 269.8568 195.160276 
L 270.726908 204.848664 
L 272.467123 171.239525 
L 273.33723 172.626658 
L 274.207338 191.763503 
L 275.077445 188.333798 
L 275.947553 154.324064 
L 276.817661 204.588506 
L 277.687768 168.754404 
L 278.557876 142.524962 
L 279.427983 162.874544 
L 280.298091 210.492218 
L 281.168199 177.697566 
L 282.038306 294.636003 
L 282.908414 181.006487 
L 284.648629 153.617576 
L 286.388844 161.861882 
L 287.258952 172.392107 
L 288.129059 171.981543 
L 288.999167 175.362178 
L 289.869275 222.835243 
L 290.739382 254.773402 
L 291.60949 270.548384 
L 292.479597 273.771993 
L 293.349705 209.426652 
L 294.219813 154.520977 
L 295.08992 158.980627 
L 295.960028 172.018345 
L 296.830135 167.687384 
L 297.700243 174.815238 
L 298.570351 204.080258 
L 299.440458 184.826528 
L 300.310566 179.27765 
L 301.180673 184.725646 
L 302.050781 176.767958 
L 302.920888 206.327593 
L 304.661104 178.55486 
L 305.531211 248.133714 
L 306.401319 148.450347 
L 307.271426 158.311922 
L 308.141534 180.616786 
L 309.011642 197.890689 
L 309.881749 202.423989 
L 310.751857 168.473273 
L 311.621964 160.250812 
L 312.492072 256.337693 
L 313.36218 242.159605 
L 314.232287 212.545231 
L 315.972502 167.88059 
L 316.84261 167.97682 
L 317.712718 168.405685 
L 318.582825 142.123631 
L 319.452933 146.348875 
L 320.32304 158.122115 
L 321.193148 185.36291 
L 322.063256 253.825056 
L 322.933363 231.23888 
L 323.803471 202.819423 
L 324.673578 157.536173 
L 325.543686 166.795577 
L 326.413794 170.468538 
L 327.283901 171.055225 
L 328.154009 265.360819 
L 329.024116 189.393949 
L 329.894224 190.563996 
L 330.764331 180.358537 
L 332.504547 195.901477 
L 333.374654 173.045383 
L 334.244762 200.032726 
L 335.114869 233.254881 
L 335.984977 209.636387 
L 336.855085 329.741095 
L 337.725192 221.971034 
L 338.5953 215.750298 
L 339.465407 197.7852 
L 340.335515 196.684713 
L 341.205623 199.750323 
L 342.07573 199.371363 
L 342.945838 203.494634 
L 343.815945 208.832651 
L 344.686053 195.509977 
L 345.556161 193.07636 
L 346.426268 194.786805 
L 347.296376 243.789931 
L 349.036591 204.666499 
L 349.906699 204.85657 
L 350.776806 178.010464 
L 351.646914 199.46325 
L 352.517021 280.659276 
L 353.387129 231.675378 
L 354.257237 224.817687 
L 355.127344 213.537429 
L 355.997452 221.31028 
L 356.867559 249.824531 
L 357.737667 283.745828 
L 358.607774 255.611168 
L 359.477882 266.276443 
L 360.34799 237.078439 
L 361.218097 233.569487 
L 362.088205 223.746796 
L 362.958312 208.374172 
L 363.82842 237.416026 
L 364.698528 214.187324 
L 365.568635 210.181565 
L 366.438743 204.023873 
L 367.30885 218.51625 
L 368.178958 216.007402 
L 369.049066 208.862056 
L 369.919173 271.743321 
L 370.789281 309.277582 
L 371.659388 226.183938 
L 372.529496 212.691484 
L 374.269711 244.22592 
L 375.139819 219.519598 
L 376.009926 214.293732 
L 376.880034 213.163967 
L 377.750142 210.260257 
L 378.620249 218.479102 
L 379.490357 247.951812 
L 380.360464 259.582052 
L 381.230572 226.103946 
L 382.10068 206.317488 
L 382.970787 256.275339 
L 383.840895 229.097843 
L 384.711002 270.328745 
L 385.58111 289.444776 
L 386.451217 315.138338 
L 387.321325 294.321219 
L 388.191433 298.75926 
L 389.06154 258.923506 
L 389.931648 261.115993 
L 390.801755 246.910254 
L 391.671863 250.585468 
L 393.412078 274.898355 
L 394.282186 265.194784 
L 395.152293 260.756852 
L 396.022401 227.65557 
L 397.762616 179.628786 
L 398.632724 215.331882 
L 399.502831 255.673068 
L 400.372939 213.707272 
L 401.243047 266.058757 
L 402.113154 199.928499 
L 402.983262 230.4321 
L 403.853369 253.673623 
L 404.723477 264.491703 
L 405.593585 261.864735 
L 406.463692 239.042208 
L 407.3338 220.783803 
L 409.074015 231.85678 
L 409.944123 294.793015 
L 411.684338 257.758957 
L 412.554445 194.374441 
L 413.424553 192.896203 
L 414.294661 200.677596 
L 415.164768 216.0126 
L 416.034876 200.648427 
L 416.904983 234.524766 
L 417.775091 208.778966 
L 418.645198 177.012723 
L 419.515306 172.240411 
L 420.385414 205.915847 
L 421.255521 192.517207 
L 422.125629 239.344802 
L 422.995736 246.075531 
L 423.865844 205.823952 
L 424.735952 186.332173 
L 425.606059 243.245026 
L 426.476167 203.02953 
L 427.346274 202.825266 
L 428.216382 275.666575 
L 429.08649 290.645791 
L 429.956597 220.488397 
L 430.826705 203.233159 
L 431.696812 193.465624 
L 432.56692 228.887081 
L 433.437028 191.918235 
L 434.307135 191.262706 
L 435.177243 238.323307 
L 436.04735 234.883162 
L 436.917458 201.844753 
L 437.787566 178.053663 
L 438.657673 169.724648 
L 439.527781 216.354613 
L 440.397888 241.423048 
L 441.267996 218.012354 
L 442.138104 199.084635 
L 443.008211 186.356944 
L 443.878319 272.817074 
L 444.748426 165.480994 
L 445.618534 217.890744 
L 446.488641 199.811723 
L 447.358749 226.763037 
L 448.228857 221.345583 
L 449.098964 202.152808 
L 449.969072 165.614117 
L 450.839179 154.963218 
L 452.579395 194.931977 
L 453.449502 166.319442 
L 454.31961 145.746123 
L 456.059825 109.340409 
L 456.929933 117.940686 
L 457.80004 178.588064 
L 458.670148 65.312242 
L 459.540255 129.62751 
L 460.410363 115.773388 
L 461.280471 113.539592 
L 462.150578 116.725313 
L 463.020686 90.254524 
L 463.890793 58.448907 
L 464.760901 210.817457 
L 465.631009 166.735677 
L 466.501116 142.004828 
L 467.371224 156.186405 
L 468.241331 132.750113 
L 469.111439 119.723826 
L 469.981547 147.051528 
L 470.851654 122.373093 
L 471.721762 127.511589 
L 472.591869 119.467394 
L 473.461977 95.848437 
L 474.332084 104.324496 
L 475.202192 107.419257 
L 476.0723 118.713745 
L 476.942407 100.696424 
L 477.812515 140.28048 
L 478.682622 143.827842 
L 479.55273 122.485189 
L 480.422838 161.762072 
L 481.292945 143.535589 
L 483.03316 85.3456 
L 483.903268 89.434504 
L 484.773376 112.248108 
L 485.643483 98.201307 
L 486.513591 161.973124 
L 487.383698 105.233258 
L 488.253806 78.862479 
L 489.123914 103.577244 
L 489.994021 300.884232 
L 490.864129 238.042241 
L 491.734236 133.634705 
L 492.604344 118.100543 
L 493.474452 166.528259 
L 494.344559 118.071137 
L 495.214667 182.952555 
L 496.084774 108.151298 
L 496.954882 146.227492 
L 497.82499 125.778227 
L 498.695097 127.785268 
L 499.565205 116.567201 
L 500.435312 111.320299 
L 501.30542 93.959961 
L 502.175527 109.687292 
L 503.915743 135.333427 
L 504.78585 174.291469 
L 505.655958 104.735223 
L 506.526065 88.194397 
L 507.396173 68.604952 
L 508.266281 116.849531 
L 509.136388 225.368089 
L 510.876603 77.861103 
L 511.746711 75.540491 
L 512.616819 62.815707 
L 513.486926 40.841351 
L 514.357034 86.194025 
L 515.227141 192.042434 
L 516.097249 114.494098 
L 516.967357 146.637529 
L 517.837464 96.1368 
L 518.707572 99.219621 
L 519.577679 101.852223 
L 520.447787 107.824206 
L 521.317895 125.830731 
L 522.188002 132.24261 
L 523.05811 93.359426 
L 523.928217 73.790009 
L 524.798325 171.152364 
L 525.668433 55.833861 
L 526.53854 65.676699 
L 527.408648 84.108691 
L 528.278755 87.599605 
L 529.148863 83.428991 
L 530.01897 70.726452 
L 530.889078 61.393935 
L 531.759186 72.641098 
L 532.629293 92.897085 
L 533.499401 98.770856 
L 534.369508 168.905464 
L 535.239616 73.644764 
L 536.109724 75.163166 
L 536.979831 69.747284 
L 537.849939 62.772726 
L 538.720046 88.431274 
L 539.590154 158.70613 
L 540.460262 91.502282 
L 541.330369 114.920492 
L 542.200477 128.199122 
L 543.070584 123.259629 
L 543.940692 70.232034 
L 544.8108 95.720021 
L 545.680907 95.005263 
L 546.551015 65.614326 
L 547.421122 76.185243 
L 548.29123 89.5669 
L 549.161338 143.762253 
L 550.031445 131.329758 
L 550.901553 149.585864 
L 551.77166 108.043472 
L 552.641768 99.101346 
L 553.511876 81.659935 
L 554.381983 120.182024 
L 555.252091 122.175744 
L 556.122198 156.504756 
L 556.992306 171.389713 
L 557.862414 102.871828 
L 558.732521 114.158283 
L 559.602629 79.153242 
L 560.472736 68.742419 
L 561.342844 70.586041 
L 562.212951 89.565901 
L 563.083059 125.875693 
L 563.953167 99.241721 
L 564.823274 106.351456 
L 565.693382 122.921724 
L 566.563489 99.936196 
L 567.433597 135.747172 
L 568.303705 180.663984 
L 569.173812 74.650811 
L 570.04392 83.286127 
L 570.914027 70.184037 
L 571.784135 46.851135 
L 572.654243 91.989067 
L 573.52435 88.641036 
L 574.394458 97.972863 
L 575.264565 94.469409 
L 576.134673 84.296699 
L 577.004781 77.966347 
L 577.874888 68.837522 
L 578.744996 79.335689 
L 579.615103 87.323617 
L 580.485211 102.014552 
L 581.355319 141.32651 
L 582.225426 86.638047 
L 582.225426 86.638047 
" style="fill:none;stroke:#dd8452;stroke-linecap:round;stroke-opacity:0.8;stroke-width:1.5;"/>
   </g>
   <g id="line2d_19">
    <path clip-path="url(#pf4b15597a0)" d="M 74.952699 311.332547 
L 75.822806 318.181015 
L 76.692914 297.784491 
L 77.563022 289.856644 
L 78.433129 288.442287 
L 79.303237 288.218967 
L 80.173344 291.792081 
L 81.043452 312.300266 
L 81.91356 317.399397 
L 82.783667 298.826649 
L 83.653775 300.985405 
L 84.523882 304.744619 
L 85.39399 295.662954 
L 86.264098 295.104655 
L 87.134205 301.543704 
L 88.004313 303.181381 
L 88.87442 310.774248 
L 89.744528 322.572968 
L 90.614636 286.58129 
L 91.484743 276.271368 
L 92.354851 290.563823 
L 93.224958 311.481427 
L 94.095066 311.295327 
L 94.965174 295.290755 
L 95.835281 274.112611 
L 96.705389 329.160897 
L 97.575496 331.952392 
L 98.445604 304.558519 
L 99.315711 307.126694 
L 100.185819 307.201134 
L 101.055927 292.12706 
L 101.926034 297.375071 
L 102.796142 291.196562 
L 103.666249 290.303283 
L 104.536357 284.422534 
L 105.406465 310.588149 
L 106.276572 287.586228 
L 107.14668 284.273654 
L 108.016787 291.047682 
L 108.886895 288.256187 
L 109.757003 290.749923 
L 110.62711 283.008176 
L 111.497218 293.206438 
L 112.367325 288.851706 
L 113.237433 276.792447 
L 114.107541 280.44 
L 114.977648 269.27402 
L 115.847756 255.874843 
L 116.717863 239.051432 
L 117.587971 287.139589 
L 118.458079 280.55166 
L 119.328186 306.791715 
L 120.198294 294.025277 
L 121.068401 276.643567 
L 121.938509 280.73776 
L 122.808617 293.615858 
L 123.678724 274.70813 
L 124.548832 258.591898 
L 125.418939 294.174157 
L 126.289047 279.100083 
L 127.159155 268.566841 
L 128.029262 285.278592 
L 128.89937 275.638629 
L 129.769477 270.688377 
L 130.639585 325.476123 
L 131.509692 278.318464 
L 132.3798 268.604061 
L 133.249908 277.611285 
L 134.120015 324.806164 
L 134.990123 274.410371 
L 135.86023 268.641281 
L 136.730338 258.033599 
L 137.600446 271.842195 
L 138.470553 271.469996 
L 139.340661 266.408085 
L 141.080876 227.438812 
L 141.950984 231.979644 
L 142.821091 256.023722 
L 143.691199 270.688377 
L 144.561306 247.388697 
L 145.431414 269.0507 
L 146.301522 278.579004 
L 147.171629 265.738126 
L 148.041737 255.093224 
L 148.911844 284.980833 
L 149.781952 272.512154 
L 150.65206 257.735839 
L 151.522167 290.824363 
L 152.392275 285.278592 
L 153.262382 265.105387 
L 154.13249 264.174888 
L 155.002598 227.066612 
L 155.872705 232.054084 
L 156.742813 281.184399 
L 157.61292 243.480604 
L 158.483028 231.086365 
L 159.353135 293.243658 
L 160.223243 256.619241 
L 161.963458 223.381839 
L 162.833566 272.288834 
L 163.703673 267.524683 
L 164.573781 226.396653 
L 165.443889 231.644664 
L 166.313996 318.404335 
L 167.184104 208.642744 
L 168.054211 220.367024 
L 168.924319 228.741509 
L 169.794427 201.198757 
L 170.664534 192.079872 
L 171.534642 285.353032 
L 172.404749 197.774523 
L 173.274857 192.005433 
L 174.144965 196.397385 
L 175.015072 184.226466 
L 175.88518 203.878592 
L 176.755287 196.955684 
L 177.625395 176.968578 
L 178.495503 150.281884 
L 179.36561 223.270179 
L 180.235718 184.189246 
L 181.105825 182.328249 
L 181.975933 249.994093 
L 182.846041 182.998208 
L 183.716148 176.484719 
L 184.586256 172.539406 
L 185.456363 186.720202 
L 186.326471 185.640823 
L 187.196578 169.226832 
L 188.066686 192.340412 
L 188.936794 166.956416 
L 190.677009 221.111422 
L 191.547116 178.531816 
L 192.417224 200.677678 
L 193.287332 194.536388 
L 194.157439 204.511331 
L 195.027547 177.712977 
L 195.897654 164.983759 
L 196.767762 131.932456 
L 197.63787 174.549283 
L 198.507977 188.916178 
L 199.378085 180.802232 
L 200.248192 162.713343 
L 201.1183 173.916544 
L 201.988408 173.842104 
L 202.858515 170.901729 
L 203.728623 169.785131 
L 204.59873 195.466887 
L 205.468838 199.784399 
L 206.338946 200.082159 
L 207.209053 163.085542 
L 208.079161 150.281884 
L 208.949268 149.165286 
L 209.819376 165.393178 
L 210.689484 178.717915 
L 211.559591 168.110234 
L 213.299806 202.278135 
L 214.169914 177.303558 
L 215.040021 163.159982 
L 215.910129 181.99327 
L 216.780237 161.150106 
L 217.650344 165.951477 
L 218.520452 155.194916 
L 219.390559 207.786685 
L 220.260667 167.700814 
L 221.130775 157.465332 
L 222.000882 171.422808 
L 222.87099 198.742241 
L 223.741097 168.035794 
L 224.611205 180.243933 
L 225.481313 169.710691 
L 227.221528 154.376077 
L 228.091635 150.542424 
L 228.961743 172.762726 
L 229.831851 174.995922 
L 230.701958 153.520019 
L 231.572066 142.726237 
L 232.442173 148.420887 
L 233.312281 157.465332 
L 234.182389 174.958702 
L 235.052496 123.074111 
L 235.922604 174.363183 
L 237.662819 177.080238 
L 238.532927 197.625643 
L 239.403034 149.388606 
L 240.273142 166.323677 
L 241.143249 195.913526 
L 242.013357 189.511697 
L 242.883464 186.385222 
L 243.753572 158.76803 
L 244.62368 141.870179 
L 245.493787 127.540503 
L 246.363895 150.654084 
L 247.234002 182.06771 
L 248.10411 178.978455 
L 248.974218 186.757422 
L 249.844325 207.153946 
L 250.714433 221.930261 
L 251.58454 225.726695 
L 252.454648 213.779095 
L 253.324756 205.06963 
L 254.194863 177.154678 
L 255.064971 174.698162 
L 255.935078 184.598665 
L 256.805186 204.84631 
L 257.675294 181.434971 
L 258.545401 187.87402 
L 259.415509 189.213937 
L 260.285616 167.663594 
L 261.155724 214.970133 
L 262.025832 177.675757 
L 262.895939 166.881976 
L 264.636154 207.116727 
L 265.506262 186.980741 
L 266.37637 176.708039 
L 267.246477 170.08289 
L 268.116585 169.636251 
L 268.986692 165.430398 
L 269.8568 193.53145 
L 270.726908 205.814029 
L 271.597015 186.534102 
L 272.467123 172.129987 
L 273.33723 173.283805 
L 274.207338 206.372328 
L 275.077445 193.41979 
L 275.947553 154.785497 
L 276.817661 203.841372 
L 277.687768 170.901729 
L 278.557876 128.582662 
L 279.427983 157.055913 
L 280.298091 216.161171 
L 281.168199 174.512063 
L 282.038306 306.493956 
L 282.908414 186.682982 
L 283.778521 175.517001 
L 284.648629 154.301637 
L 285.518737 159.735748 
L 286.388844 157.614212 
L 287.258952 172.055547 
L 288.129059 181.099991 
L 288.999167 164.1277 
L 289.869275 223.270179 
L 291.60949 273.703192 
L 292.479597 279.435062 
L 294.219813 149.053626 
L 295.960028 172.576626 
L 296.830135 170.715629 
L 297.700243 169.896791 
L 298.570351 211.806438 
L 299.440458 170.827289 
L 301.180673 188.916178 
L 302.050781 179.052895 
L 302.920888 212.476397 
L 303.790996 186.013023 
L 304.661104 169.524591 
L 305.531211 258.852438 
L 306.401319 146.150471 
L 308.141534 175.665881 
L 309.011642 194.648048 
L 309.881749 202.575894 
L 310.751857 167.886914 
L 311.621964 154.376077 
L 312.492072 257.58696 
L 313.36218 239.386411 
L 314.232287 215.119013 
L 315.102395 182.142149 
L 315.972502 168.370773 
L 316.84261 170.641189 
L 317.712718 162.452803 
L 318.582825 146.67155 
L 319.452933 142.875117 
L 320.32304 157.539772 
L 321.193148 178.159616 
L 322.063256 258.070819 
L 322.933363 239.572511 
L 323.803471 212.364737 
L 324.673578 153.817778 
L 325.543686 160.368487 
L 326.413794 177.899077 
L 327.283901 171.273928 
L 328.154009 257.773059 
L 329.024116 191.856553 
L 329.894224 187.79958 
L 330.764331 187.6507 
L 331.634439 184.933645 
L 332.504547 192.154312 
L 333.374654 173.544344 
L 334.244762 203.059753 
L 335.114869 249.026374 
L 335.984977 208.531084 
L 336.855085 324.657284 
L 337.725192 224.014577 
L 338.5953 211.434239 
L 339.465407 196.583485 
L 340.335515 192.191532 
L 341.205623 200.082159 
L 342.07573 197.402323 
L 342.945838 201.868716 
L 343.815945 212.178638 
L 344.686053 197.811743 
L 345.556161 191.484353 
L 346.426268 195.057467 
L 347.296376 238.828112 
L 348.166483 222.63744 
L 349.036591 196.620705 
L 349.906699 209.647682 
L 350.776806 181.025551 
L 351.646914 191.856553 
L 352.517021 280.365561 
L 353.387129 234.36172 
L 354.257237 221.744161 
L 355.127344 211.657559 
L 355.997452 216.98001 
L 356.867559 245.081061 
L 357.737667 288.181747 
L 358.607774 252.487828 
L 359.477882 292.35038 
L 360.34799 244.076123 
L 361.218097 233.803421 
L 362.088205 233.691761 
L 362.958312 204.064692 
L 363.82842 239.535291 
L 364.698528 213.518555 
L 365.568635 209.275483 
L 366.438743 201.347636 
L 367.30885 213.481336 
L 368.178958 218.282707 
L 369.049066 206.149008 
L 369.919173 251.44567 
L 370.789281 321.754129 
L 371.659388 224.349557 
L 372.529496 213.258016 
L 374.269711 245.8999 
L 375.139819 224.796196 
L 376.880034 208.791624 
L 377.750142 209.945442 
L 378.620249 214.858473 
L 379.490357 246.04878 
L 380.360464 257.51252 
L 381.230572 221.334742 
L 382.10068 208.419424 
L 382.970787 248.989154 
L 383.840895 233.803421 
L 384.711002 265.775346 
L 385.58111 310.364829 
L 386.451217 319.930352 
L 387.321325 298.975529 
L 388.191433 304.744619 
L 389.06154 262.313892 
L 389.931648 257.810279 
L 390.801755 236.371596 
L 391.671863 255.502643 
L 392.541971 262.611651 
L 393.412078 275.378089 
L 394.282186 264.770407 
L 395.152293 259.857376 
L 396.892509 195.466887 
L 397.762616 179.722854 
L 399.502831 259.559616 
L 400.372939 214.076855 
L 401.243047 266.966384 
L 402.113154 195.504106 
L 402.983262 228.36931 
L 403.853369 255.204884 
L 404.723477 261.978912 
L 405.593585 262.462771 
L 406.463692 238.753672 
L 407.3338 222.33968 
L 408.203907 225.466155 
L 409.074015 230.267527 
L 409.944123 299.571047 
L 410.81423 274.410371 
L 411.684338 257.4753 
L 412.554445 186.496882 
L 413.424553 189.065058 
L 414.294661 196.322945 
L 415.164768 219.362085 
L 416.034876 198.258382 
L 416.904983 227.289932 
L 417.775091 213.109136 
L 418.645198 180.169493 
L 419.515306 177.564097 
L 420.385414 208.010005 
L 421.255521 193.49423 
L 422.125629 242.587325 
L 422.995736 238.307033 
L 423.865844 207.153946 
L 424.735952 185.156964 
L 425.606059 243.703924 
L 426.476167 205.441829 
L 427.346274 205.404609 
L 428.216382 267.264143 
L 429.08649 291.084902 
L 429.956597 220.627563 
L 430.826705 202.017595 
L 431.696812 192.824271 
L 432.56692 236.148277 
L 433.437028 193.38257 
L 434.307135 187.278501 
L 435.177243 247.909776 
L 436.04735 231.533005 
L 436.917458 207.414486 
L 437.787566 170.34343 
L 438.657673 159.586868 
L 439.527781 218.208267 
L 440.397888 246.309319 
L 441.267996 221.855821 
L 442.138104 187.129621 
L 443.008211 185.603604 
L 443.878319 279.732822 
L 444.748426 162.266704 
L 445.618534 229.113709 
L 446.488641 196.657925 
L 447.358749 220.590343 
L 448.228857 223.940138 
L 449.098964 200.752117 
L 449.969072 165.020979 
L 450.839179 147.676489 
L 451.709287 177.936297 
L 452.579395 194.722488 
L 453.449502 165.207079 
L 454.31961 150.802963 
L 455.189717 130.369219 
L 456.059825 113.061948 
L 456.929933 117.528341 
L 457.80004 185.045304 
L 458.670148 56.338766 
L 459.540255 128.694321 
L 460.410363 118.979918 
L 461.280471 121.213114 
L 462.150578 116.113983 
L 463.020686 92.256004 
L 463.890793 36.76108 
L 464.760901 222.48856 
L 465.631009 162.043384 
L 466.501116 141.12578 
L 467.371224 158.098071 
L 468.241331 135.914989 
L 469.111439 119.724317 
L 469.981547 144.810554 
L 470.851654 115.927883 
L 471.721762 123.148551 
L 472.591869 127.056644 
L 473.461977 95.940778 
L 474.332084 108.446676 
L 475.202192 107.665058 
L 476.0723 107.553398 
L 476.942407 92.777083 
L 477.812515 155.604335 
L 478.682622 140.120842 
L 479.55273 127.726603 
L 480.422838 167.030855 
L 481.292945 146.67155 
L 483.03316 70.333462 
L 483.903268 82.541601 
L 484.773376 110.903192 
L 485.643483 98.955593 
L 486.513591 185.454724 
L 487.383698 103.645304 
L 488.253806 76.660851 
L 489.123914 101.449328 
L 489.994021 309.76931 
L 491.734236 138.334285 
L 492.604344 117.379461 
L 493.474452 160.926786 
L 494.344559 116.002323 
L 495.214667 190.926054 
L 496.084774 113.359708 
L 496.954882 140.604701 
L 497.82499 134.351752 
L 498.695097 118.384399 
L 499.565205 109.004975 
L 500.435312 113.657467 
L 501.30542 91.809365 
L 502.175527 111.312611 
L 503.045635 114.513526 
L 503.915743 134.798391 
L 504.78585 172.427746 
L 505.655958 103.384765 
L 506.526065 86.338034 
L 507.396173 71.48728 
L 508.266281 120.282616 
L 509.136388 242.177906 
L 510.876603 71.673379 
L 511.746711 73.162177 
L 512.616819 63.671093 
L 513.486926 39.292035 
L 514.357034 82.653261 
L 515.227141 185.752483 
L 516.097249 121.957513 
L 516.967357 152.217321 
L 517.837464 96.015218 
L 518.707572 97.355135 
L 519.577679 104.724683 
L 520.447787 102.677586 
L 521.317895 123.074111 
L 522.188002 134.240092 
L 523.05811 92.851523 
L 523.928217 74.874294 
L 524.798325 194.387508 
L 525.668433 45.768304 
L 526.53854 63.596653 
L 527.408648 87.529072 
L 528.278755 87.417412 
L 529.148863 85.407536 
L 530.01897 69.067984 
L 530.889078 60.060759 
L 531.759186 68.919104 
L 532.629293 102.417047 
L 533.499401 99.960531 
L 534.369508 162.936663 
L 535.239616 71.785039 
L 536.109724 73.943796 
L 536.979831 62.703375 
L 537.849939 61.326237 
L 538.720046 88.273471 
L 539.590154 158.209731 
L 540.460262 93.968121 
L 541.330369 116.821162 
L 542.200477 128.210462 
L 543.070584 131.262497 
L 543.940692 70.407902 
L 544.8108 91.511605 
L 545.680907 95.680238 
L 546.551015 71.003421 
L 547.421122 74.985954 
L 548.29123 91.958245 
L 549.161338 144.661674 
L 550.031445 136.324408 
L 550.901553 142.130718 
L 551.77166 116.225643 
L 552.641768 100.109411 
L 553.511876 72.454998 
L 554.381983 115.704564 
L 555.252091 116.970042 
L 556.122198 167.849694 
L 556.992306 174.102643 
L 557.862414 103.496425 
L 558.732521 113.880787 
L 559.602629 77.628569 
L 560.472736 70.854541 
L 561.342844 68.881884 
L 562.212951 88.60845 
L 563.083059 123.52075 
L 563.953167 93.782021 
L 564.823274 95.419699 
L 565.693382 135.35669 
L 566.563489 102.677586 
L 567.433597 129.51316 
L 568.303705 182.03049 
L 569.173812 72.194459 
L 570.04392 88.72011 
L 571.784135 43.795647 
L 572.654243 92.628203 
L 573.52435 91.027746 
L 574.394458 99.178912 
L 575.264565 102.454267 
L 576.134673 83.546539 
L 577.004781 79.415126 
L 577.874888 65.867069 
L 578.744996 77.740229 
L 579.615103 80.941144 
L 580.485211 94.005341 
L 581.355319 144.624454 
L 582.225426 86.970773 
L 582.225426 86.970773 
" style="fill:none;stroke:#000000;stroke-linecap:round;stroke-width:1.5;"/>
   </g>
   <g id="patch_3">
    <path d="M 49.589063 348.095625 
L 49.589063 21.935625 
" style="fill:none;stroke:#ffffff;stroke-linecap:square;stroke-linejoin:miter;stroke-width:0.8;"/>
   </g>
   <g id="patch_4">
    <path d="M 607.589062 348.095625 
L 607.589062 21.935625 
" style="fill:none;stroke:#ffffff;stroke-linecap:square;stroke-linejoin:miter;stroke-width:0.8;"/>
   </g>
   <g id="patch_5">
    <path d="M 49.589063 348.095625 
L 607.589062 348.095625 
" style="fill:none;stroke:#ffffff;stroke-linecap:square;stroke-linejoin:miter;stroke-width:0.8;"/>
   </g>
   <g id="patch_6">
    <path d="M 49.589063 21.935625 
L 607.589062 21.935625 
" style="fill:none;stroke:#ffffff;stroke-linecap:square;stroke-linejoin:miter;stroke-width:0.8;"/>
   </g>
   <g id="text_18">
    <!-- In-Sample Predictions -->
    <g style="fill:#262626;" transform="translate(269.89875 15.935625)scale(0.12 -0.12)">
     <defs>
      <path d="M 9.328125 0 
L 9.328125 71.578125 
L 18.796875 71.578125 
L 18.796875 0 
z
" id="ArialMT-73"/>
      <path d="M 3.171875 21.484375 
L 3.171875 30.328125 
L 30.171875 30.328125 
L 30.171875 21.484375 
z
" id="ArialMT-45"/>
      <path d="M 4.5 23 
L 13.421875 23.78125 
Q 14.0625 18.40625 16.375 14.96875 
Q 18.703125 11.53125 23.578125 9.40625 
Q 28.46875 7.28125 34.578125 7.28125 
Q 39.984375 7.28125 44.140625 8.890625 
Q 48.296875 10.5 50.3125 13.296875 
Q 52.34375 16.109375 52.34375 19.4375 
Q 52.34375 22.796875 50.390625 25.3125 
Q 48.4375 27.828125 43.953125 29.546875 
Q 41.0625 30.671875 31.203125 33.03125 
Q 21.34375 35.40625 17.390625 37.5 
Q 12.25 40.1875 9.734375 44.15625 
Q 7.234375 48.140625 7.234375 53.078125 
Q 7.234375 58.5 10.296875 63.203125 
Q 13.375 67.921875 19.28125 70.359375 
Q 25.203125 72.796875 32.421875 72.796875 
Q 40.375 72.796875 46.453125 70.234375 
Q 52.546875 67.671875 55.8125 62.6875 
Q 59.078125 57.71875 59.328125 51.421875 
L 50.25 50.734375 
Q 49.515625 57.515625 45.28125 60.984375 
Q 41.0625 64.453125 32.8125 64.453125 
Q 24.21875 64.453125 20.28125 61.296875 
Q 16.359375 58.15625 16.359375 53.71875 
Q 16.359375 49.859375 19.140625 47.359375 
Q 21.875 44.875 33.421875 42.265625 
Q 44.96875 39.65625 49.265625 37.703125 
Q 55.515625 34.8125 58.484375 30.390625 
Q 61.46875 25.984375 61.46875 20.21875 
Q 61.46875 14.5 58.203125 9.4375 
Q 54.9375 4.390625 48.796875 1.578125 
Q 42.671875 -1.21875 35.015625 -1.21875 
Q 25.296875 -1.21875 18.71875 1.609375 
Q 12.15625 4.4375 8.421875 10.125 
Q 4.6875 15.828125 4.5 23 
z
" id="ArialMT-83"/>
      <path d="M 40.4375 6.390625 
Q 35.546875 2.25 31.03125 0.53125 
Q 26.515625 -1.171875 21.34375 -1.171875 
Q 12.796875 -1.171875 8.203125 3 
Q 3.609375 7.171875 3.609375 13.671875 
Q 3.609375 17.484375 5.34375 20.625 
Q 7.078125 23.78125 9.890625 25.6875 
Q 12.703125 27.59375 16.21875 28.5625 
Q 18.796875 29.25 24.03125 29.890625 
Q 34.671875 31.15625 39.703125 32.90625 
Q 39.75 34.71875 39.75 35.203125 
Q 39.75 40.578125 37.25 42.78125 
Q 33.890625 45.75 27.25 45.75 
Q 21.046875 45.75 18.09375 43.578125 
Q 15.140625 41.40625 13.71875 35.890625 
L 5.125 37.0625 
Q 6.296875 42.578125 8.984375 45.96875 
Q 11.671875 49.359375 16.75 51.1875 
Q 21.828125 53.03125 28.515625 53.03125 
Q 35.15625 53.03125 39.296875 51.46875 
Q 43.453125 49.90625 45.40625 47.53125 
Q 47.359375 45.171875 48.140625 41.546875 
Q 48.578125 39.3125 48.578125 33.453125 
L 48.578125 21.734375 
Q 48.578125 9.46875 49.140625 6.21875 
Q 49.703125 2.984375 51.375 0 
L 42.1875 0 
Q 40.828125 2.734375 40.4375 6.390625 
z
M 39.703125 26.03125 
Q 34.90625 24.078125 25.34375 22.703125 
Q 19.921875 21.921875 17.671875 20.9375 
Q 15.4375 19.96875 14.203125 18.09375 
Q 12.984375 16.21875 12.984375 13.921875 
Q 12.984375 10.40625 15.640625 8.0625 
Q 18.3125 5.71875 23.4375 5.71875 
Q 28.515625 5.71875 32.46875 7.9375 
Q 36.421875 10.15625 38.28125 14.015625 
Q 39.703125 17 39.703125 22.796875 
z
" id="ArialMT-97"/>
      <path d="M 6.59375 0 
L 6.59375 51.859375 
L 14.453125 51.859375 
L 14.453125 44.578125 
Q 16.890625 48.390625 20.9375 50.703125 
Q 25 53.03125 30.171875 53.03125 
Q 35.9375 53.03125 39.625 50.640625 
Q 43.3125 48.25 44.828125 43.953125 
Q 50.984375 53.03125 60.84375 53.03125 
Q 68.5625 53.03125 72.703125 48.75 
Q 76.859375 44.484375 76.859375 35.59375 
L 76.859375 0 
L 68.109375 0 
L 68.109375 32.671875 
Q 68.109375 37.9375 67.25 40.25 
Q 66.40625 42.578125 64.15625 43.984375 
Q 61.921875 45.40625 58.890625 45.40625 
Q 53.421875 45.40625 49.796875 41.765625 
Q 46.1875 38.140625 46.1875 30.125 
L 46.1875 0 
L 37.40625 0 
L 37.40625 33.6875 
Q 37.40625 39.546875 35.25 42.46875 
Q 33.109375 45.40625 28.21875 45.40625 
Q 24.515625 45.40625 21.359375 43.453125 
Q 18.21875 41.5 16.796875 37.734375 
Q 15.375 33.984375 15.375 26.90625 
L 15.375 0 
z
" id="ArialMT-109"/>
      <path d="M 6.59375 -19.875 
L 6.59375 51.859375 
L 14.59375 51.859375 
L 14.59375 45.125 
Q 17.4375 49.078125 21 51.046875 
Q 24.5625 53.03125 29.640625 53.03125 
Q 36.28125 53.03125 41.359375 49.609375 
Q 46.4375 46.1875 49.015625 39.953125 
Q 51.609375 33.734375 51.609375 26.3125 
Q 51.609375 18.359375 48.75 11.984375 
Q 45.90625 5.609375 40.453125 2.21875 
Q 35.015625 -1.171875 29 -1.171875 
Q 24.609375 -1.171875 21.109375 0.6875 
Q 17.625 2.546875 15.375 5.375 
L 15.375 -19.875 
z
M 14.546875 25.640625 
Q 14.546875 15.625 18.59375 10.84375 
Q 22.65625 6.0625 28.421875 6.0625 
Q 34.28125 6.0625 38.453125 11.015625 
Q 42.625 15.96875 42.625 26.375 
Q 42.625 36.28125 38.546875 41.203125 
Q 34.46875 46.140625 28.8125 46.140625 
Q 23.1875 46.140625 18.859375 40.890625 
Q 14.546875 35.640625 14.546875 25.640625 
z
" id="ArialMT-112"/>
      <path d="M 6.390625 0 
L 6.390625 71.578125 
L 15.1875 71.578125 
L 15.1875 0 
z
" id="ArialMT-108"/>
      <path d="M 42.09375 16.703125 
L 51.171875 15.578125 
Q 49.03125 7.625 43.21875 3.21875 
Q 37.40625 -1.171875 28.375 -1.171875 
Q 17 -1.171875 10.328125 5.828125 
Q 3.65625 12.84375 3.65625 25.484375 
Q 3.65625 38.578125 10.390625 45.796875 
Q 17.140625 53.03125 27.875 53.03125 
Q 38.28125 53.03125 44.875 45.953125 
Q 51.46875 38.875 51.46875 26.03125 
Q 51.46875 25.25 51.421875 23.6875 
L 12.75 23.6875 
Q 13.234375 15.140625 17.578125 10.59375 
Q 21.921875 6.0625 28.421875 6.0625 
Q 33.25 6.0625 36.671875 8.59375 
Q 40.09375 11.140625 42.09375 16.703125 
z
M 13.234375 30.90625 
L 42.1875 30.90625 
Q 41.609375 37.453125 38.875 40.71875 
Q 34.671875 45.796875 27.984375 45.796875 
Q 21.921875 45.796875 17.796875 41.75 
Q 13.671875 37.703125 13.234375 30.90625 
z
" id="ArialMT-101"/>
      <path id="ArialMT-32"/>
      <path d="M 7.71875 0 
L 7.71875 71.578125 
L 34.71875 71.578125 
Q 41.84375 71.578125 45.609375 70.90625 
Q 50.875 70.015625 54.4375 67.546875 
Q 58.015625 65.09375 60.1875 60.640625 
Q 62.359375 56.203125 62.359375 50.875 
Q 62.359375 41.75 56.546875 35.421875 
Q 50.734375 29.109375 35.546875 29.109375 
L 17.1875 29.109375 
L 17.1875 0 
z
M 17.1875 37.546875 
L 35.6875 37.546875 
Q 44.875 37.546875 48.734375 40.96875 
Q 52.59375 44.390625 52.59375 50.59375 
Q 52.59375 55.078125 50.3125 58.265625 
Q 48.046875 61.46875 44.34375 62.5 
Q 41.9375 63.140625 35.5 63.140625 
L 17.1875 63.140625 
z
" id="ArialMT-80"/>
      <path d="M 6.5 0 
L 6.5 51.859375 
L 14.40625 51.859375 
L 14.40625 44 
Q 17.4375 49.515625 20 51.265625 
Q 22.5625 53.03125 25.640625 53.03125 
Q 30.078125 53.03125 34.671875 50.203125 
L 31.640625 42.046875 
Q 28.421875 43.953125 25.203125 43.953125 
Q 22.3125 43.953125 20.015625 42.21875 
Q 17.71875 40.484375 16.75 37.40625 
Q 15.28125 32.71875 15.28125 27.15625 
L 15.28125 0 
z
" id="ArialMT-114"/>
      <path d="M 40.234375 0 
L 40.234375 6.546875 
Q 35.296875 -1.171875 25.734375 -1.171875 
Q 19.53125 -1.171875 14.328125 2.25 
Q 9.125 5.671875 6.265625 11.796875 
Q 3.421875 17.921875 3.421875 25.875 
Q 3.421875 33.640625 6 39.96875 
Q 8.59375 46.296875 13.765625 49.65625 
Q 18.953125 53.03125 25.34375 53.03125 
Q 30.03125 53.03125 33.6875 51.046875 
Q 37.359375 49.078125 39.65625 45.90625 
L 39.65625 71.578125 
L 48.390625 71.578125 
L 48.390625 0 
z
M 12.453125 25.875 
Q 12.453125 15.921875 16.640625 10.984375 
Q 20.84375 6.0625 26.5625 6.0625 
Q 32.328125 6.0625 36.34375 10.765625 
Q 40.375 15.484375 40.375 25.140625 
Q 40.375 35.796875 36.265625 40.765625 
Q 32.171875 45.75 26.171875 45.75 
Q 20.3125 45.75 16.375 40.96875 
Q 12.453125 36.1875 12.453125 25.875 
z
" id="ArialMT-100"/>
      <path d="M 6.640625 61.46875 
L 6.640625 71.578125 
L 15.4375 71.578125 
L 15.4375 61.46875 
z
M 6.640625 0 
L 6.640625 51.859375 
L 15.4375 51.859375 
L 15.4375 0 
z
" id="ArialMT-105"/>
      <path d="M 3.328125 25.921875 
Q 3.328125 40.328125 11.328125 47.265625 
Q 18.015625 53.03125 27.640625 53.03125 
Q 38.328125 53.03125 45.109375 46.015625 
Q 51.90625 39.015625 51.90625 26.65625 
Q 51.90625 16.65625 48.90625 10.90625 
Q 45.90625 5.171875 40.15625 2 
Q 34.421875 -1.171875 27.640625 -1.171875 
Q 16.75 -1.171875 10.03125 5.8125 
Q 3.328125 12.796875 3.328125 25.921875 
z
M 12.359375 25.921875 
Q 12.359375 15.96875 16.703125 11.015625 
Q 21.046875 6.0625 27.640625 6.0625 
Q 34.1875 6.0625 38.53125 11.03125 
Q 42.875 16.015625 42.875 26.21875 
Q 42.875 35.84375 38.5 40.796875 
Q 34.125 45.75 27.640625 45.75 
Q 21.046875 45.75 16.703125 40.8125 
Q 12.359375 35.890625 12.359375 25.921875 
z
" id="ArialMT-111"/>
      <path d="M 3.078125 15.484375 
L 11.765625 16.84375 
Q 12.5 11.625 15.84375 8.84375 
Q 19.1875 6.0625 25.203125 6.0625 
Q 31.25 6.0625 34.171875 8.515625 
Q 37.109375 10.984375 37.109375 14.3125 
Q 37.109375 17.28125 34.515625 19 
Q 32.71875 20.171875 25.53125 21.96875 
Q 15.875 24.421875 12.140625 26.203125 
Q 8.40625 27.984375 6.46875 31.125 
Q 4.546875 34.28125 4.546875 38.09375 
Q 4.546875 41.546875 6.125 44.5 
Q 7.71875 47.46875 10.453125 49.421875 
Q 12.5 50.921875 16.03125 51.96875 
Q 19.578125 53.03125 23.640625 53.03125 
Q 29.734375 53.03125 34.34375 51.265625 
Q 38.96875 49.515625 41.15625 46.5 
Q 43.359375 43.5 44.1875 38.484375 
L 35.59375 37.3125 
Q 35.015625 41.3125 32.203125 43.546875 
Q 29.390625 45.796875 24.265625 45.796875 
Q 18.21875 45.796875 15.625 43.796875 
Q 13.03125 41.796875 13.03125 39.109375 
Q 13.03125 37.40625 14.109375 36.03125 
Q 15.1875 34.625 17.484375 33.6875 
Q 18.796875 33.203125 25.25 31.453125 
Q 34.578125 28.953125 38.25 27.359375 
Q 41.9375 25.78125 44.03125 22.75 
Q 46.140625 19.734375 46.140625 15.234375 
Q 46.140625 10.84375 43.578125 6.953125 
Q 41.015625 3.078125 36.171875 0.953125 
Q 31.34375 -1.171875 25.25 -1.171875 
Q 15.140625 -1.171875 9.84375 3.03125 
Q 4.546875 7.234375 3.078125 15.484375 
z
" id="ArialMT-115"/>
     </defs>
     <use xlink:href="#ArialMT-73"/>
     <use x="27.783203" xlink:href="#ArialMT-110"/>
     <use x="83.398438" xlink:href="#ArialMT-45"/>
     <use x="116.699219" xlink:href="#ArialMT-83"/>
     <use x="183.398438" xlink:href="#ArialMT-97"/>
     <use x="239.013672" xlink:href="#ArialMT-109"/>
     <use x="322.314453" xlink:href="#ArialMT-112"/>
     <use x="377.929688" xlink:href="#ArialMT-108"/>
     <use x="400.146484" xlink:href="#ArialMT-101"/>
     <use x="455.761719" xlink:href="#ArialMT-32"/>
     <use x="483.544922" xlink:href="#ArialMT-80"/>
     <use x="550.244141" xlink:href="#ArialMT-114"/>
     <use x="583.544922" xlink:href="#ArialMT-101"/>
     <use x="639.160156" xlink:href="#ArialMT-100"/>
     <use x="694.775391" xlink:href="#ArialMT-105"/>
     <use x="716.992188" xlink:href="#ArialMT-99"/>
     <use x="766.992188" xlink:href="#ArialMT-116"/>
     <use x="794.775391" xlink:href="#ArialMT-105"/>
     <use x="816.992188" xlink:href="#ArialMT-111"/>
     <use x="872.607422" xlink:href="#ArialMT-110"/>
     <use x="928.222656" xlink:href="#ArialMT-115"/>
    </g>
   </g>
   <g id="legend_1">
    <g id="patch_7">
     <path d="M 56.589063 72.48875 
L 118.601562 72.48875 
Q 120.601562 72.48875 120.601562 70.48875 
L 120.601562 28.935625 
Q 120.601562 26.935625 118.601562 26.935625 
L 56.589063 26.935625 
Q 54.589063 26.935625 54.589063 28.935625 
L 54.589063 70.48875 
Q 54.589063 72.48875 56.589063 72.48875 
z
" style="fill:#e6e6e6;opacity:0.8;stroke:#cccccc;stroke-linejoin:miter;"/>
    </g>
    <g id="line2d_20">
     <path d="M 58.589063 34.593438 
L 78.589063 34.593438 
" style="fill:none;stroke:#4c72b0;stroke-linecap:round;stroke-opacity:0.8;stroke-width:1.5;"/>
    </g>
    <g id="line2d_21"/>
    <g id="text_19">
     <!-- linear -->
     <g style="fill:#262626;" transform="translate(86.589063 38.093438)scale(0.1 -0.1)">
      <use xlink:href="#ArialMT-108"/>
      <use x="22.216797" xlink:href="#ArialMT-105"/>
      <use x="44.433594" xlink:href="#ArialMT-110"/>
      <use x="100.048828" xlink:href="#ArialMT-101"/>
      <use x="155.664062" xlink:href="#ArialMT-97"/>
      <use x="211.279297" xlink:href="#ArialMT-114"/>
     </g>
    </g>
    <g id="line2d_22">
     <path d="M 58.589063 48.73875 
L 78.589063 48.73875 
" style="fill:none;stroke:#dd8452;stroke-linecap:round;stroke-opacity:0.8;stroke-width:1.5;"/>
    </g>
    <g id="line2d_23"/>
    <g id="text_20">
     <!-- tree -->
     <g style="fill:#262626;" transform="translate(86.589063 52.23875)scale(0.1 -0.1)">
      <use xlink:href="#ArialMT-116"/>
      <use x="27.783203" xlink:href="#ArialMT-114"/>
      <use x="61.083984" xlink:href="#ArialMT-101"/>
      <use x="116.699219" xlink:href="#ArialMT-101"/>
     </g>
    </g>
    <g id="line2d_24">
     <path d="M 58.589063 62.884063 
L 78.589063 62.884063 
" style="fill:none;stroke:#000000;stroke-linecap:round;stroke-width:1.5;"/>
    </g>
    <g id="line2d_25"/>
    <g id="text_21">
     <!-- y_train -->
     <g style="fill:#262626;" transform="translate(86.589063 66.384063)scale(0.1 -0.1)">
      <defs>
       <path d="M 6.203125 -19.96875 
L 5.21875 -11.71875 
Q 8.109375 -12.5 10.25 -12.5 
Q 13.1875 -12.5 14.9375 -11.515625 
Q 16.703125 -10.546875 17.828125 -8.796875 
Q 18.65625 -7.46875 20.515625 -2.25 
Q 20.75 -1.515625 21.296875 -0.09375 
L 1.609375 51.859375 
L 11.078125 51.859375 
L 21.875 21.828125 
Q 23.96875 16.109375 25.640625 9.8125 
Q 27.15625 15.875 29.25 21.625 
L 40.328125 51.859375 
L 49.125 51.859375 
L 29.390625 -0.875 
Q 26.21875 -9.421875 24.46875 -12.640625 
Q 22.125 -17 19.09375 -19.015625 
Q 16.0625 -21.046875 11.859375 -21.046875 
Q 9.328125 -21.046875 6.203125 -19.96875 
z
" id="ArialMT-121"/>
       <path d="M -1.515625 -19.875 
L -1.515625 -13.53125 
L 56.734375 -13.53125 
L 56.734375 -19.875 
z
" id="ArialMT-95"/>
      </defs>
      <use xlink:href="#ArialMT-121"/>
      <use x="50" xlink:href="#ArialMT-95"/>
      <use x="105.615234" xlink:href="#ArialMT-116"/>
      <use x="133.398438" xlink:href="#ArialMT-114"/>
      <use x="166.699219" xlink:href="#ArialMT-97"/>
      <use x="222.314453" xlink:href="#ArialMT-105"/>
      <use x="244.53125" xlink:href="#ArialMT-110"/>
     </g>
    </g>
   </g>
  </g>
 </g>
 <defs>
  <clipPath id="pf4b15597a0">
   <rect height="326.16" width="558" x="49.589063" y="21.935625"/>
  </clipPath>
 </defs>
</svg>
