<?xml version="1.0" encoding="utf-8" standalone="no"?>
<!DOCTYPE svg PUBLIC "-//W3C//DTD SVG 1.1//EN"
  "http://www.w3.org/Graphics/SVG/1.1/DTD/svg11.dtd">
<!-- Created with matplotlib (https://matplotlib.org/) -->
<svg height="459.490625pt" version="1.1" viewBox="0 0 882.667187 459.490625" width="882.667187pt" xmlns="http://www.w3.org/2000/svg" xmlns:xlink="http://www.w3.org/1999/xlink">
 <metadata>
  <rdf:RDF xmlns:cc="http://creativecommons.org/ns#" xmlns:dc="http://purl.org/dc/elements/1.1/" xmlns:rdf="http://www.w3.org/1999/02/22-rdf-syntax-ns#">
   <cc:Work>
    <dc:type rdf:resource="http://purl.org/dc/dcmitype/StillImage"/>
    <dc:date>2021-06-30T17:02:06.975027</dc:date>
    <dc:format>image/svg+xml</dc:format>
    <dc:creator>
     <cc:Agent>
      <dc:title>Matplotlib v3.3.4, https://matplotlib.org/</dc:title>
     </cc:Agent>
    </dc:creator>
   </cc:Work>
  </rdf:RDF>
 </metadata>
 <defs>
  <style type="text/css">*{stroke-linecap:butt;stroke-linejoin:round;}</style>
 </defs>
 <g id="figure_1">
  <g id="patch_1">
   <path d="M 0 459.490625 
L 882.667187 459.490625 
L 882.667187 0 
L 0 0 
z
" style="fill:#ffffff;"/>
  </g>
  <g id="axes_1"/>
  <g id="axes_2">
   <g id="patch_2">
    <path d="M 38.467188 423 
L 284.643658 423 
L 284.643658 42.48 
L 38.467188 42.48 
z
" style="fill:#e6e6e6;"/>
   </g>
   <g id="matplotlib.axis_1">
    <g id="xtick_1">
     <g id="line2d_1">
      <path clip-path="url(#p617ceca18a)" d="M 72.727442 423 
L 72.727442 42.48 
" style="fill:none;stroke:#cccccc;stroke-linecap:round;stroke-width:0.8;"/>
     </g>
     <g id="text_1">
      <!-- 5 -->
      <g style="fill:#262626;" transform="translate(69.946973 437.157812)scale(0.1 -0.1)">
       <defs>
        <path d="M 4.15625 18.75 
L 13.375 19.53125 
Q 14.40625 12.796875 18.140625 9.390625 
Q 21.875 6 27.15625 6 
Q 33.5 6 37.890625 10.78125 
Q 42.28125 15.578125 42.28125 23.484375 
Q 42.28125 31 38.0625 35.34375 
Q 33.84375 39.703125 27 39.703125 
Q 22.75 39.703125 19.328125 37.765625 
Q 15.921875 35.84375 13.96875 32.765625 
L 5.71875 33.84375 
L 12.640625 70.609375 
L 48.25 70.609375 
L 48.25 62.203125 
L 19.671875 62.203125 
L 15.828125 42.96875 
Q 22.265625 47.46875 29.34375 47.46875 
Q 38.71875 47.46875 45.15625 40.96875 
Q 51.609375 34.46875 51.609375 24.265625 
Q 51.609375 14.546875 45.953125 7.46875 
Q 39.0625 -1.21875 27.15625 -1.21875 
Q 17.390625 -1.21875 11.203125 4.25 
Q 5.03125 9.71875 4.15625 18.75 
z
" id="ArialMT-53"/>
       </defs>
       <use xlink:href="#ArialMT-53"/>
      </g>
     </g>
    </g>
    <g id="xtick_2">
     <g id="line2d_2">
      <path clip-path="url(#p617ceca18a)" d="M 117.855484 423 
L 117.855484 42.48 
" style="fill:none;stroke:#cccccc;stroke-linecap:round;stroke-width:0.8;"/>
     </g>
     <g id="text_2">
      <!-- 10 -->
      <g style="fill:#262626;" transform="translate(112.294546 437.157812)scale(0.1 -0.1)">
       <defs>
        <path d="M 37.25 0 
L 28.46875 0 
L 28.46875 56 
Q 25.296875 52.984375 20.140625 49.953125 
Q 14.984375 46.921875 10.890625 45.40625 
L 10.890625 53.90625 
Q 18.265625 57.375 23.78125 62.296875 
Q 29.296875 67.234375 31.59375 71.875 
L 37.25 71.875 
z
" id="ArialMT-49"/>
        <path d="M 4.15625 35.296875 
Q 4.15625 48 6.765625 55.734375 
Q 9.375 63.484375 14.515625 67.671875 
Q 19.671875 71.875 27.484375 71.875 
Q 33.25 71.875 37.59375 69.546875 
Q 41.9375 67.234375 44.765625 62.859375 
Q 47.609375 58.5 49.21875 52.21875 
Q 50.828125 45.953125 50.828125 35.296875 
Q 50.828125 22.703125 48.234375 14.96875 
Q 45.65625 7.234375 40.5 3 
Q 35.359375 -1.21875 27.484375 -1.21875 
Q 17.140625 -1.21875 11.234375 6.203125 
Q 4.15625 15.140625 4.15625 35.296875 
z
M 13.1875 35.296875 
Q 13.1875 17.671875 17.3125 11.828125 
Q 21.4375 6 27.484375 6 
Q 33.546875 6 37.671875 11.859375 
Q 41.796875 17.71875 41.796875 35.296875 
Q 41.796875 52.984375 37.671875 58.78125 
Q 33.546875 64.59375 27.390625 64.59375 
Q 21.34375 64.59375 17.71875 59.46875 
Q 13.1875 52.9375 13.1875 35.296875 
z
" id="ArialMT-48"/>
       </defs>
       <use xlink:href="#ArialMT-49"/>
       <use x="55.615234" xlink:href="#ArialMT-48"/>
      </g>
     </g>
    </g>
    <g id="xtick_3">
     <g id="line2d_3">
      <path clip-path="url(#p617ceca18a)" d="M 162.983526 423 
L 162.983526 42.48 
" style="fill:none;stroke:#cccccc;stroke-linecap:round;stroke-width:0.8;"/>
     </g>
     <g id="text_3">
      <!-- 15 -->
      <g style="fill:#262626;" transform="translate(157.422589 437.157812)scale(0.1 -0.1)">
       <use xlink:href="#ArialMT-49"/>
       <use x="55.615234" xlink:href="#ArialMT-53"/>
      </g>
     </g>
    </g>
    <g id="xtick_4">
     <g id="line2d_4">
      <path clip-path="url(#p617ceca18a)" d="M 208.111569 423 
L 208.111569 42.48 
" style="fill:none;stroke:#cccccc;stroke-linecap:round;stroke-width:0.8;"/>
     </g>
     <g id="text_4">
      <!-- 20 -->
      <g style="fill:#262626;" transform="translate(202.550631 437.157812)scale(0.1 -0.1)">
       <defs>
        <path d="M 50.34375 8.453125 
L 50.34375 0 
L 3.03125 0 
Q 2.9375 3.171875 4.046875 6.109375 
Q 5.859375 10.9375 9.828125 15.625 
Q 13.8125 20.3125 21.34375 26.46875 
Q 33.015625 36.03125 37.109375 41.625 
Q 41.21875 47.21875 41.21875 52.203125 
Q 41.21875 57.421875 37.46875 61 
Q 33.734375 64.59375 27.734375 64.59375 
Q 21.390625 64.59375 17.578125 60.78125 
Q 13.765625 56.984375 13.71875 50.25 
L 4.6875 51.171875 
Q 5.609375 61.28125 11.65625 66.578125 
Q 17.71875 71.875 27.9375 71.875 
Q 38.234375 71.875 44.234375 66.15625 
Q 50.25 60.453125 50.25 52 
Q 50.25 47.703125 48.484375 43.546875 
Q 46.734375 39.40625 42.65625 34.8125 
Q 38.578125 30.21875 29.109375 22.21875 
Q 21.1875 15.578125 18.9375 13.203125 
Q 16.703125 10.84375 15.234375 8.453125 
z
" id="ArialMT-50"/>
       </defs>
       <use xlink:href="#ArialMT-50"/>
       <use x="55.615234" xlink:href="#ArialMT-48"/>
      </g>
     </g>
    </g>
    <g id="xtick_5">
     <g id="line2d_5">
      <path clip-path="url(#p617ceca18a)" d="M 253.239611 423 
L 253.239611 42.48 
" style="fill:none;stroke:#cccccc;stroke-linecap:round;stroke-width:0.8;"/>
     </g>
     <g id="text_5">
      <!-- 25 -->
      <g style="fill:#262626;" transform="translate(247.678674 437.157812)scale(0.1 -0.1)">
       <use xlink:href="#ArialMT-50"/>
       <use x="55.615234" xlink:href="#ArialMT-53"/>
      </g>
     </g>
    </g>
    <g id="text_6">
     <!-- temp -->
     <g style="fill:#262626;" transform="translate(150.440579 450.303125)scale(0.1 -0.1)">
      <defs>
       <path d="M 25.78125 7.859375 
L 27.046875 0.09375 
Q 23.34375 -0.6875 20.40625 -0.6875 
Q 15.625 -0.6875 12.984375 0.828125 
Q 10.359375 2.34375 9.28125 4.8125 
Q 8.203125 7.28125 8.203125 15.1875 
L 8.203125 45.015625 
L 1.765625 45.015625 
L 1.765625 51.859375 
L 8.203125 51.859375 
L 8.203125 64.703125 
L 16.9375 69.96875 
L 16.9375 51.859375 
L 25.78125 51.859375 
L 25.78125 45.015625 
L 16.9375 45.015625 
L 16.9375 14.703125 
Q 16.9375 10.9375 17.40625 9.859375 
Q 17.875 8.796875 18.921875 8.15625 
Q 19.96875 7.515625 21.921875 7.515625 
Q 23.390625 7.515625 25.78125 7.859375 
z
" id="ArialMT-116"/>
       <path d="M 42.09375 16.703125 
L 51.171875 15.578125 
Q 49.03125 7.625 43.21875 3.21875 
Q 37.40625 -1.171875 28.375 -1.171875 
Q 17 -1.171875 10.328125 5.828125 
Q 3.65625 12.84375 3.65625 25.484375 
Q 3.65625 38.578125 10.390625 45.796875 
Q 17.140625 53.03125 27.875 53.03125 
Q 38.28125 53.03125 44.875 45.953125 
Q 51.46875 38.875 51.46875 26.03125 
Q 51.46875 25.25 51.421875 23.6875 
L 12.75 23.6875 
Q 13.234375 15.140625 17.578125 10.59375 
Q 21.921875 6.0625 28.421875 6.0625 
Q 33.25 6.0625 36.671875 8.59375 
Q 40.09375 11.140625 42.09375 16.703125 
z
M 13.234375 30.90625 
L 42.1875 30.90625 
Q 41.609375 37.453125 38.875 40.71875 
Q 34.671875 45.796875 27.984375 45.796875 
Q 21.921875 45.796875 17.796875 41.75 
Q 13.671875 37.703125 13.234375 30.90625 
z
" id="ArialMT-101"/>
       <path d="M 6.59375 0 
L 6.59375 51.859375 
L 14.453125 51.859375 
L 14.453125 44.578125 
Q 16.890625 48.390625 20.9375 50.703125 
Q 25 53.03125 30.171875 53.03125 
Q 35.9375 53.03125 39.625 50.640625 
Q 43.3125 48.25 44.828125 43.953125 
Q 50.984375 53.03125 60.84375 53.03125 
Q 68.5625 53.03125 72.703125 48.75 
Q 76.859375 44.484375 76.859375 35.59375 
L 76.859375 0 
L 68.109375 0 
L 68.109375 32.671875 
Q 68.109375 37.9375 67.25 40.25 
Q 66.40625 42.578125 64.15625 43.984375 
Q 61.921875 45.40625 58.890625 45.40625 
Q 53.421875 45.40625 49.796875 41.765625 
Q 46.1875 38.140625 46.1875 30.125 
L 46.1875 0 
L 37.40625 0 
L 37.40625 33.6875 
Q 37.40625 39.546875 35.25 42.46875 
Q 33.109375 45.40625 28.21875 45.40625 
Q 24.515625 45.40625 21.359375 43.453125 
Q 18.21875 41.5 16.796875 37.734375 
Q 15.375 33.984375 15.375 26.90625 
L 15.375 0 
z
" id="ArialMT-109"/>
       <path d="M 6.59375 -19.875 
L 6.59375 51.859375 
L 14.59375 51.859375 
L 14.59375 45.125 
Q 17.4375 49.078125 21 51.046875 
Q 24.5625 53.03125 29.640625 53.03125 
Q 36.28125 53.03125 41.359375 49.609375 
Q 46.4375 46.1875 49.015625 39.953125 
Q 51.609375 33.734375 51.609375 26.3125 
Q 51.609375 18.359375 48.75 11.984375 
Q 45.90625 5.609375 40.453125 2.21875 
Q 35.015625 -1.171875 29 -1.171875 
Q 24.609375 -1.171875 21.109375 0.6875 
Q 17.625 2.546875 15.375 5.375 
L 15.375 -19.875 
z
M 14.546875 25.640625 
Q 14.546875 15.625 18.59375 10.84375 
Q 22.65625 6.0625 28.421875 6.0625 
Q 34.28125 6.0625 38.453125 11.015625 
Q 42.625 15.96875 42.625 26.375 
Q 42.625 36.28125 38.546875 41.203125 
Q 34.46875 46.140625 28.8125 46.140625 
Q 23.1875 46.140625 18.859375 40.890625 
Q 14.546875 35.640625 14.546875 25.640625 
z
" id="ArialMT-112"/>
      </defs>
      <use xlink:href="#ArialMT-116"/>
      <use x="27.783203" xlink:href="#ArialMT-101"/>
      <use x="83.398438" xlink:href="#ArialMT-109"/>
      <use x="166.699219" xlink:href="#ArialMT-112"/>
     </g>
    </g>
   </g>
   <g id="matplotlib.axis_2">
    <g id="ytick_1">
     <g id="line2d_6">
      <path clip-path="url(#p617ceca18a)" d="M 38.467188 342.786556 
L 284.643658 342.786556 
" style="fill:none;stroke:#cccccc;stroke-linecap:round;stroke-width:0.8;"/>
     </g>
     <g id="text_7">
      <!-- 50 -->
      <g style="fill:#262626;" transform="translate(20.345313 346.365462)scale(0.1 -0.1)">
       <use xlink:href="#ArialMT-53"/>
       <use x="55.615234" xlink:href="#ArialMT-48"/>
      </g>
     </g>
    </g>
    <g id="ytick_2">
     <g id="line2d_7">
      <path clip-path="url(#p617ceca18a)" d="M 38.467188 262.163442 
L 284.643658 262.163442 
" style="fill:none;stroke:#cccccc;stroke-linecap:round;stroke-width:0.8;"/>
     </g>
     <g id="text_8">
      <!-- 60 -->
      <g style="fill:#262626;" transform="translate(20.345313 265.742348)scale(0.1 -0.1)">
       <defs>
        <path d="M 49.75 54.046875 
L 41.015625 53.375 
Q 39.84375 58.546875 37.703125 60.890625 
Q 34.125 64.65625 28.90625 64.65625 
Q 24.703125 64.65625 21.53125 62.3125 
Q 17.390625 59.28125 14.984375 53.46875 
Q 12.59375 47.65625 12.5 36.921875 
Q 15.671875 41.75 20.265625 44.09375 
Q 24.859375 46.4375 29.890625 46.4375 
Q 38.671875 46.4375 44.84375 39.96875 
Q 51.03125 33.5 51.03125 23.25 
Q 51.03125 16.5 48.125 10.71875 
Q 45.21875 4.9375 40.140625 1.859375 
Q 35.0625 -1.21875 28.609375 -1.21875 
Q 17.625 -1.21875 10.6875 6.859375 
Q 3.765625 14.9375 3.765625 33.5 
Q 3.765625 54.25 11.421875 63.671875 
Q 18.109375 71.875 29.4375 71.875 
Q 37.890625 71.875 43.28125 67.140625 
Q 48.6875 62.40625 49.75 54.046875 
z
M 13.875 23.1875 
Q 13.875 18.65625 15.796875 14.5 
Q 17.71875 10.359375 21.1875 8.171875 
Q 24.65625 6 28.46875 6 
Q 34.03125 6 38.03125 10.484375 
Q 42.046875 14.984375 42.046875 22.703125 
Q 42.046875 30.125 38.078125 34.390625 
Q 34.125 38.671875 28.125 38.671875 
Q 22.171875 38.671875 18.015625 34.390625 
Q 13.875 30.125 13.875 23.1875 
z
" id="ArialMT-54"/>
       </defs>
       <use xlink:href="#ArialMT-54"/>
       <use x="55.615234" xlink:href="#ArialMT-48"/>
      </g>
     </g>
    </g>
    <g id="ytick_3">
     <g id="line2d_8">
      <path clip-path="url(#p617ceca18a)" d="M 38.467188 181.540328 
L 284.643658 181.540328 
" style="fill:none;stroke:#cccccc;stroke-linecap:round;stroke-width:0.8;"/>
     </g>
     <g id="text_9">
      <!-- 70 -->
      <g style="fill:#262626;" transform="translate(20.345313 185.119234)scale(0.1 -0.1)">
       <defs>
        <path d="M 4.734375 62.203125 
L 4.734375 70.65625 
L 51.078125 70.65625 
L 51.078125 63.8125 
Q 44.234375 56.546875 37.515625 44.484375 
Q 30.8125 32.421875 27.15625 19.671875 
Q 24.515625 10.6875 23.78125 0 
L 14.75 0 
Q 14.890625 8.453125 18.0625 20.40625 
Q 21.234375 32.375 27.171875 43.484375 
Q 33.109375 54.59375 39.796875 62.203125 
z
" id="ArialMT-55"/>
       </defs>
       <use xlink:href="#ArialMT-55"/>
       <use x="55.615234" xlink:href="#ArialMT-48"/>
      </g>
     </g>
    </g>
    <g id="ytick_4">
     <g id="line2d_9">
      <path clip-path="url(#p617ceca18a)" d="M 38.467188 100.917213 
L 284.643658 100.917213 
" style="fill:none;stroke:#cccccc;stroke-linecap:round;stroke-width:0.8;"/>
     </g>
     <g id="text_10">
      <!-- 80 -->
      <g style="fill:#262626;" transform="translate(20.345313 104.49612)scale(0.1 -0.1)">
       <defs>
        <path d="M 17.671875 38.8125 
Q 12.203125 40.828125 9.5625 44.53125 
Q 6.9375 48.25 6.9375 53.421875 
Q 6.9375 61.234375 12.546875 66.546875 
Q 18.171875 71.875 27.484375 71.875 
Q 36.859375 71.875 42.578125 66.421875 
Q 48.296875 60.984375 48.296875 53.171875 
Q 48.296875 48.1875 45.671875 44.5 
Q 43.0625 40.828125 37.75 38.8125 
Q 44.34375 36.671875 47.78125 31.875 
Q 51.21875 27.09375 51.21875 20.453125 
Q 51.21875 11.28125 44.71875 5.03125 
Q 38.234375 -1.21875 27.640625 -1.21875 
Q 17.046875 -1.21875 10.546875 5.046875 
Q 4.046875 11.328125 4.046875 20.703125 
Q 4.046875 27.6875 7.59375 32.390625 
Q 11.140625 37.109375 17.671875 38.8125 
z
M 15.921875 53.71875 
Q 15.921875 48.640625 19.1875 45.40625 
Q 22.46875 42.1875 27.6875 42.1875 
Q 32.765625 42.1875 36.015625 45.375 
Q 39.265625 48.578125 39.265625 53.21875 
Q 39.265625 58.0625 35.90625 61.359375 
Q 32.5625 64.65625 27.59375 64.65625 
Q 22.5625 64.65625 19.234375 61.421875 
Q 15.921875 58.203125 15.921875 53.71875 
z
M 13.09375 20.65625 
Q 13.09375 16.890625 14.875 13.375 
Q 16.65625 9.859375 20.171875 7.921875 
Q 23.6875 6 27.734375 6 
Q 34.03125 6 38.125 10.046875 
Q 42.234375 14.109375 42.234375 20.359375 
Q 42.234375 26.703125 38.015625 30.859375 
Q 33.796875 35.015625 27.4375 35.015625 
Q 21.234375 35.015625 17.15625 30.90625 
Q 13.09375 26.8125 13.09375 20.65625 
z
" id="ArialMT-56"/>
       </defs>
       <use xlink:href="#ArialMT-56"/>
       <use x="55.615234" xlink:href="#ArialMT-48"/>
      </g>
     </g>
    </g>
    <g id="text_11">
     <!-- hum -->
     <g style="fill:#262626;" transform="translate(14.357813 242.465781)rotate(-90)scale(0.1 -0.1)">
      <defs>
       <path d="M 6.59375 0 
L 6.59375 71.578125 
L 15.375 71.578125 
L 15.375 45.90625 
Q 21.53125 53.03125 30.90625 53.03125 
Q 36.671875 53.03125 40.921875 50.75 
Q 45.171875 48.484375 47 44.484375 
Q 48.828125 40.484375 48.828125 32.859375 
L 48.828125 0 
L 40.046875 0 
L 40.046875 32.859375 
Q 40.046875 39.453125 37.1875 42.453125 
Q 34.328125 45.453125 29.109375 45.453125 
Q 25.203125 45.453125 21.75 43.421875 
Q 18.3125 41.40625 16.84375 37.9375 
Q 15.375 34.46875 15.375 28.375 
L 15.375 0 
z
" id="ArialMT-104"/>
       <path d="M 40.578125 0 
L 40.578125 7.625 
Q 34.515625 -1.171875 24.125 -1.171875 
Q 19.53125 -1.171875 15.546875 0.578125 
Q 11.578125 2.34375 9.640625 5 
Q 7.71875 7.671875 6.9375 11.53125 
Q 6.390625 14.109375 6.390625 19.734375 
L 6.390625 51.859375 
L 15.1875 51.859375 
L 15.1875 23.09375 
Q 15.1875 16.21875 15.71875 13.8125 
Q 16.546875 10.359375 19.234375 8.375 
Q 21.921875 6.390625 25.875 6.390625 
Q 29.828125 6.390625 33.296875 8.421875 
Q 36.765625 10.453125 38.203125 13.9375 
Q 39.65625 17.4375 39.65625 24.078125 
L 39.65625 51.859375 
L 48.4375 51.859375 
L 48.4375 0 
z
" id="ArialMT-117"/>
      </defs>
      <use xlink:href="#ArialMT-104"/>
      <use x="55.615234" xlink:href="#ArialMT-117"/>
      <use x="111.230469" xlink:href="#ArialMT-109"/>
     </g>
    </g>
   </g>
   <g id="PathCollection_1">
    <path clip-path="url(#p617ceca18a)" d="M 40.89932 62.507368 
L 49.790166 42.48 
L 38.467188 42.48 
L 38.467188 62.507368 
L 38.467188 67.951594 
z
" style="fill:#d0e11c;fill-opacity:0.75;"/>
   </g>
   <g id="PathCollection_2">
    <path clip-path="url(#p617ceca18a)" d="M 42.205882 202.698947 
L 51.407879 182.671579 
L 51.423844 182.636654 
L 60.516369 162.644211 
L 64.3805 154.08599 
L 69.53277 142.616842 
L 77.337157 125.116577 
L 78.458471 122.589474 
L 87.294834 102.562105 
L 90.293813 95.719135 
L 96.043194 82.534737 
L 103.250469 65.884107 
L 104.704858 62.507368 
L 113.28111 42.48 
L 103.250469 42.48 
L 90.293813 42.48 
L 77.337157 42.48 
L 64.3805 42.48 
L 51.423844 42.48 
L 49.790166 42.48 
L 40.89932 62.507368 
L 38.467188 67.951594 
L 38.467188 82.534737 
L 38.467188 102.562105 
L 38.467188 122.589474 
L 38.467188 142.616842 
L 38.467188 162.644211 
L 38.467188 182.671579 
L 38.467188 202.698947 
L 38.467188 210.777583 
z
" style="fill:#73d056;fill-opacity:0.75;"/>
   </g>
   <g id="PathCollection_3">
    <path clip-path="url(#p617ceca18a)" d="M 43.609834 342.890526 
L 51.423844 326.494908 
L 53.145538 322.863158 
L 62.58077 302.835789 
L 64.3805 298.991539 
L 71.91711 282.808421 
L 77.337157 271.084781 
L 81.156104 262.781053 
L 90.293813 242.765695 
L 90.299268 242.753684 
L 99.348084 222.726316 
L 103.250469 214.025074 
L 108.304005 202.698947 
L 116.207126 184.853436 
L 117.168455 182.671579 
L 125.942828 162.644211 
L 129.163782 155.241011 
L 134.628489 142.616842 
L 142.120438 125.177734 
L 143.226778 122.589474 
L 151.739006 102.562105 
L 155.077095 94.653228 
L 160.166459 82.534737 
L 168.033751 63.656797 
L 168.510396 62.507368 
L 176.772054 42.48 
L 168.033751 42.48 
L 155.077095 42.48 
L 142.120438 42.48 
L 129.163782 42.48 
L 116.207126 42.48 
L 113.28111 42.48 
L 104.704858 62.507368 
L 103.250469 65.884107 
L 96.043194 82.534737 
L 90.293813 95.719135 
L 87.294834 102.562105 
L 78.458471 122.589474 
L 77.337157 125.116577 
L 69.53277 142.616842 
L 64.3805 154.08599 
L 60.516369 162.644211 
L 51.423844 182.636654 
L 51.407879 182.671579 
L 42.205882 202.698947 
L 38.467188 210.777583 
L 38.467188 222.726316 
L 38.467188 242.753684 
L 38.467188 262.781053 
L 38.467188 282.808421 
L 38.467188 302.835789 
L 38.467188 322.863158 
L 38.467188 342.890526 
L 38.467188 353.603573 
z
" style="fill:#2db27d;fill-opacity:0.75;"/>
   </g>
   <g id="PathCollection_4">
    <path clip-path="url(#p617ceca18a)" d="M 51.423844 423 
L 64.3805 423 
L 74.483046 423 
L 77.337157 417.052985 
L 84.058083 402.972632 
L 90.293813 389.812255 
L 93.530063 382.945263 
L 102.900639 362.917895 
L 103.250469 362.166042 
L 112.171433 342.890526 
L 116.207126 334.105224 
L 121.344028 322.863158 
L 129.163782 305.620404 
L 130.419978 302.835789 
L 139.400802 282.808421 
L 142.120438 276.701899 
L 148.287987 262.781053 
L 155.077095 247.339729 
L 157.08299 242.753684 
L 165.787238 222.726316 
L 168.033751 217.523604 
L 174.402129 202.698947 
L 180.990407 187.242916 
L 182.929032 182.671579 
L 191.369287 162.644211 
L 193.947064 156.486721 
L 199.724209 142.616842 
L 206.90372 125.24373 
L 207.995085 122.589474 
L 216.183178 102.562105 
L 219.860376 93.502293 
L 224.289724 82.534737 
L 232.315934 62.507368 
L 232.817033 61.250388 
L 240.262998 42.48 
L 232.817033 42.48 
L 219.860376 42.48 
L 206.90372 42.48 
L 193.947064 42.48 
L 180.990407 42.48 
L 176.772054 42.48 
L 168.510396 62.507368 
L 168.033751 63.656797 
L 160.166459 82.534737 
L 155.077095 94.653228 
L 151.739006 102.562105 
L 143.226778 122.589474 
L 142.120438 125.177734 
L 134.628489 142.616842 
L 129.163782 155.241011 
L 125.942828 162.644211 
L 117.168455 182.671579 
L 116.207126 184.853436 
L 108.304005 202.698947 
L 103.250469 214.025074 
L 99.348084 222.726316 
L 90.299268 242.753684 
L 90.293813 242.765695 
L 81.156104 262.781053 
L 77.337157 271.084781 
L 71.91711 282.808421 
L 64.3805 298.991539 
L 62.58077 302.835789 
L 53.145538 322.863158 
L 51.423844 326.494908 
L 43.609834 342.890526 
L 38.467188 353.603573 
L 38.467188 362.917895 
L 38.467188 382.945263 
L 38.467188 402.972632 
L 38.467188 423 
z
" style="fill:#21908d;fill-opacity:0.75;"/>
   </g>
   <g id="PathCollection_5">
    <path clip-path="url(#p617ceca18a)" d="M 77.337157 423 
L 90.293813 423 
L 103.250469 423 
L 116.207126 423 
L 129.163782 423 
L 142.120438 423 
L 144.536583 423 
L 153.732581 402.972632 
L 155.077095 400.026231 
L 162.829602 382.945263 
L 168.033751 371.390412 
L 171.829233 362.917895 
L 180.733031 342.890526 
L 180.990407 342.30842 
L 189.542519 322.863158 
L 193.947064 312.769745 
L 198.259187 302.835789 
L 206.884494 282.808421 
L 206.90372 282.763544 
L 215.419869 262.781053 
L 219.860376 252.27863 
L 223.866712 242.753684 
L 232.226393 222.726316 
L 232.817033 221.303453 
L 240.500253 202.698947 
L 245.773689 189.826093 
L 248.689608 182.671579 
L 256.795746 162.644211 
L 258.730345 157.834236 
L 264.819929 142.616842 
L 271.687002 125.315164 
L 272.763393 122.589474 
L 280.62735 102.562105 
L 284.643658 92.255736 
L 284.643658 82.534737 
L 284.643658 62.507368 
L 284.643658 42.48 
L 271.687002 42.48 
L 258.730345 42.48 
L 245.773689 42.48 
L 240.262998 42.48 
L 232.817033 61.250388 
L 232.315934 62.507368 
L 224.289724 82.534737 
L 219.860376 93.502293 
L 216.183178 102.562105 
L 207.995085 122.589474 
L 206.90372 125.24373 
L 199.724209 142.616842 
L 193.947064 156.486721 
L 191.369287 162.644211 
L 182.929032 182.671579 
L 180.990407 187.242916 
L 174.402129 202.698947 
L 168.033751 217.523604 
L 165.787238 222.726316 
L 157.08299 242.753684 
L 155.077095 247.339729 
L 148.287987 262.781053 
L 142.120438 276.701899 
L 139.400802 282.808421 
L 130.419978 302.835789 
L 129.163782 305.620404 
L 121.344028 322.863158 
L 116.207126 334.105224 
L 112.171433 342.890526 
L 103.250469 362.166042 
L 102.900639 362.917895 
L 93.530063 382.945263 
L 90.293813 389.812255 
L 84.058083 402.972632 
L 77.337157 417.052985 
L 74.483046 423 
z
" style="fill:#2e6e8e;fill-opacity:0.75;"/>
   </g>
   <g id="PathCollection_6">
    <path clip-path="url(#p617ceca18a)" d="M 155.077095 423 
L 168.033751 423 
L 180.990407 423 
L 193.947064 423 
L 206.90372 423 
L 214.590121 423 
L 219.860376 411.054966 
L 223.40708 402.972632 
L 232.129141 382.945263 
L 232.817033 381.356519 
L 240.757827 362.917895 
L 245.773689 351.176587 
L 249.29463 342.890526 
L 257.74101 322.863158 
L 258.730345 320.503364 
L 266.098396 302.835789 
L 271.687002 289.324658 
L 274.368186 282.808421 
L 282.551752 262.781053 
L 284.643658 257.627868 
L 284.643658 242.753684 
L 284.643658 222.726316 
L 284.643658 202.698947 
L 284.643658 182.671579 
L 284.643658 162.644211 
L 284.643658 142.616842 
L 284.643658 122.589474 
L 284.643658 102.562105 
L 284.643658 92.255736 
L 280.62735 102.562105 
L 272.763393 122.589474 
L 271.687002 125.315164 
L 264.819929 142.616842 
L 258.730345 157.834236 
L 256.795746 162.644211 
L 248.689608 182.671579 
L 245.773689 189.826093 
L 240.500253 202.698947 
L 232.817033 221.303453 
L 232.226393 222.726316 
L 223.866712 242.753684 
L 219.860376 252.27863 
L 215.419869 262.781053 
L 206.90372 282.763544 
L 206.884494 282.808421 
L 198.259187 302.835789 
L 193.947064 312.769745 
L 189.542519 322.863158 
L 180.990407 342.30842 
L 180.733031 342.890526 
L 171.829233 362.917895 
L 168.033751 371.390412 
L 162.829602 382.945263 
L 155.077095 400.026231 
L 153.732581 402.972632 
L 144.536583 423 
z
" style="fill:#3f4788;fill-opacity:0.75;"/>
   </g>
   <g id="PathCollection_7">
    <path clip-path="url(#p617ceca18a)" d="M 219.860376 423 
L 232.817033 423 
L 245.773689 423 
L 258.730345 423 
L 271.687002 423 
L 284.643658 423 
L 284.643658 402.972632 
L 284.643658 382.945263 
L 284.643658 362.917895 
L 284.643658 342.890526 
L 284.643658 322.863158 
L 284.643658 302.835789 
L 284.643658 282.808421 
L 284.643658 262.781053 
L 284.643658 257.627868 
L 282.551752 262.781053 
L 274.368186 282.808421 
L 271.687002 289.324658 
L 266.098396 302.835789 
L 258.730345 320.503364 
L 257.74101 322.863158 
L 249.29463 342.890526 
L 245.773689 351.176587 
L 240.757827 362.917895 
L 232.817033 381.356519 
L 232.129141 382.945263 
L 223.40708 402.972632 
L 219.860376 411.054966 
L 214.590121 423 
z
" style="fill:#481b6d;fill-opacity:0.75;"/>
   </g>
   <g id="LineCollection_1"/>
   <g id="LineCollection_2">
    <path clip-path="url(#p617ceca18a)" d="M 49.790166 42.48 
L 40.89932 62.507368 
L 38.467188 67.951594 
" style="fill:none;stroke:#000000;stroke-width:0.5;"/>
   </g>
   <g id="LineCollection_3">
    <path clip-path="url(#p617ceca18a)" d="M 113.28111 42.48 
L 104.704858 62.507368 
L 103.250469 65.884107 
L 96.043194 82.534737 
L 90.293813 95.719135 
L 87.294834 102.562105 
L 87.272708 102.612254 
" style="fill:none;stroke:#000000;stroke-width:0.5;"/>
    <path clip-path="url(#p617ceca18a)" d="M 67.304234 147.577648 
L 64.3805 154.08599 
L 60.516369 162.644211 
L 51.423844 182.636654 
L 51.407879 182.671579 
L 42.205882 202.698947 
L 38.467188 210.777583 
" style="fill:none;stroke:#000000;stroke-width:0.5;"/>
   </g>
   <g id="LineCollection_4">
    <path clip-path="url(#p617ceca18a)" d="M 176.772054 42.48 
L 168.510396 62.507368 
L 168.033751 63.656797 
L 160.166459 82.534737 
L 155.077095 94.653228 
L 151.739006 102.562105 
L 143.226778 122.589474 
L 142.120438 125.177734 
L 134.628489 142.616842 
L 129.163782 155.241011 
L 125.942828 162.644211 
L 118.251364 180.199858 
" style="fill:none;stroke:#000000;stroke-width:0.5;"/>
    <path clip-path="url(#p617ceca18a)" d="M 98.252286 225.151599 
L 90.299268 242.753684 
L 90.293813 242.765695 
L 81.156104 262.781053 
L 77.337157 271.084781 
L 71.91711 282.808421 
L 64.3805 298.991539 
L 62.58077 302.835789 
L 53.145538 322.863158 
L 51.423844 326.494908 
L 43.609834 342.890526 
L 38.467188 353.603573 
" style="fill:none;stroke:#000000;stroke-width:0.5;"/>
   </g>
   <g id="LineCollection_5">
    <path clip-path="url(#p617ceca18a)" d="M 240.262998 42.48 
L 232.817033 61.250388 
L 232.315934 62.507368 
L 224.289724 82.534737 
L 219.860376 93.502293 
L 216.183178 102.562105 
L 207.995085 122.589474 
L 206.90372 125.24373 
L 199.724209 142.616842 
L 193.947064 156.486721 
L 191.369287 162.644211 
L 182.929032 182.671579 
L 180.990407 187.242916 
L 174.402129 202.698947 
L 168.033751 217.523604 
L 166.882501 220.189792 
" style="fill:none;stroke:#000000;stroke-width:0.5;"/>
    <path clip-path="url(#p617ceca18a)" d="M 147.183546 265.273898 
L 142.120438 276.701899 
L 139.400802 282.808421 
L 130.419978 302.835789 
L 129.163782 305.620404 
L 121.344028 322.863158 
L 116.207126 334.105224 
L 112.171433 342.890526 
L 103.250469 362.166042 
L 102.900639 362.917895 
L 93.530063 382.945263 
L 90.293813 389.812255 
L 84.058083 402.972632 
L 77.337157 417.052985 
L 74.483046 423 
" style="fill:none;stroke:#000000;stroke-width:0.5;"/>
   </g>
   <g id="LineCollection_6">
    <path clip-path="url(#p617ceca18a)" d="M 284.643658 92.255736 
L 280.62735 102.562105 
L 272.763393 122.589474 
L 271.687002 125.315164 
L 264.819929 142.616842 
L 258.730345 157.834236 
L 256.795746 162.644211 
L 248.689608 182.671579 
L 245.773689 189.826093 
L 240.500253 202.698947 
L 232.817033 221.303453 
L 232.226393 222.726316 
L 224.970007 240.110509 
" style="fill:none;stroke:#000000;stroke-width:0.5;"/>
    <path clip-path="url(#p617ceca18a)" d="M 205.765221 285.407296 
L 198.259187 302.835789 
L 193.947064 312.769745 
L 189.542519 322.863158 
L 180.990407 342.30842 
L 180.733031 342.890526 
L 171.829233 362.917895 
L 168.033751 371.390412 
L 162.829602 382.945263 
L 155.077095 400.026231 
L 153.732581 402.972632 
L 144.536583 423 
" style="fill:none;stroke:#000000;stroke-width:0.5;"/>
   </g>
   <g id="LineCollection_7">
    <path clip-path="url(#p617ceca18a)" d="M 284.643658 257.627868 
L 282.551752 262.781053 
L 274.368186 282.808421 
L 271.687002 289.324658 
L 266.098396 302.835789 
L 258.847972 320.221312 
" style="fill:none;stroke:#000000;stroke-width:0.5;"/>
    <path clip-path="url(#p617ceca18a)" d="M 239.638812 365.516261 
L 232.817033 381.356519 
L 232.129141 382.945263 
L 223.40708 402.972632 
L 219.860376 411.054966 
L 214.590121 423 
" style="fill:none;stroke:#000000;stroke-width:0.5;"/>
   </g>
   <g id="LineCollection_8"/>
   <g id="LineCollection_9">
    <path clip-path="url(#p617ceca18a)" d="M 62.376643 423 
L 62.376643 403.974 
" style="fill:none;stroke:#000000;stroke-width:1.5;"/>
    <path clip-path="url(#p617ceca18a)" d="M 87.689601 423 
L 87.689601 403.974 
" style="fill:none;stroke:#000000;stroke-width:1.5;"/>
    <path clip-path="url(#p617ceca18a)" d="M 113.201825 423 
L 113.201825 403.974 
" style="fill:none;stroke:#000000;stroke-width:1.5;"/>
    <path clip-path="url(#p617ceca18a)" d="M 138.000114 423 
L 138.000114 403.974 
" style="fill:none;stroke:#000000;stroke-width:1.5;"/>
    <path clip-path="url(#p617ceca18a)" d="M 168.55684 423 
L 168.55684 403.974 
" style="fill:none;stroke:#000000;stroke-width:1.5;"/>
    <path clip-path="url(#p617ceca18a)" d="M 195.041296 423 
L 195.041296 403.974 
" style="fill:none;stroke:#000000;stroke-width:1.5;"/>
    <path clip-path="url(#p617ceca18a)" d="M 224.763816 423 
L 224.763816 403.974 
" style="fill:none;stroke:#000000;stroke-width:1.5;"/>
    <path clip-path="url(#p617ceca18a)" d="M 249.155523 423 
L 249.155523 403.974 
" style="fill:none;stroke:#000000;stroke-width:1.5;"/>
    <path clip-path="url(#p617ceca18a)" d="M 270.782746 423 
L 270.782746 403.974 
" style="fill:none;stroke:#000000;stroke-width:1.5;"/>
   </g>
   <g id="LineCollection_10">
    <path clip-path="url(#p617ceca18a)" style="fill:none;stroke:#000000;stroke-width:1.5;"/>
    <path clip-path="url(#p617ceca18a)" style="fill:none;stroke:#000000;stroke-width:1.5;"/>
    <path clip-path="url(#p617ceca18a)" style="fill:none;stroke:#000000;stroke-width:1.5;"/>
    <path clip-path="url(#p617ceca18a)" style="fill:none;stroke:#000000;stroke-width:1.5;"/>
    <path clip-path="url(#p617ceca18a)" style="fill:none;stroke:#000000;stroke-width:1.5;"/>
    <path clip-path="url(#p617ceca18a)" style="fill:none;stroke:#000000;stroke-width:1.5;"/>
    <path clip-path="url(#p617ceca18a)" style="fill:none;stroke:#000000;stroke-width:1.5;"/>
    <path clip-path="url(#p617ceca18a)" style="fill:none;stroke:#000000;stroke-width:1.5;"/>
    <path clip-path="url(#p617ceca18a)" style="fill:none;stroke:#000000;stroke-width:1.5;"/>
   </g>
   <g id="patch_3">
    <path d="M 38.467188 423 
L 38.467188 42.48 
" style="fill:none;stroke:#ffffff;stroke-linecap:square;stroke-linejoin:miter;stroke-width:0.8;"/>
   </g>
   <g id="patch_4">
    <path d="M 284.643658 423 
L 284.643658 42.48 
" style="fill:none;stroke:#ffffff;stroke-linecap:square;stroke-linejoin:miter;stroke-width:0.8;"/>
   </g>
   <g id="patch_5">
    <path d="M 38.467188 423 
L 284.643658 423 
" style="fill:none;stroke:#ffffff;stroke-linecap:square;stroke-linejoin:miter;stroke-width:0.8;"/>
   </g>
   <g id="patch_6">
    <path d="M 38.467188 42.48 
L 284.643658 42.48 
" style="fill:none;stroke:#ffffff;stroke-linecap:square;stroke-linejoin:miter;stroke-width:0.8;"/>
   </g>
   <g id="text_12">
    <g clip-path="url(#p617ceca18a)">
     <!-- 4027.98 -->
     <g transform="translate(72.367927 142.683093)rotate(-66.063961)scale(0.1 -0.1)">
      <defs>
       <path d="M 32.328125 0 
L 32.328125 17.140625 
L 1.265625 17.140625 
L 1.265625 25.203125 
L 33.9375 71.578125 
L 41.109375 71.578125 
L 41.109375 25.203125 
L 50.78125 25.203125 
L 50.78125 17.140625 
L 41.109375 17.140625 
L 41.109375 0 
z
M 32.328125 25.203125 
L 32.328125 57.46875 
L 9.90625 25.203125 
z
" id="ArialMT-52"/>
       <path d="M 9.078125 0 
L 9.078125 10.015625 
L 19.09375 10.015625 
L 19.09375 0 
z
" id="ArialMT-46"/>
       <path d="M 5.46875 16.546875 
L 13.921875 17.328125 
Q 14.984375 11.375 18.015625 8.6875 
Q 21.046875 6 25.78125 6 
Q 29.828125 6 32.875 7.859375 
Q 35.9375 9.71875 37.890625 12.8125 
Q 39.84375 15.921875 41.15625 21.1875 
Q 42.484375 26.46875 42.484375 31.9375 
Q 42.484375 32.515625 42.4375 33.6875 
Q 39.796875 29.5 35.234375 26.875 
Q 30.671875 24.265625 25.34375 24.265625 
Q 16.453125 24.265625 10.296875 30.703125 
Q 4.15625 37.15625 4.15625 47.703125 
Q 4.15625 58.59375 10.578125 65.234375 
Q 17 71.875 26.65625 71.875 
Q 33.640625 71.875 39.421875 68.109375 
Q 45.21875 64.359375 48.21875 57.390625 
Q 51.21875 50.4375 51.21875 37.25 
Q 51.21875 23.53125 48.234375 15.40625 
Q 45.265625 7.28125 39.375 3.03125 
Q 33.5 -1.21875 25.59375 -1.21875 
Q 17.1875 -1.21875 11.859375 3.4375 
Q 6.546875 8.109375 5.46875 16.546875 
z
M 41.453125 48.140625 
Q 41.453125 55.71875 37.421875 60.15625 
Q 33.40625 64.59375 27.734375 64.59375 
Q 21.875 64.59375 17.53125 59.8125 
Q 13.1875 55.03125 13.1875 47.40625 
Q 13.1875 40.578125 17.3125 36.296875 
Q 21.4375 32.03125 27.484375 32.03125 
Q 33.59375 32.03125 37.515625 36.296875 
Q 41.453125 40.578125 41.453125 48.140625 
z
" id="ArialMT-57"/>
      </defs>
      <use xlink:href="#ArialMT-52"/>
      <use x="55.615234" xlink:href="#ArialMT-48"/>
      <use x="111.230469" xlink:href="#ArialMT-50"/>
      <use x="166.845703" xlink:href="#ArialMT-55"/>
      <use x="222.460938" xlink:href="#ArialMT-46"/>
      <use x="250.244141" xlink:href="#ArialMT-57"/>
      <use x="305.859375" xlink:href="#ArialMT-56"/>
     </g>
    </g>
   </g>
   <g id="text_13">
    <g clip-path="url(#p617ceca18a)">
     <!-- 4438.22 -->
     <g transform="translate(103.319799 220.261219)rotate(-66.015104)scale(0.1 -0.1)">
      <defs>
       <path d="M 4.203125 18.890625 
L 12.984375 20.0625 
Q 14.5 12.59375 18.140625 9.296875 
Q 21.78125 6 27 6 
Q 33.203125 6 37.46875 10.296875 
Q 41.75 14.59375 41.75 20.953125 
Q 41.75 27 37.796875 30.921875 
Q 33.84375 34.859375 27.734375 34.859375 
Q 25.25 34.859375 21.53125 33.890625 
L 22.515625 41.609375 
Q 23.390625 41.5 23.921875 41.5 
Q 29.546875 41.5 34.03125 44.421875 
Q 38.53125 47.359375 38.53125 53.46875 
Q 38.53125 58.296875 35.25 61.46875 
Q 31.984375 64.65625 26.8125 64.65625 
Q 21.6875 64.65625 18.265625 61.421875 
Q 14.84375 58.203125 13.875 51.765625 
L 5.078125 53.328125 
Q 6.6875 62.15625 12.390625 67.015625 
Q 18.109375 71.875 26.609375 71.875 
Q 32.46875 71.875 37.390625 69.359375 
Q 42.328125 66.84375 44.9375 62.5 
Q 47.5625 58.15625 47.5625 53.265625 
Q 47.5625 48.640625 45.0625 44.828125 
Q 42.578125 41.015625 37.703125 38.765625 
Q 44.046875 37.3125 47.5625 32.6875 
Q 51.078125 28.078125 51.078125 21.140625 
Q 51.078125 11.765625 44.234375 5.25 
Q 37.40625 -1.265625 26.953125 -1.265625 
Q 17.53125 -1.265625 11.296875 4.34375 
Q 5.078125 9.96875 4.203125 18.890625 
z
" id="ArialMT-51"/>
      </defs>
      <use xlink:href="#ArialMT-52"/>
      <use x="55.615234" xlink:href="#ArialMT-52"/>
      <use x="111.230469" xlink:href="#ArialMT-51"/>
      <use x="166.845703" xlink:href="#ArialMT-56"/>
      <use x="222.460938" xlink:href="#ArialMT-46"/>
      <use x="250.244141" xlink:href="#ArialMT-50"/>
      <use x="305.859375" xlink:href="#ArialMT-50"/>
     </g>
    </g>
   </g>
   <g id="text_14">
    <g clip-path="url(#p617ceca18a)">
     <!-- 4848.46 -->
     <g transform="translate(152.217147 260.349117)rotate(-66.400892)scale(0.1 -0.1)">
      <use xlink:href="#ArialMT-52"/>
      <use x="55.615234" xlink:href="#ArialMT-56"/>
      <use x="111.230469" xlink:href="#ArialMT-52"/>
      <use x="166.845703" xlink:href="#ArialMT-56"/>
      <use x="222.460938" xlink:href="#ArialMT-46"/>
      <use x="250.244141" xlink:href="#ArialMT-52"/>
      <use x="305.859375" xlink:href="#ArialMT-54"/>
     </g>
    </g>
   </g>
   <g id="text_15">
    <g clip-path="url(#p617ceca18a)">
     <!-- 5258.70 -->
     <g transform="translate(210.745506 280.42832)rotate(-67.023483)scale(0.1 -0.1)">
      <use xlink:href="#ArialMT-53"/>
      <use x="55.615234" xlink:href="#ArialMT-50"/>
      <use x="111.230469" xlink:href="#ArialMT-53"/>
      <use x="166.845703" xlink:href="#ArialMT-56"/>
      <use x="222.460938" xlink:href="#ArialMT-46"/>
      <use x="250.244141" xlink:href="#ArialMT-55"/>
      <use x="305.859375" xlink:href="#ArialMT-48"/>
     </g>
    </g>
   </g>
   <g id="text_16">
    <g clip-path="url(#p617ceca18a)">
     <!-- 5668.94 -->
     <g transform="translate(244.62043 360.537836)rotate(-67.024013)scale(0.1 -0.1)">
      <use xlink:href="#ArialMT-53"/>
      <use x="55.615234" xlink:href="#ArialMT-54"/>
      <use x="111.230469" xlink:href="#ArialMT-54"/>
      <use x="166.845703" xlink:href="#ArialMT-56"/>
      <use x="222.460938" xlink:href="#ArialMT-46"/>
      <use x="250.244141" xlink:href="#ArialMT-57"/>
      <use x="305.859375" xlink:href="#ArialMT-52"/>
     </g>
    </g>
   </g>
  </g>
  <g id="axes_3">
   <g id="patch_7">
    <path d="M 333.878952 423 
L 580.055423 423 
L 580.055423 42.48 
L 333.878952 42.48 
z
" style="fill:#e6e6e6;"/>
   </g>
   <g id="matplotlib.axis_3">
    <g id="xtick_6">
     <g id="line2d_10">
      <path clip-path="url(#pf0cafe877b)" d="M 368.139206 423 
L 368.139206 42.48 
" style="fill:none;stroke:#cccccc;stroke-linecap:round;stroke-width:0.8;"/>
     </g>
     <g id="text_17">
      <!-- 5 -->
      <g style="fill:#262626;" transform="translate(365.358738 437.157812)scale(0.1 -0.1)">
       <use xlink:href="#ArialMT-53"/>
      </g>
     </g>
    </g>
    <g id="xtick_7">
     <g id="line2d_11">
      <path clip-path="url(#pf0cafe877b)" d="M 413.267249 423 
L 413.267249 42.48 
" style="fill:none;stroke:#cccccc;stroke-linecap:round;stroke-width:0.8;"/>
     </g>
     <g id="text_18">
      <!-- 10 -->
      <g style="fill:#262626;" transform="translate(407.706311 437.157812)scale(0.1 -0.1)">
       <use xlink:href="#ArialMT-49"/>
       <use x="55.615234" xlink:href="#ArialMT-48"/>
      </g>
     </g>
    </g>
    <g id="xtick_8">
     <g id="line2d_12">
      <path clip-path="url(#pf0cafe877b)" d="M 458.395291 423 
L 458.395291 42.48 
" style="fill:none;stroke:#cccccc;stroke-linecap:round;stroke-width:0.8;"/>
     </g>
     <g id="text_19">
      <!-- 15 -->
      <g style="fill:#262626;" transform="translate(452.834354 437.157812)scale(0.1 -0.1)">
       <use xlink:href="#ArialMT-49"/>
       <use x="55.615234" xlink:href="#ArialMT-53"/>
      </g>
     </g>
    </g>
    <g id="xtick_9">
     <g id="line2d_13">
      <path clip-path="url(#pf0cafe877b)" d="M 503.523333 423 
L 503.523333 42.48 
" style="fill:none;stroke:#cccccc;stroke-linecap:round;stroke-width:0.8;"/>
     </g>
     <g id="text_20">
      <!-- 20 -->
      <g style="fill:#262626;" transform="translate(497.962396 437.157812)scale(0.1 -0.1)">
       <use xlink:href="#ArialMT-50"/>
       <use x="55.615234" xlink:href="#ArialMT-48"/>
      </g>
     </g>
    </g>
    <g id="xtick_10">
     <g id="line2d_14">
      <path clip-path="url(#pf0cafe877b)" d="M 548.651376 423 
L 548.651376 42.48 
" style="fill:none;stroke:#cccccc;stroke-linecap:round;stroke-width:0.8;"/>
     </g>
     <g id="text_21">
      <!-- 25 -->
      <g style="fill:#262626;" transform="translate(543.090438 437.157812)scale(0.1 -0.1)">
       <use xlink:href="#ArialMT-50"/>
       <use x="55.615234" xlink:href="#ArialMT-53"/>
      </g>
     </g>
    </g>
    <g id="text_22">
     <!-- temp -->
     <g style="fill:#262626;" transform="translate(445.852344 450.303125)scale(0.1 -0.1)">
      <use xlink:href="#ArialMT-116"/>
      <use x="27.783203" xlink:href="#ArialMT-101"/>
      <use x="83.398438" xlink:href="#ArialMT-109"/>
      <use x="166.699219" xlink:href="#ArialMT-112"/>
     </g>
    </g>
   </g>
   <g id="matplotlib.axis_4">
    <g id="ytick_5">
     <g id="line2d_15">
      <path clip-path="url(#pf0cafe877b)" d="M 333.878952 413.89426 
L 580.055423 413.89426 
" style="fill:none;stroke:#cccccc;stroke-linecap:round;stroke-width:0.8;"/>
     </g>
     <g id="text_23">
      <!-- 6 -->
      <g style="fill:#262626;" transform="translate(321.318015 417.473166)scale(0.1 -0.1)">
       <use xlink:href="#ArialMT-54"/>
      </g>
     </g>
    </g>
    <g id="ytick_6">
     <g id="line2d_16">
      <path clip-path="url(#pf0cafe877b)" d="M 333.878952 370.133288 
L 580.055423 370.133288 
" style="fill:none;stroke:#cccccc;stroke-linecap:round;stroke-width:0.8;"/>
     </g>
     <g id="text_24">
      <!-- 8 -->
      <g style="fill:#262626;" transform="translate(321.318015 373.712194)scale(0.1 -0.1)">
       <use xlink:href="#ArialMT-56"/>
      </g>
     </g>
    </g>
    <g id="ytick_7">
     <g id="line2d_17">
      <path clip-path="url(#pf0cafe877b)" d="M 333.878952 326.372316 
L 580.055423 326.372316 
" style="fill:none;stroke:#cccccc;stroke-linecap:round;stroke-width:0.8;"/>
     </g>
     <g id="text_25">
      <!-- 10 -->
      <g style="fill:#262626;" transform="translate(315.757077 329.951222)scale(0.1 -0.1)">
       <use xlink:href="#ArialMT-49"/>
       <use x="55.615234" xlink:href="#ArialMT-48"/>
      </g>
     </g>
    </g>
    <g id="ytick_8">
     <g id="line2d_18">
      <path clip-path="url(#pf0cafe877b)" d="M 333.878952 282.611344 
L 580.055423 282.611344 
" style="fill:none;stroke:#cccccc;stroke-linecap:round;stroke-width:0.8;"/>
     </g>
     <g id="text_26">
      <!-- 12 -->
      <g style="fill:#262626;" transform="translate(315.757077 286.19025)scale(0.1 -0.1)">
       <use xlink:href="#ArialMT-49"/>
       <use x="55.615234" xlink:href="#ArialMT-50"/>
      </g>
     </g>
    </g>
    <g id="ytick_9">
     <g id="line2d_19">
      <path clip-path="url(#pf0cafe877b)" d="M 333.878952 238.850372 
L 580.055423 238.850372 
" style="fill:none;stroke:#cccccc;stroke-linecap:round;stroke-width:0.8;"/>
     </g>
     <g id="text_27">
      <!-- 14 -->
      <g style="fill:#262626;" transform="translate(315.757077 242.429279)scale(0.1 -0.1)">
       <use xlink:href="#ArialMT-49"/>
       <use x="55.615234" xlink:href="#ArialMT-52"/>
      </g>
     </g>
    </g>
    <g id="ytick_10">
     <g id="line2d_20">
      <path clip-path="url(#pf0cafe877b)" d="M 333.878952 195.0894 
L 580.055423 195.0894 
" style="fill:none;stroke:#cccccc;stroke-linecap:round;stroke-width:0.8;"/>
     </g>
     <g id="text_28">
      <!-- 16 -->
      <g style="fill:#262626;" transform="translate(315.757077 198.668307)scale(0.1 -0.1)">
       <use xlink:href="#ArialMT-49"/>
       <use x="55.615234" xlink:href="#ArialMT-54"/>
      </g>
     </g>
    </g>
    <g id="ytick_11">
     <g id="line2d_21">
      <path clip-path="url(#pf0cafe877b)" d="M 333.878952 151.328428 
L 580.055423 151.328428 
" style="fill:none;stroke:#cccccc;stroke-linecap:round;stroke-width:0.8;"/>
     </g>
     <g id="text_29">
      <!-- 18 -->
      <g style="fill:#262626;" transform="translate(315.757077 154.907335)scale(0.1 -0.1)">
       <use xlink:href="#ArialMT-49"/>
       <use x="55.615234" xlink:href="#ArialMT-56"/>
      </g>
     </g>
    </g>
    <g id="ytick_12">
     <g id="line2d_22">
      <path clip-path="url(#pf0cafe877b)" d="M 333.878952 107.567456 
L 580.055423 107.567456 
" style="fill:none;stroke:#cccccc;stroke-linecap:round;stroke-width:0.8;"/>
     </g>
     <g id="text_30">
      <!-- 20 -->
      <g style="fill:#262626;" transform="translate(315.757077 111.146363)scale(0.1 -0.1)">
       <use xlink:href="#ArialMT-50"/>
       <use x="55.615234" xlink:href="#ArialMT-48"/>
      </g>
     </g>
    </g>
    <g id="ytick_13">
     <g id="line2d_23">
      <path clip-path="url(#pf0cafe877b)" d="M 333.878952 63.806484 
L 580.055423 63.806484 
" style="fill:none;stroke:#cccccc;stroke-linecap:round;stroke-width:0.8;"/>
     </g>
     <g id="text_31">
      <!-- 22 -->
      <g style="fill:#262626;" transform="translate(315.757077 67.385391)scale(0.1 -0.1)">
       <use xlink:href="#ArialMT-50"/>
       <use x="55.615234" xlink:href="#ArialMT-50"/>
      </g>
     </g>
    </g>
    <g id="text_32">
     <!-- windspeed -->
     <g style="fill:#262626;" transform="translate(309.769577 256.644687)rotate(-90)scale(0.1 -0.1)">
      <defs>
       <path d="M 16.15625 0 
L 0.296875 51.859375 
L 9.375 51.859375 
L 17.625 21.921875 
L 20.703125 10.796875 
Q 20.90625 11.625 23.390625 21.484375 
L 31.640625 51.859375 
L 40.671875 51.859375 
L 48.4375 21.78125 
L 51.03125 11.859375 
L 54 21.875 
L 62.890625 51.859375 
L 71.4375 51.859375 
L 55.21875 0 
L 46.09375 0 
L 37.84375 31.0625 
L 35.84375 39.890625 
L 25.34375 0 
z
" id="ArialMT-119"/>
       <path d="M 6.640625 61.46875 
L 6.640625 71.578125 
L 15.4375 71.578125 
L 15.4375 61.46875 
z
M 6.640625 0 
L 6.640625 51.859375 
L 15.4375 51.859375 
L 15.4375 0 
z
" id="ArialMT-105"/>
       <path d="M 6.59375 0 
L 6.59375 51.859375 
L 14.5 51.859375 
L 14.5 44.484375 
Q 20.21875 53.03125 31 53.03125 
Q 35.6875 53.03125 39.625 51.34375 
Q 43.5625 49.65625 45.515625 46.921875 
Q 47.46875 44.1875 48.25 40.4375 
Q 48.734375 37.984375 48.734375 31.890625 
L 48.734375 0 
L 39.9375 0 
L 39.9375 31.546875 
Q 39.9375 36.921875 38.90625 39.578125 
Q 37.890625 42.234375 35.28125 43.8125 
Q 32.671875 45.40625 29.15625 45.40625 
Q 23.53125 45.40625 19.453125 41.84375 
Q 15.375 38.28125 15.375 28.328125 
L 15.375 0 
z
" id="ArialMT-110"/>
       <path d="M 40.234375 0 
L 40.234375 6.546875 
Q 35.296875 -1.171875 25.734375 -1.171875 
Q 19.53125 -1.171875 14.328125 2.25 
Q 9.125 5.671875 6.265625 11.796875 
Q 3.421875 17.921875 3.421875 25.875 
Q 3.421875 33.640625 6 39.96875 
Q 8.59375 46.296875 13.765625 49.65625 
Q 18.953125 53.03125 25.34375 53.03125 
Q 30.03125 53.03125 33.6875 51.046875 
Q 37.359375 49.078125 39.65625 45.90625 
L 39.65625 71.578125 
L 48.390625 71.578125 
L 48.390625 0 
z
M 12.453125 25.875 
Q 12.453125 15.921875 16.640625 10.984375 
Q 20.84375 6.0625 26.5625 6.0625 
Q 32.328125 6.0625 36.34375 10.765625 
Q 40.375 15.484375 40.375 25.140625 
Q 40.375 35.796875 36.265625 40.765625 
Q 32.171875 45.75 26.171875 45.75 
Q 20.3125 45.75 16.375 40.96875 
Q 12.453125 36.1875 12.453125 25.875 
z
" id="ArialMT-100"/>
       <path d="M 3.078125 15.484375 
L 11.765625 16.84375 
Q 12.5 11.625 15.84375 8.84375 
Q 19.1875 6.0625 25.203125 6.0625 
Q 31.25 6.0625 34.171875 8.515625 
Q 37.109375 10.984375 37.109375 14.3125 
Q 37.109375 17.28125 34.515625 19 
Q 32.71875 20.171875 25.53125 21.96875 
Q 15.875 24.421875 12.140625 26.203125 
Q 8.40625 27.984375 6.46875 31.125 
Q 4.546875 34.28125 4.546875 38.09375 
Q 4.546875 41.546875 6.125 44.5 
Q 7.71875 47.46875 10.453125 49.421875 
Q 12.5 50.921875 16.03125 51.96875 
Q 19.578125 53.03125 23.640625 53.03125 
Q 29.734375 53.03125 34.34375 51.265625 
Q 38.96875 49.515625 41.15625 46.5 
Q 43.359375 43.5 44.1875 38.484375 
L 35.59375 37.3125 
Q 35.015625 41.3125 32.203125 43.546875 
Q 29.390625 45.796875 24.265625 45.796875 
Q 18.21875 45.796875 15.625 43.796875 
Q 13.03125 41.796875 13.03125 39.109375 
Q 13.03125 37.40625 14.109375 36.03125 
Q 15.1875 34.625 17.484375 33.6875 
Q 18.796875 33.203125 25.25 31.453125 
Q 34.578125 28.953125 38.25 27.359375 
Q 41.9375 25.78125 44.03125 22.75 
Q 46.140625 19.734375 46.140625 15.234375 
Q 46.140625 10.84375 43.578125 6.953125 
Q 41.015625 3.078125 36.171875 0.953125 
Q 31.34375 -1.171875 25.25 -1.171875 
Q 15.140625 -1.171875 9.84375 3.03125 
Q 4.546875 7.234375 3.078125 15.484375 
z
" id="ArialMT-115"/>
      </defs>
      <use xlink:href="#ArialMT-119"/>
      <use x="72.216797" xlink:href="#ArialMT-105"/>
      <use x="94.433594" xlink:href="#ArialMT-110"/>
      <use x="150.048828" xlink:href="#ArialMT-100"/>
      <use x="205.664062" xlink:href="#ArialMT-115"/>
      <use x="255.664062" xlink:href="#ArialMT-112"/>
      <use x="311.279297" xlink:href="#ArialMT-101"/>
      <use x="366.894531" xlink:href="#ArialMT-101"/>
      <use x="422.509766" xlink:href="#ArialMT-100"/>
     </g>
    </g>
   </g>
   <g id="PathCollection_8"/>
   <g id="PathCollection_9">
    <path clip-path="url(#pf0cafe877b)" d="M 338.686874 242.753684 
L 344.525387 222.726316 
L 346.835609 214.801755 
L 350.3639 202.698947 
L 356.202413 182.671579 
L 359.792265 170.357608 
L 362.040926 162.644211 
L 367.879439 142.616842 
L 372.748921 125.913461 
L 373.717952 122.589474 
L 379.556465 102.562105 
L 385.394978 82.534737 
L 385.705578 81.469314 
L 391.233491 62.507368 
L 397.072004 42.48 
L 385.705578 42.48 
L 372.748921 42.48 
L 359.792265 42.48 
L 346.835609 42.48 
L 333.878952 42.48 
L 333.878952 62.507368 
L 333.878952 82.534737 
L 333.878952 102.562105 
L 333.878952 122.589474 
L 333.878952 142.616842 
L 333.878952 162.644211 
L 333.878952 182.671579 
L 333.878952 202.698947 
L 333.878952 222.726316 
L 333.878952 242.753684 
L 333.878952 259.245902 
z
" style="fill:#73d056;fill-opacity:0.75;"/>
   </g>
   <g id="PathCollection_10">
    <path clip-path="url(#pf0cafe877b)" d="M 346.835609 423 
L 352.936967 423 
L 358.77548 402.972632 
L 359.792265 399.48484 
L 364.613993 382.945263 
L 370.452506 362.917895 
L 372.748921 355.040693 
L 376.291019 342.890526 
L 382.129532 322.863158 
L 385.705578 310.596546 
L 387.968045 302.835789 
L 393.806558 282.808421 
L 398.662234 266.152399 
L 399.645072 262.781053 
L 405.483585 242.753684 
L 411.322098 222.726316 
L 411.61889 221.708252 
L 417.160611 202.698947 
L 422.999124 182.671579 
L 424.575547 177.264105 
L 428.837637 162.644211 
L 434.67615 142.616842 
L 437.532203 132.819958 
L 440.514663 122.589474 
L 446.353176 102.562105 
L 450.488859 88.375811 
L 452.191689 82.534737 
L 458.030202 62.507368 
L 463.445516 43.931664 
L 463.868715 42.48 
L 463.445516 42.48 
L 450.488859 42.48 
L 437.532203 42.48 
L 424.575547 42.48 
L 411.61889 42.48 
L 398.662234 42.48 
L 397.072004 42.48 
L 391.233491 62.507368 
L 385.705578 81.469314 
L 385.394978 82.534737 
L 379.556465 102.562105 
L 373.717952 122.589474 
L 372.748921 125.913461 
L 367.879439 142.616842 
L 362.040926 162.644211 
L 359.792265 170.357608 
L 356.202413 182.671579 
L 350.3639 202.698947 
L 346.835609 214.801755 
L 344.525387 222.726316 
L 338.686874 242.753684 
L 333.878952 259.245902 
L 333.878952 262.781053 
L 333.878952 282.808421 
L 333.878952 302.835789 
L 333.878952 322.863158 
L 333.878952 342.890526 
L 333.878952 362.917895 
L 333.878952 382.945263 
L 333.878952 402.972632 
L 333.878952 423 
z
" style="fill:#2db27d;fill-opacity:0.75;"/>
   </g>
   <g id="PathCollection_11">
    <path clip-path="url(#pf0cafe877b)" d="M 359.792265 423 
L 372.748921 423 
L 385.705578 423 
L 398.662234 423 
L 411.61889 423 
L 419.733678 423 
L 424.575547 406.391337 
L 425.572191 402.972632 
L 431.410704 382.945263 
L 437.249217 362.917895 
L 437.532203 361.94719 
L 443.08773 342.890526 
L 448.926243 322.863158 
L 450.488859 317.503043 
L 454.764756 302.835789 
L 460.603269 282.808421 
L 463.445516 273.058896 
L 466.441782 262.781053 
L 472.280295 242.753684 
L 476.402172 228.614749 
L 478.118808 222.726316 
L 483.957321 202.698947 
L 489.358828 184.170602 
L 489.795834 182.671579 
L 495.634347 162.644211 
L 501.47286 142.616842 
L 502.315485 139.726455 
L 507.311373 122.589474 
L 513.149886 102.562105 
L 515.272141 95.282308 
L 518.988399 82.534737 
L 524.826912 62.507368 
L 528.228797 50.838161 
L 530.665425 42.48 
L 528.228797 42.48 
L 515.272141 42.48 
L 502.315485 42.48 
L 489.358828 42.48 
L 476.402172 42.48 
L 463.868715 42.48 
L 463.445516 43.931664 
L 458.030202 62.507368 
L 452.191689 82.534737 
L 450.488859 88.375811 
L 446.353176 102.562105 
L 440.514663 122.589474 
L 437.532203 132.819958 
L 434.67615 142.616842 
L 428.837637 162.644211 
L 424.575547 177.264105 
L 422.999124 182.671579 
L 417.160611 202.698947 
L 411.61889 221.708252 
L 411.322098 222.726316 
L 405.483585 242.753684 
L 399.645072 262.781053 
L 398.662234 266.152399 
L 393.806558 282.808421 
L 387.968045 302.835789 
L 385.705578 310.596546 
L 382.129532 322.863158 
L 376.291019 342.890526 
L 372.748921 355.040693 
L 370.452506 362.917895 
L 364.613993 382.945263 
L 359.792265 399.48484 
L 358.77548 402.972632 
L 352.936967 423 
z
" style="fill:#21908d;fill-opacity:0.75;"/>
   </g>
   <g id="PathCollection_12">
    <path clip-path="url(#pf0cafe877b)" d="M 424.575547 423 
L 437.532203 423 
L 450.488859 423 
L 463.445516 423 
L 476.402172 423 
L 486.530388 423 
L 489.358828 413.297834 
L 492.368901 402.972632 
L 498.207414 382.945263 
L 502.315485 368.853687 
L 504.045927 362.917895 
L 509.88444 342.890526 
L 515.272141 324.40954 
L 515.722953 322.863158 
L 521.561466 302.835789 
L 527.399979 282.808421 
L 528.228797 279.965393 
L 533.238492 262.781053 
L 539.077005 242.753684 
L 541.185454 235.521247 
L 544.915518 222.726316 
L 550.754031 202.698947 
L 554.14211 191.0771 
L 556.592544 182.671579 
L 562.431057 162.644211 
L 567.098766 146.632953 
L 568.26957 142.616842 
L 574.108083 122.589474 
L 579.946596 102.562105 
L 580.055423 102.188806 
L 580.055423 82.534737 
L 580.055423 62.507368 
L 580.055423 42.48 
L 567.098766 42.48 
L 554.14211 42.48 
L 541.185454 42.48 
L 530.665425 42.48 
L 528.228797 50.838161 
L 524.826912 62.507368 
L 518.988399 82.534737 
L 515.272141 95.282308 
L 513.149886 102.562105 
L 507.311373 122.589474 
L 502.315485 139.726455 
L 501.47286 142.616842 
L 495.634347 162.644211 
L 489.795834 182.671579 
L 489.358828 184.170602 
L 483.957321 202.698947 
L 478.118808 222.726316 
L 476.402172 228.614749 
L 472.280295 242.753684 
L 466.441782 262.781053 
L 463.445516 273.058896 
L 460.603269 282.808421 
L 454.764756 302.835789 
L 450.488859 317.503043 
L 448.926243 322.863158 
L 443.08773 342.890526 
L 437.532203 361.94719 
L 437.249217 362.917895 
L 431.410704 382.945263 
L 425.572191 402.972632 
L 424.575547 406.391337 
L 419.733678 423 
z
" style="fill:#2e6e8e;fill-opacity:0.75;"/>
   </g>
   <g id="PathCollection_13">
    <path clip-path="url(#pf0cafe877b)" d="M 489.358828 423 
L 502.315485 423 
L 515.272141 423 
L 528.228797 423 
L 541.185454 423 
L 553.327098 423 
L 554.14211 420.204332 
L 559.165611 402.972632 
L 565.004124 382.945263 
L 567.098766 375.760185 
L 570.842637 362.917895 
L 576.68115 342.890526 
L 580.055423 331.316038 
L 580.055423 322.863158 
L 580.055423 302.835789 
L 580.055423 282.808421 
L 580.055423 262.781053 
L 580.055423 242.753684 
L 580.055423 222.726316 
L 580.055423 202.698947 
L 580.055423 182.671579 
L 580.055423 162.644211 
L 580.055423 142.616842 
L 580.055423 122.589474 
L 580.055423 102.562105 
L 580.055423 102.188806 
L 579.946596 102.562105 
L 574.108083 122.589474 
L 568.26957 142.616842 
L 567.098766 146.632953 
L 562.431057 162.644211 
L 556.592544 182.671579 
L 554.14211 191.0771 
L 550.754031 202.698947 
L 544.915518 222.726316 
L 541.185454 235.521247 
L 539.077005 242.753684 
L 533.238492 262.781053 
L 528.228797 279.965393 
L 527.399979 282.808421 
L 521.561466 302.835789 
L 515.722953 322.863158 
L 515.272141 324.40954 
L 509.88444 342.890526 
L 504.045927 362.917895 
L 502.315485 368.853687 
L 498.207414 382.945263 
L 492.368901 402.972632 
L 489.358828 413.297834 
L 486.530388 423 
z
" style="fill:#3f4788;fill-opacity:0.75;"/>
   </g>
   <g id="PathCollection_14">
    <path clip-path="url(#pf0cafe877b)" d="M 554.14211 423 
L 567.098766 423 
L 580.055423 423 
L 580.055423 402.972632 
L 580.055423 382.945263 
L 580.055423 362.917895 
L 580.055423 342.890526 
L 580.055423 331.316038 
L 576.68115 342.890526 
L 570.842637 362.917895 
L 567.098766 375.760185 
L 565.004124 382.945263 
L 559.165611 402.972632 
L 554.14211 420.204332 
L 553.327098 423 
z
" style="fill:#481b6d;fill-opacity:0.75;"/>
   </g>
   <g id="LineCollection_11"/>
   <g id="LineCollection_12"/>
   <g id="LineCollection_13">
    <path clip-path="url(#pf0cafe877b)" d="M 397.072004 42.48 
L 391.233491 62.507368 
L 385.705578 81.469314 
L 385.394978 82.534737 
L 379.556465 102.562105 
L 373.717952 122.589474 
L 372.748921 125.913461 
L 368.92588 139.027322 
" style="fill:none;stroke:#000000;stroke-width:0.5;"/>
    <path clip-path="url(#pf0cafe877b)" d="M 355.155972 186.261099 
L 350.3639 202.698947 
L 346.835609 214.801755 
L 344.525387 222.726316 
L 338.686874 242.753684 
L 333.878952 259.245902 
" style="fill:none;stroke:#000000;stroke-width:0.5;"/>
   </g>
   <g id="LineCollection_14">
    <path clip-path="url(#pf0cafe877b)" d="M 463.868715 42.48 
L 463.445516 43.931664 
L 458.030202 62.507368 
L 452.191689 82.534737 
L 450.488859 88.375811 
L 446.353176 102.562105 
L 440.514663 122.589474 
L 437.532203 132.819958 
L 434.67615 142.616842 
L 428.837637 162.644211 
L 424.575547 177.264105 
L 422.999124 182.671579 
L 418.207051 199.109428 
" style="fill:none;stroke:#000000;stroke-width:0.5;"/>
    <path clip-path="url(#pf0cafe877b)" d="M 404.437144 246.343204 
L 399.645072 262.781053 
L 398.662234 266.152399 
L 393.806558 282.808421 
L 387.968045 302.835789 
L 385.705578 310.596546 
L 382.129532 322.863158 
L 376.291019 342.890526 
L 372.748921 355.040693 
L 370.452506 362.917895 
L 364.613993 382.945263 
L 359.792265 399.48484 
L 358.77548 402.972632 
L 352.936967 423 
" style="fill:none;stroke:#000000;stroke-width:0.5;"/>
   </g>
   <g id="LineCollection_15">
    <path clip-path="url(#pf0cafe877b)" d="M 530.665425 42.48 
L 528.228797 50.838161 
L 524.826912 62.507368 
L 518.988399 82.534737 
L 515.272141 95.282308 
L 513.149886 102.562105 
L 507.311373 122.589474 
L 502.315485 139.726455 
L 501.47286 142.616842 
L 495.634347 162.644211 
L 489.795834 182.671579 
L 489.358828 184.170602 
L 483.957321 202.698947 
L 483.287126 204.997861 
" style="fill:none;stroke:#000000;stroke-width:0.5;"/>
    <path clip-path="url(#pf0cafe877b)" d="M 469.517218 252.231638 
L 466.441782 262.781053 
L 463.445516 273.058896 
L 460.603269 282.808421 
L 454.764756 302.835789 
L 450.488859 317.503043 
L 448.926243 322.863158 
L 443.08773 342.890526 
L 437.532203 361.94719 
L 437.249217 362.917895 
L 431.410704 382.945263 
L 425.572191 402.972632 
L 424.575547 406.391337 
L 419.733678 423 
" style="fill:none;stroke:#000000;stroke-width:0.5;"/>
   </g>
   <g id="LineCollection_16">
    <path clip-path="url(#pf0cafe877b)" d="M 580.055423 102.188806 
L 579.946596 102.562105 
L 574.108083 122.589474 
L 568.26957 142.616842 
L 567.098766 146.632953 
L 562.431057 162.644211 
L 556.592544 182.671579 
L 554.14211 191.0771 
L 550.754031 202.698947 
L 544.915518 222.726316 
L 541.185454 235.521247 
L 540.123446 239.164164 
" style="fill:none;stroke:#000000;stroke-width:0.5;"/>
    <path clip-path="url(#pf0cafe877b)" d="M 526.353538 286.397941 
L 521.561466 302.835789 
L 515.722953 322.863158 
L 515.272141 324.40954 
L 509.88444 342.890526 
L 504.045927 362.917895 
L 502.315485 368.853687 
L 498.207414 382.945263 
L 492.368901 402.972632 
L 489.358828 413.297834 
L 486.530388 423 
" style="fill:none;stroke:#000000;stroke-width:0.5;"/>
   </g>
   <g id="LineCollection_17">
    <path clip-path="url(#pf0cafe877b)" d="M 580.055423 331.316038 
L 576.68115 342.890526 
L 571.889078 359.328375 
" style="fill:none;stroke:#000000;stroke-width:0.5;"/>
    <path clip-path="url(#pf0cafe877b)" d="M 558.11917 406.562151 
L 554.14211 420.204332 
L 553.327098 423 
" style="fill:none;stroke:#000000;stroke-width:0.5;"/>
   </g>
   <g id="LineCollection_18"/>
   <g id="LineCollection_19">
    <path clip-path="url(#pf0cafe877b)" d="M 357.788407 423 
L 357.788407 403.974 
" style="fill:none;stroke:#000000;stroke-width:1.5;"/>
    <path clip-path="url(#pf0cafe877b)" d="M 383.101366 423 
L 383.101366 403.974 
" style="fill:none;stroke:#000000;stroke-width:1.5;"/>
    <path clip-path="url(#pf0cafe877b)" d="M 408.61359 423 
L 408.61359 403.974 
" style="fill:none;stroke:#000000;stroke-width:1.5;"/>
    <path clip-path="url(#pf0cafe877b)" d="M 433.411879 423 
L 433.411879 403.974 
" style="fill:none;stroke:#000000;stroke-width:1.5;"/>
    <path clip-path="url(#pf0cafe877b)" d="M 463.968604 423 
L 463.968604 403.974 
" style="fill:none;stroke:#000000;stroke-width:1.5;"/>
    <path clip-path="url(#pf0cafe877b)" d="M 490.45306 423 
L 490.45306 403.974 
" style="fill:none;stroke:#000000;stroke-width:1.5;"/>
    <path clip-path="url(#pf0cafe877b)" d="M 520.175581 423 
L 520.175581 403.974 
" style="fill:none;stroke:#000000;stroke-width:1.5;"/>
    <path clip-path="url(#pf0cafe877b)" d="M 544.567288 423 
L 544.567288 403.974 
" style="fill:none;stroke:#000000;stroke-width:1.5;"/>
    <path clip-path="url(#pf0cafe877b)" d="M 566.194511 423 
L 566.194511 403.974 
" style="fill:none;stroke:#000000;stroke-width:1.5;"/>
   </g>
   <g id="LineCollection_20">
    <path clip-path="url(#pf0cafe877b)" style="fill:none;stroke:#000000;stroke-width:1.5;"/>
    <path clip-path="url(#pf0cafe877b)" style="fill:none;stroke:#000000;stroke-width:1.5;"/>
    <path clip-path="url(#pf0cafe877b)" style="fill:none;stroke:#000000;stroke-width:1.5;"/>
    <path clip-path="url(#pf0cafe877b)" style="fill:none;stroke:#000000;stroke-width:1.5;"/>
    <path clip-path="url(#pf0cafe877b)" style="fill:none;stroke:#000000;stroke-width:1.5;"/>
    <path clip-path="url(#pf0cafe877b)" style="fill:none;stroke:#000000;stroke-width:1.5;"/>
    <path clip-path="url(#pf0cafe877b)" style="fill:none;stroke:#000000;stroke-width:1.5;"/>
    <path clip-path="url(#pf0cafe877b)" style="fill:none;stroke:#000000;stroke-width:1.5;"/>
    <path clip-path="url(#pf0cafe877b)" style="fill:none;stroke:#000000;stroke-width:1.5;"/>
   </g>
   <g id="patch_8">
    <path d="M 333.878952 423 
L 333.878952 42.48 
" style="fill:none;stroke:#ffffff;stroke-linecap:square;stroke-linejoin:miter;stroke-width:0.8;"/>
   </g>
   <g id="patch_9">
    <path d="M 580.055423 423 
L 580.055423 42.48 
" style="fill:none;stroke:#ffffff;stroke-linecap:square;stroke-linejoin:miter;stroke-width:0.8;"/>
   </g>
   <g id="patch_10">
    <path d="M 333.878952 423 
L 580.055423 423 
" style="fill:none;stroke:#ffffff;stroke-linecap:square;stroke-linejoin:miter;stroke-width:0.8;"/>
   </g>
   <g id="patch_11">
    <path d="M 333.878952 42.48 
L 580.055423 42.48 
" style="fill:none;stroke:#ffffff;stroke-linecap:square;stroke-linejoin:miter;stroke-width:0.8;"/>
   </g>
   <g id="text_33">
    <g clip-path="url(#pf0cafe877b)">
     <!-- 4027.98 -->
     <g transform="translate(359.464882 180.717387)rotate(-73.747185)scale(0.1 -0.1)">
      <use xlink:href="#ArialMT-52"/>
      <use x="55.615234" xlink:href="#ArialMT-48"/>
      <use x="111.230469" xlink:href="#ArialMT-50"/>
      <use x="166.845703" xlink:href="#ArialMT-55"/>
      <use x="222.460938" xlink:href="#ArialMT-46"/>
      <use x="250.244141" xlink:href="#ArialMT-57"/>
      <use x="305.859375" xlink:href="#ArialMT-56"/>
     </g>
    </g>
   </g>
   <g id="text_34">
    <g clip-path="url(#pf0cafe877b)">
     <!-- 4438.22 -->
     <g transform="translate(408.746054 240.799492)rotate(-73.747185)scale(0.1 -0.1)">
      <use xlink:href="#ArialMT-52"/>
      <use x="55.615234" xlink:href="#ArialMT-52"/>
      <use x="111.230469" xlink:href="#ArialMT-51"/>
      <use x="166.845703" xlink:href="#ArialMT-56"/>
      <use x="222.460938" xlink:href="#ArialMT-46"/>
      <use x="250.244141" xlink:href="#ArialMT-50"/>
      <use x="305.859375" xlink:href="#ArialMT-50"/>
     </g>
    </g>
   </g>
   <g id="text_35">
    <g clip-path="url(#pf0cafe877b)">
     <!-- 4848.46 -->
     <g transform="translate(473.826128 246.687925)rotate(-73.747185)scale(0.1 -0.1)">
      <use xlink:href="#ArialMT-52"/>
      <use x="55.615234" xlink:href="#ArialMT-56"/>
      <use x="111.230469" xlink:href="#ArialMT-52"/>
      <use x="166.845703" xlink:href="#ArialMT-56"/>
      <use x="222.460938" xlink:href="#ArialMT-46"/>
      <use x="250.244141" xlink:href="#ArialMT-52"/>
      <use x="305.859375" xlink:href="#ArialMT-54"/>
     </g>
    </g>
   </g>
   <g id="text_36">
    <g clip-path="url(#pf0cafe877b)">
     <!-- 5258.70 -->
     <g transform="translate(530.662448 280.854229)rotate(-73.747185)scale(0.1 -0.1)">
      <use xlink:href="#ArialMT-53"/>
      <use x="55.615234" xlink:href="#ArialMT-50"/>
      <use x="111.230469" xlink:href="#ArialMT-53"/>
      <use x="166.845703" xlink:href="#ArialMT-56"/>
      <use x="222.460938" xlink:href="#ArialMT-46"/>
      <use x="250.244141" xlink:href="#ArialMT-55"/>
      <use x="305.859375" xlink:href="#ArialMT-48"/>
     </g>
    </g>
   </g>
   <g id="text_37">
    <g clip-path="url(#pf0cafe877b)">
     <!-- 5668.94 -->
     <g transform="translate(562.42808 401.018439)rotate(-73.747185)scale(0.1 -0.1)">
      <use xlink:href="#ArialMT-53"/>
      <use x="55.615234" xlink:href="#ArialMT-54"/>
      <use x="111.230469" xlink:href="#ArialMT-54"/>
      <use x="166.845703" xlink:href="#ArialMT-56"/>
      <use x="222.460938" xlink:href="#ArialMT-46"/>
      <use x="250.244141" xlink:href="#ArialMT-57"/>
      <use x="305.859375" xlink:href="#ArialMT-52"/>
     </g>
    </g>
   </g>
  </g>
  <g id="axes_4">
   <g id="patch_12">
    <path d="M 629.290717 423 
L 875.467188 423 
L 875.467188 42.48 
L 629.290717 42.48 
z
" style="fill:#e6e6e6;"/>
   </g>
   <g id="matplotlib.axis_5">
    <g id="xtick_11">
     <g id="line2d_24">
      <path clip-path="url(#pd99c189cef)" d="M 681.184606 423 
L 681.184606 42.48 
" style="fill:none;stroke:#cccccc;stroke-linecap:round;stroke-width:0.8;"/>
     </g>
     <g id="text_38">
      <!-- 50 -->
      <g style="fill:#262626;" transform="translate(675.623668 437.157812)scale(0.1 -0.1)">
       <use xlink:href="#ArialMT-53"/>
       <use x="55.615234" xlink:href="#ArialMT-48"/>
      </g>
     </g>
    </g>
    <g id="xtick_12">
     <g id="line2d_25">
      <path clip-path="url(#pd99c189cef)" d="M 733.343529 423 
L 733.343529 42.48 
" style="fill:none;stroke:#cccccc;stroke-linecap:round;stroke-width:0.8;"/>
     </g>
     <g id="text_39">
      <!-- 60 -->
      <g style="fill:#262626;" transform="translate(727.782592 437.157812)scale(0.1 -0.1)">
       <use xlink:href="#ArialMT-54"/>
       <use x="55.615234" xlink:href="#ArialMT-48"/>
      </g>
     </g>
    </g>
    <g id="xtick_13">
     <g id="line2d_26">
      <path clip-path="url(#pd99c189cef)" d="M 785.502453 423 
L 785.502453 42.48 
" style="fill:none;stroke:#cccccc;stroke-linecap:round;stroke-width:0.8;"/>
     </g>
     <g id="text_40">
      <!-- 70 -->
      <g style="fill:#262626;" transform="translate(779.941516 437.157812)scale(0.1 -0.1)">
       <use xlink:href="#ArialMT-55"/>
       <use x="55.615234" xlink:href="#ArialMT-48"/>
      </g>
     </g>
    </g>
    <g id="xtick_14">
     <g id="line2d_27">
      <path clip-path="url(#pd99c189cef)" d="M 837.661377 423 
L 837.661377 42.48 
" style="fill:none;stroke:#cccccc;stroke-linecap:round;stroke-width:0.8;"/>
     </g>
     <g id="text_41">
      <!-- 80 -->
      <g style="fill:#262626;" transform="translate(832.10044 437.157812)scale(0.1 -0.1)">
       <use xlink:href="#ArialMT-56"/>
       <use x="55.615234" xlink:href="#ArialMT-48"/>
      </g>
     </g>
    </g>
    <g id="text_42">
     <!-- hum -->
     <g style="fill:#262626;" transform="translate(742.653171 450.303125)scale(0.1 -0.1)">
      <use xlink:href="#ArialMT-104"/>
      <use x="55.615234" xlink:href="#ArialMT-117"/>
      <use x="111.230469" xlink:href="#ArialMT-109"/>
     </g>
    </g>
   </g>
   <g id="matplotlib.axis_6">
    <g id="ytick_14">
     <g id="line2d_28">
      <path clip-path="url(#pd99c189cef)" d="M 629.290717 413.89426 
L 875.467188 413.89426 
" style="fill:none;stroke:#cccccc;stroke-linecap:round;stroke-width:0.8;"/>
     </g>
     <g id="text_43">
      <!-- 6 -->
      <g style="fill:#262626;" transform="translate(616.729779 417.473166)scale(0.1 -0.1)">
       <use xlink:href="#ArialMT-54"/>
      </g>
     </g>
    </g>
    <g id="ytick_15">
     <g id="line2d_29">
      <path clip-path="url(#pd99c189cef)" d="M 629.290717 370.133288 
L 875.467188 370.133288 
" style="fill:none;stroke:#cccccc;stroke-linecap:round;stroke-width:0.8;"/>
     </g>
     <g id="text_44">
      <!-- 8 -->
      <g style="fill:#262626;" transform="translate(616.729779 373.712194)scale(0.1 -0.1)">
       <use xlink:href="#ArialMT-56"/>
      </g>
     </g>
    </g>
    <g id="ytick_16">
     <g id="line2d_30">
      <path clip-path="url(#pd99c189cef)" d="M 629.290717 326.372316 
L 875.467188 326.372316 
" style="fill:none;stroke:#cccccc;stroke-linecap:round;stroke-width:0.8;"/>
     </g>
     <g id="text_45">
      <!-- 10 -->
      <g style="fill:#262626;" transform="translate(611.168842 329.951222)scale(0.1 -0.1)">
       <use xlink:href="#ArialMT-49"/>
       <use x="55.615234" xlink:href="#ArialMT-48"/>
      </g>
     </g>
    </g>
    <g id="ytick_17">
     <g id="line2d_31">
      <path clip-path="url(#pd99c189cef)" d="M 629.290717 282.611344 
L 875.467188 282.611344 
" style="fill:none;stroke:#cccccc;stroke-linecap:round;stroke-width:0.8;"/>
     </g>
     <g id="text_46">
      <!-- 12 -->
      <g style="fill:#262626;" transform="translate(611.168842 286.19025)scale(0.1 -0.1)">
       <use xlink:href="#ArialMT-49"/>
       <use x="55.615234" xlink:href="#ArialMT-50"/>
      </g>
     </g>
    </g>
    <g id="ytick_18">
     <g id="line2d_32">
      <path clip-path="url(#pd99c189cef)" d="M 629.290717 238.850372 
L 875.467188 238.850372 
" style="fill:none;stroke:#cccccc;stroke-linecap:round;stroke-width:0.8;"/>
     </g>
     <g id="text_47">
      <!-- 14 -->
      <g style="fill:#262626;" transform="translate(611.168842 242.429279)scale(0.1 -0.1)">
       <use xlink:href="#ArialMT-49"/>
       <use x="55.615234" xlink:href="#ArialMT-52"/>
      </g>
     </g>
    </g>
    <g id="ytick_19">
     <g id="line2d_33">
      <path clip-path="url(#pd99c189cef)" d="M 629.290717 195.0894 
L 875.467188 195.0894 
" style="fill:none;stroke:#cccccc;stroke-linecap:round;stroke-width:0.8;"/>
     </g>
     <g id="text_48">
      <!-- 16 -->
      <g style="fill:#262626;" transform="translate(611.168842 198.668307)scale(0.1 -0.1)">
       <use xlink:href="#ArialMT-49"/>
       <use x="55.615234" xlink:href="#ArialMT-54"/>
      </g>
     </g>
    </g>
    <g id="ytick_20">
     <g id="line2d_34">
      <path clip-path="url(#pd99c189cef)" d="M 629.290717 151.328428 
L 875.467188 151.328428 
" style="fill:none;stroke:#cccccc;stroke-linecap:round;stroke-width:0.8;"/>
     </g>
     <g id="text_49">
      <!-- 18 -->
      <g style="fill:#262626;" transform="translate(611.168842 154.907335)scale(0.1 -0.1)">
       <use xlink:href="#ArialMT-49"/>
       <use x="55.615234" xlink:href="#ArialMT-56"/>
      </g>
     </g>
    </g>
    <g id="ytick_21">
     <g id="line2d_35">
      <path clip-path="url(#pd99c189cef)" d="M 629.290717 107.567456 
L 875.467188 107.567456 
" style="fill:none;stroke:#cccccc;stroke-linecap:round;stroke-width:0.8;"/>
     </g>
     <g id="text_50">
      <!-- 20 -->
      <g style="fill:#262626;" transform="translate(611.168842 111.146363)scale(0.1 -0.1)">
       <use xlink:href="#ArialMT-50"/>
       <use x="55.615234" xlink:href="#ArialMT-48"/>
      </g>
     </g>
    </g>
    <g id="ytick_22">
     <g id="line2d_36">
      <path clip-path="url(#pd99c189cef)" d="M 629.290717 63.806484 
L 875.467188 63.806484 
" style="fill:none;stroke:#cccccc;stroke-linecap:round;stroke-width:0.8;"/>
     </g>
     <g id="text_51">
      <!-- 22 -->
      <g style="fill:#262626;" transform="translate(611.168842 67.385391)scale(0.1 -0.1)">
       <use xlink:href="#ArialMT-50"/>
       <use x="55.615234" xlink:href="#ArialMT-50"/>
      </g>
     </g>
    </g>
    <g id="text_52">
     <!-- windspeed -->
     <g style="fill:#262626;" transform="translate(605.181342 256.644687)rotate(-90)scale(0.1 -0.1)">
      <use xlink:href="#ArialMT-119"/>
      <use x="72.216797" xlink:href="#ArialMT-105"/>
      <use x="94.433594" xlink:href="#ArialMT-110"/>
      <use x="150.048828" xlink:href="#ArialMT-100"/>
      <use x="205.664062" xlink:href="#ArialMT-115"/>
      <use x="255.664062" xlink:href="#ArialMT-112"/>
      <use x="311.279297" xlink:href="#ArialMT-101"/>
      <use x="366.894531" xlink:href="#ArialMT-101"/>
      <use x="422.509766" xlink:href="#ArialMT-100"/>
     </g>
    </g>
   </g>
   <g id="PathCollection_15">
    <path clip-path="url(#pd99c189cef)" d="M 875.467188 222.871413 
L 875.467188 222.726316 
L 875.467188 202.698947 
L 875.467188 182.671579 
L 875.467188 162.644211 
L 875.467188 142.616842 
L 875.467188 122.589474 
L 875.467188 102.562105 
L 875.467188 82.534737 
L 875.467188 62.507368 
L 875.467188 42.48 
L 862.510531 42.48 
L 849.553875 42.48 
L 836.597218 42.48 
L 823.640562 42.48 
L 810.683906 42.48 
L 797.727249 42.48 
L 792.348597 42.48 
L 797.727249 55.853616 
L 800.444288 62.507368 
L 808.791953 82.534737 
L 810.683906 86.988805 
L 817.403541 102.562105 
L 823.640562 116.682231 
L 826.29177 122.589474 
L 835.470187 142.616842 
L 836.597218 145.031771 
L 844.953239 162.644211 
L 849.553875 172.126639 
L 854.75635 182.671579 
L 862.510531 198.048326 
L 864.896 202.698947 
L 875.389823 222.726316 
z
" style="fill:#d0e11c;fill-opacity:0.75;"/>
   </g>
   <g id="PathCollection_16">
    <path clip-path="url(#pd99c189cef)" d="M 875.467188 403.262826 
L 875.467188 402.972632 
L 875.467188 382.945263 
L 875.467188 362.917895 
L 875.467188 342.890526 
L 875.467188 322.863158 
L 875.467188 302.835789 
L 875.467188 282.808421 
L 875.467188 262.781053 
L 875.467188 242.753684 
L 875.467188 222.871413 
L 875.389823 222.726316 
L 864.896 202.698947 
L 862.510531 198.048326 
L 854.75635 182.671579 
L 849.553875 172.126639 
L 844.953239 162.644211 
L 836.597218 145.031771 
L 835.470187 142.616842 
L 826.29177 122.589474 
L 823.640562 116.682231 
L 817.403541 102.562105 
L 810.683906 86.988805 
L 808.791953 82.534737 
L 800.444288 62.507368 
L 797.727249 55.853616 
L 792.348597 42.48 
L 784.770593 42.48 
L 771.813937 42.48 
L 758.85728 42.48 
L 745.900624 42.48 
L 732.943968 42.48 
L 719.987311 42.48 
L 709.230006 42.48 
L 716.052012 62.507368 
L 719.987311 73.787662 
L 723.086348 82.534737 
L 730.343085 102.562105 
L 732.943968 109.589203 
L 737.832939 122.589474 
L 745.567326 142.616842 
L 745.900624 143.465432 
L 753.558421 162.644211 
L 758.85728 175.567591 
L 761.81922 182.671579 
L 770.36361 202.698947 
L 771.813937 206.031484 
L 779.206452 222.726316 
L 784.770593 234.979398 
L 788.363659 242.753684 
L 797.727249 262.521746 
L 797.852299 262.781053 
L 807.690696 282.808421 
L 810.683906 288.758472 
L 817.898554 302.835789 
L 823.640562 313.780265 
L 828.49708 322.863158 
L 836.597218 337.669605 
L 839.509141 342.890526 
L 849.553875 360.501669 
L 850.95942 362.917895 
L 862.510531 382.345127 
L 862.874606 382.945263 
L 875.283601 402.972632 
z
" style="fill:#73d056;fill-opacity:0.75;"/>
   </g>
   <g id="PathCollection_17">
    <path clip-path="url(#pd99c189cef)" d="M 771.813937 423 
L 784.770593 423 
L 797.727249 423 
L 810.683906 423 
L 823.640562 423 
L 836.597218 423 
L 849.553875 423 
L 862.510531 423 
L 875.467188 423 
L 875.467188 403.262826 
L 875.283601 402.972632 
L 862.874606 382.945263 
L 862.510531 382.345127 
L 850.95942 362.917895 
L 849.553875 360.501669 
L 839.509141 342.890526 
L 836.597218 337.669605 
L 828.49708 322.863158 
L 823.640562 313.780265 
L 817.898554 302.835789 
L 810.683906 288.758472 
L 807.690696 282.808421 
L 797.852299 262.781053 
L 797.727249 262.521746 
L 788.363659 242.753684 
L 784.770593 234.979398 
L 779.206452 222.726316 
L 771.813937 206.031484 
L 770.36361 202.698947 
L 761.81922 182.671579 
L 758.85728 175.567591 
L 753.558421 162.644211 
L 745.900624 143.465432 
L 745.567326 142.616842 
L 737.832939 122.589474 
L 732.943968 109.589203 
L 730.343085 102.562105 
L 723.086348 82.534737 
L 719.987311 73.787662 
L 716.052012 62.507368 
L 709.230006 42.48 
L 707.030655 42.48 
L 694.073999 42.48 
L 681.117342 42.48 
L 668.160686 42.48 
L 655.20403 42.48 
L 642.247373 42.48 
L 629.290717 42.48 
L 629.290717 54.030528 
L 631.659735 62.507368 
L 637.380743 82.534737 
L 642.247373 99.094289 
L 643.282629 102.562105 
L 649.374108 122.589474 
L 655.20403 141.172746 
L 655.664465 142.616842 
L 662.163603 162.644211 
L 668.160686 180.553036 
L 668.882089 182.671579 
L 675.83122 202.698947 
L 681.117342 217.486615 
L 683.023081 222.726316 
L 690.470614 242.753684 
L 694.073999 252.194636 
L 698.187701 262.781053 
L 706.189245 282.808421 
L 707.030655 284.872379 
L 714.491269 302.835789 
L 719.987311 315.692925 
L 723.111024 322.863158 
L 732.067105 342.890526 
L 732.943968 344.810227 
L 741.379588 362.917895 
L 745.900624 372.361679 
L 751.070179 382.945263 
L 758.85728 398.470283 
L 761.162383 402.972632 
L 771.681695 423 
z
" style="fill:#2db27d;fill-opacity:0.75;"/>
   </g>
   <g id="PathCollection_18">
    <path clip-path="url(#pd99c189cef)" d="M 655.20403 423 
L 668.160686 423 
L 681.117342 423 
L 694.073999 423 
L 707.030655 423 
L 719.987311 423 
L 732.943968 423 
L 745.900624 423 
L 758.85728 423 
L 771.681695 423 
L 761.162383 402.972632 
L 758.85728 398.470283 
L 751.070179 382.945263 
L 745.900624 372.361679 
L 741.379588 362.917895 
L 732.943968 344.810227 
L 732.067105 342.890526 
L 723.111024 322.863158 
L 719.987311 315.692925 
L 714.491269 302.835789 
L 707.030655 284.872379 
L 706.189245 282.808421 
L 698.187701 262.781053 
L 694.073999 252.194636 
L 690.470614 242.753684 
L 683.023081 222.726316 
L 681.117342 217.486615 
L 675.83122 202.698947 
L 668.882089 182.671579 
L 668.160686 180.553036 
L 662.163603 162.644211 
L 655.664465 142.616842 
L 655.20403 141.172746 
L 649.374108 122.589474 
L 643.282629 102.562105 
L 642.247373 99.094289 
L 637.380743 82.534737 
L 631.659735 62.507368 
L 629.290717 54.030528 
L 629.290717 62.507368 
L 629.290717 82.534737 
L 629.290717 102.562105 
L 629.290717 122.589474 
L 629.290717 142.616842 
L 629.290717 162.644211 
L 629.290717 182.671579 
L 629.290717 202.698947 
L 629.290717 222.726316 
L 629.290717 242.753684 
L 629.290717 262.781053 
L 629.290717 282.808421 
L 629.290717 302.835789 
L 629.290717 322.863158 
L 629.290717 342.890526 
L 629.290717 356.003646 
L 631.799755 362.917895 
L 639.265751 382.945263 
L 642.247373 390.722461 
L 647.041164 402.972632 
L 655.145637 423 
z
" style="fill:#21908d;fill-opacity:0.75;"/>
   </g>
   <g id="PathCollection_19">
    <path clip-path="url(#pd99c189cef)" d="M 642.247373 423 
L 655.145637 423 
L 647.041164 402.972632 
L 642.247373 390.722461 
L 639.265751 382.945263 
L 631.799755 362.917895 
L 629.290717 356.003646 
L 629.290717 362.917895 
L 629.290717 382.945263 
L 629.290717 402.972632 
L 629.290717 423 
z
" style="fill:#2e6e8e;fill-opacity:0.75;"/>
   </g>
   <g id="PathCollection_20"/>
   <g id="PathCollection_21"/>
   <g id="LineCollection_21">
    <path clip-path="url(#pd99c189cef)" d="M 875.467188 42.48 
" style="fill:none;stroke:#000000;stroke-width:0.5;"/>
   </g>
   <g id="LineCollection_22">
    <path clip-path="url(#pd99c189cef)" d="M 875.467188 222.871413 
L 875.389823 222.726316 
L 864.896 202.698947 
L 862.510531 198.048326 
L 854.75635 182.671579 
L 849.553875 172.126639 
L 846.018718 164.840282 
" style="fill:none;stroke:#000000;stroke-width:0.5;"/>
    <path clip-path="url(#pd99c189cef)" d="M 825.239627 120.24516 
L 823.640562 116.682231 
L 817.403541 102.562105 
L 810.683906 86.988805 
L 808.791953 82.534737 
L 800.444288 62.507368 
L 797.727249 55.853616 
L 792.348597 42.48 
" style="fill:none;stroke:#000000;stroke-width:0.5;"/>
   </g>
   <g id="LineCollection_23">
    <path clip-path="url(#pd99c189cef)" d="M 875.467188 403.262826 
L 875.283601 402.972632 
L 862.874606 382.945263 
L 862.510531 382.345127 
L 850.95942 362.917895 
L 849.553875 360.501669 
L 839.509141 342.890526 
L 836.597218 337.669605 
L 828.49708 322.863158 
L 823.640562 313.780265 
L 817.898554 302.835789 
L 810.683906 288.758472 
L 807.690696 282.808421 
L 797.852299 262.781053 
L 797.727249 262.521746 
L 795.228126 257.24569 
" style="fill:none;stroke:#000000;stroke-width:0.5;"/>
    <path clip-path="url(#pd99c189cef)" d="M 774.694927 212.537747 
L 771.813937 206.031484 
L 770.36361 202.698947 
L 761.81922 182.671579 
L 758.85728 175.567591 
L 753.558421 162.644211 
L 745.900624 143.465432 
L 745.567326 142.616842 
L 737.832939 122.589474 
L 732.943968 109.589203 
L 730.343085 102.562105 
L 723.086348 82.534737 
L 719.987311 73.787662 
L 716.052012 62.507368 
L 709.230006 42.48 
" style="fill:none;stroke:#000000;stroke-width:0.5;"/>
   </g>
   <g id="LineCollection_24">
    <path clip-path="url(#pd99c189cef)" d="M 771.681695 423 
L 761.162383 402.972632 
L 758.85728 398.470283 
L 751.070179 382.945263 
L 745.900624 372.361679 
L 741.379588 362.917895 
L 732.943968 344.810227 
L 732.067105 342.890526 
L 723.111024 322.863158 
L 719.987311 315.692925 
L 714.491269 302.835789 
L 707.030655 284.872379 
L 706.189245 282.808421 
L 699.351637 265.694313 
" style="fill:none;stroke:#000000;stroke-width:0.5;"/>
    <path clip-path="url(#pd99c189cef)" d="M 681.918125 219.688313 
L 681.117342 217.486615 
L 675.83122 202.698947 
L 668.882089 182.671579 
L 668.160686 180.553036 
L 662.163603 162.644211 
L 655.664465 142.616842 
L 655.20403 141.172746 
L 649.374108 122.589474 
L 643.282629 102.562105 
L 642.247373 99.094289 
L 637.380743 82.534737 
L 631.659735 62.507368 
L 629.290717 54.030528 
" style="fill:none;stroke:#000000;stroke-width:0.5;"/>
   </g>
   <g id="LineCollection_25">
    <path clip-path="url(#pd99c189cef)" d="M 655.145637 423 
L 648.210075 405.861187 
" style="fill:none;stroke:#000000;stroke-width:0.5;"/>
    <path clip-path="url(#pd99c189cef)" d="M 630.69923 359.885136 
L 629.290717 356.003646 
" style="fill:none;stroke:#000000;stroke-width:0.5;"/>
   </g>
   <g id="LineCollection_26"/>
   <g id="LineCollection_27"/>
   <g id="LineCollection_28"/>
   <g id="LineCollection_29">
    <path clip-path="url(#pd99c189cef)" d="M 648.449039 423 
L 648.449039 403.974 
" style="fill:none;stroke:#000000;stroke-width:1.5;"/>
    <path clip-path="url(#pd99c189cef)" d="M 676.455398 423 
L 676.455398 403.974 
" style="fill:none;stroke:#000000;stroke-width:1.5;"/>
    <path clip-path="url(#pd99c189cef)" d="M 699.222726 423 
L 699.222726 403.974 
" style="fill:none;stroke:#000000;stroke-width:1.5;"/>
    <path clip-path="url(#pd99c189cef)" d="M 722.711642 423 
L 722.711642 403.974 
" style="fill:none;stroke:#000000;stroke-width:1.5;"/>
    <path clip-path="url(#pd99c189cef)" d="M 744.885517 423 
L 744.885517 403.974 
" style="fill:none;stroke:#000000;stroke-width:1.5;"/>
    <path clip-path="url(#pd99c189cef)" d="M 769.802617 423 
L 769.802617 403.974 
" style="fill:none;stroke:#000000;stroke-width:1.5;"/>
    <path clip-path="url(#pd99c189cef)" d="M 789.270821 423 
L 789.270821 403.974 
" style="fill:none;stroke:#000000;stroke-width:1.5;"/>
    <path clip-path="url(#pd99c189cef)" d="M 813.537875 423 
L 813.537875 403.974 
" style="fill:none;stroke:#000000;stroke-width:1.5;"/>
    <path clip-path="url(#pd99c189cef)" d="M 849.292786 423 
L 849.292786 403.974 
" style="fill:none;stroke:#000000;stroke-width:1.5;"/>
   </g>
   <g id="LineCollection_30">
    <path clip-path="url(#pd99c189cef)" style="fill:none;stroke:#000000;stroke-width:1.5;"/>
    <path clip-path="url(#pd99c189cef)" style="fill:none;stroke:#000000;stroke-width:1.5;"/>
    <path clip-path="url(#pd99c189cef)" style="fill:none;stroke:#000000;stroke-width:1.5;"/>
    <path clip-path="url(#pd99c189cef)" style="fill:none;stroke:#000000;stroke-width:1.5;"/>
    <path clip-path="url(#pd99c189cef)" style="fill:none;stroke:#000000;stroke-width:1.5;"/>
    <path clip-path="url(#pd99c189cef)" style="fill:none;stroke:#000000;stroke-width:1.5;"/>
    <path clip-path="url(#pd99c189cef)" style="fill:none;stroke:#000000;stroke-width:1.5;"/>
    <path clip-path="url(#pd99c189cef)" style="fill:none;stroke:#000000;stroke-width:1.5;"/>
    <path clip-path="url(#pd99c189cef)" style="fill:none;stroke:#000000;stroke-width:1.5;"/>
   </g>
   <g id="patch_13">
    <path d="M 629.290717 423 
L 629.290717 42.48 
" style="fill:none;stroke:#ffffff;stroke-linecap:square;stroke-linejoin:miter;stroke-width:0.8;"/>
   </g>
   <g id="patch_14">
    <path d="M 875.467188 423 
L 875.467188 42.48 
" style="fill:none;stroke:#ffffff;stroke-linecap:square;stroke-linejoin:miter;stroke-width:0.8;"/>
   </g>
   <g id="patch_15">
    <path d="M 629.290717 423 
L 875.467188 423 
" style="fill:none;stroke:#ffffff;stroke-linecap:square;stroke-linejoin:miter;stroke-width:0.8;"/>
   </g>
   <g id="patch_16">
    <path d="M 629.290717 42.48 
L 875.467188 42.48 
" style="fill:none;stroke:#ffffff;stroke-linecap:square;stroke-linejoin:miter;stroke-width:0.8;"/>
   </g>
   <g id="text_53">
    <g clip-path="url(#pd99c189cef)">
     <!-- 3617.74 -->
     <g transform="translate(825.495465 127.326956)rotate(-294.978525)scale(0.1 -0.1)">
      <use xlink:href="#ArialMT-51"/>
      <use x="55.615234" xlink:href="#ArialMT-54"/>
      <use x="111.230469" xlink:href="#ArialMT-49"/>
      <use x="166.845703" xlink:href="#ArialMT-55"/>
      <use x="222.460938" xlink:href="#ArialMT-46"/>
      <use x="250.244141" xlink:href="#ArialMT-55"/>
      <use x="305.859375" xlink:href="#ArialMT-52"/>
     </g>
    </g>
   </g>
   <g id="text_54">
    <g clip-path="url(#pd99c189cef)">
     <!-- 4027.98 -->
     <g transform="translate(774.876411 219.637271)rotate(-294.677234)scale(0.1 -0.1)">
      <use xlink:href="#ArialMT-52"/>
      <use x="55.615234" xlink:href="#ArialMT-48"/>
      <use x="111.230469" xlink:href="#ArialMT-50"/>
      <use x="166.845703" xlink:href="#ArialMT-55"/>
      <use x="222.460938" xlink:href="#ArialMT-46"/>
      <use x="250.244141" xlink:href="#ArialMT-57"/>
      <use x="305.859375" xlink:href="#ArialMT-56"/>
     </g>
    </g>
   </g>
   <g id="text_55">
    <g clip-path="url(#pd99c189cef)">
     <!-- 4438.22 -->
     <g transform="translate(681.654905 226.767472)rotate(-290.733996)scale(0.1 -0.1)">
      <use xlink:href="#ArialMT-52"/>
      <use x="55.615234" xlink:href="#ArialMT-52"/>
      <use x="111.230469" xlink:href="#ArialMT-51"/>
      <use x="166.845703" xlink:href="#ArialMT-56"/>
      <use x="222.460938" xlink:href="#ArialMT-46"/>
      <use x="250.244141" xlink:href="#ArialMT-50"/>
      <use x="305.859375" xlink:href="#ArialMT-50"/>
     </g>
    </g>
   </g>
   <g id="text_56">
    <g clip-path="url(#pd99c189cef)">
     <!-- 4848.46 -->
     <g transform="translate(630.423328 366.973812)rotate(-290.829784)scale(0.1 -0.1)">
      <use xlink:href="#ArialMT-52"/>
      <use x="55.615234" xlink:href="#ArialMT-56"/>
      <use x="111.230469" xlink:href="#ArialMT-52"/>
      <use x="166.845703" xlink:href="#ArialMT-56"/>
      <use x="222.460938" xlink:href="#ArialMT-46"/>
      <use x="250.244141" xlink:href="#ArialMT-52"/>
      <use x="305.859375" xlink:href="#ArialMT-54"/>
     </g>
    </g>
   </g>
  </g>
  <g id="text_57">
   <!-- Pair ICE Plot - Linear Model -->
   <g style="fill:#262626;" transform="translate(369.106562 15.789375)scale(0.12 -0.12)">
    <defs>
     <path d="M 7.71875 0 
L 7.71875 71.578125 
L 34.71875 71.578125 
Q 41.84375 71.578125 45.609375 70.90625 
Q 50.875 70.015625 54.4375 67.546875 
Q 58.015625 65.09375 60.1875 60.640625 
Q 62.359375 56.203125 62.359375 50.875 
Q 62.359375 41.75 56.546875 35.421875 
Q 50.734375 29.109375 35.546875 29.109375 
L 17.1875 29.109375 
L 17.1875 0 
z
M 17.1875 37.546875 
L 35.6875 37.546875 
Q 44.875 37.546875 48.734375 40.96875 
Q 52.59375 44.390625 52.59375 50.59375 
Q 52.59375 55.078125 50.3125 58.265625 
Q 48.046875 61.46875 44.34375 62.5 
Q 41.9375 63.140625 35.5 63.140625 
L 17.1875 63.140625 
z
" id="ArialMT-80"/>
     <path d="M 40.4375 6.390625 
Q 35.546875 2.25 31.03125 0.53125 
Q 26.515625 -1.171875 21.34375 -1.171875 
Q 12.796875 -1.171875 8.203125 3 
Q 3.609375 7.171875 3.609375 13.671875 
Q 3.609375 17.484375 5.34375 20.625 
Q 7.078125 23.78125 9.890625 25.6875 
Q 12.703125 27.59375 16.21875 28.5625 
Q 18.796875 29.25 24.03125 29.890625 
Q 34.671875 31.15625 39.703125 32.90625 
Q 39.75 34.71875 39.75 35.203125 
Q 39.75 40.578125 37.25 42.78125 
Q 33.890625 45.75 27.25 45.75 
Q 21.046875 45.75 18.09375 43.578125 
Q 15.140625 41.40625 13.71875 35.890625 
L 5.125 37.0625 
Q 6.296875 42.578125 8.984375 45.96875 
Q 11.671875 49.359375 16.75 51.1875 
Q 21.828125 53.03125 28.515625 53.03125 
Q 35.15625 53.03125 39.296875 51.46875 
Q 43.453125 49.90625 45.40625 47.53125 
Q 47.359375 45.171875 48.140625 41.546875 
Q 48.578125 39.3125 48.578125 33.453125 
L 48.578125 21.734375 
Q 48.578125 9.46875 49.140625 6.21875 
Q 49.703125 2.984375 51.375 0 
L 42.1875 0 
Q 40.828125 2.734375 40.4375 6.390625 
z
M 39.703125 26.03125 
Q 34.90625 24.078125 25.34375 22.703125 
Q 19.921875 21.921875 17.671875 20.9375 
Q 15.4375 19.96875 14.203125 18.09375 
Q 12.984375 16.21875 12.984375 13.921875 
Q 12.984375 10.40625 15.640625 8.0625 
Q 18.3125 5.71875 23.4375 5.71875 
Q 28.515625 5.71875 32.46875 7.9375 
Q 36.421875 10.15625 38.28125 14.015625 
Q 39.703125 17 39.703125 22.796875 
z
" id="ArialMT-97"/>
     <path d="M 6.5 0 
L 6.5 51.859375 
L 14.40625 51.859375 
L 14.40625 44 
Q 17.4375 49.515625 20 51.265625 
Q 22.5625 53.03125 25.640625 53.03125 
Q 30.078125 53.03125 34.671875 50.203125 
L 31.640625 42.046875 
Q 28.421875 43.953125 25.203125 43.953125 
Q 22.3125 43.953125 20.015625 42.21875 
Q 17.71875 40.484375 16.75 37.40625 
Q 15.28125 32.71875 15.28125 27.15625 
L 15.28125 0 
z
" id="ArialMT-114"/>
     <path id="ArialMT-32"/>
     <path d="M 9.328125 0 
L 9.328125 71.578125 
L 18.796875 71.578125 
L 18.796875 0 
z
" id="ArialMT-73"/>
     <path d="M 58.796875 25.09375 
L 68.265625 22.703125 
Q 65.28125 11.03125 57.546875 4.90625 
Q 49.8125 -1.21875 38.625 -1.21875 
Q 27.046875 -1.21875 19.796875 3.484375 
Q 12.546875 8.203125 8.765625 17.140625 
Q 4.984375 26.078125 4.984375 36.328125 
Q 4.984375 47.515625 9.25 55.828125 
Q 13.53125 64.15625 21.40625 68.46875 
Q 29.296875 72.796875 38.765625 72.796875 
Q 49.515625 72.796875 56.828125 67.328125 
Q 64.15625 61.859375 67.046875 51.953125 
L 57.71875 49.75 
Q 55.21875 57.5625 50.484375 61.125 
Q 45.75 64.703125 38.578125 64.703125 
Q 30.328125 64.703125 24.78125 60.734375 
Q 19.234375 56.78125 16.984375 50.109375 
Q 14.75 43.453125 14.75 36.375 
Q 14.75 27.25 17.40625 20.4375 
Q 20.0625 13.625 25.671875 10.25 
Q 31.296875 6.890625 37.84375 6.890625 
Q 45.796875 6.890625 51.3125 11.46875 
Q 56.84375 16.0625 58.796875 25.09375 
z
" id="ArialMT-67"/>
     <path d="M 7.90625 0 
L 7.90625 71.578125 
L 59.671875 71.578125 
L 59.671875 63.140625 
L 17.390625 63.140625 
L 17.390625 41.21875 
L 56.984375 41.21875 
L 56.984375 32.8125 
L 17.390625 32.8125 
L 17.390625 8.453125 
L 61.328125 8.453125 
L 61.328125 0 
z
" id="ArialMT-69"/>
     <path d="M 6.390625 0 
L 6.390625 71.578125 
L 15.1875 71.578125 
L 15.1875 0 
z
" id="ArialMT-108"/>
     <path d="M 3.328125 25.921875 
Q 3.328125 40.328125 11.328125 47.265625 
Q 18.015625 53.03125 27.640625 53.03125 
Q 38.328125 53.03125 45.109375 46.015625 
Q 51.90625 39.015625 51.90625 26.65625 
Q 51.90625 16.65625 48.90625 10.90625 
Q 45.90625 5.171875 40.15625 2 
Q 34.421875 -1.171875 27.640625 -1.171875 
Q 16.75 -1.171875 10.03125 5.8125 
Q 3.328125 12.796875 3.328125 25.921875 
z
M 12.359375 25.921875 
Q 12.359375 15.96875 16.703125 11.015625 
Q 21.046875 6.0625 27.640625 6.0625 
Q 34.1875 6.0625 38.53125 11.03125 
Q 42.875 16.015625 42.875 26.21875 
Q 42.875 35.84375 38.5 40.796875 
Q 34.125 45.75 27.640625 45.75 
Q 21.046875 45.75 16.703125 40.8125 
Q 12.359375 35.890625 12.359375 25.921875 
z
" id="ArialMT-111"/>
     <path d="M 3.171875 21.484375 
L 3.171875 30.328125 
L 30.171875 30.328125 
L 30.171875 21.484375 
z
" id="ArialMT-45"/>
     <path d="M 7.328125 0 
L 7.328125 71.578125 
L 16.796875 71.578125 
L 16.796875 8.453125 
L 52.046875 8.453125 
L 52.046875 0 
z
" id="ArialMT-76"/>
     <path d="M 7.421875 0 
L 7.421875 71.578125 
L 21.6875 71.578125 
L 38.625 20.90625 
Q 40.96875 13.8125 42.046875 10.296875 
Q 43.265625 14.203125 45.84375 21.78125 
L 62.984375 71.578125 
L 75.734375 71.578125 
L 75.734375 0 
L 66.609375 0 
L 66.609375 59.90625 
L 45.796875 0 
L 37.25 0 
L 16.546875 60.9375 
L 16.546875 0 
z
" id="ArialMT-77"/>
    </defs>
    <use xlink:href="#ArialMT-80"/>
    <use x="66.699219" xlink:href="#ArialMT-97"/>
    <use x="122.314453" xlink:href="#ArialMT-105"/>
    <use x="144.53125" xlink:href="#ArialMT-114"/>
    <use x="177.832031" xlink:href="#ArialMT-32"/>
    <use x="205.615234" xlink:href="#ArialMT-73"/>
    <use x="233.398438" xlink:href="#ArialMT-67"/>
    <use x="305.615234" xlink:href="#ArialMT-69"/>
    <use x="372.314453" xlink:href="#ArialMT-32"/>
    <use x="400.097656" xlink:href="#ArialMT-80"/>
    <use x="466.796875" xlink:href="#ArialMT-108"/>
    <use x="489.013672" xlink:href="#ArialMT-111"/>
    <use x="544.628906" xlink:href="#ArialMT-116"/>
    <use x="572.412109" xlink:href="#ArialMT-32"/>
    <use x="600.195312" xlink:href="#ArialMT-45"/>
    <use x="633.496094" xlink:href="#ArialMT-32"/>
    <use x="661.279297" xlink:href="#ArialMT-76"/>
    <use x="716.894531" xlink:href="#ArialMT-105"/>
    <use x="739.111328" xlink:href="#ArialMT-110"/>
    <use x="794.726562" xlink:href="#ArialMT-101"/>
    <use x="850.341797" xlink:href="#ArialMT-97"/>
    <use x="905.957031" xlink:href="#ArialMT-114"/>
    <use x="939.257812" xlink:href="#ArialMT-32"/>
    <use x="967.041016" xlink:href="#ArialMT-77"/>
    <use x="1050.341797" xlink:href="#ArialMT-111"/>
    <use x="1105.957031" xlink:href="#ArialMT-100"/>
    <use x="1161.572266" xlink:href="#ArialMT-101"/>
    <use x="1217.1875" xlink:href="#ArialMT-108"/>
   </g>
  </g>
 </g>
 <defs>
  <clipPath id="p617ceca18a">
   <rect height="380.52" width="246.176471" x="38.467188" y="42.48"/>
  </clipPath>
  <clipPath id="pf0cafe877b">
   <rect height="380.52" width="246.176471" x="333.878952" y="42.48"/>
  </clipPath>
  <clipPath id="pd99c189cef">
   <rect height="380.52" width="246.176471" x="629.290717" y="42.48"/>
  </clipPath>
 </defs>
</svg>
