<?xml version="1.0" encoding="utf-8" standalone="no"?>
<!DOCTYPE svg PUBLIC "-//W3C//DTD SVG 1.1//EN"
  "http://www.w3.org/Graphics/SVG/1.1/DTD/svg11.dtd">
<!-- Created with matplotlib (https://matplotlib.org/) -->
<svg height="371.440938pt" version="1.1" viewBox="0 0 614.789062 371.440938" width="614.789062pt" xmlns="http://www.w3.org/2000/svg" xmlns:xlink="http://www.w3.org/1999/xlink">
 <metadata>
  <rdf:RDF xmlns:cc="http://creativecommons.org/ns#" xmlns:dc="http://purl.org/dc/elements/1.1/" xmlns:rdf="http://www.w3.org/1999/02/22-rdf-syntax-ns#">
   <cc:Work>
    <dc:type rdf:resource="http://purl.org/dc/dcmitype/StillImage"/>
    <dc:date>2021-06-30T17:01:22.426603</dc:date>
    <dc:format>image/svg+xml</dc:format>
    <dc:creator>
     <cc:Agent>
      <dc:title>Matplotlib v3.3.4, https://matplotlib.org/</dc:title>
     </cc:Agent>
    </dc:creator>
   </cc:Work>
  </rdf:RDF>
 </metadata>
 <defs>
  <style type="text/css">*{stroke-linecap:butt;stroke-linejoin:round;}</style>
 </defs>
 <g id="figure_1">
  <g id="patch_1">
   <path d="M 0 371.440938 
L 614.789062 371.440938 
L 614.789062 0 
L 0 0 
z
" style="fill:#ffffff;"/>
  </g>
  <g id="axes_1">
   <g id="patch_2">
    <path d="M 49.589063 348.095625 
L 607.589062 348.095625 
L 607.589062 21.935625 
L 49.589063 21.935625 
z
" style="fill:#e6e6e6;"/>
   </g>
   <g id="matplotlib.axis_1">
    <g id="xtick_1">
     <g id="line2d_1">
      <path clip-path="url(#pd640665b0b)" d="M 74.952699 348.095625 
L 74.952699 21.935625 
" style="fill:none;stroke:#cccccc;stroke-linecap:round;stroke-width:0.8;"/>
     </g>
     <g id="text_1">
      <!-- 0 -->
      <g style="fill:#262626;" transform="translate(72.17223 362.253438)scale(0.1 -0.1)">
       <defs>
        <path d="M 4.15625 35.296875 
Q 4.15625 48 6.765625 55.734375 
Q 9.375 63.484375 14.515625 67.671875 
Q 19.671875 71.875 27.484375 71.875 
Q 33.25 71.875 37.59375 69.546875 
Q 41.9375 67.234375 44.765625 62.859375 
Q 47.609375 58.5 49.21875 52.21875 
Q 50.828125 45.953125 50.828125 35.296875 
Q 50.828125 22.703125 48.234375 14.96875 
Q 45.65625 7.234375 40.5 3 
Q 35.359375 -1.21875 27.484375 -1.21875 
Q 17.140625 -1.21875 11.234375 6.203125 
Q 4.15625 15.140625 4.15625 35.296875 
z
M 13.1875 35.296875 
Q 13.1875 17.671875 17.3125 11.828125 
Q 21.4375 6 27.484375 6 
Q 33.546875 6 37.671875 11.859375 
Q 41.796875 17.71875 41.796875 35.296875 
Q 41.796875 52.984375 37.671875 58.78125 
Q 33.546875 64.59375 27.390625 64.59375 
Q 21.34375 64.59375 17.71875 59.46875 
Q 13.1875 52.9375 13.1875 35.296875 
z
" id="ArialMT-48"/>
       </defs>
       <use xlink:href="#ArialMT-48"/>
      </g>
     </g>
    </g>
    <g id="xtick_2">
     <g id="line2d_2">
      <path clip-path="url(#pd640665b0b)" d="M 144.442114 348.095625 
L 144.442114 21.935625 
" style="fill:none;stroke:#cccccc;stroke-linecap:round;stroke-width:0.8;"/>
     </g>
     <g id="text_2">
      <!-- 100 -->
      <g style="fill:#262626;" transform="translate(136.100707 362.253438)scale(0.1 -0.1)">
       <defs>
        <path d="M 37.25 0 
L 28.46875 0 
L 28.46875 56 
Q 25.296875 52.984375 20.140625 49.953125 
Q 14.984375 46.921875 10.890625 45.40625 
L 10.890625 53.90625 
Q 18.265625 57.375 23.78125 62.296875 
Q 29.296875 67.234375 31.59375 71.875 
L 37.25 71.875 
z
" id="ArialMT-49"/>
       </defs>
       <use xlink:href="#ArialMT-49"/>
       <use x="55.615234" xlink:href="#ArialMT-48"/>
       <use x="111.230469" xlink:href="#ArialMT-48"/>
      </g>
     </g>
    </g>
    <g id="xtick_3">
     <g id="line2d_3">
      <path clip-path="url(#pd640665b0b)" d="M 213.931528 348.095625 
L 213.931528 21.935625 
" style="fill:none;stroke:#cccccc;stroke-linecap:round;stroke-width:0.8;"/>
     </g>
     <g id="text_3">
      <!-- 200 -->
      <g style="fill:#262626;" transform="translate(205.590122 362.253438)scale(0.1 -0.1)">
       <defs>
        <path d="M 50.34375 8.453125 
L 50.34375 0 
L 3.03125 0 
Q 2.9375 3.171875 4.046875 6.109375 
Q 5.859375 10.9375 9.828125 15.625 
Q 13.8125 20.3125 21.34375 26.46875 
Q 33.015625 36.03125 37.109375 41.625 
Q 41.21875 47.21875 41.21875 52.203125 
Q 41.21875 57.421875 37.46875 61 
Q 33.734375 64.59375 27.734375 64.59375 
Q 21.390625 64.59375 17.578125 60.78125 
Q 13.765625 56.984375 13.71875 50.25 
L 4.6875 51.171875 
Q 5.609375 61.28125 11.65625 66.578125 
Q 17.71875 71.875 27.9375 71.875 
Q 38.234375 71.875 44.234375 66.15625 
Q 50.25 60.453125 50.25 52 
Q 50.25 47.703125 48.484375 43.546875 
Q 46.734375 39.40625 42.65625 34.8125 
Q 38.578125 30.21875 29.109375 22.21875 
Q 21.1875 15.578125 18.9375 13.203125 
Q 16.703125 10.84375 15.234375 8.453125 
z
" id="ArialMT-50"/>
       </defs>
       <use xlink:href="#ArialMT-50"/>
       <use x="55.615234" xlink:href="#ArialMT-48"/>
       <use x="111.230469" xlink:href="#ArialMT-48"/>
      </g>
     </g>
    </g>
    <g id="xtick_4">
     <g id="line2d_4">
      <path clip-path="url(#pd640665b0b)" d="M 283.420943 348.095625 
L 283.420943 21.935625 
" style="fill:none;stroke:#cccccc;stroke-linecap:round;stroke-width:0.8;"/>
     </g>
     <g id="text_4">
      <!-- 300 -->
      <g style="fill:#262626;" transform="translate(275.079537 362.253438)scale(0.1 -0.1)">
       <defs>
        <path d="M 4.203125 18.890625 
L 12.984375 20.0625 
Q 14.5 12.59375 18.140625 9.296875 
Q 21.78125 6 27 6 
Q 33.203125 6 37.46875 10.296875 
Q 41.75 14.59375 41.75 20.953125 
Q 41.75 27 37.796875 30.921875 
Q 33.84375 34.859375 27.734375 34.859375 
Q 25.25 34.859375 21.53125 33.890625 
L 22.515625 41.609375 
Q 23.390625 41.5 23.921875 41.5 
Q 29.546875 41.5 34.03125 44.421875 
Q 38.53125 47.359375 38.53125 53.46875 
Q 38.53125 58.296875 35.25 61.46875 
Q 31.984375 64.65625 26.8125 64.65625 
Q 21.6875 64.65625 18.265625 61.421875 
Q 14.84375 58.203125 13.875 51.765625 
L 5.078125 53.328125 
Q 6.6875 62.15625 12.390625 67.015625 
Q 18.109375 71.875 26.609375 71.875 
Q 32.46875 71.875 37.390625 69.359375 
Q 42.328125 66.84375 44.9375 62.5 
Q 47.5625 58.15625 47.5625 53.265625 
Q 47.5625 48.640625 45.0625 44.828125 
Q 42.578125 41.015625 37.703125 38.765625 
Q 44.046875 37.3125 47.5625 32.6875 
Q 51.078125 28.078125 51.078125 21.140625 
Q 51.078125 11.765625 44.234375 5.25 
Q 37.40625 -1.265625 26.953125 -1.265625 
Q 17.53125 -1.265625 11.296875 4.34375 
Q 5.078125 9.96875 4.203125 18.890625 
z
" id="ArialMT-51"/>
       </defs>
       <use xlink:href="#ArialMT-51"/>
       <use x="55.615234" xlink:href="#ArialMT-48"/>
       <use x="111.230469" xlink:href="#ArialMT-48"/>
      </g>
     </g>
    </g>
    <g id="xtick_5">
     <g id="line2d_5">
      <path clip-path="url(#pd640665b0b)" d="M 352.910358 348.095625 
L 352.910358 21.935625 
" style="fill:none;stroke:#cccccc;stroke-linecap:round;stroke-width:0.8;"/>
     </g>
     <g id="text_5">
      <!-- 400 -->
      <g style="fill:#262626;" transform="translate(344.568951 362.253438)scale(0.1 -0.1)">
       <defs>
        <path d="M 32.328125 0 
L 32.328125 17.140625 
L 1.265625 17.140625 
L 1.265625 25.203125 
L 33.9375 71.578125 
L 41.109375 71.578125 
L 41.109375 25.203125 
L 50.78125 25.203125 
L 50.78125 17.140625 
L 41.109375 17.140625 
L 41.109375 0 
z
M 32.328125 25.203125 
L 32.328125 57.46875 
L 9.90625 25.203125 
z
" id="ArialMT-52"/>
       </defs>
       <use xlink:href="#ArialMT-52"/>
       <use x="55.615234" xlink:href="#ArialMT-48"/>
       <use x="111.230469" xlink:href="#ArialMT-48"/>
      </g>
     </g>
    </g>
    <g id="xtick_6">
     <g id="line2d_6">
      <path clip-path="url(#pd640665b0b)" d="M 422.399772 348.095625 
L 422.399772 21.935625 
" style="fill:none;stroke:#cccccc;stroke-linecap:round;stroke-width:0.8;"/>
     </g>
     <g id="text_6">
      <!-- 500 -->
      <g style="fill:#262626;" transform="translate(414.058366 362.253438)scale(0.1 -0.1)">
       <defs>
        <path d="M 4.15625 18.75 
L 13.375 19.53125 
Q 14.40625 12.796875 18.140625 9.390625 
Q 21.875 6 27.15625 6 
Q 33.5 6 37.890625 10.78125 
Q 42.28125 15.578125 42.28125 23.484375 
Q 42.28125 31 38.0625 35.34375 
Q 33.84375 39.703125 27 39.703125 
Q 22.75 39.703125 19.328125 37.765625 
Q 15.921875 35.84375 13.96875 32.765625 
L 5.71875 33.84375 
L 12.640625 70.609375 
L 48.25 70.609375 
L 48.25 62.203125 
L 19.671875 62.203125 
L 15.828125 42.96875 
Q 22.265625 47.46875 29.34375 47.46875 
Q 38.71875 47.46875 45.15625 40.96875 
Q 51.609375 34.46875 51.609375 24.265625 
Q 51.609375 14.546875 45.953125 7.46875 
Q 39.0625 -1.21875 27.15625 -1.21875 
Q 17.390625 -1.21875 11.203125 4.25 
Q 5.03125 9.71875 4.15625 18.75 
z
" id="ArialMT-53"/>
       </defs>
       <use xlink:href="#ArialMT-53"/>
       <use x="55.615234" xlink:href="#ArialMT-48"/>
       <use x="111.230469" xlink:href="#ArialMT-48"/>
      </g>
     </g>
    </g>
    <g id="xtick_7">
     <g id="line2d_7">
      <path clip-path="url(#pd640665b0b)" d="M 491.889187 348.095625 
L 491.889187 21.935625 
" style="fill:none;stroke:#cccccc;stroke-linecap:round;stroke-width:0.8;"/>
     </g>
     <g id="text_7">
      <!-- 600 -->
      <g style="fill:#262626;" transform="translate(483.547781 362.253438)scale(0.1 -0.1)">
       <defs>
        <path d="M 49.75 54.046875 
L 41.015625 53.375 
Q 39.84375 58.546875 37.703125 60.890625 
Q 34.125 64.65625 28.90625 64.65625 
Q 24.703125 64.65625 21.53125 62.3125 
Q 17.390625 59.28125 14.984375 53.46875 
Q 12.59375 47.65625 12.5 36.921875 
Q 15.671875 41.75 20.265625 44.09375 
Q 24.859375 46.4375 29.890625 46.4375 
Q 38.671875 46.4375 44.84375 39.96875 
Q 51.03125 33.5 51.03125 23.25 
Q 51.03125 16.5 48.125 10.71875 
Q 45.21875 4.9375 40.140625 1.859375 
Q 35.0625 -1.21875 28.609375 -1.21875 
Q 17.625 -1.21875 10.6875 6.859375 
Q 3.765625 14.9375 3.765625 33.5 
Q 3.765625 54.25 11.421875 63.671875 
Q 18.109375 71.875 29.4375 71.875 
Q 37.890625 71.875 43.28125 67.140625 
Q 48.6875 62.40625 49.75 54.046875 
z
M 13.875 23.1875 
Q 13.875 18.65625 15.796875 14.5 
Q 17.71875 10.359375 21.1875 8.171875 
Q 24.65625 6 28.46875 6 
Q 34.03125 6 38.03125 10.484375 
Q 42.046875 14.984375 42.046875 22.703125 
Q 42.046875 30.125 38.078125 34.390625 
Q 34.125 38.671875 28.125 38.671875 
Q 22.171875 38.671875 18.015625 34.390625 
Q 13.875 30.125 13.875 23.1875 
z
" id="ArialMT-54"/>
       </defs>
       <use xlink:href="#ArialMT-54"/>
       <use x="55.615234" xlink:href="#ArialMT-48"/>
       <use x="111.230469" xlink:href="#ArialMT-48"/>
      </g>
     </g>
    </g>
    <g id="xtick_8">
     <g id="line2d_8">
      <path clip-path="url(#pd640665b0b)" d="M 561.378602 348.095625 
L 561.378602 21.935625 
" style="fill:none;stroke:#cccccc;stroke-linecap:round;stroke-width:0.8;"/>
     </g>
     <g id="text_8">
      <!-- 700 -->
      <g style="fill:#262626;" transform="translate(553.037195 362.253438)scale(0.1 -0.1)">
       <defs>
        <path d="M 4.734375 62.203125 
L 4.734375 70.65625 
L 51.078125 70.65625 
L 51.078125 63.8125 
Q 44.234375 56.546875 37.515625 44.484375 
Q 30.8125 32.421875 27.15625 19.671875 
Q 24.515625 10.6875 23.78125 0 
L 14.75 0 
Q 14.890625 8.453125 18.0625 20.40625 
Q 21.234375 32.375 27.171875 43.484375 
Q 33.109375 54.59375 39.796875 62.203125 
z
" id="ArialMT-55"/>
       </defs>
       <use xlink:href="#ArialMT-55"/>
       <use x="55.615234" xlink:href="#ArialMT-48"/>
       <use x="111.230469" xlink:href="#ArialMT-48"/>
      </g>
     </g>
    </g>
   </g>
   <g id="matplotlib.axis_2">
    <g id="ytick_1">
     <g id="line2d_9">
      <path clip-path="url(#pd640665b0b)" d="M 49.589063 334.020654 
L 607.589062 334.020654 
" style="fill:none;stroke:#cccccc;stroke-linecap:round;stroke-width:0.8;"/>
     </g>
     <g id="text_9">
      <!-- 0 -->
      <g style="fill:#262626;" transform="translate(37.028125 337.59956)scale(0.1 -0.1)">
       <use xlink:href="#ArialMT-48"/>
      </g>
     </g>
    </g>
    <g id="ytick_2">
     <g id="line2d_10">
      <path clip-path="url(#pd640665b0b)" d="M 49.589063 265.794908 
L 607.589062 265.794908 
" style="fill:none;stroke:#cccccc;stroke-linecap:round;stroke-width:0.8;"/>
     </g>
     <g id="text_10">
      <!-- 2000 -->
      <g style="fill:#262626;" transform="translate(20.345313 269.373814)scale(0.1 -0.1)">
       <use xlink:href="#ArialMT-50"/>
       <use x="55.615234" xlink:href="#ArialMT-48"/>
       <use x="111.230469" xlink:href="#ArialMT-48"/>
       <use x="166.845703" xlink:href="#ArialMT-48"/>
      </g>
     </g>
    </g>
    <g id="ytick_3">
     <g id="line2d_11">
      <path clip-path="url(#pd640665b0b)" d="M 49.589063 197.569162 
L 607.589062 197.569162 
" style="fill:none;stroke:#cccccc;stroke-linecap:round;stroke-width:0.8;"/>
     </g>
     <g id="text_11">
      <!-- 4000 -->
      <g style="fill:#262626;" transform="translate(20.345313 201.148068)scale(0.1 -0.1)">
       <use xlink:href="#ArialMT-52"/>
       <use x="55.615234" xlink:href="#ArialMT-48"/>
       <use x="111.230469" xlink:href="#ArialMT-48"/>
       <use x="166.845703" xlink:href="#ArialMT-48"/>
      </g>
     </g>
    </g>
    <g id="ytick_4">
     <g id="line2d_12">
      <path clip-path="url(#pd640665b0b)" d="M 49.589063 129.343416 
L 607.589062 129.343416 
" style="fill:none;stroke:#cccccc;stroke-linecap:round;stroke-width:0.8;"/>
     </g>
     <g id="text_12">
      <!-- 6000 -->
      <g style="fill:#262626;" transform="translate(20.345313 132.922323)scale(0.1 -0.1)">
       <use xlink:href="#ArialMT-54"/>
       <use x="55.615234" xlink:href="#ArialMT-48"/>
       <use x="111.230469" xlink:href="#ArialMT-48"/>
       <use x="166.845703" xlink:href="#ArialMT-48"/>
      </g>
     </g>
    </g>
    <g id="ytick_5">
     <g id="line2d_13">
      <path clip-path="url(#pd640665b0b)" d="M 49.589063 61.117671 
L 607.589062 61.117671 
" style="fill:none;stroke:#cccccc;stroke-linecap:round;stroke-width:0.8;"/>
     </g>
     <g id="text_13">
      <!-- 8000 -->
      <g style="fill:#262626;" transform="translate(20.345313 64.696577)scale(0.1 -0.1)">
       <defs>
        <path d="M 17.671875 38.8125 
Q 12.203125 40.828125 9.5625 44.53125 
Q 6.9375 48.25 6.9375 53.421875 
Q 6.9375 61.234375 12.546875 66.546875 
Q 18.171875 71.875 27.484375 71.875 
Q 36.859375 71.875 42.578125 66.421875 
Q 48.296875 60.984375 48.296875 53.171875 
Q 48.296875 48.1875 45.671875 44.5 
Q 43.0625 40.828125 37.75 38.8125 
Q 44.34375 36.671875 47.78125 31.875 
Q 51.21875 27.09375 51.21875 20.453125 
Q 51.21875 11.28125 44.71875 5.03125 
Q 38.234375 -1.21875 27.640625 -1.21875 
Q 17.046875 -1.21875 10.546875 5.046875 
Q 4.046875 11.328125 4.046875 20.703125 
Q 4.046875 27.6875 7.59375 32.390625 
Q 11.140625 37.109375 17.671875 38.8125 
z
M 15.921875 53.71875 
Q 15.921875 48.640625 19.1875 45.40625 
Q 22.46875 42.1875 27.6875 42.1875 
Q 32.765625 42.1875 36.015625 45.375 
Q 39.265625 48.578125 39.265625 53.21875 
Q 39.265625 58.0625 35.90625 61.359375 
Q 32.5625 64.65625 27.59375 64.65625 
Q 22.5625 64.65625 19.234375 61.421875 
Q 15.921875 58.203125 15.921875 53.71875 
z
M 13.09375 20.65625 
Q 13.09375 16.890625 14.875 13.375 
Q 16.65625 9.859375 20.171875 7.921875 
Q 23.6875 6 27.734375 6 
Q 34.03125 6 38.125 10.046875 
Q 42.234375 14.109375 42.234375 20.359375 
Q 42.234375 26.703125 38.015625 30.859375 
Q 33.796875 35.015625 27.4375 35.015625 
Q 21.234375 35.015625 17.15625 30.90625 
Q 13.09375 26.8125 13.09375 20.65625 
z
" id="ArialMT-56"/>
       </defs>
       <use xlink:href="#ArialMT-56"/>
       <use x="55.615234" xlink:href="#ArialMT-48"/>
       <use x="111.230469" xlink:href="#ArialMT-48"/>
       <use x="166.845703" xlink:href="#ArialMT-48"/>
      </g>
     </g>
    </g>
    <g id="text_14">
     <!-- cnt -->
     <g style="fill:#262626;" transform="translate(14.357813 191.685156)rotate(-90)scale(0.1 -0.1)">
      <defs>
       <path d="M 40.4375 19 
L 49.078125 17.875 
Q 47.65625 8.9375 41.8125 3.875 
Q 35.984375 -1.171875 27.484375 -1.171875 
Q 16.84375 -1.171875 10.375 5.78125 
Q 3.90625 12.75 3.90625 25.734375 
Q 3.90625 34.125 6.6875 40.421875 
Q 9.46875 46.734375 15.15625 49.875 
Q 20.84375 53.03125 27.546875 53.03125 
Q 35.984375 53.03125 41.359375 48.75 
Q 46.734375 44.484375 48.25 36.625 
L 39.703125 35.296875 
Q 38.484375 40.53125 35.375 43.15625 
Q 32.28125 45.796875 27.875 45.796875 
Q 21.234375 45.796875 17.078125 41.03125 
Q 12.9375 36.28125 12.9375 25.984375 
Q 12.9375 15.53125 16.9375 10.796875 
Q 20.953125 6.0625 27.390625 6.0625 
Q 32.5625 6.0625 36.03125 9.234375 
Q 39.5 12.40625 40.4375 19 
z
" id="ArialMT-99"/>
       <path d="M 6.59375 0 
L 6.59375 51.859375 
L 14.5 51.859375 
L 14.5 44.484375 
Q 20.21875 53.03125 31 53.03125 
Q 35.6875 53.03125 39.625 51.34375 
Q 43.5625 49.65625 45.515625 46.921875 
Q 47.46875 44.1875 48.25 40.4375 
Q 48.734375 37.984375 48.734375 31.890625 
L 48.734375 0 
L 39.9375 0 
L 39.9375 31.546875 
Q 39.9375 36.921875 38.90625 39.578125 
Q 37.890625 42.234375 35.28125 43.8125 
Q 32.671875 45.40625 29.15625 45.40625 
Q 23.53125 45.40625 19.453125 41.84375 
Q 15.375 38.28125 15.375 28.328125 
L 15.375 0 
z
" id="ArialMT-110"/>
       <path d="M 25.78125 7.859375 
L 27.046875 0.09375 
Q 23.34375 -0.6875 20.40625 -0.6875 
Q 15.625 -0.6875 12.984375 0.828125 
Q 10.359375 2.34375 9.28125 4.8125 
Q 8.203125 7.28125 8.203125 15.1875 
L 8.203125 45.015625 
L 1.765625 45.015625 
L 1.765625 51.859375 
L 8.203125 51.859375 
L 8.203125 64.703125 
L 16.9375 69.96875 
L 16.9375 51.859375 
L 25.78125 51.859375 
L 25.78125 45.015625 
L 16.9375 45.015625 
L 16.9375 14.703125 
Q 16.9375 10.9375 17.40625 9.859375 
Q 17.875 8.796875 18.921875 8.15625 
Q 19.96875 7.515625 21.921875 7.515625 
Q 23.390625 7.515625 25.78125 7.859375 
z
" id="ArialMT-116"/>
      </defs>
      <use xlink:href="#ArialMT-99"/>
      <use x="50" xlink:href="#ArialMT-110"/>
      <use x="105.615234" xlink:href="#ArialMT-116"/>
     </g>
    </g>
   </g>
   <g id="line2d_14">
    <path clip-path="url(#pd640665b0b)" d="M 74.952699 300.419474 
L 75.647593 306.696242 
L 76.342487 288.002388 
L 77.037381 280.736346 
L 77.732275 279.440057 
L 78.42717 279.23538 
L 79.122064 282.510216 
L 79.816958 301.306409 
L 80.511852 305.979872 
L 81.206746 288.957549 
L 81.90164 290.936095 
L 82.596534 294.381495 
L 83.291429 286.057954 
L 83.986323 285.546261 
L 84.681217 291.447788 
L 85.376111 292.948755 
L 86.071005 299.907781 
L 86.765899 310.721561 
L 87.460794 277.734413 
L 88.155688 268.285148 
L 88.850582 281.384491 
L 89.545476 300.555925 
L 90.24037 300.385361 
L 90.935264 285.716826 
L 91.630158 266.306601 
L 92.325053 316.75954 
L 93.019947 319.318005 
L 93.714841 294.210931 
L 94.409735 296.564719 
L 95.104629 296.632945 
L 95.799523 282.817231 
L 96.494417 287.627147 
L 97.189312 281.96441 
L 97.884206 281.145701 
L 98.5791 275.755867 
L 99.273994 299.737216 
L 99.968888 278.655461 
L 100.663782 275.619415 
L 101.358676 281.827958 
L 102.053571 279.269493 
L 102.748465 281.555055 
L 103.443359 274.459578 
L 104.138253 283.806505 
L 104.833147 279.815299 
L 105.528041 268.762728 
L 106.222935 272.105789 
L 106.91783 261.871928 
L 107.612724 249.591293 
L 108.307618 234.172275 
L 109.002512 278.246107 
L 109.697406 272.208128 
L 110.3923 296.257703 
L 111.087195 284.556988 
L 111.782089 268.626276 
L 112.476983 272.378692 
L 113.171877 284.181746 
L 114.561665 252.081533 
L 115.256559 284.69344 
L 115.951454 270.877726 
L 116.646348 261.223783 
L 117.341242 276.540463 
L 118.036136 267.705229 
L 118.73103 263.168217 
L 119.425924 313.382366 
L 120.120818 270.161356 
L 120.815713 261.257896 
L 121.510607 269.513211 
L 122.205501 312.768334 
L 122.900395 266.579504 
L 123.595289 261.292009 
L 124.290183 251.56984 
L 124.985077 264.225716 
L 125.679972 263.884587 
L 126.374866 259.245236 
L 127.764654 223.529058 
L 128.459548 227.690829 
L 129.154442 249.727745 
L 129.849336 263.168217 
L 130.544231 241.813558 
L 131.239125 261.66725 
L 131.934019 270.400146 
L 132.628913 258.631205 
L 133.323807 248.874923 
L 134.018701 276.26756 
L 134.713596 264.839747 
L 135.40849 251.296937 
L 136.103384 281.623281 
L 136.798278 276.540463 
L 137.493172 258.051286 
L 138.188066 257.198464 
L 138.88296 223.18793 
L 139.577855 227.759055 
L 140.272749 272.788047 
L 140.967643 238.231707 
L 141.662537 226.87212 
L 142.357431 283.840618 
L 143.052325 250.273551 
L 144.442114 219.810755 
L 145.137008 264.63507 
L 145.831902 260.268623 
L 146.526796 222.573898 
L 147.22169 227.383813 
L 147.916584 306.90092 
L 148.611478 206.302058 
L 149.306373 217.047613 
L 150.001267 224.723009 
L 150.696161 199.479483 
L 151.391055 191.121829 
L 152.085949 276.608689 
L 152.780843 196.341099 
L 153.475737 191.053603 
L 154.170632 195.078922 
L 154.865526 183.924013 
L 155.56042 201.93561 
L 156.255314 195.590616 
L 156.950208 177.272003 
L 157.645102 152.813073 
L 158.339996 219.708417 
L 159.034891 183.8899 
L 159.729785 182.184257 
L 160.424679 244.201459 
L 161.119573 182.798288 
L 161.814467 176.828536 
L 162.509361 173.212571 
L 163.204256 186.209576 
L 163.89915 185.220302 
L 164.594044 170.176525 
L 165.288938 191.360619 
L 165.983832 168.09564 
L 167.37362 217.72987 
L 168.068515 178.704744 
L 168.763409 199.001903 
L 169.458303 193.373279 
L 170.153197 202.515529 
L 170.848091 177.95426 
L 171.542985 166.287658 
L 172.237879 135.995427 
L 172.932774 175.054666 
L 173.627668 188.222235 
L 174.322562 180.785629 
L 175.017456 164.206773 
L 175.71235 174.474747 
L 176.407244 174.406522 
L 177.102138 171.711605 
L 177.797033 170.688218 
L 178.491927 194.226101 
L 179.186821 198.183194 
L 179.881715 198.456097 
L 180.576609 164.547901 
L 181.271503 152.813073 
L 181.966397 151.789687 
L 182.661292 166.662899 
L 183.356186 178.875308 
L 184.05108 169.153139 
L 185.440868 200.468756 
L 186.135762 177.579019 
L 186.830657 164.616127 
L 187.525551 181.877241 
L 188.220445 162.774032 
L 188.915339 167.174592 
L 189.610233 157.315972 
L 190.305127 205.517462 
L 191.000021 168.777898 
L 191.694916 159.396857 
L 192.38981 172.189185 
L 193.084704 197.228033 
L 193.779598 169.084913 
L 194.474492 180.273936 
L 195.169386 170.619993 
L 196.559175 156.565489 
L 197.254069 153.051863 
L 197.948963 173.417248 
L 198.643857 175.464021 
L 199.338751 155.780893 
L 200.033645 145.88816 
L 200.728539 151.107429 
L 201.423434 159.396857 
L 202.118328 175.429908 
L 202.813222 127.876563 
L 203.508116 174.884102 
L 204.897904 177.374341 
L 205.592798 196.204647 
L 206.287693 151.994364 
L 206.982587 167.515721 
L 207.677481 194.635455 
L 208.372375 188.768041 
L 209.067269 185.90256 
L 209.762163 160.590808 
L 211.151952 131.970108 
L 211.846846 153.154202 
L 212.54174 181.945466 
L 213.236634 179.114098 
L 213.931528 186.243688 
L 214.626422 204.937543 
L 215.321317 218.480353 
L 216.016211 221.959866 
L 216.711105 211.009634 
L 217.405999 203.027222 
L 218.100893 177.442567 
L 218.795787 175.191118 
L 219.490681 184.265142 
L 220.185576 202.822545 
L 220.88047 181.365548 
L 221.575364 187.267075 
L 222.270258 188.495138 
L 222.965152 168.743785 
L 223.660046 212.101246 
L 224.35494 177.920147 
L 225.049835 168.027414 
L 226.439623 204.90343 
L 227.134517 186.448366 
L 227.829411 177.033213 
L 228.524305 170.961121 
L 229.219199 170.551767 
L 229.914094 166.697012 
L 230.608988 192.452231 
L 231.303882 203.709479 
L 231.998776 186.039011 
L 232.69367 172.837329 
L 233.388564 173.894828 
L 234.083459 204.221172 
L 234.778353 192.349893 
L 235.473247 156.940731 
L 236.168141 201.901497 
L 236.863035 171.711605 
L 237.557929 132.925268 
L 238.252823 159.021616 
L 238.947718 213.192858 
L 239.642612 175.020553 
L 240.337506 295.9848 
L 241.0324 186.175463 
L 241.727294 175.941601 
L 242.422188 156.497263 
L 243.117082 161.477743 
L 243.811977 159.533309 
L 244.506871 172.769104 
L 245.201765 181.058532 
L 245.896659 165.503062 
L 246.591553 219.708417 
L 247.981341 265.931359 
L 248.676236 271.184742 
L 250.066024 151.687348 
L 251.455812 173.246684 
L 252.150706 171.54104 
L 252.8456 170.790557 
L 253.540495 209.201652 
L 254.235389 171.643379 
L 255.625177 188.222235 
L 256.320071 179.182324 
L 257.014965 209.815684 
L 257.70986 185.561431 
L 258.404754 170.449428 
L 259.099648 252.320323 
L 259.794542 149.026544 
L 261.879224 193.475617 
L 262.574119 200.741659 
L 263.269013 168.948462 
L 263.963907 156.565489 
L 264.658801 251.160485 
L 265.353695 234.479291 
L 266.048589 212.237698 
L 266.743483 182.013692 
L 267.438378 169.391929 
L 268.133272 171.472814 
L 268.828166 163.967982 
L 269.52306 149.504124 
L 270.217954 146.024611 
L 270.912848 159.465083 
L 271.607742 178.363615 
L 272.302637 251.603953 
L 272.997531 234.649855 
L 273.692425 209.713345 
L 274.387319 156.053796 
L 275.082213 162.057662 
L 275.777107 178.124825 
L 276.472001 172.052733 
L 277.166896 251.33105 
L 277.86179 190.917152 
L 278.556684 187.198849 
L 279.251578 187.062397 
L 279.946472 184.572158 
L 280.641366 191.190055 
L 281.336261 174.133619 
L 282.031155 201.185127 
L 282.726049 243.314525 
L 283.420943 206.199719 
L 284.115837 312.631882 
L 284.810731 220.390674 
L 285.505625 208.860523 
L 286.20052 195.249487 
L 286.895414 191.224168 
L 287.590308 198.456097 
L 288.285202 195.99997 
L 288.980096 200.093515 
L 289.67499 209.542781 
L 290.369884 196.375212 
L 291.064779 190.576023 
L 291.759673 193.850859 
L 292.454567 233.967598 
L 293.149461 219.128498 
L 293.844355 195.2836 
L 294.539249 207.223105 
L 295.234143 180.990306 
L 295.929038 190.917152 
L 296.623932 272.037564 
L 297.318826 229.874053 
L 298.01372 218.309789 
L 298.708614 209.0652 
L 299.403508 213.943341 
L 300.098402 239.69856 
L 300.793297 279.201267 
L 301.488191 246.487022 
L 302.183085 283.021909 
L 302.877979 238.777513 
L 303.572873 229.36236 
L 304.267767 229.260021 
L 304.962662 202.106174 
L 305.657556 234.615742 
L 306.35245 210.770844 
L 307.047344 206.881977 
L 307.742238 199.615935 
L 308.437132 210.736731 
L 309.132026 215.137292 
L 309.826921 204.016495 
L 310.521815 245.531861 
L 311.216709 309.971078 
L 311.911603 220.69769 
L 312.606497 210.532054 
L 313.996285 240.449043 
L 314.69118 221.107044 
L 316.080968 206.438509 
L 316.775862 207.496008 
L 317.470756 211.998907 
L 318.16565 240.585495 
L 318.860544 251.09226 
L 319.555439 217.934547 
L 320.250333 206.09738 
L 320.945227 243.280412 
L 321.640121 229.36236 
L 322.335015 258.665318 
L 323.029909 299.532539 
L 323.724803 308.299548 
L 324.419698 289.094 
L 325.114592 294.381495 
L 325.809486 255.49282 
L 326.50438 251.365163 
L 327.199274 231.716148 
L 327.894168 249.250165 
L 328.589063 255.765723 
L 329.283957 267.466439 
L 329.978851 257.74427 
L 330.673745 253.241371 
L 332.063533 194.226101 
L 332.758427 179.796355 
L 334.148216 252.968468 
L 334.84311 211.282537 
L 335.538004 259.756929 
L 336.232898 194.260214 
L 336.927792 224.38188 
L 337.622686 248.977262 
L 338.317581 255.185804 
L 339.012475 255.629272 
L 339.707369 233.899372 
L 340.402263 218.855595 
L 341.097157 221.721076 
L 341.792051 226.121637 
L 342.486945 289.639806 
L 343.18184 266.579504 
L 343.876734 251.058147 
L 344.571628 186.004898 
L 345.266522 188.358687 
L 345.961416 195.010697 
L 346.65631 216.126565 
L 347.351204 196.784566 
L 348.046099 223.392607 
L 348.740993 210.395602 
L 349.435887 180.20571 
L 350.130781 177.817809 
L 350.825675 205.722139 
L 351.520569 192.418118 
L 352.215463 237.412998 
L 352.910358 233.490017 
L 353.605252 204.937543 
L 354.300146 184.776835 
L 354.99504 238.436384 
L 355.689934 203.368351 
L 356.384828 203.334238 
L 357.079723 260.029832 
L 357.774617 281.862071 
L 358.469511 217.286403 
L 359.164405 200.229966 
L 359.859299 191.804087 
L 360.554193 231.511471 
L 361.249087 192.31578 
L 361.943982 186.721269 
L 362.638876 242.291139 
L 363.33377 227.281474 
L 364.028664 205.176333 
L 364.723558 171.199911 
L 365.418452 161.341291 
L 366.113346 215.069066 
L 366.808241 240.824285 
L 367.503135 218.412128 
L 368.198029 186.584817 
L 368.892923 185.186189 
L 369.587817 271.457645 
L 370.282711 163.797418 
L 370.977605 225.064138 
L 371.6725 195.317713 
L 372.367394 217.25229 
L 373.062288 220.322448 
L 373.757182 199.070129 
L 374.452076 166.321771 
L 375.14697 150.425172 
L 375.841864 178.158938 
L 376.536759 193.543843 
L 377.231653 166.492335 
L 377.926547 153.290653 
L 379.316335 118.7002 
L 380.011229 122.793745 
L 380.706124 184.674496 
L 381.401018 66.712182 
L 382.095912 133.027607 
L 382.790806 124.124147 
L 383.4857 126.170919 
L 384.180594 121.497456 
L 384.875488 99.631104 
L 385.570383 48.768811 
L 386.265277 218.992046 
L 386.960171 163.592741 
L 387.655065 144.421306 
L 388.349959 159.976776 
L 389.044853 139.645504 
L 389.739747 124.806404 
L 390.434642 147.798481 
L 391.129536 121.326891 
L 391.82443 127.944789 
L 392.519324 131.52664 
L 393.214218 103.008279 
L 393.909112 114.470204 
L 394.604006 113.753834 
L 395.298901 113.651495 
L 395.993795 100.108684 
L 396.688689 157.691214 
L 397.383583 143.500259 
L 398.078477 132.140672 
L 398.773371 168.163866 
L 399.468265 149.504124 
L 400.858054 79.538622 
L 401.552948 90.727644 
L 402.247842 116.721654 
L 402.942736 105.771421 
L 403.63763 185.049738 
L 404.332525 110.069643 
L 405.027419 85.33781 
L 405.722313 108.056984 
L 406.417207 298.986733 
L 407.806995 141.862841 
L 408.501889 122.657293 
L 409.196784 162.569355 
L 409.891678 121.395117 
L 410.586572 190.06433 
L 411.281466 118.973103 
L 411.97636 143.943726 
L 412.671254 138.212763 
L 413.366148 123.578341 
L 414.061043 114.981897 
L 414.755937 119.246006 
L 415.450831 99.22175 
L 416.145725 117.096895 
L 416.840619 120.030602 
L 417.535513 138.622118 
L 418.230407 173.110232 
L 418.925302 109.830853 
L 420.31509 80.596121 
L 421.009984 125.318097 
L 421.704878 237.037756 
L 423.094666 80.766686 
L 423.789561 82.1312 
L 424.484455 73.432418 
L 425.179349 51.088486 
L 425.874243 90.829983 
L 426.569137 185.322641 
L 427.264031 126.853177 
L 427.958926 154.586942 
L 428.65382 103.076504 
L 429.348714 104.304568 
L 430.043608 111.058917 
L 430.738502 109.182709 
L 431.433396 127.876563 
L 432.12829 138.110425 
L 432.823185 100.17691 
L 433.518079 83.700393 
L 434.212973 193.236827 
L 434.907867 57.024126 
L 435.602761 73.364192 
L 436.297655 95.298769 
L 436.992549 95.196431 
L 437.687444 93.354336 
L 438.382338 78.378784 
L 439.077232 70.123469 
L 439.772126 78.242333 
L 440.46702 108.943919 
L 441.161914 106.692469 
L 441.856808 164.41145 
L 442.551703 80.869024 
L 443.246597 82.847571 
L 443.941491 72.545483 
L 444.636385 71.283307 
L 445.331279 95.981027 
L 446.026173 160.079115 
L 446.721067 101.200296 
L 447.415962 122.1456 
L 448.110856 132.584139 
L 448.80575 135.381395 
L 449.500644 79.606848 
L 450.195538 98.948847 
L 450.890432 102.769489 
L 451.585327 80.152654 
L 452.280221 83.802731 
L 452.975115 99.358201 
L 453.670009 147.662029 
L 454.364903 140.020746 
L 455.059797 145.342354 
L 455.754691 121.599794 
L 456.449586 106.82892 
L 457.14448 81.483056 
L 457.839374 121.122214 
L 458.534268 122.282052 
L 459.229162 168.914349 
L 459.924056 174.645312 
L 460.61895 109.933192 
L 461.313845 119.450683 
L 462.008739 86.224745 
L 462.703633 80.016202 
L 463.398527 78.20822 
L 464.093421 96.288043 
L 464.788315 128.285917 
L 465.483209 101.029732 
L 466.178104 102.530698 
L 466.872998 139.133811 
L 467.567892 109.182709 
L 468.262786 133.77809 
L 468.95768 181.911354 
L 469.652574 81.244266 
L 470.347468 96.390381 
L 471.737257 55.216144 
L 472.432151 99.972233 
L 473.127045 98.505379 
L 473.821939 105.976099 
L 474.516833 108.978031 
L 475.211728 91.648692 
L 475.906622 87.862163 
L 476.601516 75.445077 
L 477.29641 86.327084 
L 477.991304 89.260791 
L 478.686198 101.234409 
L 479.381092 147.627916 
L 480.075987 94.787076 
L 480.075987 94.787076 
" style="fill:none;stroke:#000000;stroke-linecap:round;stroke-width:1.5;"/>
   </g>
   <g id="line2d_15">
    <path clip-path="url(#pd640665b0b)" d="M 480.770881 85.917729 
L 481.465775 77.01427 
L 482.160669 85.474262 
L 482.855563 136.643571 
L 483.550457 119.143668 
L 484.245351 110.786014 
L 484.940246 99.22175 
L 485.63514 102.598924 
L 486.330034 83.393377 
L 487.024928 74.592256 
L 487.719822 90.181838 
L 488.414716 65.722909 
L 489.10961 178.841195 
L 489.804505 111.263594 
L 490.499399 95.025866 
L 491.889187 69.134196 
L 492.584081 75.376852 
L 493.278975 127.535434 
L 493.973869 154.757507 
L 494.668764 98.061912 
L 495.363658 93.866029 
L 496.058552 71.453871 
L 496.753446 70.908065 
L 497.44834 83.291038 
L 498.143234 124.567614 
L 498.838129 135.824862 
L 499.533023 128.183579 
L 500.227917 99.869894 
L 500.922811 91.409902 
L 501.617705 122.418503 
L 502.312599 78.037656 
L 503.007493 130.162125 
L 503.702388 53.374049 
L 504.397282 77.321285 
L 505.092176 69.06597 
L 505.78707 65.552344 
L 506.481964 67.803794 
L 507.176858 60.810655 
L 507.871752 36.76108 
L 508.566647 83.870957 
L 509.261541 99.69933 
L 509.956435 195.078922 
L 510.651329 75.069836 
L 511.346223 70.669275 
L 512.041117 55.420821 
L 512.736011 47.643086 
L 514.1258 80.357331 
L 514.820694 76.877818 
L 515.515588 70.225808 
L 516.210482 81.824185 
L 516.905376 81.073701 
L 517.60027 42.185026 
L 518.295165 99.017073 
L 518.990059 102.803601 
L 519.684953 175.771036 
L 520.379847 75.71798 
L 521.074741 84.041521 
L 521.769635 55.796063 
L 522.464529 62.311621 
L 523.159424 214.28447 
L 523.854318 147.150336 
L 524.549212 115.97117 
L 525.244106 71.658548 
L 525.939 75.786206 
L 526.633894 85.610713 
L 527.328789 91.51224 
L 528.023683 107.545291 
L 528.718577 133.607526 
L 529.413471 77.01427 
L 530.108365 79.504509 
L 530.803259 77.867091 
L 531.498153 148.992431 
L 532.193048 58.047512 
L 532.887942 101.234409 
L 533.582836 93.251997 
L 534.27773 79.333945 
L 534.972624 71.590323 
L 535.667518 82.984022 
L 536.362412 80.084428 
L 537.057307 66.166376 
L 537.752201 181.911354 
L 538.447095 333.27017 
L 539.141989 296.632945 
L 539.836883 144.148403 
L 540.531777 129.820997 
L 541.226671 134.562686 
L 541.921566 158.748713 
L 542.61646 159.806212 
L 543.311354 154.621055 
L 544.006248 140.054859 
L 544.701142 162.262339 
L 545.396036 152.710734 
L 546.09093 129.616319 
L 546.785825 111.058917 
L 547.480719 100.279249 
L 548.175613 120.167054 
L 548.870507 194.362552 
L 549.565401 146.570417 
L 550.260295 148.276061 
L 550.95519 139.645504 
L 551.650084 141.999292 
L 552.344978 174.74765 
L 553.039872 146.433966 
L 553.734766 141.828728 
L 554.42966 158.47581 
L 555.124554 251.296937 
L 555.819449 200.639321 
L 556.514343 256.345642 
L 557.209237 251.33105 
L 557.904131 160.488469 
L 558.599025 198.96779 
L 559.293919 154.586942 
L 559.988813 152.437831 
L 560.683708 140.66889 
L 562.073496 175.429908 
L 562.76839 121.361004 
L 563.463284 108.671016 
L 564.158178 138.588005 
L 565.547967 163.183386 
L 566.242861 143.602597 
L 566.937755 223.9043 
L 567.632649 157.657101 
L 568.327543 146.36574 
L 569.022437 152.574283 
L 569.717331 145.308241 
L 570.412226 142.613324 
L 571.10712 161.852984 
L 571.802014 204.869317 
L 572.496908 177.613132 
L 573.191802 144.455419 
L 573.886696 154.348152 
L 574.581591 193.202714 
L 575.276485 210.429715 
L 575.971379 274.357239 
L 576.666273 273.06095 
L 577.361167 302.636811 
L 578.056061 299.464313 
L 578.750955 318.976877 
L 579.44585 261.90604 
L 580.140744 228.441312 
L 580.835638 288.275291 
L 581.530532 272.753934 
L 582.225426 240.926624 
L 582.225426 240.926624 
" style="fill:none;stroke:#c44e52;stroke-linecap:round;stroke-width:1.5;"/>
   </g>
   <g id="line2d_16">
    <path clip-path="url(#pd640665b0b)" d="M 328.589063 348.095625 
L 328.589063 21.935625 
" style="fill:none;stroke:#da8bc3;stroke-dasharray:5.55,2.4;stroke-dashoffset:0;stroke-width:1.5;"/>
   </g>
   <g id="line2d_17">
    <path clip-path="url(#pd640665b0b)" d="M 480.770881 348.095625 
L 480.770881 21.935625 
" style="fill:none;stroke:#808080;stroke-dasharray:5.55,2.4;stroke-dashoffset:0;stroke-width:1.5;"/>
   </g>
   <g id="patch_3">
    <path d="M 49.589063 348.095625 
L 49.589063 21.935625 
" style="fill:none;stroke:#ffffff;stroke-linecap:square;stroke-linejoin:miter;stroke-width:0.8;"/>
   </g>
   <g id="patch_4">
    <path d="M 607.589062 348.095625 
L 607.589062 21.935625 
" style="fill:none;stroke:#ffffff;stroke-linecap:square;stroke-linejoin:miter;stroke-width:0.8;"/>
   </g>
   <g id="patch_5">
    <path d="M 49.589063 348.095625 
L 607.589062 348.095625 
" style="fill:none;stroke:#ffffff;stroke-linecap:square;stroke-linejoin:miter;stroke-width:0.8;"/>
   </g>
   <g id="patch_6">
    <path d="M 49.589063 21.935625 
L 607.589062 21.935625 
" style="fill:none;stroke:#ffffff;stroke-linecap:square;stroke-linejoin:miter;stroke-width:0.8;"/>
   </g>
   <g id="text_15">
    <!-- Train - Test Split -->
    <g style="fill:#262626;" transform="translate(285.579375 15.935625)scale(0.12 -0.12)">
     <defs>
      <path d="M 25.921875 0 
L 25.921875 63.140625 
L 2.34375 63.140625 
L 2.34375 71.578125 
L 59.078125 71.578125 
L 59.078125 63.140625 
L 35.40625 63.140625 
L 35.40625 0 
z
" id="ArialMT-84"/>
      <path d="M 6.5 0 
L 6.5 51.859375 
L 14.40625 51.859375 
L 14.40625 44 
Q 17.4375 49.515625 20 51.265625 
Q 22.5625 53.03125 25.640625 53.03125 
Q 30.078125 53.03125 34.671875 50.203125 
L 31.640625 42.046875 
Q 28.421875 43.953125 25.203125 43.953125 
Q 22.3125 43.953125 20.015625 42.21875 
Q 17.71875 40.484375 16.75 37.40625 
Q 15.28125 32.71875 15.28125 27.15625 
L 15.28125 0 
z
" id="ArialMT-114"/>
      <path d="M 40.4375 6.390625 
Q 35.546875 2.25 31.03125 0.53125 
Q 26.515625 -1.171875 21.34375 -1.171875 
Q 12.796875 -1.171875 8.203125 3 
Q 3.609375 7.171875 3.609375 13.671875 
Q 3.609375 17.484375 5.34375 20.625 
Q 7.078125 23.78125 9.890625 25.6875 
Q 12.703125 27.59375 16.21875 28.5625 
Q 18.796875 29.25 24.03125 29.890625 
Q 34.671875 31.15625 39.703125 32.90625 
Q 39.75 34.71875 39.75 35.203125 
Q 39.75 40.578125 37.25 42.78125 
Q 33.890625 45.75 27.25 45.75 
Q 21.046875 45.75 18.09375 43.578125 
Q 15.140625 41.40625 13.71875 35.890625 
L 5.125 37.0625 
Q 6.296875 42.578125 8.984375 45.96875 
Q 11.671875 49.359375 16.75 51.1875 
Q 21.828125 53.03125 28.515625 53.03125 
Q 35.15625 53.03125 39.296875 51.46875 
Q 43.453125 49.90625 45.40625 47.53125 
Q 47.359375 45.171875 48.140625 41.546875 
Q 48.578125 39.3125 48.578125 33.453125 
L 48.578125 21.734375 
Q 48.578125 9.46875 49.140625 6.21875 
Q 49.703125 2.984375 51.375 0 
L 42.1875 0 
Q 40.828125 2.734375 40.4375 6.390625 
z
M 39.703125 26.03125 
Q 34.90625 24.078125 25.34375 22.703125 
Q 19.921875 21.921875 17.671875 20.9375 
Q 15.4375 19.96875 14.203125 18.09375 
Q 12.984375 16.21875 12.984375 13.921875 
Q 12.984375 10.40625 15.640625 8.0625 
Q 18.3125 5.71875 23.4375 5.71875 
Q 28.515625 5.71875 32.46875 7.9375 
Q 36.421875 10.15625 38.28125 14.015625 
Q 39.703125 17 39.703125 22.796875 
z
" id="ArialMT-97"/>
      <path d="M 6.640625 61.46875 
L 6.640625 71.578125 
L 15.4375 71.578125 
L 15.4375 61.46875 
z
M 6.640625 0 
L 6.640625 51.859375 
L 15.4375 51.859375 
L 15.4375 0 
z
" id="ArialMT-105"/>
      <path id="ArialMT-32"/>
      <path d="M 3.171875 21.484375 
L 3.171875 30.328125 
L 30.171875 30.328125 
L 30.171875 21.484375 
z
" id="ArialMT-45"/>
      <path d="M 42.09375 16.703125 
L 51.171875 15.578125 
Q 49.03125 7.625 43.21875 3.21875 
Q 37.40625 -1.171875 28.375 -1.171875 
Q 17 -1.171875 10.328125 5.828125 
Q 3.65625 12.84375 3.65625 25.484375 
Q 3.65625 38.578125 10.390625 45.796875 
Q 17.140625 53.03125 27.875 53.03125 
Q 38.28125 53.03125 44.875 45.953125 
Q 51.46875 38.875 51.46875 26.03125 
Q 51.46875 25.25 51.421875 23.6875 
L 12.75 23.6875 
Q 13.234375 15.140625 17.578125 10.59375 
Q 21.921875 6.0625 28.421875 6.0625 
Q 33.25 6.0625 36.671875 8.59375 
Q 40.09375 11.140625 42.09375 16.703125 
z
M 13.234375 30.90625 
L 42.1875 30.90625 
Q 41.609375 37.453125 38.875 40.71875 
Q 34.671875 45.796875 27.984375 45.796875 
Q 21.921875 45.796875 17.796875 41.75 
Q 13.671875 37.703125 13.234375 30.90625 
z
" id="ArialMT-101"/>
      <path d="M 3.078125 15.484375 
L 11.765625 16.84375 
Q 12.5 11.625 15.84375 8.84375 
Q 19.1875 6.0625 25.203125 6.0625 
Q 31.25 6.0625 34.171875 8.515625 
Q 37.109375 10.984375 37.109375 14.3125 
Q 37.109375 17.28125 34.515625 19 
Q 32.71875 20.171875 25.53125 21.96875 
Q 15.875 24.421875 12.140625 26.203125 
Q 8.40625 27.984375 6.46875 31.125 
Q 4.546875 34.28125 4.546875 38.09375 
Q 4.546875 41.546875 6.125 44.5 
Q 7.71875 47.46875 10.453125 49.421875 
Q 12.5 50.921875 16.03125 51.96875 
Q 19.578125 53.03125 23.640625 53.03125 
Q 29.734375 53.03125 34.34375 51.265625 
Q 38.96875 49.515625 41.15625 46.5 
Q 43.359375 43.5 44.1875 38.484375 
L 35.59375 37.3125 
Q 35.015625 41.3125 32.203125 43.546875 
Q 29.390625 45.796875 24.265625 45.796875 
Q 18.21875 45.796875 15.625 43.796875 
Q 13.03125 41.796875 13.03125 39.109375 
Q 13.03125 37.40625 14.109375 36.03125 
Q 15.1875 34.625 17.484375 33.6875 
Q 18.796875 33.203125 25.25 31.453125 
Q 34.578125 28.953125 38.25 27.359375 
Q 41.9375 25.78125 44.03125 22.75 
Q 46.140625 19.734375 46.140625 15.234375 
Q 46.140625 10.84375 43.578125 6.953125 
Q 41.015625 3.078125 36.171875 0.953125 
Q 31.34375 -1.171875 25.25 -1.171875 
Q 15.140625 -1.171875 9.84375 3.03125 
Q 4.546875 7.234375 3.078125 15.484375 
z
" id="ArialMT-115"/>
      <path d="M 4.5 23 
L 13.421875 23.78125 
Q 14.0625 18.40625 16.375 14.96875 
Q 18.703125 11.53125 23.578125 9.40625 
Q 28.46875 7.28125 34.578125 7.28125 
Q 39.984375 7.28125 44.140625 8.890625 
Q 48.296875 10.5 50.3125 13.296875 
Q 52.34375 16.109375 52.34375 19.4375 
Q 52.34375 22.796875 50.390625 25.3125 
Q 48.4375 27.828125 43.953125 29.546875 
Q 41.0625 30.671875 31.203125 33.03125 
Q 21.34375 35.40625 17.390625 37.5 
Q 12.25 40.1875 9.734375 44.15625 
Q 7.234375 48.140625 7.234375 53.078125 
Q 7.234375 58.5 10.296875 63.203125 
Q 13.375 67.921875 19.28125 70.359375 
Q 25.203125 72.796875 32.421875 72.796875 
Q 40.375 72.796875 46.453125 70.234375 
Q 52.546875 67.671875 55.8125 62.6875 
Q 59.078125 57.71875 59.328125 51.421875 
L 50.25 50.734375 
Q 49.515625 57.515625 45.28125 60.984375 
Q 41.0625 64.453125 32.8125 64.453125 
Q 24.21875 64.453125 20.28125 61.296875 
Q 16.359375 58.15625 16.359375 53.71875 
Q 16.359375 49.859375 19.140625 47.359375 
Q 21.875 44.875 33.421875 42.265625 
Q 44.96875 39.65625 49.265625 37.703125 
Q 55.515625 34.8125 58.484375 30.390625 
Q 61.46875 25.984375 61.46875 20.21875 
Q 61.46875 14.5 58.203125 9.4375 
Q 54.9375 4.390625 48.796875 1.578125 
Q 42.671875 -1.21875 35.015625 -1.21875 
Q 25.296875 -1.21875 18.71875 1.609375 
Q 12.15625 4.4375 8.421875 10.125 
Q 4.6875 15.828125 4.5 23 
z
" id="ArialMT-83"/>
      <path d="M 6.59375 -19.875 
L 6.59375 51.859375 
L 14.59375 51.859375 
L 14.59375 45.125 
Q 17.4375 49.078125 21 51.046875 
Q 24.5625 53.03125 29.640625 53.03125 
Q 36.28125 53.03125 41.359375 49.609375 
Q 46.4375 46.1875 49.015625 39.953125 
Q 51.609375 33.734375 51.609375 26.3125 
Q 51.609375 18.359375 48.75 11.984375 
Q 45.90625 5.609375 40.453125 2.21875 
Q 35.015625 -1.171875 29 -1.171875 
Q 24.609375 -1.171875 21.109375 0.6875 
Q 17.625 2.546875 15.375 5.375 
L 15.375 -19.875 
z
M 14.546875 25.640625 
Q 14.546875 15.625 18.59375 10.84375 
Q 22.65625 6.0625 28.421875 6.0625 
Q 34.28125 6.0625 38.453125 11.015625 
Q 42.625 15.96875 42.625 26.375 
Q 42.625 36.28125 38.546875 41.203125 
Q 34.46875 46.140625 28.8125 46.140625 
Q 23.1875 46.140625 18.859375 40.890625 
Q 14.546875 35.640625 14.546875 25.640625 
z
" id="ArialMT-112"/>
      <path d="M 6.390625 0 
L 6.390625 71.578125 
L 15.1875 71.578125 
L 15.1875 0 
z
" id="ArialMT-108"/>
     </defs>
     <use xlink:href="#ArialMT-84"/>
     <use x="57.333984" xlink:href="#ArialMT-114"/>
     <use x="90.634766" xlink:href="#ArialMT-97"/>
     <use x="146.25" xlink:href="#ArialMT-105"/>
     <use x="168.466797" xlink:href="#ArialMT-110"/>
     <use x="224.082031" xlink:href="#ArialMT-32"/>
     <use x="251.865234" xlink:href="#ArialMT-45"/>
     <use x="285.166016" xlink:href="#ArialMT-32"/>
     <use x="311.199219" xlink:href="#ArialMT-84"/>
     <use x="361.158203" xlink:href="#ArialMT-101"/>
     <use x="416.773438" xlink:href="#ArialMT-115"/>
     <use x="466.773438" xlink:href="#ArialMT-116"/>
     <use x="494.556641" xlink:href="#ArialMT-32"/>
     <use x="522.339844" xlink:href="#ArialMT-83"/>
     <use x="589.039062" xlink:href="#ArialMT-112"/>
     <use x="644.654297" xlink:href="#ArialMT-108"/>
     <use x="666.871094" xlink:href="#ArialMT-105"/>
     <use x="689.087891" xlink:href="#ArialMT-116"/>
    </g>
   </g>
   <g id="legend_1">
    <g id="patch_7">
     <path d="M 56.589063 86.75125 
L 151.789062 86.75125 
Q 153.789062 86.75125 153.789062 84.75125 
L 153.789062 28.935625 
Q 153.789062 26.935625 151.789062 26.935625 
L 56.589063 26.935625 
Q 54.589063 26.935625 54.589063 28.935625 
L 54.589063 84.75125 
Q 54.589063 86.75125 56.589063 86.75125 
z
" style="fill:#e6e6e6;opacity:0.8;stroke:#cccccc;stroke-linejoin:miter;"/>
    </g>
    <g id="line2d_18">
     <path d="M 58.589063 34.593438 
L 78.589063 34.593438 
" style="fill:none;stroke:#000000;stroke-linecap:round;stroke-width:1.5;"/>
    </g>
    <g id="line2d_19"/>
    <g id="text_16">
     <!-- y_train -->
     <g style="fill:#262626;" transform="translate(86.589063 38.093438)scale(0.1 -0.1)">
      <defs>
       <path d="M 6.203125 -19.96875 
L 5.21875 -11.71875 
Q 8.109375 -12.5 10.25 -12.5 
Q 13.1875 -12.5 14.9375 -11.515625 
Q 16.703125 -10.546875 17.828125 -8.796875 
Q 18.65625 -7.46875 20.515625 -2.25 
Q 20.75 -1.515625 21.296875 -0.09375 
L 1.609375 51.859375 
L 11.078125 51.859375 
L 21.875 21.828125 
Q 23.96875 16.109375 25.640625 9.8125 
Q 27.15625 15.875 29.25 21.625 
L 40.328125 51.859375 
L 49.125 51.859375 
L 29.390625 -0.875 
Q 26.21875 -9.421875 24.46875 -12.640625 
Q 22.125 -17 19.09375 -19.015625 
Q 16.0625 -21.046875 11.859375 -21.046875 
Q 9.328125 -21.046875 6.203125 -19.96875 
z
" id="ArialMT-121"/>
       <path d="M -1.515625 -19.875 
L -1.515625 -13.53125 
L 56.734375 -13.53125 
L 56.734375 -19.875 
z
" id="ArialMT-95"/>
      </defs>
      <use xlink:href="#ArialMT-121"/>
      <use x="50" xlink:href="#ArialMT-95"/>
      <use x="105.615234" xlink:href="#ArialMT-116"/>
      <use x="133.398438" xlink:href="#ArialMT-114"/>
      <use x="166.699219" xlink:href="#ArialMT-97"/>
      <use x="222.314453" xlink:href="#ArialMT-105"/>
      <use x="244.53125" xlink:href="#ArialMT-110"/>
     </g>
    </g>
    <g id="line2d_20">
     <path d="M 58.589063 48.855938 
L 78.589063 48.855938 
" style="fill:none;stroke:#c44e52;stroke-linecap:round;stroke-width:1.5;"/>
    </g>
    <g id="line2d_21"/>
    <g id="text_17">
     <!-- y_test -->
     <g style="fill:#262626;" transform="translate(86.589063 52.355938)scale(0.1 -0.1)">
      <use xlink:href="#ArialMT-121"/>
      <use x="50" xlink:href="#ArialMT-95"/>
      <use x="105.615234" xlink:href="#ArialMT-116"/>
      <use x="133.398438" xlink:href="#ArialMT-101"/>
      <use x="189.013672" xlink:href="#ArialMT-115"/>
      <use x="239.013672" xlink:href="#ArialMT-116"/>
     </g>
    </g>
    <g id="line2d_22">
     <path d="M 58.589063 63.118438 
L 78.589063 63.118438 
" style="fill:none;stroke:#da8bc3;stroke-dasharray:5.55,2.4;stroke-dashoffset:0;stroke-width:1.5;"/>
    </g>
    <g id="line2d_23"/>
    <g id="text_18">
     <!-- $2011 \rightarrow 2012$ -->
     <g style="fill:#262626;" transform="translate(86.589063 66.618438)scale(0.1 -0.1)">
      <defs>
       <path d="M 19.1875 8.296875 
L 53.609375 8.296875 
L 53.609375 0 
L 7.328125 0 
L 7.328125 8.296875 
Q 12.9375 14.109375 22.625 23.890625 
Q 32.328125 33.6875 34.8125 36.53125 
Q 39.546875 41.84375 41.421875 45.53125 
Q 43.3125 49.21875 43.3125 52.78125 
Q 43.3125 58.59375 39.234375 62.25 
Q 35.15625 65.921875 28.609375 65.921875 
Q 23.96875 65.921875 18.8125 64.3125 
Q 13.671875 62.703125 7.8125 59.421875 
L 7.8125 69.390625 
Q 13.765625 71.78125 18.9375 73 
Q 24.125 74.21875 28.421875 74.21875 
Q 39.75 74.21875 46.484375 68.546875 
Q 53.21875 62.890625 53.21875 53.421875 
Q 53.21875 48.921875 51.53125 44.890625 
Q 49.859375 40.875 45.40625 35.40625 
Q 44.1875 33.984375 37.640625 27.21875 
Q 31.109375 20.453125 19.1875 8.296875 
z
" id="DejaVuSans-50"/>
       <path d="M 31.78125 66.40625 
Q 24.171875 66.40625 20.328125 58.90625 
Q 16.5 51.421875 16.5 36.375 
Q 16.5 21.390625 20.328125 13.890625 
Q 24.171875 6.390625 31.78125 6.390625 
Q 39.453125 6.390625 43.28125 13.890625 
Q 47.125 21.390625 47.125 36.375 
Q 47.125 51.421875 43.28125 58.90625 
Q 39.453125 66.40625 31.78125 66.40625 
z
M 31.78125 74.21875 
Q 44.046875 74.21875 50.515625 64.515625 
Q 56.984375 54.828125 56.984375 36.375 
Q 56.984375 17.96875 50.515625 8.265625 
Q 44.046875 -1.421875 31.78125 -1.421875 
Q 19.53125 -1.421875 13.0625 8.265625 
Q 6.59375 17.96875 6.59375 36.375 
Q 6.59375 54.828125 13.0625 64.515625 
Q 19.53125 74.21875 31.78125 74.21875 
z
" id="DejaVuSans-48"/>
       <path d="M 12.40625 8.296875 
L 28.515625 8.296875 
L 28.515625 63.921875 
L 10.984375 60.40625 
L 10.984375 69.390625 
L 28.421875 72.90625 
L 38.28125 72.90625 
L 38.28125 8.296875 
L 54.390625 8.296875 
L 54.390625 0 
L 12.40625 0 
z
" id="DejaVuSans-49"/>
       <path d="M 78.90625 33.546875 
L 78.90625 29.15625 
L 59.71875 9.96875 
L 53.859375 15.828125 
L 65.234375 27.203125 
L 5.71875 27.203125 
L 5.71875 35.5 
L 65.234375 35.5 
L 53.859375 46.875 
L 59.71875 52.734375 
z
" id="DejaVuSans-8594"/>
      </defs>
      <use transform="translate(0 0.78125)" xlink:href="#DejaVuSans-50"/>
      <use transform="translate(63.623047 0.78125)" xlink:href="#DejaVuSans-48"/>
      <use transform="translate(127.246094 0.78125)" xlink:href="#DejaVuSans-49"/>
      <use transform="translate(190.869141 0.78125)" xlink:href="#DejaVuSans-49"/>
      <use transform="translate(273.974609 0.78125)" xlink:href="#DejaVuSans-8594"/>
      <use transform="translate(377.246094 0.78125)" xlink:href="#DejaVuSans-50"/>
      <use transform="translate(440.869141 0.78125)" xlink:href="#DejaVuSans-48"/>
      <use transform="translate(504.492188 0.78125)" xlink:href="#DejaVuSans-49"/>
      <use transform="translate(568.115234 0.78125)" xlink:href="#DejaVuSans-50"/>
     </g>
    </g>
    <g id="line2d_24">
     <path d="M 58.589063 77.26375 
L 78.589063 77.26375 
" style="fill:none;stroke:#808080;stroke-dasharray:5.55,2.4;stroke-dashoffset:0;stroke-width:1.5;"/>
    </g>
    <g id="line2d_25"/>
    <g id="text_19">
     <!-- train-test-split -->
     <g style="fill:#262626;" transform="translate(86.589063 80.76375)scale(0.1 -0.1)">
      <use xlink:href="#ArialMT-116"/>
      <use x="27.783203" xlink:href="#ArialMT-114"/>
      <use x="61.083984" xlink:href="#ArialMT-97"/>
      <use x="116.699219" xlink:href="#ArialMT-105"/>
      <use x="138.916016" xlink:href="#ArialMT-110"/>
      <use x="194.53125" xlink:href="#ArialMT-45"/>
      <use x="227.832031" xlink:href="#ArialMT-116"/>
      <use x="255.615234" xlink:href="#ArialMT-101"/>
      <use x="311.230469" xlink:href="#ArialMT-115"/>
      <use x="361.230469" xlink:href="#ArialMT-116"/>
      <use x="389.013672" xlink:href="#ArialMT-45"/>
      <use x="422.314453" xlink:href="#ArialMT-115"/>
      <use x="472.314453" xlink:href="#ArialMT-112"/>
      <use x="527.929688" xlink:href="#ArialMT-108"/>
      <use x="550.146484" xlink:href="#ArialMT-105"/>
      <use x="572.363281" xlink:href="#ArialMT-116"/>
     </g>
    </g>
   </g>
  </g>
 </g>
 <defs>
  <clipPath id="pd640665b0b">
   <rect height="326.16" width="558" x="49.589063" y="21.935625"/>
  </clipPath>
 </defs>
</svg>
