<?xml version="1.0" encoding="UTF-8" standalone="no"?>
<!DOCTYPE svg PUBLIC "-//W3C//DTD SVG 1.1//EN"
 "http://www.w3.org/Graphics/SVG/1.1/DTD/svg11.dtd">
<!-- Generated by graphviz version 13.0.0 (20250608.1624)
 -->
<!-- Pages: 1 -->
<svg width="1191pt" height="333pt"
 viewBox="0.00 0.00 1191.00 333.00" xmlns="http://www.w3.org/2000/svg" xmlns:xlink="http://www.w3.org/1999/xlink">
<g id="graph0" class="graph" transform="scale(1 1) rotate(0) translate(4 328.5)">
<polygon fill="white" stroke="none" points="-4,4 -4,-328.5 1187.14,-328.5 1187.14,4 -4,4"/>
<g id="clust1" class="cluster">
<title>cluster_data</title>
<polygon fill="none" stroke="black" points="446.26,-8 446.26,-84.5 516.26,-84.5 516.26,-8 446.26,-8"/>
<text xml:space="preserve" text-anchor="middle" x="497.01" y="-15.2" font-family="Times,serif" font-size="14.00">data</text>
</g>
<!-- nn/layers.0.bias -->
<g id="node1" class="node">
<title>nn/layers.0.bias</title>
<ellipse fill="white" stroke="black" cx="69.26" cy="-254.5" rx="69.26" ry="18"/>
<text xml:space="preserve" text-anchor="middle" x="69.26" y="-249.45" font-family="Times,serif" font-size="14.00">nn/layers.0.bias</text>
</g>
<!-- p -->
<g id="node7" class="node">
<title>p</title>
<ellipse fill="white" stroke="black" stroke-dasharray="5,2" cx="481.26" cy="-130.5" rx="27" ry="18"/>
<text xml:space="preserve" text-anchor="middle" x="481.26" y="-125.45" font-family="Times,serif" font-size="14.00">p</text>
</g>
<!-- nn/layers.0.bias&#45;&gt;p -->
<g id="edge1" class="edge">
<title>nn/layers.0.bias&#45;&gt;p</title>
<path fill="none" stroke="black" d="M83.4,-236.58C97.92,-220.42 122.04,-196.78 148.26,-184.5 247.09,-138.23 378.54,-131.24 442.72,-130.86"/>
<polygon fill="black" stroke="black" points="442.38,-134.36 452.38,-130.86 442.38,-127.36 442.38,-134.36"/>
</g>
<!-- nn/layers.0.kernel -->
<g id="node2" class="node">
<title>nn/layers.0.kernel</title>
<ellipse fill="white" stroke="black" cx="234.26" cy="-254.5" rx="77.45" ry="18"/>
<text xml:space="preserve" text-anchor="middle" x="234.26" y="-249.45" font-family="Times,serif" font-size="14.00">nn/layers.0.kernel</text>
</g>
<!-- nn/layers.0.kernel&#45;&gt;p -->
<g id="edge2" class="edge">
<title>nn/layers.0.kernel&#45;&gt;p</title>
<path fill="none" stroke="black" d="M251.61,-236.68C268.29,-221.29 294.8,-198.79 321.26,-184.5 361.11,-162.98 411.25,-148.11 444.68,-139.71"/>
<polygon fill="black" stroke="black" points="445.4,-143.14 454.29,-137.37 443.75,-136.34 445.4,-143.14"/>
</g>
<!-- nn/layers.1.bias -->
<g id="node3" class="node">
<title>nn/layers.1.bias</title>
<ellipse fill="white" stroke="black" cx="399.26" cy="-254.5" rx="69.26" ry="18"/>
<text xml:space="preserve" text-anchor="middle" x="399.26" y="-249.45" font-family="Times,serif" font-size="14.00">nn/layers.1.bias</text>
</g>
<!-- nn/layers.1.bias&#45;&gt;p -->
<g id="edge3" class="edge">
<title>nn/layers.1.bias&#45;&gt;p</title>
<path fill="none" stroke="black" d="M410.84,-236.28C424.75,-215.59 448.2,-180.7 464.19,-156.91"/>
<polygon fill="black" stroke="black" points="467.01,-158.98 469.69,-148.73 461.2,-155.07 467.01,-158.98"/>
</g>
<!-- nn/layers.1.kernel -->
<g id="node4" class="node">
<title>nn/layers.1.kernel</title>
<ellipse fill="white" stroke="black" cx="564.26" cy="-254.5" rx="77.45" ry="18"/>
<text xml:space="preserve" text-anchor="middle" x="564.26" y="-249.45" font-family="Times,serif" font-size="14.00">nn/layers.1.kernel</text>
</g>
<!-- nn/layers.1.kernel&#45;&gt;p -->
<g id="edge4" class="edge">
<title>nn/layers.1.kernel&#45;&gt;p</title>
<path fill="none" stroke="black" d="M552.55,-236.28C538.47,-215.59 514.73,-180.7 498.55,-156.91"/>
<polygon fill="black" stroke="black" points="501.5,-155.02 492.98,-148.72 495.71,-158.96 501.5,-155.02"/>
</g>
<!-- nn/layers.2.bias -->
<g id="node5" class="node">
<title>nn/layers.2.bias</title>
<ellipse fill="white" stroke="black" cx="729.26" cy="-254.5" rx="69.26" ry="18"/>
<text xml:space="preserve" text-anchor="middle" x="729.26" y="-249.45" font-family="Times,serif" font-size="14.00">nn/layers.2.bias</text>
</g>
<!-- nn/layers.2.bias&#45;&gt;p -->
<g id="edge5" class="edge">
<title>nn/layers.2.bias&#45;&gt;p</title>
<path fill="none" stroke="black" d="M713.86,-236.5C698.96,-220.97 675.04,-198.39 650.26,-184.5 607.91,-160.76 553.5,-146.14 518.03,-138.42"/>
<polygon fill="black" stroke="black" points="519.2,-135.09 508.7,-136.47 517.77,-141.94 519.2,-135.09"/>
</g>
<!-- nn/layers.2.kernel -->
<g id="node6" class="node">
<title>nn/layers.2.kernel</title>
<ellipse fill="white" stroke="black" cx="894.26" cy="-254.5" rx="77.45" ry="18"/>
<text xml:space="preserve" text-anchor="middle" x="894.26" y="-249.45" font-family="Times,serif" font-size="14.00">nn/layers.2.kernel</text>
</g>
<!-- nn/layers.2.kernel&#45;&gt;p -->
<g id="edge6" class="edge">
<title>nn/layers.2.kernel&#45;&gt;p</title>
<path fill="none" stroke="black" d="M878.34,-236.62C862.07,-220.5 835.3,-196.88 807.26,-184.5 709.94,-141.52 582.45,-133 519.64,-131.57"/>
<polygon fill="black" stroke="black" points="519.9,-128.07 509.84,-131.4 519.78,-135.07 519.9,-128.07"/>
</g>
<!-- y -->
<g id="node8" class="node">
<title>y</title>
<ellipse fill="white" stroke="black" cx="481.26" cy="-58.5" rx="27" ry="18"/>
<text xml:space="preserve" text-anchor="middle" x="481.26" y="-53.45" font-family="Times,serif" font-size="14.00">y</text>
</g>
<!-- p&#45;&gt;y -->
<g id="edge7" class="edge">
<title>p&#45;&gt;y</title>
<path fill="none" stroke="black" d="M481.26,-112.2C481.26,-104.91 481.26,-96.23 481.26,-88.04"/>
<polygon fill="black" stroke="black" points="484.76,-88.12 481.26,-78.12 477.76,-88.12 484.76,-88.12"/>
</g>
<!-- distribution_description_node -->
<g id="node9" class="node">
<title>distribution_description_node</title>
<text xml:space="preserve" text-anchor="start" x="997.39" y="-307.2" font-family="Times,serif" font-size="14.00">nn/layers.0.bias ~ Normal</text>
<text xml:space="preserve" text-anchor="start" x="997.39" y="-290.7" font-family="Times,serif" font-size="14.00">nn/layers.0.kernel ~ SoftLaplace</text>
<text xml:space="preserve" text-anchor="start" x="997.39" y="-274.2" font-family="Times,serif" font-size="14.00">nn/layers.1.bias ~ Normal</text>
<text xml:space="preserve" text-anchor="start" x="997.39" y="-257.7" font-family="Times,serif" font-size="14.00">nn/layers.1.kernel ~ SoftLaplace</text>
<text xml:space="preserve" text-anchor="start" x="997.39" y="-241.2" font-family="Times,serif" font-size="14.00">nn/layers.2.bias ~ Normal</text>
<text xml:space="preserve" text-anchor="start" x="997.39" y="-224.7" font-family="Times,serif" font-size="14.00">nn/layers.2.kernel ~ SoftLaplace</text>
<text xml:space="preserve" text-anchor="start" x="997.39" y="-208.2" font-family="Times,serif" font-size="14.00">p ~ Deterministic</text>
<text xml:space="preserve" text-anchor="start" x="997.39" y="-191.7" font-family="Times,serif" font-size="14.00">y ~ BernoulliProbs</text>
</g>
</g>
</svg>
