<?xml version="1.0" encoding="UTF-8" standalone="no"?>
<!DOCTYPE svg PUBLIC "-//W3C//DTD SVG 1.1//EN"
 "http://www.w3.org/Graphics/SVG/1.1/DTD/svg11.dtd">
<!-- Generated by graphviz version 11.0.0 (20240428.1522)
 -->
<!-- Pages: 1 -->
<svg width="1313pt" height="483pt"
 viewBox="0.00 0.00 1312.58 483.00" xmlns="http://www.w3.org/2000/svg" xmlns:xlink="http://www.w3.org/1999/xlink">
<g id="graph0" class="graph" transform="scale(1 1) rotate(0) translate(4 479)">
<polygon fill="white" stroke="none" points="-4,4 -4,-479 1308.58,-479 1308.58,4 -4,4"/>
<g id="clust1" class="cluster">
<title>cluster_sku_category</title>
<polygon fill="none" stroke="black" points="252.58,-92.5 252.58,-241 819.58,-241 819.58,-92.5 252.58,-92.5"/>
<text text-anchor="middle" x="775.58" y="-99.7" font-family="Times,serif" font-size="14.00">sku_category</text>
</g>
<g id="clust2" class="cluster">
<title>cluster_sku</title>
<polygon fill="none" stroke="black" points="827.58,-92.5 827.58,-169 1114.58,-169 1114.58,-92.5 827.58,-92.5"/>
<text text-anchor="middle" x="1097.2" y="-99.7" font-family="Times,serif" font-size="14.00">sku</text>
</g>
<g id="clust3" class="cluster">
<title>cluster_date</title>
<polygon fill="none" stroke="black" points="1154.58,-92.5 1154.58,-169 1296.58,-169 1296.58,-92.5 1154.58,-92.5"/>
<text text-anchor="middle" x="1277.33" y="-99.7" font-family="Times,serif" font-size="14.00">date</text>
</g>
<g id="clust4" class="cluster">
<title>cluster_data</title>
<polygon fill="none" stroke="black" points="1052.58,-8 1052.58,-84.5 1122.58,-84.5 1122.58,-8 1052.58,-8"/>
<text text-anchor="middle" x="1103.33" y="-15.2" font-family="Times,serif" font-size="14.00">data</text>
</g>
<!-- beta_log_price_loc_loc -->
<g id="node1" class="node">
<title>beta_log_price_loc_loc</title>
<ellipse fill="white" stroke="black" cx="324.58" cy="-372" rx="97.41" ry="18"/>
<text text-anchor="middle" x="324.58" y="-366.95" font-family="Times,serif" font-size="14.00">beta_log_price_loc_loc</text>
</g>
<!-- beta_log_price_loc -->
<g id="node5" class="node">
<title>beta_log_price_loc</title>
<ellipse fill="white" stroke="black" cx="342.58" cy="-215" rx="81.55" ry="18"/>
<text text-anchor="middle" x="342.58" y="-209.95" font-family="Times,serif" font-size="14.00">beta_log_price_loc</text>
</g>
<!-- beta_log_price_loc_loc&#45;&gt;beta_log_price_loc -->
<g id="edge1" class="edge">
<title>beta_log_price_loc_loc&#45;&gt;beta_log_price_loc</title>
<path fill="none" stroke="black" d="M326.61,-353.52C329.69,-326.98 335.58,-276.26 339.28,-244.38"/>
<polygon fill="black" stroke="black" points="342.73,-245.02 340.41,-234.68 335.78,-244.21 342.73,-245.02"/>
</g>
<!-- beta_log_price_loc_scale -->
<g id="node2" class="node">
<title>beta_log_price_loc_scale</title>
<ellipse fill="white" stroke="black" cx="104.58" cy="-372" rx="104.58" ry="18"/>
<text text-anchor="middle" x="104.58" y="-366.95" font-family="Times,serif" font-size="14.00">beta_log_price_loc_scale</text>
</g>
<!-- beta_log_price_loc_scale&#45;&gt;beta_log_price_loc -->
<g id="edge2" class="edge">
<title>beta_log_price_loc_scale&#45;&gt;beta_log_price_loc</title>
<path fill="none" stroke="black" d="M120.18,-353.95C140.94,-332.02 179.6,-293.82 218.58,-269 240.13,-255.28 265.85,-243.62 288.26,-234.77"/>
<polygon fill="black" stroke="black" points="289.47,-238.05 297.55,-231.19 286.96,-231.52 289.47,-238.05"/>
</g>
<!-- beta_log_price_scale_scale -->
<g id="node3" class="node">
<title>beta_log_price_scale_scale</title>
<ellipse fill="white" stroke="black" cx="551.58" cy="-372" rx="111.74" ry="18"/>
<text text-anchor="middle" x="551.58" y="-366.95" font-family="Times,serif" font-size="14.00">beta_log_price_scale_scale</text>
</g>
<!-- beta_log_price_scale -->
<g id="node6" class="node">
<title>beta_log_price_scale</title>
<ellipse fill="white" stroke="black" cx="530.58" cy="-215" rx="88.71" ry="18"/>
<text text-anchor="middle" x="530.58" y="-209.95" font-family="Times,serif" font-size="14.00">beta_log_price_scale</text>
</g>
<!-- beta_log_price_scale_scale&#45;&gt;beta_log_price_scale -->
<g id="edge3" class="edge">
<title>beta_log_price_scale_scale&#45;&gt;beta_log_price_scale</title>
<path fill="none" stroke="black" d="M549.21,-353.52C545.62,-326.98 538.74,-276.26 534.42,-244.38"/>
<polygon fill="black" stroke="black" points="537.92,-244.12 533.11,-234.68 530.98,-245.06 537.92,-244.12"/>
</g>
<!-- sigma_global -->
<g id="node4" class="node">
<title>sigma_global</title>
<ellipse fill="white" stroke="black" cx="742.58" cy="-372" rx="61.08" ry="18"/>
<text text-anchor="middle" x="742.58" y="-366.95" font-family="Times,serif" font-size="14.00">sigma_global</text>
</g>
<!-- sigma_sku_category -->
<g id="node8" class="node">
<title>sigma_sku_category</title>
<ellipse fill="white" stroke="black" cx="724.58" cy="-215" rx="87.18" ry="18"/>
<text text-anchor="middle" x="724.58" y="-209.95" font-family="Times,serif" font-size="14.00">sigma_sku_category</text>
</g>
<!-- sigma_global&#45;&gt;sigma_sku_category -->
<g id="edge6" class="edge">
<title>sigma_global&#45;&gt;sigma_sku_category</title>
<path fill="none" stroke="black" d="M740.55,-353.52C737.47,-326.98 731.58,-276.26 727.88,-244.38"/>
<polygon fill="black" stroke="black" points="731.38,-244.21 726.75,-234.68 724.43,-245.02 731.38,-244.21"/>
</g>
<!-- beta_log_price_prior -->
<g id="node7" class="node">
<title>beta_log_price_prior</title>
<ellipse fill="white" stroke="black" cx="439.58" cy="-143" rx="88.2" ry="18"/>
<text text-anchor="middle" x="439.58" y="-137.95" font-family="Times,serif" font-size="14.00">beta_log_price_prior</text>
</g>
<!-- beta_log_price_loc&#45;&gt;beta_log_price_prior -->
<g id="edge4" class="edge">
<title>beta_log_price_loc&#45;&gt;beta_log_price_prior</title>
<path fill="none" stroke="black" d="M365.57,-197.41C378.04,-188.41 393.66,-177.14 407.33,-167.27"/>
<polygon fill="black" stroke="black" points="409.13,-170.29 415.19,-161.6 405.04,-164.61 409.13,-170.29"/>
</g>
<!-- beta_log_price -->
<g id="node10" class="node">
<title>beta_log_price</title>
<ellipse fill="white" stroke="black" cx="1040.58" cy="-143" rx="65.68" ry="18"/>
<text text-anchor="middle" x="1040.58" y="-137.95" font-family="Times,serif" font-size="14.00">beta_log_price</text>
</g>
<!-- beta_log_price_loc&#45;&gt;beta_log_price -->
<g id="edge7" class="edge">
<title>beta_log_price_loc&#45;&gt;beta_log_price</title>
<path fill="none" stroke="black" d="M400.02,-201.96C410.8,-200.04 422,-198.27 432.58,-197 668.54,-168.66 733.16,-213.67 966.58,-169 975.57,-167.28 984.97,-164.73 993.94,-161.9"/>
<polygon fill="black" stroke="black" points="994.78,-165.31 1003.17,-158.83 992.57,-158.67 994.78,-165.31"/>
</g>
<!-- beta_log_price_scale&#45;&gt;beta_log_price_prior -->
<g id="edge5" class="edge">
<title>beta_log_price_scale&#45;&gt;beta_log_price_prior</title>
<path fill="none" stroke="black" d="M509.01,-197.41C497.43,-188.5 482.94,-177.36 470.2,-167.56"/>
<polygon fill="black" stroke="black" points="472.57,-164.96 462.51,-161.64 468.3,-170.51 472.57,-164.96"/>
</g>
<!-- beta_log_price_scale&#45;&gt;beta_log_price -->
<g id="edge8" class="edge">
<title>beta_log_price_scale&#45;&gt;beta_log_price</title>
<path fill="none" stroke="black" d="M594.24,-202.11C605.65,-200.22 617.45,-198.42 628.58,-197 778.1,-177.88 818.98,-199.57 966.58,-169 975.36,-167.18 984.53,-164.64 993.32,-161.86"/>
<polygon fill="black" stroke="black" points="994.35,-165.2 1002.74,-158.73 992.15,-158.56 994.35,-165.2"/>
</g>
<!-- obs -->
<g id="node12" class="node">
<title>obs</title>
<ellipse fill="grey" stroke="black" cx="1087.58" cy="-58.5" rx="27" ry="18"/>
<text text-anchor="middle" x="1087.58" y="-53.45" font-family="Times,serif" font-size="14.00">obs</text>
</g>
<!-- sigma_sku_category&#45;&gt;obs -->
<g id="edge9" class="edge">
<title>sigma_sku_category&#45;&gt;obs</title>
<path fill="none" stroke="black" d="M809.12,-210.23C918.73,-204.47 1098.35,-191.67 1118.58,-169 1141.22,-143.63 1131.1,-124.11 1118.58,-92.5 1117.01,-88.54 1114.72,-84.78 1112.08,-81.31"/>
<polygon fill="black" stroke="black" points="1114.81,-79.12 1105.54,-73.99 1109.59,-83.78 1114.81,-79.12"/>
</g>
<!-- sku_intercept -->
<g id="node9" class="node">
<title>sku_intercept</title>
<ellipse fill="white" stroke="black" cx="896.58" cy="-143" rx="60.56" ry="18"/>
<text text-anchor="middle" x="896.58" y="-137.95" font-family="Times,serif" font-size="14.00">sku_intercept</text>
</g>
<!-- sku_intercept&#45;&gt;obs -->
<g id="edge10" class="edge">
<title>sku_intercept&#45;&gt;obs</title>
<path fill="none" stroke="black" d="M915.62,-125.47C928.86,-114.73 947.33,-101.16 965.58,-92.5 992.62,-79.66 1025.48,-71.14 1050.28,-65.97"/>
<polygon fill="black" stroke="black" points="1050.79,-69.44 1059.92,-64.06 1049.43,-62.57 1050.79,-69.44"/>
</g>
<!-- beta_log_price&#45;&gt;obs -->
<g id="edge11" class="edge">
<title>beta_log_price&#45;&gt;obs</title>
<path fill="none" stroke="black" d="M1050.32,-124.91C1056.81,-113.51 1065.47,-98.32 1072.8,-85.44"/>
<polygon fill="black" stroke="black" points="1075.68,-87.47 1077.58,-77.05 1069.59,-84 1075.68,-87.47"/>
</g>
<!-- date_intercept -->
<g id="node11" class="node">
<title>date_intercept</title>
<ellipse fill="white" stroke="black" cx="1225.58" cy="-143" rx="63.12" ry="18"/>
<text text-anchor="middle" x="1225.58" y="-137.95" font-family="Times,serif" font-size="14.00">date_intercept</text>
</g>
<!-- date_intercept&#45;&gt;obs -->
<g id="edge12" class="edge">
<title>date_intercept&#45;&gt;obs</title>
<path fill="none" stroke="black" d="M1201.6,-125.92C1186.55,-116 1166.64,-103.17 1148.58,-92.5 1138.91,-86.79 1128.19,-80.86 1118.47,-75.63"/>
<polygon fill="black" stroke="black" points="1120.22,-72.59 1109.74,-70.98 1116.92,-78.77 1120.22,-72.59"/>
</g>
<!-- distribution_description_node -->
<g id="node13" class="node">
<title>distribution_description_node</title>
<text text-anchor="start" x="829.2" y="-457.7" font-family="Times,serif" font-size="14.00">beta_log_price_loc_loc ~ Normal</text>
<text text-anchor="start" x="829.2" y="-441.2" font-family="Times,serif" font-size="14.00">beta_log_price_loc_scale ~ HalfNormal</text>
<text text-anchor="start" x="829.2" y="-424.7" font-family="Times,serif" font-size="14.00">beta_log_price_scale_scale ~ HalfNormal</text>
<text text-anchor="start" x="829.2" y="-408.2" font-family="Times,serif" font-size="14.00">sigma_global ~ HalfNormal</text>
<text text-anchor="start" x="829.2" y="-391.7" font-family="Times,serif" font-size="14.00">beta_log_price_loc ~ Normal</text>
<text text-anchor="start" x="829.2" y="-375.2" font-family="Times,serif" font-size="14.00">beta_log_price_scale ~ HalfNormal</text>
<text text-anchor="start" x="829.2" y="-358.7" font-family="Times,serif" font-size="14.00">beta_log_price_prior ~ Normal</text>
<text text-anchor="start" x="829.2" y="-342.2" font-family="Times,serif" font-size="14.00">sigma_sku_category ~ HalfNormal</text>
<text text-anchor="start" x="829.2" y="-325.7" font-family="Times,serif" font-size="14.00">sku_intercept ~ Normal</text>
<text text-anchor="start" x="829.2" y="-309.2" font-family="Times,serif" font-size="14.00">beta_log_price ~ Normal</text>
<text text-anchor="start" x="829.2" y="-292.7" font-family="Times,serif" font-size="14.00">date_intercept ~ Normal</text>
<text text-anchor="start" x="829.2" y="-276.2" font-family="Times,serif" font-size="14.00">obs ~ Normal</text>
</g>
</g>
</svg>
