<?xml version="1.0" encoding="UTF-8" standalone="no"?>
<!DOCTYPE svg PUBLIC "-//W3C//DTD SVG 1.1//EN"
 "http://www.w3.org/Graphics/SVG/1.1/DTD/svg11.dtd">
<!-- Generated by graphviz version 10.0.1 (20240210.2158)
 -->
<!-- Pages: 1 -->
<svg width="661pt" height="300pt"
 viewBox="0.00 0.00 661.42 299.50" xmlns="http://www.w3.org/2000/svg" xmlns:xlink="http://www.w3.org/1999/xlink">
<g id="graph0" class="graph" transform="scale(1 1) rotate(0) translate(4 295.5)">
<polygon fill="white" stroke="none" points="-4,4 -4,-295.5 657.42,-295.5 657.42,4 -4,4"/>
<g id="clust1" class="cluster">
<title>cluster_basis</title>
<polygon fill="none" stroke="black" points="349.92,-187.5 349.92,-264 419.92,-264 419.92,-187.5 349.92,-187.5"/>
<text text-anchor="middle" x="398.42" y="-194.7" font-family="Times,serif" font-size="14.00">basis</text>
</g>
<g id="clust2" class="cluster">
<title>cluster_data</title>
<polygon fill="none" stroke="black" points="236.92,-8 236.92,-84.5 348.92,-84.5 348.92,-8 236.92,-8"/>
<text text-anchor="middle" x="329.67" y="-15.2" font-family="Times,serif" font-size="14.00">data</text>
</g>
<!-- kernel_amplitude -->
<g id="node1" class="node">
<title>kernel_amplitude</title>
<ellipse fill="white" stroke="black" cx="75.92" cy="-238" rx="75.92" ry="18"/>
<text text-anchor="middle" x="75.92" y="-232.95" font-family="Times,serif" font-size="14.00">kernel_amplitude</text>
</g>
<!-- f -->
<g id="node4" class="node">
<title>f</title>
<ellipse fill="white" stroke="black" stroke-dasharray="5,2" cx="254.92" cy="-130.5" rx="27" ry="18"/>
<text text-anchor="middle" x="254.92" y="-125.45" font-family="Times,serif" font-size="14.00">f</text>
</g>
<!-- kernel_amplitude&#45;&gt;f -->
<g id="edge1" class="edge">
<title>kernel_amplitude&#45;&gt;f</title>
<path fill="none" stroke="black" d="M101.8,-220.65C118.55,-210.15 140.9,-196.32 160.92,-184.5 182.05,-172.02 206.18,-158.43 224.69,-148.14"/>
<polygon fill="black" stroke="black" points="226.24,-151.28 233.29,-143.38 222.85,-145.16 226.24,-151.28"/>
</g>
<!-- kernel_length_scale -->
<g id="node2" class="node">
<title>kernel_length_scale</title>
<ellipse fill="white" stroke="black" cx="254.92" cy="-238" rx="84.62" ry="18"/>
<text text-anchor="middle" x="254.92" y="-232.95" font-family="Times,serif" font-size="14.00">kernel_length_scale</text>
</g>
<!-- kernel_length_scale&#45;&gt;f -->
<g id="edge2" class="edge">
<title>kernel_length_scale&#45;&gt;f</title>
<path fill="none" stroke="black" d="M254.92,-219.58C254.92,-203.47 254.92,-179.22 254.92,-160.24"/>
<polygon fill="black" stroke="black" points="258.42,-160.46 254.92,-150.46 251.42,-160.46 258.42,-160.46"/>
</g>
<!-- noise -->
<g id="node3" class="node">
<title>noise</title>
<ellipse fill="white" stroke="black" cx="329.92" cy="-130.5" rx="30.37" ry="18"/>
<text text-anchor="middle" x="329.92" y="-125.45" font-family="Times,serif" font-size="14.00">noise</text>
</g>
<!-- likelihood -->
<g id="node6" class="node">
<title>likelihood</title>
<ellipse fill="grey" stroke="black" cx="292.92" cy="-58.5" rx="48.28" ry="18"/>
<text text-anchor="middle" x="292.92" y="-53.45" font-family="Times,serif" font-size="14.00">likelihood</text>
</g>
<!-- noise&#45;&gt;likelihood -->
<g id="edge4" class="edge">
<title>noise&#45;&gt;likelihood</title>
<path fill="none" stroke="black" d="M321.15,-112.91C316.97,-105.01 311.87,-95.35 307.16,-86.44"/>
<polygon fill="black" stroke="black" points="310.36,-85 302.59,-77.79 304.17,-88.27 310.36,-85"/>
</g>
<!-- f&#45;&gt;likelihood -->
<g id="edge5" class="edge">
<title>f&#45;&gt;likelihood</title>
<path fill="none" stroke="black" d="M263.73,-113.26C268.02,-105.37 273.29,-95.66 278.16,-86.68"/>
<polygon fill="black" stroke="black" points="281.21,-88.41 282.9,-77.95 275.05,-85.07 281.21,-88.41"/>
</g>
<!-- beta -->
<g id="node5" class="node">
<title>beta</title>
<ellipse fill="white" stroke="black" cx="384.92" cy="-238" rx="27" ry="18"/>
<text text-anchor="middle" x="384.92" y="-232.95" font-family="Times,serif" font-size="14.00">beta</text>
</g>
<!-- beta&#45;&gt;f -->
<g id="edge3" class="edge">
<title>beta&#45;&gt;f</title>
<path fill="none" stroke="black" d="M376.47,-220.87C370.02,-209.67 360.33,-194.95 348.92,-184.5 338.79,-175.23 309.46,-159.2 286.22,-147.19"/>
<polygon fill="black" stroke="black" points="287.91,-144.13 277.41,-142.69 284.72,-150.36 287.91,-144.13"/>
</g>
<!-- distribution_description_node -->
<g id="node7" class="node">
<title>distribution_description_node</title>
<text text-anchor="start" x="438.42" y="-274.2" font-family="Times,serif" font-size="14.00">kernel_amplitude ~ InverseGamma</text>
<text text-anchor="start" x="438.42" y="-257.7" font-family="Times,serif" font-size="14.00">kernel_length_scale ~ InverseGamma</text>
<text text-anchor="start" x="438.42" y="-241.2" font-family="Times,serif" font-size="14.00">noise ~ InverseGamma</text>
<text text-anchor="start" x="438.42" y="-224.7" font-family="Times,serif" font-size="14.00">beta ~ Normal</text>
<text text-anchor="start" x="438.42" y="-208.2" font-family="Times,serif" font-size="14.00">f ~ Deterministic</text>
<text text-anchor="start" x="438.42" y="-191.7" font-family="Times,serif" font-size="14.00">likelihood ~ Normal</text>
</g>
</g>
</svg>
