<?xml version="1.0" encoding="UTF-8" standalone="no"?>
<!DOCTYPE svg PUBLIC "-//W3C//DTD SVG 1.1//EN"
 "http://www.w3.org/Graphics/SVG/1.1/DTD/svg11.dtd">
<!-- Generated by graphviz version 10.0.1 (20240210.2158)
 -->
<!-- Pages: 1 -->
<svg width="717pt" height="478pt"
 viewBox="0.00 0.00 717.33 478.45" xmlns="http://www.w3.org/2000/svg" xmlns:xlink="http://www.w3.org/1999/xlink">
<g id="graph0" class="graph" transform="scale(1 1) rotate(0) translate(4 474.45)">
<polygon fill="white" stroke="none" points="-4,4 -4,-474.45 713.33,-474.45 713.33,4 -4,4"/>
<g id="clust1" class="cluster">
<title>cluster80</title>
<path fill="none" stroke="black" d="M130.33,-8C130.33,-8 222.33,-8 222.33,-8 228.33,-8 234.33,-14 234.33,-20 234.33,-20 234.33,-438.54 234.33,-438.54 234.33,-444.54 228.33,-450.54 222.33,-450.54 222.33,-450.54 130.33,-450.54 130.33,-450.54 124.33,-450.54 118.33,-444.54 118.33,-438.54 118.33,-438.54 118.33,-20 118.33,-20 118.33,-14 124.33,-8 130.33,-8"/>
<text text-anchor="middle" x="219.58" y="-15.2" font-family="Times,serif" font-size="14.00">80</text>
</g>
<g id="clust2" class="cluster">
<title>cluster20</title>
<path fill="none" stroke="black" d="M615.33,-340.63C615.33,-340.63 689.33,-340.63 689.33,-340.63 695.33,-340.63 701.33,-346.63 701.33,-352.63 701.33,-352.63 701.33,-450.45 701.33,-450.45 701.33,-456.45 695.33,-462.45 689.33,-462.45 689.33,-462.45 615.33,-462.45 615.33,-462.45 609.33,-462.45 603.33,-456.45 603.33,-450.45 603.33,-450.45 603.33,-352.63 603.33,-352.63 603.33,-346.63 609.33,-340.63 615.33,-340.63"/>
<text text-anchor="middle" x="686.58" y="-347.83" font-family="Times,serif" font-size="14.00">20</text>
</g>
<!-- f -->
<g id="node1" class="node">
<title>f</title>
<polygon fill="none" stroke="black" points="226.46,-320.73 136.21,-320.73 136.21,-263.23 226.46,-263.23 226.46,-320.73"/>
<text text-anchor="middle" x="181.33" y="-303.43" font-family="Times,serif" font-size="14.00">f</text>
<text text-anchor="middle" x="181.33" y="-286.93" font-family="Times,serif" font-size="14.00">~</text>
<text text-anchor="middle" x="181.33" y="-270.43" font-family="Times,serif" font-size="14.00">Deterministic</text>
</g>
<!-- likelihood -->
<g id="node2" class="node">
<title>likelihood</title>
<ellipse fill="lightgrey" stroke="black" cx="176.33" cy="-174.66" rx="50.03" ry="40.66"/>
<text text-anchor="middle" x="176.33" y="-186.11" font-family="Times,serif" font-size="14.00">likelihood</text>
<text text-anchor="middle" x="176.33" y="-169.61" font-family="Times,serif" font-size="14.00">~</text>
<text text-anchor="middle" x="176.33" y="-153.11" font-family="Times,serif" font-size="14.00">Normal</text>
</g>
<!-- f&#45;&gt;likelihood -->
<g id="edge6" class="edge">
<title>f&#45;&gt;likelihood</title>
<path fill="none" stroke="black" d="M180.11,-262.77C179.64,-251.94 179.09,-239.23 178.55,-226.91"/>
<polygon fill="black" stroke="black" points="182.07,-227.12 178.14,-217.28 175.07,-227.43 182.07,-227.12"/>
</g>
<!-- y_data -->
<g id="node3" class="node">
<title>y_data</title>
<path fill="lightgrey" stroke="black" d="M207.96,-98C207.96,-98 144.71,-98 144.71,-98 138.71,-98 132.71,-92 132.71,-86 132.71,-86 132.71,-52.5 132.71,-52.5 132.71,-46.5 138.71,-40.5 144.71,-40.5 144.71,-40.5 207.96,-40.5 207.96,-40.5 213.96,-40.5 219.96,-46.5 219.96,-52.5 219.96,-52.5 219.96,-86 219.96,-86 219.96,-92 213.96,-98 207.96,-98"/>
<text text-anchor="middle" x="176.33" y="-80.7" font-family="Times,serif" font-size="14.00">y_data</text>
<text text-anchor="middle" x="176.33" y="-64.2" font-family="Times,serif" font-size="14.00">~</text>
<text text-anchor="middle" x="176.33" y="-47.7" font-family="Times,serif" font-size="14.00">MutableData</text>
</g>
<!-- likelihood&#45;&gt;y_data -->
<g id="edge1" class="edge">
<title>likelihood&#45;&gt;y_data</title>
<path fill="none" stroke="black" d="M176.33,-133.68C176.33,-125.83 176.33,-117.6 176.33,-109.76"/>
<polygon fill="black" stroke="black" points="179.83,-109.79 176.33,-99.79 172.83,-109.79 179.83,-109.79"/>
</g>
<!-- x_data -->
<g id="node4" class="node">
<title>x_data</title>
<path fill="lightgrey" stroke="black" d="M212.96,-442.54C212.96,-442.54 149.71,-442.54 149.71,-442.54 143.71,-442.54 137.71,-436.54 137.71,-430.54 137.71,-430.54 137.71,-397.04 137.71,-397.04 137.71,-391.04 143.71,-385.04 149.71,-385.04 149.71,-385.04 212.96,-385.04 212.96,-385.04 218.96,-385.04 224.96,-391.04 224.96,-397.04 224.96,-397.04 224.96,-430.54 224.96,-430.54 224.96,-436.54 218.96,-442.54 212.96,-442.54"/>
<text text-anchor="middle" x="181.33" y="-425.24" font-family="Times,serif" font-size="14.00">x_data</text>
<text text-anchor="middle" x="181.33" y="-408.74" font-family="Times,serif" font-size="14.00">~</text>
<text text-anchor="middle" x="181.33" y="-392.24" font-family="Times,serif" font-size="14.00">MutableData</text>
</g>
<!-- x_data&#45;&gt;f -->
<g id="edge2" class="edge">
<title>x_data&#45;&gt;f</title>
<path fill="none" stroke="black" d="M181.33,-384.7C181.33,-369.08 181.33,-349.39 181.33,-332.26"/>
<polygon fill="black" stroke="black" points="184.83,-332.41 181.33,-322.41 177.83,-332.41 184.83,-332.41"/>
</g>
<!-- kernel_length_scale -->
<g id="node5" class="node">
<title>kernel_length_scale</title>
<ellipse fill="none" stroke="black" cx="330.33" cy="-413.79" rx="87.68" ry="40.66"/>
<text text-anchor="middle" x="330.33" y="-425.24" font-family="Times,serif" font-size="14.00">kernel_length_scale</text>
<text text-anchor="middle" x="330.33" y="-408.74" font-family="Times,serif" font-size="14.00">~</text>
<text text-anchor="middle" x="330.33" y="-392.24" font-family="Times,serif" font-size="14.00">InvGamma</text>
</g>
<!-- kernel_length_scale&#45;&gt;f -->
<g id="edge3" class="edge">
<title>kernel_length_scale&#45;&gt;f</title>
<path fill="none" stroke="black" d="M287.23,-378.14C267.71,-362.43 244.66,-343.9 225.05,-328.14"/>
<polygon fill="black" stroke="black" points="227.48,-325.6 217.49,-322.06 223.09,-331.05 227.48,-325.6"/>
</g>
<!-- noise -->
<g id="node6" class="node">
<title>noise</title>
<ellipse fill="none" stroke="black" cx="55.33" cy="-291.98" rx="55.33" ry="40.66"/>
<text text-anchor="middle" x="55.33" y="-303.43" font-family="Times,serif" font-size="14.00">noise</text>
<text text-anchor="middle" x="55.33" y="-286.93" font-family="Times,serif" font-size="14.00">~</text>
<text text-anchor="middle" x="55.33" y="-270.43" font-family="Times,serif" font-size="14.00">InvGamma</text>
</g>
<!-- noise&#45;&gt;likelihood -->
<g id="edge7" class="edge">
<title>noise&#45;&gt;likelihood</title>
<path fill="none" stroke="black" d="M88.72,-259.16C103.35,-245.21 120.66,-228.72 136.01,-214.09"/>
<polygon fill="black" stroke="black" points="138.39,-216.66 143.21,-207.22 133.56,-211.59 138.39,-216.66"/>
</g>
<!-- kernel_amplitude -->
<g id="node7" class="node">
<title>kernel_amplitude</title>
<ellipse fill="none" stroke="black" cx="514.33" cy="-413.79" rx="78.67" ry="40.66"/>
<text text-anchor="middle" x="514.33" y="-425.24" font-family="Times,serif" font-size="14.00">kernel_amplitude</text>
<text text-anchor="middle" x="514.33" y="-408.74" font-family="Times,serif" font-size="14.00">~</text>
<text text-anchor="middle" x="514.33" y="-392.24" font-family="Times,serif" font-size="14.00">InvGamma</text>
</g>
<!-- kernel_amplitude&#45;&gt;f -->
<g id="edge4" class="edge">
<title>kernel_amplitude&#45;&gt;f</title>
<path fill="none" stroke="black" d="M479.51,-377.04C464.62,-363.69 446.31,-349.61 427.33,-340.63 366.46,-311.84 289.26,-300.44 237.73,-295.93"/>
<polygon fill="black" stroke="black" points="238.26,-292.46 228.01,-295.14 237.7,-299.44 238.26,-292.46"/>
</g>
<!-- beta -->
<g id="node8" class="node">
<title>beta</title>
<ellipse fill="none" stroke="black" cx="652.33" cy="-413.79" rx="41.01" ry="40.66"/>
<text text-anchor="middle" x="652.33" y="-425.24" font-family="Times,serif" font-size="14.00">beta</text>
<text text-anchor="middle" x="652.33" y="-408.74" font-family="Times,serif" font-size="14.00">~</text>
<text text-anchor="middle" x="652.33" y="-392.24" font-family="Times,serif" font-size="14.00">Normal</text>
</g>
<!-- beta&#45;&gt;f -->
<g id="edge5" class="edge">
<title>beta&#45;&gt;f</title>
<path fill="none" stroke="black" d="M635.46,-376.42C627.36,-362.98 616.33,-349 602.33,-340.63 542.21,-304.69 338.52,-295.85 238.16,-293.68"/>
<polygon fill="black" stroke="black" points="238.33,-290.18 228.26,-293.48 238.19,-297.18 238.33,-290.18"/>
</g>
</g>
</svg>
