<?xml version="1.0" encoding="UTF-8" standalone="no"?>
<!DOCTYPE svg PUBLIC "-//W3C//DTD SVG 1.1//EN"
 "http://www.w3.org/Graphics/SVG/1.1/DTD/svg11.dtd">
<!-- Generated by graphviz version 10.0.1 (20240210.2158)
 -->
<!-- Pages: 1 -->
<svg width="599pt" height="380pt"
 viewBox="0.00 0.00 598.68 380.45" xmlns="http://www.w3.org/2000/svg" xmlns:xlink="http://www.w3.org/1999/xlink">
<g id="graph0" class="graph" transform="scale(1 1) rotate(0) translate(4 376.45)">
<polygon fill="white" stroke="none" points="-4,4 -4,-376.45 594.68,-376.45 594.68,4 -4,4"/>
<g id="clust1" class="cluster">
<title>cluster80</title>
<path fill="none" stroke="black" d="M20,-8C20,-8 219,-8 219,-8 225,-8 231,-14 231,-20 231,-20 231,-352.45 231,-352.45 231,-358.45 225,-364.45 219,-364.45 219,-364.45 20,-364.45 20,-364.45 14,-364.45 8,-358.45 8,-352.45 8,-352.45 8,-20 8,-20 8,-14 14,-8 20,-8"/>
<text text-anchor="middle" x="216.25" y="-15.2" font-family="Times,serif" font-size="14.00">80</text>
</g>
<!-- likelihood -->
<g id="node1" class="node">
<title>likelihood</title>
<ellipse fill="lightgrey" stroke="black" cx="173" cy="-81.16" rx="50.03" ry="40.66"/>
<text text-anchor="middle" x="173" y="-92.61" font-family="Times,serif" font-size="14.00">likelihood</text>
<text text-anchor="middle" x="173" y="-76.11" font-family="Times,serif" font-size="14.00">~</text>
<text text-anchor="middle" x="173" y="-59.61" font-family="Times,serif" font-size="14.00">Normal</text>
</g>
<!-- f_rotated_ -->
<g id="node2" class="node">
<title>f_rotated_</title>
<ellipse fill="none" stroke="black" cx="67" cy="-315.79" rx="50.56" ry="40.66"/>
<text text-anchor="middle" x="67" y="-327.24" font-family="Times,serif" font-size="14.00">f_rotated_</text>
<text text-anchor="middle" x="67" y="-310.74" font-family="Times,serif" font-size="14.00">~</text>
<text text-anchor="middle" x="67" y="-294.24" font-family="Times,serif" font-size="14.00">Normal</text>
</g>
<!-- f -->
<g id="node4" class="node">
<title>f</title>
<polygon fill="none" stroke="black" points="222.12,-227.23 131.88,-227.23 131.88,-169.73 222.12,-169.73 222.12,-227.23"/>
<text text-anchor="middle" x="177" y="-209.93" font-family="Times,serif" font-size="14.00">f</text>
<text text-anchor="middle" x="177" y="-193.43" font-family="Times,serif" font-size="14.00">~</text>
<text text-anchor="middle" x="177" y="-176.93" font-family="Times,serif" font-size="14.00">Deterministic</text>
</g>
<!-- f_rotated_&#45;&gt;f -->
<g id="edge3" class="edge">
<title>f_rotated_&#45;&gt;f</title>
<path fill="none" stroke="black" d="M97.35,-282.98C111.3,-268.35 127.92,-250.93 142.36,-235.79"/>
<polygon fill="black" stroke="black" points="144.71,-238.4 149.08,-228.75 139.64,-233.57 144.71,-238.4"/>
</g>
<!-- x_data -->
<g id="node3" class="node">
<title>x_data</title>
<path fill="lightgrey" stroke="black" d="M210.62,-344.54C210.62,-344.54 147.38,-344.54 147.38,-344.54 141.38,-344.54 135.38,-338.54 135.38,-332.54 135.38,-332.54 135.38,-299.04 135.38,-299.04 135.38,-293.04 141.38,-287.04 147.38,-287.04 147.38,-287.04 210.62,-287.04 210.62,-287.04 216.62,-287.04 222.62,-293.04 222.62,-299.04 222.62,-299.04 222.62,-332.54 222.62,-332.54 222.62,-338.54 216.62,-344.54 210.62,-344.54"/>
<text text-anchor="middle" x="179" y="-327.24" font-family="Times,serif" font-size="14.00">x_data</text>
<text text-anchor="middle" x="179" y="-310.74" font-family="Times,serif" font-size="14.00">~</text>
<text text-anchor="middle" x="179" y="-294.24" font-family="Times,serif" font-size="14.00">MutableData</text>
</g>
<!-- x_data&#45;&gt;f -->
<g id="edge4" class="edge">
<title>x_data&#45;&gt;f</title>
<path fill="none" stroke="black" d="M178.51,-286.58C178.26,-272.24 177.96,-254.57 177.68,-238.9"/>
<polygon fill="black" stroke="black" points="181.18,-238.85 177.51,-228.91 174.18,-238.97 181.18,-238.85"/>
</g>
<!-- f&#45;&gt;likelihood -->
<g id="edge6" class="edge">
<title>f&#45;&gt;likelihood</title>
<path fill="none" stroke="black" d="M176.02,-169.27C175.65,-158.44 175.21,-145.73 174.78,-133.41"/>
<polygon fill="black" stroke="black" points="178.29,-133.66 174.44,-123.78 171.29,-133.9 178.29,-133.66"/>
</g>
<!-- kernel_amplitude -->
<g id="node5" class="node">
<title>kernel_amplitude</title>
<ellipse fill="none" stroke="black" cx="319" cy="-315.79" rx="78.67" ry="40.66"/>
<text text-anchor="middle" x="319" y="-327.24" font-family="Times,serif" font-size="14.00">kernel_amplitude</text>
<text text-anchor="middle" x="319" y="-310.74" font-family="Times,serif" font-size="14.00">~</text>
<text text-anchor="middle" x="319" y="-294.24" font-family="Times,serif" font-size="14.00">InvGamma</text>
</g>
<!-- kernel_amplitude&#45;&gt;f -->
<g id="edge1" class="edge">
<title>kernel_amplitude&#45;&gt;f</title>
<path fill="none" stroke="black" d="M277.55,-281.13C259.54,-266.5 238.44,-249.37 220.23,-234.59"/>
<polygon fill="black" stroke="black" points="222.7,-232.08 212.73,-228.49 218.29,-237.51 222.7,-232.08"/>
</g>
<!-- kernel_length_scale -->
<g id="node6" class="node">
<title>kernel_length_scale</title>
<ellipse fill="none" stroke="black" cx="503" cy="-315.79" rx="87.68" ry="40.66"/>
<text text-anchor="middle" x="503" y="-327.24" font-family="Times,serif" font-size="14.00">kernel_length_scale</text>
<text text-anchor="middle" x="503" y="-310.74" font-family="Times,serif" font-size="14.00">~</text>
<text text-anchor="middle" x="503" y="-294.24" font-family="Times,serif" font-size="14.00">InvGamma</text>
</g>
<!-- kernel_length_scale&#45;&gt;f -->
<g id="edge2" class="edge">
<title>kernel_length_scale&#45;&gt;f</title>
<path fill="none" stroke="black" d="M440.36,-286.92C429.37,-282.61 417.95,-278.48 407,-275.13 330.65,-251.79 303.98,-271.52 231,-239.13 227.44,-237.55 223.88,-235.71 220.39,-233.69"/>
<polygon fill="black" stroke="black" points="222.39,-230.81 212.06,-228.45 218.66,-236.74 222.39,-230.81"/>
</g>
<!-- noise -->
<g id="node7" class="node">
<title>noise</title>
<ellipse fill="none" stroke="black" cx="295" cy="-198.48" rx="55.33" ry="40.66"/>
<text text-anchor="middle" x="295" y="-209.93" font-family="Times,serif" font-size="14.00">noise</text>
<text text-anchor="middle" x="295" y="-193.43" font-family="Times,serif" font-size="14.00">~</text>
<text text-anchor="middle" x="295" y="-176.93" font-family="Times,serif" font-size="14.00">InvGamma</text>
</g>
<!-- noise&#45;&gt;likelihood -->
<g id="edge5" class="edge">
<title>noise&#45;&gt;likelihood</title>
<path fill="none" stroke="black" d="M261.34,-165.66C246.58,-151.71 229.13,-135.22 213.65,-120.59"/>
<polygon fill="black" stroke="black" points="216.06,-118.04 206.39,-113.72 211.25,-123.13 216.06,-118.04"/>
</g>
</g>
</svg>
