<?xml version="1.0" encoding="UTF-8" standalone="no"?>
<!DOCTYPE svg PUBLIC "-//W3C//DTD SVG 1.1//EN"
 "http://www.w3.org/Graphics/SVG/1.1/DTD/svg11.dtd">
<!-- Generated by graphviz version 10.0.1 (20240210.2158)
 -->
<!-- Pages: 1 -->
<svg width="667pt" height="154pt"
 viewBox="0.00 0.00 667.42 154.00" xmlns="http://www.w3.org/2000/svg" xmlns:xlink="http://www.w3.org/1999/xlink">
<g id="graph0" class="graph" transform="scale(1 1) rotate(0) translate(4 150)">
<polygon fill="white" stroke="none" points="-4,4 -4,-150 663.42,-150 663.42,4 -4,4"/>
<!-- kernel_amplitude -->
<g id="node1" class="node">
<title>kernel_amplitude</title>
<ellipse fill="white" stroke="black" cx="75.92" cy="-109" rx="75.92" ry="18"/>
<text text-anchor="middle" x="75.92" y="-103.95" font-family="Times,serif" font-size="14.00">kernel_amplitude</text>
</g>
<!-- likelihood -->
<g id="node4" class="node">
<title>likelihood</title>
<ellipse fill="grey" stroke="black" cx="254.92" cy="-18" rx="48.28" ry="18"/>
<text text-anchor="middle" x="254.92" y="-12.95" font-family="Times,serif" font-size="14.00">likelihood</text>
</g>
<!-- kernel_amplitude&#45;&gt;likelihood -->
<g id="edge1" class="edge">
<title>kernel_amplitude&#45;&gt;likelihood</title>
<path fill="none" stroke="black" d="M107.51,-92.29C138.03,-77.12 184.29,-54.12 216.84,-37.94"/>
<polygon fill="black" stroke="black" points="218.13,-41.2 225.53,-33.61 215.01,-34.93 218.13,-41.2"/>
</g>
<!-- kernel_length_scale -->
<g id="node2" class="node">
<title>kernel_length_scale</title>
<ellipse fill="white" stroke="black" cx="254.92" cy="-109" rx="84.62" ry="18"/>
<text text-anchor="middle" x="254.92" y="-103.95" font-family="Times,serif" font-size="14.00">kernel_length_scale</text>
</g>
<!-- kernel_length_scale&#45;&gt;likelihood -->
<g id="edge2" class="edge">
<title>kernel_length_scale&#45;&gt;likelihood</title>
<path fill="none" stroke="black" d="M254.92,-90.84C254.92,-78.61 254.92,-61.87 254.92,-47.63"/>
<polygon fill="black" stroke="black" points="258.42,-47.92 254.92,-37.92 251.42,-47.92 258.42,-47.92"/>
</g>
<!-- noise -->
<g id="node3" class="node">
<title>noise</title>
<ellipse fill="white" stroke="black" cx="387.92" cy="-109" rx="30.37" ry="18"/>
<text text-anchor="middle" x="387.92" y="-103.95" font-family="Times,serif" font-size="14.00">noise</text>
</g>
<!-- noise&#45;&gt;likelihood -->
<g id="edge3" class="edge">
<title>noise&#45;&gt;likelihood</title>
<path fill="none" stroke="black" d="M373.44,-93.12C366.38,-86.27 357.56,-78.29 348.92,-72 331.57,-59.37 310.94,-47.43 293.42,-38.1"/>
<polygon fill="black" stroke="black" points="295.34,-35.15 284.86,-33.62 292.1,-41.35 295.34,-35.15"/>
</g>
<!-- distribution_description_node -->
<g id="node5" class="node">
<title>distribution_description_node</title>
<text text-anchor="start" x="444.42" y="-128.7" font-family="Times,serif" font-size="14.00">kernel_amplitude ~ InverseGamma</text>
<text text-anchor="start" x="444.42" y="-112.2" font-family="Times,serif" font-size="14.00">kernel_length_scale ~ InverseGamma</text>
<text text-anchor="start" x="444.42" y="-95.7" font-family="Times,serif" font-size="14.00">noise ~ InverseGamma</text>
<text text-anchor="start" x="444.42" y="-79.2" font-family="Times,serif" font-size="14.00">likelihood ~ MultivariateNormal</text>
</g>
</g>
</svg>
