<?xml version="1.0" encoding="UTF-8" standalone="no"?>
<!DOCTYPE svg PUBLIC "-//W3C//DTD SVG 1.1//EN"
 "http://www.w3.org/Graphics/SVG/1.1/DTD/svg11.dtd">
<!-- Generated by graphviz version 10.0.1 (20240210.2158)
 -->
<!-- Pages: 1 -->
<svg width="709pt" height="380pt"
 viewBox="0.00 0.00 709.00 380.45" xmlns="http://www.w3.org/2000/svg" xmlns:xlink="http://www.w3.org/1999/xlink">
<g id="graph0" class="graph" transform="scale(1 1) rotate(0) translate(4 376.45)">
<polygon fill="white" stroke="none" points="-4,4 -4,-376.45 705,-376.45 705,4 -4,4"/>
<g id="clust1" class="cluster">
<title>cluster80</title>
<path fill="none" stroke="black" d="M130.33,-8C130.33,-8 329.33,-8 329.33,-8 335.33,-8 341.33,-14 341.33,-20 341.33,-20 341.33,-352.45 341.33,-352.45 341.33,-358.45 335.33,-364.45 329.33,-364.45 329.33,-364.45 130.33,-364.45 130.33,-364.45 124.33,-364.45 118.33,-358.45 118.33,-352.45 118.33,-352.45 118.33,-20 118.33,-20 118.33,-14 124.33,-8 130.33,-8"/>
<text text-anchor="middle" x="326.58" y="-15.2" font-family="Times,serif" font-size="14.00">80</text>
</g>
<!-- f -->
<g id="node1" class="node">
<title>f</title>
<polygon fill="none" stroke="black" points="327.46,-227.23 237.21,-227.23 237.21,-169.73 327.46,-169.73 327.46,-227.23"/>
<text text-anchor="middle" x="282.33" y="-209.93" font-family="Times,serif" font-size="14.00">f</text>
<text text-anchor="middle" x="282.33" y="-193.43" font-family="Times,serif" font-size="14.00">~</text>
<text text-anchor="middle" x="282.33" y="-176.93" font-family="Times,serif" font-size="14.00">Deterministic</text>
</g>
<!-- likelihood -->
<g id="node2" class="node">
<title>likelihood</title>
<ellipse fill="lightgrey" stroke="black" cx="229.33" cy="-81.16" rx="50.03" ry="40.66"/>
<text text-anchor="middle" x="229.33" y="-92.61" font-family="Times,serif" font-size="14.00">likelihood</text>
<text text-anchor="middle" x="229.33" y="-76.11" font-family="Times,serif" font-size="14.00">~</text>
<text text-anchor="middle" x="229.33" y="-59.61" font-family="Times,serif" font-size="14.00">Normal</text>
</g>
<!-- f&#45;&gt;likelihood -->
<g id="edge5" class="edge">
<title>f&#45;&gt;likelihood</title>
<path fill="none" stroke="black" d="M269.37,-169.27C263.9,-157.36 257.37,-143.17 251.2,-129.74"/>
<polygon fill="black" stroke="black" points="254.55,-128.66 247.2,-121.03 248.19,-131.58 254.55,-128.66"/>
</g>
<!-- x_data -->
<g id="node3" class="node">
<title>x_data</title>
<path fill="lightgrey" stroke="black" d="M201.96,-344.54C201.96,-344.54 138.71,-344.54 138.71,-344.54 132.71,-344.54 126.71,-338.54 126.71,-332.54 126.71,-332.54 126.71,-299.04 126.71,-299.04 126.71,-293.04 132.71,-287.04 138.71,-287.04 138.71,-287.04 201.96,-287.04 201.96,-287.04 207.96,-287.04 213.96,-293.04 213.96,-299.04 213.96,-299.04 213.96,-332.54 213.96,-332.54 213.96,-338.54 207.96,-344.54 201.96,-344.54"/>
<text text-anchor="middle" x="170.33" y="-327.24" font-family="Times,serif" font-size="14.00">x_data</text>
<text text-anchor="middle" x="170.33" y="-310.74" font-family="Times,serif" font-size="14.00">~</text>
<text text-anchor="middle" x="170.33" y="-294.24" font-family="Times,serif" font-size="14.00">MutableData</text>
</g>
<!-- x_data&#45;&gt;f -->
<g id="edge1" class="edge">
<title>x_data&#45;&gt;f</title>
<path fill="none" stroke="black" d="M197.73,-286.58C212.76,-271.11 231.54,-251.77 247.59,-235.25"/>
<polygon fill="black" stroke="black" points="249.7,-238.09 254.16,-228.48 244.68,-233.22 249.7,-238.09"/>
</g>
<!-- f_rotated_ -->
<g id="node4" class="node">
<title>f_rotated_</title>
<ellipse fill="none" stroke="black" cx="282.33" cy="-315.79" rx="50.56" ry="40.66"/>
<text text-anchor="middle" x="282.33" y="-327.24" font-family="Times,serif" font-size="14.00">f_rotated_</text>
<text text-anchor="middle" x="282.33" y="-310.74" font-family="Times,serif" font-size="14.00">~</text>
<text text-anchor="middle" x="282.33" y="-294.24" font-family="Times,serif" font-size="14.00">Normal</text>
</g>
<!-- f_rotated_&#45;&gt;f -->
<g id="edge4" class="edge">
<title>f_rotated_&#45;&gt;f</title>
<path fill="none" stroke="black" d="M282.33,-274.78C282.33,-263.08 282.33,-250.29 282.33,-238.64"/>
<polygon fill="black" stroke="black" points="285.83,-238.95 282.33,-228.95 278.83,-238.95 285.83,-238.95"/>
</g>
<!-- kernel_length_scale -->
<g id="node5" class="node">
<title>kernel_length_scale</title>
<ellipse fill="none" stroke="black" cx="438.33" cy="-315.79" rx="87.68" ry="40.66"/>
<text text-anchor="middle" x="438.33" y="-327.24" font-family="Times,serif" font-size="14.00">kernel_length_scale</text>
<text text-anchor="middle" x="438.33" y="-310.74" font-family="Times,serif" font-size="14.00">~</text>
<text text-anchor="middle" x="438.33" y="-294.24" font-family="Times,serif" font-size="14.00">InvGamma</text>
</g>
<!-- kernel_length_scale&#45;&gt;f -->
<g id="edge2" class="edge">
<title>kernel_length_scale&#45;&gt;f</title>
<path fill="none" stroke="black" d="M392.37,-280.82C372.58,-266.19 349.47,-249.11 329.55,-234.38"/>
<polygon fill="black" stroke="black" points="331.69,-231.61 321.57,-228.48 327.53,-237.24 331.69,-231.61"/>
</g>
<!-- noise -->
<g id="node6" class="node">
<title>noise</title>
<ellipse fill="none" stroke="black" cx="55.33" cy="-198.48" rx="55.33" ry="40.66"/>
<text text-anchor="middle" x="55.33" y="-209.93" font-family="Times,serif" font-size="14.00">noise</text>
<text text-anchor="middle" x="55.33" y="-193.43" font-family="Times,serif" font-size="14.00">~</text>
<text text-anchor="middle" x="55.33" y="-176.93" font-family="Times,serif" font-size="14.00">InvGamma</text>
</g>
<!-- noise&#45;&gt;likelihood -->
<g id="edge6" class="edge">
<title>noise&#45;&gt;likelihood</title>
<path fill="none" stroke="black" d="M95.6,-170.33C101.87,-166.13 108.27,-161.85 114.33,-157.82 136.23,-143.25 160.56,-127.22 181.18,-113.69"/>
<polygon fill="black" stroke="black" points="182.97,-116.7 189.41,-108.29 179.13,-110.85 182.97,-116.7"/>
</g>
<!-- kernel_amplitude -->
<g id="node7" class="node">
<title>kernel_amplitude</title>
<ellipse fill="none" stroke="black" cx="622.33" cy="-315.79" rx="78.67" ry="40.66"/>
<text text-anchor="middle" x="622.33" y="-327.24" font-family="Times,serif" font-size="14.00">kernel_amplitude</text>
<text text-anchor="middle" x="622.33" y="-310.74" font-family="Times,serif" font-size="14.00">~</text>
<text text-anchor="middle" x="622.33" y="-294.24" font-family="Times,serif" font-size="14.00">InvGamma</text>
</g>
<!-- kernel_amplitude&#45;&gt;f -->
<g id="edge3" class="edge">
<title>kernel_amplitude&#45;&gt;f</title>
<path fill="none" stroke="black" d="M565.24,-287.43C555.36,-283.08 545.12,-278.81 535.33,-275.13 468.95,-250.21 390.44,-227.79 338.68,-213.94"/>
<polygon fill="black" stroke="black" points="339.76,-210.61 329.2,-211.42 337.97,-217.37 339.76,-210.61"/>
</g>
</g>
</svg>
