<?xml version="1.0" encoding="UTF-8" standalone="no"?>
<!DOCTYPE svg PUBLIC "-//W3C//DTD SVG 1.1//EN"
 "http://www.w3.org/Graphics/SVG/1.1/DTD/svg11.dtd">
<!-- Generated by graphviz version 10.0.1 (20240210.2158)
 -->
<!-- Pages: 1 -->
<svg width="607pt" height="478pt"
 viewBox="0.00 0.00 607.00 478.45" xmlns="http://www.w3.org/2000/svg" xmlns:xlink="http://www.w3.org/1999/xlink">
<g id="graph0" class="graph" transform="scale(1 1) rotate(0) translate(4 474.45)">
<polygon fill="white" stroke="none" points="-4,4 -4,-474.45 603,-474.45 603,4 -4,4"/>
<g id="clust1" class="cluster">
<title>cluster80</title>
<path fill="none" stroke="black" d="M20,-8C20,-8 112,-8 112,-8 118,-8 124,-14 124,-20 124,-20 124,-438.54 124,-438.54 124,-444.54 118,-450.54 112,-450.54 112,-450.54 20,-450.54 20,-450.54 14,-450.54 8,-444.54 8,-438.54 8,-438.54 8,-20 8,-20 8,-14 14,-8 20,-8"/>
<text text-anchor="middle" x="109.25" y="-15.2" font-family="Times,serif" font-size="14.00">80</text>
</g>
<g id="clust2" class="cluster">
<title>cluster20</title>
<path fill="none" stroke="black" d="M505,-340.63C505,-340.63 579,-340.63 579,-340.63 585,-340.63 591,-346.63 591,-352.63 591,-352.63 591,-450.45 591,-450.45 591,-456.45 585,-462.45 579,-462.45 579,-462.45 505,-462.45 505,-462.45 499,-462.45 493,-456.45 493,-450.45 493,-450.45 493,-352.63 493,-352.63 493,-346.63 499,-340.63 505,-340.63"/>
<text text-anchor="middle" x="576.25" y="-347.83" font-family="Times,serif" font-size="14.00">20</text>
</g>
<!-- likelihood -->
<g id="node1" class="node">
<title>likelihood</title>
<ellipse fill="lightgrey" stroke="black" cx="66" cy="-174.66" rx="50.03" ry="40.66"/>
<text text-anchor="middle" x="66" y="-186.11" font-family="Times,serif" font-size="14.00">likelihood</text>
<text text-anchor="middle" x="66" y="-169.61" font-family="Times,serif" font-size="14.00">~</text>
<text text-anchor="middle" x="66" y="-153.11" font-family="Times,serif" font-size="14.00">Normal</text>
</g>
<!-- y_data -->
<g id="node3" class="node">
<title>y_data</title>
<path fill="lightgrey" stroke="black" d="M97.62,-98C97.62,-98 34.38,-98 34.38,-98 28.38,-98 22.38,-92 22.38,-86 22.38,-86 22.38,-52.5 22.38,-52.5 22.38,-46.5 28.38,-40.5 34.38,-40.5 34.38,-40.5 97.62,-40.5 97.62,-40.5 103.62,-40.5 109.62,-46.5 109.62,-52.5 109.62,-52.5 109.62,-86 109.62,-86 109.62,-92 103.62,-98 97.62,-98"/>
<text text-anchor="middle" x="66" y="-80.7" font-family="Times,serif" font-size="14.00">y_data</text>
<text text-anchor="middle" x="66" y="-64.2" font-family="Times,serif" font-size="14.00">~</text>
<text text-anchor="middle" x="66" y="-47.7" font-family="Times,serif" font-size="14.00">MutableData</text>
</g>
<!-- likelihood&#45;&gt;y_data -->
<g id="edge1" class="edge">
<title>likelihood&#45;&gt;y_data</title>
<path fill="none" stroke="black" d="M66,-133.68C66,-125.83 66,-117.6 66,-109.76"/>
<polygon fill="black" stroke="black" points="69.5,-109.79 66,-99.79 62.5,-109.79 69.5,-109.79"/>
</g>
<!-- x_data -->
<g id="node2" class="node">
<title>x_data</title>
<path fill="lightgrey" stroke="black" d="M102.62,-442.54C102.62,-442.54 39.38,-442.54 39.38,-442.54 33.38,-442.54 27.38,-436.54 27.38,-430.54 27.38,-430.54 27.38,-397.04 27.38,-397.04 27.38,-391.04 33.38,-385.04 39.38,-385.04 39.38,-385.04 102.62,-385.04 102.62,-385.04 108.62,-385.04 114.62,-391.04 114.62,-397.04 114.62,-397.04 114.62,-430.54 114.62,-430.54 114.62,-436.54 108.62,-442.54 102.62,-442.54"/>
<text text-anchor="middle" x="71" y="-425.24" font-family="Times,serif" font-size="14.00">x_data</text>
<text text-anchor="middle" x="71" y="-408.74" font-family="Times,serif" font-size="14.00">~</text>
<text text-anchor="middle" x="71" y="-392.24" font-family="Times,serif" font-size="14.00">MutableData</text>
</g>
<!-- f -->
<g id="node4" class="node">
<title>f</title>
<polygon fill="none" stroke="black" points="116.12,-320.73 25.88,-320.73 25.88,-263.23 116.12,-263.23 116.12,-320.73"/>
<text text-anchor="middle" x="71" y="-303.43" font-family="Times,serif" font-size="14.00">f</text>
<text text-anchor="middle" x="71" y="-286.93" font-family="Times,serif" font-size="14.00">~</text>
<text text-anchor="middle" x="71" y="-270.43" font-family="Times,serif" font-size="14.00">Deterministic</text>
</g>
<!-- x_data&#45;&gt;f -->
<g id="edge4" class="edge">
<title>x_data&#45;&gt;f</title>
<path fill="none" stroke="black" d="M71,-384.7C71,-369.08 71,-349.39 71,-332.26"/>
<polygon fill="black" stroke="black" points="74.5,-332.41 71,-322.41 67.5,-332.41 74.5,-332.41"/>
</g>
<!-- f&#45;&gt;likelihood -->
<g id="edge7" class="edge">
<title>f&#45;&gt;likelihood</title>
<path fill="none" stroke="black" d="M69.78,-262.77C69.31,-251.94 68.76,-239.23 68.22,-226.91"/>
<polygon fill="black" stroke="black" points="71.73,-227.12 67.8,-217.28 64.74,-227.43 71.73,-227.12"/>
</g>
<!-- kernel_amplitude -->
<g id="node5" class="node">
<title>kernel_amplitude</title>
<ellipse fill="none" stroke="black" cx="211" cy="-413.79" rx="78.67" ry="40.66"/>
<text text-anchor="middle" x="211" y="-425.24" font-family="Times,serif" font-size="14.00">kernel_amplitude</text>
<text text-anchor="middle" x="211" y="-408.74" font-family="Times,serif" font-size="14.00">~</text>
<text text-anchor="middle" x="211" y="-392.24" font-family="Times,serif" font-size="14.00">InvGamma</text>
</g>
<!-- kernel_amplitude&#45;&gt;f -->
<g id="edge2" class="edge">
<title>kernel_amplitude&#45;&gt;f</title>
<path fill="none" stroke="black" d="M171.87,-378.5C158.06,-366.47 142.38,-352.9 128,-340.63 123.34,-336.66 118.44,-332.52 113.56,-328.41"/>
<polygon fill="black" stroke="black" points="115.92,-325.82 106.01,-322.07 111.42,-331.18 115.92,-325.82"/>
</g>
<!-- kernel_length_scale -->
<g id="node6" class="node">
<title>kernel_length_scale</title>
<ellipse fill="none" stroke="black" cx="395" cy="-413.79" rx="87.68" ry="40.66"/>
<text text-anchor="middle" x="395" y="-425.24" font-family="Times,serif" font-size="14.00">kernel_length_scale</text>
<text text-anchor="middle" x="395" y="-408.74" font-family="Times,serif" font-size="14.00">~</text>
<text text-anchor="middle" x="395" y="-392.24" font-family="Times,serif" font-size="14.00">InvGamma</text>
</g>
<!-- kernel_length_scale&#45;&gt;f -->
<g id="edge3" class="edge">
<title>kernel_length_scale&#45;&gt;f</title>
<path fill="none" stroke="black" d="M358,-376.73C341.34,-362.81 320.58,-348.4 299,-340.63 262.58,-327.53 161.5,-345.53 125,-332.63 120.8,-331.15 116.65,-329.22 112.63,-327.02"/>
<polygon fill="black" stroke="black" points="114.58,-324.11 104.23,-321.86 110.91,-330.07 114.58,-324.11"/>
</g>
<!-- noise -->
<g id="node7" class="node">
<title>noise</title>
<ellipse fill="none" stroke="black" cx="189" cy="-291.98" rx="55.33" ry="40.66"/>
<text text-anchor="middle" x="189" y="-303.43" font-family="Times,serif" font-size="14.00">noise</text>
<text text-anchor="middle" x="189" y="-286.93" font-family="Times,serif" font-size="14.00">~</text>
<text text-anchor="middle" x="189" y="-270.43" font-family="Times,serif" font-size="14.00">InvGamma</text>
</g>
<!-- noise&#45;&gt;likelihood -->
<g id="edge6" class="edge">
<title>noise&#45;&gt;likelihood</title>
<path fill="none" stroke="black" d="M155.39,-259.46C140.25,-245.27 122.24,-228.39 106.37,-213.51"/>
<polygon fill="black" stroke="black" points="109.09,-211.26 99.4,-206.97 104.3,-216.37 109.09,-211.26"/>
</g>
<!-- beta -->
<g id="node8" class="node">
<title>beta</title>
<ellipse fill="none" stroke="black" cx="542" cy="-413.79" rx="41.01" ry="40.66"/>
<text text-anchor="middle" x="542" y="-425.24" font-family="Times,serif" font-size="14.00">beta</text>
<text text-anchor="middle" x="542" y="-408.74" font-family="Times,serif" font-size="14.00">~</text>
<text text-anchor="middle" x="542" y="-392.24" font-family="Times,serif" font-size="14.00">Normal</text>
</g>
<!-- beta&#45;&gt;f -->
<g id="edge5" class="edge">
<title>beta&#45;&gt;f</title>
<path fill="none" stroke="black" d="M525.73,-376.14C517.66,-362.49 506.5,-348.43 492,-340.63 456.08,-321.32 163.62,-345.76 125,-332.63 120.78,-331.2 116.62,-329.31 112.59,-327.13"/>
<polygon fill="black" stroke="black" points="114.54,-324.22 104.18,-322 110.89,-330.19 114.54,-324.22"/>
</g>
</g>
</svg>
