<?xml version="1.0" encoding="UTF-8" standalone="no"?>
<!DOCTYPE svg PUBLIC "-//W3C//DTD SVG 1.1//EN"
 "http://www.w3.org/Graphics/SVG/1.1/DTD/svg11.dtd">
<!-- Generated by graphviz version 2.50.0 (20211204.2007)
 -->
<!-- Pages: 1 -->
<svg width="819pt" height="569pt"
 viewBox="0.00 0.00 819.10 568.77" xmlns="http://www.w3.org/2000/svg" xmlns:xlink="http://www.w3.org/1999/xlink">
<g id="graph0" class="graph" transform="scale(1 1) rotate(0) translate(4 564.77)">
<polygon fill="white" stroke="transparent" points="-4,4 -4,-564.77 815.1,-564.77 815.1,4 -4,4"/>
<g id="clust1" class="cluster">
<title>cluster20</title>
<path fill="none" stroke="black" d="M705.1,-232.91C705.1,-232.91 791.1,-232.91 791.1,-232.91 797.1,-232.91 803.1,-238.91 803.1,-244.91 803.1,-244.91 803.1,-334.86 803.1,-334.86 803.1,-340.86 797.1,-346.86 791.1,-346.86 791.1,-346.86 705.1,-346.86 705.1,-346.86 699.1,-346.86 693.1,-340.86 693.1,-334.86 693.1,-334.86 693.1,-244.91 693.1,-244.91 693.1,-238.91 699.1,-232.91 705.1,-232.91"/>
<text text-anchor="middle" x="788.1" y="-240.71" font-family="Times,serif" font-size="14.00">20</text>
</g>
<g id="clust2" class="cluster">
<title>cluster179</title>
<path fill="none" stroke="black" d="M140.1,-8C140.1,-8 476.1,-8 476.1,-8 482.1,-8 488.1,-14 488.1,-20 488.1,-20 488.1,-434.84 488.1,-434.84 488.1,-440.84 482.1,-446.84 476.1,-446.84 476.1,-446.84 140.1,-446.84 140.1,-446.84 134.1,-446.84 128.1,-440.84 128.1,-434.84 128.1,-434.84 128.1,-20 128.1,-20 128.1,-14 134.1,-8 140.1,-8"/>
<text text-anchor="middle" x="469.6" y="-15.8" font-family="Times,serif" font-size="14.00">179</text>
</g>
<!-- sigma_slope -->
<g id="node1" class="node">
<title>sigma_slope</title>
<ellipse fill="none" stroke="black" cx="60.1" cy="-412.34" rx="60.21" ry="37.45"/>
<text text-anchor="middle" x="60.1" y="-423.64" font-family="Times,serif" font-size="14.00">sigma_slope</text>
<text text-anchor="middle" x="60.1" y="-408.64" font-family="Times,serif" font-size="14.00">~</text>
<text text-anchor="middle" x="60.1" y="-393.64" font-family="Times,serif" font-size="14.00">HalfNormal</text>
</g>
<!-- slopes -->
<g id="node9" class="node">
<title>slopes</title>
<ellipse fill="none" stroke="black" cx="236.1" cy="-301.38" rx="99.9" ry="37.45"/>
<text text-anchor="middle" x="236.1" y="-312.68" font-family="Times,serif" font-size="14.00">slopes</text>
<text text-anchor="middle" x="236.1" y="-297.68" font-family="Times,serif" font-size="14.00">~</text>
<text text-anchor="middle" x="236.1" y="-282.68" font-family="Times,serif" font-size="14.00">GaussianRandomWalk</text>
</g>
<!-- sigma_slope&#45;&gt;slopes -->
<g id="edge4" class="edge">
<title>sigma_slope&#45;&gt;slopes</title>
<path fill="none" stroke="black" d="M102.26,-385.24C124.64,-371.39 152.51,-354.14 177.01,-338.97"/>
<polygon fill="black" stroke="black" points="178.86,-341.94 185.52,-333.7 175.18,-335.99 178.86,-341.94"/>
</g>
<!-- a -->
<g id="node2" class="node">
<title>a</title>
<ellipse fill="none" stroke="black" cx="540.1" cy="-301.38" rx="41.94" ry="37.45"/>
<text text-anchor="middle" x="540.1" y="-312.68" font-family="Times,serif" font-size="14.00">a</text>
<text text-anchor="middle" x="540.1" y="-297.68" font-family="Times,serif" font-size="14.00">~</text>
<text text-anchor="middle" x="540.1" y="-282.68" font-family="Times,serif" font-size="14.00">Normal</text>
</g>
<!-- trend -->
<g id="node10" class="node">
<title>trend</title>
<polygon fill="none" stroke="black" points="370.6,-213.93 279.6,-213.93 279.6,-160.93 370.6,-160.93 370.6,-213.93"/>
<text text-anchor="middle" x="325.1" y="-198.73" font-family="Times,serif" font-size="14.00">trend</text>
<text text-anchor="middle" x="325.1" y="-183.73" font-family="Times,serif" font-size="14.00">~</text>
<text text-anchor="middle" x="325.1" y="-168.73" font-family="Times,serif" font-size="14.00">Deterministic</text>
</g>
<!-- a&#45;&gt;trend -->
<g id="edge1" class="edge">
<title>a&#45;&gt;trend</title>
<path fill="none" stroke="black" d="M524.1,-266.43C516.3,-253.71 505.64,-240.51 492.1,-232.91 470.35,-220.68 403.72,-232.96 380.1,-224.91 375.53,-223.35 370.97,-221.31 366.55,-219"/>
<polygon fill="black" stroke="black" points="368.11,-215.86 357.7,-213.93 364.64,-221.94 368.11,-215.86"/>
</g>
<!-- sigma -->
<g id="node3" class="node">
<title>sigma</title>
<ellipse fill="none" stroke="black" cx="556.1" cy="-187.43" rx="58.88" ry="37.45"/>
<text text-anchor="middle" x="556.1" y="-198.73" font-family="Times,serif" font-size="14.00">sigma</text>
<text text-anchor="middle" x="556.1" y="-183.73" font-family="Times,serif" font-size="14.00">~</text>
<text text-anchor="middle" x="556.1" y="-168.73" font-family="Times,serif" font-size="14.00">HalfNormal</text>
</g>
<!-- likelihood -->
<g id="node12" class="node">
<title>likelihood</title>
<ellipse fill="lightgrey" stroke="black" cx="377.1" cy="-76.48" rx="50.41" ry="37.45"/>
<text text-anchor="middle" x="377.1" y="-87.78" font-family="Times,serif" font-size="14.00">likelihood</text>
<text text-anchor="middle" x="377.1" y="-72.78" font-family="Times,serif" font-size="14.00">~</text>
<text text-anchor="middle" x="377.1" y="-57.78" font-family="Times,serif" font-size="14.00">Normal</text>
</g>
<!-- sigma&#45;&gt;likelihood -->
<g id="edge11" class="edge">
<title>sigma&#45;&gt;likelihood</title>
<path fill="none" stroke="black" d="M514.14,-160.89C487.19,-144.48 452.14,-123.15 424.24,-106.17"/>
<polygon fill="black" stroke="black" points="425.81,-103.03 415.45,-100.82 422.17,-109.01 425.81,-103.03"/>
</g>
<!-- alpha -->
<g id="node4" class="node">
<title>alpha</title>
<ellipse fill="none" stroke="black" cx="417.1" cy="-523.29" rx="32.55" ry="37.45"/>
<text text-anchor="middle" x="417.1" y="-534.59" font-family="Times,serif" font-size="14.00">alpha</text>
<text text-anchor="middle" x="417.1" y="-519.59" font-family="Times,serif" font-size="14.00">~</text>
<text text-anchor="middle" x="417.1" y="-504.59" font-family="Times,serif" font-size="14.00">Beta</text>
</g>
<!-- z_adstock -->
<g id="node14" class="node">
<title>z_adstock</title>
<polygon fill="none" stroke="black" points="462.6,-438.84 371.6,-438.84 371.6,-385.84 462.6,-385.84 462.6,-438.84"/>
<text text-anchor="middle" x="417.1" y="-423.64" font-family="Times,serif" font-size="14.00">z_adstock</text>
<text text-anchor="middle" x="417.1" y="-408.64" font-family="Times,serif" font-size="14.00">~</text>
<text text-anchor="middle" x="417.1" y="-393.64" font-family="Times,serif" font-size="14.00">Deterministic</text>
</g>
<!-- alpha&#45;&gt;z_adstock -->
<g id="edge5" class="edge">
<title>alpha&#45;&gt;z_adstock</title>
<path fill="none" stroke="black" d="M417.1,-485.71C417.1,-473.97 417.1,-460.98 417.1,-449.29"/>
<polygon fill="black" stroke="black" points="420.6,-448.99 417.1,-438.99 413.6,-448.99 420.6,-448.99"/>
</g>
<!-- b_trend -->
<g id="node5" class="node">
<title>b_trend</title>
<ellipse fill="none" stroke="black" cx="641.1" cy="-301.38" rx="41.94" ry="37.45"/>
<text text-anchor="middle" x="641.1" y="-312.68" font-family="Times,serif" font-size="14.00">b_trend</text>
<text text-anchor="middle" x="641.1" y="-297.68" font-family="Times,serif" font-size="14.00">~</text>
<text text-anchor="middle" x="641.1" y="-282.68" font-family="Times,serif" font-size="14.00">Normal</text>
</g>
<!-- b_trend&#45;&gt;trend -->
<g id="edge2" class="edge">
<title>b_trend&#45;&gt;trend</title>
<path fill="none" stroke="black" d="M624.71,-266.88C616.52,-253.9 605.29,-240.39 591.1,-232.91 570.35,-221.96 402.43,-232.1 380.1,-224.91 375.44,-223.4 370.8,-221.39 366.31,-219.07"/>
<polygon fill="black" stroke="black" points="367.75,-215.86 357.33,-213.95 364.29,-221.94 367.75,-215.86"/>
</g>
<!-- lam -->
<g id="node6" class="node">
<title>lam</title>
<ellipse fill="none" stroke="black" cx="555.1" cy="-412.34" rx="58.88" ry="37.45"/>
<text text-anchor="middle" x="555.1" y="-423.64" font-family="Times,serif" font-size="14.00">lam</text>
<text text-anchor="middle" x="555.1" y="-408.64" font-family="Times,serif" font-size="14.00">~</text>
<text text-anchor="middle" x="555.1" y="-393.64" font-family="Times,serif" font-size="14.00">HalfNormal</text>
</g>
<!-- z_adstock_saturated -->
<g id="node13" class="node">
<title>z_adstock_saturated</title>
<polygon fill="none" stroke="black" points="480.1,-327.88 354.1,-327.88 354.1,-274.88 480.1,-274.88 480.1,-327.88"/>
<text text-anchor="middle" x="417.1" y="-312.68" font-family="Times,serif" font-size="14.00">z_adstock_saturated</text>
<text text-anchor="middle" x="417.1" y="-297.68" font-family="Times,serif" font-size="14.00">~</text>
<text text-anchor="middle" x="417.1" y="-282.68" font-family="Times,serif" font-size="14.00">Deterministic</text>
</g>
<!-- lam&#45;&gt;z_adstock_saturated -->
<g id="edge7" class="edge">
<title>lam&#45;&gt;z_adstock_saturated</title>
<path fill="none" stroke="black" d="M518.85,-382.71C500.12,-367.93 477.2,-349.83 457.87,-334.57"/>
<polygon fill="black" stroke="black" points="459.84,-331.66 449.82,-328.21 455.5,-337.16 459.84,-331.66"/>
</g>
<!-- b_fourier -->
<g id="node7" class="node">
<title>b_fourier</title>
<ellipse fill="none" stroke="black" cx="748.1" cy="-301.38" rx="47.25" ry="37.45"/>
<text text-anchor="middle" x="748.1" y="-312.68" font-family="Times,serif" font-size="14.00">b_fourier</text>
<text text-anchor="middle" x="748.1" y="-297.68" font-family="Times,serif" font-size="14.00">~</text>
<text text-anchor="middle" x="748.1" y="-282.68" font-family="Times,serif" font-size="14.00">Normal</text>
</g>
<!-- seasonality -->
<g id="node8" class="node">
<title>seasonality</title>
<polygon fill="none" stroke="black" points="479.6,-213.93 388.6,-213.93 388.6,-160.93 479.6,-160.93 479.6,-213.93"/>
<text text-anchor="middle" x="434.1" y="-198.73" font-family="Times,serif" font-size="14.00">seasonality</text>
<text text-anchor="middle" x="434.1" y="-183.73" font-family="Times,serif" font-size="14.00">~</text>
<text text-anchor="middle" x="434.1" y="-168.73" font-family="Times,serif" font-size="14.00">Deterministic</text>
</g>
<!-- b_fourier&#45;&gt;seasonality -->
<g id="edge3" class="edge">
<title>b_fourier&#45;&gt;seasonality</title>
<path fill="none" stroke="black" d="M728.89,-266.81C719.57,-253.82 707.12,-240.32 692.1,-232.91 651.42,-212.82 531.22,-239.03 488.1,-224.91 483.51,-223.4 478.94,-221.38 474.52,-219.06"/>
<polygon fill="black" stroke="black" points="476.1,-215.93 465.7,-213.94 472.59,-221.99 476.1,-215.93"/>
</g>
<!-- seasonality&#45;&gt;likelihood -->
<g id="edge13" class="edge">
<title>seasonality&#45;&gt;likelihood</title>
<path fill="none" stroke="black" d="M420.74,-160.89C414.48,-148.93 406.86,-134.35 399.74,-120.74"/>
<polygon fill="black" stroke="black" points="402.65,-118.76 394.92,-111.53 396.45,-122.01 402.65,-118.76"/>
</g>
<!-- z_effect -->
<g id="node11" class="node">
<title>z_effect</title>
<polygon fill="none" stroke="black" points="261.6,-213.93 170.6,-213.93 170.6,-160.93 261.6,-160.93 261.6,-213.93"/>
<text text-anchor="middle" x="216.1" y="-198.73" font-family="Times,serif" font-size="14.00">z_effect</text>
<text text-anchor="middle" x="216.1" y="-183.73" font-family="Times,serif" font-size="14.00">~</text>
<text text-anchor="middle" x="216.1" y="-168.73" font-family="Times,serif" font-size="14.00">Deterministic</text>
</g>
<!-- slopes&#45;&gt;z_effect -->
<g id="edge8" class="edge">
<title>slopes&#45;&gt;z_effect</title>
<path fill="none" stroke="black" d="M229.56,-263.73C227.29,-251.07 224.77,-236.92 222.52,-224.32"/>
<polygon fill="black" stroke="black" points="225.91,-223.41 220.7,-214.18 219.02,-224.64 225.91,-223.41"/>
</g>
<!-- trend&#45;&gt;likelihood -->
<g id="edge12" class="edge">
<title>trend&#45;&gt;likelihood</title>
<path fill="none" stroke="black" d="M337.3,-160.89C342.95,-149.03 349.84,-134.6 356.29,-121.09"/>
<polygon fill="black" stroke="black" points="359.51,-122.47 360.66,-111.94 353.19,-119.45 359.51,-122.47"/>
</g>
<!-- z_effect&#45;&gt;likelihood -->
<g id="edge10" class="edge">
<title>z_effect&#45;&gt;likelihood</title>
<path fill="none" stroke="black" d="M253.85,-160.89C277.21,-145.08 307.34,-124.69 331.97,-108.02"/>
<polygon fill="black" stroke="black" points="334.1,-110.8 340.43,-102.3 330.18,-105 334.1,-110.8"/>
</g>
<!-- z_adstock_saturated&#45;&gt;z_effect -->
<g id="edge9" class="edge">
<title>z_adstock_saturated&#45;&gt;z_effect</title>
<path fill="none" stroke="black" d="M397.26,-274.86C384.16,-259.97 365.66,-242.33 345.1,-232.91 314.63,-218.94 301.59,-236.41 270.1,-224.91 265.86,-223.36 261.64,-221.41 257.52,-219.22"/>
<polygon fill="black" stroke="black" points="259.12,-216.1 248.71,-214.1 255.6,-222.15 259.12,-216.1"/>
</g>
<!-- z_adstock&#45;&gt;z_adstock_saturated -->
<g id="edge6" class="edge">
<title>z_adstock&#45;&gt;z_adstock_saturated</title>
<path fill="none" stroke="black" d="M417.1,-385.79C417.1,-371.69 417.1,-353.94 417.1,-338.44"/>
<polygon fill="black" stroke="black" points="420.6,-338.15 417.1,-328.15 413.6,-338.15 420.6,-338.15"/>
</g>
</g>
</svg>
