<?xml version="1.0" encoding="UTF-8" standalone="no"?>
<!DOCTYPE svg PUBLIC "-//W3C//DTD SVG 1.1//EN"
 "http://www.w3.org/Graphics/SVG/1.1/DTD/svg11.dtd">
<!-- Generated by graphviz version 3.0.0 (20220226.1711)
 -->
<!-- Pages: 1 -->
<svg width="1077pt" height="458pt"
 viewBox="0.00 0.00 1077.13 457.81" xmlns="http://www.w3.org/2000/svg" xmlns:xlink="http://www.w3.org/1999/xlink">
<g id="graph0" class="graph" transform="scale(1 1) rotate(0) translate(4 453.81)">
<polygon fill="white" stroke="transparent" points="-4,4 -4,-453.81 1073.13,-453.81 1073.13,4 -4,4"/>
<g id="clust1" class="cluster">
<title>clusterworkingday (2)</title>
<path fill="none" stroke="black" d="M777.13,-232.91C777.13,-232.91 903.13,-232.91 903.13,-232.91 909.13,-232.91 915.13,-238.91 915.13,-244.91 915.13,-244.91 915.13,-334.86 915.13,-334.86 915.13,-340.86 909.13,-346.86 903.13,-346.86 903.13,-346.86 777.13,-346.86 777.13,-346.86 771.13,-346.86 765.13,-340.86 765.13,-334.86 765.13,-334.86 765.13,-244.91 765.13,-244.91 765.13,-238.91 771.13,-232.91 777.13,-232.91"/>
<text text-anchor="middle" x="864.63" y="-240.71" font-family="Times,serif" font-size="14.00">workingday (2)</text>
</g>
<g id="clust2" class="cluster">
<title>clusterweathersit (3)</title>
<path fill="none" stroke="black" d="M935.13,-232.91C935.13,-232.91 1049.13,-232.91 1049.13,-232.91 1055.13,-232.91 1061.13,-238.91 1061.13,-244.91 1061.13,-244.91 1061.13,-334.86 1061.13,-334.86 1061.13,-340.86 1055.13,-346.86 1049.13,-346.86 1049.13,-346.86 935.13,-346.86 935.13,-346.86 929.13,-346.86 923.13,-340.86 923.13,-334.86 923.13,-334.86 923.13,-244.91 923.13,-244.91 923.13,-238.91 929.13,-232.91 935.13,-232.91"/>
<text text-anchor="middle" x="1015.13" y="-240.71" font-family="Times,serif" font-size="14.00">weathersit (3)</text>
</g>
<g id="clust3" class="cluster">
<title>clusterdate (731)</title>
<path fill="none" stroke="black" d="M106.13,-8C106.13,-8 298.13,-8 298.13,-8 304.13,-8 310.13,-14 310.13,-20 310.13,-20 310.13,-334.86 310.13,-334.86 310.13,-340.86 304.13,-346.86 298.13,-346.86 298.13,-346.86 106.13,-346.86 106.13,-346.86 100.13,-346.86 94.13,-340.86 94.13,-334.86 94.13,-334.86 94.13,-20 94.13,-20 94.13,-14 100.13,-8 106.13,-8"/>
<text text-anchor="middle" x="274.13" y="-15.8" font-family="Times,serif" font-size="14.00">date (731)</text>
</g>
<!-- nu -->
<g id="node1" class="node">
<title>nu</title>
<ellipse fill="none" stroke="black" cx="43.13" cy="-187.43" rx="43.27" ry="37.45"/>
<text text-anchor="middle" x="43.13" y="-198.73" font-family="Times,serif" font-size="14.00">nu</text>
<text text-anchor="middle" x="43.13" y="-183.73" font-family="Times,serif" font-size="14.00">~</text>
<text text-anchor="middle" x="43.13" y="-168.73" font-family="Times,serif" font-size="14.00">Gamma</text>
</g>
<!-- likelihood -->
<g id="node12" class="node">
<title>likelihood</title>
<ellipse fill="lightgrey" stroke="black" cx="252.13" cy="-76.48" rx="50.41" ry="37.45"/>
<text text-anchor="middle" x="252.13" y="-87.78" font-family="Times,serif" font-size="14.00">likelihood</text>
<text text-anchor="middle" x="252.13" y="-72.78" font-family="Times,serif" font-size="14.00">~</text>
<text text-anchor="middle" x="252.13" y="-57.78" font-family="Times,serif" font-size="14.00">StudentT</text>
</g>
<!-- nu&#45;&gt;likelihood -->
<g id="edge10" class="edge">
<title>nu&#45;&gt;likelihood</title>
<path fill="none" stroke="black" d="M73.74,-161.01C79.05,-157.09 84.64,-153.25 90.13,-149.95 124.64,-129.25 166.11,-110.81 198.45,-97.71"/>
<polygon fill="black" stroke="black" points="199.76,-100.95 207.74,-93.99 197.16,-94.45 199.76,-100.95"/>
</g>
<!-- sigma_slope -->
<g id="node2" class="node">
<title>sigma_slope</title>
<ellipse fill="none" stroke="black" cx="202.13" cy="-412.34" rx="60.21" ry="37.45"/>
<text text-anchor="middle" x="202.13" y="-423.64" font-family="Times,serif" font-size="14.00">sigma_slope</text>
<text text-anchor="middle" x="202.13" y="-408.64" font-family="Times,serif" font-size="14.00">~</text>
<text text-anchor="middle" x="202.13" y="-393.64" font-family="Times,serif" font-size="14.00">HalfNormal</text>
</g>
<!-- slopes -->
<g id="node11" class="node">
<title>slopes</title>
<ellipse fill="none" stroke="black" cx="202.13" cy="-301.38" rx="99.9" ry="37.45"/>
<text text-anchor="middle" x="202.13" y="-312.68" font-family="Times,serif" font-size="14.00">slopes</text>
<text text-anchor="middle" x="202.13" y="-297.68" font-family="Times,serif" font-size="14.00">~</text>
<text text-anchor="middle" x="202.13" y="-282.68" font-family="Times,serif" font-size="14.00">GaussianRandomWalk</text>
</g>
<!-- sigma_slope&#45;&gt;slopes -->
<g id="edge1" class="edge">
<title>sigma_slope&#45;&gt;slopes</title>
<path fill="none" stroke="black" d="M202.13,-374.75C202.13,-366.58 202.13,-357.8 202.13,-349.27"/>
<polygon fill="black" stroke="black" points="205.63,-349.06 202.13,-339.06 198.63,-349.06 205.63,-349.06"/>
</g>
<!-- b_windspeed -->
<g id="node3" class="node">
<title>b_windspeed</title>
<ellipse fill="none" stroke="black" cx="382.13" cy="-301.38" rx="62.45" ry="37.45"/>
<text text-anchor="middle" x="382.13" y="-312.68" font-family="Times,serif" font-size="14.00">b_windspeed</text>
<text text-anchor="middle" x="382.13" y="-297.68" font-family="Times,serif" font-size="14.00">~</text>
<text text-anchor="middle" x="382.13" y="-282.68" font-family="Times,serif" font-size="14.00">Normal</text>
</g>
<!-- mu -->
<g id="node10" class="node">
<title>mu</title>
<polygon fill="none" stroke="black" points="301.63,-213.93 210.63,-213.93 210.63,-160.93 301.63,-160.93 301.63,-213.93"/>
<text text-anchor="middle" x="256.13" y="-198.73" font-family="Times,serif" font-size="14.00">mu</text>
<text text-anchor="middle" x="256.13" y="-183.73" font-family="Times,serif" font-size="14.00">~</text>
<text text-anchor="middle" x="256.13" y="-168.73" font-family="Times,serif" font-size="14.00">Deterministic</text>
</g>
<!-- b_windspeed&#45;&gt;mu -->
<g id="edge8" class="edge">
<title>b_windspeed&#45;&gt;mu</title>
<path fill="none" stroke="black" d="M351.79,-268.62C340.3,-257.04 326.91,-244.07 314.13,-232.91 309.37,-228.74 304.26,-224.51 299.12,-220.4"/>
<polygon fill="black" stroke="black" points="301.08,-217.5 291.06,-214.07 296.76,-223 301.08,-217.5"/>
</g>
<!-- b_hum -->
<g id="node4" class="node">
<title>b_hum</title>
<ellipse fill="none" stroke="black" cx="504.13" cy="-301.38" rx="41.94" ry="37.45"/>
<text text-anchor="middle" x="504.13" y="-312.68" font-family="Times,serif" font-size="14.00">b_hum</text>
<text text-anchor="middle" x="504.13" y="-297.68" font-family="Times,serif" font-size="14.00">~</text>
<text text-anchor="middle" x="504.13" y="-282.68" font-family="Times,serif" font-size="14.00">Normal</text>
</g>
<!-- b_hum&#45;&gt;mu -->
<g id="edge4" class="edge">
<title>b_hum&#45;&gt;mu</title>
<path fill="none" stroke="black" d="M487.2,-266.99C478.81,-254.03 467.39,-240.5 453.13,-232.91 425.05,-217.94 340.29,-235.07 310.13,-224.91 305.61,-223.38 301.12,-221.37 296.76,-219.08"/>
<polygon fill="black" stroke="black" points="298.46,-216.01 288.05,-214.03 294.95,-222.07 298.46,-216.01"/>
</g>
<!-- b_t -->
<g id="node5" class="node">
<title>b_t</title>
<ellipse fill="none" stroke="black" cx="605.13" cy="-301.38" rx="41.94" ry="37.45"/>
<text text-anchor="middle" x="605.13" y="-312.68" font-family="Times,serif" font-size="14.00">b_t</text>
<text text-anchor="middle" x="605.13" y="-297.68" font-family="Times,serif" font-size="14.00">~</text>
<text text-anchor="middle" x="605.13" y="-282.68" font-family="Times,serif" font-size="14.00">Normal</text>
</g>
<!-- b_t&#45;&gt;mu -->
<g id="edge5" class="edge">
<title>b_t&#45;&gt;mu</title>
<path fill="none" stroke="black" d="M588.76,-266.84C580.57,-253.86 569.34,-240.35 555.13,-232.91 531.01,-220.26 336.04,-233.3 310.13,-224.91 305.53,-223.42 300.96,-221.41 296.54,-219.09"/>
<polygon fill="black" stroke="black" points="298.12,-215.96 287.71,-213.98 294.61,-222.02 298.12,-215.96"/>
</g>
<!-- intercept -->
<g id="node6" class="node">
<title>intercept</title>
<ellipse fill="none" stroke="black" cx="710.13" cy="-301.38" rx="45.01" ry="37.45"/>
<text text-anchor="middle" x="710.13" y="-312.68" font-family="Times,serif" font-size="14.00">intercept</text>
<text text-anchor="middle" x="710.13" y="-297.68" font-family="Times,serif" font-size="14.00">~</text>
<text text-anchor="middle" x="710.13" y="-282.68" font-family="Times,serif" font-size="14.00">Normal</text>
</g>
<!-- intercept&#45;&gt;mu -->
<g id="edge7" class="edge">
<title>intercept&#45;&gt;mu</title>
<path fill="none" stroke="black" d="M691.91,-266.72C682.98,-253.71 670.93,-240.23 656.13,-232.91 621.67,-215.85 346.77,-236.59 310.13,-224.91 305.53,-223.44 300.95,-221.44 296.53,-219.14"/>
<polygon fill="black" stroke="black" points="298.1,-216.01 287.69,-214.04 294.61,-222.07 298.1,-216.01"/>
</g>
<!-- sigma -->
<g id="node7" class="node">
<title>sigma</title>
<ellipse fill="none" stroke="black" cx="378.13" cy="-187.43" rx="58.88" ry="37.45"/>
<text text-anchor="middle" x="378.13" y="-198.73" font-family="Times,serif" font-size="14.00">sigma</text>
<text text-anchor="middle" x="378.13" y="-183.73" font-family="Times,serif" font-size="14.00">~</text>
<text text-anchor="middle" x="378.13" y="-168.73" font-family="Times,serif" font-size="14.00">HalfNormal</text>
</g>
<!-- sigma&#45;&gt;likelihood -->
<g id="edge11" class="edge">
<title>sigma&#45;&gt;likelihood</title>
<path fill="none" stroke="black" d="M343.7,-156.66C327.8,-142.9 308.81,-126.49 292.26,-112.18"/>
<polygon fill="black" stroke="black" points="294.21,-109.23 284.36,-105.34 289.63,-114.53 294.21,-109.23"/>
</g>
<!-- b_workingday -->
<g id="node8" class="node">
<title>b_workingday</title>
<ellipse fill="none" stroke="black" cx="840.13" cy="-301.38" rx="67.35" ry="37.45"/>
<text text-anchor="middle" x="840.13" y="-312.68" font-family="Times,serif" font-size="14.00">b_workingday</text>
<text text-anchor="middle" x="840.13" y="-297.68" font-family="Times,serif" font-size="14.00">~</text>
<text text-anchor="middle" x="840.13" y="-282.68" font-family="Times,serif" font-size="14.00">Normal</text>
</g>
<!-- b_workingday&#45;&gt;mu -->
<g id="edge2" class="edge">
<title>b_workingday&#45;&gt;mu</title>
<path fill="none" stroke="black" d="M812.52,-267.17C799.39,-253.9 782.54,-240.09 764.13,-232.91 717.13,-214.58 358.24,-240.1 310.13,-224.91 305.52,-223.45 300.94,-221.46 296.52,-219.16"/>
<polygon fill="black" stroke="black" points="298.1,-216.03 287.68,-214.07 294.6,-222.1 298.1,-216.03"/>
</g>
<!-- b_weathersit -->
<g id="node9" class="node">
<title>b_weathersit</title>
<ellipse fill="none" stroke="black" cx="992.13" cy="-301.38" rx="60.62" ry="37.45"/>
<text text-anchor="middle" x="992.13" y="-312.68" font-family="Times,serif" font-size="14.00">b_weathersit</text>
<text text-anchor="middle" x="992.13" y="-297.68" font-family="Times,serif" font-size="14.00">~</text>
<text text-anchor="middle" x="992.13" y="-282.68" font-family="Times,serif" font-size="14.00">Normal</text>
</g>
<!-- b_weathersit&#45;&gt;mu -->
<g id="edge6" class="edge">
<title>b_weathersit&#45;&gt;mu</title>
<path fill="none" stroke="black" d="M965.87,-267.15C953.3,-253.88 937.09,-240.07 919.13,-232.91 887.71,-220.37 342.42,-235.02 310.13,-224.91 305.52,-223.46 300.94,-221.48 296.51,-219.18"/>
<polygon fill="black" stroke="black" points="298.09,-216.05 287.67,-214.1 294.6,-222.12 298.09,-216.05"/>
</g>
<!-- mu&#45;&gt;likelihood -->
<g id="edge9" class="edge">
<title>mu&#45;&gt;likelihood</title>
<path fill="none" stroke="black" d="M255.2,-160.89C254.8,-149.98 254.31,-136.89 253.85,-124.35"/>
<polygon fill="black" stroke="black" points="257.34,-123.87 253.47,-114 250.34,-124.12 257.34,-123.87"/>
</g>
<!-- slopes&#45;&gt;mu -->
<g id="edge3" class="edge">
<title>slopes&#45;&gt;mu</title>
<path fill="none" stroke="black" d="M219.52,-264.34C225.87,-251.18 233.04,-236.32 239.34,-223.26"/>
<polygon fill="black" stroke="black" points="242.55,-224.64 243.74,-214.11 236.25,-221.6 242.55,-224.64"/>
</g>
</g>
</svg>
