<?xml version="1.0" encoding="UTF-8" standalone="no"?>
<!DOCTYPE svg PUBLIC "-//W3C//DTD SVG 1.1//EN"
 "http://www.w3.org/Graphics/SVG/1.1/DTD/svg11.dtd">
<!-- Generated by graphviz version 3.0.0 (20220226.1711)
 -->
<!-- Pages: 1 -->
<svg width="859pt" height="363pt"
 viewBox="0.00 0.00 858.72 362.86" xmlns="http://www.w3.org/2000/svg" xmlns:xlink="http://www.w3.org/1999/xlink">
<g id="graph0" class="graph" transform="scale(1 1) rotate(0) translate(4 358.86)">
<polygon fill="white" stroke="transparent" points="-4,4 -4,-358.86 854.72,-358.86 854.72,4 -4,4"/>
<g id="clust1" class="cluster">
<title>clusterworkingday (2)</title>
<path fill="none" stroke="black" d="M558.72,-232.91C558.72,-232.91 684.72,-232.91 684.72,-232.91 690.72,-232.91 696.72,-238.91 696.72,-244.91 696.72,-244.91 696.72,-334.86 696.72,-334.86 696.72,-340.86 690.72,-346.86 684.72,-346.86 684.72,-346.86 558.72,-346.86 558.72,-346.86 552.72,-346.86 546.72,-340.86 546.72,-334.86 546.72,-334.86 546.72,-244.91 546.72,-244.91 546.72,-238.91 552.72,-232.91 558.72,-232.91"/>
<text text-anchor="middle" x="646.22" y="-240.71" font-family="Times,serif" font-size="14.00">workingday (2)</text>
</g>
<g id="clust2" class="cluster">
<title>clusterweathersit (3)</title>
<path fill="none" stroke="black" d="M716.72,-232.91C716.72,-232.91 830.72,-232.91 830.72,-232.91 836.72,-232.91 842.72,-238.91 842.72,-244.91 842.72,-244.91 842.72,-334.86 842.72,-334.86 842.72,-340.86 836.72,-346.86 830.72,-346.86 830.72,-346.86 716.72,-346.86 716.72,-346.86 710.72,-346.86 704.72,-340.86 704.72,-334.86 704.72,-334.86 704.72,-244.91 704.72,-244.91 704.72,-238.91 710.72,-232.91 716.72,-232.91"/>
<text text-anchor="middle" x="796.72" y="-240.71" font-family="Times,serif" font-size="14.00">weathersit (3)</text>
</g>
<g id="clust3" class="cluster">
<title>clusterdate (731)</title>
<path fill="none" stroke="black" d="M340.72,-8C340.72,-8 432.72,-8 432.72,-8 438.72,-8 444.72,-14 444.72,-20 444.72,-20 444.72,-209.93 444.72,-209.93 444.72,-215.93 438.72,-221.93 432.72,-221.93 432.72,-221.93 340.72,-221.93 340.72,-221.93 334.72,-221.93 328.72,-215.93 328.72,-209.93 328.72,-209.93 328.72,-20 328.72,-20 328.72,-14 334.72,-8 340.72,-8"/>
<text text-anchor="middle" x="408.72" y="-15.8" font-family="Times,serif" font-size="14.00">date (731)</text>
</g>
<!-- nu -->
<g id="node1" class="node">
<title>nu</title>
<ellipse fill="none" stroke="black" cx="277.72" cy="-187.43" rx="43.27" ry="37.45"/>
<text text-anchor="middle" x="277.72" y="-198.73" font-family="Times,serif" font-size="14.00">nu</text>
<text text-anchor="middle" x="277.72" y="-183.73" font-family="Times,serif" font-size="14.00">~</text>
<text text-anchor="middle" x="277.72" y="-168.73" font-family="Times,serif" font-size="14.00">Gamma</text>
</g>
<!-- likelihood -->
<g id="node11" class="node">
<title>likelihood</title>
<ellipse fill="lightgrey" stroke="black" cx="386.72" cy="-76.48" rx="50.41" ry="37.45"/>
<text text-anchor="middle" x="386.72" y="-87.78" font-family="Times,serif" font-size="14.00">likelihood</text>
<text text-anchor="middle" x="386.72" y="-72.78" font-family="Times,serif" font-size="14.00">~</text>
<text text-anchor="middle" x="386.72" y="-57.78" font-family="Times,serif" font-size="14.00">StudentT</text>
</g>
<!-- nu&#45;&gt;likelihood -->
<g id="edge9" class="edge">
<title>nu&#45;&gt;likelihood</title>
<path fill="none" stroke="black" d="M305.51,-158.65C318.93,-145.23 335.24,-128.94 349.7,-114.48"/>
<polygon fill="black" stroke="black" points="352.47,-116.66 357.07,-107.11 347.53,-111.7 352.47,-116.66"/>
</g>
<!-- b_temp -->
<g id="node2" class="node">
<title>b_temp</title>
<ellipse fill="none" stroke="black" cx="41.72" cy="-301.38" rx="41.94" ry="37.45"/>
<text text-anchor="middle" x="41.72" y="-312.68" font-family="Times,serif" font-size="14.00">b_temp</text>
<text text-anchor="middle" x="41.72" y="-297.68" font-family="Times,serif" font-size="14.00">~</text>
<text text-anchor="middle" x="41.72" y="-282.68" font-family="Times,serif" font-size="14.00">Normal</text>
</g>
<!-- mu -->
<g id="node10" class="node">
<title>mu</title>
<polygon fill="none" stroke="black" points="432.22,-213.93 341.22,-213.93 341.22,-160.93 432.22,-160.93 432.22,-213.93"/>
<text text-anchor="middle" x="386.72" y="-198.73" font-family="Times,serif" font-size="14.00">mu</text>
<text text-anchor="middle" x="386.72" y="-183.73" font-family="Times,serif" font-size="14.00">~</text>
<text text-anchor="middle" x="386.72" y="-168.73" font-family="Times,serif" font-size="14.00">Deterministic</text>
</g>
<!-- b_temp&#45;&gt;mu -->
<g id="edge5" class="edge">
<title>b_temp&#45;&gt;mu</title>
<path fill="none" stroke="black" d="M58.57,-266.83C66.95,-253.85 78.38,-240.35 92.72,-232.91 116.11,-220.77 304.56,-232.73 329.72,-224.91 334.64,-223.38 339.55,-221.3 344.31,-218.91"/>
<polygon fill="black" stroke="black" points="346.17,-221.88 353.23,-213.98 342.78,-215.75 346.17,-221.88"/>
</g>
<!-- b_windspeed -->
<g id="node3" class="node">
<title>b_windspeed</title>
<ellipse fill="none" stroke="black" cx="163.72" cy="-301.38" rx="62.45" ry="37.45"/>
<text text-anchor="middle" x="163.72" y="-312.68" font-family="Times,serif" font-size="14.00">b_windspeed</text>
<text text-anchor="middle" x="163.72" y="-297.68" font-family="Times,serif" font-size="14.00">~</text>
<text text-anchor="middle" x="163.72" y="-282.68" font-family="Times,serif" font-size="14.00">Normal</text>
</g>
<!-- b_windspeed&#45;&gt;mu -->
<g id="edge7" class="edge">
<title>b_windspeed&#45;&gt;mu</title>
<path fill="none" stroke="black" d="M190.01,-267.05C202.15,-254.1 217.65,-240.57 234.72,-232.91 273.37,-215.55 289.59,-238.5 329.72,-224.91 334.34,-223.34 338.97,-221.32 343.47,-219.04"/>
<polygon fill="black" stroke="black" points="345.45,-221.94 352.51,-214.04 342.07,-215.82 345.45,-221.94"/>
</g>
<!-- b_t -->
<g id="node4" class="node">
<title>b_t</title>
<ellipse fill="none" stroke="black" cx="285.72" cy="-301.38" rx="41.94" ry="37.45"/>
<text text-anchor="middle" x="285.72" y="-312.68" font-family="Times,serif" font-size="14.00">b_t</text>
<text text-anchor="middle" x="285.72" y="-297.68" font-family="Times,serif" font-size="14.00">~</text>
<text text-anchor="middle" x="285.72" y="-282.68" font-family="Times,serif" font-size="14.00">Normal</text>
</g>
<!-- b_t&#45;&gt;mu -->
<g id="edge3" class="edge">
<title>b_t&#45;&gt;mu</title>
<path fill="none" stroke="black" d="M307.03,-268.71C315.45,-257.02 325.53,-243.94 335.72,-232.91 339.46,-228.86 343.53,-224.81 347.7,-220.88"/>
<polygon fill="black" stroke="black" points="350.23,-223.31 355.25,-213.98 345.51,-218.14 350.23,-223.31"/>
</g>
<!-- b_hum -->
<g id="node5" class="node">
<title>b_hum</title>
<ellipse fill="none" stroke="black" cx="386.72" cy="-301.38" rx="41.94" ry="37.45"/>
<text text-anchor="middle" x="386.72" y="-312.68" font-family="Times,serif" font-size="14.00">b_hum</text>
<text text-anchor="middle" x="386.72" y="-297.68" font-family="Times,serif" font-size="14.00">~</text>
<text text-anchor="middle" x="386.72" y="-282.68" font-family="Times,serif" font-size="14.00">Normal</text>
</g>
<!-- b_hum&#45;&gt;mu -->
<g id="edge2" class="edge">
<title>b_hum&#45;&gt;mu</title>
<path fill="none" stroke="black" d="M386.72,-263.73C386.72,-251.07 386.72,-236.92 386.72,-224.32"/>
<polygon fill="black" stroke="black" points="390.22,-224.18 386.72,-214.18 383.22,-224.18 390.22,-224.18"/>
</g>
<!-- intercept -->
<g id="node6" class="node">
<title>intercept</title>
<ellipse fill="none" stroke="black" cx="491.72" cy="-301.38" rx="45.01" ry="37.45"/>
<text text-anchor="middle" x="491.72" y="-312.68" font-family="Times,serif" font-size="14.00">intercept</text>
<text text-anchor="middle" x="491.72" y="-297.68" font-family="Times,serif" font-size="14.00">~</text>
<text text-anchor="middle" x="491.72" y="-282.68" font-family="Times,serif" font-size="14.00">Normal</text>
</g>
<!-- intercept&#45;&gt;mu -->
<g id="edge6" class="edge">
<title>intercept&#45;&gt;mu</title>
<path fill="none" stroke="black" d="M468.37,-268.84C459.24,-257.17 448.41,-244.06 437.72,-232.91 433.91,-228.93 429.78,-224.92 425.59,-221.02"/>
<polygon fill="black" stroke="black" points="427.77,-218.27 418.01,-214.15 423.07,-223.46 427.77,-218.27"/>
</g>
<!-- sigma -->
<g id="node7" class="node">
<title>sigma</title>
<ellipse fill="none" stroke="black" cx="511.72" cy="-187.43" rx="58.88" ry="37.45"/>
<text text-anchor="middle" x="511.72" y="-198.73" font-family="Times,serif" font-size="14.00">sigma</text>
<text text-anchor="middle" x="511.72" y="-183.73" font-family="Times,serif" font-size="14.00">~</text>
<text text-anchor="middle" x="511.72" y="-168.73" font-family="Times,serif" font-size="14.00">HalfNormal</text>
</g>
<!-- sigma&#45;&gt;likelihood -->
<g id="edge10" class="edge">
<title>sigma&#45;&gt;likelihood</title>
<path fill="none" stroke="black" d="M477.56,-156.66C461.91,-143.01 443.24,-126.75 426.92,-112.51"/>
<polygon fill="black" stroke="black" points="428.95,-109.64 419.11,-105.71 424.35,-114.92 428.95,-109.64"/>
</g>
<!-- b_workingday -->
<g id="node8" class="node">
<title>b_workingday</title>
<ellipse fill="none" stroke="black" cx="621.72" cy="-301.38" rx="67.35" ry="37.45"/>
<text text-anchor="middle" x="621.72" y="-312.68" font-family="Times,serif" font-size="14.00">b_workingday</text>
<text text-anchor="middle" x="621.72" y="-297.68" font-family="Times,serif" font-size="14.00">~</text>
<text text-anchor="middle" x="621.72" y="-282.68" font-family="Times,serif" font-size="14.00">Normal</text>
</g>
<!-- b_workingday&#45;&gt;mu -->
<g id="edge1" class="edge">
<title>b_workingday&#45;&gt;mu</title>
<path fill="none" stroke="black" d="M593.54,-267.34C580.42,-254.28 563.74,-240.57 545.72,-232.91 503.87,-215.11 486.83,-239.37 443.72,-224.91 439.09,-223.35 434.46,-221.34 429.96,-219.06"/>
<polygon fill="black" stroke="black" points="431.36,-215.84 420.92,-214.07 427.98,-221.97 431.36,-215.84"/>
</g>
<!-- b_weathersit -->
<g id="node9" class="node">
<title>b_weathersit</title>
<ellipse fill="none" stroke="black" cx="773.72" cy="-301.38" rx="60.62" ry="37.45"/>
<text text-anchor="middle" x="773.72" y="-312.68" font-family="Times,serif" font-size="14.00">b_weathersit</text>
<text text-anchor="middle" x="773.72" y="-297.68" font-family="Times,serif" font-size="14.00">~</text>
<text text-anchor="middle" x="773.72" y="-282.68" font-family="Times,serif" font-size="14.00">Normal</text>
</g>
<!-- b_weathersit&#45;&gt;mu -->
<g id="edge4" class="edge">
<title>b_weathersit&#45;&gt;mu</title>
<path fill="none" stroke="black" d="M747.39,-267.3C734.82,-254.06 718.61,-240.23 700.72,-232.91 674.28,-222.08 471.01,-233.35 443.72,-224.91 438.8,-223.38 433.88,-221.31 429.13,-218.92"/>
<polygon fill="black" stroke="black" points="430.65,-215.76 420.21,-214 427.27,-221.89 430.65,-215.76"/>
</g>
<!-- mu&#45;&gt;likelihood -->
<g id="edge8" class="edge">
<title>mu&#45;&gt;likelihood</title>
<path fill="none" stroke="black" d="M386.72,-160.89C386.72,-149.98 386.72,-136.89 386.72,-124.35"/>
<polygon fill="black" stroke="black" points="390.22,-124 386.72,-114 383.22,-124 390.22,-124"/>
</g>
</g>
</svg>
