<?xml version="1.0" encoding="utf-8" standalone="no"?>
<!DOCTYPE svg PUBLIC "-//W3C//DTD SVG 1.1//EN"
  "http://www.w3.org/Graphics/SVG/1.1/DTD/svg11.dtd">
<svg height="400.2375pt" version="1.1" viewBox="0 0 628.80625 400.2375" width="628.80625pt" xmlns="http://www.w3.org/2000/svg" xmlns:xlink="http://www.w3.org/1999/xlink">
 <metadata>
  <rdf:RDF xmlns:cc="http://creativecommons.org/ns#" xmlns:dc="http://purl.org/dc/elements/1.1/" xmlns:rdf="http://www.w3.org/1999/02/22-rdf-syntax-ns#">
   <cc:Work>
    <dc:type rdf:resource="http://purl.org/dc/dcmitype/StillImage"/>
    <dc:date>2021-10-31T20:15:48.458226</dc:date>
    <dc:format>image/svg+xml</dc:format>
    <dc:creator>
     <cc:Agent>
      <dc:title>Matplotlib v3.4.3, https://matplotlib.org/</dc:title>
     </cc:Agent>
    </dc:creator>
   </cc:Work>
  </rdf:RDF>
 </metadata>
 <defs>
  <style type="text/css">*{stroke-linecap:butt;stroke-linejoin:round;}</style>
 </defs>
 <g id="figure_1">
  <g id="patch_1">
   <path d="M 0 400.2375 
L 628.80625 400.2375 
L 628.80625 0 
L 0 0 
z
" style="fill:#ffffff;"/>
  </g>
  <g id="axes_1">
   <g id="patch_2">
    <path d="M 63.60625 185.694545 
L 621.60625 185.694545 
L 621.60625 37.44 
L 63.60625 37.44 
z
" style="fill:#e6e6e6;"/>
   </g>
   <g id="matplotlib.axis_1">
    <g id="xtick_1">
     <g id="line2d_1">
      <path clip-path="url(#p156ac85af2)" d="M 68.861526 185.694545 
L 68.861526 37.44 
" style="fill:none;stroke:#cccccc;stroke-linecap:round;stroke-width:0.8;"/>
     </g>
     <g id="text_1">
      <!-- −2000 -->
      <g style="fill:#262626;" transform="translate(54.819338 199.852358)scale(0.1 -0.1)">
       <defs>
        <path d="M 3381 1997 
L 356 1997 
L 356 2522 
L 3381 2522 
L 3381 1997 
z
" id="ArialMT-2212" transform="scale(0.015625)"/>
        <path d="M 3222 541 
L 3222 0 
L 194 0 
Q 188 203 259 391 
Q 375 700 629 1000 
Q 884 1300 1366 1694 
Q 2113 2306 2375 2664 
Q 2638 3022 2638 3341 
Q 2638 3675 2398 3904 
Q 2159 4134 1775 4134 
Q 1369 4134 1125 3890 
Q 881 3647 878 3216 
L 300 3275 
Q 359 3922 746 4261 
Q 1134 4600 1788 4600 
Q 2447 4600 2831 4234 
Q 3216 3869 3216 3328 
Q 3216 3053 3103 2787 
Q 2991 2522 2730 2228 
Q 2469 1934 1863 1422 
Q 1356 997 1212 845 
Q 1069 694 975 541 
L 3222 541 
z
" id="ArialMT-32" transform="scale(0.015625)"/>
        <path d="M 266 2259 
Q 266 3072 433 3567 
Q 600 4063 929 4331 
Q 1259 4600 1759 4600 
Q 2128 4600 2406 4451 
Q 2684 4303 2865 4023 
Q 3047 3744 3150 3342 
Q 3253 2941 3253 2259 
Q 3253 1453 3087 958 
Q 2922 463 2592 192 
Q 2263 -78 1759 -78 
Q 1097 -78 719 397 
Q 266 969 266 2259 
z
M 844 2259 
Q 844 1131 1108 757 
Q 1372 384 1759 384 
Q 2147 384 2411 759 
Q 2675 1134 2675 2259 
Q 2675 3391 2411 3762 
Q 2147 4134 1753 4134 
Q 1366 4134 1134 3806 
Q 844 3388 844 2259 
z
" id="ArialMT-30" transform="scale(0.015625)"/>
       </defs>
       <use xlink:href="#ArialMT-2212"/>
       <use x="58.398438" xlink:href="#ArialMT-32"/>
       <use x="114.013672" xlink:href="#ArialMT-30"/>
       <use x="169.628906" xlink:href="#ArialMT-30"/>
       <use x="225.244141" xlink:href="#ArialMT-30"/>
      </g>
     </g>
    </g>
    <g id="xtick_2">
     <g id="line2d_2">
      <path clip-path="url(#p156ac85af2)" d="M 154.836628 185.694545 
L 154.836628 37.44 
" style="fill:none;stroke:#cccccc;stroke-linecap:round;stroke-width:0.8;"/>
     </g>
     <g id="text_2">
      <!-- 0 -->
      <g style="fill:#262626;" transform="translate(152.056159 199.852358)scale(0.1 -0.1)">
       <use xlink:href="#ArialMT-30"/>
      </g>
     </g>
    </g>
    <g id="xtick_3">
     <g id="line2d_3">
      <path clip-path="url(#p156ac85af2)" d="M 240.811729 185.694545 
L 240.811729 37.44 
" style="fill:none;stroke:#cccccc;stroke-linecap:round;stroke-width:0.8;"/>
     </g>
     <g id="text_3">
      <!-- 2000 -->
      <g style="fill:#262626;" transform="translate(229.689854 199.852358)scale(0.1 -0.1)">
       <use xlink:href="#ArialMT-32"/>
       <use x="55.615234" xlink:href="#ArialMT-30"/>
       <use x="111.230469" xlink:href="#ArialMT-30"/>
       <use x="166.845703" xlink:href="#ArialMT-30"/>
      </g>
     </g>
    </g>
    <g id="xtick_4">
     <g id="line2d_4">
      <path clip-path="url(#p156ac85af2)" d="M 326.786831 185.694545 
L 326.786831 37.44 
" style="fill:none;stroke:#cccccc;stroke-linecap:round;stroke-width:0.8;"/>
     </g>
     <g id="text_4">
      <!-- 4000 -->
      <g style="fill:#262626;" transform="translate(315.664956 199.852358)scale(0.1 -0.1)">
       <defs>
        <path d="M 2069 0 
L 2069 1097 
L 81 1097 
L 81 1613 
L 2172 4581 
L 2631 4581 
L 2631 1613 
L 3250 1613 
L 3250 1097 
L 2631 1097 
L 2631 0 
L 2069 0 
z
M 2069 1613 
L 2069 3678 
L 634 1613 
L 2069 1613 
z
" id="ArialMT-34" transform="scale(0.015625)"/>
       </defs>
       <use xlink:href="#ArialMT-34"/>
       <use x="55.615234" xlink:href="#ArialMT-30"/>
       <use x="111.230469" xlink:href="#ArialMT-30"/>
       <use x="166.845703" xlink:href="#ArialMT-30"/>
      </g>
     </g>
    </g>
    <g id="xtick_5">
     <g id="line2d_5">
      <path clip-path="url(#p156ac85af2)" d="M 412.761933 185.694545 
L 412.761933 37.44 
" style="fill:none;stroke:#cccccc;stroke-linecap:round;stroke-width:0.8;"/>
     </g>
     <g id="text_5">
      <!-- 6000 -->
      <g style="fill:#262626;" transform="translate(401.640058 199.852358)scale(0.1 -0.1)">
       <defs>
        <path d="M 3184 3459 
L 2625 3416 
Q 2550 3747 2413 3897 
Q 2184 4138 1850 4138 
Q 1581 4138 1378 3988 
Q 1113 3794 959 3422 
Q 806 3050 800 2363 
Q 1003 2672 1297 2822 
Q 1591 2972 1913 2972 
Q 2475 2972 2870 2558 
Q 3266 2144 3266 1488 
Q 3266 1056 3080 686 
Q 2894 316 2569 119 
Q 2244 -78 1831 -78 
Q 1128 -78 684 439 
Q 241 956 241 2144 
Q 241 3472 731 4075 
Q 1159 4600 1884 4600 
Q 2425 4600 2770 4297 
Q 3116 3994 3184 3459 
z
M 888 1484 
Q 888 1194 1011 928 
Q 1134 663 1356 523 
Q 1578 384 1822 384 
Q 2178 384 2434 671 
Q 2691 959 2691 1453 
Q 2691 1928 2437 2201 
Q 2184 2475 1800 2475 
Q 1419 2475 1153 2201 
Q 888 1928 888 1484 
z
" id="ArialMT-36" transform="scale(0.015625)"/>
       </defs>
       <use xlink:href="#ArialMT-36"/>
       <use x="55.615234" xlink:href="#ArialMT-30"/>
       <use x="111.230469" xlink:href="#ArialMT-30"/>
       <use x="166.845703" xlink:href="#ArialMT-30"/>
      </g>
     </g>
    </g>
    <g id="xtick_6">
     <g id="line2d_6">
      <path clip-path="url(#p156ac85af2)" d="M 498.737035 185.694545 
L 498.737035 37.44 
" style="fill:none;stroke:#cccccc;stroke-linecap:round;stroke-width:0.8;"/>
     </g>
     <g id="text_6">
      <!-- 8000 -->
      <g style="fill:#262626;" transform="translate(487.61516 199.852358)scale(0.1 -0.1)">
       <defs>
        <path d="M 1131 2484 
Q 781 2613 612 2850 
Q 444 3088 444 3419 
Q 444 3919 803 4259 
Q 1163 4600 1759 4600 
Q 2359 4600 2725 4251 
Q 3091 3903 3091 3403 
Q 3091 3084 2923 2848 
Q 2756 2613 2416 2484 
Q 2838 2347 3058 2040 
Q 3278 1734 3278 1309 
Q 3278 722 2862 322 
Q 2447 -78 1769 -78 
Q 1091 -78 675 323 
Q 259 725 259 1325 
Q 259 1772 486 2073 
Q 713 2375 1131 2484 
z
M 1019 3438 
Q 1019 3113 1228 2906 
Q 1438 2700 1772 2700 
Q 2097 2700 2305 2904 
Q 2513 3109 2513 3406 
Q 2513 3716 2298 3927 
Q 2084 4138 1766 4138 
Q 1444 4138 1231 3931 
Q 1019 3725 1019 3438 
z
M 838 1322 
Q 838 1081 952 856 
Q 1066 631 1291 507 
Q 1516 384 1775 384 
Q 2178 384 2440 643 
Q 2703 903 2703 1303 
Q 2703 1709 2433 1975 
Q 2163 2241 1756 2241 
Q 1359 2241 1098 1978 
Q 838 1716 838 1322 
z
" id="ArialMT-38" transform="scale(0.015625)"/>
       </defs>
       <use xlink:href="#ArialMT-38"/>
       <use x="55.615234" xlink:href="#ArialMT-30"/>
       <use x="111.230469" xlink:href="#ArialMT-30"/>
       <use x="166.845703" xlink:href="#ArialMT-30"/>
      </g>
     </g>
    </g>
    <g id="xtick_7">
     <g id="line2d_7">
      <path clip-path="url(#p156ac85af2)" d="M 584.712137 185.694545 
L 584.712137 37.44 
" style="fill:none;stroke:#cccccc;stroke-linecap:round;stroke-width:0.8;"/>
     </g>
     <g id="text_7">
      <!-- 10000 -->
      <g style="fill:#262626;" transform="translate(570.809793 199.852358)scale(0.1 -0.1)">
       <defs>
        <path d="M 2384 0 
L 1822 0 
L 1822 3584 
Q 1619 3391 1289 3197 
Q 959 3003 697 2906 
L 697 3450 
Q 1169 3672 1522 3987 
Q 1875 4303 2022 4600 
L 2384 4600 
L 2384 0 
z
" id="ArialMT-31" transform="scale(0.015625)"/>
       </defs>
       <use xlink:href="#ArialMT-31"/>
       <use x="55.615234" xlink:href="#ArialMT-30"/>
       <use x="111.230469" xlink:href="#ArialMT-30"/>
       <use x="166.845703" xlink:href="#ArialMT-30"/>
       <use x="222.460938" xlink:href="#ArialMT-30"/>
      </g>
     </g>
    </g>
    <g id="text_8">
     <!-- cnt -->
     <g style="fill:#262626;" transform="translate(335.936719 212.99767)scale(0.1 -0.1)">
      <defs>
       <path d="M 2588 1216 
L 3141 1144 
Q 3050 572 2676 248 
Q 2303 -75 1759 -75 
Q 1078 -75 664 370 
Q 250 816 250 1647 
Q 250 2184 428 2587 
Q 606 2991 970 3192 
Q 1334 3394 1763 3394 
Q 2303 3394 2647 3120 
Q 2991 2847 3088 2344 
L 2541 2259 
Q 2463 2594 2264 2762 
Q 2066 2931 1784 2931 
Q 1359 2931 1093 2626 
Q 828 2322 828 1663 
Q 828 994 1084 691 
Q 1341 388 1753 388 
Q 2084 388 2306 591 
Q 2528 794 2588 1216 
z
" id="ArialMT-63" transform="scale(0.015625)"/>
       <path d="M 422 0 
L 422 3319 
L 928 3319 
L 928 2847 
Q 1294 3394 1984 3394 
Q 2284 3394 2536 3286 
Q 2788 3178 2913 3003 
Q 3038 2828 3088 2588 
Q 3119 2431 3119 2041 
L 3119 0 
L 2556 0 
L 2556 2019 
Q 2556 2363 2490 2533 
Q 2425 2703 2258 2804 
Q 2091 2906 1866 2906 
Q 1506 2906 1245 2678 
Q 984 2450 984 1813 
L 984 0 
L 422 0 
z
" id="ArialMT-6e" transform="scale(0.015625)"/>
       <path d="M 1650 503 
L 1731 6 
Q 1494 -44 1306 -44 
Q 1000 -44 831 53 
Q 663 150 594 308 
Q 525 466 525 972 
L 525 2881 
L 113 2881 
L 113 3319 
L 525 3319 
L 525 4141 
L 1084 4478 
L 1084 3319 
L 1650 3319 
L 1650 2881 
L 1084 2881 
L 1084 941 
Q 1084 700 1114 631 
Q 1144 563 1211 522 
Q 1278 481 1403 481 
Q 1497 481 1650 503 
z
" id="ArialMT-74" transform="scale(0.015625)"/>
      </defs>
      <use xlink:href="#ArialMT-63"/>
      <use x="50" xlink:href="#ArialMT-6e"/>
      <use x="105.615234" xlink:href="#ArialMT-74"/>
     </g>
    </g>
   </g>
   <g id="matplotlib.axis_2">
    <g id="ytick_1">
     <g id="line2d_8">
      <path clip-path="url(#p156ac85af2)" d="M 63.60625 185.694545 
L 621.60625 185.694545 
" style="fill:none;stroke:#cccccc;stroke-linecap:round;stroke-width:0.8;"/>
     </g>
     <g id="text_9">
      <!-- 0.00000 -->
      <g style="fill:#262626;" transform="translate(20.4625 189.273452)scale(0.1 -0.1)">
       <defs>
        <path d="M 581 0 
L 581 641 
L 1222 641 
L 1222 0 
L 581 0 
z
" id="ArialMT-2e" transform="scale(0.015625)"/>
       </defs>
       <use xlink:href="#ArialMT-30"/>
       <use x="55.615234" xlink:href="#ArialMT-2e"/>
       <use x="83.398438" xlink:href="#ArialMT-30"/>
       <use x="139.013672" xlink:href="#ArialMT-30"/>
       <use x="194.628906" xlink:href="#ArialMT-30"/>
       <use x="250.244141" xlink:href="#ArialMT-30"/>
       <use x="305.859375" xlink:href="#ArialMT-30"/>
      </g>
     </g>
    </g>
    <g id="ytick_2">
     <g id="line2d_9">
      <path clip-path="url(#p156ac85af2)" d="M 63.60625 151.789739 
L 621.60625 151.789739 
" style="fill:none;stroke:#cccccc;stroke-linecap:round;stroke-width:0.8;"/>
     </g>
     <g id="text_10">
      <!-- 0.00005 -->
      <g style="fill:#262626;" transform="translate(20.4625 155.368645)scale(0.1 -0.1)">
       <defs>
        <path d="M 266 1200 
L 856 1250 
Q 922 819 1161 601 
Q 1400 384 1738 384 
Q 2144 384 2425 690 
Q 2706 997 2706 1503 
Q 2706 1984 2436 2262 
Q 2166 2541 1728 2541 
Q 1456 2541 1237 2417 
Q 1019 2294 894 2097 
L 366 2166 
L 809 4519 
L 3088 4519 
L 3088 3981 
L 1259 3981 
L 1013 2750 
Q 1425 3038 1878 3038 
Q 2478 3038 2890 2622 
Q 3303 2206 3303 1553 
Q 3303 931 2941 478 
Q 2500 -78 1738 -78 
Q 1113 -78 717 272 
Q 322 622 266 1200 
z
" id="ArialMT-35" transform="scale(0.015625)"/>
       </defs>
       <use xlink:href="#ArialMT-30"/>
       <use x="55.615234" xlink:href="#ArialMT-2e"/>
       <use x="83.398438" xlink:href="#ArialMT-30"/>
       <use x="139.013672" xlink:href="#ArialMT-30"/>
       <use x="194.628906" xlink:href="#ArialMT-30"/>
       <use x="250.244141" xlink:href="#ArialMT-30"/>
       <use x="305.859375" xlink:href="#ArialMT-35"/>
      </g>
     </g>
    </g>
    <g id="ytick_3">
     <g id="line2d_10">
      <path clip-path="url(#p156ac85af2)" d="M 63.60625 117.884933 
L 621.60625 117.884933 
" style="fill:none;stroke:#cccccc;stroke-linecap:round;stroke-width:0.8;"/>
     </g>
     <g id="text_11">
      <!-- 0.00010 -->
      <g style="fill:#262626;" transform="translate(20.4625 121.463839)scale(0.1 -0.1)">
       <use xlink:href="#ArialMT-30"/>
       <use x="55.615234" xlink:href="#ArialMT-2e"/>
       <use x="83.398438" xlink:href="#ArialMT-30"/>
       <use x="139.013672" xlink:href="#ArialMT-30"/>
       <use x="194.628906" xlink:href="#ArialMT-30"/>
       <use x="250.244141" xlink:href="#ArialMT-31"/>
       <use x="305.859375" xlink:href="#ArialMT-30"/>
      </g>
     </g>
    </g>
    <g id="ytick_4">
     <g id="line2d_11">
      <path clip-path="url(#p156ac85af2)" d="M 63.60625 83.980126 
L 621.60625 83.980126 
" style="fill:none;stroke:#cccccc;stroke-linecap:round;stroke-width:0.8;"/>
     </g>
     <g id="text_12">
      <!-- 0.00015 -->
      <g style="fill:#262626;" transform="translate(20.4625 87.559032)scale(0.1 -0.1)">
       <use xlink:href="#ArialMT-30"/>
       <use x="55.615234" xlink:href="#ArialMT-2e"/>
       <use x="83.398438" xlink:href="#ArialMT-30"/>
       <use x="139.013672" xlink:href="#ArialMT-30"/>
       <use x="194.628906" xlink:href="#ArialMT-30"/>
       <use x="250.244141" xlink:href="#ArialMT-31"/>
       <use x="305.859375" xlink:href="#ArialMT-35"/>
      </g>
     </g>
    </g>
    <g id="ytick_5">
     <g id="line2d_12">
      <path clip-path="url(#p156ac85af2)" d="M 63.60625 50.07532 
L 621.60625 50.07532 
" style="fill:none;stroke:#cccccc;stroke-linecap:round;stroke-width:0.8;"/>
     </g>
     <g id="text_13">
      <!-- 0.00020 -->
      <g style="fill:#262626;" transform="translate(20.4625 53.654226)scale(0.1 -0.1)">
       <use xlink:href="#ArialMT-30"/>
       <use x="55.615234" xlink:href="#ArialMT-2e"/>
       <use x="83.398438" xlink:href="#ArialMT-30"/>
       <use x="139.013672" xlink:href="#ArialMT-30"/>
       <use x="194.628906" xlink:href="#ArialMT-30"/>
       <use x="250.244141" xlink:href="#ArialMT-32"/>
       <use x="305.859375" xlink:href="#ArialMT-30"/>
      </g>
     </g>
    </g>
    <g id="text_14">
     <!-- Density -->
     <g style="fill:#262626;" transform="translate(14.357813 128.239148)rotate(-90)scale(0.1 -0.1)">
      <defs>
       <path d="M 494 0 
L 494 4581 
L 2072 4581 
Q 2606 4581 2888 4516 
Q 3281 4425 3559 4188 
Q 3922 3881 4101 3404 
Q 4281 2928 4281 2316 
Q 4281 1794 4159 1391 
Q 4038 988 3847 723 
Q 3656 459 3429 307 
Q 3203 156 2883 78 
Q 2563 0 2147 0 
L 494 0 
z
M 1100 541 
L 2078 541 
Q 2531 541 2789 625 
Q 3047 709 3200 863 
Q 3416 1078 3536 1442 
Q 3656 1806 3656 2325 
Q 3656 3044 3420 3430 
Q 3184 3816 2847 3947 
Q 2603 4041 2063 4041 
L 1100 4041 
L 1100 541 
z
" id="ArialMT-44" transform="scale(0.015625)"/>
       <path d="M 2694 1069 
L 3275 997 
Q 3138 488 2766 206 
Q 2394 -75 1816 -75 
Q 1088 -75 661 373 
Q 234 822 234 1631 
Q 234 2469 665 2931 
Q 1097 3394 1784 3394 
Q 2450 3394 2872 2941 
Q 3294 2488 3294 1666 
Q 3294 1616 3291 1516 
L 816 1516 
Q 847 969 1125 678 
Q 1403 388 1819 388 
Q 2128 388 2347 550 
Q 2566 713 2694 1069 
z
M 847 1978 
L 2700 1978 
Q 2663 2397 2488 2606 
Q 2219 2931 1791 2931 
Q 1403 2931 1139 2672 
Q 875 2413 847 1978 
z
" id="ArialMT-65" transform="scale(0.015625)"/>
       <path d="M 197 991 
L 753 1078 
Q 800 744 1014 566 
Q 1228 388 1613 388 
Q 2000 388 2187 545 
Q 2375 703 2375 916 
Q 2375 1106 2209 1216 
Q 2094 1291 1634 1406 
Q 1016 1563 777 1677 
Q 538 1791 414 1992 
Q 291 2194 291 2438 
Q 291 2659 392 2848 
Q 494 3038 669 3163 
Q 800 3259 1026 3326 
Q 1253 3394 1513 3394 
Q 1903 3394 2198 3281 
Q 2494 3169 2634 2976 
Q 2775 2784 2828 2463 
L 2278 2388 
Q 2241 2644 2061 2787 
Q 1881 2931 1553 2931 
Q 1166 2931 1000 2803 
Q 834 2675 834 2503 
Q 834 2394 903 2306 
Q 972 2216 1119 2156 
Q 1203 2125 1616 2013 
Q 2213 1853 2448 1751 
Q 2684 1650 2818 1456 
Q 2953 1263 2953 975 
Q 2953 694 2789 445 
Q 2625 197 2315 61 
Q 2006 -75 1616 -75 
Q 969 -75 630 194 
Q 291 463 197 991 
z
" id="ArialMT-73" transform="scale(0.015625)"/>
       <path d="M 425 3934 
L 425 4581 
L 988 4581 
L 988 3934 
L 425 3934 
z
M 425 0 
L 425 3319 
L 988 3319 
L 988 0 
L 425 0 
z
" id="ArialMT-69" transform="scale(0.015625)"/>
       <path d="M 397 -1278 
L 334 -750 
Q 519 -800 656 -800 
Q 844 -800 956 -737 
Q 1069 -675 1141 -563 
Q 1194 -478 1313 -144 
Q 1328 -97 1363 -6 
L 103 3319 
L 709 3319 
L 1400 1397 
Q 1534 1031 1641 628 
Q 1738 1016 1872 1384 
L 2581 3319 
L 3144 3319 
L 1881 -56 
Q 1678 -603 1566 -809 
Q 1416 -1088 1222 -1217 
Q 1028 -1347 759 -1347 
Q 597 -1347 397 -1278 
z
" id="ArialMT-79" transform="scale(0.015625)"/>
      </defs>
      <use xlink:href="#ArialMT-44"/>
      <use x="72.216797" xlink:href="#ArialMT-65"/>
      <use x="127.832031" xlink:href="#ArialMT-6e"/>
      <use x="183.447266" xlink:href="#ArialMT-73"/>
      <use x="233.447266" xlink:href="#ArialMT-69"/>
      <use x="255.664062" xlink:href="#ArialMT-74"/>
      <use x="283.447266" xlink:href="#ArialMT-79"/>
     </g>
    </g>
   </g>
   <g id="PolyCollection_1">
    <defs>
     <path d="M 88.969886 -214.552972 
L 88.969886 -214.542955 
L 91.518996 -214.542955 
L 94.068105 -214.542955 
L 96.617214 -214.542955 
L 99.166323 -214.542955 
L 101.715432 -214.542955 
L 104.264541 -214.542955 
L 106.813651 -214.542955 
L 109.36276 -214.542955 
L 111.911869 -214.542955 
L 114.460978 -214.542955 
L 117.010087 -214.542955 
L 119.559197 -214.542955 
L 122.108306 -214.542955 
L 124.657415 -214.542955 
L 127.206524 -214.542955 
L 129.755633 -214.542955 
L 132.304742 -214.542955 
L 134.853852 -214.542955 
L 137.402961 -214.542955 
L 139.95207 -214.542955 
L 142.501179 -214.542955 
L 145.050288 -214.542955 
L 147.599398 -214.542955 
L 150.148507 -214.542955 
L 152.697616 -214.542955 
L 155.246725 -214.542955 
L 157.795834 -214.542955 
L 160.344943 -214.542955 
L 162.894053 -214.542955 
L 165.443162 -214.542955 
L 167.992271 -214.542955 
L 170.54138 -214.542955 
L 173.090489 -214.542955 
L 175.639599 -214.542955 
L 178.188708 -214.542955 
L 180.737817 -214.542955 
L 183.286926 -214.542955 
L 185.836035 -214.542955 
L 188.385144 -214.542955 
L 190.934254 -214.542955 
L 193.483363 -214.542955 
L 196.032472 -214.542955 
L 198.581581 -214.542955 
L 201.13069 -214.542955 
L 203.6798 -214.542955 
L 206.228909 -214.542955 
L 208.778018 -214.542955 
L 211.327127 -214.542955 
L 213.876236 -214.542955 
L 216.425345 -214.542955 
L 218.974455 -214.542955 
L 221.523564 -214.542955 
L 224.072673 -214.542955 
L 226.621782 -214.542955 
L 229.170891 -214.542955 
L 231.720001 -214.542955 
L 234.26911 -214.542955 
L 236.818219 -214.542955 
L 239.367328 -214.542955 
L 241.916437 -214.542955 
L 244.465546 -214.542955 
L 247.014656 -214.542955 
L 249.563765 -214.542955 
L 252.112874 -214.542955 
L 254.661983 -214.542955 
L 257.211092 -214.542955 
L 259.760202 -214.542955 
L 262.309311 -214.542955 
L 264.85842 -214.542955 
L 267.407529 -214.542955 
L 269.956638 -214.542955 
L 272.505747 -214.542955 
L 275.054857 -214.542955 
L 277.603966 -214.542955 
L 280.153075 -214.542955 
L 282.702184 -214.542955 
L 285.251293 -214.542955 
L 287.800403 -214.542955 
L 290.349512 -214.542955 
L 292.898621 -214.542955 
L 295.44773 -214.542955 
L 297.996839 -214.542955 
L 300.545948 -214.542955 
L 303.095058 -214.542955 
L 305.644167 -214.542955 
L 308.193276 -214.542955 
L 310.742385 -214.542955 
L 313.291494 -214.542955 
L 315.840604 -214.542955 
L 318.389713 -214.542955 
L 320.938822 -214.542955 
L 323.487931 -214.542955 
L 326.03704 -214.542955 
L 328.586149 -214.542955 
L 331.135259 -214.542955 
L 333.684368 -214.542955 
L 336.233477 -214.542955 
L 338.782586 -214.542955 
L 341.331695 -214.542955 
L 343.880805 -214.542955 
L 346.429914 -214.542955 
L 348.979023 -214.542955 
L 351.528132 -214.542955 
L 354.077241 -214.542955 
L 356.626351 -214.542955 
L 359.17546 -214.542955 
L 361.724569 -214.542955 
L 364.273678 -214.542955 
L 366.822787 -214.542955 
L 369.371896 -214.542955 
L 371.921006 -214.542955 
L 374.470115 -214.542955 
L 377.019224 -214.542955 
L 379.568333 -214.542955 
L 382.117442 -214.542955 
L 384.666552 -214.542955 
L 387.215661 -214.542955 
L 389.76477 -214.542955 
L 392.313879 -214.542955 
L 394.862988 -214.542955 
L 397.412097 -214.542955 
L 399.961207 -214.542955 
L 402.510316 -214.542955 
L 405.059425 -214.542955 
L 407.608534 -214.542955 
L 410.157643 -214.542955 
L 412.706753 -214.542955 
L 415.255862 -214.542955 
L 417.804971 -214.542955 
L 420.35408 -214.542955 
L 422.903189 -214.542955 
L 425.452298 -214.542955 
L 428.001408 -214.542955 
L 430.550517 -214.542955 
L 433.099626 -214.542955 
L 435.648735 -214.542955 
L 438.197844 -214.542955 
L 440.746954 -214.542955 
L 443.296063 -214.542955 
L 445.845172 -214.542955 
L 448.394281 -214.542955 
L 450.94339 -214.542955 
L 453.492499 -214.542955 
L 456.041609 -214.542955 
L 458.590718 -214.542955 
L 461.139827 -214.542955 
L 463.688936 -214.542955 
L 466.238045 -214.542955 
L 468.787155 -214.542955 
L 471.336264 -214.542955 
L 473.885373 -214.542955 
L 476.434482 -214.542955 
L 478.983591 -214.542955 
L 481.5327 -214.542955 
L 484.08181 -214.542955 
L 486.630919 -214.542955 
L 489.180028 -214.542955 
L 491.729137 -214.542955 
L 494.278246 -214.542955 
L 496.827356 -214.542955 
L 499.376465 -214.542955 
L 501.925574 -214.542955 
L 504.474683 -214.542955 
L 507.023792 -214.542955 
L 509.572901 -214.542955 
L 512.122011 -214.542955 
L 514.67112 -214.542955 
L 517.220229 -214.542955 
L 519.769338 -214.542955 
L 522.318447 -214.542955 
L 524.867557 -214.542955 
L 527.416666 -214.542955 
L 529.965775 -214.542955 
L 532.514884 -214.542955 
L 535.063993 -214.542955 
L 537.613102 -214.542955 
L 540.162212 -214.542955 
L 542.711321 -214.542955 
L 545.26043 -214.542955 
L 547.809539 -214.542955 
L 550.358648 -214.542955 
L 552.907758 -214.542955 
L 555.456867 -214.542955 
L 558.005976 -214.542955 
L 560.555085 -214.542955 
L 563.104194 -214.542955 
L 565.653303 -214.542955 
L 568.202413 -214.542955 
L 570.751522 -214.542955 
L 573.300631 -214.542955 
L 575.84974 -214.542955 
L 578.398849 -214.542955 
L 580.947959 -214.542955 
L 583.497068 -214.542955 
L 586.046177 -214.542955 
L 588.595286 -214.542955 
L 591.144395 -214.542955 
L 593.693504 -214.542955 
L 596.242614 -214.542955 
L 596.242614 -214.557611 
L 596.242614 -214.557611 
L 593.693504 -214.564167 
L 591.144395 -214.573319 
L 588.595286 -214.585949 
L 586.046177 -214.603179 
L 583.497068 -214.626425 
L 580.947959 -214.657441 
L 578.398849 -214.69838 
L 575.84974 -214.751842 
L 573.300631 -214.820935 
L 570.751522 -214.909325 
L 568.202413 -215.021281 
L 565.653303 -215.161727 
L 563.104194 -215.336269 
L 560.555085 -215.551229 
L 558.005976 -215.813665 
L 555.456867 -216.131383 
L 552.907758 -216.512937 
L 550.358648 -216.967631 
L 547.809539 -217.505494 
L 545.26043 -218.13725 
L 542.711321 -218.874269 
L 540.162212 -219.728483 
L 537.613102 -220.71227 
L 535.063993 -221.838278 
L 532.514884 -223.119196 
L 529.965775 -224.56743 
L 527.416666 -226.194699 
L 524.867557 -228.011528 
L 522.318447 -230.026642 
L 519.769338 -232.246285 
L 517.220229 -234.673469 
L 514.67112 -237.307212 
L 512.122011 -240.141801 
L 509.572901 -243.166157 
L 507.023792 -246.363359 
L 504.474683 -249.710399 
L 501.925574 -253.178236 
L 499.376465 -256.732176 
L 496.827356 -260.332623 
L 494.278246 -263.93617 
L 491.729137 -267.497007 
L 489.180028 -270.968569 
L 486.630919 -274.305322 
L 484.08181 -277.464589 
L 481.5327 -280.408268 
L 478.983591 -283.104343 
L 476.434482 -285.528077 
L 473.885373 -287.662812 
L 471.336264 -289.500334 
L 468.787155 -291.040808 
L 466.238045 -292.292298 
L 463.688936 -293.269963 
L 461.139827 -293.994988 
L 458.590718 -294.49337 
L 456.041609 -294.794652 
L 453.492499 -294.930695 
L 450.94339 -294.934561 
L 448.394281 -294.839566 
L 445.845172 -294.678526 
L 443.296063 -294.483205 
L 440.746954 -294.283942 
L 438.197844 -294.109447 
L 435.648735 -293.986713 
L 433.099626 -293.941001 
L 430.550517 -293.995873 
L 428.001408 -294.173219 
L 425.452298 -294.493257 
L 422.903189 -294.974475 
L 420.35408 -295.633513 
L 417.804971 -296.484968 
L 415.255862 -297.541136 
L 412.706753 -298.811689 
L 410.157643 -300.303326 
L 407.608534 -302.019394 
L 405.059425 -303.959533 
L 402.510316 -306.119339 
L 399.961207 -308.490104 
L 397.412097 -311.058629 
L 394.862988 -313.807138 
L 392.313879 -316.713308 
L 389.76477 -319.750421 
L 387.215661 -322.887633 
L 384.666552 -326.090386 
L 382.117442 -329.32092 
L 379.568333 -332.538919 
L 377.019224 -335.702255 
L 374.470115 -338.76782 
L 371.921006 -341.692442 
L 369.371896 -344.433849 
L 366.822787 -346.951655 
L 364.273678 -349.208342 
L 361.724569 -351.170192 
L 359.17546 -352.808135 
L 356.626351 -354.09847 
L 354.077241 -355.023424 
L 351.528132 -355.571525 
L 348.979023 -355.73776 
L 346.429914 -355.523521 
L 343.880805 -354.936336 
L 341.331695 -353.989412 
L 338.782586 -352.701006 
L 336.233477 -351.093686 
L 333.684368 -349.193505 
L 331.135259 -347.029149 
L 328.586149 -344.631105 
L 326.03704 -342.030893 
L 323.487931 -339.260396 
L 320.938822 -336.351318 
L 318.389713 -333.334777 
L 315.840604 -330.241051 
L 313.291494 -327.09945 
L 310.742385 -323.938298 
L 308.193276 -320.784994 
L 305.644167 -317.666108 
L 303.095058 -314.607472 
L 300.545948 -311.634215 
L 297.996839 -308.770715 
L 295.44773 -306.040437 
L 292.898621 -303.465633 
L 290.349512 -301.066925 
L 287.800403 -298.862769 
L 285.251293 -296.868847 
L 282.702184 -295.09743 
L 280.153075 -293.556758 
L 277.603966 -292.250497 
L 275.054857 -291.177326 
L 272.505747 -290.330683 
L 269.956638 -289.698718 
L 267.407529 -289.264438 
L 264.85842 -289.006067 
L 262.309311 -288.897576 
L 259.760202 -288.909376 
L 257.211092 -289.009117 
L 254.661983 -289.162562 
L 252.112874 -289.334493 
L 249.563765 -289.489612 
L 247.014656 -289.593412 
L 244.465546 -289.612991 
L 241.916437 -289.517791 
L 239.367328 -289.280263 
L 236.818219 -288.876432 
L 234.26911 -288.286367 
L 231.720001 -287.494545 
L 229.170891 -286.490103 
L 226.621782 -285.266962 
L 224.072673 -283.823836 
L 221.523564 -282.164099 
L 218.974455 -280.29554 
L 216.425345 -278.22999 
L 213.876236 -275.982855 
L 211.327127 -273.572575 
L 208.778018 -271.020021 
L 206.228909 -268.347884 
L 203.6798 -265.580059 
L 201.13069 -262.741069 
L 198.581581 -259.855542 
L 196.032472 -256.94774 
L 193.483363 -254.041175 
L 190.934254 -251.158278 
L 188.385144 -248.320139 
L 185.836035 -245.546289 
L 183.286926 -242.854533 
L 180.737817 -240.260802 
L 178.188708 -237.779032 
L 175.639599 -235.421068 
L 173.090489 -233.196582 
L 170.54138 -231.113016 
L 167.992271 -229.175563 
L 165.443162 -227.387178 
L 162.894053 -225.748638 
L 160.344943 -224.258649 
L 157.795834 -222.913998 
L 155.246725 -221.709758 
L 152.697616 -220.639523 
L 150.148507 -219.695675 
L 147.599398 -218.869668 
L 145.050288 -218.152316 
L 142.501179 -217.534067 
L 139.95207 -217.005263 
L 137.402961 -216.556368 
L 134.853852 -216.178161 
L 132.304742 -215.861887 
L 129.755633 -215.599374 
L 127.206524 -215.383108 
L 124.657415 -215.206278 
L 122.108306 -215.062787 
L 119.559197 -214.947241 
L 117.010087 -214.854925 
L 114.460978 -214.781756 
L 111.911869 -214.724238 
L 109.36276 -214.679402 
L 106.813651 -214.644755 
L 104.264541 -214.61822 
L 101.715432 -214.598085 
L 99.166323 -214.582951 
L 96.617214 -214.571687 
L 94.068105 -214.563389 
L 91.518996 -214.557338 
L 88.969886 -214.552972 
z
" id="m7eb218eb70" style="stroke:#000000;"/>
    </defs>
    <g clip-path="url(#p156ac85af2)">
     <use style="fill-opacity:0.25;stroke:#000000;" x="0" xlink:href="#m7eb218eb70" y="400.2375"/>
    </g>
   </g>
   <g id="patch_3">
    <path d="M 63.60625 185.694545 
L 63.60625 37.44 
" style="fill:none;stroke:#ffffff;stroke-linecap:square;stroke-linejoin:miter;stroke-width:0.8;"/>
   </g>
   <g id="patch_4">
    <path d="M 621.60625 185.694545 
L 621.60625 37.44 
" style="fill:none;stroke:#ffffff;stroke-linecap:square;stroke-linejoin:miter;stroke-width:0.8;"/>
   </g>
   <g id="patch_5">
    <path d="M 63.60625 185.694545 
L 621.60625 185.694545 
" style="fill:none;stroke:#ffffff;stroke-linecap:square;stroke-linejoin:miter;stroke-width:0.8;"/>
   </g>
   <g id="patch_6">
    <path d="M 63.60625 37.44 
L 621.60625 37.44 
" style="fill:none;stroke:#ffffff;stroke-linecap:square;stroke-linejoin:miter;stroke-width:0.8;"/>
   </g>
  </g>
  <g id="axes_2">
   <g id="patch_7">
    <path d="M 63.60625 363.6 
L 621.60625 363.6 
L 621.60625 215.345455 
L 63.60625 215.345455 
z
" style="fill:#e6e6e6;"/>
   </g>
   <g id="matplotlib.axis_3">
    <g id="xtick_8">
     <g id="line2d_13">
      <path clip-path="url(#p07526e8a76)" d="M 88.969886 363.6 
L 88.969886 215.345455 
" style="fill:none;stroke:#cccccc;stroke-linecap:round;stroke-width:0.8;"/>
     </g>
     <g id="text_15">
      <!-- 0 -->
      <g style="fill:#262626;" transform="translate(86.189418 377.757812)scale(0.1 -0.1)">
       <use xlink:href="#ArialMT-30"/>
      </g>
     </g>
    </g>
    <g id="xtick_9">
     <g id="line2d_14">
      <path clip-path="url(#p07526e8a76)" d="M 158.459301 363.6 
L 158.459301 215.345455 
" style="fill:none;stroke:#cccccc;stroke-linecap:round;stroke-width:0.8;"/>
     </g>
     <g id="text_16">
      <!-- 100 -->
      <g style="fill:#262626;" transform="translate(150.117895 377.757812)scale(0.1 -0.1)">
       <use xlink:href="#ArialMT-31"/>
       <use x="55.615234" xlink:href="#ArialMT-30"/>
       <use x="111.230469" xlink:href="#ArialMT-30"/>
      </g>
     </g>
    </g>
    <g id="xtick_10">
     <g id="line2d_15">
      <path clip-path="url(#p07526e8a76)" d="M 227.948716 363.6 
L 227.948716 215.345455 
" style="fill:none;stroke:#cccccc;stroke-linecap:round;stroke-width:0.8;"/>
     </g>
     <g id="text_17">
      <!-- 200 -->
      <g style="fill:#262626;" transform="translate(219.60731 377.757812)scale(0.1 -0.1)">
       <use xlink:href="#ArialMT-32"/>
       <use x="55.615234" xlink:href="#ArialMT-30"/>
       <use x="111.230469" xlink:href="#ArialMT-30"/>
      </g>
     </g>
    </g>
    <g id="xtick_11">
     <g id="line2d_16">
      <path clip-path="url(#p07526e8a76)" d="M 297.43813 363.6 
L 297.43813 215.345455 
" style="fill:none;stroke:#cccccc;stroke-linecap:round;stroke-width:0.8;"/>
     </g>
     <g id="text_18">
      <!-- 300 -->
      <g style="fill:#262626;" transform="translate(289.096724 377.757812)scale(0.1 -0.1)">
       <defs>
        <path d="M 269 1209 
L 831 1284 
Q 928 806 1161 595 
Q 1394 384 1728 384 
Q 2125 384 2398 659 
Q 2672 934 2672 1341 
Q 2672 1728 2419 1979 
Q 2166 2231 1775 2231 
Q 1616 2231 1378 2169 
L 1441 2663 
Q 1497 2656 1531 2656 
Q 1891 2656 2178 2843 
Q 2466 3031 2466 3422 
Q 2466 3731 2256 3934 
Q 2047 4138 1716 4138 
Q 1388 4138 1169 3931 
Q 950 3725 888 3313 
L 325 3413 
Q 428 3978 793 4289 
Q 1159 4600 1703 4600 
Q 2078 4600 2393 4439 
Q 2709 4278 2876 4000 
Q 3044 3722 3044 3409 
Q 3044 3113 2884 2869 
Q 2725 2625 2413 2481 
Q 2819 2388 3044 2092 
Q 3269 1797 3269 1353 
Q 3269 753 2831 336 
Q 2394 -81 1725 -81 
Q 1122 -81 723 278 
Q 325 638 269 1209 
z
" id="ArialMT-33" transform="scale(0.015625)"/>
       </defs>
       <use xlink:href="#ArialMT-33"/>
       <use x="55.615234" xlink:href="#ArialMT-30"/>
       <use x="111.230469" xlink:href="#ArialMT-30"/>
      </g>
     </g>
    </g>
    <g id="xtick_12">
     <g id="line2d_17">
      <path clip-path="url(#p07526e8a76)" d="M 366.927545 363.6 
L 366.927545 215.345455 
" style="fill:none;stroke:#cccccc;stroke-linecap:round;stroke-width:0.8;"/>
     </g>
     <g id="text_19">
      <!-- 400 -->
      <g style="fill:#262626;" transform="translate(358.586139 377.757812)scale(0.1 -0.1)">
       <use xlink:href="#ArialMT-34"/>
       <use x="55.615234" xlink:href="#ArialMT-30"/>
       <use x="111.230469" xlink:href="#ArialMT-30"/>
      </g>
     </g>
    </g>
    <g id="xtick_13">
     <g id="line2d_18">
      <path clip-path="url(#p07526e8a76)" d="M 436.41696 363.6 
L 436.41696 215.345455 
" style="fill:none;stroke:#cccccc;stroke-linecap:round;stroke-width:0.8;"/>
     </g>
     <g id="text_20">
      <!-- 500 -->
      <g style="fill:#262626;" transform="translate(428.075554 377.757812)scale(0.1 -0.1)">
       <use xlink:href="#ArialMT-35"/>
       <use x="55.615234" xlink:href="#ArialMT-30"/>
       <use x="111.230469" xlink:href="#ArialMT-30"/>
      </g>
     </g>
    </g>
    <g id="xtick_14">
     <g id="line2d_19">
      <path clip-path="url(#p07526e8a76)" d="M 505.906375 363.6 
L 505.906375 215.345455 
" style="fill:none;stroke:#cccccc;stroke-linecap:round;stroke-width:0.8;"/>
     </g>
     <g id="text_21">
      <!-- 600 -->
      <g style="fill:#262626;" transform="translate(497.564968 377.757812)scale(0.1 -0.1)">
       <use xlink:href="#ArialMT-36"/>
       <use x="55.615234" xlink:href="#ArialMT-30"/>
       <use x="111.230469" xlink:href="#ArialMT-30"/>
      </g>
     </g>
    </g>
    <g id="xtick_15">
     <g id="line2d_20">
      <path clip-path="url(#p07526e8a76)" d="M 575.395789 363.6 
L 575.395789 215.345455 
" style="fill:none;stroke:#cccccc;stroke-linecap:round;stroke-width:0.8;"/>
     </g>
     <g id="text_22">
      <!-- 700 -->
      <g style="fill:#262626;" transform="translate(567.054383 377.757812)scale(0.1 -0.1)">
       <defs>
        <path d="M 303 3981 
L 303 4522 
L 3269 4522 
L 3269 4084 
Q 2831 3619 2401 2847 
Q 1972 2075 1738 1259 
Q 1569 684 1522 0 
L 944 0 
Q 953 541 1156 1306 
Q 1359 2072 1739 2783 
Q 2119 3494 2547 3981 
L 303 3981 
z
" id="ArialMT-37" transform="scale(0.015625)"/>
       </defs>
       <use xlink:href="#ArialMT-37"/>
       <use x="55.615234" xlink:href="#ArialMT-30"/>
       <use x="111.230469" xlink:href="#ArialMT-30"/>
      </g>
     </g>
    </g>
    <g id="text_23">
     <!-- days_since_2011 -->
     <g style="fill:#262626;" transform="translate(304.059375 390.932812)scale(0.1 -0.1)">
      <defs>
       <path d="M 2575 0 
L 2575 419 
Q 2259 -75 1647 -75 
Q 1250 -75 917 144 
Q 584 363 401 755 
Q 219 1147 219 1656 
Q 219 2153 384 2558 
Q 550 2963 881 3178 
Q 1213 3394 1622 3394 
Q 1922 3394 2156 3267 
Q 2391 3141 2538 2938 
L 2538 4581 
L 3097 4581 
L 3097 0 
L 2575 0 
z
M 797 1656 
Q 797 1019 1065 703 
Q 1334 388 1700 388 
Q 2069 388 2326 689 
Q 2584 991 2584 1609 
Q 2584 2291 2321 2609 
Q 2059 2928 1675 2928 
Q 1300 2928 1048 2622 
Q 797 2316 797 1656 
z
" id="ArialMT-64" transform="scale(0.015625)"/>
       <path d="M 2588 409 
Q 2275 144 1986 34 
Q 1697 -75 1366 -75 
Q 819 -75 525 192 
Q 231 459 231 875 
Q 231 1119 342 1320 
Q 453 1522 633 1644 
Q 813 1766 1038 1828 
Q 1203 1872 1538 1913 
Q 2219 1994 2541 2106 
Q 2544 2222 2544 2253 
Q 2544 2597 2384 2738 
Q 2169 2928 1744 2928 
Q 1347 2928 1158 2789 
Q 969 2650 878 2297 
L 328 2372 
Q 403 2725 575 2942 
Q 747 3159 1072 3276 
Q 1397 3394 1825 3394 
Q 2250 3394 2515 3294 
Q 2781 3194 2906 3042 
Q 3031 2891 3081 2659 
Q 3109 2516 3109 2141 
L 3109 1391 
Q 3109 606 3145 398 
Q 3181 191 3288 0 
L 2700 0 
Q 2613 175 2588 409 
z
M 2541 1666 
Q 2234 1541 1622 1453 
Q 1275 1403 1131 1340 
Q 988 1278 909 1158 
Q 831 1038 831 891 
Q 831 666 1001 516 
Q 1172 366 1500 366 
Q 1825 366 2078 508 
Q 2331 650 2450 897 
Q 2541 1088 2541 1459 
L 2541 1666 
z
" id="ArialMT-61" transform="scale(0.015625)"/>
       <path d="M -97 -1272 
L -97 -866 
L 3631 -866 
L 3631 -1272 
L -97 -1272 
z
" id="ArialMT-5f" transform="scale(0.015625)"/>
      </defs>
      <use xlink:href="#ArialMT-64"/>
      <use x="55.615234" xlink:href="#ArialMT-61"/>
      <use x="111.230469" xlink:href="#ArialMT-79"/>
      <use x="161.230469" xlink:href="#ArialMT-73"/>
      <use x="211.230469" xlink:href="#ArialMT-5f"/>
      <use x="266.845703" xlink:href="#ArialMT-73"/>
      <use x="316.845703" xlink:href="#ArialMT-69"/>
      <use x="339.0625" xlink:href="#ArialMT-6e"/>
      <use x="394.677734" xlink:href="#ArialMT-63"/>
      <use x="444.677734" xlink:href="#ArialMT-65"/>
      <use x="500.292969" xlink:href="#ArialMT-5f"/>
      <use x="555.908203" xlink:href="#ArialMT-32"/>
      <use x="611.523438" xlink:href="#ArialMT-30"/>
      <use x="667.138672" xlink:href="#ArialMT-31"/>
      <use x="715.378906" xlink:href="#ArialMT-31"/>
     </g>
    </g>
   </g>
   <g id="matplotlib.axis_4">
    <g id="ytick_6">
     <g id="line2d_21">
      <path clip-path="url(#p07526e8a76)" d="M 63.60625 357.202286 
L 621.60625 357.202286 
" style="fill:none;stroke:#cccccc;stroke-linecap:round;stroke-width:0.8;"/>
     </g>
     <g id="text_24">
      <!-- 0 -->
      <g style="fill:#262626;" transform="translate(51.045313 360.781192)scale(0.1 -0.1)">
       <use xlink:href="#ArialMT-30"/>
      </g>
     </g>
    </g>
    <g id="ytick_7">
     <g id="line2d_22">
      <path clip-path="url(#p07526e8a76)" d="M 63.60625 326.190583 
L 621.60625 326.190583 
" style="fill:none;stroke:#cccccc;stroke-linecap:round;stroke-width:0.8;"/>
     </g>
     <g id="text_25">
      <!-- 2000 -->
      <g style="fill:#262626;" transform="translate(34.3625 329.769489)scale(0.1 -0.1)">
       <use xlink:href="#ArialMT-32"/>
       <use x="55.615234" xlink:href="#ArialMT-30"/>
       <use x="111.230469" xlink:href="#ArialMT-30"/>
       <use x="166.845703" xlink:href="#ArialMT-30"/>
      </g>
     </g>
    </g>
    <g id="ytick_8">
     <g id="line2d_23">
      <path clip-path="url(#p07526e8a76)" d="M 63.60625 295.178881 
L 621.60625 295.178881 
" style="fill:none;stroke:#cccccc;stroke-linecap:round;stroke-width:0.8;"/>
     </g>
     <g id="text_26">
      <!-- 4000 -->
      <g style="fill:#262626;" transform="translate(34.3625 298.757787)scale(0.1 -0.1)">
       <use xlink:href="#ArialMT-34"/>
       <use x="55.615234" xlink:href="#ArialMT-30"/>
       <use x="111.230469" xlink:href="#ArialMT-30"/>
       <use x="166.845703" xlink:href="#ArialMT-30"/>
      </g>
     </g>
    </g>
    <g id="ytick_9">
     <g id="line2d_24">
      <path clip-path="url(#p07526e8a76)" d="M 63.60625 264.167178 
L 621.60625 264.167178 
" style="fill:none;stroke:#cccccc;stroke-linecap:round;stroke-width:0.8;"/>
     </g>
     <g id="text_27">
      <!-- 6000 -->
      <g style="fill:#262626;" transform="translate(34.3625 267.746084)scale(0.1 -0.1)">
       <use xlink:href="#ArialMT-36"/>
       <use x="55.615234" xlink:href="#ArialMT-30"/>
       <use x="111.230469" xlink:href="#ArialMT-30"/>
       <use x="166.845703" xlink:href="#ArialMT-30"/>
      </g>
     </g>
    </g>
    <g id="ytick_10">
     <g id="line2d_25">
      <path clip-path="url(#p07526e8a76)" d="M 63.60625 233.155475 
L 621.60625 233.155475 
" style="fill:none;stroke:#cccccc;stroke-linecap:round;stroke-width:0.8;"/>
     </g>
     <g id="text_28">
      <!-- 8000 -->
      <g style="fill:#262626;" transform="translate(34.3625 236.734382)scale(0.1 -0.1)">
       <use xlink:href="#ArialMT-38"/>
       <use x="55.615234" xlink:href="#ArialMT-30"/>
       <use x="111.230469" xlink:href="#ArialMT-30"/>
       <use x="166.845703" xlink:href="#ArialMT-30"/>
      </g>
     </g>
    </g>
    <g id="text_29">
     <!-- cnt -->
     <g style="fill:#262626;" transform="translate(28.375 296.142259)rotate(-90)scale(0.1 -0.1)">
      <use xlink:href="#ArialMT-63"/>
      <use x="50" xlink:href="#ArialMT-6e"/>
      <use x="105.615234" xlink:href="#ArialMT-74"/>
     </g>
    </g>
   </g>
   <g id="line2d_26">
    <path clip-path="url(#p07526e8a76)" d="M 88.969886 341.929022 
L 89.664781 344.782099 
L 90.359675 336.284892 
L 91.054569 332.982146 
L 91.749463 332.392924 
L 92.444357 332.299889 
L 93.139251 333.78845 
L 93.834145 342.332174 
L 94.52904 344.456476 
L 95.223934 336.719056 
L 95.918828 337.618396 
L 96.613722 339.184487 
L 97.308616 335.401059 
L 98.00351 335.168471 
L 98.698404 337.850983 
L 99.393299 338.533241 
L 100.088193 341.696434 
L 100.783087 346.611789 
L 101.477981 331.617631 
L 102.172875 327.32251 
L 102.867769 333.276757 
L 103.562663 341.991046 
L 104.257558 341.913516 
L 104.952452 335.246 
L 105.647346 326.423171 
L 106.34224 349.356325 
L 107.037134 350.519264 
L 107.732028 339.106957 
L 108.426922 340.176861 
L 109.121817 340.207873 
L 109.816711 333.928003 
L 110.511605 336.114328 
L 111.206499 333.540357 
L 111.901393 333.168216 
L 112.596287 330.718292 
L 113.291182 341.618905 
L 113.986076 332.036289 
L 114.68097 330.656268 
L 115.375864 333.478333 
L 116.070758 332.315394 
L 116.765652 333.354286 
L 117.460546 330.129069 
L 118.155441 334.377673 
L 118.850335 332.563488 
L 119.545229 327.539592 
L 120.240123 329.059166 
L 120.935017 324.40741 
L 121.629911 318.825304 
L 122.324805 311.816659 
L 123.0197 331.850219 
L 123.714594 329.105683 
L 124.409488 340.037308 
L 125.104382 334.718801 
L 125.799276 327.477569 
L 126.49417 329.183212 
L 127.189064 334.548237 
L 128.578853 319.957231 
L 129.273747 334.780825 
L 129.968641 328.500955 
L 130.663535 324.112799 
L 131.358429 331.074926 
L 132.053323 327.058911 
L 132.748218 324.996633 
L 133.443112 347.821246 
L 134.138006 328.175332 
L 134.8329 324.128305 
L 135.527794 327.880721 
L 136.222688 347.54214 
L 136.917583 326.547218 
L 137.612477 324.143811 
L 138.307371 319.724643 
L 139.002265 325.477314 
L 139.697159 325.322255 
L 140.392053 323.21346 
L 141.781842 306.978833 
L 142.476736 308.870547 
L 143.17163 318.887327 
L 143.866524 324.996633 
L 144.561418 315.28997 
L 145.256312 324.314375 
L 145.951206 328.283873 
L 146.646101 322.934354 
L 147.340995 318.499681 
L 148.035889 330.95088 
L 148.730783 325.756419 
L 149.425677 319.600596 
L 150.120571 333.385298 
L 150.815465 331.074926 
L 151.51036 322.670755 
L 152.205254 322.283109 
L 152.900148 306.823775 
L 153.595042 308.901559 
L 154.289936 329.369283 
L 154.98483 313.661855 
L 155.679724 308.498407 
L 156.374619 334.393178 
L 157.069513 319.135421 
L 158.459301 305.288696 
L 159.154195 325.663384 
L 159.849089 323.678635 
L 160.543983 306.54467 
L 161.238878 308.730995 
L 161.933772 344.875134 
L 162.628666 299.148378 
L 163.32356 304.032722 
L 164.018454 307.521538 
L 164.713348 296.047208 
L 165.408243 292.248275 
L 166.103137 331.105938 
L 166.798031 294.62067 
L 167.492925 292.217263 
L 168.187819 294.046953 
L 168.882713 288.97654 
L 169.577607 297.16363 
L 170.272502 294.279541 
L 170.967396 285.952899 
L 171.66229 274.835204 
L 172.357184 305.242178 
L 173.052078 288.961034 
L 173.746972 288.185742 
L 174.441866 316.375379 
L 175.136761 288.464847 
L 175.831655 285.751323 
L 176.526549 284.107703 
L 177.221443 290.015432 
L 177.916337 289.565762 
L 178.611231 282.727682 
L 179.306125 292.356816 
L 180.00102 281.781825 
L 181.390808 304.342839 
L 182.085702 286.604145 
L 182.780596 295.830126 
L 183.47549 293.271661 
L 184.170384 297.427229 
L 184.865279 286.263016 
L 185.560173 280.960015 
L 186.255067 267.190819 
L 186.949961 284.945019 
L 187.644855 290.930277 
L 188.339749 287.550002 
L 189.034644 280.014158 
L 189.729538 284.681419 
L 190.424432 284.650408 
L 191.119326 283.425445 
L 191.81422 282.96027 
L 192.509114 293.659307 
L 193.204008 295.457986 
L 193.898903 295.582033 
L 194.593797 280.169216 
L 195.288691 274.835204 
L 195.983585 274.370028 
L 196.678479 281.130579 
L 197.373373 286.681674 
L 198.068267 282.262506 
L 199.458056 296.496878 
L 200.15295 286.092452 
L 200.847844 280.200228 
L 201.542738 288.046189 
L 202.237632 279.362912 
L 202.932526 281.363167 
L 203.627421 276.881976 
L 204.322315 298.791744 
L 205.017209 282.091942 
L 205.712103 277.827833 
L 206.406997 283.642527 
L 207.101891 295.023822 
L 207.796785 282.231495 
L 208.49168 287.317414 
L 209.186574 282.929258 
L 210.576362 276.540847 
L 211.271256 274.943745 
L 211.96615 284.200738 
L 212.661045 285.131089 
L 213.355939 276.184213 
L 214.050833 271.687516 
L 214.745727 274.059911 
L 215.440621 277.827833 
L 216.135515 285.115583 
L 216.830409 263.500426 
L 217.525304 284.867489 
L 218.915092 285.999417 
L 219.609986 294.558646 
L 220.30488 274.463063 
L 220.999774 281.518226 
L 221.694668 293.845377 
L 222.389563 291.178371 
L 223.084457 289.875879 
L 223.779351 278.370538 
L 225.169139 265.361129 
L 225.864033 274.990262 
L 226.558927 288.077201 
L 227.253822 286.790215 
L 227.948716 290.030938 
L 228.64361 298.528144 
L 229.338504 304.683967 
L 230.033398 306.265564 
L 230.728292 301.288186 
L 231.423186 297.659817 
L 232.118081 286.030428 
L 232.812975 285.007042 
L 233.507869 289.131599 
L 234.202763 297.566782 
L 234.897657 287.813601 
L 235.592551 290.496113 
L 236.287446 291.054324 
L 236.98234 282.076436 
L 237.677234 301.784373 
L 238.372128 286.24751 
L 239.067022 281.750813 
L 240.45681 298.512639 
L 241.151705 290.123973 
L 241.846599 285.844358 
L 242.541493 283.084317 
L 243.236387 282.898246 
L 243.931281 281.146085 
L 244.626175 292.853003 
L 245.321069 297.969934 
L 246.015964 289.937903 
L 246.710858 283.937138 
L 247.405752 284.41782 
L 248.100646 298.202522 
L 248.79554 292.806485 
L 249.490434 276.711412 
L 250.185328 297.148124 
L 250.880223 283.425445 
L 251.575117 265.795292 
L 252.270011 277.657269 
L 252.964905 302.28056 
L 253.659799 284.929513 
L 254.354693 339.913262 
L 255.049587 289.999926 
L 255.744482 285.348171 
L 256.439376 276.509836 
L 257.13427 278.77369 
L 257.829164 277.889856 
L 258.524058 283.906127 
L 259.218952 287.674049 
L 259.913847 280.60338 
L 260.608741 305.242178 
L 261.998529 326.252607 
L 262.693423 328.640508 
L 264.083211 274.323511 
L 265.473 284.123209 
L 266.167894 283.347916 
L 266.862788 283.006787 
L 267.557682 300.466376 
L 268.252576 283.394434 
L 269.642365 290.930277 
L 270.337259 286.821227 
L 271.032153 300.745481 
L 271.727047 289.720821 
L 272.421941 282.851729 
L 273.116835 320.065772 
L 273.811729 273.114054 
L 275.896412 293.318178 
L 276.591306 296.620925 
L 277.2862 282.169471 
L 277.981094 276.540847 
L 278.675988 319.538573 
L 279.370883 311.956212 
L 280.065777 301.846397 
L 280.760671 288.108212 
L 281.455565 282.371047 
L 282.150459 283.316904 
L 282.845353 279.905617 
L 283.540248 273.331136 
L 284.235142 271.749539 
L 284.930036 277.858845 
L 285.62493 286.449086 
L 286.319824 319.740149 
L 287.014718 312.033741 
L 287.709612 300.698964 
L 288.404507 276.30826 
L 289.099401 279.037289 
L 289.794295 286.340545 
L 290.489189 283.580504 
L 291.184083 319.616102 
L 291.878977 292.15524 
L 292.573871 290.465102 
L 293.268766 290.403078 
L 293.96366 289.271151 
L 294.658554 292.279286 
L 295.353448 284.526361 
L 296.048342 296.822501 
L 296.743236 315.972227 
L 297.43813 299.101861 
L 298.133025 347.480117 
L 298.827919 305.552295 
L 299.522813 300.311317 
L 300.217707 294.124483 
L 300.912601 292.294792 
L 301.607495 295.582033 
L 302.302389 294.465611 
L 302.997284 296.326314 
L 303.692178 300.621434 
L 304.387072 294.636176 
L 305.081966 292.000181 
L 305.77686 293.488743 
L 306.471754 311.723624 
L 307.166649 304.978579 
L 307.861543 294.139989 
L 308.556437 299.567036 
L 309.251331 287.643037 
L 309.946225 292.15524 
L 310.641119 329.028154 
L 311.336013 309.862922 
L 312.030908 304.606438 
L 312.725802 300.404352 
L 313.420696 302.621689 
L 314.11559 314.328607 
L 314.810484 332.284383 
L 315.505378 317.414271 
L 316.200272 334.021038 
L 316.895167 313.909949 
L 317.590061 309.630334 
L 318.284955 309.583816 
L 318.979849 297.241159 
L 319.674743 312.018235 
L 320.369637 301.179645 
L 321.064531 299.411978 
L 321.759426 296.109232 
L 322.45432 301.164139 
L 323.149214 303.164394 
L 323.844108 298.109486 
L 324.539002 316.980107 
L 325.233896 346.270661 
L 325.92879 305.691848 
L 326.623685 301.071104 
L 328.013473 314.669736 
L 328.708367 305.877918 
L 330.098155 299.210402 
L 330.79305 299.691083 
L 331.487944 301.737856 
L 332.182838 314.731759 
L 332.877732 319.507561 
L 333.572626 304.435874 
L 334.26752 299.055343 
L 334.962414 315.956721 
L 335.657309 309.630334 
L 336.352203 322.94986 
L 337.047097 341.52587 
L 337.741991 345.510874 
L 338.436885 336.78108 
L 339.131779 339.184487 
L 339.826673 321.507816 
L 340.521568 319.631608 
L 341.216462 310.700238 
L 341.911356 318.670245 
L 342.60625 321.631863 
L 343.301144 326.95037 
L 343.996038 322.531202 
L 344.690932 320.48443 
L 346.080721 293.659307 
L 346.775615 287.100332 
L 348.165403 320.360383 
L 348.860297 301.412233 
L 349.555191 323.446047 
L 350.250086 293.674813 
L 350.94498 307.36648 
L 351.639874 318.546198 
L 352.334768 321.368263 
L 353.029662 321.569839 
L 353.724556 311.692612 
L 354.41945 304.854532 
L 355.114345 306.157023 
L 355.809239 308.157278 
L 356.504133 337.029173 
L 357.199027 326.547218 
L 357.893921 319.492055 
L 358.588815 289.922397 
L 359.28371 290.992301 
L 359.978604 294.015942 
L 360.673498 303.614064 
L 361.368392 294.822246 
L 362.063286 306.91681 
L 362.75818 301.009081 
L 363.453074 287.286402 
L 364.147969 286.200993 
L 364.842863 298.884779 
L 365.537757 292.837497 
L 366.232651 313.289715 
L 366.927545 311.506542 
L 367.622439 298.528144 
L 368.317333 289.364186 
L 369.012228 313.75489 
L 369.707122 297.814875 
L 370.402016 297.799369 
L 371.09691 323.570094 
L 371.791804 333.493839 
L 372.486698 304.141263 
L 373.181592 296.388337 
L 373.876487 292.558392 
L 374.571381 310.607203 
L 375.266275 292.790979 
L 375.961169 290.24802 
L 376.656063 315.507052 
L 377.350957 308.684477 
L 378.045851 298.636685 
L 378.740746 283.192857 
L 379.43564 278.711666 
L 380.130534 303.133382 
L 380.825428 314.8403 
L 381.520322 304.652956 
L 382.215216 290.185996 
L 382.910111 289.550257 
L 383.605005 328.764554 
L 384.299899 279.828088 
L 384.994793 307.676597 
L 385.689687 294.155494 
L 386.384581 304.125757 
L 387.079475 305.521283 
L 387.77437 295.861138 
L 388.469264 280.975521 
L 389.164158 273.749794 
L 389.859052 286.356051 
L 390.553946 293.34919 
L 391.24884 281.05305 
L 391.943734 275.052286 
L 393.333523 259.329352 
L 394.028417 261.190055 
L 394.723311 289.317669 
L 395.418205 235.698435 
L 396.113099 265.84181 
L 396.807993 261.794783 
L 397.502888 262.725134 
L 398.197782 260.600832 
L 398.892676 250.661581 
L 399.58757 227.542357 
L 400.282464 304.916555 
L 400.977358 279.735053 
L 401.672252 271.020764 
L 402.367147 278.091432 
L 403.062041 268.849945 
L 403.756935 262.1049 
L 404.451829 272.555844 
L 405.146723 260.523303 
L 405.841617 263.531438 
L 406.536512 265.159552 
L 407.231406 252.196661 
L 407.9263 257.406627 
L 408.621194 257.081004 
L 409.316088 257.034486 
L 410.010982 250.878663 
L 410.705876 277.05254 
L 411.400771 270.602106 
L 412.095665 265.438658 
L 412.790559 281.812837 
L 413.485453 273.331136 
L 414.875241 241.528635 
L 415.570135 246.614554 
L 416.26503 258.430013 
L 416.959924 253.452635 
L 417.654818 289.488233 
L 418.349712 255.406372 
L 419.044606 244.16463 
L 419.7395 254.491527 
L 420.434394 341.277776 
L 421.824183 269.857825 
L 422.519077 261.128031 
L 423.213971 279.269877 
L 423.908865 260.554315 
L 424.603759 291.767593 
L 425.298653 259.453399 
L 425.993548 270.803682 
L 426.688442 268.198699 
L 427.383336 261.546689 
L 428.07823 257.639215 
L 428.773124 259.577446 
L 429.468018 250.475511 
L 430.162913 258.600577 
L 430.857807 259.934081 
L 431.552701 268.38477 
L 432.247595 284.061185 
L 432.942489 255.297831 
L 434.332277 242.009316 
L 435.027172 262.337487 
L 435.722066 313.119151 
L 437.111854 242.086846 
L 437.806748 242.70708 
L 438.501642 238.753088 
L 439.196536 228.596755 
L 439.891431 246.661072 
L 440.586325 289.61228 
L 441.281219 263.035251 
L 441.976113 275.641508 
L 442.671007 252.227672 
L 443.365901 252.785883 
L 444.060795 255.856042 
L 444.75569 255.00322 
L 445.450584 263.500426 
L 446.145478 268.152182 
L 446.840372 250.909675 
L 447.535266 243.420349 
L 448.23016 293.209637 
L 448.925054 231.294773 
L 449.619949 238.722076 
L 450.314843 248.692338 
L 451.009737 248.645821 
L 451.704631 247.808505 
L 452.399525 241.001436 
L 453.094419 237.24902 
L 453.789314 240.939413 
L 454.484208 254.894679 
L 455.179102 253.871293 
L 455.873996 280.107193 
L 456.56889 242.133363 
L 457.263784 243.032703 
L 457.958678 238.349936 
L 458.653573 237.776219 
L 459.348467 249.002455 
L 460.043361 278.13795 
L 460.738255 251.374851 
L 461.433149 260.895443 
L 462.128043 265.640234 
L 462.822937 266.911714 
L 463.517832 241.559647 
L 464.212726 250.351464 
L 464.90762 252.08812 
L 465.602514 241.80774 
L 466.297408 243.466866 
L 466.992302 250.537535 
L 467.687196 272.49382 
L 468.382091 269.020509 
L 469.076985 271.439422 
L 469.771879 260.64735 
L 470.466773 253.933316 
L 471.161667 242.412469 
L 471.856561 260.430268 
L 472.551455 260.957467 
L 473.24635 282.153965 
L 473.941244 284.758948 
L 474.636138 255.344349 
L 475.331032 259.670481 
L 476.025926 244.567782 
L 476.72082 241.745717 
L 477.415715 240.923907 
L 478.110609 249.142008 
L 478.805503 263.686497 
L 479.500397 251.297321 
L 480.195291 251.979579 
L 480.890185 268.617357 
L 481.585079 255.00322 
L 482.279974 266.182939 
L 482.974868 288.061695 
L 483.669762 242.303928 
L 484.364656 249.188526 
L 485.754444 230.472963 
L 486.449338 250.81664 
L 487.144233 250.149888 
L 487.839127 253.54567 
L 488.534021 254.910185 
L 489.228915 247.033212 
L 489.923809 245.312063 
L 490.618703 239.667933 
L 491.313597 244.614299 
L 492.008492 245.947803 
L 492.703386 251.390356 
L 493.39828 272.478314 
L 494.093174 248.459751 
L 495.482962 240.381202 
L 496.177856 244.226653 
L 496.872751 267.48543 
L 497.567645 259.530928 
L 498.262539 255.731995 
L 498.957433 250.475511 
L 499.652327 252.010591 
L 500.347221 243.280796 
L 501.042116 239.280287 
L 501.73701 246.366461 
L 502.431904 235.248765 
L 503.126798 286.666168 
L 503.821692 255.949077 
L 504.516586 248.568292 
L 505.906375 236.79935 
L 506.601269 239.636921 
L 507.296163 263.345368 
L 507.991057 275.719037 
L 508.685951 249.948312 
L 509.380845 248.041093 
L 510.075739 237.853748 
L 510.770634 237.605655 
L 511.465528 243.234279 
L 512.160422 261.996359 
L 512.855316 267.11329 
L 513.55021 263.639979 
L 514.245104 250.770122 
L 514.939998 246.924671 
L 515.634893 261.01949 
L 516.329787 240.846378 
L 517.024681 264.539318 
L 517.719575 229.635647 
L 518.414469 240.520755 
L 519.109363 236.768339 
L 519.804257 235.171236 
L 520.499152 236.194622 
L 521.194046 233.015923 
L 521.88894 222.084298 
L 522.583834 243.497878 
L 523.278728 250.692593 
L 523.973622 294.046953 
L 524.668517 239.497369 
L 525.363411 237.497114 
L 526.058305 230.565998 
L 526.753199 227.030664 
L 528.142987 241.900775 
L 528.837881 240.319179 
L 529.532776 237.295538 
L 530.22767 242.567527 
L 530.922564 242.226398 
L 531.617458 224.549728 
L 532.312352 250.382476 
L 533.007246 252.103626 
L 533.70214 285.270642 
L 534.397035 239.79198 
L 535.091929 243.575407 
L 535.786823 230.736563 
L 536.481717 233.69818 
L 537.176611 302.776748 
L 537.871505 272.261232 
L 538.566399 258.088884 
L 539.261294 237.946783 
L 539.956188 239.822991 
L 540.651082 244.288677 
L 541.345976 246.971189 
L 542.04087 254.258939 
L 542.735764 266.105409 
L 543.430658 240.381202 
L 544.125553 241.513129 
L 544.820447 240.768848 
L 545.515341 273.098548 
L 546.210235 231.759949 
L 546.905129 251.390356 
L 547.600023 247.761987 
L 548.294917 241.4356 
L 548.989812 237.915772 
L 549.684706 243.094726 
L 550.3796 241.776729 
L 551.074494 235.450341 
L 551.769388 288.061695 
L 552.464282 356.861157 
L 553.159177 340.207873 
L 553.854071 270.896717 
L 554.548965 264.38426 
L 555.243859 266.539573 
L 555.938753 277.533222 
L 556.633647 278.013903 
L 557.328541 275.657014 
L 558.023436 269.036015 
L 558.71833 279.130324 
L 559.413224 274.788686 
L 560.108118 264.291225 
L 560.803012 255.856042 
L 561.497906 250.956193 
L 562.1928 259.996104 
L 562.887695 293.721331 
L 563.582589 271.997633 
L 564.277483 272.772925 
L 564.972377 268.849945 
L 565.667271 269.919849 
L 566.362165 284.805466 
L 567.057059 271.935609 
L 567.751954 269.84232 
L 568.446848 277.409175 
L 569.141742 319.600596 
L 569.836636 296.574407 
L 570.53153 321.895462 
L 571.226424 319.616102 
L 571.921318 278.32402 
L 572.616213 295.81462 
L 573.311107 275.641508 
L 574.006001 274.664639 
L 574.700895 269.315121 
L 576.090683 285.115583 
L 576.785578 260.538809 
L 577.480472 254.770632 
L 578.175366 268.369264 
L 579.565154 279.548982 
L 580.260048 270.648624 
L 580.954942 307.149398 
L 581.649837 277.037035 
L 582.344731 271.904598 
L 583.039625 274.726663 
L 583.734519 271.423916 
L 584.429413 270.198954 
L 585.124307 278.944254 
L 585.819201 298.497133 
L 586.514096 286.107958 
L 587.20899 271.03627 
L 587.903884 275.532967 
L 588.598778 293.194132 
L 589.293672 301.024586 
L 589.988566 330.082552 
L 590.68346 329.493329 
L 591.378355 342.936903 
L 592.073249 341.494858 
L 592.768143 350.364205 
L 593.463037 324.422916 
L 594.157931 309.211676 
L 594.852825 336.408939 
L 595.547719 329.353777 
L 596.242614 314.886818 
L 596.242614 314.886818 
" style="fill:none;stroke:#000000;stroke-linecap:round;stroke-width:1.5;"/>
   </g>
   <g id="patch_8">
    <path d="M 63.60625 363.6 
L 63.60625 215.345455 
" style="fill:none;stroke:#ffffff;stroke-linecap:square;stroke-linejoin:miter;stroke-width:0.8;"/>
   </g>
   <g id="patch_9">
    <path d="M 621.60625 363.6 
L 621.60625 215.345455 
" style="fill:none;stroke:#ffffff;stroke-linecap:square;stroke-linejoin:miter;stroke-width:0.8;"/>
   </g>
   <g id="patch_10">
    <path d="M 63.60625 363.6 
L 621.60625 363.6 
" style="fill:none;stroke:#ffffff;stroke-linecap:square;stroke-linejoin:miter;stroke-width:0.8;"/>
   </g>
   <g id="patch_11">
    <path d="M 63.60625 215.345455 
L 621.60625 215.345455 
" style="fill:none;stroke:#ffffff;stroke-linecap:square;stroke-linejoin:miter;stroke-width:0.8;"/>
   </g>
  </g>
  <g id="text_30">
   <!-- cnt: Target Variable -->
   <g style="fill:#262626;" transform="translate(282.465625 15.789375)scale(0.12 -0.12)">
    <defs>
     <path d="M 578 2678 
L 578 3319 
L 1219 3319 
L 1219 2678 
L 578 2678 
z
M 578 0 
L 578 641 
L 1219 641 
L 1219 0 
L 578 0 
z
" id="ArialMT-3a" transform="scale(0.015625)"/>
     <path id="ArialMT-20" transform="scale(0.015625)"/>
     <path d="M 1659 0 
L 1659 4041 
L 150 4041 
L 150 4581 
L 3781 4581 
L 3781 4041 
L 2266 4041 
L 2266 0 
L 1659 0 
z
" id="ArialMT-54" transform="scale(0.015625)"/>
     <path d="M 416 0 
L 416 3319 
L 922 3319 
L 922 2816 
Q 1116 3169 1280 3281 
Q 1444 3394 1641 3394 
Q 1925 3394 2219 3213 
L 2025 2691 
Q 1819 2813 1613 2813 
Q 1428 2813 1281 2702 
Q 1134 2591 1072 2394 
Q 978 2094 978 1738 
L 978 0 
L 416 0 
z
" id="ArialMT-72" transform="scale(0.015625)"/>
     <path d="M 319 -275 
L 866 -356 
Q 900 -609 1056 -725 
Q 1266 -881 1628 -881 
Q 2019 -881 2231 -725 
Q 2444 -569 2519 -288 
Q 2563 -116 2559 434 
Q 2191 0 1641 0 
Q 956 0 581 494 
Q 206 988 206 1678 
Q 206 2153 378 2554 
Q 550 2956 876 3175 
Q 1203 3394 1644 3394 
Q 2231 3394 2613 2919 
L 2613 3319 
L 3131 3319 
L 3131 450 
Q 3131 -325 2973 -648 
Q 2816 -972 2473 -1159 
Q 2131 -1347 1631 -1347 
Q 1038 -1347 672 -1080 
Q 306 -813 319 -275 
z
M 784 1719 
Q 784 1066 1043 766 
Q 1303 466 1694 466 
Q 2081 466 2343 764 
Q 2606 1063 2606 1700 
Q 2606 2309 2336 2618 
Q 2066 2928 1684 2928 
Q 1309 2928 1046 2623 
Q 784 2319 784 1719 
z
" id="ArialMT-67" transform="scale(0.015625)"/>
     <path d="M 1803 0 
L 28 4581 
L 684 4581 
L 1875 1253 
Q 2019 853 2116 503 
Q 2222 878 2363 1253 
L 3600 4581 
L 4219 4581 
L 2425 0 
L 1803 0 
z
" id="ArialMT-56" transform="scale(0.015625)"/>
     <path d="M 941 0 
L 419 0 
L 419 4581 
L 981 4581 
L 981 2947 
Q 1338 3394 1891 3394 
Q 2197 3394 2470 3270 
Q 2744 3147 2920 2923 
Q 3097 2700 3197 2384 
Q 3297 2069 3297 1709 
Q 3297 856 2875 390 
Q 2453 -75 1863 -75 
Q 1275 -75 941 416 
L 941 0 
z
M 934 1684 
Q 934 1088 1097 822 
Q 1363 388 1816 388 
Q 2184 388 2453 708 
Q 2722 1028 2722 1663 
Q 2722 2313 2464 2622 
Q 2206 2931 1841 2931 
Q 1472 2931 1203 2611 
Q 934 2291 934 1684 
z
" id="ArialMT-62" transform="scale(0.015625)"/>
     <path d="M 409 0 
L 409 4581 
L 972 4581 
L 972 0 
L 409 0 
z
" id="ArialMT-6c" transform="scale(0.015625)"/>
    </defs>
    <use xlink:href="#ArialMT-63"/>
    <use x="50" xlink:href="#ArialMT-6e"/>
    <use x="105.615234" xlink:href="#ArialMT-74"/>
    <use x="133.398438" xlink:href="#ArialMT-3a"/>
    <use x="161.181641" xlink:href="#ArialMT-20"/>
    <use x="187.214844" xlink:href="#ArialMT-54"/>
    <use x="237.173828" xlink:href="#ArialMT-61"/>
    <use x="292.789062" xlink:href="#ArialMT-72"/>
    <use x="326.089844" xlink:href="#ArialMT-67"/>
    <use x="381.705078" xlink:href="#ArialMT-65"/>
    <use x="437.320312" xlink:href="#ArialMT-74"/>
    <use x="465.103516" xlink:href="#ArialMT-20"/>
    <use x="492.886719" xlink:href="#ArialMT-56"/>
    <use x="552.210938" xlink:href="#ArialMT-61"/>
    <use x="607.826172" xlink:href="#ArialMT-72"/>
    <use x="641.126953" xlink:href="#ArialMT-69"/>
    <use x="663.34375" xlink:href="#ArialMT-61"/>
    <use x="718.958984" xlink:href="#ArialMT-62"/>
    <use x="774.574219" xlink:href="#ArialMT-6c"/>
    <use x="796.791016" xlink:href="#ArialMT-65"/>
   </g>
  </g>
 </g>
 <defs>
  <clipPath id="p156ac85af2">
   <rect height="148.254545" width="558" x="63.60625" y="37.44"/>
  </clipPath>
  <clipPath id="p07526e8a76">
   <rect height="148.254545" width="558" x="63.60625" y="215.345455"/>
  </clipPath>
 </defs>
</svg>
