<?xml version="1.0" encoding="UTF-8" standalone="no"?>
<!DOCTYPE svg PUBLIC "-//W3C//DTD SVG 1.1//EN"
 "http://www.w3.org/Graphics/SVG/1.1/DTD/svg11.dtd">
<!-- Generated by graphviz version 2.50.0 (0)
 -->
<!-- Pages: 1 -->
<svg width="674pt" height="766pt"
 viewBox="0.00 0.00 673.69 765.77" xmlns="http://www.w3.org/2000/svg" xmlns:xlink="http://www.w3.org/1999/xlink">
<g id="graph0" class="graph" transform="scale(1 1) rotate(0) translate(4 761.77)">
<polygon fill="white" stroke="transparent" points="-4,4 -4,-761.77 669.69,-761.77 669.69,4 -4,4"/>
<g id="clust1" class="cluster">
<title>clusterdate (179) x channel (2)</title>
<path fill="none" stroke="black" d="M491.69,-329.88C491.69,-329.88 645.69,-329.88 645.69,-329.88 651.69,-329.88 657.69,-335.88 657.69,-341.88 657.69,-341.88 657.69,-726.79 657.69,-726.79 657.69,-732.79 651.69,-738.79 645.69,-738.79 645.69,-738.79 491.69,-738.79 491.69,-738.79 485.69,-738.79 479.69,-732.79 479.69,-726.79 479.69,-726.79 479.69,-341.88 479.69,-341.88 479.69,-335.88 485.69,-329.88 491.69,-329.88"/>
<text text-anchor="middle" x="583.69" y="-337.68" font-family="Times,serif" font-size="14.00">date (179) x channel (2)</text>
</g>
<g id="clust2" class="cluster">
<title>clusterdate (179)</title>
<path fill="none" stroke="black" d="M137.69,-8C137.69,-8 229.69,-8 229.69,-8 235.69,-8 241.69,-14 241.69,-20 241.69,-20 241.69,-298.93 241.69,-298.93 241.69,-304.93 235.69,-310.93 229.69,-310.93 229.69,-310.93 137.69,-310.93 137.69,-310.93 131.69,-310.93 125.69,-304.93 125.69,-298.93 125.69,-298.93 125.69,-20 125.69,-20 125.69,-14 131.69,-8 137.69,-8"/>
<text text-anchor="middle" x="205.69" y="-15.8" font-family="Times,serif" font-size="14.00">date (179)</text>
</g>
<g id="clust3" class="cluster">
<title>clusterchannel (2)</title>
<path fill="none" stroke="black" d="M155.69,-635.81C155.69,-635.81 459.69,-635.81 459.69,-635.81 465.69,-635.81 471.69,-641.81 471.69,-647.81 471.69,-647.81 471.69,-737.77 471.69,-737.77 471.69,-743.77 465.69,-749.77 459.69,-749.77 459.69,-749.77 155.69,-749.77 155.69,-749.77 149.69,-749.77 143.69,-743.77 143.69,-737.77 143.69,-737.77 143.69,-647.81 143.69,-647.81 143.69,-641.81 149.69,-635.81 155.69,-635.81"/>
<text text-anchor="middle" x="432.69" y="-643.61" font-family="Times,serif" font-size="14.00">channel (2)</text>
</g>
<g id="clust4" class="cluster">
<title>clusterdate (179) x control (7)</title>
<path fill="none" stroke="black" d="M120.69,-329.88C120.69,-329.88 246.69,-329.88 246.69,-329.88 252.69,-329.88 258.69,-335.88 258.69,-341.88 258.69,-341.88 258.69,-523.84 258.69,-523.84 258.69,-529.84 252.69,-535.84 246.69,-535.84 246.69,-535.84 120.69,-535.84 120.69,-535.84 114.69,-535.84 108.69,-529.84 108.69,-523.84 108.69,-523.84 108.69,-341.88 108.69,-341.88 108.69,-335.88 114.69,-329.88 120.69,-329.88"/>
<text text-anchor="middle" x="186.69" y="-337.68" font-family="Times,serif" font-size="14.00">date (179) x control (7)</text>
</g>
<g id="clust5" class="cluster">
<title>clustercontrol (7)</title>
<path fill="none" stroke="black" d="M278.69,-432.86C278.69,-432.86 416.69,-432.86 416.69,-432.86 422.69,-432.86 428.69,-438.86 428.69,-444.86 428.69,-444.86 428.69,-534.81 428.69,-534.81 428.69,-540.81 422.69,-546.81 416.69,-546.81 416.69,-546.81 278.69,-546.81 278.69,-546.81 272.69,-546.81 266.69,-540.81 266.69,-534.81 266.69,-534.81 266.69,-444.86 266.69,-444.86 266.69,-438.86 272.69,-432.86 278.69,-432.86"/>
<text text-anchor="middle" x="391.69" y="-440.66" font-family="Times,serif" font-size="14.00">control (7)</text>
</g>
<!-- channel_adstock -->
<g id="node1" class="node">
<title>channel_adstock</title>
<polygon fill="none" stroke="black" points="622.19,-627.81 515.19,-627.81 515.19,-574.81 622.19,-574.81 622.19,-627.81"/>
<text text-anchor="middle" x="568.69" y="-612.61" font-family="Times,serif" font-size="14.00">channel_adstock</text>
<text text-anchor="middle" x="568.69" y="-597.61" font-family="Times,serif" font-size="14.00">~</text>
<text text-anchor="middle" x="568.69" y="-582.61" font-family="Times,serif" font-size="14.00">Deterministic</text>
</g>
<!-- channel_adstock_saturated -->
<g id="node2" class="node">
<title>channel_adstock_saturated</title>
<polygon fill="none" stroke="black" points="649.69,-527.84 487.69,-527.84 487.69,-474.84 649.69,-474.84 649.69,-527.84"/>
<text text-anchor="middle" x="568.69" y="-512.64" font-family="Times,serif" font-size="14.00">channel_adstock_saturated</text>
<text text-anchor="middle" x="568.69" y="-497.64" font-family="Times,serif" font-size="14.00">~</text>
<text text-anchor="middle" x="568.69" y="-482.64" font-family="Times,serif" font-size="14.00">Deterministic</text>
</g>
<!-- channel_adstock&#45;&gt;channel_adstock_saturated -->
<g id="edge4" class="edge">
<title>channel_adstock&#45;&gt;channel_adstock_saturated</title>
<path fill="none" stroke="black" d="M568.69,-574.57C568.69,-563.43 568.69,-550.21 568.69,-538.14"/>
<polygon fill="black" stroke="black" points="572.19,-537.91 568.69,-527.91 565.19,-537.91 572.19,-537.91"/>
</g>
<!-- channel_contributions -->
<g id="node4" class="node">
<title>channel_contributions</title>
<polygon fill="none" stroke="black" points="625.19,-413.88 488.19,-413.88 488.19,-360.88 625.19,-360.88 625.19,-413.88"/>
<text text-anchor="middle" x="556.69" y="-398.68" font-family="Times,serif" font-size="14.00">channel_contributions</text>
<text text-anchor="middle" x="556.69" y="-383.68" font-family="Times,serif" font-size="14.00">~</text>
<text text-anchor="middle" x="556.69" y="-368.68" font-family="Times,serif" font-size="14.00">Deterministic</text>
</g>
<!-- channel_adstock_saturated&#45;&gt;channel_contributions -->
<g id="edge6" class="edge">
<title>channel_adstock_saturated&#45;&gt;channel_contributions</title>
<path fill="none" stroke="black" d="M565.94,-474.65C564.34,-459.72 562.29,-440.67 560.54,-424.27"/>
<polygon fill="black" stroke="black" points="563.98,-423.52 559.43,-413.95 557.02,-424.26 563.98,-423.52"/>
</g>
<!-- channel_data -->
<g id="node3" class="node">
<title>channel_data</title>
<path fill="lightgrey" stroke="black" d="M600.69,-730.79C600.69,-730.79 536.69,-730.79 536.69,-730.79 530.69,-730.79 524.69,-724.79 524.69,-718.79 524.69,-718.79 524.69,-689.79 524.69,-689.79 524.69,-683.79 530.69,-677.79 536.69,-677.79 536.69,-677.79 600.69,-677.79 600.69,-677.79 606.69,-677.79 612.69,-683.79 612.69,-689.79 612.69,-689.79 612.69,-718.79 612.69,-718.79 612.69,-724.79 606.69,-730.79 600.69,-730.79"/>
<text text-anchor="middle" x="568.69" y="-715.59" font-family="Times,serif" font-size="14.00">channel_data</text>
<text text-anchor="middle" x="568.69" y="-700.59" font-family="Times,serif" font-size="14.00">~</text>
<text text-anchor="middle" x="568.69" y="-685.59" font-family="Times,serif" font-size="14.00">MutableData</text>
</g>
<!-- channel_data&#45;&gt;channel_adstock -->
<g id="edge3" class="edge">
<title>channel_data&#45;&gt;channel_adstock</title>
<path fill="none" stroke="black" d="M568.69,-677.55C568.69,-665.56 568.69,-651.1 568.69,-638.07"/>
<polygon fill="black" stroke="black" points="572.19,-638.01 568.69,-628.01 565.19,-638.01 572.19,-638.01"/>
</g>
<!-- mu -->
<g id="node5" class="node">
<title>mu</title>
<polygon fill="none" stroke="black" points="229.19,-302.93 138.19,-302.93 138.19,-249.93 229.19,-249.93 229.19,-302.93"/>
<text text-anchor="middle" x="183.69" y="-287.73" font-family="Times,serif" font-size="14.00">mu</text>
<text text-anchor="middle" x="183.69" y="-272.73" font-family="Times,serif" font-size="14.00">~</text>
<text text-anchor="middle" x="183.69" y="-257.73" font-family="Times,serif" font-size="14.00">Deterministic</text>
</g>
<!-- channel_contributions&#45;&gt;mu -->
<g id="edge12" class="edge">
<title>channel_contributions&#45;&gt;mu</title>
<path fill="none" stroke="black" d="M487.84,-366.27C416.16,-345.34 305.29,-312.95 239.07,-293.61"/>
<polygon fill="black" stroke="black" points="239.81,-290.18 229.23,-290.73 237.85,-296.9 239.81,-290.18"/>
</g>
<!-- likelihood -->
<g id="node7" class="node">
<title>likelihood</title>
<ellipse fill="lightgrey" stroke="black" cx="183.69" cy="-165.48" rx="50.41" ry="37.45"/>
<text text-anchor="middle" x="183.69" y="-176.78" font-family="Times,serif" font-size="14.00">likelihood</text>
<text text-anchor="middle" x="183.69" y="-161.78" font-family="Times,serif" font-size="14.00">~</text>
<text text-anchor="middle" x="183.69" y="-146.78" font-family="Times,serif" font-size="14.00">Normal</text>
</g>
<!-- mu&#45;&gt;likelihood -->
<g id="edge13" class="edge">
<title>mu&#45;&gt;likelihood</title>
<path fill="none" stroke="black" d="M183.69,-249.89C183.69,-238.98 183.69,-225.89 183.69,-213.35"/>
<polygon fill="black" stroke="black" points="187.19,-213 183.69,-203 180.19,-213 187.19,-213"/>
</g>
<!-- target -->
<g id="node6" class="node">
<title>target</title>
<path fill="lightgrey" stroke="black" d="M215.69,-92C215.69,-92 151.69,-92 151.69,-92 145.69,-92 139.69,-86 139.69,-80 139.69,-80 139.69,-51 139.69,-51 139.69,-45 145.69,-39 151.69,-39 151.69,-39 215.69,-39 215.69,-39 221.69,-39 227.69,-45 227.69,-51 227.69,-51 227.69,-80 227.69,-80 227.69,-86 221.69,-92 215.69,-92"/>
<text text-anchor="middle" x="183.69" y="-76.8" font-family="Times,serif" font-size="14.00">target</text>
<text text-anchor="middle" x="183.69" y="-61.8" font-family="Times,serif" font-size="14.00">~</text>
<text text-anchor="middle" x="183.69" y="-46.8" font-family="Times,serif" font-size="14.00">MutableData</text>
</g>
<!-- likelihood&#45;&gt;target -->
<g id="edge1" class="edge">
<title>likelihood&#45;&gt;target</title>
<path fill="none" stroke="black" d="M183.69,-127.99C183.69,-119.58 183.69,-110.63 183.69,-102.25"/>
<polygon fill="black" stroke="black" points="187.19,-102.01 183.69,-92.01 180.19,-102.01 187.19,-102.01"/>
</g>
<!-- intercept -->
<g id="node8" class="node">
<title>intercept</title>
<ellipse fill="none" stroke="black" cx="53.69" cy="-387.38" rx="45.01" ry="37.45"/>
<text text-anchor="middle" x="53.69" y="-398.68" font-family="Times,serif" font-size="14.00">intercept</text>
<text text-anchor="middle" x="53.69" y="-383.68" font-family="Times,serif" font-size="14.00">~</text>
<text text-anchor="middle" x="53.69" y="-368.68" font-family="Times,serif" font-size="14.00">Normal</text>
</g>
<!-- intercept&#45;&gt;mu -->
<g id="edge11" class="edge">
<title>intercept&#45;&gt;mu</title>
<path fill="none" stroke="black" d="M78.59,-356.01C86.5,-347.14 95.58,-337.73 104.69,-329.88 110.37,-324.99 122,-316.94 134.63,-308.6"/>
<polygon fill="black" stroke="black" points="136.58,-311.51 143.03,-303.11 132.74,-305.66 136.58,-311.51"/>
</g>
<!-- sigma -->
<g id="node9" class="node">
<title>sigma</title>
<ellipse fill="none" stroke="black" cx="58.69" cy="-276.43" rx="58.88" ry="37.45"/>
<text text-anchor="middle" x="58.69" y="-287.73" font-family="Times,serif" font-size="14.00">sigma</text>
<text text-anchor="middle" x="58.69" y="-272.73" font-family="Times,serif" font-size="14.00">~</text>
<text text-anchor="middle" x="58.69" y="-257.73" font-family="Times,serif" font-size="14.00">HalfNormal</text>
</g>
<!-- sigma&#45;&gt;likelihood -->
<g id="edge14" class="edge">
<title>sigma&#45;&gt;likelihood</title>
<path fill="none" stroke="black" d="M92.85,-245.66C108.5,-232.01 127.17,-215.75 143.49,-201.51"/>
<polygon fill="black" stroke="black" points="146.06,-203.92 151.3,-194.71 141.46,-198.64 146.06,-203.92"/>
</g>
<!-- beta_channel -->
<g id="node10" class="node">
<title>beta_channel</title>
<ellipse fill="none" stroke="black" cx="213.69" cy="-704.29" rx="62.45" ry="37.45"/>
<text text-anchor="middle" x="213.69" y="-715.59" font-family="Times,serif" font-size="14.00">beta_channel</text>
<text text-anchor="middle" x="213.69" y="-700.59" font-family="Times,serif" font-size="14.00">~</text>
<text text-anchor="middle" x="213.69" y="-685.59" font-family="Times,serif" font-size="14.00">HalfNormal</text>
</g>
<!-- beta_channel&#45;&gt;channel_contributions -->
<g id="edge7" class="edge">
<title>beta_channel&#45;&gt;channel_contributions</title>
<path fill="none" stroke="black" d="M244.17,-671.5C256.26,-659.67 270.62,-646.53 284.69,-635.81 345.76,-589.32 382.86,-605.19 432.69,-546.81 468.15,-505.27 442.75,-473.99 478.69,-432.86 482.8,-428.16 487.52,-423.84 492.58,-419.9"/>
<polygon fill="black" stroke="black" points="494.68,-422.7 500.76,-414.02 490.59,-417.02 494.68,-422.7"/>
</g>
<!-- alpha -->
<g id="node11" class="node">
<title>alpha</title>
<ellipse fill="none" stroke="black" cx="430.69" cy="-704.29" rx="32.55" ry="37.45"/>
<text text-anchor="middle" x="430.69" y="-715.59" font-family="Times,serif" font-size="14.00">alpha</text>
<text text-anchor="middle" x="430.69" y="-700.59" font-family="Times,serif" font-size="14.00">~</text>
<text text-anchor="middle" x="430.69" y="-685.59" font-family="Times,serif" font-size="14.00">Beta</text>
</g>
<!-- alpha&#45;&gt;channel_adstock -->
<g id="edge2" class="edge">
<title>alpha&#45;&gt;channel_adstock</title>
<path fill="none" stroke="black" d="M446.04,-671.24C453.46,-658.66 463.44,-645.05 475.69,-635.81 485,-628.79 489.67,-631.64 500.69,-627.81 502.29,-627.26 503.9,-626.69 505.53,-626.12"/>
<polygon fill="black" stroke="black" points="506.72,-629.41 514.96,-622.74 504.36,-622.82 506.72,-629.41"/>
</g>
<!-- lam -->
<g id="node12" class="node">
<title>lam</title>
<ellipse fill="none" stroke="black" cx="336.69" cy="-704.29" rx="43.27" ry="37.45"/>
<text text-anchor="middle" x="336.69" y="-715.59" font-family="Times,serif" font-size="14.00">lam</text>
<text text-anchor="middle" x="336.69" y="-700.59" font-family="Times,serif" font-size="14.00">~</text>
<text text-anchor="middle" x="336.69" y="-685.59" font-family="Times,serif" font-size="14.00">Gamma</text>
</g>
<!-- lam&#45;&gt;channel_adstock_saturated -->
<g id="edge5" class="edge">
<title>lam&#45;&gt;channel_adstock_saturated</title>
<path fill="none" stroke="black" d="M354.53,-669.89C363.11,-657.1 374.63,-643.7 388.69,-635.81 417.55,-619.64 433.55,-643.46 462.69,-627.81 489.66,-613.33 486.96,-598.22 506.69,-574.81 517.46,-562.04 529.37,-548.07 539.85,-535.84"/>
<polygon fill="black" stroke="black" points="542.65,-537.96 546.5,-528.09 537.33,-533.4 542.65,-537.96"/>
</g>
<!-- control_contributions -->
<g id="node13" class="node">
<title>control_contributions</title>
<polygon fill="none" stroke="black" points="250.19,-413.88 117.19,-413.88 117.19,-360.88 250.19,-360.88 250.19,-413.88"/>
<text text-anchor="middle" x="183.69" y="-398.68" font-family="Times,serif" font-size="14.00">control_contributions</text>
<text text-anchor="middle" x="183.69" y="-383.68" font-family="Times,serif" font-size="14.00">~</text>
<text text-anchor="middle" x="183.69" y="-368.68" font-family="Times,serif" font-size="14.00">Deterministic</text>
</g>
<!-- control_contributions&#45;&gt;mu -->
<g id="edge10" class="edge">
<title>control_contributions&#45;&gt;mu</title>
<path fill="none" stroke="black" d="M183.69,-360.84C183.69,-346.73 183.69,-328.98 183.69,-313.49"/>
<polygon fill="black" stroke="black" points="187.19,-313.19 183.69,-303.19 180.19,-313.19 187.19,-313.19"/>
</g>
<!-- control_data -->
<g id="node14" class="node">
<title>control_data</title>
<path fill="lightgrey" stroke="black" d="M215.69,-527.84C215.69,-527.84 151.69,-527.84 151.69,-527.84 145.69,-527.84 139.69,-521.84 139.69,-515.84 139.69,-515.84 139.69,-486.84 139.69,-486.84 139.69,-480.84 145.69,-474.84 151.69,-474.84 151.69,-474.84 215.69,-474.84 215.69,-474.84 221.69,-474.84 227.69,-480.84 227.69,-486.84 227.69,-486.84 227.69,-515.84 227.69,-515.84 227.69,-521.84 221.69,-527.84 215.69,-527.84"/>
<text text-anchor="middle" x="183.69" y="-512.64" font-family="Times,serif" font-size="14.00">control_data</text>
<text text-anchor="middle" x="183.69" y="-497.64" font-family="Times,serif" font-size="14.00">~</text>
<text text-anchor="middle" x="183.69" y="-482.64" font-family="Times,serif" font-size="14.00">MutableData</text>
</g>
<!-- control_data&#45;&gt;control_contributions -->
<g id="edge9" class="edge">
<title>control_data&#45;&gt;control_contributions</title>
<path fill="none" stroke="black" d="M183.69,-474.65C183.69,-459.72 183.69,-440.67 183.69,-424.27"/>
<polygon fill="black" stroke="black" points="187.19,-423.95 183.69,-413.95 180.19,-423.95 187.19,-423.95"/>
</g>
<!-- gamma_control -->
<g id="node15" class="node">
<title>gamma_control</title>
<ellipse fill="none" stroke="black" cx="347.69" cy="-501.34" rx="72.66" ry="37.45"/>
<text text-anchor="middle" x="347.69" y="-512.64" font-family="Times,serif" font-size="14.00">gamma_control</text>
<text text-anchor="middle" x="347.69" y="-497.64" font-family="Times,serif" font-size="14.00">~</text>
<text text-anchor="middle" x="347.69" y="-482.64" font-family="Times,serif" font-size="14.00">Normal</text>
</g>
<!-- gamma_control&#45;&gt;control_contributions -->
<g id="edge8" class="edge">
<title>gamma_control&#45;&gt;control_contributions</title>
<path fill="none" stroke="black" d="M310.58,-468.78C296.03,-456.98 278.95,-443.79 262.69,-432.86 255.74,-428.19 248.27,-423.54 240.8,-419.1"/>
<polygon fill="black" stroke="black" points="242.45,-416.02 232.05,-414.01 238.92,-422.06 242.45,-416.02"/>
</g>
</g>
</svg>
