<?xml version="1.0" encoding="UTF-8" standalone="no"?>
<!DOCTYPE svg PUBLIC "-//W3C//DTD SVG 1.1//EN"
 "http://www.w3.org/Graphics/SVG/1.1/DTD/svg11.dtd">
<!-- Generated by graphviz version 3.0.0 (20220226.1711)
 -->
<!-- Pages: 1 -->
<svg width="325pt" height="438pt"
 viewBox="0.00 0.00 324.72 437.88" xmlns="http://www.w3.org/2000/svg" xmlns:xlink="http://www.w3.org/1999/xlink">
<g id="graph0" class="graph" transform="scale(1 1) rotate(0) translate(4 433.88)">
<polygon fill="white" stroke="transparent" points="-4,4 -4,-433.88 320.72,-433.88 320.72,4 -4,4"/>
<g id="clust1" class="cluster">
<title>clusteridx (140)</title>
<path fill="none" stroke="black" d="M20,-8C20,-8 112,-8 112,-8 118,-8 124,-14 124,-20 124,-20 124,-409.88 124,-409.88 124,-415.88 118,-421.88 112,-421.88 112,-421.88 20,-421.88 20,-421.88 14,-421.88 8,-415.88 8,-409.88 8,-409.88 8,-20 8,-20 8,-14 14,-8 20,-8"/>
<text text-anchor="middle" x="90.5" y="-15.8" font-family="Times,serif" font-size="14.00">idx (140)</text>
</g>
<!-- likelihood -->
<g id="node1" class="node">
<title>likelihood</title>
<ellipse fill="lightgrey" stroke="black" cx="66" cy="-165.48" rx="50.41" ry="37.45"/>
<text text-anchor="middle" x="66" y="-176.78" font-family="Times,serif" font-size="14.00">likelihood</text>
<text text-anchor="middle" x="66" y="-161.78" font-family="Times,serif" font-size="14.00">~</text>
<text text-anchor="middle" x="66" y="-146.78" font-family="Times,serif" font-size="14.00">Normal</text>
</g>
<!-- y -->
<g id="node2" class="node">
<title>y</title>
<path fill="lightgrey" stroke="black" d="M98,-92C98,-92 34,-92 34,-92 28,-92 22,-86 22,-80 22,-80 22,-51 22,-51 22,-45 28,-39 34,-39 34,-39 98,-39 98,-39 104,-39 110,-45 110,-51 110,-51 110,-80 110,-80 110,-86 104,-92 98,-92"/>
<text text-anchor="middle" x="66" y="-76.8" font-family="Times,serif" font-size="14.00">y</text>
<text text-anchor="middle" x="66" y="-61.8" font-family="Times,serif" font-size="14.00">~</text>
<text text-anchor="middle" x="66" y="-46.8" font-family="Times,serif" font-size="14.00">MutableData</text>
</g>
<!-- likelihood&#45;&gt;y -->
<g id="edge1" class="edge">
<title>likelihood&#45;&gt;y</title>
<path fill="none" stroke="black" d="M66,-127.99C66,-119.58 66,-110.63 66,-102.25"/>
<polygon fill="black" stroke="black" points="69.5,-102.01 66,-92.01 62.5,-102.01 69.5,-102.01"/>
</g>
<!-- x -->
<g id="node3" class="node">
<title>x</title>
<path fill="lightgrey" stroke="black" d="M101,-413.88C101,-413.88 37,-413.88 37,-413.88 31,-413.88 25,-407.88 25,-401.88 25,-401.88 25,-372.88 25,-372.88 25,-366.88 31,-360.88 37,-360.88 37,-360.88 101,-360.88 101,-360.88 107,-360.88 113,-366.88 113,-372.88 113,-372.88 113,-401.88 113,-401.88 113,-407.88 107,-413.88 101,-413.88"/>
<text text-anchor="middle" x="69" y="-398.68" font-family="Times,serif" font-size="14.00">x</text>
<text text-anchor="middle" x="69" y="-383.68" font-family="Times,serif" font-size="14.00">~</text>
<text text-anchor="middle" x="69" y="-368.68" font-family="Times,serif" font-size="14.00">MutableData</text>
</g>
<!-- mu -->
<g id="node4" class="node">
<title>mu</title>
<polygon fill="none" stroke="black" points="114.5,-302.93 23.5,-302.93 23.5,-249.93 114.5,-249.93 114.5,-302.93"/>
<text text-anchor="middle" x="69" y="-287.73" font-family="Times,serif" font-size="14.00">mu</text>
<text text-anchor="middle" x="69" y="-272.73" font-family="Times,serif" font-size="14.00">~</text>
<text text-anchor="middle" x="69" y="-257.73" font-family="Times,serif" font-size="14.00">Deterministic</text>
</g>
<!-- x&#45;&gt;mu -->
<g id="edge4" class="edge">
<title>x&#45;&gt;mu</title>
<path fill="none" stroke="black" d="M69,-360.84C69,-346.73 69,-328.98 69,-313.49"/>
<polygon fill="black" stroke="black" points="72.5,-313.19 69,-303.19 65.5,-313.19 72.5,-313.19"/>
</g>
<!-- mu&#45;&gt;likelihood -->
<g id="edge5" class="edge">
<title>mu&#45;&gt;likelihood</title>
<path fill="none" stroke="black" d="M68.3,-249.89C68,-238.98 67.64,-225.89 67.29,-213.35"/>
<polygon fill="black" stroke="black" points="70.78,-212.9 67.01,-203 63.78,-213.09 70.78,-212.9"/>
</g>
<!-- b -->
<g id="node5" class="node">
<title>b</title>
<ellipse fill="none" stroke="black" cx="174" cy="-387.38" rx="41.94" ry="37.45"/>
<text text-anchor="middle" x="174" y="-398.68" font-family="Times,serif" font-size="14.00">b</text>
<text text-anchor="middle" x="174" y="-383.68" font-family="Times,serif" font-size="14.00">~</text>
<text text-anchor="middle" x="174" y="-368.68" font-family="Times,serif" font-size="14.00">Normal</text>
</g>
<!-- b&#45;&gt;mu -->
<g id="edge2" class="edge">
<title>b&#45;&gt;mu</title>
<path fill="none" stroke="black" d="M147.23,-358.61C133.13,-343.98 115.75,-325.94 100.95,-310.58"/>
<polygon fill="black" stroke="black" points="103.38,-308.06 93.92,-303.28 98.33,-312.91 103.38,-308.06"/>
</g>
<!-- a -->
<g id="node6" class="node">
<title>a</title>
<ellipse fill="none" stroke="black" cx="275" cy="-387.38" rx="41.94" ry="37.45"/>
<text text-anchor="middle" x="275" y="-398.68" font-family="Times,serif" font-size="14.00">a</text>
<text text-anchor="middle" x="275" y="-383.68" font-family="Times,serif" font-size="14.00">~</text>
<text text-anchor="middle" x="275" y="-368.68" font-family="Times,serif" font-size="14.00">Normal</text>
</g>
<!-- a&#45;&gt;mu -->
<g id="edge3" class="edge">
<title>a&#45;&gt;mu</title>
<path fill="none" stroke="black" d="M244.17,-361.77C238.02,-357.48 231.46,-353.31 225,-349.91 182.47,-327.5 165.93,-335.54 123,-313.91 119.67,-312.23 116.31,-310.38 112.97,-308.43"/>
<polygon fill="black" stroke="black" points="114.6,-305.32 104.24,-303.09 110.94,-311.29 114.6,-305.32"/>
</g>
<!-- sigma -->
<g id="node7" class="node">
<title>sigma</title>
<ellipse fill="none" stroke="black" cx="191" cy="-276.43" rx="58.88" ry="37.45"/>
<text text-anchor="middle" x="191" y="-287.73" font-family="Times,serif" font-size="14.00">sigma</text>
<text text-anchor="middle" x="191" y="-272.73" font-family="Times,serif" font-size="14.00">~</text>
<text text-anchor="middle" x="191" y="-257.73" font-family="Times,serif" font-size="14.00">HalfNormal</text>
</g>
<!-- sigma&#45;&gt;likelihood -->
<g id="edge6" class="edge">
<title>sigma&#45;&gt;likelihood</title>
<path fill="none" stroke="black" d="M156.84,-245.66C141.19,-232.01 122.52,-215.75 106.2,-201.51"/>
<polygon fill="black" stroke="black" points="108.23,-198.64 98.39,-194.71 103.63,-203.92 108.23,-198.64"/>
</g>
</g>
</svg>
