<?xml version="1.0" encoding="UTF-8" standalone="no"?>
<!DOCTYPE svg PUBLIC "-//W3C//DTD SVG 1.1//EN"
 "http://www.w3.org/Graphics/SVG/1.1/DTD/svg11.dtd">
<!-- Generated by graphviz version 3.0.0 (20220226.1711)
 -->
<!-- Pages: 1 -->
<svg width="346pt" height="444pt"
 viewBox="0.00 0.00 345.69 443.86" xmlns="http://www.w3.org/2000/svg" xmlns:xlink="http://www.w3.org/1999/xlink">
<g id="graph0" class="graph" transform="scale(1 1) rotate(0) translate(4 439.86)">
<polygon fill="white" stroke="transparent" points="-4,4 -4,-439.86 341.69,-439.86 341.69,4 -4,4"/>
<g id="clust1" class="cluster">
<title>cluster140</title>
<path fill="none" stroke="black" d="M131.69,-8C131.69,-8 317.69,-8 317.69,-8 323.69,-8 329.69,-14 329.69,-20 329.69,-20 329.69,-88 329.69,-88 329.69,-94 323.69,-100 317.69,-100 317.69,-100 131.69,-100 131.69,-100 125.69,-100 119.69,-94 119.69,-88 119.69,-88 119.69,-20 119.69,-20 119.69,-14 125.69,-8 131.69,-8"/>
<text text-anchor="middle" x="311.19" y="-15.8" font-family="Times,serif" font-size="14.00">140</text>
</g>
<g id="clust2" class="cluster">
<title>clusteridx (140)</title>
<path fill="none" stroke="black" d="M137.69,-108C137.69,-108 229.69,-108 229.69,-108 235.69,-108 241.69,-114 241.69,-120 241.69,-120 241.69,-309.93 241.69,-309.93 241.69,-315.93 235.69,-321.93 229.69,-321.93 229.69,-321.93 137.69,-321.93 137.69,-321.93 131.69,-321.93 125.69,-315.93 125.69,-309.93 125.69,-309.93 125.69,-120 125.69,-120 125.69,-114 131.69,-108 137.69,-108"/>
<text text-anchor="middle" x="208.19" y="-115.8" font-family="Times,serif" font-size="14.00">idx (140)</text>
</g>
<!-- x -->
<g id="node1" class="node">
<title>x</title>
<path fill="lightgrey" stroke="black" d="M309.69,-92C309.69,-92 245.69,-92 245.69,-92 239.69,-92 233.69,-86 233.69,-80 233.69,-80 233.69,-51 233.69,-51 233.69,-45 239.69,-39 245.69,-39 245.69,-39 309.69,-39 309.69,-39 315.69,-39 321.69,-45 321.69,-51 321.69,-51 321.69,-80 321.69,-80 321.69,-86 315.69,-92 309.69,-92"/>
<text text-anchor="middle" x="277.69" y="-76.8" font-family="Times,serif" font-size="14.00">x</text>
<text text-anchor="middle" x="277.69" y="-61.8" font-family="Times,serif" font-size="14.00">~</text>
<text text-anchor="middle" x="277.69" y="-46.8" font-family="Times,serif" font-size="14.00">MutableData</text>
</g>
<!-- mu -->
<g id="node6" class="node">
<title>mu</title>
<polygon fill="none" stroke="black" points="231.19,-313.93 140.19,-313.93 140.19,-260.93 231.19,-260.93 231.19,-313.93"/>
<text text-anchor="middle" x="185.69" y="-298.73" font-family="Times,serif" font-size="14.00">mu</text>
<text text-anchor="middle" x="185.69" y="-283.73" font-family="Times,serif" font-size="14.00">~</text>
<text text-anchor="middle" x="185.69" y="-268.73" font-family="Times,serif" font-size="14.00">Deterministic</text>
</g>
<!-- x&#45;&gt;mu -->
<g id="edge2" class="edge">
<title>x&#45;&gt;mu</title>
<path fill="none" stroke="black" d="M275.01,-92.14C271.08,-122.48 262.02,-173.91 242.69,-213.95 236.02,-227.77 226.35,-241.41 216.86,-253.06"/>
<polygon fill="black" stroke="black" points="214.12,-250.88 210.36,-260.78 219.48,-255.38 214.12,-250.88"/>
</g>
<!-- y -->
<g id="node2" class="node">
<title>y</title>
<path fill="lightgrey" stroke="black" d="M203.69,-92C203.69,-92 139.69,-92 139.69,-92 133.69,-92 127.69,-86 127.69,-80 127.69,-80 127.69,-51 127.69,-51 127.69,-45 133.69,-39 139.69,-39 139.69,-39 203.69,-39 203.69,-39 209.69,-39 215.69,-45 215.69,-51 215.69,-51 215.69,-80 215.69,-80 215.69,-86 209.69,-92 203.69,-92"/>
<text text-anchor="middle" x="171.69" y="-76.8" font-family="Times,serif" font-size="14.00">y</text>
<text text-anchor="middle" x="171.69" y="-61.8" font-family="Times,serif" font-size="14.00">~</text>
<text text-anchor="middle" x="171.69" y="-46.8" font-family="Times,serif" font-size="14.00">MutableData</text>
</g>
<!-- b -->
<g id="node3" class="node">
<title>b</title>
<ellipse fill="none" stroke="black" cx="135.69" cy="-398.38" rx="41.94" ry="37.45"/>
<text text-anchor="middle" x="135.69" y="-409.68" font-family="Times,serif" font-size="14.00">b</text>
<text text-anchor="middle" x="135.69" y="-394.68" font-family="Times,serif" font-size="14.00">~</text>
<text text-anchor="middle" x="135.69" y="-379.68" font-family="Times,serif" font-size="14.00">Normal</text>
</g>
<!-- b&#45;&gt;mu -->
<g id="edge3" class="edge">
<title>b&#45;&gt;mu</title>
<path fill="none" stroke="black" d="M151.24,-363.51C157.08,-350.76 163.74,-336.26 169.64,-323.41"/>
<polygon fill="black" stroke="black" points="172.98,-324.52 173.97,-313.97 166.62,-321.6 172.98,-324.52"/>
</g>
<!-- a -->
<g id="node4" class="node">
<title>a</title>
<ellipse fill="none" stroke="black" cx="236.69" cy="-398.38" rx="41.94" ry="37.45"/>
<text text-anchor="middle" x="236.69" y="-409.68" font-family="Times,serif" font-size="14.00">a</text>
<text text-anchor="middle" x="236.69" y="-394.68" font-family="Times,serif" font-size="14.00">~</text>
<text text-anchor="middle" x="236.69" y="-379.68" font-family="Times,serif" font-size="14.00">Normal</text>
</g>
<!-- a&#45;&gt;mu -->
<g id="edge4" class="edge">
<title>a&#45;&gt;mu</title>
<path fill="none" stroke="black" d="M220.83,-363.51C214.81,-350.64 207.94,-335.97 201.89,-323.04"/>
<polygon fill="black" stroke="black" points="205.06,-321.55 197.65,-313.97 198.72,-324.52 205.06,-321.55"/>
</g>
<!-- sigma -->
<g id="node5" class="node">
<title>sigma</title>
<ellipse fill="none" stroke="black" cx="58.69" cy="-287.43" rx="58.88" ry="37.45"/>
<text text-anchor="middle" x="58.69" y="-298.73" font-family="Times,serif" font-size="14.00">sigma</text>
<text text-anchor="middle" x="58.69" y="-283.73" font-family="Times,serif" font-size="14.00">~</text>
<text text-anchor="middle" x="58.69" y="-268.73" font-family="Times,serif" font-size="14.00">HalfNormal</text>
</g>
<!-- likelihood -->
<g id="node7" class="node">
<title>likelihood</title>
<ellipse fill="lightgrey" stroke="black" cx="183.69" cy="-176.48" rx="50.41" ry="37.45"/>
<text text-anchor="middle" x="183.69" y="-187.78" font-family="Times,serif" font-size="14.00">likelihood</text>
<text text-anchor="middle" x="183.69" y="-172.78" font-family="Times,serif" font-size="14.00">~</text>
<text text-anchor="middle" x="183.69" y="-157.78" font-family="Times,serif" font-size="14.00">Normal</text>
</g>
<!-- sigma&#45;&gt;likelihood -->
<g id="edge6" class="edge">
<title>sigma&#45;&gt;likelihood</title>
<path fill="none" stroke="black" d="M92.85,-256.66C108.5,-243.01 127.17,-226.75 143.49,-212.51"/>
<polygon fill="black" stroke="black" points="146.06,-214.92 151.3,-205.71 141.46,-209.64 146.06,-214.92"/>
</g>
<!-- mu&#45;&gt;likelihood -->
<g id="edge5" class="edge">
<title>mu&#45;&gt;likelihood</title>
<path fill="none" stroke="black" d="M185.22,-260.89C185.02,-249.98 184.78,-236.89 184.55,-224.35"/>
<polygon fill="black" stroke="black" points="188.04,-223.94 184.36,-214 181.04,-224.06 188.04,-223.94"/>
</g>
<!-- likelihood&#45;&gt;y -->
<g id="edge1" class="edge">
<title>likelihood&#45;&gt;y</title>
<path fill="none" stroke="black" d="M179.66,-138.89C178.35,-127.03 176.91,-113.89 175.61,-102.1"/>
<polygon fill="black" stroke="black" points="179.09,-101.71 174.52,-92.16 172.13,-102.48 179.09,-101.71"/>
</g>
</g>
</svg>
