<?xml version="1.0" encoding="UTF-8" standalone="no"?>
<!DOCTYPE svg PUBLIC "-//W3C//DTD SVG 1.1//EN"
 "http://www.w3.org/Graphics/SVG/1.1/DTD/svg11.dtd">
<!-- Generated by graphviz version 7.0.1 (20221109.1506)
 -->
<!-- Pages: 1 -->
<svg width="1301pt" height="519pt"
 viewBox="0.00 0.00 1301.00 518.91" xmlns="http://www.w3.org/2000/svg" xmlns:xlink="http://www.w3.org/1999/xlink">
<g id="graph0" class="graph" transform="scale(1 1) rotate(0) translate(4 514.91)">
<polygon fill="white" stroke="none" points="-4,4 -4,-514.91 1297,-514.91 1297,4 -4,4"/>
<g id="clust1" class="cluster">
<title>clusterobs (595)</title>
<path fill="none" stroke="black" d="M20,-8C20,-8 371,-8 371,-8 377,-8 383,-14 383,-20 383,-20 383,-479.93 383,-479.93 383,-485.93 377,-491.93 371,-491.93 371,-491.93 20,-491.93 20,-491.93 14,-491.93 8,-485.93 8,-479.93 8,-479.93 8,-20 8,-20 8,-14 14,-8 20,-8"/>
<text text-anchor="middle" x="349" y="-15.8" font-family="Times,serif" font-size="14.00">obs (595)</text>
</g>
<g id="clust2" class="cluster">
<title>clusterperiod_month (12)</title>
<path fill="none" stroke="black" d="M1125,-388.95C1125,-388.95 1273,-388.95 1273,-388.95 1279,-388.95 1285,-394.95 1285,-400.95 1285,-400.95 1285,-490.91 1285,-490.91 1285,-496.91 1279,-502.91 1273,-502.91 1273,-502.91 1125,-502.91 1125,-502.91 1119,-502.91 1113,-496.91 1113,-490.91 1113,-490.91 1113,-400.95 1113,-400.95 1113,-394.95 1119,-388.95 1125,-388.95"/>
<text text-anchor="middle" x="1225.5" y="-396.75" font-family="Times,serif" font-size="14.00">period_month (12)</text>
</g>
<!-- age_scaled -->
<g id="node1" class="node">
<title>age_scaled</title>
<path fill="lightgrey" stroke="black" d="M363,-483.93C363,-483.93 299,-483.93 299,-483.93 293,-483.93 287,-477.93 287,-471.93 287,-471.93 287,-442.93 287,-442.93 287,-436.93 293,-430.93 299,-430.93 299,-430.93 363,-430.93 363,-430.93 369,-430.93 375,-436.93 375,-442.93 375,-442.93 375,-471.93 375,-471.93 375,-477.93 369,-483.93 363,-483.93"/>
<text text-anchor="middle" x="331" y="-468.73" font-family="Times,serif" font-size="14.00">age_scaled</text>
<text text-anchor="middle" x="331" y="-453.73" font-family="Times,serif" font-size="14.00">~</text>
<text text-anchor="middle" x="331" y="-438.73" font-family="Times,serif" font-size="14.00">MutableData</text>
</g>
<!-- mu -->
<g id="node5" class="node">
<title>mu</title>
<polygon fill="none" stroke="black" points="374.5,-380.95 283.5,-380.95 283.5,-327.95 374.5,-327.95 374.5,-380.95"/>
<text text-anchor="middle" x="329" y="-365.75" font-family="Times,serif" font-size="14.00">mu</text>
<text text-anchor="middle" x="329" y="-350.75" font-family="Times,serif" font-size="14.00">~</text>
<text text-anchor="middle" x="329" y="-335.75" font-family="Times,serif" font-size="14.00">Deterministic</text>
</g>
<!-- age_scaled&#45;&gt;mu -->
<g id="edge2" class="edge">
<title>age_scaled&#45;&gt;mu</title>
<path fill="none" stroke="black" d="M330.49,-430.69C330.26,-419.06 329.98,-405.1 329.73,-392.38"/>
<polygon fill="black" stroke="black" points="333.24,-392.59 329.54,-382.66 326.24,-392.73 333.24,-392.59"/>
</g>
<!-- likelihood -->
<g id="node2" class="node">
<title>likelihood</title>
<ellipse fill="lightgrey" stroke="black" cx="273" cy="-165.48" rx="50.41" ry="37.45"/>
<text text-anchor="middle" x="273" y="-176.78" font-family="Times,serif" font-size="14.00">likelihood</text>
<text text-anchor="middle" x="273" y="-161.78" font-family="Times,serif" font-size="14.00">~</text>
<text text-anchor="middle" x="273" y="-146.78" font-family="Times,serif" font-size="14.00">Binomial</text>
</g>
<!-- n_active_users -->
<g id="node7" class="node">
<title>n_active_users</title>
<path fill="lightgrey" stroke="black" d="M309.5,-92C309.5,-92 236.5,-92 236.5,-92 230.5,-92 224.5,-86 224.5,-80 224.5,-80 224.5,-51 224.5,-51 224.5,-45 230.5,-39 236.5,-39 236.5,-39 309.5,-39 309.5,-39 315.5,-39 321.5,-45 321.5,-51 321.5,-51 321.5,-80 321.5,-80 321.5,-86 315.5,-92 309.5,-92"/>
<text text-anchor="middle" x="273" y="-76.8" font-family="Times,serif" font-size="14.00">n_active_users</text>
<text text-anchor="middle" x="273" y="-61.8" font-family="Times,serif" font-size="14.00">~</text>
<text text-anchor="middle" x="273" y="-46.8" font-family="Times,serif" font-size="14.00">MutableData</text>
</g>
<!-- likelihood&#45;&gt;n_active_users -->
<g id="edge1" class="edge">
<title>likelihood&#45;&gt;n_active_users</title>
<path fill="none" stroke="black" d="M273,-127.72C273,-119.93 273,-111.7 273,-103.89"/>
<polygon fill="black" stroke="black" points="276.5,-103.98 273,-93.98 269.5,-103.98 276.5,-103.98"/>
</g>
<!-- period_month_idx -->
<g id="node3" class="node">
<title>period_month_idx</title>
<path fill="lightgrey" stroke="black" d="M256.5,-483.93C256.5,-483.93 163.5,-483.93 163.5,-483.93 157.5,-483.93 151.5,-477.93 151.5,-471.93 151.5,-471.93 151.5,-442.93 151.5,-442.93 151.5,-436.93 157.5,-430.93 163.5,-430.93 163.5,-430.93 256.5,-430.93 256.5,-430.93 262.5,-430.93 268.5,-436.93 268.5,-442.93 268.5,-442.93 268.5,-471.93 268.5,-471.93 268.5,-477.93 262.5,-483.93 256.5,-483.93"/>
<text text-anchor="middle" x="210" y="-468.73" font-family="Times,serif" font-size="14.00">period_month_idx</text>
<text text-anchor="middle" x="210" y="-453.73" font-family="Times,serif" font-size="14.00">~</text>
<text text-anchor="middle" x="210" y="-438.73" font-family="Times,serif" font-size="14.00">MutableData</text>
</g>
<!-- period_month_idx&#45;&gt;mu -->
<g id="edge3" class="edge">
<title>period_month_idx&#45;&gt;mu</title>
<path fill="none" stroke="black" d="M233.75,-430.5C246.32,-417.4 262.37,-401.63 278,-388.95 278.29,-388.72 278.59,-388.48 278.88,-388.24"/>
<polygon fill="black" stroke="black" points="280.79,-391.19 286.63,-382.36 276.55,-385.62 280.79,-391.19"/>
</g>
<!-- p -->
<g id="node4" class="node">
<title>p</title>
<polygon fill="none" stroke="black" points="374.5,-291.95 283.5,-291.95 283.5,-238.95 374.5,-238.95 374.5,-291.95"/>
<text text-anchor="middle" x="329" y="-276.75" font-family="Times,serif" font-size="14.00">p</text>
<text text-anchor="middle" x="329" y="-261.75" font-family="Times,serif" font-size="14.00">~</text>
<text text-anchor="middle" x="329" y="-246.75" font-family="Times,serif" font-size="14.00">Deterministic</text>
</g>
<!-- p&#45;&gt;likelihood -->
<g id="edge11" class="edge">
<title>p&#45;&gt;likelihood</title>
<path fill="none" stroke="black" d="M314.14,-238.45C309.19,-229.79 303.52,-219.88 298.01,-210.24"/>
<polygon fill="black" stroke="black" points="301.12,-208.62 293.12,-201.67 295.04,-212.09 301.12,-208.62"/>
</g>
<!-- mu&#45;&gt;p -->
<g id="edge10" class="edge">
<title>mu&#45;&gt;p</title>
<path fill="none" stroke="black" d="M329,-327.82C329,-320.19 329,-311.67 329,-303.47"/>
<polygon fill="black" stroke="black" points="332.5,-303.72 329,-293.72 325.5,-303.72 332.5,-303.72"/>
</g>
<!-- cohort_age_scaled -->
<g id="node6" class="node">
<title>cohort_age_scaled</title>
<path fill="lightgrey" stroke="black" d="M121.5,-483.93C121.5,-483.93 28.5,-483.93 28.5,-483.93 22.5,-483.93 16.5,-477.93 16.5,-471.93 16.5,-471.93 16.5,-442.93 16.5,-442.93 16.5,-436.93 22.5,-430.93 28.5,-430.93 28.5,-430.93 121.5,-430.93 121.5,-430.93 127.5,-430.93 133.5,-436.93 133.5,-442.93 133.5,-442.93 133.5,-471.93 133.5,-471.93 133.5,-477.93 127.5,-483.93 121.5,-483.93"/>
<text text-anchor="middle" x="75" y="-468.73" font-family="Times,serif" font-size="14.00">cohort_age_scaled</text>
<text text-anchor="middle" x="75" y="-453.73" font-family="Times,serif" font-size="14.00">~</text>
<text text-anchor="middle" x="75" y="-438.73" font-family="Times,serif" font-size="14.00">MutableData</text>
</g>
<!-- cohort_age_scaled&#45;&gt;mu -->
<g id="edge8" class="edge">
<title>cohort_age_scaled&#45;&gt;mu</title>
<path fill="none" stroke="black" d="M94.26,-430.74C106.59,-416.18 123.82,-398.93 143,-388.95 182.96,-368.16 233.56,-360.03 271.89,-356.97"/>
<polygon fill="black" stroke="black" points="272.12,-360.46 281.86,-356.28 271.64,-353.48 272.12,-360.46"/>
</g>
<!-- n_users -->
<g id="node8" class="node">
<title>n_users</title>
<path fill="lightgrey" stroke="black" d="M253,-291.95C253,-291.95 189,-291.95 189,-291.95 183,-291.95 177,-285.95 177,-279.95 177,-279.95 177,-250.95 177,-250.95 177,-244.95 183,-238.95 189,-238.95 189,-238.95 253,-238.95 253,-238.95 259,-238.95 265,-244.95 265,-250.95 265,-250.95 265,-279.95 265,-279.95 265,-285.95 259,-291.95 253,-291.95"/>
<text text-anchor="middle" x="221" y="-276.75" font-family="Times,serif" font-size="14.00">n_users</text>
<text text-anchor="middle" x="221" y="-261.75" font-family="Times,serif" font-size="14.00">~</text>
<text text-anchor="middle" x="221" y="-246.75" font-family="Times,serif" font-size="14.00">MutableData</text>
</g>
<!-- n_users&#45;&gt;likelihood -->
<g id="edge12" class="edge">
<title>n_users&#45;&gt;likelihood</title>
<path fill="none" stroke="black" d="M234.8,-238.45C239.31,-229.96 244.45,-220.28 249.46,-210.82"/>
<polygon fill="black" stroke="black" points="252.52,-212.54 254.11,-202.06 246.33,-209.25 252.52,-212.54"/>
</g>
<!-- intercept -->
<g id="node9" class="node">
<title>intercept</title>
<ellipse fill="none" stroke="black" cx="438" cy="-457.43" rx="45.01" ry="37.45"/>
<text text-anchor="middle" x="438" y="-468.73" font-family="Times,serif" font-size="14.00">intercept</text>
<text text-anchor="middle" x="438" y="-453.73" font-family="Times,serif" font-size="14.00">~</text>
<text text-anchor="middle" x="438" y="-438.73" font-family="Times,serif" font-size="14.00">Normal</text>
</g>
<!-- intercept&#45;&gt;mu -->
<g id="edge6" class="edge">
<title>intercept&#45;&gt;mu</title>
<path fill="none" stroke="black" d="M417.27,-423.66C408.8,-411.85 398.33,-398.97 387,-388.95 385.95,-388.02 384.86,-387.1 383.75,-386.2"/>
<polygon fill="black" stroke="black" points="386.18,-383.64 376.07,-380.46 381.99,-389.25 386.18,-383.64"/>
</g>
<!-- b_age_scaled -->
<g id="node10" class="node">
<title>b_age_scaled</title>
<ellipse fill="none" stroke="black" cx="564" cy="-457.43" rx="62.87" ry="37.45"/>
<text text-anchor="middle" x="564" y="-468.73" font-family="Times,serif" font-size="14.00">b_age_scaled</text>
<text text-anchor="middle" x="564" y="-453.73" font-family="Times,serif" font-size="14.00">~</text>
<text text-anchor="middle" x="564" y="-438.73" font-family="Times,serif" font-size="14.00">Normal</text>
</g>
<!-- b_age_scaled&#45;&gt;mu -->
<g id="edge7" class="edge">
<title>b_age_scaled&#45;&gt;mu</title>
<path fill="none" stroke="black" d="M536.1,-423.38C523.81,-410.8 508.43,-397.46 492,-388.95 459.18,-371.96 418.46,-363.58 385.93,-359.46"/>
<polygon fill="black" stroke="black" points="386.64,-356.02 376.3,-358.34 385.83,-362.97 386.64,-356.02"/>
</g>
<!-- b_cohort_age_scaled -->
<g id="node11" class="node">
<title>b_cohort_age_scaled</title>
<ellipse fill="none" stroke="black" cx="738" cy="-457.43" rx="92.76" ry="37.45"/>
<text text-anchor="middle" x="738" y="-468.73" font-family="Times,serif" font-size="14.00">b_cohort_age_scaled</text>
<text text-anchor="middle" x="738" y="-453.73" font-family="Times,serif" font-size="14.00">~</text>
<text text-anchor="middle" x="738" y="-438.73" font-family="Times,serif" font-size="14.00">Normal</text>
</g>
<!-- b_cohort_age_scaled&#45;&gt;mu -->
<g id="edge4" class="edge">
<title>b_cohort_age_scaled&#45;&gt;mu</title>
<path fill="none" stroke="black" d="M697.75,-423.36C679.89,-410.46 657.97,-396.89 636,-388.95 591.39,-372.84 461.82,-363 386.02,-358.46"/>
<polygon fill="black" stroke="black" points="386.49,-354.98 376.3,-357.89 386.08,-361.97 386.49,-354.98"/>
</g>
<!-- b_age_cohort_age_interaction -->
<g id="node12" class="node">
<title>b_age_cohort_age_interaction</title>
<ellipse fill="none" stroke="black" cx="976" cy="-457.43" rx="127.06" ry="37.45"/>
<text text-anchor="middle" x="976" y="-468.73" font-family="Times,serif" font-size="14.00">b_age_cohort_age_interaction</text>
<text text-anchor="middle" x="976" y="-453.73" font-family="Times,serif" font-size="14.00">~</text>
<text text-anchor="middle" x="976" y="-438.73" font-family="Times,serif" font-size="14.00">Normal</text>
</g>
<!-- b_age_cohort_age_interaction&#45;&gt;mu -->
<g id="edge9" class="edge">
<title>b_age_cohort_age_interaction&#45;&gt;mu</title>
<path fill="none" stroke="black" d="M921.4,-423.15C897.31,-410.13 868.12,-396.53 840,-388.95 755.86,-366.3 500.98,-358.7 386.16,-356.38"/>
<polygon fill="black" stroke="black" points="386.41,-352.88 376.35,-356.19 386.28,-359.88 386.41,-352.88"/>
</g>
<!-- b_period_month -->
<g id="node13" class="node">
<title>b_period_month</title>
<ellipse fill="none" stroke="black" cx="1199" cy="-457.43" rx="77.56" ry="37.45"/>
<text text-anchor="middle" x="1199" y="-468.73" font-family="Times,serif" font-size="14.00">b_period_month</text>
<text text-anchor="middle" x="1199" y="-453.73" font-family="Times,serif" font-size="14.00">~</text>
<text text-anchor="middle" x="1199" y="-438.73" font-family="Times,serif" font-size="14.00">ZeroSumNormal</text>
</g>
<!-- b_period_month&#45;&gt;mu -->
<g id="edge5" class="edge">
<title>b_period_month&#45;&gt;mu</title>
<path fill="none" stroke="black" d="M1166.06,-423.04C1150.92,-409.91 1131.92,-396.25 1112,-388.95 1044.52,-364.23 555.06,-357.5 386.14,-355.9"/>
<polygon fill="black" stroke="black" points="386.32,-352.4 376.29,-355.81 386.26,-359.4 386.32,-352.4"/>
</g>
</g>
</svg>
