<?xml version="1.0" encoding="UTF-8" standalone="no"?>
<!DOCTYPE svg PUBLIC "-//W3C//DTD SVG 1.1//EN"
 "http://www.w3.org/Graphics/SVG/1.1/DTD/svg11.dtd">
<!-- Generated by graphviz version 8.1.0 (20230707.0739)
 -->
<!-- Pages: 1 -->
<svg width="1293pt" height="548pt"
 viewBox="0.00 0.00 1293.00 548.13" xmlns="http://www.w3.org/2000/svg" xmlns:xlink="http://www.w3.org/1999/xlink">
<g id="graph0" class="graph" transform="scale(1 1) rotate(0) translate(4 544.13)">
<polygon fill="white" stroke="none" points="-4,4 -4,-544.13 1289,-544.13 1289,4 -4,4"/>
<g id="clust1" class="cluster">
<title>clusterobs (595)</title>
<path fill="none" stroke="black" d="M20,-8C20,-8 368,-8 368,-8 374,-8 380,-14 380,-20 380,-20 380,-508.23 380,-508.23 380,-514.23 374,-520.23 368,-520.23 368,-520.23 20,-520.23 20,-520.23 14,-520.23 8,-514.23 8,-508.23 8,-508.23 8,-20 8,-20 8,-14 14,-8 20,-8"/>
<text text-anchor="middle" x="346.12" y="-15.2" font-family="Times,serif" font-size="14.00">obs (595)</text>
</g>
<g id="clust2" class="cluster">
<title>clusterperiod_month (12)</title>
<path fill="none" stroke="black" d="M1119,-410.32C1119,-410.32 1265,-410.32 1265,-410.32 1271,-410.32 1277,-416.32 1277,-422.32 1277,-422.32 1277,-520.13 1277,-520.13 1277,-526.13 1271,-532.13 1265,-532.13 1265,-532.13 1119,-532.13 1119,-532.13 1113,-532.13 1107,-526.13 1107,-520.13 1107,-520.13 1107,-422.32 1107,-422.32 1107,-416.32 1113,-410.32 1119,-410.32"/>
<text text-anchor="middle" x="1217.62" y="-417.52" font-family="Times,serif" font-size="14.00">period_month (12)</text>
</g>
<!-- period_month_idx -->
<g id="node1" class="node">
<title>period_month_idx</title>
<path fill="lightgrey" stroke="black" d="M360.25,-512.23C360.25,-512.23 267.75,-512.23 267.75,-512.23 261.75,-512.23 255.75,-506.23 255.75,-500.23 255.75,-500.23 255.75,-466.73 255.75,-466.73 255.75,-460.73 261.75,-454.73 267.75,-454.73 267.75,-454.73 360.25,-454.73 360.25,-454.73 366.25,-454.73 372.25,-460.73 372.25,-466.73 372.25,-466.73 372.25,-500.23 372.25,-500.23 372.25,-506.23 366.25,-512.23 360.25,-512.23"/>
<text text-anchor="middle" x="314" y="-494.93" font-family="Times,serif" font-size="14.00">period_month_idx</text>
<text text-anchor="middle" x="314" y="-478.43" font-family="Times,serif" font-size="14.00">~</text>
<text text-anchor="middle" x="314" y="-461.93" font-family="Times,serif" font-size="14.00">MutableData</text>
</g>
<!-- mu -->
<g id="node6" class="node">
<title>mu</title>
<polygon fill="none" stroke="black" points="372.12,-402.32 281.88,-402.32 281.88,-344.82 372.12,-344.82 372.12,-402.32"/>
<text text-anchor="middle" x="327" y="-385.02" font-family="Times,serif" font-size="14.00">mu</text>
<text text-anchor="middle" x="327" y="-368.52" font-family="Times,serif" font-size="14.00">~</text>
<text text-anchor="middle" x="327" y="-352.02" font-family="Times,serif" font-size="14.00">Deterministic</text>
</g>
<!-- period_month_idx&#45;&gt;mu -->
<g id="edge2" class="edge">
<title>period_month_idx&#45;&gt;mu</title>
<path fill="none" stroke="black" d="M317.38,-454.41C318.9,-441.79 320.72,-426.7 322.36,-413.06"/>
<polygon fill="black" stroke="black" points="325.91,-413.84 323.64,-403.5 318.96,-413.01 325.91,-413.84"/>
</g>
<!-- n_active_users -->
<g id="node2" class="node">
<title>n_active_users</title>
<path fill="lightgrey" stroke="black" d="M307.12,-98C307.12,-98 234.88,-98 234.88,-98 228.88,-98 222.88,-92 222.88,-86 222.88,-86 222.88,-52.5 222.88,-52.5 222.88,-46.5 228.88,-40.5 234.88,-40.5 234.88,-40.5 307.12,-40.5 307.12,-40.5 313.12,-40.5 319.12,-46.5 319.12,-52.5 319.12,-52.5 319.12,-86 319.12,-86 319.12,-92 313.12,-98 307.12,-98"/>
<text text-anchor="middle" x="271" y="-80.7" font-family="Times,serif" font-size="14.00">n_active_users</text>
<text text-anchor="middle" x="271" y="-64.2" font-family="Times,serif" font-size="14.00">~</text>
<text text-anchor="middle" x="271" y="-47.7" font-family="Times,serif" font-size="14.00">MutableData</text>
</g>
<!-- age_scaled -->
<g id="node3" class="node">
<title>age_scaled</title>
<path fill="lightgrey" stroke="black" d="M225.62,-512.23C225.62,-512.23 162.38,-512.23 162.38,-512.23 156.38,-512.23 150.38,-506.23 150.38,-500.23 150.38,-500.23 150.38,-466.73 150.38,-466.73 150.38,-460.73 156.38,-454.73 162.38,-454.73 162.38,-454.73 225.62,-454.73 225.62,-454.73 231.62,-454.73 237.62,-460.73 237.62,-466.73 237.62,-466.73 237.62,-500.23 237.62,-500.23 237.62,-506.23 231.62,-512.23 225.62,-512.23"/>
<text text-anchor="middle" x="194" y="-494.93" font-family="Times,serif" font-size="14.00">age_scaled</text>
<text text-anchor="middle" x="194" y="-478.43" font-family="Times,serif" font-size="14.00">~</text>
<text text-anchor="middle" x="194" y="-461.93" font-family="Times,serif" font-size="14.00">MutableData</text>
</g>
<!-- age_scaled&#45;&gt;mu -->
<g id="edge6" class="edge">
<title>age_scaled&#45;&gt;mu</title>
<path fill="none" stroke="black" d="M209.78,-454.36C219.09,-439.73 232,-422.42 247,-410.32 254.4,-404.35 262.95,-399.16 271.65,-394.74"/>
<polygon fill="black" stroke="black" points="272.96,-397.51 280.49,-390.06 269.96,-391.19 272.96,-397.51"/>
</g>
<!-- cohort_age_scaled -->
<g id="node4" class="node">
<title>cohort_age_scaled</title>
<path fill="lightgrey" stroke="black" d="M120.25,-512.23C120.25,-512.23 27.75,-512.23 27.75,-512.23 21.75,-512.23 15.75,-506.23 15.75,-500.23 15.75,-500.23 15.75,-466.73 15.75,-466.73 15.75,-460.73 21.75,-454.73 27.75,-454.73 27.75,-454.73 120.25,-454.73 120.25,-454.73 126.25,-454.73 132.25,-460.73 132.25,-466.73 132.25,-466.73 132.25,-500.23 132.25,-500.23 132.25,-506.23 126.25,-512.23 120.25,-512.23"/>
<text text-anchor="middle" x="74" y="-494.93" font-family="Times,serif" font-size="14.00">cohort_age_scaled</text>
<text text-anchor="middle" x="74" y="-478.43" font-family="Times,serif" font-size="14.00">~</text>
<text text-anchor="middle" x="74" y="-461.93" font-family="Times,serif" font-size="14.00">MutableData</text>
</g>
<!-- cohort_age_scaled&#45;&gt;mu -->
<g id="edge7" class="edge">
<title>cohort_age_scaled&#45;&gt;mu</title>
<path fill="none" stroke="black" d="M93.15,-454.35C105.11,-438.97 121.86,-420.93 141,-410.32 180.96,-388.17 232.33,-379.53 270.96,-376.26"/>
<polygon fill="black" stroke="black" points="270.78,-379.71 280.49,-375.48 270.26,-372.73 270.78,-379.71"/>
</g>
<!-- p -->
<g id="node5" class="node">
<title>p</title>
<polygon fill="none" stroke="black" points="372.12,-308.82 281.88,-308.82 281.88,-251.32 372.12,-251.32 372.12,-308.82"/>
<text text-anchor="middle" x="327" y="-291.52" font-family="Times,serif" font-size="14.00">p</text>
<text text-anchor="middle" x="327" y="-275.02" font-family="Times,serif" font-size="14.00">~</text>
<text text-anchor="middle" x="327" y="-258.52" font-family="Times,serif" font-size="14.00">Deterministic</text>
</g>
<!-- likelihood -->
<g id="node8" class="node">
<title>likelihood</title>
<ellipse fill="lightgrey" stroke="black" cx="271" cy="-174.66" rx="50.03" ry="40.66"/>
<text text-anchor="middle" x="271" y="-186.11" font-family="Times,serif" font-size="14.00">likelihood</text>
<text text-anchor="middle" x="271" y="-169.61" font-family="Times,serif" font-size="14.00">~</text>
<text text-anchor="middle" x="271" y="-153.11" font-family="Times,serif" font-size="14.00">Binomial</text>
</g>
<!-- p&#45;&gt;likelihood -->
<g id="edge12" class="edge">
<title>p&#45;&gt;likelihood</title>
<path fill="none" stroke="black" d="M311.85,-251.08C306.94,-242.02 301.35,-231.71 295.93,-221.69"/>
<polygon fill="black" stroke="black" points="298.64,-220.35 290.8,-213.22 292.48,-223.68 298.64,-220.35"/>
</g>
<!-- mu&#45;&gt;p -->
<g id="edge10" class="edge">
<title>mu&#45;&gt;p</title>
<path fill="none" stroke="black" d="M327,-344.62C327,-336.88 327,-328.35 327,-320.11"/>
<polygon fill="black" stroke="black" points="330.5,-320.16 327,-310.16 323.5,-320.16 330.5,-320.16"/>
</g>
<!-- n_users -->
<g id="node7" class="node">
<title>n_users</title>
<path fill="lightgrey" stroke="black" d="M251.62,-308.82C251.62,-308.82 188.38,-308.82 188.38,-308.82 182.38,-308.82 176.38,-302.82 176.38,-296.82 176.38,-296.82 176.38,-263.32 176.38,-263.32 176.38,-257.32 182.38,-251.32 188.38,-251.32 188.38,-251.32 251.62,-251.32 251.62,-251.32 257.62,-251.32 263.62,-257.32 263.62,-263.32 263.62,-263.32 263.62,-296.82 263.62,-296.82 263.62,-302.82 257.62,-308.82 251.62,-308.82"/>
<text text-anchor="middle" x="220" y="-291.52" font-family="Times,serif" font-size="14.00">n_users</text>
<text text-anchor="middle" x="220" y="-275.02" font-family="Times,serif" font-size="14.00">~</text>
<text text-anchor="middle" x="220" y="-258.52" font-family="Times,serif" font-size="14.00">MutableData</text>
</g>
<!-- n_users&#45;&gt;likelihood -->
<g id="edge11" class="edge">
<title>n_users&#45;&gt;likelihood</title>
<path fill="none" stroke="black" d="M233.8,-251.08C238.18,-242.2 243.15,-232.13 248,-222.3"/>
<polygon fill="black" stroke="black" points="251.49,-224.12 252.78,-213.6 245.22,-221.03 251.49,-224.12"/>
</g>
<!-- likelihood&#45;&gt;n_active_users -->
<g id="edge1" class="edge">
<title>likelihood&#45;&gt;n_active_users</title>
<path fill="none" stroke="black" d="M271,-133.68C271,-125.64 271,-117.21 271,-109.21"/>
<polygon fill="black" stroke="black" points="274.5,-109.28 271,-99.28 267.5,-109.28 274.5,-109.28"/>
</g>
<!-- b_age_scaled -->
<g id="node9" class="node">
<title>b_age_scaled</title>
<ellipse fill="none" stroke="black" cx="453" cy="-483.48" rx="62.76" ry="40.66"/>
<text text-anchor="middle" x="453" y="-494.93" font-family="Times,serif" font-size="14.00">b_age_scaled</text>
<text text-anchor="middle" x="453" y="-478.43" font-family="Times,serif" font-size="14.00">~</text>
<text text-anchor="middle" x="453" y="-461.93" font-family="Times,serif" font-size="14.00">Normal</text>
</g>
<!-- b_age_scaled&#45;&gt;mu -->
<g id="edge3" class="edge">
<title>b_age_scaled&#45;&gt;mu</title>
<path fill="none" stroke="black" d="M423.01,-447.68C411.44,-435.21 397.7,-421.49 384,-410.32 383.09,-409.58 382.17,-408.84 381.24,-408.11"/>
<polygon fill="black" stroke="black" points="383.65,-404.8 373.53,-401.67 379.48,-410.43 383.65,-404.8"/>
</g>
<!-- intercept -->
<g id="node10" class="node">
<title>intercept</title>
<ellipse fill="none" stroke="black" cx="578" cy="-483.48" rx="44.72" ry="40.66"/>
<text text-anchor="middle" x="578" y="-494.93" font-family="Times,serif" font-size="14.00">intercept</text>
<text text-anchor="middle" x="578" y="-478.43" font-family="Times,serif" font-size="14.00">~</text>
<text text-anchor="middle" x="578" y="-461.93" font-family="Times,serif" font-size="14.00">Normal</text>
</g>
<!-- intercept&#45;&gt;mu -->
<g id="edge8" class="edge">
<title>intercept&#45;&gt;mu</title>
<path fill="none" stroke="black" d="M559.13,-446.17C550.47,-432.91 538.98,-419.04 525,-410.32 501.81,-395.84 432.96,-385.71 382.96,-380.01"/>
<polygon fill="black" stroke="black" points="383.6,-376.45 373.28,-378.83 382.83,-383.41 383.6,-376.45"/>
</g>
<!-- b_cohort_age_scaled -->
<g id="node11" class="node">
<title>b_cohort_age_scaled</title>
<ellipse fill="none" stroke="black" cx="733" cy="-483.48" rx="91.92" ry="40.66"/>
<text text-anchor="middle" x="733" y="-494.93" font-family="Times,serif" font-size="14.00">b_cohort_age_scaled</text>
<text text-anchor="middle" x="733" y="-478.43" font-family="Times,serif" font-size="14.00">~</text>
<text text-anchor="middle" x="733" y="-461.93" font-family="Times,serif" font-size="14.00">Normal</text>
</g>
<!-- b_cohort_age_scaled&#45;&gt;mu -->
<g id="edge9" class="edge">
<title>b_cohort_age_scaled&#45;&gt;mu</title>
<path fill="none" stroke="black" d="M693.01,-446.79C675.48,-433.12 653.91,-418.78 632,-410.32 587.91,-393.29 458.62,-382.7 383.28,-377.8"/>
<polygon fill="black" stroke="black" points="383.77,-374.26 373.57,-377.12 383.32,-381.25 383.77,-374.26"/>
</g>
<!-- b_age_cohort_age_interaction -->
<g id="node12" class="node">
<title>b_age_cohort_age_interaction</title>
<ellipse fill="none" stroke="black" cx="970" cy="-483.48" rx="126.93" ry="40.66"/>
<text text-anchor="middle" x="970" y="-494.93" font-family="Times,serif" font-size="14.00">b_age_cohort_age_interaction</text>
<text text-anchor="middle" x="970" y="-478.43" font-family="Times,serif" font-size="14.00">~</text>
<text text-anchor="middle" x="970" y="-461.93" font-family="Times,serif" font-size="14.00">Normal</text>
</g>
<!-- b_age_cohort_age_interaction&#45;&gt;mu -->
<g id="edge4" class="edge">
<title>b_age_cohort_age_interaction&#45;&gt;mu</title>
<path fill="none" stroke="black" d="M915,-446.55C891.08,-432.75 862.14,-418.38 834,-410.32 750.78,-386.47 497.28,-378.18 383.42,-375.6"/>
<polygon fill="black" stroke="black" points="383.6,-372.08 373.52,-375.37 383.44,-379.08 383.6,-372.08"/>
</g>
<!-- b_period_month -->
<g id="node13" class="node">
<title>b_period_month</title>
<ellipse fill="none" stroke="black" cx="1192" cy="-483.48" rx="77.07" ry="40.66"/>
<text text-anchor="middle" x="1192" y="-494.93" font-family="Times,serif" font-size="14.00">b_period_month</text>
<text text-anchor="middle" x="1192" y="-478.43" font-family="Times,serif" font-size="14.00">~</text>
<text text-anchor="middle" x="1192" y="-461.93" font-family="Times,serif" font-size="14.00">ZeroSumNormal</text>
</g>
<!-- b_period_month&#45;&gt;mu -->
<g id="edge5" class="edge">
<title>b_period_month&#45;&gt;mu</title>
<path fill="none" stroke="black" d="M1159.48,-446.44C1144.66,-432.53 1125.97,-418.11 1106,-410.32 1039.31,-384.3 551.11,-376.87 383.39,-375.07"/>
<polygon fill="black" stroke="black" points="383.62,-371.57 373.58,-374.96 383.54,-378.57 383.62,-371.57"/>
</g>
</g>
</svg>
