<?xml version="1.0" encoding="UTF-8" standalone="no"?>
<!DOCTYPE svg PUBLIC "-//W3C//DTD SVG 1.1//EN"
 "http://www.w3.org/Graphics/SVG/1.1/DTD/svg11.dtd">
<!-- Generated by graphviz version 7.0.1 (20221109.1506)
 -->
<!-- Pages: 1 -->
<svg width="238pt" height="527pt"
 viewBox="0.00 0.00 238.00 526.91" xmlns="http://www.w3.org/2000/svg" xmlns:xlink="http://www.w3.org/1999/xlink">
<g id="graph0" class="graph" transform="scale(1 1) rotate(0) translate(4 522.91)">
<polygon fill="white" stroke="none" points="-4,4 -4,-522.91 234,-522.91 234,4 -4,4"/>
<g id="clust1" class="cluster">
<title>clusterobs (595) x feature (3)</title>
<path fill="none" stroke="black" d="M25,-418.91C25,-418.91 141,-418.91 141,-418.91 147,-418.91 153,-424.91 153,-430.91 153,-430.91 153,-498.91 153,-498.91 153,-504.91 147,-510.91 141,-510.91 141,-510.91 25,-510.91 25,-510.91 19,-510.91 13,-504.91 13,-498.91 13,-498.91 13,-430.91 13,-430.91 13,-424.91 19,-418.91 25,-418.91"/>
<text text-anchor="middle" x="83" y="-426.71" font-family="Times,serif" font-size="14.00">obs (595) x feature (3)</text>
</g>
<g id="clust2" class="cluster">
<title>clusterobs (595)</title>
<path fill="none" stroke="black" d="M20,-8C20,-8 210,-8 210,-8 216,-8 222,-14 222,-20 222,-20 222,-398.91 222,-398.91 222,-404.91 216,-410.91 210,-410.91 210,-410.91 20,-410.91 20,-410.91 14,-410.91 8,-404.91 8,-398.91 8,-398.91 8,-20 8,-20 8,-14 14,-8 20,-8"/>
<text text-anchor="middle" x="188" y="-15.8" font-family="Times,serif" font-size="14.00">obs (595)</text>
</g>
<!-- x -->
<g id="node1" class="node">
<title>x</title>
<path fill="lightgrey" stroke="black" d="M102,-502.91C102,-502.91 38,-502.91 38,-502.91 32,-502.91 26,-496.91 26,-490.91 26,-490.91 26,-461.91 26,-461.91 26,-455.91 32,-449.91 38,-449.91 38,-449.91 102,-449.91 102,-449.91 108,-449.91 114,-455.91 114,-461.91 114,-461.91 114,-490.91 114,-490.91 114,-496.91 108,-502.91 102,-502.91"/>
<text text-anchor="middle" x="70" y="-487.71" font-family="Times,serif" font-size="14.00">x</text>
<text text-anchor="middle" x="70" y="-472.71" font-family="Times,serif" font-size="14.00">~</text>
<text text-anchor="middle" x="70" y="-457.71" font-family="Times,serif" font-size="14.00">MutableData</text>
</g>
<!-- mu -->
<g id="node5" class="node">
<title>mu</title>
<ellipse fill="none" stroke="black" cx="70" cy="-365.43" rx="54.39" ry="37.45"/>
<text text-anchor="middle" x="70" y="-376.73" font-family="Times,serif" font-size="14.00">mu</text>
<text text-anchor="middle" x="70" y="-361.73" font-family="Times,serif" font-size="14.00">~</text>
<text text-anchor="middle" x="70" y="-346.73" font-family="Times,serif" font-size="14.00">BART_mu</text>
</g>
<!-- x&#45;&gt;mu -->
<g id="edge2" class="edge">
<title>x&#45;&gt;mu</title>
<path fill="none" stroke="black" d="M70,-449.58C70,-439.09 70,-426.61 70,-414.56"/>
<polygon fill="black" stroke="black" points="73.5,-414.72 70,-404.72 66.5,-414.72 73.5,-414.72"/>
</g>
<!-- n_active_users -->
<g id="node2" class="node">
<title>n_active_users</title>
<path fill="lightgrey" stroke="black" d="M151.5,-92C151.5,-92 78.5,-92 78.5,-92 72.5,-92 66.5,-86 66.5,-80 66.5,-80 66.5,-51 66.5,-51 66.5,-45 72.5,-39 78.5,-39 78.5,-39 151.5,-39 151.5,-39 157.5,-39 163.5,-45 163.5,-51 163.5,-51 163.5,-80 163.5,-80 163.5,-86 157.5,-92 151.5,-92"/>
<text text-anchor="middle" x="115" y="-76.8" font-family="Times,serif" font-size="14.00">n_active_users</text>
<text text-anchor="middle" x="115" y="-61.8" font-family="Times,serif" font-size="14.00">~</text>
<text text-anchor="middle" x="115" y="-46.8" font-family="Times,serif" font-size="14.00">MutableData</text>
</g>
<!-- likelihood -->
<g id="node3" class="node">
<title>likelihood</title>
<ellipse fill="lightgrey" stroke="black" cx="115" cy="-165.48" rx="50.41" ry="37.45"/>
<text text-anchor="middle" x="115" y="-176.78" font-family="Times,serif" font-size="14.00">likelihood</text>
<text text-anchor="middle" x="115" y="-161.78" font-family="Times,serif" font-size="14.00">~</text>
<text text-anchor="middle" x="115" y="-146.78" font-family="Times,serif" font-size="14.00">Binomial</text>
</g>
<!-- likelihood&#45;&gt;n_active_users -->
<g id="edge1" class="edge">
<title>likelihood&#45;&gt;n_active_users</title>
<path fill="none" stroke="black" d="M115,-127.72C115,-119.93 115,-111.7 115,-103.89"/>
<polygon fill="black" stroke="black" points="118.5,-103.98 115,-93.98 111.5,-103.98 118.5,-103.98"/>
</g>
<!-- n_users -->
<g id="node4" class="node">
<title>n_users</title>
<path fill="lightgrey" stroke="black" d="M202,-291.95C202,-291.95 138,-291.95 138,-291.95 132,-291.95 126,-285.95 126,-279.95 126,-279.95 126,-250.95 126,-250.95 126,-244.95 132,-238.95 138,-238.95 138,-238.95 202,-238.95 202,-238.95 208,-238.95 214,-244.95 214,-250.95 214,-250.95 214,-279.95 214,-279.95 214,-285.95 208,-291.95 202,-291.95"/>
<text text-anchor="middle" x="170" y="-276.75" font-family="Times,serif" font-size="14.00">n_users</text>
<text text-anchor="middle" x="170" y="-261.75" font-family="Times,serif" font-size="14.00">~</text>
<text text-anchor="middle" x="170" y="-246.75" font-family="Times,serif" font-size="14.00">MutableData</text>
</g>
<!-- n_users&#45;&gt;likelihood -->
<g id="edge5" class="edge">
<title>n_users&#45;&gt;likelihood</title>
<path fill="none" stroke="black" d="M155.41,-238.45C150.54,-229.79 144.98,-219.88 139.57,-210.24"/>
<polygon fill="black" stroke="black" points="142.71,-208.69 134.76,-201.68 136.61,-212.11 142.71,-208.69"/>
</g>
<!-- p -->
<g id="node6" class="node">
<title>p</title>
<polygon fill="none" stroke="black" points="107.5,-291.95 16.5,-291.95 16.5,-238.95 107.5,-238.95 107.5,-291.95"/>
<text text-anchor="middle" x="62" y="-276.75" font-family="Times,serif" font-size="14.00">p</text>
<text text-anchor="middle" x="62" y="-261.75" font-family="Times,serif" font-size="14.00">~</text>
<text text-anchor="middle" x="62" y="-246.75" font-family="Times,serif" font-size="14.00">Deterministic</text>
</g>
<!-- mu&#45;&gt;p -->
<g id="edge3" class="edge">
<title>mu&#45;&gt;p</title>
<path fill="none" stroke="black" d="M67,-327.67C66.36,-319.88 65.69,-311.65 65.05,-303.84"/>
<polygon fill="black" stroke="black" points="68.55,-303.61 64.24,-293.92 61.57,-304.18 68.55,-303.61"/>
</g>
<!-- p&#45;&gt;likelihood -->
<g id="edge4" class="edge">
<title>p&#45;&gt;likelihood</title>
<path fill="none" stroke="black" d="M76.06,-238.45C80.66,-229.96 85.9,-220.28 91.01,-210.82"/>
<polygon fill="black" stroke="black" points="94.07,-212.52 95.75,-202.06 87.92,-209.19 94.07,-212.52"/>
</g>
</g>
</svg>
