<?xml version="1.0" encoding="UTF-8" standalone="no"?>
<!DOCTYPE svg PUBLIC "-//W3C//DTD SVG 1.1//EN"
 "http://www.w3.org/Graphics/SVG/1.1/DTD/svg11.dtd">
<!-- Generated by graphviz version 8.0.5 (20230430.1635)
 -->
<!-- Pages: 1 -->
<svg width="136pt" height="260pt"
 viewBox="0.00 0.00 135.97 260.00" xmlns="http://www.w3.org/2000/svg" xmlns:xlink="http://www.w3.org/1999/xlink">
<g id="graph0" class="graph" transform="scale(1 1) rotate(0) translate(4 256)">
<polygon fill="white" stroke="none" points="-4,4 -4,-256 131.97,-256 131.97,4 -4,4"/>
<!-- sales -->
<g id="node1" class="node">
<title>sales</title>
<ellipse fill="deepskyblue" stroke="deepskyblue" cx="28.83" cy="-90" rx="28.83" ry="18"/>
<text text-anchor="middle" x="28.83" y="-84.95" font-family="Times,serif" font-size="14.00">sales</text>
</g>
<!-- is_loyal -->
<g id="node4" class="node">
<title>is_loyal</title>
<ellipse fill="none" stroke="black" cx="56.83" cy="-18" rx="40.09" ry="18"/>
<text text-anchor="middle" x="56.83" y="-12.95" font-family="Times,serif" font-size="14.00">is_loyal</text>
</g>
<!-- sales&#45;&gt;is_loyal -->
<g id="edge5" class="edge">
<title>sales&#45;&gt;is_loyal</title>
<path fill="none" stroke="black" d="M35.61,-72.05C38.74,-64.23 42.53,-54.75 46.04,-45.98"/>
<polygon fill="black" stroke="black" points="49.65,-47.37 50.12,-36.79 43.15,-44.77 49.65,-47.37"/>
</g>
<!-- discount -->
<g id="node2" class="node">
<title>discount</title>
<ellipse fill="deeppink" stroke="deeppink" cx="85.83" cy="-162" rx="42.14" ry="18"/>
<text text-anchor="middle" x="85.83" y="-156.95" font-family="Times,serif" font-size="14.00">discount</text>
</g>
<!-- discount&#45;&gt;sales -->
<g id="edge1" class="edge">
<title>discount&#45;&gt;sales</title>
<path fill="none" stroke="black" d="M72.61,-144.76C65.29,-135.77 56.05,-124.42 47.95,-114.48"/>
<polygon fill="black" stroke="black" points="50.23,-112.73 41.2,-107.19 44.8,-117.15 50.23,-112.73"/>
</g>
<!-- discount&#45;&gt;is_loyal -->
<g id="edge4" class="edge">
<title>discount&#45;&gt;is_loyal</title>
<path fill="none" stroke="black" d="M82.28,-143.59C77.34,-119.4 68.34,-75.36 62.48,-46.65"/>
<polygon fill="black" stroke="black" points="65.76,-46.21 60.33,-37.11 58.9,-47.61 65.76,-46.21"/>
</g>
<!-- visits -->
<g id="node3" class="node">
<title>visits</title>
<ellipse fill="none" stroke="black" cx="50.83" cy="-234" rx="30.37" ry="18"/>
<text text-anchor="middle" x="50.83" y="-228.95" font-family="Times,serif" font-size="14.00">visits</text>
</g>
<!-- visits&#45;&gt;sales -->
<g id="edge3" class="edge">
<title>visits&#45;&gt;sales</title>
<path fill="none" stroke="black" d="M44.65,-216.05C41.16,-205.77 37.07,-192.29 34.83,-180 31.16,-159.85 29.68,-136.77 29.11,-119.16"/>
<polygon fill="black" stroke="black" points="32.58,-119.12 28.85,-109.2 25.59,-119.28 32.58,-119.12"/>
</g>
<!-- visits&#45;&gt;discount -->
<g id="edge2" class="edge">
<title>visits&#45;&gt;discount</title>
<path fill="none" stroke="black" d="M59.13,-216.41C63.12,-208.42 68.01,-198.64 72.51,-189.64"/>
<polygon fill="black" stroke="black" points="76.01,-191.47 77.35,-180.96 69.75,-188.34 76.01,-191.47"/>
</g>
</g>
</svg>
