<?xml version="1.0" encoding="UTF-8" standalone="no"?>
<!DOCTYPE svg PUBLIC "-//W3C//DTD SVG 1.1//EN"
 "http://www.w3.org/Graphics/SVG/1.1/DTD/svg11.dtd">
<!-- Generated by graphviz version 8.0.5 (20230430.1635)
 -->
<!-- Pages: 1 -->
<svg width="543pt" height="247pt"
 viewBox="0.00 0.00 542.92 247.13" xmlns="http://www.w3.org/2000/svg" xmlns:xlink="http://www.w3.org/1999/xlink">
<g id="graph0" class="graph" transform="scale(1 1) rotate(0) translate(4 243.13)">
<polygon fill="white" stroke="none" points="-4,4 -4,-243.13 538.92,-243.13 538.92,4 -4,4"/>
<g id="clust1" class="cluster">
<title>clustersales_obs (700)</title>
<path fill="none" stroke="black" d="M214.25,-8C214.25,-8 290.25,-8 290.25,-8 296.25,-8 302.25,-14 302.25,-20 302.25,-20 302.25,-117.82 302.25,-117.82 302.25,-123.82 296.25,-129.82 290.25,-129.82 290.25,-129.82 214.25,-129.82 214.25,-129.82 208.25,-129.82 202.25,-123.82 202.25,-117.82 202.25,-117.82 202.25,-20 202.25,-20 202.25,-14 208.25,-8 214.25,-8"/>
<text text-anchor="middle" x="251.88" y="-15.2" font-family="Times,serif" font-size="14.00">sales_obs (700)</text>
</g>
<!-- Intercept -->
<g id="node1" class="node">
<title>Intercept</title>
<ellipse fill="none" stroke="black" cx="45.25" cy="-198.48" rx="45.25" ry="40.66"/>
<text text-anchor="middle" x="45.25" y="-209.93" font-family="Times,serif" font-size="14.00">Intercept</text>
<text text-anchor="middle" x="45.25" y="-193.43" font-family="Times,serif" font-size="14.00">~</text>
<text text-anchor="middle" x="45.25" y="-176.93" font-family="Times,serif" font-size="14.00">Normal</text>
</g>
<!-- sales -->
<g id="node6" class="node">
<title>sales</title>
<ellipse fill="lightgrey" stroke="black" cx="252.25" cy="-81.16" rx="41.01" ry="40.66"/>
<text text-anchor="middle" x="252.25" y="-92.61" font-family="Times,serif" font-size="14.00">sales</text>
<text text-anchor="middle" x="252.25" y="-76.11" font-family="Times,serif" font-size="14.00">~</text>
<text text-anchor="middle" x="252.25" y="-59.61" font-family="Times,serif" font-size="14.00">Normal</text>
</g>
<!-- Intercept&#45;&gt;sales -->
<g id="edge1" class="edge">
<title>Intercept&#45;&gt;sales</title>
<path fill="none" stroke="black" d="M79.21,-171.17C85.72,-166.51 92.6,-161.87 99.25,-157.82 133.52,-136.98 174.33,-117.03 205.17,-102.85"/>
<polygon fill="black" stroke="black" points="206.17,-105.78 213.82,-98.45 203.27,-99.41 206.17,-105.78"/>
</g>
<!-- is_loyal -->
<g id="node2" class="node">
<title>is_loyal</title>
<ellipse fill="none" stroke="black" cx="150.25" cy="-198.48" rx="41.54" ry="40.66"/>
<text text-anchor="middle" x="150.25" y="-209.93" font-family="Times,serif" font-size="14.00">is_loyal</text>
<text text-anchor="middle" x="150.25" y="-193.43" font-family="Times,serif" font-size="14.00">~</text>
<text text-anchor="middle" x="150.25" y="-176.93" font-family="Times,serif" font-size="14.00">Normal</text>
</g>
<!-- is_loyal&#45;&gt;sales -->
<g id="edge2" class="edge">
<title>is_loyal&#45;&gt;sales</title>
<path fill="none" stroke="black" d="M177.05,-167.18C189.7,-152.88 204.94,-135.65 218.38,-120.46"/>
<polygon fill="black" stroke="black" points="220.63,-123.06 224.63,-113.25 215.39,-118.43 220.63,-123.06"/>
</g>
<!-- visits -->
<g id="node3" class="node">
<title>visits</title>
<ellipse fill="none" stroke="black" cx="252.25" cy="-198.48" rx="42.6" ry="40.66"/>
<text text-anchor="middle" x="252.25" y="-209.93" font-family="Times,serif" font-size="14.00">visits</text>
<text text-anchor="middle" x="252.25" y="-193.43" font-family="Times,serif" font-size="14.00">~</text>
<text text-anchor="middle" x="252.25" y="-176.93" font-family="Times,serif" font-size="14.00">Gamma</text>
</g>
<!-- visits&#45;&gt;sales -->
<g id="edge5" class="edge">
<title>visits&#45;&gt;sales</title>
<path fill="none" stroke="black" d="M252.25,-157.47C252.25,-149.6 252.25,-141.24 252.25,-133.07"/>
<polygon fill="black" stroke="black" points="255.75,-133.1 252.25,-123.1 248.75,-133.1 255.75,-133.1"/>
</g>
<!-- sales_sigma -->
<g id="node4" class="node">
<title>sales_sigma</title>
<ellipse fill="none" stroke="black" cx="371.25" cy="-198.48" rx="57.98" ry="40.66"/>
<text text-anchor="middle" x="371.25" y="-209.93" font-family="Times,serif" font-size="14.00">sales_sigma</text>
<text text-anchor="middle" x="371.25" y="-193.43" font-family="Times,serif" font-size="14.00">~</text>
<text text-anchor="middle" x="371.25" y="-176.93" font-family="Times,serif" font-size="14.00">Exponential</text>
</g>
<!-- sales_sigma&#45;&gt;sales -->
<g id="edge3" class="edge">
<title>sales_sigma&#45;&gt;sales</title>
<path fill="none" stroke="black" d="M337.79,-165.05C322.69,-150.41 304.8,-133.07 289.29,-118.05"/>
<polygon fill="black" stroke="black" points="292.04,-115.87 282.43,-111.43 287.17,-120.9 292.04,-115.87"/>
</g>
<!-- discount -->
<g id="node5" class="node">
<title>discount</title>
<ellipse fill="none" stroke="black" cx="491.25" cy="-198.48" rx="43.66" ry="40.66"/>
<text text-anchor="middle" x="491.25" y="-209.93" font-family="Times,serif" font-size="14.00">discount</text>
<text text-anchor="middle" x="491.25" y="-193.43" font-family="Times,serif" font-size="14.00">~</text>
<text text-anchor="middle" x="491.25" y="-176.93" font-family="Times,serif" font-size="14.00">Normal</text>
</g>
<!-- discount&#45;&gt;sales -->
<g id="edge4" class="edge">
<title>discount&#45;&gt;sales</title>
<path fill="none" stroke="black" d="M458.49,-170.95C451.99,-166.26 445.06,-161.66 438.25,-157.82 393.96,-132.78 339.71,-111.7 301.26,-98.2"/>
<polygon fill="black" stroke="black" points="302.94,-94.74 292.35,-94.77 300.65,-101.35 302.94,-94.74"/>
</g>
</g>
</svg>
