<?xml version="1.0" encoding="UTF-8" standalone="no"?>
<!DOCTYPE svg PUBLIC "-//W3C//DTD SVG 1.1//EN"
 "http://www.w3.org/Graphics/SVG/1.1/DTD/svg11.dtd">
<!-- Generated by graphviz version 8.1.0 (20230707.0739)
 -->
<!-- Pages: 1 -->
<svg width="1215pt" height="673pt"
 viewBox="0.00 0.00 1214.93 673.45" xmlns="http://www.w3.org/2000/svg" xmlns:xlink="http://www.w3.org/1999/xlink">
<g id="graph0" class="graph" transform="scale(1 1) rotate(0) translate(4 669.45)">
<polygon fill="white" stroke="none" points="-4,4 -4,-669.45 1210.93,-669.45 1210.93,4 -4,4"/>
<g id="clust1" class="cluster">
<title>clusterobs (595)</title>
<path fill="none" stroke="black" d="M20,-8C20,-8 480,-8 480,-8 486,-8 492,-14 492,-20 492,-20 492,-539.45 492,-539.45 492,-545.45 486,-551.45 480,-551.45 480,-551.45 20,-551.45 20,-551.45 14,-551.45 8,-545.45 8,-539.45 8,-539.45 8,-20 8,-20 8,-14 14,-8 20,-8"/>
<text text-anchor="middle" x="458.12" y="-15.2" font-family="Times,serif" font-size="14.00">obs (595)</text>
</g>
<g id="clust2" class="cluster">
<title>clusterobs (595) x feature (3)</title>
<path fill="none" stroke="black" d="M25,-559.45C25,-559.45 140,-559.45 140,-559.45 146,-559.45 152,-565.45 152,-571.45 152,-571.45 152,-645.45 152,-645.45 152,-651.45 146,-657.45 140,-657.45 140,-657.45 25,-657.45 25,-657.45 19,-657.45 13,-651.45 13,-645.45 13,-645.45 13,-571.45 13,-571.45 13,-565.45 19,-559.45 25,-559.45"/>
<text text-anchor="middle" x="82.5" y="-566.65" font-family="Times,serif" font-size="14.00">obs (595) x feature (3)</text>
</g>
<!-- revenue -->
<g id="node1" class="node">
<title>revenue</title>
<path fill="lightgrey" stroke="black" d="M265.62,-98C265.62,-98 202.38,-98 202.38,-98 196.38,-98 190.38,-92 190.38,-86 190.38,-86 190.38,-52.5 190.38,-52.5 190.38,-46.5 196.38,-40.5 202.38,-40.5 202.38,-40.5 265.62,-40.5 265.62,-40.5 271.62,-40.5 277.62,-46.5 277.62,-52.5 277.62,-52.5 277.62,-86 277.62,-86 277.62,-92 271.62,-98 265.62,-98"/>
<text text-anchor="middle" x="234" y="-80.7" font-family="Times,serif" font-size="14.00">revenue</text>
<text text-anchor="middle" x="234" y="-64.2" font-family="Times,serif" font-size="14.00">~</text>
<text text-anchor="middle" x="234" y="-47.7" font-family="Times,serif" font-size="14.00">MutableData</text>
</g>
<!-- n_users -->
<g id="node2" class="node">
<title>n_users</title>
<path fill="lightgrey" stroke="black" d="M204.62,-426.13C204.62,-426.13 141.38,-426.13 141.38,-426.13 135.38,-426.13 129.38,-420.13 129.38,-414.13 129.38,-414.13 129.38,-380.63 129.38,-380.63 129.38,-374.63 135.38,-368.63 141.38,-368.63 141.38,-368.63 204.62,-368.63 204.62,-368.63 210.62,-368.63 216.62,-374.63 216.62,-380.63 216.62,-380.63 216.62,-414.13 216.62,-414.13 216.62,-420.13 210.62,-426.13 204.62,-426.13"/>
<text text-anchor="middle" x="173" y="-408.83" font-family="Times,serif" font-size="14.00">n_users</text>
<text text-anchor="middle" x="173" y="-392.33" font-family="Times,serif" font-size="14.00">~</text>
<text text-anchor="middle" x="173" y="-375.83" font-family="Times,serif" font-size="14.00">MutableData</text>
</g>
<!-- n_active_users_estimated -->
<g id="node5" class="node">
<title>n_active_users_estimated</title>
<ellipse fill="lightgrey" stroke="black" cx="160" cy="-291.98" rx="109.96" ry="40.66"/>
<text text-anchor="middle" x="160" y="-303.43" font-family="Times,serif" font-size="14.00">n_active_users_estimated</text>
<text text-anchor="middle" x="160" y="-286.93" font-family="Times,serif" font-size="14.00">~</text>
<text text-anchor="middle" x="160" y="-270.43" font-family="Times,serif" font-size="14.00">Binomial</text>
</g>
<!-- n_users&#45;&gt;n_active_users_estimated -->
<g id="edge13" class="edge">
<title>n_users&#45;&gt;n_active_users_estimated</title>
<path fill="none" stroke="black" d="M169.48,-368.4C168.52,-360.75 167.45,-352.21 166.38,-343.7"/>
<polygon fill="black" stroke="black" points="169.75,-343.5 165.03,-334.02 162.81,-344.38 169.75,-343.5"/>
</g>
<!-- mu -->
<g id="node3" class="node">
<title>mu</title>
<ellipse fill="none" stroke="black" cx="70" cy="-502.79" rx="54.27" ry="40.66"/>
<text text-anchor="middle" x="70" y="-514.24" font-family="Times,serif" font-size="14.00">mu</text>
<text text-anchor="middle" x="70" y="-497.74" font-family="Times,serif" font-size="14.00">~</text>
<text text-anchor="middle" x="70" y="-481.24" font-family="Times,serif" font-size="14.00">BART_mu</text>
</g>
<!-- p -->
<g id="node12" class="node">
<title>p</title>
<polygon fill="none" stroke="black" points="111.12,-426.13 20.88,-426.13 20.88,-368.63 111.12,-368.63 111.12,-426.13"/>
<text text-anchor="middle" x="66" y="-408.83" font-family="Times,serif" font-size="14.00">p</text>
<text text-anchor="middle" x="66" y="-392.33" font-family="Times,serif" font-size="14.00">~</text>
<text text-anchor="middle" x="66" y="-375.83" font-family="Times,serif" font-size="14.00">Deterministic</text>
</g>
<!-- mu&#45;&gt;p -->
<g id="edge4" class="edge">
<title>mu&#45;&gt;p</title>
<path fill="none" stroke="black" d="M68.45,-461.81C68.14,-453.78 67.82,-445.34 67.51,-437.34"/>
<polygon fill="black" stroke="black" points="70.97,-437.27 67.08,-427.41 63.97,-437.54 70.97,-437.27"/>
</g>
<!-- revenue_estimated -->
<g id="node4" class="node">
<title>revenue_estimated</title>
<ellipse fill="lightgrey" stroke="black" cx="234" cy="-174.66" rx="83.44" ry="40.66"/>
<text text-anchor="middle" x="234" y="-186.11" font-family="Times,serif" font-size="14.00">revenue_estimated</text>
<text text-anchor="middle" x="234" y="-169.61" font-family="Times,serif" font-size="14.00">~</text>
<text text-anchor="middle" x="234" y="-153.11" font-family="Times,serif" font-size="14.00">Gamma</text>
</g>
<!-- revenue_estimated&#45;&gt;revenue -->
<g id="edge2" class="edge">
<title>revenue_estimated&#45;&gt;revenue</title>
<path fill="none" stroke="black" d="M234,-133.68C234,-125.64 234,-117.21 234,-109.21"/>
<polygon fill="black" stroke="black" points="237.5,-109.28 234,-99.28 230.5,-109.28 237.5,-109.28"/>
</g>
<!-- n_active_users_estimated&#45;&gt;revenue_estimated -->
<g id="edge14" class="edge">
<title>n_active_users_estimated&#45;&gt;revenue_estimated</title>
<path fill="none" stroke="black" d="M185.05,-251.93C191.03,-242.63 197.47,-232.59 203.65,-222.96"/>
<polygon fill="black" stroke="black" points="207.02,-225.18 209.47,-214.88 201.13,-221.4 207.02,-225.18"/>
</g>
<!-- n_active_users -->
<g id="node8" class="node">
<title>n_active_users</title>
<path fill="lightgrey" stroke="black" d="M120.12,-203.41C120.12,-203.41 47.88,-203.41 47.88,-203.41 41.88,-203.41 35.88,-197.41 35.88,-191.41 35.88,-191.41 35.88,-157.91 35.88,-157.91 35.88,-151.91 41.88,-145.91 47.88,-145.91 47.88,-145.91 120.12,-145.91 120.12,-145.91 126.12,-145.91 132.12,-151.91 132.12,-157.91 132.12,-157.91 132.12,-191.41 132.12,-191.41 132.12,-197.41 126.12,-203.41 120.12,-203.41"/>
<text text-anchor="middle" x="84" y="-186.11" font-family="Times,serif" font-size="14.00">n_active_users</text>
<text text-anchor="middle" x="84" y="-169.61" font-family="Times,serif" font-size="14.00">~</text>
<text text-anchor="middle" x="84" y="-153.11" font-family="Times,serif" font-size="14.00">MutableData</text>
</g>
<!-- n_active_users_estimated&#45;&gt;n_active_users -->
<g id="edge1" class="edge">
<title>n_active_users_estimated&#45;&gt;n_active_users</title>
<path fill="none" stroke="black" d="M134.48,-252.26C126.08,-239.51 116.77,-225.38 108.46,-212.77"/>
<polygon fill="black" stroke="black" points="111.03,-211.31 102.6,-204.89 105.18,-215.16 111.03,-211.31"/>
</g>
<!-- mean_revenue_per_active_user -->
<g id="node6" class="node">
<title>mean_revenue_per_active_user</title>
<polygon fill="none" stroke="black" points="483.88,-98 296.12,-98 296.12,-40.5 483.88,-40.5 483.88,-98"/>
<text text-anchor="middle" x="390" y="-80.7" font-family="Times,serif" font-size="14.00">mean_revenue_per_active_user</text>
<text text-anchor="middle" x="390" y="-64.2" font-family="Times,serif" font-size="14.00">~</text>
<text text-anchor="middle" x="390" y="-47.7" font-family="Times,serif" font-size="14.00">Deterministic</text>
</g>
<!-- lam_log -->
<g id="node7" class="node">
<title>lam_log</title>
<polygon fill="none" stroke="black" points="484.12,-426.13 393.88,-426.13 393.88,-368.63 484.12,-368.63 484.12,-426.13"/>
<text text-anchor="middle" x="439" y="-408.83" font-family="Times,serif" font-size="14.00">lam_log</text>
<text text-anchor="middle" x="439" y="-392.33" font-family="Times,serif" font-size="14.00">~</text>
<text text-anchor="middle" x="439" y="-375.83" font-family="Times,serif" font-size="14.00">Deterministic</text>
</g>
<!-- lam -->
<g id="node11" class="node">
<title>lam</title>
<polygon fill="none" stroke="black" points="455.12,-320.73 364.88,-320.73 364.88,-263.23 455.12,-263.23 455.12,-320.73"/>
<text text-anchor="middle" x="410" y="-303.43" font-family="Times,serif" font-size="14.00">lam</text>
<text text-anchor="middle" x="410" y="-286.93" font-family="Times,serif" font-size="14.00">~</text>
<text text-anchor="middle" x="410" y="-270.43" font-family="Times,serif" font-size="14.00">Deterministic</text>
</g>
<!-- lam_log&#45;&gt;lam -->
<g id="edge11" class="edge">
<title>lam_log&#45;&gt;lam</title>
<path fill="none" stroke="black" d="M431.15,-368.4C427.96,-357.02 424.22,-343.68 420.78,-331.41"/>
<polygon fill="black" stroke="black" points="423.92,-330.67 417.85,-321.98 417.18,-332.56 423.92,-330.67"/>
</g>
<!-- mean_revenue_per_user -->
<g id="node9" class="node">
<title>mean_revenue_per_user</title>
<polygon fill="none" stroke="black" points="484.38,-203.41 335.62,-203.41 335.62,-145.91 484.38,-145.91 484.38,-203.41"/>
<text text-anchor="middle" x="410" y="-186.11" font-family="Times,serif" font-size="14.00">mean_revenue_per_user</text>
<text text-anchor="middle" x="410" y="-169.61" font-family="Times,serif" font-size="14.00">~</text>
<text text-anchor="middle" x="410" y="-153.11" font-family="Times,serif" font-size="14.00">Deterministic</text>
</g>
<!-- mean_revenue_per_user&#45;&gt;mean_revenue_per_active_user -->
<g id="edge18" class="edge">
<title>mean_revenue_per_user&#45;&gt;mean_revenue_per_active_user</title>
<path fill="none" stroke="black" d="M404.59,-145.67C402.39,-134.29 399.81,-120.96 397.43,-108.69"/>
<polygon fill="black" stroke="black" points="400.75,-108.41 395.42,-99.26 393.88,-109.74 400.75,-108.41"/>
</g>
<!-- cohort_age_scaled -->
<g id="node10" class="node">
<title>cohort_age_scaled</title>
<path fill="lightgrey" stroke="black" d="M470.25,-531.54C470.25,-531.54 377.75,-531.54 377.75,-531.54 371.75,-531.54 365.75,-525.54 365.75,-519.54 365.75,-519.54 365.75,-486.04 365.75,-486.04 365.75,-480.04 371.75,-474.04 377.75,-474.04 377.75,-474.04 470.25,-474.04 470.25,-474.04 476.25,-474.04 482.25,-480.04 482.25,-486.04 482.25,-486.04 482.25,-519.54 482.25,-519.54 482.25,-525.54 476.25,-531.54 470.25,-531.54"/>
<text text-anchor="middle" x="424" y="-514.24" font-family="Times,serif" font-size="14.00">cohort_age_scaled</text>
<text text-anchor="middle" x="424" y="-497.74" font-family="Times,serif" font-size="14.00">~</text>
<text text-anchor="middle" x="424" y="-481.24" font-family="Times,serif" font-size="14.00">MutableData</text>
</g>
<!-- cohort_age_scaled&#45;&gt;lam_log -->
<g id="edge5" class="edge">
<title>cohort_age_scaled&#45;&gt;lam_log</title>
<path fill="none" stroke="black" d="M428.06,-473.81C429.69,-462.54 431.61,-449.36 433.37,-437.19"/>
<polygon fill="black" stroke="black" points="436.97,-437.79 434.94,-427.39 430.04,-436.78 436.97,-437.79"/>
</g>
<!-- lam&#45;&gt;revenue_estimated -->
<g id="edge15" class="edge">
<title>lam&#45;&gt;revenue_estimated</title>
<path fill="none" stroke="black" d="M366.95,-262.77C344.48,-248.04 316.66,-229.82 292.29,-213.85"/>
<polygon fill="black" stroke="black" points="294.42,-210.41 284.14,-207.86 290.59,-216.26 294.42,-210.41"/>
</g>
<!-- lam&#45;&gt;mean_revenue_per_user -->
<g id="edge16" class="edge">
<title>lam&#45;&gt;mean_revenue_per_user</title>
<path fill="none" stroke="black" d="M410,-262.77C410,-248.14 410,-230.05 410,-214.16"/>
<polygon fill="black" stroke="black" points="413.5,-214.58 410,-204.58 406.5,-214.58 413.5,-214.58"/>
</g>
<!-- p&#45;&gt;n_active_users_estimated -->
<g id="edge12" class="edge">
<title>p&#45;&gt;n_active_users_estimated</title>
<path fill="none" stroke="black" d="M91.44,-368.4C99.76,-359.24 109.24,-348.82 118.43,-338.71"/>
<polygon fill="black" stroke="black" points="120.58,-341.45 124.72,-331.69 115.4,-336.74 120.58,-341.45"/>
</g>
<!-- p&#45;&gt;mean_revenue_per_active_user -->
<g id="edge17" class="edge">
<title>p&#45;&gt;mean_revenue_per_active_user</title>
<path fill="none" stroke="black" d="M49.24,-368.3C20.16,-315.52 -31.23,-200.85 27,-134 63.37,-92.25 213.45,-107.78 285.03,-97.94"/>
<polygon fill="black" stroke="black" points="285.53,-101.24 294.81,-96.13 284.37,-94.34 285.53,-101.24"/>
</g>
<!-- age_scaled -->
<g id="node13" class="node">
<title>age_scaled</title>
<path fill="lightgrey" stroke="black" d="M335.62,-531.54C335.62,-531.54 272.38,-531.54 272.38,-531.54 266.38,-531.54 260.38,-525.54 260.38,-519.54 260.38,-519.54 260.38,-486.04 260.38,-486.04 260.38,-480.04 266.38,-474.04 272.38,-474.04 272.38,-474.04 335.62,-474.04 335.62,-474.04 341.62,-474.04 347.62,-480.04 347.62,-486.04 347.62,-486.04 347.62,-519.54 347.62,-519.54 347.62,-525.54 341.62,-531.54 335.62,-531.54"/>
<text text-anchor="middle" x="304" y="-514.24" font-family="Times,serif" font-size="14.00">age_scaled</text>
<text text-anchor="middle" x="304" y="-497.74" font-family="Times,serif" font-size="14.00">~</text>
<text text-anchor="middle" x="304" y="-481.24" font-family="Times,serif" font-size="14.00">MutableData</text>
</g>
<!-- age_scaled&#45;&gt;lam_log -->
<g id="edge10" class="edge">
<title>age_scaled&#45;&gt;lam_log</title>
<path fill="none" stroke="black" d="M340.53,-473.81C357.04,-461.16 376.7,-446.1 394.1,-432.78"/>
<polygon fill="black" stroke="black" points="395.63,-435.25 401.44,-426.39 391.37,-429.69 395.63,-435.25"/>
</g>
<!-- x -->
<g id="node14" class="node">
<title>x</title>
<path fill="lightgrey" stroke="black" d="M101.62,-649.45C101.62,-649.45 38.38,-649.45 38.38,-649.45 32.38,-649.45 26.38,-643.45 26.38,-637.45 26.38,-637.45 26.38,-603.95 26.38,-603.95 26.38,-597.95 32.38,-591.95 38.38,-591.95 38.38,-591.95 101.62,-591.95 101.62,-591.95 107.62,-591.95 113.62,-597.95 113.62,-603.95 113.62,-603.95 113.62,-637.45 113.62,-637.45 113.62,-643.45 107.62,-649.45 101.62,-649.45"/>
<text text-anchor="middle" x="70" y="-632.15" font-family="Times,serif" font-size="14.00">x</text>
<text text-anchor="middle" x="70" y="-615.65" font-family="Times,serif" font-size="14.00">~</text>
<text text-anchor="middle" x="70" y="-599.15" font-family="Times,serif" font-size="14.00">MutableData</text>
</g>
<!-- x&#45;&gt;mu -->
<g id="edge3" class="edge">
<title>x&#45;&gt;mu</title>
<path fill="none" stroke="black" d="M70,-591.64C70,-580.55 70,-567.45 70,-554.8"/>
<polygon fill="black" stroke="black" points="73.5,-554.86 70,-544.86 66.5,-554.86 73.5,-554.86"/>
</g>
<!-- b_age_scaled -->
<g id="node15" class="node">
<title>b_age_scaled</title>
<ellipse fill="none" stroke="black" cx="872" cy="-502.79" rx="62.76" ry="40.66"/>
<text text-anchor="middle" x="872" y="-514.24" font-family="Times,serif" font-size="14.00">b_age_scaled</text>
<text text-anchor="middle" x="872" y="-497.74" font-family="Times,serif" font-size="14.00">~</text>
<text text-anchor="middle" x="872" y="-481.24" font-family="Times,serif" font-size="14.00">Normal</text>
</g>
<!-- b_age_scaled&#45;&gt;lam_log -->
<g id="edge7" class="edge">
<title>b_age_scaled&#45;&gt;lam_log</title>
<path fill="none" stroke="black" d="M827.23,-473.85C818.75,-469.41 809.78,-465.26 801,-462.13 696.78,-425.05 567.71,-408.96 495.24,-402.43"/>
<polygon fill="black" stroke="black" points="495.81,-398.88 485.54,-401.5 495.2,-405.85 495.81,-398.88"/>
</g>
<!-- b_age_cohort_age_interaction -->
<g id="node16" class="node">
<title>b_age_cohort_age_interaction</title>
<ellipse fill="none" stroke="black" cx="1080" cy="-502.79" rx="126.93" ry="40.66"/>
<text text-anchor="middle" x="1080" y="-514.24" font-family="Times,serif" font-size="14.00">b_age_cohort_age_interaction</text>
<text text-anchor="middle" x="1080" y="-497.74" font-family="Times,serif" font-size="14.00">~</text>
<text text-anchor="middle" x="1080" y="-481.24" font-family="Times,serif" font-size="14.00">Normal</text>
</g>
<!-- b_age_cohort_age_interaction&#45;&gt;lam_log -->
<g id="edge8" class="edge">
<title>b_age_cohort_age_interaction&#45;&gt;lam_log</title>
<path fill="none" stroke="black" d="M990.52,-473.53C975.11,-469.28 959.17,-465.28 944,-462.13 782.91,-428.7 589.02,-410.18 495.25,-402.56"/>
<polygon fill="black" stroke="black" points="495.57,-399 485.32,-401.69 495.01,-405.97 495.57,-399"/>
</g>
<!-- b_cohort_age_scaled -->
<g id="node17" class="node">
<title>b_cohort_age_scaled</title>
<ellipse fill="none" stroke="black" cx="592" cy="-502.79" rx="91.92" ry="40.66"/>
<text text-anchor="middle" x="592" y="-514.24" font-family="Times,serif" font-size="14.00">b_cohort_age_scaled</text>
<text text-anchor="middle" x="592" y="-497.74" font-family="Times,serif" font-size="14.00">~</text>
<text text-anchor="middle" x="592" y="-481.24" font-family="Times,serif" font-size="14.00">Normal</text>
</g>
<!-- b_cohort_age_scaled&#45;&gt;lam_log -->
<g id="edge9" class="edge">
<title>b_cohort_age_scaled&#45;&gt;lam_log</title>
<path fill="none" stroke="black" d="M542.33,-468.22C525.38,-456.77 506.43,-443.96 489.43,-432.47"/>
<polygon fill="black" stroke="black" points="491.99,-429.3 481.74,-426.6 488.07,-435.1 491.99,-429.3"/>
</g>
<!-- intercept -->
<g id="node18" class="node">
<title>intercept</title>
<ellipse fill="none" stroke="black" cx="747" cy="-502.79" rx="44.72" ry="40.66"/>
<text text-anchor="middle" x="747" y="-514.24" font-family="Times,serif" font-size="14.00">intercept</text>
<text text-anchor="middle" x="747" y="-497.74" font-family="Times,serif" font-size="14.00">~</text>
<text text-anchor="middle" x="747" y="-481.24" font-family="Times,serif" font-size="14.00">Normal</text>
</g>
<!-- intercept&#45;&gt;lam_log -->
<g id="edge6" class="edge">
<title>intercept&#45;&gt;lam_log</title>
<path fill="none" stroke="black" d="M714.28,-474.69C707.53,-470.01 700.26,-465.55 693,-462.13 628.67,-431.87 548.15,-414.79 495.23,-406.08"/>
<polygon fill="black" stroke="black" points="495.8,-402.47 485.37,-404.35 494.7,-409.38 495.8,-402.47"/>
</g>
</g>
</svg>
