<?xml version="1.0" encoding="UTF-8" standalone="no"?>
<!DOCTYPE svg PUBLIC "-//W3C//DTD SVG 1.1//EN"
 "http://www.w3.org/Graphics/SVG/1.1/DTD/svg11.dtd">
<!-- Generated by graphviz version 8.1.0 (20230707.0739)
 -->
<!-- Pages: 1 -->
<svg width="249pt" height="556pt"
 viewBox="0.00 0.00 249.00 556.13" xmlns="http://www.w3.org/2000/svg" xmlns:xlink="http://www.w3.org/1999/xlink">
<g id="graph0" class="graph" transform="scale(1 1) rotate(0) translate(4 552.13)">
<polygon fill="white" stroke="none" points="-4,4 -4,-552.13 245,-552.13 245,4 -4,4"/>
<g id="clust1" class="cluster">
<title>clusterobs (595) x feature (3)</title>
<path fill="none" stroke="black" d="M106,-442.13C106,-442.13 221,-442.13 221,-442.13 227,-442.13 233,-448.13 233,-454.13 233,-454.13 233,-528.13 233,-528.13 233,-534.13 227,-540.13 221,-540.13 221,-540.13 106,-540.13 106,-540.13 100,-540.13 94,-534.13 94,-528.13 94,-528.13 94,-454.13 94,-454.13 94,-448.13 100,-442.13 106,-442.13"/>
<text text-anchor="middle" x="163.5" y="-449.33" font-family="Times,serif" font-size="14.00">obs (595) x feature (3)</text>
</g>
<g id="clust2" class="cluster">
<title>clusterobs (595)</title>
<path fill="none" stroke="black" d="M20,-8C20,-8 208,-8 208,-8 214,-8 220,-14 220,-20 220,-20 220,-422.13 220,-422.13 220,-428.13 214,-434.13 208,-434.13 208,-434.13 20,-434.13 20,-434.13 14,-434.13 8,-428.13 8,-422.13 8,-422.13 8,-20 8,-20 8,-14 14,-8 20,-8"/>
<text text-anchor="middle" x="186.12" y="-15.2" font-family="Times,serif" font-size="14.00">obs (595)</text>
</g>
<!-- x -->
<g id="node1" class="node">
<title>x</title>
<path fill="lightgrey" stroke="black" d="M189.62,-532.13C189.62,-532.13 126.38,-532.13 126.38,-532.13 120.38,-532.13 114.38,-526.13 114.38,-520.13 114.38,-520.13 114.38,-486.63 114.38,-486.63 114.38,-480.63 120.38,-474.63 126.38,-474.63 126.38,-474.63 189.62,-474.63 189.62,-474.63 195.62,-474.63 201.62,-480.63 201.62,-486.63 201.62,-486.63 201.62,-520.13 201.62,-520.13 201.62,-526.13 195.62,-532.13 189.62,-532.13"/>
<text text-anchor="middle" x="158" y="-514.83" font-family="Times,serif" font-size="14.00">x</text>
<text text-anchor="middle" x="158" y="-498.33" font-family="Times,serif" font-size="14.00">~</text>
<text text-anchor="middle" x="158" y="-481.83" font-family="Times,serif" font-size="14.00">MutableData</text>
</g>
<!-- mu -->
<g id="node2" class="node">
<title>mu</title>
<ellipse fill="none" stroke="black" cx="158" cy="-385.48" rx="54.27" ry="40.66"/>
<text text-anchor="middle" x="158" y="-396.93" font-family="Times,serif" font-size="14.00">mu</text>
<text text-anchor="middle" x="158" y="-380.43" font-family="Times,serif" font-size="14.00">~</text>
<text text-anchor="middle" x="158" y="-363.93" font-family="Times,serif" font-size="14.00">BART_mu</text>
</g>
<!-- x&#45;&gt;mu -->
<g id="edge2" class="edge">
<title>x&#45;&gt;mu</title>
<path fill="none" stroke="black" d="M158,-474.33C158,-463.24 158,-450.14 158,-437.48"/>
<polygon fill="black" stroke="black" points="161.5,-437.54 158,-427.54 154.5,-437.54 161.5,-437.54"/>
</g>
<!-- p -->
<g id="node6" class="node">
<title>p</title>
<polygon fill="none" stroke="black" points="212.12,-308.82 121.88,-308.82 121.88,-251.32 212.12,-251.32 212.12,-308.82"/>
<text text-anchor="middle" x="167" y="-291.52" font-family="Times,serif" font-size="14.00">p</text>
<text text-anchor="middle" x="167" y="-275.02" font-family="Times,serif" font-size="14.00">~</text>
<text text-anchor="middle" x="167" y="-258.52" font-family="Times,serif" font-size="14.00">Deterministic</text>
</g>
<!-- mu&#45;&gt;p -->
<g id="edge3" class="edge">
<title>mu&#45;&gt;p</title>
<path fill="none" stroke="black" d="M161.48,-344.5C162.18,-336.46 162.91,-328.03 163.61,-320.03"/>
<polygon fill="black" stroke="black" points="167.18,-320.36 164.56,-310.09 160.21,-319.75 167.18,-320.36"/>
</g>
<!-- likelihood -->
<g id="node3" class="node">
<title>likelihood</title>
<ellipse fill="lightgrey" stroke="black" cx="114" cy="-174.66" rx="50.03" ry="40.66"/>
<text text-anchor="middle" x="114" y="-186.11" font-family="Times,serif" font-size="14.00">likelihood</text>
<text text-anchor="middle" x="114" y="-169.61" font-family="Times,serif" font-size="14.00">~</text>
<text text-anchor="middle" x="114" y="-153.11" font-family="Times,serif" font-size="14.00">Binomial</text>
</g>
<!-- n_active_users -->
<g id="node5" class="node">
<title>n_active_users</title>
<path fill="lightgrey" stroke="black" d="M150.12,-98C150.12,-98 77.88,-98 77.88,-98 71.88,-98 65.88,-92 65.88,-86 65.88,-86 65.88,-52.5 65.88,-52.5 65.88,-46.5 71.88,-40.5 77.88,-40.5 77.88,-40.5 150.12,-40.5 150.12,-40.5 156.12,-40.5 162.12,-46.5 162.12,-52.5 162.12,-52.5 162.12,-86 162.12,-86 162.12,-92 156.12,-98 150.12,-98"/>
<text text-anchor="middle" x="114" y="-80.7" font-family="Times,serif" font-size="14.00">n_active_users</text>
<text text-anchor="middle" x="114" y="-64.2" font-family="Times,serif" font-size="14.00">~</text>
<text text-anchor="middle" x="114" y="-47.7" font-family="Times,serif" font-size="14.00">MutableData</text>
</g>
<!-- likelihood&#45;&gt;n_active_users -->
<g id="edge1" class="edge">
<title>likelihood&#45;&gt;n_active_users</title>
<path fill="none" stroke="black" d="M114,-133.68C114,-125.64 114,-117.21 114,-109.21"/>
<polygon fill="black" stroke="black" points="117.5,-109.28 114,-99.28 110.5,-109.28 117.5,-109.28"/>
</g>
<!-- n_users -->
<g id="node4" class="node">
<title>n_users</title>
<path fill="lightgrey" stroke="black" d="M91.62,-308.82C91.62,-308.82 28.38,-308.82 28.38,-308.82 22.38,-308.82 16.38,-302.82 16.38,-296.82 16.38,-296.82 16.38,-263.32 16.38,-263.32 16.38,-257.32 22.38,-251.32 28.38,-251.32 28.38,-251.32 91.62,-251.32 91.62,-251.32 97.62,-251.32 103.62,-257.32 103.62,-263.32 103.62,-263.32 103.62,-296.82 103.62,-296.82 103.62,-302.82 97.62,-308.82 91.62,-308.82"/>
<text text-anchor="middle" x="60" y="-291.52" font-family="Times,serif" font-size="14.00">n_users</text>
<text text-anchor="middle" x="60" y="-275.02" font-family="Times,serif" font-size="14.00">~</text>
<text text-anchor="middle" x="60" y="-258.52" font-family="Times,serif" font-size="14.00">MutableData</text>
</g>
<!-- n_users&#45;&gt;likelihood -->
<g id="edge4" class="edge">
<title>n_users&#45;&gt;likelihood</title>
<path fill="none" stroke="black" d="M74.61,-251.08C79.25,-242.2 84.51,-232.13 89.65,-222.3"/>
<polygon fill="black" stroke="black" points="93.18,-224.09 94.71,-213.6 86.98,-220.85 93.18,-224.09"/>
</g>
<!-- p&#45;&gt;likelihood -->
<g id="edge5" class="edge">
<title>p&#45;&gt;likelihood</title>
<path fill="none" stroke="black" d="M152.66,-251.08C148.1,-242.2 142.94,-232.13 137.9,-222.3"/>
<polygon fill="black" stroke="black" points="140.61,-220.91 132.94,-213.6 134.38,-224.1 140.61,-220.91"/>
</g>
</g>
</svg>
