<?xml version="1.0" encoding="utf-8" standalone="no"?>
<!DOCTYPE svg PUBLIC "-//W3C//DTD SVG 1.1//EN"
  "http://www.w3.org/Graphics/SVG/1.1/DTD/svg11.dtd">
<!-- Created with matplotlib (https://matplotlib.org/) -->
<svg height="384.58625pt" version="1.1" viewBox="0 0 753.9625 384.58625" width="753.9625pt" xmlns="http://www.w3.org/2000/svg" xmlns:xlink="http://www.w3.org/1999/xlink">
 <defs>
  <style type="text/css">
*{stroke-linecap:butt;stroke-linejoin:round;}
  </style>
 </defs>
 <g id="figure_1">
  <g id="patch_1">
   <path d="M 0 384.58625 
L 753.9625 384.58625 
L 753.9625 0 
L 0 0 
z
" style="fill:none;"/>
  </g>
  <g id="axes_1">
   <g id="patch_2">
    <path d="M 25.601563 348.095625 
L 695.201563 348.095625 
L 695.201563 21.935625 
L 25.601563 21.935625 
z
" style="fill:#e6e6e6;"/>
   </g>
   <g id="matplotlib.axis_1">
    <g id="xtick_1">
     <g id="line2d_1">
      <path clip-path="url(#p8f79a52db0)" d="M 56.037926 348.095625 
L 56.037926 21.935625 
" style="fill:none;stroke:#cccccc;stroke-linecap:round;stroke-width:0.8;"/>
     </g>
     <g id="text_1">
      <!-- 0 -->
      <defs>
       <path d="M 4.15625 35.296875 
Q 4.15625 48 6.765625 55.734375 
Q 9.375 63.484375 14.515625 67.671875 
Q 19.671875 71.875 27.484375 71.875 
Q 33.25 71.875 37.59375 69.546875 
Q 41.9375 67.234375 44.765625 62.859375 
Q 47.609375 58.5 49.21875 52.21875 
Q 50.828125 45.953125 50.828125 35.296875 
Q 50.828125 22.703125 48.234375 14.96875 
Q 45.65625 7.234375 40.5 3 
Q 35.359375 -1.21875 27.484375 -1.21875 
Q 17.140625 -1.21875 11.234375 6.203125 
Q 4.15625 15.140625 4.15625 35.296875 
z
M 13.1875 35.296875 
Q 13.1875 17.671875 17.3125 11.828125 
Q 21.4375 6 27.484375 6 
Q 33.546875 6 37.671875 11.859375 
Q 41.796875 17.71875 41.796875 35.296875 
Q 41.796875 52.984375 37.671875 58.78125 
Q 33.546875 64.59375 27.390625 64.59375 
Q 21.34375 64.59375 17.71875 59.46875 
Q 13.1875 52.9375 13.1875 35.296875 
z
" id="ArialMT-48"/>
      </defs>
      <g style="fill:#262626;" transform="translate(53.257457 362.253438)scale(0.1 -0.1)">
       <use xlink:href="#ArialMT-48"/>
      </g>
     </g>
    </g>
    <g id="xtick_2">
     <g id="line2d_2">
      <path clip-path="url(#p8f79a52db0)" d="M 177.905248 348.095625 
L 177.905248 21.935625 
" style="fill:none;stroke:#cccccc;stroke-linecap:round;stroke-width:0.8;"/>
     </g>
     <g id="text_2">
      <!-- 200 -->
      <defs>
       <path d="M 50.34375 8.453125 
L 50.34375 0 
L 3.03125 0 
Q 2.9375 3.171875 4.046875 6.109375 
Q 5.859375 10.9375 9.828125 15.625 
Q 13.8125 20.3125 21.34375 26.46875 
Q 33.015625 36.03125 37.109375 41.625 
Q 41.21875 47.21875 41.21875 52.203125 
Q 41.21875 57.421875 37.46875 61 
Q 33.734375 64.59375 27.734375 64.59375 
Q 21.390625 64.59375 17.578125 60.78125 
Q 13.765625 56.984375 13.71875 50.25 
L 4.6875 51.171875 
Q 5.609375 61.28125 11.65625 66.578125 
Q 17.71875 71.875 27.9375 71.875 
Q 38.234375 71.875 44.234375 66.15625 
Q 50.25 60.453125 50.25 52 
Q 50.25 47.703125 48.484375 43.546875 
Q 46.734375 39.40625 42.65625 34.8125 
Q 38.578125 30.21875 29.109375 22.21875 
Q 21.1875 15.578125 18.9375 13.203125 
Q 16.703125 10.84375 15.234375 8.453125 
z
" id="ArialMT-50"/>
      </defs>
      <g style="fill:#262626;" transform="translate(169.563842 362.253438)scale(0.1 -0.1)">
       <use xlink:href="#ArialMT-50"/>
       <use x="55.615234" xlink:href="#ArialMT-48"/>
       <use x="111.230469" xlink:href="#ArialMT-48"/>
      </g>
     </g>
    </g>
    <g id="xtick_3">
     <g id="line2d_3">
      <path clip-path="url(#p8f79a52db0)" d="M 299.77257 348.095625 
L 299.77257 21.935625 
" style="fill:none;stroke:#cccccc;stroke-linecap:round;stroke-width:0.8;"/>
     </g>
     <g id="text_3">
      <!-- 400 -->
      <defs>
       <path d="M 32.328125 0 
L 32.328125 17.140625 
L 1.265625 17.140625 
L 1.265625 25.203125 
L 33.9375 71.578125 
L 41.109375 71.578125 
L 41.109375 25.203125 
L 50.78125 25.203125 
L 50.78125 17.140625 
L 41.109375 17.140625 
L 41.109375 0 
z
M 32.328125 25.203125 
L 32.328125 57.46875 
L 9.90625 25.203125 
z
" id="ArialMT-52"/>
      </defs>
      <g style="fill:#262626;" transform="translate(291.431164 362.253438)scale(0.1 -0.1)">
       <use xlink:href="#ArialMT-52"/>
       <use x="55.615234" xlink:href="#ArialMT-48"/>
       <use x="111.230469" xlink:href="#ArialMT-48"/>
      </g>
     </g>
    </g>
    <g id="xtick_4">
     <g id="line2d_4">
      <path clip-path="url(#p8f79a52db0)" d="M 421.639892 348.095625 
L 421.639892 21.935625 
" style="fill:none;stroke:#cccccc;stroke-linecap:round;stroke-width:0.8;"/>
     </g>
     <g id="text_4">
      <!-- 600 -->
      <defs>
       <path d="M 49.75 54.046875 
L 41.015625 53.375 
Q 39.84375 58.546875 37.703125 60.890625 
Q 34.125 64.65625 28.90625 64.65625 
Q 24.703125 64.65625 21.53125 62.3125 
Q 17.390625 59.28125 14.984375 53.46875 
Q 12.59375 47.65625 12.5 36.921875 
Q 15.671875 41.75 20.265625 44.09375 
Q 24.859375 46.4375 29.890625 46.4375 
Q 38.671875 46.4375 44.84375 39.96875 
Q 51.03125 33.5 51.03125 23.25 
Q 51.03125 16.5 48.125 10.71875 
Q 45.21875 4.9375 40.140625 1.859375 
Q 35.0625 -1.21875 28.609375 -1.21875 
Q 17.625 -1.21875 10.6875 6.859375 
Q 3.765625 14.9375 3.765625 33.5 
Q 3.765625 54.25 11.421875 63.671875 
Q 18.109375 71.875 29.4375 71.875 
Q 37.890625 71.875 43.28125 67.140625 
Q 48.6875 62.40625 49.75 54.046875 
z
M 13.875 23.1875 
Q 13.875 18.65625 15.796875 14.5 
Q 17.71875 10.359375 21.1875 8.171875 
Q 24.65625 6 28.46875 6 
Q 34.03125 6 38.03125 10.484375 
Q 42.046875 14.984375 42.046875 22.703125 
Q 42.046875 30.125 38.078125 34.390625 
Q 34.125 38.671875 28.125 38.671875 
Q 22.171875 38.671875 18.015625 34.390625 
Q 13.875 30.125 13.875 23.1875 
z
" id="ArialMT-54"/>
      </defs>
      <g style="fill:#262626;" transform="translate(413.298485 362.253438)scale(0.1 -0.1)">
       <use xlink:href="#ArialMT-54"/>
       <use x="55.615234" xlink:href="#ArialMT-48"/>
       <use x="111.230469" xlink:href="#ArialMT-48"/>
      </g>
     </g>
    </g>
    <g id="xtick_5">
     <g id="line2d_5">
      <path clip-path="url(#p8f79a52db0)" d="M 543.507214 348.095625 
L 543.507214 21.935625 
" style="fill:none;stroke:#cccccc;stroke-linecap:round;stroke-width:0.8;"/>
     </g>
     <g id="text_5">
      <!-- 800 -->
      <defs>
       <path d="M 17.671875 38.8125 
Q 12.203125 40.828125 9.5625 44.53125 
Q 6.9375 48.25 6.9375 53.421875 
Q 6.9375 61.234375 12.546875 66.546875 
Q 18.171875 71.875 27.484375 71.875 
Q 36.859375 71.875 42.578125 66.421875 
Q 48.296875 60.984375 48.296875 53.171875 
Q 48.296875 48.1875 45.671875 44.5 
Q 43.0625 40.828125 37.75 38.8125 
Q 44.34375 36.671875 47.78125 31.875 
Q 51.21875 27.09375 51.21875 20.453125 
Q 51.21875 11.28125 44.71875 5.03125 
Q 38.234375 -1.21875 27.640625 -1.21875 
Q 17.046875 -1.21875 10.546875 5.046875 
Q 4.046875 11.328125 4.046875 20.703125 
Q 4.046875 27.6875 7.59375 32.390625 
Q 11.140625 37.109375 17.671875 38.8125 
z
M 15.921875 53.71875 
Q 15.921875 48.640625 19.1875 45.40625 
Q 22.46875 42.1875 27.6875 42.1875 
Q 32.765625 42.1875 36.015625 45.375 
Q 39.265625 48.578125 39.265625 53.21875 
Q 39.265625 58.0625 35.90625 61.359375 
Q 32.5625 64.65625 27.59375 64.65625 
Q 22.5625 64.65625 19.234375 61.421875 
Q 15.921875 58.203125 15.921875 53.71875 
z
M 13.09375 20.65625 
Q 13.09375 16.890625 14.875 13.375 
Q 16.65625 9.859375 20.171875 7.921875 
Q 23.6875 6 27.734375 6 
Q 34.03125 6 38.125 10.046875 
Q 42.234375 14.109375 42.234375 20.359375 
Q 42.234375 26.703125 38.015625 30.859375 
Q 33.796875 35.015625 27.4375 35.015625 
Q 21.234375 35.015625 17.15625 30.90625 
Q 13.09375 26.8125 13.09375 20.65625 
z
" id="ArialMT-56"/>
      </defs>
      <g style="fill:#262626;" transform="translate(535.165807 362.253438)scale(0.1 -0.1)">
       <use xlink:href="#ArialMT-56"/>
       <use x="55.615234" xlink:href="#ArialMT-48"/>
       <use x="111.230469" xlink:href="#ArialMT-48"/>
      </g>
     </g>
    </g>
    <g id="xtick_6">
     <g id="line2d_6">
      <path clip-path="url(#p8f79a52db0)" d="M 665.374535 348.095625 
L 665.374535 21.935625 
" style="fill:none;stroke:#cccccc;stroke-linecap:round;stroke-width:0.8;"/>
     </g>
     <g id="text_6">
      <!-- 1000 -->
      <defs>
       <path d="M 37.25 0 
L 28.46875 0 
L 28.46875 56 
Q 25.296875 52.984375 20.140625 49.953125 
Q 14.984375 46.921875 10.890625 45.40625 
L 10.890625 53.90625 
Q 18.265625 57.375 23.78125 62.296875 
Q 29.296875 67.234375 31.59375 71.875 
L 37.25 71.875 
z
" id="ArialMT-49"/>
      </defs>
      <g style="fill:#262626;" transform="translate(654.25266 362.253438)scale(0.1 -0.1)">
       <use xlink:href="#ArialMT-49"/>
       <use x="55.615234" xlink:href="#ArialMT-48"/>
       <use x="111.230469" xlink:href="#ArialMT-48"/>
       <use x="166.845703" xlink:href="#ArialMT-48"/>
      </g>
     </g>
    </g>
    <g id="text_7">
     <!-- t -->
     <defs>
      <path d="M 25.78125 7.859375 
L 27.046875 0.09375 
Q 23.34375 -0.6875 20.40625 -0.6875 
Q 15.625 -0.6875 12.984375 0.828125 
Q 10.359375 2.34375 9.28125 4.8125 
Q 8.203125 7.28125 8.203125 15.1875 
L 8.203125 45.015625 
L 1.765625 45.015625 
L 1.765625 51.859375 
L 8.203125 51.859375 
L 8.203125 64.703125 
L 16.9375 69.96875 
L 16.9375 51.859375 
L 25.78125 51.859375 
L 25.78125 45.015625 
L 16.9375 45.015625 
L 16.9375 14.703125 
Q 16.9375 10.9375 17.40625 9.859375 
Q 17.875 8.796875 18.921875 8.15625 
Q 19.96875 7.515625 21.921875 7.515625 
Q 23.390625 7.515625 25.78125 7.859375 
z
" id="ArialMT-116"/>
     </defs>
     <g style="fill:#262626;" transform="translate(359.0125 375.39875)scale(0.1 -0.1)">
      <use xlink:href="#ArialMT-116"/>
     </g>
    </g>
   </g>
   <g id="matplotlib.axis_2">
    <g id="ytick_1">
     <g id="line2d_7">
      <path clip-path="url(#p8f79a52db0)" d="M 25.601563 336.283697 
L 695.201563 336.283697 
" style="fill:none;stroke:#cccccc;stroke-linecap:round;stroke-width:0.8;"/>
     </g>
     <g id="text_8">
      <!-- −2 -->
      <defs>
       <path d="M 52.828125 31.203125 
L 5.5625 31.203125 
L 5.5625 39.40625 
L 52.828125 39.40625 
z
" id="ArialMT-8722"/>
      </defs>
      <g style="fill:#262626;" transform="translate(7.2 339.862603)scale(0.1 -0.1)">
       <use xlink:href="#ArialMT-8722"/>
       <use x="58.398438" xlink:href="#ArialMT-50"/>
      </g>
     </g>
    </g>
    <g id="ytick_2">
     <g id="line2d_8">
      <path clip-path="url(#p8f79a52db0)" d="M 25.601563 293.252712 
L 695.201563 293.252712 
" style="fill:none;stroke:#cccccc;stroke-linecap:round;stroke-width:0.8;"/>
     </g>
     <g id="text_9">
      <!-- 0 -->
      <g style="fill:#262626;" transform="translate(13.040625 296.831618)scale(0.1 -0.1)">
       <use xlink:href="#ArialMT-48"/>
      </g>
     </g>
    </g>
    <g id="ytick_3">
     <g id="line2d_9">
      <path clip-path="url(#p8f79a52db0)" d="M 25.601563 250.221728 
L 695.201563 250.221728 
" style="fill:none;stroke:#cccccc;stroke-linecap:round;stroke-width:0.8;"/>
     </g>
     <g id="text_10">
      <!-- 2 -->
      <g style="fill:#262626;" transform="translate(13.040625 253.800634)scale(0.1 -0.1)">
       <use xlink:href="#ArialMT-50"/>
      </g>
     </g>
    </g>
    <g id="ytick_4">
     <g id="line2d_10">
      <path clip-path="url(#p8f79a52db0)" d="M 25.601563 207.190743 
L 695.201563 207.190743 
" style="fill:none;stroke:#cccccc;stroke-linecap:round;stroke-width:0.8;"/>
     </g>
     <g id="text_11">
      <!-- 4 -->
      <g style="fill:#262626;" transform="translate(13.040625 210.769649)scale(0.1 -0.1)">
       <use xlink:href="#ArialMT-52"/>
      </g>
     </g>
    </g>
    <g id="ytick_5">
     <g id="line2d_11">
      <path clip-path="url(#p8f79a52db0)" d="M 25.601563 164.159759 
L 695.201563 164.159759 
" style="fill:none;stroke:#cccccc;stroke-linecap:round;stroke-width:0.8;"/>
     </g>
     <g id="text_12">
      <!-- 6 -->
      <g style="fill:#262626;" transform="translate(13.040625 167.738665)scale(0.1 -0.1)">
       <use xlink:href="#ArialMT-54"/>
      </g>
     </g>
    </g>
    <g id="ytick_6">
     <g id="line2d_12">
      <path clip-path="url(#p8f79a52db0)" d="M 25.601563 121.128774 
L 695.201563 121.128774 
" style="fill:none;stroke:#cccccc;stroke-linecap:round;stroke-width:0.8;"/>
     </g>
     <g id="text_13">
      <!-- 8 -->
      <g style="fill:#262626;" transform="translate(13.040625 124.70768)scale(0.1 -0.1)">
       <use xlink:href="#ArialMT-56"/>
      </g>
     </g>
    </g>
    <g id="ytick_7">
     <g id="line2d_13">
      <path clip-path="url(#p8f79a52db0)" d="M 25.601563 78.09779 
L 695.201563 78.09779 
" style="fill:none;stroke:#cccccc;stroke-linecap:round;stroke-width:0.8;"/>
     </g>
     <g id="text_14">
      <!-- 10 -->
      <g style="fill:#262626;" transform="translate(7.479688 81.676696)scale(0.1 -0.1)">
       <use xlink:href="#ArialMT-49"/>
       <use x="55.615234" xlink:href="#ArialMT-48"/>
      </g>
     </g>
    </g>
    <g id="ytick_8">
     <g id="line2d_14">
      <path clip-path="url(#p8f79a52db0)" d="M 25.601563 35.066805 
L 695.201563 35.066805 
" style="fill:none;stroke:#cccccc;stroke-linecap:round;stroke-width:0.8;"/>
     </g>
     <g id="text_15">
      <!-- 12 -->
      <g style="fill:#262626;" transform="translate(7.479688 38.645712)scale(0.1 -0.1)">
       <use xlink:href="#ArialMT-49"/>
       <use x="55.615234" xlink:href="#ArialMT-50"/>
      </g>
     </g>
    </g>
   </g>
   <g id="line2d_15">
    <path clip-path="url(#p8f79a52db0)" d="M 56.037926 292.960402 
L 56.647263 289.132925 
L 57.256599 273.169882 
L 57.865936 265.394713 
L 58.475273 270.422638 
L 59.084609 257.597143 
L 59.693946 253.391054 
L 60.303282 251.823661 
L 60.912619 240.205304 
L 61.521956 252.467608 
L 62.131292 243.413833 
L 62.740629 248.778485 
L 63.349965 249.090238 
L 63.959302 252.547229 
L 64.568639 250.005478 
L 65.177975 257.857989 
L 65.787312 269.118805 
L 66.396648 274.482526 
L 67.005985 268.621804 
L 67.615322 285.727415 
L 68.224658 288.954695 
L 68.833995 297.144773 
L 69.443332 297.258058 
L 70.052668 309.573542 
L 70.662005 305.474273 
L 71.271341 310.305225 
L 71.880678 323.550742 
L 72.490015 321.893085 
L 73.099351 328.424084 
L 73.708688 328.272833 
L 74.318024 322.168239 
L 74.927361 333.27017 
L 75.536698 328.301925 
L 76.146034 327.744051 
L 76.755371 320.131787 
L 77.364707 317.350047 
L 77.974044 318.843221 
L 78.583381 304.610076 
L 79.192717 298.443805 
L 79.802054 301.19536 
L 80.411391 295.439199 
L 81.020727 283.719987 
L 81.630064 276.502725 
L 82.2394 281.106663 
L 82.848737 265.45949 
L 83.458074 254.305247 
L 84.06741 251.187408 
L 84.676747 246.995656 
L 85.286083 239.293454 
L 85.89542 235.193933 
L 86.504757 228.85977 
L 87.114093 237.62882 
L 87.72343 237.749901 
L 88.332766 252.876167 
L 88.942103 251.66346 
L 89.55144 249.072605 
L 90.160776 251.245196 
L 90.770113 271.614244 
L 91.379449 255.514689 
L 91.988786 271.317264 
L 92.598123 277.641388 
L 93.207459 288.070321 
L 93.816796 285.487433 
L 94.426133 299.605704 
L 95.035469 298.202415 
L 95.644806 309.336173 
L 96.254142 317.05671 
L 96.863479 313.790148 
L 97.472816 315.437308 
L 98.082152 315.177468 
L 98.691489 323.260793 
L 99.300825 323.273047 
L 99.910162 324.850789 
L 100.519499 302.042996 
L 101.128835 321.062297 
L 101.738172 314.160646 
L 102.347508 295.863971 
L 102.956845 300.617321 
L 103.566182 302.563846 
L 104.175518 282.426454 
L 104.784855 270.131414 
L 105.394191 265.51871 
L 106.003528 259.628498 
L 106.612865 248.747206 
L 107.222201 252.221558 
L 107.831538 228.27193 
L 108.440875 248.222365 
L 109.050211 224.934066 
L 109.659548 234.166308 
L 110.268884 229.151774 
L 110.878221 233.792104 
L 111.487558 236.829596 
L 112.096894 224.235285 
L 112.706231 223.525506 
L 113.315567 237.148017 
L 113.924904 242.99197 
L 114.534241 254.973481 
L 115.143577 251.379238 
L 115.752914 254.168336 
L 116.36225 259.890559 
L 116.971587 257.493243 
L 117.580924 279.339575 
L 118.19026 288.450828 
L 118.799597 290.186339 
L 119.408934 297.158831 
L 120.01827 307.25631 
L 120.627607 323.986757 
L 121.236943 315.81722 
L 121.84628 299.971869 
L 122.455617 302.679542 
L 123.064953 318.896955 
L 123.67429 314.894697 
L 124.283626 321.112111 
L 124.892963 307.292161 
L 125.5023 298.322288 
L 126.111636 302.693072 
L 127.330309 291.31589 
L 127.939646 280.225127 
L 128.548983 280.675861 
L 129.158319 272.355457 
L 129.767656 252.951784 
L 130.376992 261.284704 
L 130.986329 253.602064 
L 131.595666 237.791124 
L 132.205002 233.733109 
L 132.814339 230.522249 
L 133.423676 224.0223 
L 134.033012 218.894264 
L 134.642349 228.675481 
L 135.251685 217.891961 
L 135.861022 228.571412 
L 136.470359 219.68758 
L 137.079695 224.380792 
L 137.689032 227.925103 
L 138.298368 233.321167 
L 138.907705 240.290388 
L 139.517042 237.104536 
L 140.126378 253.492237 
L 140.735715 261.853303 
L 141.345051 258.576158 
L 141.954388 273.60625 
L 143.173061 282.738406 
L 143.782398 280.517947 
L 144.391734 285.885387 
L 145.001071 301.013923 
L 145.610408 283.892761 
L 146.219744 305.008535 
L 146.829081 306.224279 
L 147.438418 304.39072 
L 148.047754 289.710837 
L 148.657091 307.46916 
L 149.266427 309.970542 
L 149.875764 289.487092 
L 150.485101 295.374742 
L 151.094437 290.471102 
L 151.703774 277.470528 
L 152.31311 280.146019 
L 152.922447 260.057668 
L 153.531784 267.527542 
L 154.14112 247.87837 
L 155.359793 240.080887 
L 155.96913 243.510795 
L 156.578467 230.120747 
L 157.187803 229.213304 
L 157.79714 212.090855 
L 158.406477 205.702444 
L 160.234486 219.010265 
L 160.843823 219.600157 
L 161.45316 214.696464 
L 162.062496 219.00238 
L 162.671833 220.823793 
L 163.281169 238.299498 
L 163.890506 242.567673 
L 164.499843 224.446079 
L 165.109179 242.291627 
L 165.718516 256.208052 
L 166.327852 263.486991 
L 166.937189 266.74402 
L 167.546526 276.781251 
L 168.765199 280.048449 
L 169.374535 294.3562 
L 169.983872 283.140812 
L 170.593209 295.884272 
L 171.202545 290.398987 
L 171.811882 283.602985 
L 173.030555 301.20169 
L 173.639892 281.603099 
L 174.249228 288.080346 
L 174.858565 273.767318 
L 176.077238 271.988711 
L 176.686575 251.355653 
L 177.295911 260.68958 
L 177.905248 246.106081 
L 179.733258 232.721031 
L 180.342594 220.867171 
L 180.951931 205.691519 
L 181.561268 210.737907 
L 182.170604 217.116595 
L 183.389277 202.451679 
L 183.998614 208.518009 
L 184.607951 197.424744 
L 185.217287 199.436422 
L 185.826624 214.367376 
L 186.435961 219.827083 
L 187.045297 208.781678 
L 187.654634 232.945699 
L 188.26397 217.228984 
L 188.873307 225.952096 
L 190.09198 256.435787 
L 190.701317 252.926464 
L 191.310653 251.954796 
L 191.91999 260.949056 
L 192.529327 278.02065 
L 193.138663 276.681757 
L 193.748 273.857083 
L 194.357336 282.514277 
L 194.966673 294.594925 
L 195.57601 274.585819 
L 196.185346 282.393554 
L 196.794683 286.3393 
L 197.40402 294.280613 
L 198.013356 291.334159 
L 198.622693 285.4631 
L 199.232029 275.657048 
L 199.841366 263.188437 
L 200.450703 260.236847 
L 201.060039 252.046218 
L 201.669376 250.390158 
L 202.278712 254.646168 
L 202.888049 241.154945 
L 203.497386 217.358756 
L 204.106722 216.584583 
L 204.716059 215.436307 
L 205.325395 220.444347 
L 205.934732 210.268622 
L 206.544069 188.655872 
L 207.153405 196.081224 
L 207.762742 193.011496 
L 208.372078 202.663236 
L 208.981415 191.908015 
L 209.590752 211.558291 
L 210.200088 198.843071 
L 210.809425 191.578541 
L 211.418762 208.345918 
L 212.028098 207.657203 
L 213.246771 238.042753 
L 213.856108 240.714551 
L 214.465445 228.966884 
L 215.074781 234.977569 
L 215.684118 245.327712 
L 216.293454 248.341014 
L 216.902791 253.940307 
L 217.512128 262.00806 
L 218.121464 266.539801 
L 218.730801 274.377223 
L 219.340137 277.73416 
L 219.949474 272.542691 
L 220.558811 287.092448 
L 221.777484 266.609134 
L 222.38682 263.056896 
L 222.996157 273.233596 
L 223.605494 273.92359 
L 224.21483 255.405221 
L 224.824167 249.336819 
L 225.433504 258.283426 
L 226.04284 237.314583 
L 226.652177 234.681235 
L 227.261513 227.330871 
L 227.87085 231.774076 
L 228.480187 212.268105 
L 229.089523 211.669051 
L 229.69886 196.350149 
L 230.308196 202.124851 
L 230.917533 190.484869 
L 231.52687 192.25123 
L 232.136206 185.159808 
L 232.745543 195.341695 
L 233.354879 179.154331 
L 233.964216 203.231303 
L 234.573553 189.792026 
L 235.182889 195.441733 
L 235.792226 205.475528 
L 236.401563 200.277416 
L 237.010899 212.917921 
L 237.620236 213.769758 
L 238.229572 227.265766 
L 238.838909 220.761355 
L 239.448246 240.652705 
L 240.057582 239.830028 
L 240.666919 252.391998 
L 241.276255 256.004164 
L 241.885592 243.97684 
L 243.104265 269.422558 
L 243.713602 260.565417 
L 244.322938 270.339282 
L 244.932275 266.737567 
L 245.541612 274.972924 
L 246.150948 272.948212 
L 247.369621 255.197625 
L 247.978958 263.177433 
L 249.197631 240.278672 
L 249.806968 238.78802 
L 250.416305 240.764526 
L 251.025641 233.395657 
L 251.634978 214.702655 
L 252.244314 213.902989 
L 252.853651 210.578064 
L 253.462988 209.102949 
L 254.072324 201.666836 
L 254.681661 183.491807 
L 255.290997 170.412898 
L 255.900334 177.791017 
L 257.119007 188.010458 
L 257.728344 186.388409 
L 258.33768 182.801386 
L 258.947017 186.367035 
L 259.556354 185.284144 
L 260.16569 185.683434 
L 260.775027 205.894879 
L 261.384363 204.35023 
L 261.9937 218.30044 
L 262.603037 216.012244 
L 263.212373 208.860973 
L 263.82171 236.453598 
L 264.431047 223.979203 
L 265.040383 248.759268 
L 265.64972 257.403593 
L 266.259056 239.894212 
L 267.47773 262.893462 
L 268.087066 258.228645 
L 268.696403 261.073277 
L 269.305739 258.917613 
L 269.915076 259.761577 
L 270.524413 253.497074 
L 271.133749 256.563044 
L 271.743086 242.150099 
L 272.352422 252.200126 
L 272.961759 245.354601 
L 273.571096 242.39548 
L 274.180432 230.029495 
L 274.789769 222.574902 
L 276.008442 210.664277 
L 276.617779 207.864314 
L 277.227115 199.451334 
L 277.836452 203.518207 
L 278.445789 184.456732 
L 279.055125 169.082893 
L 279.664462 171.294198 
L 280.273798 176.291509 
L 280.883135 163.859073 
L 281.492472 165.602025 
L 282.711145 173.055724 
L 283.320481 167.536866 
L 284.539155 194.479512 
L 285.148491 198.659834 
L 285.757828 201.008619 
L 286.367164 200.046351 
L 286.976501 197.894575 
L 288.195174 217.648316 
L 288.804511 233.588411 
L 289.413848 226.052796 
L 290.023184 243.277318 
L 290.632521 237.097488 
L 291.241857 240.307197 
L 291.851194 248.745358 
L 292.460531 248.704278 
L 293.069867 245.998239 
L 293.679204 258.757608 
L 294.28854 263.420144 
L 294.897877 249.8801 
L 296.11655 229.810427 
L 296.725887 232.356143 
L 297.335223 231.19007 
L 297.94456 225.378852 
L 298.553897 222.833187 
L 299.163233 207.52264 
L 299.77257 206.709139 
L 300.381906 198.865459 
L 300.991243 204.951305 
L 301.60058 182.653334 
L 302.209916 183.74416 
L 302.819253 182.158153 
L 303.42859 165.184479 
L 304.037926 166.563996 
L 304.647263 176.7825 
L 305.256599 160.114835 
L 305.865936 158.227225 
L 306.475273 162.420048 
L 307.084609 154.682573 
L 308.303282 173.672787 
L 308.912619 164.495029 
L 309.521956 177.886077 
L 310.131292 181.236279 
L 310.740629 178.956968 
L 311.349965 192.281315 
L 311.959302 202.730416 
L 312.568639 205.55654 
L 313.177975 203.425261 
L 313.787312 218.10757 
L 314.396648 225.231551 
L 315.005985 226.293187 
L 315.615322 237.343733 
L 316.224658 233.030528 
L 316.833995 240.664306 
L 317.443332 245.228884 
L 318.052668 225.451973 
L 318.662005 247.807233 
L 319.271341 237.645986 
L 319.880678 241.648682 
L 320.490015 244.557734 
L 321.708688 233.266057 
L 322.318024 217.942479 
L 322.927361 206.978714 
L 323.536698 214.165055 
L 324.146034 197.82738 
L 324.755371 191.170032 
L 325.364707 182.017389 
L 325.974044 178.680958 
L 326.583381 174.244248 
L 327.192717 163.276153 
L 327.802054 163.876071 
L 328.411391 158.96683 
L 329.020727 151.707677 
L 329.630064 157.969817 
L 330.2394 157.541341 
L 330.848737 156.387215 
L 332.06741 168.111331 
L 332.676747 162.228986 
L 333.286083 172.341757 
L 333.89542 161.869188 
L 335.114093 188.538439 
L 335.72343 177.625618 
L 336.332766 185.254154 
L 336.942103 188.524493 
L 337.55144 192.724698 
L 338.160776 201.557026 
L 338.770113 218.801668 
L 339.379449 227.637075 
L 339.988786 223.050263 
L 340.598123 229.214447 
L 341.207459 237.74965 
L 341.816796 232.002921 
L 342.426133 234.156861 
L 343.035469 236.819201 
L 343.644806 230.650347 
L 344.254142 228.421914 
L 344.863479 223.444088 
L 345.472816 206.470851 
L 346.082152 210.895373 
L 347.300825 212.480588 
L 347.910162 196.906697 
L 348.519499 197.428849 
L 349.738172 170.047295 
L 350.347508 175.575465 
L 351.566182 160.470779 
L 352.175518 161.69153 
L 352.784855 147.841603 
L 353.394191 138.09113 
L 354.003528 151.633204 
L 354.612865 151.696697 
L 355.222201 147.476581 
L 355.831538 145.690674 
L 356.440875 146.38237 
L 357.050211 154.40816 
L 357.659548 149.480236 
L 358.268884 158.847565 
L 358.878221 174.493966 
L 359.487558 174.831635 
L 360.096894 177.462034 
L 361.315567 187.069267 
L 361.924904 194.124343 
L 362.534241 203.77255 
L 363.143577 209.439991 
L 363.752914 216.460532 
L 364.36225 213.864556 
L 364.971587 217.561413 
L 365.580924 223.373482 
L 366.19026 227.892199 
L 366.799597 220.565087 
L 367.408934 226.165891 
L 368.01827 222.605801 
L 368.627607 217.285965 
L 369.236943 213.984675 
L 369.84628 221.413045 
L 370.455617 208.885019 
L 371.064953 201.395681 
L 371.67429 178.51689 
L 372.283626 192.495439 
L 372.892963 182.624965 
L 373.5023 175.790806 
L 374.111636 171.730392 
L 374.720973 171.359776 
L 375.330309 161.592243 
L 376.548983 149.826023 
L 377.158319 138.814308 
L 377.767656 136.990626 
L 378.376992 140.411621 
L 378.986329 129.968536 
L 379.595666 138.295655 
L 380.205002 134.407683 
L 380.814339 143.637143 
L 382.033012 150.595606 
L 382.642349 142.024307 
L 383.251685 172.729151 
L 383.861022 157.663409 
L 384.470359 172.431941 
L 385.079695 177.207826 
L 385.689032 176.409442 
L 386.298368 191.370327 
L 386.907705 195.978647 
L 387.517042 198.001608 
L 388.126378 195.623051 
L 388.735715 206.300682 
L 389.345051 213.23553 
L 389.954388 217.233559 
L 390.563725 217.132555 
L 391.173061 216.615912 
L 391.782398 220.401566 
L 392.391734 210.956561 
L 393.001071 209.368918 
L 393.610408 209.877195 
L 394.219744 201.084129 
L 394.829081 198.760423 
L 395.438418 200.63378 
L 396.047754 186.779443 
L 397.266427 166.608671 
L 397.875764 174.785124 
L 398.485101 165.127937 
L 399.094437 151.114921 
L 399.703774 151.239744 
L 400.31311 138.018026 
L 400.922447 140.279414 
L 401.531784 133.991423 
L 402.14112 118.263162 
L 402.750457 118.653994 
L 403.359793 131.719068 
L 403.96913 123.822836 
L 404.578467 125.76796 
L 405.79714 140.974226 
L 406.406477 146.629518 
L 407.015813 143.842915 
L 407.62515 155.927463 
L 408.234486 144.429151 
L 408.843823 160.050927 
L 410.062496 178.406716 
L 410.671833 174.382 
L 411.281169 186.483887 
L 411.890506 184.182636 
L 412.499843 202.241122 
L 413.109179 191.964504 
L 413.718516 199.777902 
L 414.327852 209.062791 
L 414.937189 210.6329 
L 416.155862 201.551966 
L 416.765199 213.040923 
L 417.374535 210.585036 
L 417.983872 194.219462 
L 418.593209 200.166925 
L 419.202545 174.44893 
L 419.811882 189.691976 
L 420.421219 185.168294 
L 421.030555 173.308291 
L 421.639892 166.305466 
L 422.249228 153.844513 
L 422.858565 149.338837 
L 423.467902 151.573083 
L 424.077238 131.555438 
L 424.686575 128.295301 
L 425.295911 128.782174 
L 425.905248 125.475515 
L 426.514585 115.421831 
L 427.123921 125.888652 
L 427.733258 120.347274 
L 428.342594 119.416773 
L 428.951931 115.367833 
L 429.561268 109.897174 
L 430.170604 124.498887 
L 431.389277 135.272862 
L 431.998614 146.116728 
L 432.607951 142.447312 
L 433.217287 156.319285 
L 433.826624 162.850584 
L 434.435961 172.483477 
L 435.045297 178.151647 
L 435.654634 168.954942 
L 436.26397 172.753761 
L 436.873307 186.767201 
L 437.482644 195.896659 
L 438.09198 199.042467 
L 438.701317 197.228699 
L 439.310653 202.544034 
L 439.91999 203.144417 
L 440.529327 200.387598 
L 441.138663 201.501449 
L 441.748 192.440308 
L 442.357336 194.603421 
L 442.966673 189.899617 
L 443.57601 186.372777 
L 444.185346 173.329456 
L 444.794683 167.603728 
L 445.40402 157.169775 
L 446.013356 158.5448 
L 446.622693 154.830788 
L 447.232029 138.587581 
L 447.841366 137.411842 
L 448.450703 121.325384 
L 449.060039 126.21807 
L 449.669376 110.101218 
L 450.278712 112.52508 
L 450.888049 108.408728 
L 451.497386 112.326085 
L 452.106722 113.723526 
L 452.716059 105.161095 
L 453.325395 113.741841 
L 453.934732 126.534389 
L 454.544069 124.299691 
L 455.153405 126.639564 
L 455.762742 125.112361 
L 456.372078 138.527212 
L 456.981415 135.353339 
L 457.590752 134.229785 
L 458.200088 149.40186 
L 458.809425 159.593296 
L 459.418762 164.396099 
L 460.028098 163.553667 
L 460.637435 173.205098 
L 461.246771 175.32518 
L 461.856108 181.506127 
L 462.465445 195.676552 
L 463.074781 186.341752 
L 463.684118 192.834071 
L 464.293454 194.704693 
L 464.902791 195.300576 
L 465.512128 200.425169 
L 466.121464 183.959644 
L 466.730801 190.032154 
L 467.340137 172.459525 
L 467.949474 175.977076 
L 468.558811 150.690248 
L 469.168147 166.621229 
L 469.777484 158.071503 
L 470.38682 137.808239 
L 470.996157 139.115876 
L 472.21483 124.475043 
L 472.824167 129.927493 
L 473.433504 123.075116 
L 474.04284 108.709357 
L 474.652177 108.591949 
L 475.261513 97.556594 
L 475.87085 106.943983 
L 477.089523 99.518244 
L 477.69886 90.316065 
L 478.308196 117.060303 
L 478.917533 105.7723 
L 479.52687 109.611569 
L 480.136206 119.352428 
L 480.745543 112.904636 
L 481.354879 141.97427 
L 481.964216 130.571278 
L 482.573553 149.671054 
L 483.182889 160.010188 
L 483.792226 160.175022 
L 484.401562 159.854427 
L 485.010899 158.790168 
L 485.620236 160.130929 
L 486.229572 180.879638 
L 486.838909 171.553983 
L 487.448246 182.10256 
L 488.057582 182.262748 
L 488.666919 183.106779 
L 489.276255 178.016136 
L 489.885592 181.984687 
L 490.494929 177.173015 
L 491.104265 166.615336 
L 491.713602 167.044713 
L 492.322938 165.157892 
L 492.932275 148.859345 
L 493.541612 149.66494 
L 494.150948 144.778676 
L 494.760285 135.759423 
L 495.369621 136.85843 
L 495.978958 121.4634 
L 496.588295 120.159998 
L 497.197631 115.682456 
L 497.806968 113.236183 
L 498.416305 100.380681 
L 499.025641 103.809484 
L 499.634978 103.936908 
L 500.244314 98.067027 
L 500.853651 97.490237 
L 501.462988 100.232386 
L 502.072324 95.934219 
L 502.681661 90.618924 
L 503.290997 94.106643 
L 503.900334 91.094381 
L 504.509671 111.742106 
L 505.119007 106.273504 
L 505.728344 118.495747 
L 506.33768 135.872592 
L 506.947017 140.367746 
L 507.556354 126.387849 
L 508.16569 142.349234 
L 508.775027 151.095786 
L 509.384363 146.817937 
L 509.9937 164.301726 
L 510.603037 169.264082 
L 511.212373 172.654096 
L 511.82171 176.673115 
L 512.431047 178.862604 
L 513.040383 177.54206 
L 513.64972 173.849712 
L 514.259056 166.052028 
L 514.868393 172.096673 
L 515.47773 161.022317 
L 516.087066 169.845976 
L 516.696403 151.496195 
L 517.305739 153.740825 
L 517.915076 138.473056 
L 518.524413 140.865127 
L 519.743086 121.853734 
L 520.352422 109.44157 
L 520.961759 109.707502 
L 521.571096 89.842174 
L 522.180432 98.906655 
L 523.399105 91.597168 
L 524.008442 94.969731 
L 524.617779 82.332225 
L 525.227115 81.635524 
L 525.836452 93.639303 
L 526.445789 91.794622 
L 527.055125 85.6636 
L 527.664462 96.807077 
L 528.273798 94.503286 
L 528.883135 99.679855 
L 529.492472 115.322771 
L 530.101808 116.507961 
L 530.711145 124.938842 
L 531.320481 129.479675 
L 531.929818 122.341458 
L 533.148491 138.583135 
L 533.757828 154.451183 
L 534.367164 163.164404 
L 534.976501 160.296986 
L 535.585838 173.349651 
L 536.195174 168.792285 
L 536.804511 161.347701 
L 537.413848 165.060334 
L 538.023184 161.202363 
L 538.632521 161.560583 
L 539.241857 165.20931 
L 539.851194 165.848664 
L 540.460531 151.421396 
L 541.069867 141.802117 
L 541.679204 143.215759 
L 542.28854 138.916682 
L 542.897877 121.774286 
L 543.507214 112.837034 
L 544.11655 117.280834 
L 544.725887 102.684925 
L 545.335223 104.093456 
L 545.94456 81.574338 
L 546.553897 85.550782 
L 547.163233 82.539864 
L 547.77257 91.11635 
L 548.381906 68.465219 
L 548.991243 69.847156 
L 550.209916 71.510286 
L 550.819253 72.716143 
L 551.42859 89.133537 
L 552.037926 77.259842 
L 552.647263 96.767433 
L 553.256599 90.649309 
L 553.865936 102.776038 
L 554.475273 108.021866 
L 555.084609 117.889264 
L 555.693946 113.910796 
L 556.303282 123.359309 
L 556.912619 125.631219 
L 557.521956 124.681253 
L 558.131292 136.010494 
L 558.740629 141.314857 
L 559.349965 141.390003 
L 559.959302 156.06119 
L 560.568639 139.773614 
L 561.177975 168.729646 
L 561.787312 166.057248 
L 562.396648 161.655957 
L 563.005985 150.836212 
L 563.615322 155.03503 
L 564.224658 146.732268 
L 564.833995 141.070413 
L 565.443332 143.802186 
L 566.052668 139.027985 
L 566.662005 133.125141 
L 567.271341 116.939853 
L 567.880678 117.741142 
L 568.490015 108.652261 
L 569.099351 95.034265 
L 569.708688 91.158257 
L 570.927361 75.700112 
L 571.536698 72.176529 
L 572.146034 69.929663 
L 572.755371 66.702422 
L 573.364707 67.370723 
L 573.974044 74.108727 
L 574.583381 69.36829 
L 575.192717 59.00596 
L 575.802054 62.478369 
L 576.411391 71.183014 
L 577.020727 85.175414 
L 577.630064 88.763252 
L 578.2394 98.676368 
L 578.848737 81.619895 
L 579.458074 102.336207 
L 580.06741 108.965389 
L 580.676747 119.1322 
L 581.286083 119.510673 
L 581.89542 114.78515 
L 582.504757 127.654962 
L 583.114093 126.123651 
L 583.72343 147.072904 
L 584.332766 149.325486 
L 584.942103 141.749933 
L 585.55144 157.676589 
L 586.160776 149.332869 
L 586.770113 157.025704 
L 587.988786 134.600365 
L 588.598123 157.661278 
L 589.207459 137.991223 
L 590.426133 117.511368 
L 591.035469 122.549146 
L 591.644806 112.538336 
L 592.863479 100.281199 
L 593.472816 80.1189 
L 594.082152 90.069947 
L 594.691489 85.642884 
L 595.300825 68.705104 
L 596.519499 51.846378 
L 597.128835 63.419536 
L 597.738172 58.858473 
L 598.347508 64.307533 
L 598.956845 47.850691 
L 599.566182 59.133263 
L 600.175518 67.005214 
L 600.784855 66.062201 
L 601.394191 67.489346 
L 603.222201 85.290305 
L 603.831538 89.689891 
L 604.440875 97.599345 
L 605.050211 111.758106 
L 605.659548 103.557735 
L 606.268884 101.777942 
L 606.878221 122.011347 
L 607.487558 122.875286 
L 608.096894 142.936855 
L 608.706231 131.930485 
L 609.315567 131.844823 
L 609.924904 142.66537 
L 610.534241 146.464078 
L 611.143577 145.853568 
L 611.752914 131.609179 
L 612.36225 134.761017 
L 614.19026 118.43673 
L 614.799597 122.085347 
L 615.408934 111.072019 
L 616.627607 95.125787 
L 617.236943 86.496376 
L 617.84628 82.7972 
L 618.455617 74.705592 
L 619.064953 78.245443 
L 619.67429 69.998566 
L 620.283626 70.065198 
L 620.892963 58.938828 
L 621.5023 53.513723 
L 622.111636 60.359438 
L 622.720973 49.361503 
L 623.330309 45.536217 
L 623.939646 59.474461 
L 624.548983 59.637389 
L 625.158319 60.632876 
L 625.767656 66.601695 
L 626.376992 68.12146 
L 626.986329 76.460146 
L 627.595666 87.686209 
L 628.205002 88.363384 
L 628.814339 89.992477 
L 629.423676 90.744336 
L 630.033012 111.056911 
L 630.642349 109.7223 
L 631.251685 114.133906 
L 631.861022 128.632165 
L 632.470359 121.545183 
L 633.079695 122.567093 
L 633.689032 129.254155 
L 634.298368 138.241245 
L 634.907705 121.922457 
L 635.517042 122.613381 
L 636.126378 116.474247 
L 636.735715 130.76193 
L 637.345051 126.184118 
L 637.954388 126.641616 
L 638.563725 118.435722 
L 639.173061 104.009623 
L 639.782398 105.139783 
L 640.391734 99.795122 
L 641.001071 84.932225 
L 641.610408 78.032443 
L 642.219744 59.401975 
L 642.829081 55.935274 
L 643.438418 49.347755 
L 644.047754 62.751009 
L 644.657091 42.883677 
L 645.266427 43.919281 
L 645.875764 51.263374 
L 646.485101 43.152489 
L 647.094437 50.394926 
L 647.703774 36.76108 
L 648.31311 41.742022 
L 649.531784 61.035786 
L 650.14112 48.923732 
L 650.750457 54.283059 
L 651.359793 67.427067 
L 651.96913 67.589688 
L 652.578467 81.898681 
L 653.187803 77.42547 
L 653.79714 78.142324 
L 654.406477 84.474153 
L 655.015813 107.555471 
L 655.62515 102.652276 
L 656.234486 114.58385 
L 656.843823 118.332238 
L 657.45316 112.07131 
L 658.062496 113.593917 
L 658.671833 126.908632 
L 659.281169 126.476365 
L 659.890506 122.415993 
L 660.499843 129.65434 
L 661.109179 120.173506 
L 661.718516 113.659179 
L 662.327852 100.853547 
L 662.937189 114.496483 
L 664.155862 89.823185 
L 664.765199 82.572973 
L 664.765199 82.572973 
" style="fill:none;stroke:#4c72b0;stroke-linecap:round;stroke-width:1.5;"/>
   </g>
   <g id="patch_3">
    <path d="M 25.601563 348.095625 
L 25.601563 21.935625 
" style="fill:none;stroke:#ffffff;stroke-linecap:square;stroke-linejoin:miter;stroke-width:0.8;"/>
   </g>
   <g id="patch_4">
    <path d="M 695.201563 348.095625 
L 695.201563 21.935625 
" style="fill:none;stroke:#ffffff;stroke-linecap:square;stroke-linejoin:miter;stroke-width:0.8;"/>
   </g>
   <g id="patch_5">
    <path d="M 25.601563 348.095625 
L 695.201563 348.095625 
" style="fill:none;stroke:#ffffff;stroke-linecap:square;stroke-linejoin:miter;stroke-width:0.8;"/>
   </g>
   <g id="patch_6">
    <path d="M 25.601563 21.935625 
L 695.201563 21.935625 
" style="fill:none;stroke:#ffffff;stroke-linecap:square;stroke-linejoin:miter;stroke-width:0.8;"/>
   </g>
   <g id="text_16">
    <!-- Sample Data 2 -->
    <defs>
     <path d="M 4.5 23 
L 13.421875 23.78125 
Q 14.0625 18.40625 16.375 14.96875 
Q 18.703125 11.53125 23.578125 9.40625 
Q 28.46875 7.28125 34.578125 7.28125 
Q 39.984375 7.28125 44.140625 8.890625 
Q 48.296875 10.5 50.3125 13.296875 
Q 52.34375 16.109375 52.34375 19.4375 
Q 52.34375 22.796875 50.390625 25.3125 
Q 48.4375 27.828125 43.953125 29.546875 
Q 41.0625 30.671875 31.203125 33.03125 
Q 21.34375 35.40625 17.390625 37.5 
Q 12.25 40.1875 9.734375 44.15625 
Q 7.234375 48.140625 7.234375 53.078125 
Q 7.234375 58.5 10.296875 63.203125 
Q 13.375 67.921875 19.28125 70.359375 
Q 25.203125 72.796875 32.421875 72.796875 
Q 40.375 72.796875 46.453125 70.234375 
Q 52.546875 67.671875 55.8125 62.6875 
Q 59.078125 57.71875 59.328125 51.421875 
L 50.25 50.734375 
Q 49.515625 57.515625 45.28125 60.984375 
Q 41.0625 64.453125 32.8125 64.453125 
Q 24.21875 64.453125 20.28125 61.296875 
Q 16.359375 58.15625 16.359375 53.71875 
Q 16.359375 49.859375 19.140625 47.359375 
Q 21.875 44.875 33.421875 42.265625 
Q 44.96875 39.65625 49.265625 37.703125 
Q 55.515625 34.8125 58.484375 30.390625 
Q 61.46875 25.984375 61.46875 20.21875 
Q 61.46875 14.5 58.203125 9.4375 
Q 54.9375 4.390625 48.796875 1.578125 
Q 42.671875 -1.21875 35.015625 -1.21875 
Q 25.296875 -1.21875 18.71875 1.609375 
Q 12.15625 4.4375 8.421875 10.125 
Q 4.6875 15.828125 4.5 23 
z
" id="ArialMT-83"/>
     <path d="M 40.4375 6.390625 
Q 35.546875 2.25 31.03125 0.53125 
Q 26.515625 -1.171875 21.34375 -1.171875 
Q 12.796875 -1.171875 8.203125 3 
Q 3.609375 7.171875 3.609375 13.671875 
Q 3.609375 17.484375 5.34375 20.625 
Q 7.078125 23.78125 9.890625 25.6875 
Q 12.703125 27.59375 16.21875 28.5625 
Q 18.796875 29.25 24.03125 29.890625 
Q 34.671875 31.15625 39.703125 32.90625 
Q 39.75 34.71875 39.75 35.203125 
Q 39.75 40.578125 37.25 42.78125 
Q 33.890625 45.75 27.25 45.75 
Q 21.046875 45.75 18.09375 43.578125 
Q 15.140625 41.40625 13.71875 35.890625 
L 5.125 37.0625 
Q 6.296875 42.578125 8.984375 45.96875 
Q 11.671875 49.359375 16.75 51.1875 
Q 21.828125 53.03125 28.515625 53.03125 
Q 35.15625 53.03125 39.296875 51.46875 
Q 43.453125 49.90625 45.40625 47.53125 
Q 47.359375 45.171875 48.140625 41.546875 
Q 48.578125 39.3125 48.578125 33.453125 
L 48.578125 21.734375 
Q 48.578125 9.46875 49.140625 6.21875 
Q 49.703125 2.984375 51.375 0 
L 42.1875 0 
Q 40.828125 2.734375 40.4375 6.390625 
z
M 39.703125 26.03125 
Q 34.90625 24.078125 25.34375 22.703125 
Q 19.921875 21.921875 17.671875 20.9375 
Q 15.4375 19.96875 14.203125 18.09375 
Q 12.984375 16.21875 12.984375 13.921875 
Q 12.984375 10.40625 15.640625 8.0625 
Q 18.3125 5.71875 23.4375 5.71875 
Q 28.515625 5.71875 32.46875 7.9375 
Q 36.421875 10.15625 38.28125 14.015625 
Q 39.703125 17 39.703125 22.796875 
z
" id="ArialMT-97"/>
     <path d="M 6.59375 0 
L 6.59375 51.859375 
L 14.453125 51.859375 
L 14.453125 44.578125 
Q 16.890625 48.390625 20.9375 50.703125 
Q 25 53.03125 30.171875 53.03125 
Q 35.9375 53.03125 39.625 50.640625 
Q 43.3125 48.25 44.828125 43.953125 
Q 50.984375 53.03125 60.84375 53.03125 
Q 68.5625 53.03125 72.703125 48.75 
Q 76.859375 44.484375 76.859375 35.59375 
L 76.859375 0 
L 68.109375 0 
L 68.109375 32.671875 
Q 68.109375 37.9375 67.25 40.25 
Q 66.40625 42.578125 64.15625 43.984375 
Q 61.921875 45.40625 58.890625 45.40625 
Q 53.421875 45.40625 49.796875 41.765625 
Q 46.1875 38.140625 46.1875 30.125 
L 46.1875 0 
L 37.40625 0 
L 37.40625 33.6875 
Q 37.40625 39.546875 35.25 42.46875 
Q 33.109375 45.40625 28.21875 45.40625 
Q 24.515625 45.40625 21.359375 43.453125 
Q 18.21875 41.5 16.796875 37.734375 
Q 15.375 33.984375 15.375 26.90625 
L 15.375 0 
z
" id="ArialMT-109"/>
     <path d="M 6.59375 -19.875 
L 6.59375 51.859375 
L 14.59375 51.859375 
L 14.59375 45.125 
Q 17.4375 49.078125 21 51.046875 
Q 24.5625 53.03125 29.640625 53.03125 
Q 36.28125 53.03125 41.359375 49.609375 
Q 46.4375 46.1875 49.015625 39.953125 
Q 51.609375 33.734375 51.609375 26.3125 
Q 51.609375 18.359375 48.75 11.984375 
Q 45.90625 5.609375 40.453125 2.21875 
Q 35.015625 -1.171875 29 -1.171875 
Q 24.609375 -1.171875 21.109375 0.6875 
Q 17.625 2.546875 15.375 5.375 
L 15.375 -19.875 
z
M 14.546875 25.640625 
Q 14.546875 15.625 18.59375 10.84375 
Q 22.65625 6.0625 28.421875 6.0625 
Q 34.28125 6.0625 38.453125 11.015625 
Q 42.625 15.96875 42.625 26.375 
Q 42.625 36.28125 38.546875 41.203125 
Q 34.46875 46.140625 28.8125 46.140625 
Q 23.1875 46.140625 18.859375 40.890625 
Q 14.546875 35.640625 14.546875 25.640625 
z
" id="ArialMT-112"/>
     <path d="M 6.390625 0 
L 6.390625 71.578125 
L 15.1875 71.578125 
L 15.1875 0 
z
" id="ArialMT-108"/>
     <path d="M 42.09375 16.703125 
L 51.171875 15.578125 
Q 49.03125 7.625 43.21875 3.21875 
Q 37.40625 -1.171875 28.375 -1.171875 
Q 17 -1.171875 10.328125 5.828125 
Q 3.65625 12.84375 3.65625 25.484375 
Q 3.65625 38.578125 10.390625 45.796875 
Q 17.140625 53.03125 27.875 53.03125 
Q 38.28125 53.03125 44.875 45.953125 
Q 51.46875 38.875 51.46875 26.03125 
Q 51.46875 25.25 51.421875 23.6875 
L 12.75 23.6875 
Q 13.234375 15.140625 17.578125 10.59375 
Q 21.921875 6.0625 28.421875 6.0625 
Q 33.25 6.0625 36.671875 8.59375 
Q 40.09375 11.140625 42.09375 16.703125 
z
M 13.234375 30.90625 
L 42.1875 30.90625 
Q 41.609375 37.453125 38.875 40.71875 
Q 34.671875 45.796875 27.984375 45.796875 
Q 21.921875 45.796875 17.796875 41.75 
Q 13.671875 37.703125 13.234375 30.90625 
z
" id="ArialMT-101"/>
     <path id="ArialMT-32"/>
     <path d="M 7.71875 0 
L 7.71875 71.578125 
L 32.375 71.578125 
Q 40.71875 71.578125 45.125 70.5625 
Q 51.265625 69.140625 55.609375 65.4375 
Q 61.28125 60.640625 64.078125 53.1875 
Q 66.890625 45.75 66.890625 36.1875 
Q 66.890625 28.03125 64.984375 21.734375 
Q 63.09375 15.4375 60.109375 11.296875 
Q 57.125 7.171875 53.578125 4.796875 
Q 50.046875 2.4375 45.046875 1.21875 
Q 40.046875 0 33.546875 0 
z
M 17.1875 8.453125 
L 32.46875 8.453125 
Q 39.546875 8.453125 43.578125 9.765625 
Q 47.609375 11.078125 50 13.484375 
Q 53.375 16.84375 55.25 22.53125 
Q 57.125 28.21875 57.125 36.328125 
Q 57.125 47.5625 53.4375 53.59375 
Q 49.75 59.625 44.484375 61.671875 
Q 40.671875 63.140625 32.234375 63.140625 
L 17.1875 63.140625 
z
" id="ArialMT-68"/>
    </defs>
    <g style="fill:#262626;" transform="translate(320.715312 15.935625)scale(0.12 -0.12)">
     <use xlink:href="#ArialMT-83"/>
     <use x="66.699219" xlink:href="#ArialMT-97"/>
     <use x="122.314453" xlink:href="#ArialMT-109"/>
     <use x="205.615234" xlink:href="#ArialMT-112"/>
     <use x="261.230469" xlink:href="#ArialMT-108"/>
     <use x="283.447266" xlink:href="#ArialMT-101"/>
     <use x="339.0625" xlink:href="#ArialMT-32"/>
     <use x="366.845703" xlink:href="#ArialMT-68"/>
     <use x="439.0625" xlink:href="#ArialMT-97"/>
     <use x="494.677734" xlink:href="#ArialMT-116"/>
     <use x="522.460938" xlink:href="#ArialMT-97"/>
     <use x="578.076172" xlink:href="#ArialMT-32"/>
     <use x="605.859375" xlink:href="#ArialMT-50"/>
    </g>
   </g>
   <g id="legend_1">
    <g id="patch_7">
     <path d="M 702.201563 193.661719 
L 744.7625 193.661719 
Q 746.7625 193.661719 746.7625 191.661719 
L 746.7625 178.369531 
Q 746.7625 176.369531 744.7625 176.369531 
L 702.201563 176.369531 
Q 700.201563 176.369531 700.201563 178.369531 
L 700.201563 191.661719 
Q 700.201563 193.661719 702.201563 193.661719 
z
" style="fill:#e6e6e6;opacity:0.8;stroke:#cccccc;stroke-linejoin:miter;"/>
    </g>
    <g id="line2d_16">
     <path d="M 704.201563 184.057031 
L 724.201563 184.057031 
" style="fill:none;stroke:#4c72b0;stroke-linecap:round;stroke-width:1.5;"/>
    </g>
    <g id="line2d_17"/>
    <g id="text_17">
     <!-- y2 -->
     <defs>
      <path d="M 6.203125 -19.96875 
L 5.21875 -11.71875 
Q 8.109375 -12.5 10.25 -12.5 
Q 13.1875 -12.5 14.9375 -11.515625 
Q 16.703125 -10.546875 17.828125 -8.796875 
Q 18.65625 -7.46875 20.515625 -2.25 
Q 20.75 -1.515625 21.296875 -0.09375 
L 1.609375 51.859375 
L 11.078125 51.859375 
L 21.875 21.828125 
Q 23.96875 16.109375 25.640625 9.8125 
Q 27.15625 15.875 29.25 21.625 
L 40.328125 51.859375 
L 49.125 51.859375 
L 29.390625 -0.875 
Q 26.21875 -9.421875 24.46875 -12.640625 
Q 22.125 -17 19.09375 -19.015625 
Q 16.0625 -21.046875 11.859375 -21.046875 
Q 9.328125 -21.046875 6.203125 -19.96875 
z
" id="ArialMT-121"/>
     </defs>
     <g style="fill:#262626;" transform="translate(732.201563 187.557031)scale(0.1 -0.1)">
      <use xlink:href="#ArialMT-121"/>
      <use x="50" xlink:href="#ArialMT-50"/>
     </g>
    </g>
   </g>
  </g>
 </g>
 <defs>
  <clipPath id="p8f79a52db0">
   <rect height="326.16" width="669.6" x="25.601563" y="21.935625"/>
  </clipPath>
 </defs>
</svg>
