<?xml version="1.0" encoding="utf-8" standalone="no"?>
<!DOCTYPE svg PUBLIC "-//W3C//DTD SVG 1.1//EN"
  "http://www.w3.org/Graphics/SVG/1.1/DTD/svg11.dtd">
<!-- Created with matplotlib (https://matplotlib.org/) -->
<svg height="384.58625pt" version="1.1" viewBox="0 0 762.021875 384.58625" width="762.021875pt" xmlns="http://www.w3.org/2000/svg" xmlns:xlink="http://www.w3.org/1999/xlink">
 <defs>
  <style type="text/css">
*{stroke-linecap:butt;stroke-linejoin:round;}
  </style>
 </defs>
 <g id="figure_1">
  <g id="patch_1">
   <path d="M 0 384.58625 
L 762.021875 384.58625 
L 762.021875 0 
L 0 0 
z
" style="fill:none;"/>
  </g>
  <g id="axes_1">
   <g id="patch_2">
    <path d="M 33.660938 348.095625 
L 703.260938 348.095625 
L 703.260938 21.935625 
L 33.660938 21.935625 
z
" style="fill:#e6e6e6;"/>
   </g>
   <g id="matplotlib.axis_1">
    <g id="xtick_1">
     <g id="line2d_1">
      <path clip-path="url(#p9af3981238)" d="M 64.097301 348.095625 
L 64.097301 21.935625 
" style="fill:none;stroke:#cccccc;stroke-linecap:round;stroke-width:0.8;"/>
     </g>
     <g id="text_1">
      <!-- 0 -->
      <defs>
       <path d="M 4.15625 35.296875 
Q 4.15625 48 6.765625 55.734375 
Q 9.375 63.484375 14.515625 67.671875 
Q 19.671875 71.875 27.484375 71.875 
Q 33.25 71.875 37.59375 69.546875 
Q 41.9375 67.234375 44.765625 62.859375 
Q 47.609375 58.5 49.21875 52.21875 
Q 50.828125 45.953125 50.828125 35.296875 
Q 50.828125 22.703125 48.234375 14.96875 
Q 45.65625 7.234375 40.5 3 
Q 35.359375 -1.21875 27.484375 -1.21875 
Q 17.140625 -1.21875 11.234375 6.203125 
Q 4.15625 15.140625 4.15625 35.296875 
z
M 13.1875 35.296875 
Q 13.1875 17.671875 17.3125 11.828125 
Q 21.4375 6 27.484375 6 
Q 33.546875 6 37.671875 11.859375 
Q 41.796875 17.71875 41.796875 35.296875 
Q 41.796875 52.984375 37.671875 58.78125 
Q 33.546875 64.59375 27.390625 64.59375 
Q 21.34375 64.59375 17.71875 59.46875 
Q 13.1875 52.9375 13.1875 35.296875 
z
" id="ArialMT-48"/>
      </defs>
      <g style="fill:#262626;" transform="translate(61.316832 362.253438)scale(0.1 -0.1)">
       <use xlink:href="#ArialMT-48"/>
      </g>
     </g>
    </g>
    <g id="xtick_2">
     <g id="line2d_2">
      <path clip-path="url(#p9af3981238)" d="M 185.964623 348.095625 
L 185.964623 21.935625 
" style="fill:none;stroke:#cccccc;stroke-linecap:round;stroke-width:0.8;"/>
     </g>
     <g id="text_2">
      <!-- 200 -->
      <defs>
       <path d="M 50.34375 8.453125 
L 50.34375 0 
L 3.03125 0 
Q 2.9375 3.171875 4.046875 6.109375 
Q 5.859375 10.9375 9.828125 15.625 
Q 13.8125 20.3125 21.34375 26.46875 
Q 33.015625 36.03125 37.109375 41.625 
Q 41.21875 47.21875 41.21875 52.203125 
Q 41.21875 57.421875 37.46875 61 
Q 33.734375 64.59375 27.734375 64.59375 
Q 21.390625 64.59375 17.578125 60.78125 
Q 13.765625 56.984375 13.71875 50.25 
L 4.6875 51.171875 
Q 5.609375 61.28125 11.65625 66.578125 
Q 17.71875 71.875 27.9375 71.875 
Q 38.234375 71.875 44.234375 66.15625 
Q 50.25 60.453125 50.25 52 
Q 50.25 47.703125 48.484375 43.546875 
Q 46.734375 39.40625 42.65625 34.8125 
Q 38.578125 30.21875 29.109375 22.21875 
Q 21.1875 15.578125 18.9375 13.203125 
Q 16.703125 10.84375 15.234375 8.453125 
z
" id="ArialMT-50"/>
      </defs>
      <g style="fill:#262626;" transform="translate(177.623217 362.253438)scale(0.1 -0.1)">
       <use xlink:href="#ArialMT-50"/>
       <use x="55.615234" xlink:href="#ArialMT-48"/>
       <use x="111.230469" xlink:href="#ArialMT-48"/>
      </g>
     </g>
    </g>
    <g id="xtick_3">
     <g id="line2d_3">
      <path clip-path="url(#p9af3981238)" d="M 307.831945 348.095625 
L 307.831945 21.935625 
" style="fill:none;stroke:#cccccc;stroke-linecap:round;stroke-width:0.8;"/>
     </g>
     <g id="text_3">
      <!-- 400 -->
      <defs>
       <path d="M 32.328125 0 
L 32.328125 17.140625 
L 1.265625 17.140625 
L 1.265625 25.203125 
L 33.9375 71.578125 
L 41.109375 71.578125 
L 41.109375 25.203125 
L 50.78125 25.203125 
L 50.78125 17.140625 
L 41.109375 17.140625 
L 41.109375 0 
z
M 32.328125 25.203125 
L 32.328125 57.46875 
L 9.90625 25.203125 
z
" id="ArialMT-52"/>
      </defs>
      <g style="fill:#262626;" transform="translate(299.490539 362.253438)scale(0.1 -0.1)">
       <use xlink:href="#ArialMT-52"/>
       <use x="55.615234" xlink:href="#ArialMT-48"/>
       <use x="111.230469" xlink:href="#ArialMT-48"/>
      </g>
     </g>
    </g>
    <g id="xtick_4">
     <g id="line2d_4">
      <path clip-path="url(#p9af3981238)" d="M 429.699267 348.095625 
L 429.699267 21.935625 
" style="fill:none;stroke:#cccccc;stroke-linecap:round;stroke-width:0.8;"/>
     </g>
     <g id="text_4">
      <!-- 600 -->
      <defs>
       <path d="M 49.75 54.046875 
L 41.015625 53.375 
Q 39.84375 58.546875 37.703125 60.890625 
Q 34.125 64.65625 28.90625 64.65625 
Q 24.703125 64.65625 21.53125 62.3125 
Q 17.390625 59.28125 14.984375 53.46875 
Q 12.59375 47.65625 12.5 36.921875 
Q 15.671875 41.75 20.265625 44.09375 
Q 24.859375 46.4375 29.890625 46.4375 
Q 38.671875 46.4375 44.84375 39.96875 
Q 51.03125 33.5 51.03125 23.25 
Q 51.03125 16.5 48.125 10.71875 
Q 45.21875 4.9375 40.140625 1.859375 
Q 35.0625 -1.21875 28.609375 -1.21875 
Q 17.625 -1.21875 10.6875 6.859375 
Q 3.765625 14.9375 3.765625 33.5 
Q 3.765625 54.25 11.421875 63.671875 
Q 18.109375 71.875 29.4375 71.875 
Q 37.890625 71.875 43.28125 67.140625 
Q 48.6875 62.40625 49.75 54.046875 
z
M 13.875 23.1875 
Q 13.875 18.65625 15.796875 14.5 
Q 17.71875 10.359375 21.1875 8.171875 
Q 24.65625 6 28.46875 6 
Q 34.03125 6 38.03125 10.484375 
Q 42.046875 14.984375 42.046875 22.703125 
Q 42.046875 30.125 38.078125 34.390625 
Q 34.125 38.671875 28.125 38.671875 
Q 22.171875 38.671875 18.015625 34.390625 
Q 13.875 30.125 13.875 23.1875 
z
" id="ArialMT-54"/>
      </defs>
      <g style="fill:#262626;" transform="translate(421.35786 362.253438)scale(0.1 -0.1)">
       <use xlink:href="#ArialMT-54"/>
       <use x="55.615234" xlink:href="#ArialMT-48"/>
       <use x="111.230469" xlink:href="#ArialMT-48"/>
      </g>
     </g>
    </g>
    <g id="xtick_5">
     <g id="line2d_5">
      <path clip-path="url(#p9af3981238)" d="M 551.566589 348.095625 
L 551.566589 21.935625 
" style="fill:none;stroke:#cccccc;stroke-linecap:round;stroke-width:0.8;"/>
     </g>
     <g id="text_5">
      <!-- 800 -->
      <defs>
       <path d="M 17.671875 38.8125 
Q 12.203125 40.828125 9.5625 44.53125 
Q 6.9375 48.25 6.9375 53.421875 
Q 6.9375 61.234375 12.546875 66.546875 
Q 18.171875 71.875 27.484375 71.875 
Q 36.859375 71.875 42.578125 66.421875 
Q 48.296875 60.984375 48.296875 53.171875 
Q 48.296875 48.1875 45.671875 44.5 
Q 43.0625 40.828125 37.75 38.8125 
Q 44.34375 36.671875 47.78125 31.875 
Q 51.21875 27.09375 51.21875 20.453125 
Q 51.21875 11.28125 44.71875 5.03125 
Q 38.234375 -1.21875 27.640625 -1.21875 
Q 17.046875 -1.21875 10.546875 5.046875 
Q 4.046875 11.328125 4.046875 20.703125 
Q 4.046875 27.6875 7.59375 32.390625 
Q 11.140625 37.109375 17.671875 38.8125 
z
M 15.921875 53.71875 
Q 15.921875 48.640625 19.1875 45.40625 
Q 22.46875 42.1875 27.6875 42.1875 
Q 32.765625 42.1875 36.015625 45.375 
Q 39.265625 48.578125 39.265625 53.21875 
Q 39.265625 58.0625 35.90625 61.359375 
Q 32.5625 64.65625 27.59375 64.65625 
Q 22.5625 64.65625 19.234375 61.421875 
Q 15.921875 58.203125 15.921875 53.71875 
z
M 13.09375 20.65625 
Q 13.09375 16.890625 14.875 13.375 
Q 16.65625 9.859375 20.171875 7.921875 
Q 23.6875 6 27.734375 6 
Q 34.03125 6 38.125 10.046875 
Q 42.234375 14.109375 42.234375 20.359375 
Q 42.234375 26.703125 38.015625 30.859375 
Q 33.796875 35.015625 27.4375 35.015625 
Q 21.234375 35.015625 17.15625 30.90625 
Q 13.09375 26.8125 13.09375 20.65625 
z
" id="ArialMT-56"/>
      </defs>
      <g style="fill:#262626;" transform="translate(543.225182 362.253438)scale(0.1 -0.1)">
       <use xlink:href="#ArialMT-56"/>
       <use x="55.615234" xlink:href="#ArialMT-48"/>
       <use x="111.230469" xlink:href="#ArialMT-48"/>
      </g>
     </g>
    </g>
    <g id="xtick_6">
     <g id="line2d_6">
      <path clip-path="url(#p9af3981238)" d="M 673.43391 348.095625 
L 673.43391 21.935625 
" style="fill:none;stroke:#cccccc;stroke-linecap:round;stroke-width:0.8;"/>
     </g>
     <g id="text_6">
      <!-- 1000 -->
      <defs>
       <path d="M 37.25 0 
L 28.46875 0 
L 28.46875 56 
Q 25.296875 52.984375 20.140625 49.953125 
Q 14.984375 46.921875 10.890625 45.40625 
L 10.890625 53.90625 
Q 18.265625 57.375 23.78125 62.296875 
Q 29.296875 67.234375 31.59375 71.875 
L 37.25 71.875 
z
" id="ArialMT-49"/>
      </defs>
      <g style="fill:#262626;" transform="translate(662.312035 362.253438)scale(0.1 -0.1)">
       <use xlink:href="#ArialMT-49"/>
       <use x="55.615234" xlink:href="#ArialMT-48"/>
       <use x="111.230469" xlink:href="#ArialMT-48"/>
       <use x="166.845703" xlink:href="#ArialMT-48"/>
      </g>
     </g>
    </g>
    <g id="text_7">
     <!-- t -->
     <defs>
      <path d="M 25.78125 7.859375 
L 27.046875 0.09375 
Q 23.34375 -0.6875 20.40625 -0.6875 
Q 15.625 -0.6875 12.984375 0.828125 
Q 10.359375 2.34375 9.28125 4.8125 
Q 8.203125 7.28125 8.203125 15.1875 
L 8.203125 45.015625 
L 1.765625 45.015625 
L 1.765625 51.859375 
L 8.203125 51.859375 
L 8.203125 64.703125 
L 16.9375 69.96875 
L 16.9375 51.859375 
L 25.78125 51.859375 
L 25.78125 45.015625 
L 16.9375 45.015625 
L 16.9375 14.703125 
Q 16.9375 10.9375 17.40625 9.859375 
Q 17.875 8.796875 18.921875 8.15625 
Q 19.96875 7.515625 21.921875 7.515625 
Q 23.390625 7.515625 25.78125 7.859375 
z
" id="ArialMT-116"/>
     </defs>
     <g style="fill:#262626;" transform="translate(367.071875 375.39875)scale(0.1 -0.1)">
      <use xlink:href="#ArialMT-116"/>
     </g>
    </g>
   </g>
   <g id="matplotlib.axis_2">
    <g id="ytick_1">
     <g id="line2d_7">
      <path clip-path="url(#p9af3981238)" d="M 33.660938 318.773968 
L 703.260938 318.773968 
" style="fill:none;stroke:#cccccc;stroke-linecap:round;stroke-width:0.8;"/>
     </g>
     <g id="text_8">
      <!-- 0.0 -->
      <defs>
       <path d="M 9.078125 0 
L 9.078125 10.015625 
L 19.09375 10.015625 
L 19.09375 0 
z
" id="ArialMT-46"/>
      </defs>
      <g style="fill:#262626;" transform="translate(12.760938 322.352874)scale(0.1 -0.1)">
       <use xlink:href="#ArialMT-48"/>
       <use x="55.615234" xlink:href="#ArialMT-46"/>
       <use x="83.398438" xlink:href="#ArialMT-48"/>
      </g>
     </g>
    </g>
    <g id="ytick_2">
     <g id="line2d_8">
      <path clip-path="url(#p9af3981238)" d="M 33.660938 280.735415 
L 703.260938 280.735415 
" style="fill:none;stroke:#cccccc;stroke-linecap:round;stroke-width:0.8;"/>
     </g>
     <g id="text_9">
      <!-- 2.5 -->
      <defs>
       <path d="M 4.15625 18.75 
L 13.375 19.53125 
Q 14.40625 12.796875 18.140625 9.390625 
Q 21.875 6 27.15625 6 
Q 33.5 6 37.890625 10.78125 
Q 42.28125 15.578125 42.28125 23.484375 
Q 42.28125 31 38.0625 35.34375 
Q 33.84375 39.703125 27 39.703125 
Q 22.75 39.703125 19.328125 37.765625 
Q 15.921875 35.84375 13.96875 32.765625 
L 5.71875 33.84375 
L 12.640625 70.609375 
L 48.25 70.609375 
L 48.25 62.203125 
L 19.671875 62.203125 
L 15.828125 42.96875 
Q 22.265625 47.46875 29.34375 47.46875 
Q 38.71875 47.46875 45.15625 40.96875 
Q 51.609375 34.46875 51.609375 24.265625 
Q 51.609375 14.546875 45.953125 7.46875 
Q 39.0625 -1.21875 27.15625 -1.21875 
Q 17.390625 -1.21875 11.203125 4.25 
Q 5.03125 9.71875 4.15625 18.75 
z
" id="ArialMT-53"/>
      </defs>
      <g style="fill:#262626;" transform="translate(12.760938 284.314321)scale(0.1 -0.1)">
       <use xlink:href="#ArialMT-50"/>
       <use x="55.615234" xlink:href="#ArialMT-46"/>
       <use x="83.398438" xlink:href="#ArialMT-53"/>
      </g>
     </g>
    </g>
    <g id="ytick_3">
     <g id="line2d_9">
      <path clip-path="url(#p9af3981238)" d="M 33.660938 242.696863 
L 703.260938 242.696863 
" style="fill:none;stroke:#cccccc;stroke-linecap:round;stroke-width:0.8;"/>
     </g>
     <g id="text_10">
      <!-- 5.0 -->
      <g style="fill:#262626;" transform="translate(12.760938 246.275769)scale(0.1 -0.1)">
       <use xlink:href="#ArialMT-53"/>
       <use x="55.615234" xlink:href="#ArialMT-46"/>
       <use x="83.398438" xlink:href="#ArialMT-48"/>
      </g>
     </g>
    </g>
    <g id="ytick_4">
     <g id="line2d_10">
      <path clip-path="url(#p9af3981238)" d="M 33.660938 204.65831 
L 703.260938 204.65831 
" style="fill:none;stroke:#cccccc;stroke-linecap:round;stroke-width:0.8;"/>
     </g>
     <g id="text_11">
      <!-- 7.5 -->
      <defs>
       <path d="M 4.734375 62.203125 
L 4.734375 70.65625 
L 51.078125 70.65625 
L 51.078125 63.8125 
Q 44.234375 56.546875 37.515625 44.484375 
Q 30.8125 32.421875 27.15625 19.671875 
Q 24.515625 10.6875 23.78125 0 
L 14.75 0 
Q 14.890625 8.453125 18.0625 20.40625 
Q 21.234375 32.375 27.171875 43.484375 
Q 33.109375 54.59375 39.796875 62.203125 
z
" id="ArialMT-55"/>
      </defs>
      <g style="fill:#262626;" transform="translate(12.760938 208.237216)scale(0.1 -0.1)">
       <use xlink:href="#ArialMT-55"/>
       <use x="55.615234" xlink:href="#ArialMT-46"/>
       <use x="83.398438" xlink:href="#ArialMT-53"/>
      </g>
     </g>
    </g>
    <g id="ytick_5">
     <g id="line2d_11">
      <path clip-path="url(#p9af3981238)" d="M 33.660938 166.619757 
L 703.260938 166.619757 
" style="fill:none;stroke:#cccccc;stroke-linecap:round;stroke-width:0.8;"/>
     </g>
     <g id="text_12">
      <!-- 10.0 -->
      <g style="fill:#262626;" transform="translate(7.2 170.198664)scale(0.1 -0.1)">
       <use xlink:href="#ArialMT-49"/>
       <use x="55.615234" xlink:href="#ArialMT-48"/>
       <use x="111.230469" xlink:href="#ArialMT-46"/>
       <use x="139.013672" xlink:href="#ArialMT-48"/>
      </g>
     </g>
    </g>
    <g id="ytick_6">
     <g id="line2d_12">
      <path clip-path="url(#p9af3981238)" d="M 33.660938 128.581205 
L 703.260938 128.581205 
" style="fill:none;stroke:#cccccc;stroke-linecap:round;stroke-width:0.8;"/>
     </g>
     <g id="text_13">
      <!-- 12.5 -->
      <g style="fill:#262626;" transform="translate(7.2 132.160111)scale(0.1 -0.1)">
       <use xlink:href="#ArialMT-49"/>
       <use x="55.615234" xlink:href="#ArialMT-50"/>
       <use x="111.230469" xlink:href="#ArialMT-46"/>
       <use x="139.013672" xlink:href="#ArialMT-53"/>
      </g>
     </g>
    </g>
    <g id="ytick_7">
     <g id="line2d_13">
      <path clip-path="url(#p9af3981238)" d="M 33.660938 90.542652 
L 703.260938 90.542652 
" style="fill:none;stroke:#cccccc;stroke-linecap:round;stroke-width:0.8;"/>
     </g>
     <g id="text_14">
      <!-- 15.0 -->
      <g style="fill:#262626;" transform="translate(7.2 94.121558)scale(0.1 -0.1)">
       <use xlink:href="#ArialMT-49"/>
       <use x="55.615234" xlink:href="#ArialMT-53"/>
       <use x="111.230469" xlink:href="#ArialMT-46"/>
       <use x="139.013672" xlink:href="#ArialMT-48"/>
      </g>
     </g>
    </g>
    <g id="ytick_8">
     <g id="line2d_14">
      <path clip-path="url(#p9af3981238)" d="M 33.660938 52.504099 
L 703.260938 52.504099 
" style="fill:none;stroke:#cccccc;stroke-linecap:round;stroke-width:0.8;"/>
     </g>
     <g id="text_15">
      <!-- 17.5 -->
      <g style="fill:#262626;" transform="translate(7.2 56.083006)scale(0.1 -0.1)">
       <use xlink:href="#ArialMT-49"/>
       <use x="55.615234" xlink:href="#ArialMT-55"/>
       <use x="111.230469" xlink:href="#ArialMT-46"/>
       <use x="139.013672" xlink:href="#ArialMT-53"/>
      </g>
     </g>
    </g>
   </g>
   <g id="line2d_15">
    <path clip-path="url(#p9af3981238)" d="M 64.097301 318.56725 
L 64.706638 305.893771 
L 65.315974 287.937507 
L 65.925311 278.766015 
L 66.534648 282.094375 
L 67.143984 276.059155 
L 67.753321 278.531258 
L 68.362657 283.92912 
L 68.971994 281.711829 
L 69.581331 294.431821 
L 70.190667 289.119972 
L 70.800004 290.695875 
L 72.018677 281.164896 
L 72.628014 271.86358 
L 73.23735 271.009725 
L 73.846687 274.977522 
L 74.456023 277.975748 
L 75.06536 276.32802 
L 75.674697 293.585975 
L 76.284033 302.484761 
L 76.89337 314.822949 
L 77.502707 319.870886 
L 78.112043 330.808883 
L 78.72138 326.840514 
L 79.330716 326.054431 
L 79.940053 328.938837 
L 80.54939 320.357518 
L 81.158726 318.198621 
L 81.768063 313.36651 
L 82.377399 307.349048 
L 82.986736 316.835412 
L 83.596073 317.874039 
L 84.205409 323.891675 
L 84.814746 325.317312 
L 86.033419 333.27017 
L 86.642756 323.205128 
L 87.252092 315.582092 
L 87.861429 311.662931 
L 88.470766 300.355523 
L 89.080102 284.99155 
L 89.689439 274.469358 
L 90.298775 275.100087 
L 90.908112 264.726532 
L 91.517449 260.6451 
L 92.736122 268.409685 
L 93.345458 269.158207 
L 93.954795 270.34799 
L 94.564132 266.907326 
L 95.173468 270.822282 
L 95.782805 265.750281 
L 96.392141 269.501792 
L 97.610815 253.527747 
L 98.220151 251.544717 
L 98.829488 265.662859 
L 99.438824 257.242273 
L 100.048161 273.94021 
L 100.657498 285.239561 
L 101.266834 299.207411 
L 101.876171 302.252058 
L 102.485508 314.276425 
L 103.094844 312.003994 
L 103.704181 315.515918 
L 104.313517 314.446357 
L 104.922854 304.828299 
L 106.141527 294.926711 
L 106.750864 299.371494 
L 107.3602 301.431554 
L 107.969537 307.432613 
L 108.578874 297.912888 
L 109.18821 318.20985 
L 109.797547 318.874364 
L 110.406883 308.925555 
L 111.01622 312.028982 
L 111.625557 309.917485 
L 112.234893 289.684817 
L 112.84423 273.769298 
L 114.67224 244.387651 
L 115.281576 247.933171 
L 115.890913 235.138229 
L 116.50025 255.498484 
L 117.109586 245.985189 
L 117.718923 258.61452 
L 118.328259 258.941349 
L 118.937596 262.984666 
L 119.546933 262.581086 
L 120.156269 248.333456 
L 120.765606 240.836072 
L 121.374942 243.317704 
L 121.984279 241.674142 
L 122.593616 246.977709 
L 123.202952 244.533297 
L 123.812289 249.81476 
L 124.421625 259.623508 
L 125.030962 264.847428 
L 125.640299 286.824099 
L 126.249635 297.93961 
L 128.077645 306.840265 
L 128.686982 312.036282 
L 129.296318 298.998008 
L 129.905655 281.464378 
L 130.514992 279.338087 
L 131.124328 289.905842 
L 131.733665 289.48023 
L 132.343001 299.028985 
L 132.952338 295.994649 
L 133.561675 296.469569 
L 134.171011 304.933241 
L 134.780348 303.386206 
L 135.389684 299.045275 
L 135.999021 287.452538 
L 136.608358 281.624124 
L 137.217694 268.511228 
L 137.827031 248.031803 
L 138.436367 249.08857 
L 139.045704 241.769851 
L 139.655041 232.036348 
L 140.264377 233.600611 
L 140.873714 237.74905 
L 142.092387 242.45547 
L 142.701724 252.991515 
L 143.31106 245.819953 
L 143.920397 250.533294 
L 144.529734 238.71114 
L 145.13907 234.974259 
L 145.748407 230.42539 
L 146.357743 228.703244 
L 146.96708 230.795249 
L 147.576417 229.000113 
L 148.185753 244.212627 
L 148.79509 256.092198 
L 149.404426 260.749367 
L 150.013763 277.804977 
L 150.6231 285.703735 
L 151.232436 290.16278 
L 151.841773 286.717287 
L 152.451109 285.688374 
L 153.060446 289.642058 
L 153.669783 270.318882 
L 154.279119 279.118954 
L 154.888456 276.244696 
L 155.497793 274.403297 
L 156.107129 266.758524 
L 156.716466 284.708233 
L 157.325802 293.315054 
L 157.935139 285.589038 
L 158.544476 294.926272 
L 159.153812 293.885945 
L 159.763149 283.814973 
L 160.372485 281.690756 
L 160.981822 261.182438 
L 161.591159 259.231073 
L 162.200495 238.728024 
L 162.809832 231.143044 
L 163.419168 227.114312 
L 164.028505 231.331662 
L 164.637842 226.566998 
L 165.247178 232.486056 
L 165.856515 227.331211 
L 166.465852 228.611252 
L 167.075188 235.232694 
L 167.684525 239.160134 
L 168.293861 238.373271 
L 168.903198 233.054453 
L 169.512535 222.476149 
L 170.731208 214.559304 
L 171.340544 224.411291 
L 171.949881 228.237731 
L 172.559218 219.342983 
L 173.777891 254.959623 
L 174.387227 266.410094 
L 174.996564 272.90786 
L 175.605901 281.148426 
L 176.215237 280.178769 
L 176.824574 276.216728 
L 177.43391 279.487677 
L 178.043247 264.394904 
L 178.652584 267.475677 
L 179.26192 260.170533 
L 179.871257 255.169871 
L 181.08993 276.282173 
L 181.699267 269.336974 
L 182.308603 280.59649 
L 182.91794 275.430686 
L 183.527277 276.860587 
L 184.136613 275.099022 
L 184.74595 256.227137 
L 185.355286 256.378548 
L 185.964623 238.83619 
L 186.57396 229.277686 
L 187.183296 221.828097 
L 187.792633 217.446177 
L 189.011306 205.416124 
L 190.229979 227.09631 
L 190.839316 227.404701 
L 191.448652 225.401472 
L 192.057989 229.502259 
L 192.667326 218.237191 
L 193.276662 213.735108 
L 193.885999 217.139659 
L 194.495336 214.160993 
L 195.104672 201.300362 
L 195.714009 216.212867 
L 196.323345 206.249865 
L 196.932682 216.622929 
L 198.151355 251.510482 
L 199.370028 258.434756 
L 199.979365 265.615933 
L 200.588702 275.195217 
L 201.198038 268.96476 
L 201.807375 260.028634 
L 202.416711 259.055126 
L 203.026048 261.8777 
L 203.635385 244.613043 
L 204.854058 256.439686 
L 205.463395 267.871046 
L 206.072731 272.759375 
L 206.682068 275.186941 
L 207.291404 272.976094 
L 207.900741 265.970105 
L 208.510078 262.363609 
L 209.119414 252.032465 
L 209.728751 244.275443 
L 210.338087 240.073443 
L 210.947424 224.253254 
L 211.556761 203.432007 
L 212.166097 202.031275 
L 212.775434 203.671193 
L 213.38477 212.411484 
L 213.994107 212.000631 
L 214.603444 203.580613 
L 215.21278 214.249907 
L 215.822117 214.84316 
L 216.431453 221.152101 
L 217.04079 209.840887 
L 217.650127 217.63392 
L 218.259463 201.456514 
L 218.8688 189.604746 
L 219.478137 196.66889 
L 220.087473 194.338449 
L 221.915483 230.141617 
L 222.52482 228.842935 
L 223.743493 250.073885 
L 224.352829 252.699015 
L 224.962166 253.859206 
L 225.571503 254.064078 
L 226.180839 250.251812 
L 226.790176 248.777447 
L 227.399512 245.651429 
L 228.008849 239.181438 
L 228.618186 249.966197 
L 229.227522 246.946457 
L 229.836859 245.145051 
L 230.446195 249.64433 
L 231.055532 263.304058 
L 231.664869 268.270568 
L 232.274205 256.66766 
L 232.883542 250.536474 
L 233.492879 252.07393 
L 234.102215 230.535075 
L 234.711552 221.492154 
L 235.320888 210.19585 
L 235.930225 209.638174 
L 236.539562 195.333036 
L 237.148898 197.679666 
L 237.758235 192.271086 
L 238.367571 203.22591 
L 238.976908 201.786774 
L 239.586245 208.242171 
L 240.195581 205.687116 
L 240.804918 212.04262 
L 241.414254 196.610855 
L 242.023591 207.367304 
L 242.632928 190.660825 
L 243.242264 188.080037 
L 243.851601 190.64699 
L 244.460938 185.462215 
L 245.070274 196.223788 
L 245.679611 201.561179 
L 246.288947 217.69634 
L 246.898284 220.080404 
L 247.507621 239.974873 
L 248.116957 242.768611 
L 248.726294 251.817027 
L 249.33563 251.270284 
L 249.944967 237.057759 
L 250.554304 239.77871 
L 251.16364 241.046735 
L 251.772977 229.51427 
L 252.382313 233.947862 
L 252.99165 232.236879 
L 253.600987 242.009214 
L 254.210323 246.754254 
L 255.428996 247.564905 
L 256.038333 257.429689 
L 256.64767 250.010504 
L 257.257006 240.247611 
L 258.47568 228.739394 
L 259.085016 216.393111 
L 259.694353 197.268634 
L 260.303689 193.303052 
L 260.913026 190.782885 
L 261.522363 192.820537 
L 262.131699 193.198905 
L 262.741036 187.285757 
L 263.350372 184.74064 
L 263.959709 194.9395 
L 264.569046 200.928858 
L 265.178382 203.142262 
L 265.787719 197.739239 
L 266.397055 188.777583 
L 267.006392 184.0943 
L 267.615729 176.903778 
L 268.225065 172.930716 
L 268.834402 186.051761 
L 269.443738 187.109073 
L 270.053075 201.956869 
L 270.662412 207.044281 
L 271.271748 208.928721 
L 271.881085 234.080875 
L 272.490422 228.342267 
L 273.099758 245.700022 
L 273.709095 248.415846 
L 274.318431 230.131421 
L 274.927768 231.619801 
L 275.537105 232.446972 
L 276.146441 224.12086 
L 276.755778 223.978769 
L 277.365114 223.627951 
L 277.974451 228.450903 
L 278.583788 230.355758 
L 279.193124 239.562348 
L 279.802461 235.551906 
L 280.411797 246.613083 
L 281.630471 238.048982 
L 282.849144 211.852046 
L 284.067817 190.654218 
L 285.28649 179.803055 
L 285.895827 186.062428 
L 286.505164 178.418143 
L 287.1145 174.538219 
L 288.333173 190.979454 
L 288.94251 184.018934 
L 289.551847 183.752129 
L 290.161183 182.109229 
L 290.77052 177.937793 
L 291.379856 166.842641 
L 291.989193 170.2212 
L 292.59853 175.66237 
L 293.207866 177.784567 
L 294.426539 186.453822 
L 295.035876 191.736281 
L 296.863886 232.081048 
L 297.473223 226.253888 
L 298.082559 234.747951 
L 298.691896 224.292683 
L 299.301232 219.395397 
L 299.910569 218.666498 
L 300.519906 213.862045 
L 301.129242 210.122978 
L 301.738579 220.653772 
L 302.347915 228.444441 
L 302.957252 225.347163 
L 303.566589 225.089514 
L 304.175925 224.200281 
L 304.785262 229.677111 
L 305.394598 229.364056 
L 306.613272 215.1887 
L 307.222608 197.361437 
L 307.831945 189.786353 
L 308.441281 178.756433 
L 309.050618 180.278506 
L 309.659955 165.021969 
L 310.878628 174.369575 
L 311.487965 169.394036 
L 312.097301 176.849071 
L 312.706638 188.570456 
L 313.315974 178.292725 
L 313.925311 175.134444 
L 314.534648 173.326338 
L 315.143984 161.160669 
L 315.753321 160.449859 
L 316.362657 161.343471 
L 316.971994 151.169215 
L 317.581331 160.144218 
L 318.190667 165.299513 
L 318.800004 169.12807 
L 320.018677 199.635082 
L 320.628014 206.855463 
L 321.23735 207.823613 
L 321.846687 217.377147 
L 322.456023 218.446136 
L 323.06536 212.941767 
L 323.674697 213.569312 
L 324.284033 203.958046 
L 324.89337 204.842818 
L 325.502707 206.577073 
L 326.112043 194.4285 
L 326.72138 214.98766 
L 327.330716 214.407597 
L 327.940053 224.23688 
L 328.54939 232.136428 
L 329.158726 231.363416 
L 329.768063 227.720644 
L 330.986736 200.351407 
L 331.596073 198.366174 
L 332.205409 179.902609 
L 333.424082 161.003352 
L 334.033419 159.49413 
L 334.642756 160.319074 
L 335.252092 158.753534 
L 335.861429 166.225124 
L 336.470766 169.097549 
L 337.080102 168.199448 
L 337.689439 173.811112 
L 338.298775 171.364068 
L 338.908112 165.530598 
L 339.517449 163.198202 
L 340.126785 159.893012 
L 340.736122 149.841574 
L 341.345458 153.606586 
L 341.954795 146.045151 
L 343.173468 173.649842 
L 343.782805 172.885691 
L 344.392141 184.997781 
L 345.001478 192.304857 
L 346.220151 202.523187 
L 346.829488 210.475416 
L 347.438824 210.311679 
L 348.048161 199.876023 
L 348.657498 197.823391 
L 349.266834 199.616742 
L 349.876171 194.393344 
L 350.485508 198.078965 
L 351.094844 204.95683 
L 351.704181 207.31253 
L 352.313517 212.690904 
L 352.922854 214.822276 
L 353.532191 205.914643 
L 354.141527 208.889714 
L 354.750864 206.092794 
L 355.3602 200.736121 
L 355.969537 182.602941 
L 356.578874 176.16716 
L 357.18821 161.390865 
L 357.797547 149.646729 
L 358.406883 154.741919 
L 359.01622 153.360041 
L 359.625557 154.645353 
L 360.234893 162.55902 
L 360.84423 158.958679 
L 361.453566 156.029151 
L 362.062903 166.459634 
L 362.67224 164.044059 
L 363.890913 147.640059 
L 364.50025 141.066014 
L 365.109586 141.053441 
L 365.718923 134.486194 
L 366.328259 141.294539 
L 366.937596 155.754295 
L 367.546933 161.840262 
L 369.984279 195.696413 
L 370.593616 201.03136 
L 371.202952 200.531351 
L 371.812289 198.941068 
L 372.421625 189.924093 
L 373.030962 186.289553 
L 373.640299 186.437173 
L 374.249635 188.809724 
L 374.858972 186.110164 
L 375.468309 195.299613 
L 376.077645 199.597067 
L 377.296318 205.841996 
L 377.905655 213.888782 
L 379.124328 195.569402 
L 379.733665 173.315601 
L 380.343001 176.044544 
L 380.952338 162.378702 
L 381.561675 152.780892 
L 382.171011 148.094599 
L 382.780348 149.350604 
L 383.389684 146.947048 
L 383.999021 149.277644 
L 384.608358 152.151817 
L 385.217694 150.394236 
L 385.827031 152.791454 
L 386.436367 155.732625 
L 387.045704 145.575507 
L 387.655041 145.991293 
L 388.264377 136.252119 
L 388.873714 135.789449 
L 389.483051 132.730646 
L 390.092387 132.465909 
L 390.701724 126.92675 
L 391.31106 152.328194 
L 391.920397 147.70435 
L 392.529734 165.186396 
L 393.13907 175.053249 
L 393.748407 178.99359 
L 394.357743 191.092972 
L 394.96708 192.538376 
L 395.576417 189.20561 
L 396.185753 180.839484 
L 396.79509 181.235745 
L 397.404426 180.067483 
L 398.013763 179.220646 
L 398.6231 178.663957 
L 399.232436 181.094325 
L 399.841773 189.221548 
L 400.451109 189.438491 
L 401.669783 200.724135 
L 402.279119 196.990669 
L 403.497793 191.892548 
L 404.716466 161.949605 
L 405.325802 147.855253 
L 405.935139 149.133118 
L 407.153812 132.756083 
L 407.763149 137.60346 
L 408.372485 134.868287 
L 408.981822 143.475324 
L 409.591159 144.880017 
L 410.200495 137.156515 
L 410.809832 137.62136 
L 411.419168 143.783146 
L 412.028505 132.515557 
L 412.637842 126.832831 
L 413.247178 125.790991 
L 413.856515 125.440038 
L 414.465852 126.984186 
L 415.075188 125.8727 
L 415.684525 138.390101 
L 416.293861 136.458454 
L 416.903198 154.562095 
L 418.121871 178.140221 
L 418.731208 176.48593 
L 419.340544 182.908886 
L 419.949881 176.272885 
L 420.559218 182.245076 
L 421.168554 167.864721 
L 421.777891 167.507321 
L 422.387227 170.695463 
L 422.996564 171.658993 
L 423.605901 171.561483 
L 424.215237 173.998779 
L 424.824574 189.085313 
L 425.43391 194.074329 
L 426.043247 187.503641 
L 426.652584 193.879799 
L 427.26192 174.540977 
L 427.871257 181.086083 
L 428.480594 171.483358 
L 429.08993 155.912542 
L 430.308603 131.510187 
L 430.91794 127.172699 
L 431.527277 130.923343 
L 432.136613 121.770487 
L 432.74595 126.191373 
L 433.355286 133.498132 
L 433.964623 136.819469 
L 434.57396 132.813353 
L 435.183296 140.069539 
L 436.401969 126.234217 
L 437.620643 105.593532 
L 438.229979 110.912604 
L 438.839316 112.721902 
L 439.448652 117.591837 
L 440.057989 129.506556 
L 440.667326 133.266542 
L 441.276662 150.13483 
L 442.495336 171.741543 
L 443.104672 176.611533 
L 443.714009 167.655077 
L 444.323345 165.098544 
L 444.932682 168.110507 
L 445.542019 167.51124 
L 446.151355 164.055323 
L 446.760692 159.698042 
L 448.588702 171.380843 
L 449.198038 179.179795 
L 449.807375 179.390458 
L 450.416711 185.682927 
L 451.026048 184.206833 
L 451.635385 180.232111 
L 452.244721 166.507641 
L 452.854058 155.910874 
L 453.463395 141.358464 
L 454.072731 136.089399 
L 454.682068 129.507744 
L 455.291404 117.205185 
L 455.900741 118.863162 
L 456.510078 112.723079 
L 457.119414 123.005546 
L 457.728751 118.509166 
L 458.338087 125.678358 
L 458.947424 125.568182 
L 459.556761 127.858435 
L 460.166097 125.177826 
L 460.775434 113.055559 
L 461.38477 111.97447 
L 461.994107 114.342754 
L 462.603444 108.004784 
L 463.21278 107.851828 
L 463.822117 108.297048 
L 464.431453 122.294831 
L 465.04079 126.545907 
L 465.650127 132.795592 
L 466.259463 149.561842 
L 466.8688 160.463009 
L 467.478137 164.3884 
L 468.087473 161.027723 
L 468.69681 162.387033 
L 469.306146 156.903634 
L 469.915483 154.292059 
L 470.52482 158.847265 
L 471.134156 149.48114 
L 472.352829 159.618856 
L 472.962166 166.077538 
L 473.571503 176.746392 
L 474.180839 171.598485 
L 474.790176 180.404632 
L 475.399512 169.50362 
L 476.008849 170.184431 
L 476.618186 147.545374 
L 477.227522 152.134219 
L 477.836859 138.939925 
L 478.446195 118.544298 
L 479.055532 115.801557 
L 479.664869 110.019919 
L 480.274205 107.771608 
L 480.883542 117.084213 
L 481.492879 119.141257 
L 482.102215 115.806271 
L 482.711552 120.961161 
L 483.320888 115.648568 
L 483.930225 121.473655 
L 484.539562 114.834265 
L 485.148898 106.030103 
L 485.758235 92.351138 
L 486.367571 104.719068 
L 486.976908 92.238463 
L 487.586245 93.475559 
L 488.195581 102.217216 
L 488.804918 102.422985 
L 489.414254 129.602027 
L 490.023591 128.552239 
L 490.632928 147.917164 
L 491.242264 158.634499 
L 491.851601 158.94589 
L 492.460938 155.64789 
L 493.679611 143.114303 
L 494.288947 150.892946 
L 494.898284 139.05868 
L 495.507621 144.069561 
L 496.116957 145.048261 
L 496.726294 149.622791 
L 497.33563 152.22878 
L 497.944967 162.09766 
L 498.554304 165.054089 
L 499.16364 161.838285 
L 499.772977 163.340034 
L 500.382313 159.876555 
L 500.99165 143.34803 
L 501.600987 137.125377 
L 502.81966 114.308028 
L 503.428996 111.713331 
L 504.038333 100.685455 
L 505.257006 105.37105 
L 505.866343 110.60884 
L 506.47568 108.249429 
L 507.085016 115.683021 
L 507.694353 117.949331 
L 508.913026 108.016294 
L 509.522363 103.557802 
L 510.741036 83.184023 
L 511.350372 81.422063 
L 511.959709 78.14659 
L 512.569046 94.924845 
L 513.178382 96.066715 
L 513.787719 111.442357 
L 514.397055 130.699286 
L 515.006392 139.543774 
L 515.615729 132.766919 
L 516.225065 143.914581 
L 516.834402 146.728955 
L 517.443738 137.827839 
L 518.053075 143.086329 
L 518.662412 139.804349 
L 519.271748 137.200422 
L 519.881085 137.914692 
L 520.490422 140.662472 
L 521.709095 147.729871 
L 522.318431 149.279391 
L 522.927768 159.761698 
L 523.537105 155.909423 
L 524.146441 163.016566 
L 524.755778 147.592824 
L 525.365114 143.942808 
L 525.974451 126.253159 
L 526.583788 120.894908 
L 527.193124 108.39998 
L 528.411797 90.125738 
L 529.021134 93.721849 
L 529.630471 85.533723 
L 530.239807 98.960754 
L 530.849144 103.126922 
L 531.45848 105.183909 
L 532.067817 109.424779 
L 532.677154 99.012607 
L 533.28649 94.024933 
L 533.895827 95.971645 
L 534.505164 87.49887 
L 535.1145 76.927069 
L 535.723837 80.857811 
L 536.333173 78.418391 
L 536.94251 84.574011 
L 537.551847 100.877825 
L 538.161183 108.543776 
L 538.77052 121.412525 
L 539.379856 130.08415 
L 539.989193 127.84229 
L 540.59853 133.626552 
L 541.207866 135.189883 
L 541.817203 140.349769 
L 542.426539 139.367652 
L 543.035876 130.666729 
L 543.645213 135.145009 
L 544.254549 130.119687 
L 544.863886 126.385472 
L 545.473223 133.527229 
L 546.082559 137.299743 
L 547.301232 153.224844 
L 547.910569 157.376117 
L 549.129242 138.14512 
L 549.738579 133.683951 
L 550.347915 123.666168 
L 550.957252 104.565824 
L 551.566589 92.784765 
L 552.175925 93.167766 
L 552.785262 83.380103 
L 553.394598 88.07563 
L 554.003935 78.192826 
L 554.613272 88.0548 
L 555.222608 92.426843 
L 555.831945 103.008815 
L 556.441281 88.521407 
L 557.050618 87.696977 
L 557.659955 83.545683 
L 558.878628 71.15895 
L 559.487965 76.708303 
L 560.097301 64.64891 
L 560.706638 77.970768 
L 561.315974 76.451484 
L 561.925311 90.488985 
L 562.534648 101.106632 
L 563.143984 114.913889 
L 563.753321 117.343217 
L 564.362657 126.521408 
L 564.971994 127.31944 
L 565.581331 122.699542 
L 566.190667 124.47709 
L 566.800004 121.061797 
L 567.40934 114.574623 
L 568.018677 120.456805 
L 568.628014 107.465354 
L 569.23735 129.800515 
L 569.846687 132.681007 
L 570.456023 136.194746 
L 571.06536 135.562227 
L 571.674697 144.394221 
L 572.284033 141.933084 
L 572.89337 138.128707 
L 573.502707 136.994062 
L 574.112043 127.945419 
L 574.72138 116.723803 
L 575.330716 98.388037 
L 575.940053 93.720119 
L 577.158726 76.088111 
L 578.986736 79.675418 
L 579.596073 83.547437 
L 580.205409 86.213578 
L 580.814746 85.13408 
L 581.424082 83.482191 
L 582.033419 83.249396 
L 582.642756 73.109305 
L 583.252092 58.679074 
L 583.861429 55.26251 
L 584.470766 58.051006 
L 585.080102 67.810056 
L 585.689439 73.460725 
L 586.298775 86.140672 
L 586.908112 81.050926 
L 587.517449 102.437538 
L 588.736122 121.50949 
L 589.345458 120.636196 
L 589.954795 113.07033 
L 590.564132 115.77848 
L 591.173468 107.522401 
L 591.782805 115.944266 
L 592.392141 113.313328 
L 593.001478 106.81525 
L 593.610815 120.259312 
L 594.220151 119.37241 
L 594.829488 131.549382 
L 595.438824 131.211364 
L 596.048161 128.333301 
L 596.657498 147.755563 
L 597.266834 133.709649 
L 598.485508 109.988499 
L 599.094844 106.449763 
L 599.704181 92.583386 
L 600.313517 83.055507 
L 600.922854 76.794877 
L 601.532191 63.740188 
L 602.141527 75.03358 
L 602.750864 78.267811 
L 603.3602 73.357941 
L 603.969537 73.617459 
L 604.578874 71.63134 
L 605.18821 80.687204 
L 605.797547 75.01894 
L 606.406883 73.63935 
L 607.01622 55.113103 
L 607.625557 56.046362 
L 608.234893 55.942559 
L 608.84423 52.2109 
L 609.453566 53.42155 
L 610.062903 60.977937 
L 610.67224 70.519136 
L 611.890913 92.04762 
L 613.109586 114.28645 
L 613.718923 107.01636 
L 614.328259 101.266943 
L 614.937596 109.037713 
L 615.546933 102.48462 
L 616.156269 110.439992 
L 616.765606 98.71088 
L 617.374942 97.844251 
L 617.984279 107.995361 
L 618.593616 115.927286 
L 619.202952 122.327488 
L 619.812289 119.164774 
L 620.421625 126.858252 
L 621.030962 125.692271 
L 621.640299 121.358204 
L 622.249635 113.994219 
L 622.858972 110.516812 
L 623.468309 95.588478 
L 624.686982 72.894221 
L 625.296318 64.993283 
L 626.514992 62.70986 
L 627.124328 71.718048 
L 627.733665 72.939482 
L 628.343001 79.032632 
L 628.952338 74.867394 
L 629.561675 71.568966 
L 630.171011 73.654407 
L 630.780348 60.41997 
L 631.389684 50.741244 
L 631.999021 53.624637 
L 632.608358 48.283069 
L 633.217694 46.231454 
L 634.436367 55.768972 
L 635.045704 67.712284 
L 635.655041 82.705026 
L 636.264377 89.689176 
L 636.873714 95.361996 
L 637.483051 97.428748 
L 638.092387 109.995694 
L 638.701724 104.30421 
L 639.31106 100.755653 
L 639.920397 103.869439 
L 640.529734 92.800761 
L 641.13907 89.864829 
L 641.748407 94.124092 
L 642.357743 103.290856 
L 642.96708 97.216001 
L 643.576417 104.616354 
L 644.185753 107.107897 
L 644.79509 122.458614 
L 645.404426 121.72145 
L 646.013763 121.240194 
L 646.6231 111.492847 
L 647.232436 95.060445 
L 647.841773 88.697039 
L 648.451109 78.380872 
L 649.060446 63.380815 
L 649.669783 57.032063 
L 650.279119 45.718585 
L 651.497793 50.012596 
L 652.107129 66.513977 
L 652.716466 58.330532 
L 653.325802 62.477102 
L 653.935139 67.874083 
L 654.544476 59.075427 
L 655.153812 58.528505 
L 655.763149 41.84338 
L 656.372485 38.479772 
L 656.981822 40.428763 
L 657.591159 44.452695 
L 658.200495 36.76108 
L 658.809832 44.537163 
L 659.419168 60.046804 
L 660.028505 67.232566 
L 660.637842 83.719192 
L 661.247178 84.814576 
L 661.856515 86.527955 
L 662.465852 88.884893 
L 663.075188 100.213496 
L 663.684525 89.961961 
L 664.293861 91.301283 
L 664.903198 88.083529 
L 665.512535 80.292243 
L 666.121871 81.236482 
L 666.731208 93.769473 
L 667.340544 99.136946 
L 667.949881 103.241454 
L 668.559218 115.100268 
L 669.168554 113.412519 
L 669.777891 110.990025 
L 670.387227 100.796728 
L 670.996564 106.224336 
L 672.824574 63.699785 
L 672.824574 63.699785 
" style="fill:none;stroke:#4c72b0;stroke-linecap:round;stroke-width:1.5;"/>
   </g>
   <g id="patch_3">
    <path d="M 33.660938 348.095625 
L 33.660938 21.935625 
" style="fill:none;stroke:#ffffff;stroke-linecap:square;stroke-linejoin:miter;stroke-width:0.8;"/>
   </g>
   <g id="patch_4">
    <path d="M 703.260938 348.095625 
L 703.260938 21.935625 
" style="fill:none;stroke:#ffffff;stroke-linecap:square;stroke-linejoin:miter;stroke-width:0.8;"/>
   </g>
   <g id="patch_5">
    <path d="M 33.660938 348.095625 
L 703.260937 348.095625 
" style="fill:none;stroke:#ffffff;stroke-linecap:square;stroke-linejoin:miter;stroke-width:0.8;"/>
   </g>
   <g id="patch_6">
    <path d="M 33.660938 21.935625 
L 703.260937 21.935625 
" style="fill:none;stroke:#ffffff;stroke-linecap:square;stroke-linejoin:miter;stroke-width:0.8;"/>
   </g>
   <g id="text_16">
    <!-- Sample Data 4 -->
    <defs>
     <path d="M 4.5 23 
L 13.421875 23.78125 
Q 14.0625 18.40625 16.375 14.96875 
Q 18.703125 11.53125 23.578125 9.40625 
Q 28.46875 7.28125 34.578125 7.28125 
Q 39.984375 7.28125 44.140625 8.890625 
Q 48.296875 10.5 50.3125 13.296875 
Q 52.34375 16.109375 52.34375 19.4375 
Q 52.34375 22.796875 50.390625 25.3125 
Q 48.4375 27.828125 43.953125 29.546875 
Q 41.0625 30.671875 31.203125 33.03125 
Q 21.34375 35.40625 17.390625 37.5 
Q 12.25 40.1875 9.734375 44.15625 
Q 7.234375 48.140625 7.234375 53.078125 
Q 7.234375 58.5 10.296875 63.203125 
Q 13.375 67.921875 19.28125 70.359375 
Q 25.203125 72.796875 32.421875 72.796875 
Q 40.375 72.796875 46.453125 70.234375 
Q 52.546875 67.671875 55.8125 62.6875 
Q 59.078125 57.71875 59.328125 51.421875 
L 50.25 50.734375 
Q 49.515625 57.515625 45.28125 60.984375 
Q 41.0625 64.453125 32.8125 64.453125 
Q 24.21875 64.453125 20.28125 61.296875 
Q 16.359375 58.15625 16.359375 53.71875 
Q 16.359375 49.859375 19.140625 47.359375 
Q 21.875 44.875 33.421875 42.265625 
Q 44.96875 39.65625 49.265625 37.703125 
Q 55.515625 34.8125 58.484375 30.390625 
Q 61.46875 25.984375 61.46875 20.21875 
Q 61.46875 14.5 58.203125 9.4375 
Q 54.9375 4.390625 48.796875 1.578125 
Q 42.671875 -1.21875 35.015625 -1.21875 
Q 25.296875 -1.21875 18.71875 1.609375 
Q 12.15625 4.4375 8.421875 10.125 
Q 4.6875 15.828125 4.5 23 
z
" id="ArialMT-83"/>
     <path d="M 40.4375 6.390625 
Q 35.546875 2.25 31.03125 0.53125 
Q 26.515625 -1.171875 21.34375 -1.171875 
Q 12.796875 -1.171875 8.203125 3 
Q 3.609375 7.171875 3.609375 13.671875 
Q 3.609375 17.484375 5.34375 20.625 
Q 7.078125 23.78125 9.890625 25.6875 
Q 12.703125 27.59375 16.21875 28.5625 
Q 18.796875 29.25 24.03125 29.890625 
Q 34.671875 31.15625 39.703125 32.90625 
Q 39.75 34.71875 39.75 35.203125 
Q 39.75 40.578125 37.25 42.78125 
Q 33.890625 45.75 27.25 45.75 
Q 21.046875 45.75 18.09375 43.578125 
Q 15.140625 41.40625 13.71875 35.890625 
L 5.125 37.0625 
Q 6.296875 42.578125 8.984375 45.96875 
Q 11.671875 49.359375 16.75 51.1875 
Q 21.828125 53.03125 28.515625 53.03125 
Q 35.15625 53.03125 39.296875 51.46875 
Q 43.453125 49.90625 45.40625 47.53125 
Q 47.359375 45.171875 48.140625 41.546875 
Q 48.578125 39.3125 48.578125 33.453125 
L 48.578125 21.734375 
Q 48.578125 9.46875 49.140625 6.21875 
Q 49.703125 2.984375 51.375 0 
L 42.1875 0 
Q 40.828125 2.734375 40.4375 6.390625 
z
M 39.703125 26.03125 
Q 34.90625 24.078125 25.34375 22.703125 
Q 19.921875 21.921875 17.671875 20.9375 
Q 15.4375 19.96875 14.203125 18.09375 
Q 12.984375 16.21875 12.984375 13.921875 
Q 12.984375 10.40625 15.640625 8.0625 
Q 18.3125 5.71875 23.4375 5.71875 
Q 28.515625 5.71875 32.46875 7.9375 
Q 36.421875 10.15625 38.28125 14.015625 
Q 39.703125 17 39.703125 22.796875 
z
" id="ArialMT-97"/>
     <path d="M 6.59375 0 
L 6.59375 51.859375 
L 14.453125 51.859375 
L 14.453125 44.578125 
Q 16.890625 48.390625 20.9375 50.703125 
Q 25 53.03125 30.171875 53.03125 
Q 35.9375 53.03125 39.625 50.640625 
Q 43.3125 48.25 44.828125 43.953125 
Q 50.984375 53.03125 60.84375 53.03125 
Q 68.5625 53.03125 72.703125 48.75 
Q 76.859375 44.484375 76.859375 35.59375 
L 76.859375 0 
L 68.109375 0 
L 68.109375 32.671875 
Q 68.109375 37.9375 67.25 40.25 
Q 66.40625 42.578125 64.15625 43.984375 
Q 61.921875 45.40625 58.890625 45.40625 
Q 53.421875 45.40625 49.796875 41.765625 
Q 46.1875 38.140625 46.1875 30.125 
L 46.1875 0 
L 37.40625 0 
L 37.40625 33.6875 
Q 37.40625 39.546875 35.25 42.46875 
Q 33.109375 45.40625 28.21875 45.40625 
Q 24.515625 45.40625 21.359375 43.453125 
Q 18.21875 41.5 16.796875 37.734375 
Q 15.375 33.984375 15.375 26.90625 
L 15.375 0 
z
" id="ArialMT-109"/>
     <path d="M 6.59375 -19.875 
L 6.59375 51.859375 
L 14.59375 51.859375 
L 14.59375 45.125 
Q 17.4375 49.078125 21 51.046875 
Q 24.5625 53.03125 29.640625 53.03125 
Q 36.28125 53.03125 41.359375 49.609375 
Q 46.4375 46.1875 49.015625 39.953125 
Q 51.609375 33.734375 51.609375 26.3125 
Q 51.609375 18.359375 48.75 11.984375 
Q 45.90625 5.609375 40.453125 2.21875 
Q 35.015625 -1.171875 29 -1.171875 
Q 24.609375 -1.171875 21.109375 0.6875 
Q 17.625 2.546875 15.375 5.375 
L 15.375 -19.875 
z
M 14.546875 25.640625 
Q 14.546875 15.625 18.59375 10.84375 
Q 22.65625 6.0625 28.421875 6.0625 
Q 34.28125 6.0625 38.453125 11.015625 
Q 42.625 15.96875 42.625 26.375 
Q 42.625 36.28125 38.546875 41.203125 
Q 34.46875 46.140625 28.8125 46.140625 
Q 23.1875 46.140625 18.859375 40.890625 
Q 14.546875 35.640625 14.546875 25.640625 
z
" id="ArialMT-112"/>
     <path d="M 6.390625 0 
L 6.390625 71.578125 
L 15.1875 71.578125 
L 15.1875 0 
z
" id="ArialMT-108"/>
     <path d="M 42.09375 16.703125 
L 51.171875 15.578125 
Q 49.03125 7.625 43.21875 3.21875 
Q 37.40625 -1.171875 28.375 -1.171875 
Q 17 -1.171875 10.328125 5.828125 
Q 3.65625 12.84375 3.65625 25.484375 
Q 3.65625 38.578125 10.390625 45.796875 
Q 17.140625 53.03125 27.875 53.03125 
Q 38.28125 53.03125 44.875 45.953125 
Q 51.46875 38.875 51.46875 26.03125 
Q 51.46875 25.25 51.421875 23.6875 
L 12.75 23.6875 
Q 13.234375 15.140625 17.578125 10.59375 
Q 21.921875 6.0625 28.421875 6.0625 
Q 33.25 6.0625 36.671875 8.59375 
Q 40.09375 11.140625 42.09375 16.703125 
z
M 13.234375 30.90625 
L 42.1875 30.90625 
Q 41.609375 37.453125 38.875 40.71875 
Q 34.671875 45.796875 27.984375 45.796875 
Q 21.921875 45.796875 17.796875 41.75 
Q 13.671875 37.703125 13.234375 30.90625 
z
" id="ArialMT-101"/>
     <path id="ArialMT-32"/>
     <path d="M 7.71875 0 
L 7.71875 71.578125 
L 32.375 71.578125 
Q 40.71875 71.578125 45.125 70.5625 
Q 51.265625 69.140625 55.609375 65.4375 
Q 61.28125 60.640625 64.078125 53.1875 
Q 66.890625 45.75 66.890625 36.1875 
Q 66.890625 28.03125 64.984375 21.734375 
Q 63.09375 15.4375 60.109375 11.296875 
Q 57.125 7.171875 53.578125 4.796875 
Q 50.046875 2.4375 45.046875 1.21875 
Q 40.046875 0 33.546875 0 
z
M 17.1875 8.453125 
L 32.46875 8.453125 
Q 39.546875 8.453125 43.578125 9.765625 
Q 47.609375 11.078125 50 13.484375 
Q 53.375 16.84375 55.25 22.53125 
Q 57.125 28.21875 57.125 36.328125 
Q 57.125 47.5625 53.4375 53.59375 
Q 49.75 59.625 44.484375 61.671875 
Q 40.671875 63.140625 32.234375 63.140625 
L 17.1875 63.140625 
z
" id="ArialMT-68"/>
    </defs>
    <g style="fill:#262626;" transform="translate(328.774688 15.935625)scale(0.12 -0.12)">
     <use xlink:href="#ArialMT-83"/>
     <use x="66.699219" xlink:href="#ArialMT-97"/>
     <use x="122.314453" xlink:href="#ArialMT-109"/>
     <use x="205.615234" xlink:href="#ArialMT-112"/>
     <use x="261.230469" xlink:href="#ArialMT-108"/>
     <use x="283.447266" xlink:href="#ArialMT-101"/>
     <use x="339.0625" xlink:href="#ArialMT-32"/>
     <use x="366.845703" xlink:href="#ArialMT-68"/>
     <use x="439.0625" xlink:href="#ArialMT-97"/>
     <use x="494.677734" xlink:href="#ArialMT-116"/>
     <use x="522.460938" xlink:href="#ArialMT-97"/>
     <use x="578.076172" xlink:href="#ArialMT-32"/>
     <use x="605.859375" xlink:href="#ArialMT-52"/>
    </g>
   </g>
   <g id="legend_1">
    <g id="patch_7">
     <path d="M 710.260938 193.646875 
L 752.821875 193.646875 
Q 754.821875 193.646875 754.821875 191.646875 
L 754.821875 178.384375 
Q 754.821875 176.384375 752.821875 176.384375 
L 710.260938 176.384375 
Q 708.260938 176.384375 708.260938 178.384375 
L 708.260938 191.646875 
Q 708.260938 193.646875 710.260938 193.646875 
z
" style="fill:#e6e6e6;opacity:0.8;stroke:#cccccc;stroke-linejoin:miter;"/>
    </g>
    <g id="line2d_16">
     <path d="M 712.260938 184.042188 
L 732.260938 184.042188 
" style="fill:none;stroke:#4c72b0;stroke-linecap:round;stroke-width:1.5;"/>
    </g>
    <g id="line2d_17"/>
    <g id="text_17">
     <!-- y4 -->
     <defs>
      <path d="M 6.203125 -19.96875 
L 5.21875 -11.71875 
Q 8.109375 -12.5 10.25 -12.5 
Q 13.1875 -12.5 14.9375 -11.515625 
Q 16.703125 -10.546875 17.828125 -8.796875 
Q 18.65625 -7.46875 20.515625 -2.25 
Q 20.75 -1.515625 21.296875 -0.09375 
L 1.609375 51.859375 
L 11.078125 51.859375 
L 21.875 21.828125 
Q 23.96875 16.109375 25.640625 9.8125 
Q 27.15625 15.875 29.25 21.625 
L 40.328125 51.859375 
L 49.125 51.859375 
L 29.390625 -0.875 
Q 26.21875 -9.421875 24.46875 -12.640625 
Q 22.125 -17 19.09375 -19.015625 
Q 16.0625 -21.046875 11.859375 -21.046875 
Q 9.328125 -21.046875 6.203125 -19.96875 
z
" id="ArialMT-121"/>
     </defs>
     <g style="fill:#262626;" transform="translate(740.260938 187.542188)scale(0.1 -0.1)">
      <use xlink:href="#ArialMT-121"/>
      <use x="50" xlink:href="#ArialMT-52"/>
     </g>
    </g>
   </g>
  </g>
 </g>
 <defs>
  <clipPath id="p9af3981238">
   <rect height="326.16" width="669.6" x="33.660938" y="21.935625"/>
  </clipPath>
 </defs>
</svg>
