<?xml version="1.0" encoding="utf-8" standalone="no"?>
<!DOCTYPE svg PUBLIC "-//W3C//DTD SVG 1.1//EN"
  "http://www.w3.org/Graphics/SVG/1.1/DTD/svg11.dtd">
<!-- Created with matplotlib (https://matplotlib.org/) -->
<svg height="384.58625pt" version="1.1" viewBox="0 0 762.301563 384.58625" width="762.301563pt" xmlns="http://www.w3.org/2000/svg" xmlns:xlink="http://www.w3.org/1999/xlink">
 <defs>
  <style type="text/css">
*{stroke-linecap:butt;stroke-linejoin:round;}
  </style>
 </defs>
 <g id="figure_1">
  <g id="patch_1">
   <path d="M 0 384.58625 
L 762.301563 384.58625 
L 762.301563 0 
L 0 0 
z
" style="fill:none;"/>
  </g>
  <g id="axes_1">
   <g id="patch_2">
    <path d="M 33.940625 348.095625 
L 703.540625 348.095625 
L 703.540625 21.935625 
L 33.940625 21.935625 
z
" style="fill:#e6e6e6;"/>
   </g>
   <g id="matplotlib.axis_1">
    <g id="xtick_1">
     <g id="line2d_1">
      <path clip-path="url(#pbfbc370041)" d="M 64.376989 348.095625 
L 64.376989 21.935625 
" style="fill:none;stroke:#cccccc;stroke-linecap:round;stroke-width:0.8;"/>
     </g>
     <g id="text_1">
      <!-- 0 -->
      <defs>
       <path d="M 4.15625 35.296875 
Q 4.15625 48 6.765625 55.734375 
Q 9.375 63.484375 14.515625 67.671875 
Q 19.671875 71.875 27.484375 71.875 
Q 33.25 71.875 37.59375 69.546875 
Q 41.9375 67.234375 44.765625 62.859375 
Q 47.609375 58.5 49.21875 52.21875 
Q 50.828125 45.953125 50.828125 35.296875 
Q 50.828125 22.703125 48.234375 14.96875 
Q 45.65625 7.234375 40.5 3 
Q 35.359375 -1.21875 27.484375 -1.21875 
Q 17.140625 -1.21875 11.234375 6.203125 
Q 4.15625 15.140625 4.15625 35.296875 
z
M 13.1875 35.296875 
Q 13.1875 17.671875 17.3125 11.828125 
Q 21.4375 6 27.484375 6 
Q 33.546875 6 37.671875 11.859375 
Q 41.796875 17.71875 41.796875 35.296875 
Q 41.796875 52.984375 37.671875 58.78125 
Q 33.546875 64.59375 27.390625 64.59375 
Q 21.34375 64.59375 17.71875 59.46875 
Q 13.1875 52.9375 13.1875 35.296875 
z
" id="ArialMT-48"/>
      </defs>
      <g style="fill:#262626;" transform="translate(61.59652 362.253438)scale(0.1 -0.1)">
       <use xlink:href="#ArialMT-48"/>
      </g>
     </g>
    </g>
    <g id="xtick_2">
     <g id="line2d_2">
      <path clip-path="url(#pbfbc370041)" d="M 186.244311 348.095625 
L 186.244311 21.935625 
" style="fill:none;stroke:#cccccc;stroke-linecap:round;stroke-width:0.8;"/>
     </g>
     <g id="text_2">
      <!-- 200 -->
      <defs>
       <path d="M 50.34375 8.453125 
L 50.34375 0 
L 3.03125 0 
Q 2.9375 3.171875 4.046875 6.109375 
Q 5.859375 10.9375 9.828125 15.625 
Q 13.8125 20.3125 21.34375 26.46875 
Q 33.015625 36.03125 37.109375 41.625 
Q 41.21875 47.21875 41.21875 52.203125 
Q 41.21875 57.421875 37.46875 61 
Q 33.734375 64.59375 27.734375 64.59375 
Q 21.390625 64.59375 17.578125 60.78125 
Q 13.765625 56.984375 13.71875 50.25 
L 4.6875 51.171875 
Q 5.609375 61.28125 11.65625 66.578125 
Q 17.71875 71.875 27.9375 71.875 
Q 38.234375 71.875 44.234375 66.15625 
Q 50.25 60.453125 50.25 52 
Q 50.25 47.703125 48.484375 43.546875 
Q 46.734375 39.40625 42.65625 34.8125 
Q 38.578125 30.21875 29.109375 22.21875 
Q 21.1875 15.578125 18.9375 13.203125 
Q 16.703125 10.84375 15.234375 8.453125 
z
" id="ArialMT-50"/>
      </defs>
      <g style="fill:#262626;" transform="translate(177.902904 362.253438)scale(0.1 -0.1)">
       <use xlink:href="#ArialMT-50"/>
       <use x="55.615234" xlink:href="#ArialMT-48"/>
       <use x="111.230469" xlink:href="#ArialMT-48"/>
      </g>
     </g>
    </g>
    <g id="xtick_3">
     <g id="line2d_3">
      <path clip-path="url(#pbfbc370041)" d="M 308.111632 348.095625 
L 308.111632 21.935625 
" style="fill:none;stroke:#cccccc;stroke-linecap:round;stroke-width:0.8;"/>
     </g>
     <g id="text_3">
      <!-- 400 -->
      <defs>
       <path d="M 32.328125 0 
L 32.328125 17.140625 
L 1.265625 17.140625 
L 1.265625 25.203125 
L 33.9375 71.578125 
L 41.109375 71.578125 
L 41.109375 25.203125 
L 50.78125 25.203125 
L 50.78125 17.140625 
L 41.109375 17.140625 
L 41.109375 0 
z
M 32.328125 25.203125 
L 32.328125 57.46875 
L 9.90625 25.203125 
z
" id="ArialMT-52"/>
      </defs>
      <g style="fill:#262626;" transform="translate(299.770226 362.253438)scale(0.1 -0.1)">
       <use xlink:href="#ArialMT-52"/>
       <use x="55.615234" xlink:href="#ArialMT-48"/>
       <use x="111.230469" xlink:href="#ArialMT-48"/>
      </g>
     </g>
    </g>
    <g id="xtick_4">
     <g id="line2d_4">
      <path clip-path="url(#pbfbc370041)" d="M 429.978954 348.095625 
L 429.978954 21.935625 
" style="fill:none;stroke:#cccccc;stroke-linecap:round;stroke-width:0.8;"/>
     </g>
     <g id="text_4">
      <!-- 600 -->
      <defs>
       <path d="M 49.75 54.046875 
L 41.015625 53.375 
Q 39.84375 58.546875 37.703125 60.890625 
Q 34.125 64.65625 28.90625 64.65625 
Q 24.703125 64.65625 21.53125 62.3125 
Q 17.390625 59.28125 14.984375 53.46875 
Q 12.59375 47.65625 12.5 36.921875 
Q 15.671875 41.75 20.265625 44.09375 
Q 24.859375 46.4375 29.890625 46.4375 
Q 38.671875 46.4375 44.84375 39.96875 
Q 51.03125 33.5 51.03125 23.25 
Q 51.03125 16.5 48.125 10.71875 
Q 45.21875 4.9375 40.140625 1.859375 
Q 35.0625 -1.21875 28.609375 -1.21875 
Q 17.625 -1.21875 10.6875 6.859375 
Q 3.765625 14.9375 3.765625 33.5 
Q 3.765625 54.25 11.421875 63.671875 
Q 18.109375 71.875 29.4375 71.875 
Q 37.890625 71.875 43.28125 67.140625 
Q 48.6875 62.40625 49.75 54.046875 
z
M 13.875 23.1875 
Q 13.875 18.65625 15.796875 14.5 
Q 17.71875 10.359375 21.1875 8.171875 
Q 24.65625 6 28.46875 6 
Q 34.03125 6 38.03125 10.484375 
Q 42.046875 14.984375 42.046875 22.703125 
Q 42.046875 30.125 38.078125 34.390625 
Q 34.125 38.671875 28.125 38.671875 
Q 22.171875 38.671875 18.015625 34.390625 
Q 13.875 30.125 13.875 23.1875 
z
" id="ArialMT-54"/>
      </defs>
      <g style="fill:#262626;" transform="translate(421.637548 362.253438)scale(0.1 -0.1)">
       <use xlink:href="#ArialMT-54"/>
       <use x="55.615234" xlink:href="#ArialMT-48"/>
       <use x="111.230469" xlink:href="#ArialMT-48"/>
      </g>
     </g>
    </g>
    <g id="xtick_5">
     <g id="line2d_5">
      <path clip-path="url(#pbfbc370041)" d="M 551.846276 348.095625 
L 551.846276 21.935625 
" style="fill:none;stroke:#cccccc;stroke-linecap:round;stroke-width:0.8;"/>
     </g>
     <g id="text_5">
      <!-- 800 -->
      <defs>
       <path d="M 17.671875 38.8125 
Q 12.203125 40.828125 9.5625 44.53125 
Q 6.9375 48.25 6.9375 53.421875 
Q 6.9375 61.234375 12.546875 66.546875 
Q 18.171875 71.875 27.484375 71.875 
Q 36.859375 71.875 42.578125 66.421875 
Q 48.296875 60.984375 48.296875 53.171875 
Q 48.296875 48.1875 45.671875 44.5 
Q 43.0625 40.828125 37.75 38.8125 
Q 44.34375 36.671875 47.78125 31.875 
Q 51.21875 27.09375 51.21875 20.453125 
Q 51.21875 11.28125 44.71875 5.03125 
Q 38.234375 -1.21875 27.640625 -1.21875 
Q 17.046875 -1.21875 10.546875 5.046875 
Q 4.046875 11.328125 4.046875 20.703125 
Q 4.046875 27.6875 7.59375 32.390625 
Q 11.140625 37.109375 17.671875 38.8125 
z
M 15.921875 53.71875 
Q 15.921875 48.640625 19.1875 45.40625 
Q 22.46875 42.1875 27.6875 42.1875 
Q 32.765625 42.1875 36.015625 45.375 
Q 39.265625 48.578125 39.265625 53.21875 
Q 39.265625 58.0625 35.90625 61.359375 
Q 32.5625 64.65625 27.59375 64.65625 
Q 22.5625 64.65625 19.234375 61.421875 
Q 15.921875 58.203125 15.921875 53.71875 
z
M 13.09375 20.65625 
Q 13.09375 16.890625 14.875 13.375 
Q 16.65625 9.859375 20.171875 7.921875 
Q 23.6875 6 27.734375 6 
Q 34.03125 6 38.125 10.046875 
Q 42.234375 14.109375 42.234375 20.359375 
Q 42.234375 26.703125 38.015625 30.859375 
Q 33.796875 35.015625 27.4375 35.015625 
Q 21.234375 35.015625 17.15625 30.90625 
Q 13.09375 26.8125 13.09375 20.65625 
z
" id="ArialMT-56"/>
      </defs>
      <g style="fill:#262626;" transform="translate(543.50487 362.253438)scale(0.1 -0.1)">
       <use xlink:href="#ArialMT-56"/>
       <use x="55.615234" xlink:href="#ArialMT-48"/>
       <use x="111.230469" xlink:href="#ArialMT-48"/>
      </g>
     </g>
    </g>
    <g id="xtick_6">
     <g id="line2d_6">
      <path clip-path="url(#pbfbc370041)" d="M 673.713598 348.095625 
L 673.713598 21.935625 
" style="fill:none;stroke:#cccccc;stroke-linecap:round;stroke-width:0.8;"/>
     </g>
     <g id="text_6">
      <!-- 1000 -->
      <defs>
       <path d="M 37.25 0 
L 28.46875 0 
L 28.46875 56 
Q 25.296875 52.984375 20.140625 49.953125 
Q 14.984375 46.921875 10.890625 45.40625 
L 10.890625 53.90625 
Q 18.265625 57.375 23.78125 62.296875 
Q 29.296875 67.234375 31.59375 71.875 
L 37.25 71.875 
z
" id="ArialMT-49"/>
      </defs>
      <g style="fill:#262626;" transform="translate(662.591723 362.253438)scale(0.1 -0.1)">
       <use xlink:href="#ArialMT-49"/>
       <use x="55.615234" xlink:href="#ArialMT-48"/>
       <use x="111.230469" xlink:href="#ArialMT-48"/>
       <use x="166.845703" xlink:href="#ArialMT-48"/>
      </g>
     </g>
    </g>
    <g id="text_7">
     <!-- t -->
     <defs>
      <path d="M 25.78125 7.859375 
L 27.046875 0.09375 
Q 23.34375 -0.6875 20.40625 -0.6875 
Q 15.625 -0.6875 12.984375 0.828125 
Q 10.359375 2.34375 9.28125 4.8125 
Q 8.203125 7.28125 8.203125 15.1875 
L 8.203125 45.015625 
L 1.765625 45.015625 
L 1.765625 51.859375 
L 8.203125 51.859375 
L 8.203125 64.703125 
L 16.9375 69.96875 
L 16.9375 51.859375 
L 25.78125 51.859375 
L 25.78125 45.015625 
L 16.9375 45.015625 
L 16.9375 14.703125 
Q 16.9375 10.9375 17.40625 9.859375 
Q 17.875 8.796875 18.921875 8.15625 
Q 19.96875 7.515625 21.921875 7.515625 
Q 23.390625 7.515625 25.78125 7.859375 
z
" id="ArialMT-116"/>
     </defs>
     <g style="fill:#262626;" transform="translate(367.351563 375.39875)scale(0.1 -0.1)">
      <use xlink:href="#ArialMT-116"/>
     </g>
    </g>
   </g>
   <g id="matplotlib.axis_2">
    <g id="ytick_1">
     <g id="line2d_7">
      <path clip-path="url(#pbfbc370041)" d="M 33.940625 333.27017 
L 703.540625 333.27017 
" style="fill:none;stroke:#cccccc;stroke-linecap:round;stroke-width:0.8;"/>
     </g>
     <g id="text_8">
      <!-- −2.0 -->
      <defs>
       <path d="M 52.828125 31.203125 
L 5.5625 31.203125 
L 5.5625 39.40625 
L 52.828125 39.40625 
z
" id="ArialMT-8722"/>
       <path d="M 9.078125 0 
L 9.078125 10.015625 
L 19.09375 10.015625 
L 19.09375 0 
z
" id="ArialMT-46"/>
      </defs>
      <g style="fill:#262626;" transform="translate(7.2 336.849077)scale(0.1 -0.1)">
       <use xlink:href="#ArialMT-8722"/>
       <use x="58.398438" xlink:href="#ArialMT-50"/>
       <use x="114.013672" xlink:href="#ArialMT-46"/>
       <use x="141.796875" xlink:href="#ArialMT-48"/>
      </g>
     </g>
    </g>
    <g id="ytick_2">
     <g id="line2d_8">
      <path clip-path="url(#pbfbc370041)" d="M 33.940625 296.206534 
L 703.540625 296.206534 
" style="fill:none;stroke:#cccccc;stroke-linecap:round;stroke-width:0.8;"/>
     </g>
     <g id="text_9">
      <!-- −1.5 -->
      <defs>
       <path d="M 4.15625 18.75 
L 13.375 19.53125 
Q 14.40625 12.796875 18.140625 9.390625 
Q 21.875 6 27.15625 6 
Q 33.5 6 37.890625 10.78125 
Q 42.28125 15.578125 42.28125 23.484375 
Q 42.28125 31 38.0625 35.34375 
Q 33.84375 39.703125 27 39.703125 
Q 22.75 39.703125 19.328125 37.765625 
Q 15.921875 35.84375 13.96875 32.765625 
L 5.71875 33.84375 
L 12.640625 70.609375 
L 48.25 70.609375 
L 48.25 62.203125 
L 19.671875 62.203125 
L 15.828125 42.96875 
Q 22.265625 47.46875 29.34375 47.46875 
Q 38.71875 47.46875 45.15625 40.96875 
Q 51.609375 34.46875 51.609375 24.265625 
Q 51.609375 14.546875 45.953125 7.46875 
Q 39.0625 -1.21875 27.15625 -1.21875 
Q 17.390625 -1.21875 11.203125 4.25 
Q 5.03125 9.71875 4.15625 18.75 
z
" id="ArialMT-53"/>
      </defs>
      <g style="fill:#262626;" transform="translate(7.2 299.78544)scale(0.1 -0.1)">
       <use xlink:href="#ArialMT-8722"/>
       <use x="58.398438" xlink:href="#ArialMT-49"/>
       <use x="114.013672" xlink:href="#ArialMT-46"/>
       <use x="141.796875" xlink:href="#ArialMT-53"/>
      </g>
     </g>
    </g>
    <g id="ytick_3">
     <g id="line2d_9">
      <path clip-path="url(#pbfbc370041)" d="M 33.940625 259.142898 
L 703.540625 259.142898 
" style="fill:none;stroke:#cccccc;stroke-linecap:round;stroke-width:0.8;"/>
     </g>
     <g id="text_10">
      <!-- −1.0 -->
      <g style="fill:#262626;" transform="translate(7.2 262.721804)scale(0.1 -0.1)">
       <use xlink:href="#ArialMT-8722"/>
       <use x="58.398438" xlink:href="#ArialMT-49"/>
       <use x="114.013672" xlink:href="#ArialMT-46"/>
       <use x="141.796875" xlink:href="#ArialMT-48"/>
      </g>
     </g>
    </g>
    <g id="ytick_4">
     <g id="line2d_10">
      <path clip-path="url(#pbfbc370041)" d="M 33.940625 222.079261 
L 703.540625 222.079261 
" style="fill:none;stroke:#cccccc;stroke-linecap:round;stroke-width:0.8;"/>
     </g>
     <g id="text_11">
      <!-- −0.5 -->
      <g style="fill:#262626;" transform="translate(7.2 225.658168)scale(0.1 -0.1)">
       <use xlink:href="#ArialMT-8722"/>
       <use x="58.398438" xlink:href="#ArialMT-48"/>
       <use x="114.013672" xlink:href="#ArialMT-46"/>
       <use x="141.796875" xlink:href="#ArialMT-53"/>
      </g>
     </g>
    </g>
    <g id="ytick_5">
     <g id="line2d_11">
      <path clip-path="url(#pbfbc370041)" d="M 33.940625 185.015625 
L 703.540625 185.015625 
" style="fill:none;stroke:#cccccc;stroke-linecap:round;stroke-width:0.8;"/>
     </g>
     <g id="text_12">
      <!-- 0.0 -->
      <g style="fill:#262626;" transform="translate(13.040625 188.594531)scale(0.1 -0.1)">
       <use xlink:href="#ArialMT-48"/>
       <use x="55.615234" xlink:href="#ArialMT-46"/>
       <use x="83.398438" xlink:href="#ArialMT-48"/>
      </g>
     </g>
    </g>
    <g id="ytick_6">
     <g id="line2d_12">
      <path clip-path="url(#pbfbc370041)" d="M 33.940625 147.951989 
L 703.540625 147.951989 
" style="fill:none;stroke:#cccccc;stroke-linecap:round;stroke-width:0.8;"/>
     </g>
     <g id="text_13">
      <!-- 0.5 -->
      <g style="fill:#262626;" transform="translate(13.040625 151.530895)scale(0.1 -0.1)">
       <use xlink:href="#ArialMT-48"/>
       <use x="55.615234" xlink:href="#ArialMT-46"/>
       <use x="83.398438" xlink:href="#ArialMT-53"/>
      </g>
     </g>
    </g>
    <g id="ytick_7">
     <g id="line2d_13">
      <path clip-path="url(#pbfbc370041)" d="M 33.940625 110.888352 
L 703.540625 110.888352 
" style="fill:none;stroke:#cccccc;stroke-linecap:round;stroke-width:0.8;"/>
     </g>
     <g id="text_14">
      <!-- 1.0 -->
      <g style="fill:#262626;" transform="translate(13.040625 114.467259)scale(0.1 -0.1)">
       <use xlink:href="#ArialMT-49"/>
       <use x="55.615234" xlink:href="#ArialMT-46"/>
       <use x="83.398438" xlink:href="#ArialMT-48"/>
      </g>
     </g>
    </g>
    <g id="ytick_8">
     <g id="line2d_14">
      <path clip-path="url(#pbfbc370041)" d="M 33.940625 73.824716 
L 703.540625 73.824716 
" style="fill:none;stroke:#cccccc;stroke-linecap:round;stroke-width:0.8;"/>
     </g>
     <g id="text_15">
      <!-- 1.5 -->
      <g style="fill:#262626;" transform="translate(13.040625 77.403622)scale(0.1 -0.1)">
       <use xlink:href="#ArialMT-49"/>
       <use x="55.615234" xlink:href="#ArialMT-46"/>
       <use x="83.398438" xlink:href="#ArialMT-53"/>
      </g>
     </g>
    </g>
    <g id="ytick_9">
     <g id="line2d_15">
      <path clip-path="url(#pbfbc370041)" d="M 33.940625 36.76108 
L 703.540625 36.76108 
" style="fill:none;stroke:#cccccc;stroke-linecap:round;stroke-width:0.8;"/>
     </g>
     <g id="text_16">
      <!-- 2.0 -->
      <g style="fill:#262626;" transform="translate(13.040625 40.339986)scale(0.1 -0.1)">
       <use xlink:href="#ArialMT-50"/>
       <use x="55.615234" xlink:href="#ArialMT-46"/>
       <use x="83.398438" xlink:href="#ArialMT-48"/>
      </g>
     </g>
    </g>
   </g>
   <g id="line2d_16">
    <path clip-path="url(#pbfbc370041)" d="M 64.376989 185.015625 
L 66.204998 117.70947 
L 67.423672 80.183831 
L 68.033008 65.075178 
L 68.642345 52.919858 
L 69.251682 44.017173 
L 69.861018 38.586339 
L 70.470355 36.76108 
L 71.079691 38.586339 
L 71.689028 44.017173 
L 72.298365 52.919858 
L 72.907701 65.075178 
L 74.126374 97.87379 
L 75.345048 139.202451 
L 79.001067 272.15746 
L 80.21974 304.956072 
L 80.829077 317.111392 
L 81.438414 326.014077 
L 82.04775 331.444911 
L 82.657087 333.27017 
L 83.266424 331.444911 
L 83.87576 326.014077 
L 84.485097 317.111392 
L 85.094433 304.956072 
L 86.313107 272.15746 
L 87.53178 230.828799 
L 91.187799 97.87379 
L 92.406473 65.075178 
L 93.015809 52.919858 
L 93.625146 44.017173 
L 94.234482 38.586339 
L 94.843819 36.76108 
L 95.453156 38.586339 
L 96.062492 44.017173 
L 96.671829 52.919858 
L 97.281166 65.075178 
L 98.499839 97.87379 
L 99.718512 139.202451 
L 103.374532 272.15746 
L 104.593205 304.956072 
L 105.202541 317.111392 
L 105.811878 326.014077 
L 106.421215 331.444911 
L 107.030551 333.27017 
L 107.639888 331.444911 
L 108.249225 326.014077 
L 108.858561 317.111392 
L 109.467898 304.956072 
L 110.686571 272.15746 
L 111.905244 230.828799 
L 115.561264 97.87379 
L 116.779937 65.075178 
L 117.389274 52.919858 
L 117.99861 44.017173 
L 118.607947 38.586339 
L 119.217283 36.76108 
L 119.82662 38.586339 
L 120.435957 44.017173 
L 121.045293 52.919858 
L 121.65463 65.075178 
L 122.873303 97.87379 
L 124.091976 139.202451 
L 127.747996 272.15746 
L 128.966669 304.956072 
L 129.576006 317.111392 
L 130.185342 326.014077 
L 130.794679 331.444911 
L 131.404016 333.27017 
L 132.013352 331.444911 
L 132.622689 326.014077 
L 133.232025 317.111392 
L 133.841362 304.956072 
L 135.060035 272.15746 
L 136.278709 230.828799 
L 139.934728 97.87379 
L 141.153401 65.075178 
L 141.762738 52.919858 
L 142.372075 44.017173 
L 142.981411 38.586339 
L 143.590748 36.76108 
L 144.200084 38.586339 
L 144.809421 44.017173 
L 145.418758 52.919858 
L 146.028094 65.075178 
L 147.246768 97.87379 
L 148.465441 139.202451 
L 152.12146 272.15746 
L 153.340134 304.956072 
L 153.94947 317.111392 
L 154.558807 326.014077 
L 155.168143 331.444911 
L 155.77748 333.27017 
L 156.386817 331.444911 
L 156.996153 326.014077 
L 157.60549 317.111392 
L 158.214826 304.956072 
L 159.4335 272.15746 
L 160.652173 230.828799 
L 164.308193 97.87379 
L 165.526866 65.075178 
L 166.136202 52.919858 
L 166.745539 44.017173 
L 167.354876 38.586339 
L 167.964212 36.76108 
L 168.573549 38.586339 
L 169.182885 44.017173 
L 169.792222 52.919858 
L 170.401559 65.075178 
L 171.620232 97.87379 
L 172.838905 139.202451 
L 176.494925 272.15746 
L 177.713598 304.956072 
L 178.322935 317.111392 
L 178.932271 326.014077 
L 179.541608 331.444911 
L 180.150944 333.27017 
L 180.760281 331.444911 
L 181.369618 326.014077 
L 181.978954 317.111392 
L 182.588291 304.956072 
L 183.806964 272.15746 
L 185.025637 230.828799 
L 188.681657 97.87379 
L 189.90033 65.075178 
L 190.509667 52.919858 
L 191.119003 44.017173 
L 191.72834 38.586339 
L 192.337677 36.76108 
L 192.947013 38.586339 
L 193.55635 44.017173 
L 194.165686 52.919858 
L 194.775023 65.075178 
L 195.993696 97.87379 
L 197.212369 139.202451 
L 200.868389 272.15746 
L 202.087062 304.956072 
L 202.696399 317.111392 
L 203.305736 326.014077 
L 203.915072 331.444911 
L 204.524409 333.27017 
L 205.133745 331.444911 
L 205.743082 326.014077 
L 206.352419 317.111392 
L 206.961755 304.956072 
L 208.180428 272.15746 
L 209.399102 230.828799 
L 213.055121 97.87379 
L 214.273795 65.075178 
L 214.883131 52.919858 
L 215.492468 44.017173 
L 216.101804 38.586339 
L 216.711141 36.76108 
L 217.320478 38.586339 
L 217.929814 44.017173 
L 218.539151 52.919858 
L 219.148487 65.075178 
L 220.367161 97.87379 
L 221.585834 139.202451 
L 225.241854 272.15746 
L 226.460527 304.956072 
L 227.069863 317.111392 
L 227.6792 326.014077 
L 228.288537 331.444911 
L 228.897873 333.27017 
L 229.50721 331.444911 
L 230.116546 326.014077 
L 230.725883 317.111392 
L 231.33522 304.956072 
L 232.553893 272.15746 
L 233.772566 230.828799 
L 237.428586 97.87379 
L 238.647259 65.075178 
L 239.256596 52.919858 
L 239.865932 44.017173 
L 240.475269 38.586339 
L 241.084605 36.76108 
L 241.693942 38.586339 
L 242.303279 44.017173 
L 242.912615 52.919858 
L 243.521952 65.075178 
L 244.740625 97.87379 
L 245.959298 139.202451 
L 249.615318 272.15746 
L 250.833991 304.956072 
L 251.443328 317.111392 
L 252.052664 326.014077 
L 252.662001 331.444911 
L 253.271338 333.27017 
L 253.880674 331.444911 
L 254.490011 326.014077 
L 255.099347 317.111392 
L 255.708684 304.956072 
L 256.927357 272.15746 
L 258.14603 230.828799 
L 261.80205 97.87379 
L 263.020723 65.075178 
L 263.63006 52.919858 
L 264.239396 44.017173 
L 264.848733 38.586339 
L 265.45807 36.76108 
L 266.067406 38.586339 
L 266.676743 44.017173 
L 267.28608 52.919858 
L 267.895416 65.075178 
L 269.114089 97.87379 
L 270.332763 139.202451 
L 273.988782 272.15746 
L 275.207455 304.956072 
L 275.816792 317.111392 
L 276.426129 326.014077 
L 277.035465 331.444911 
L 277.644802 333.27017 
L 278.254139 331.444911 
L 278.863475 326.014077 
L 279.472812 317.111392 
L 280.082148 304.956072 
L 281.300822 272.15746 
L 282.519495 230.828799 
L 286.175514 97.87379 
L 287.394188 65.075178 
L 288.003524 52.919858 
L 288.612861 44.017173 
L 289.222197 38.586339 
L 289.831534 36.76108 
L 290.440871 38.586339 
L 291.050207 44.017173 
L 291.659544 52.919858 
L 292.268881 65.075178 
L 293.487554 97.87379 
L 294.706227 139.202451 
L 298.362247 272.15746 
L 299.58092 304.956072 
L 300.190256 317.111392 
L 300.799593 326.014077 
L 301.40893 331.444911 
L 302.018266 333.27017 
L 302.627603 331.444911 
L 303.236939 326.014077 
L 303.846276 317.111392 
L 304.455613 304.956072 
L 305.674286 272.15746 
L 306.892959 230.828799 
L 310.548979 97.87379 
L 311.767652 65.075178 
L 312.376989 52.919858 
L 312.986325 44.017173 
L 313.595662 38.586339 
L 314.204998 36.76108 
L 314.814335 38.586339 
L 315.423672 44.017173 
L 316.033008 52.919858 
L 316.642345 65.075178 
L 317.861018 97.87379 
L 319.079691 139.202451 
L 322.735711 272.15746 
L 323.954384 304.956072 
L 324.563721 317.111392 
L 325.173057 326.014077 
L 325.782394 331.444911 
L 326.391731 333.27017 
L 327.001067 331.444911 
L 327.610404 326.014077 
L 328.21974 317.111392 
L 328.829077 304.956072 
L 330.04775 272.15746 
L 331.266424 230.828799 
L 334.922443 97.87379 
L 336.141116 65.075178 
L 336.750453 52.919858 
L 337.35979 44.017173 
L 337.969126 38.586339 
L 338.578463 36.76108 
L 339.187799 38.586339 
L 339.797136 44.017173 
L 340.406473 52.919858 
L 341.015809 65.075178 
L 342.234482 97.87379 
L 343.453156 139.202451 
L 347.109175 272.15746 
L 348.327849 304.956072 
L 348.937185 317.111392 
L 349.546522 326.014077 
L 350.155858 331.444911 
L 350.765195 333.27017 
L 351.374532 331.444911 
L 351.983868 326.014077 
L 352.593205 317.111392 
L 353.202541 304.956072 
L 354.421215 272.15746 
L 355.639888 230.828799 
L 359.295908 97.87379 
L 360.514581 65.075178 
L 361.123917 52.919858 
L 361.733254 44.017173 
L 362.342591 38.586339 
L 362.951927 36.76108 
L 363.561264 38.586339 
L 364.1706 44.017173 
L 364.779937 52.919858 
L 365.389274 65.075178 
L 366.607947 97.87379 
L 367.82662 139.202451 
L 371.48264 272.15746 
L 372.701313 304.956072 
L 373.31065 317.111392 
L 373.919986 326.014077 
L 374.529323 331.444911 
L 375.138659 333.27017 
L 375.747996 331.444911 
L 376.357333 326.014077 
L 376.966669 317.111392 
L 377.576006 304.956072 
L 378.794679 272.15746 
L 380.013352 230.828799 
L 383.669372 97.87379 
L 384.888045 65.075178 
L 385.497382 52.919858 
L 386.106718 44.017173 
L 386.716055 38.586339 
L 387.325392 36.76108 
L 387.934728 38.586339 
L 388.544065 44.017173 
L 389.153401 52.919858 
L 389.762738 65.075178 
L 390.981411 97.87379 
L 392.200084 139.202451 
L 395.856104 272.15746 
L 397.074777 304.956072 
L 397.684114 317.111392 
L 398.293451 326.014077 
L 398.902787 331.444911 
L 399.512124 333.27017 
L 400.12146 331.444911 
L 400.730797 326.014077 
L 401.340134 317.111392 
L 401.94947 304.956072 
L 403.168143 272.15746 
L 404.386817 230.828799 
L 408.042836 97.87379 
L 409.26151 65.075178 
L 409.870846 52.919858 
L 410.480183 44.017173 
L 411.089519 38.586339 
L 411.698856 36.76108 
L 412.308193 38.586339 
L 412.917529 44.017173 
L 413.526866 52.919858 
L 414.136202 65.075178 
L 415.354876 97.87379 
L 416.573549 139.202451 
L 420.229568 272.15746 
L 421.448242 304.956072 
L 422.057578 317.111392 
L 422.666915 326.014077 
L 423.276252 331.444911 
L 423.885588 333.27017 
L 424.494925 331.444911 
L 425.104261 326.014077 
L 425.713598 317.111392 
L 426.322935 304.956072 
L 427.541608 272.15746 
L 428.760281 230.828799 
L 432.416301 97.87379 
L 433.634974 65.075178 
L 434.244311 52.919858 
L 434.853647 44.017173 
L 435.462984 38.586339 
L 436.07232 36.76108 
L 436.681657 38.586339 
L 437.290994 44.017173 
L 437.90033 52.919858 
L 438.509667 65.075178 
L 439.72834 97.87379 
L 440.947013 139.202451 
L 444.603033 272.15746 
L 445.821706 304.956072 
L 446.431043 317.111392 
L 447.040379 326.014077 
L 447.649716 331.444911 
L 448.259053 333.27017 
L 448.868389 331.444911 
L 449.477726 326.014077 
L 450.087062 317.111392 
L 450.696399 304.956072 
L 451.915072 272.15746 
L 453.133745 230.828799 
L 456.789765 97.87379 
L 458.008438 65.075178 
L 458.617775 52.919858 
L 459.227111 44.017173 
L 459.836448 38.586339 
L 460.445785 36.76108 
L 461.055121 38.586339 
L 461.664458 44.017173 
L 462.273795 52.919858 
L 462.883131 65.075178 
L 464.101804 97.87379 
L 465.320478 139.202451 
L 468.976497 272.15746 
L 470.19517 304.956072 
L 470.804507 317.111392 
L 471.413844 326.014077 
L 472.02318 331.444911 
L 472.632517 333.27017 
L 473.241854 331.444911 
L 473.85119 326.014077 
L 474.460527 317.111392 
L 475.069863 304.956072 
L 476.288537 272.15746 
L 477.50721 230.828799 
L 481.163229 97.87379 
L 482.381903 65.075178 
L 482.991239 52.919858 
L 483.600576 44.017173 
L 484.209912 38.586339 
L 484.819249 36.76108 
L 485.428586 38.586339 
L 486.037922 44.017173 
L 486.647259 52.919858 
L 487.256596 65.075178 
L 488.475269 97.87379 
L 489.693942 139.202451 
L 493.349962 272.15746 
L 494.568635 304.956072 
L 495.177971 317.111392 
L 495.787308 326.014077 
L 496.396645 331.444911 
L 497.005981 333.27017 
L 497.615318 331.444911 
L 498.224654 326.014077 
L 498.833991 317.111392 
L 499.443328 304.956072 
L 500.662001 272.15746 
L 501.880674 230.828799 
L 505.536694 97.87379 
L 506.755367 65.075178 
L 507.364704 52.919858 
L 507.97404 44.017173 
L 508.583377 38.586339 
L 509.192713 36.76108 
L 509.80205 38.586339 
L 510.411387 44.017173 
L 511.020723 52.919858 
L 511.63006 65.075178 
L 512.848733 97.87379 
L 514.067406 139.202451 
L 517.723426 272.15746 
L 518.942099 304.956072 
L 519.551436 317.111392 
L 520.160772 326.014077 
L 520.770109 331.444911 
L 521.379446 333.27017 
L 521.988782 331.444911 
L 522.598119 326.014077 
L 523.207455 317.111392 
L 523.816792 304.956072 
L 525.035465 272.15746 
L 526.254139 230.828799 
L 529.910158 97.87379 
L 531.128831 65.075178 
L 531.738168 52.919858 
L 532.347505 44.017173 
L 532.956841 38.586339 
L 533.566178 36.76108 
L 534.175514 38.586339 
L 534.784851 44.017173 
L 535.394188 52.919858 
L 536.003524 65.075178 
L 537.222197 97.87379 
L 538.440871 139.202451 
L 542.09689 272.15746 
L 543.315564 304.956072 
L 543.9249 317.111392 
L 544.534237 326.014077 
L 545.143573 331.444911 
L 545.75291 333.27017 
L 546.362247 331.444911 
L 546.971583 326.014077 
L 547.58092 317.111392 
L 548.190256 304.956072 
L 549.40893 272.15746 
L 550.627603 230.828799 
L 554.283623 97.87379 
L 555.502296 65.075178 
L 556.111632 52.919858 
L 556.720969 44.017173 
L 557.330306 38.586339 
L 557.939642 36.76108 
L 558.548979 38.586339 
L 559.158315 44.017173 
L 559.767652 52.919858 
L 560.376989 65.075178 
L 561.595662 97.87379 
L 562.814335 139.202451 
L 566.470355 272.15746 
L 567.689028 304.956072 
L 568.298365 317.111392 
L 568.907701 326.014077 
L 569.517038 331.444911 
L 570.126374 333.27017 
L 570.735711 331.444911 
L 571.345048 326.014077 
L 571.954384 317.111392 
L 572.563721 304.956072 
L 573.782394 272.15746 
L 575.001067 230.828799 
L 578.657087 97.87379 
L 579.87576 65.075178 
L 580.485097 52.919858 
L 581.094433 44.017173 
L 581.70377 38.586339 
L 582.313107 36.76108 
L 582.922443 38.586339 
L 583.53178 44.017173 
L 584.141116 52.919858 
L 584.750453 65.075178 
L 585.969126 97.87379 
L 587.187799 139.202451 
L 590.843819 272.15746 
L 592.062492 304.956072 
L 592.671829 317.111392 
L 593.281166 326.014077 
L 593.890502 331.444911 
L 594.499839 333.27017 
L 595.109175 331.444911 
L 595.718512 326.014077 
L 596.327849 317.111392 
L 596.937185 304.956072 
L 598.155858 272.15746 
L 599.374532 230.828799 
L 603.030551 97.87379 
L 604.249225 65.075178 
L 604.858561 52.919858 
L 605.467898 44.017173 
L 606.077234 38.586339 
L 606.686571 36.76108 
L 607.295908 38.586339 
L 607.905244 44.017173 
L 608.514581 52.919858 
L 609.123917 65.075178 
L 610.342591 97.87379 
L 611.561264 139.202451 
L 615.217283 272.15746 
L 616.435957 304.956072 
L 617.045293 317.111392 
L 617.65463 326.014077 
L 618.263967 331.444911 
L 618.873303 333.27017 
L 619.48264 331.444911 
L 620.091976 326.014077 
L 620.701313 317.111392 
L 621.31065 304.956072 
L 622.529323 272.15746 
L 623.747996 230.828799 
L 627.404016 97.87379 
L 628.622689 65.075178 
L 629.232025 52.919858 
L 629.841362 44.017173 
L 630.450699 38.586339 
L 631.060035 36.76108 
L 631.669372 38.586339 
L 632.278709 44.017173 
L 632.888045 52.919858 
L 633.497382 65.075178 
L 634.716055 97.87379 
L 635.934728 139.202451 
L 639.590748 272.15746 
L 640.809421 304.956072 
L 641.418758 317.111392 
L 642.028094 326.014077 
L 642.637431 331.444911 
L 643.246768 333.27017 
L 643.856104 331.444911 
L 644.465441 326.014077 
L 645.074777 317.111392 
L 645.684114 304.956072 
L 646.902787 272.15746 
L 648.12146 230.828799 
L 651.77748 97.87379 
L 652.996153 65.075178 
L 653.60549 52.919858 
L 654.214826 44.017173 
L 654.824163 38.586339 
L 655.4335 36.76108 
L 656.042836 38.586339 
L 656.652173 44.017173 
L 657.26151 52.919858 
L 657.870846 65.075178 
L 659.089519 97.87379 
L 660.308193 139.202451 
L 663.964212 272.15746 
L 665.182885 304.956072 
L 665.792222 317.111392 
L 666.401559 326.014077 
L 667.010895 331.444911 
L 667.620232 333.27017 
L 668.229568 331.444911 
L 668.838905 326.014077 
L 669.448242 317.111392 
L 670.057578 304.956072 
L 671.276252 272.15746 
L 672.494925 230.828799 
L 673.104261 208.207746 
L 673.104261 208.207746 
" style="fill:none;stroke:#4c72b0;stroke-linecap:round;stroke-width:1.5;"/>
   </g>
   <g id="patch_3">
    <path d="M 33.940625 348.095625 
L 33.940625 21.935625 
" style="fill:none;stroke:#ffffff;stroke-linecap:square;stroke-linejoin:miter;stroke-width:0.8;"/>
   </g>
   <g id="patch_4">
    <path d="M 703.540625 348.095625 
L 703.540625 21.935625 
" style="fill:none;stroke:#ffffff;stroke-linecap:square;stroke-linejoin:miter;stroke-width:0.8;"/>
   </g>
   <g id="patch_5">
    <path d="M 33.940625 348.095625 
L 703.540625 348.095625 
" style="fill:none;stroke:#ffffff;stroke-linecap:square;stroke-linejoin:miter;stroke-width:0.8;"/>
   </g>
   <g id="patch_6">
    <path d="M 33.940625 21.935625 
L 703.540625 21.935625 
" style="fill:none;stroke:#ffffff;stroke-linecap:square;stroke-linejoin:miter;stroke-width:0.8;"/>
   </g>
   <g id="text_17">
    <!-- Seasonal Component -->
    <defs>
     <path d="M 4.5 23 
L 13.421875 23.78125 
Q 14.0625 18.40625 16.375 14.96875 
Q 18.703125 11.53125 23.578125 9.40625 
Q 28.46875 7.28125 34.578125 7.28125 
Q 39.984375 7.28125 44.140625 8.890625 
Q 48.296875 10.5 50.3125 13.296875 
Q 52.34375 16.109375 52.34375 19.4375 
Q 52.34375 22.796875 50.390625 25.3125 
Q 48.4375 27.828125 43.953125 29.546875 
Q 41.0625 30.671875 31.203125 33.03125 
Q 21.34375 35.40625 17.390625 37.5 
Q 12.25 40.1875 9.734375 44.15625 
Q 7.234375 48.140625 7.234375 53.078125 
Q 7.234375 58.5 10.296875 63.203125 
Q 13.375 67.921875 19.28125 70.359375 
Q 25.203125 72.796875 32.421875 72.796875 
Q 40.375 72.796875 46.453125 70.234375 
Q 52.546875 67.671875 55.8125 62.6875 
Q 59.078125 57.71875 59.328125 51.421875 
L 50.25 50.734375 
Q 49.515625 57.515625 45.28125 60.984375 
Q 41.0625 64.453125 32.8125 64.453125 
Q 24.21875 64.453125 20.28125 61.296875 
Q 16.359375 58.15625 16.359375 53.71875 
Q 16.359375 49.859375 19.140625 47.359375 
Q 21.875 44.875 33.421875 42.265625 
Q 44.96875 39.65625 49.265625 37.703125 
Q 55.515625 34.8125 58.484375 30.390625 
Q 61.46875 25.984375 61.46875 20.21875 
Q 61.46875 14.5 58.203125 9.4375 
Q 54.9375 4.390625 48.796875 1.578125 
Q 42.671875 -1.21875 35.015625 -1.21875 
Q 25.296875 -1.21875 18.71875 1.609375 
Q 12.15625 4.4375 8.421875 10.125 
Q 4.6875 15.828125 4.5 23 
z
" id="ArialMT-83"/>
     <path d="M 42.09375 16.703125 
L 51.171875 15.578125 
Q 49.03125 7.625 43.21875 3.21875 
Q 37.40625 -1.171875 28.375 -1.171875 
Q 17 -1.171875 10.328125 5.828125 
Q 3.65625 12.84375 3.65625 25.484375 
Q 3.65625 38.578125 10.390625 45.796875 
Q 17.140625 53.03125 27.875 53.03125 
Q 38.28125 53.03125 44.875 45.953125 
Q 51.46875 38.875 51.46875 26.03125 
Q 51.46875 25.25 51.421875 23.6875 
L 12.75 23.6875 
Q 13.234375 15.140625 17.578125 10.59375 
Q 21.921875 6.0625 28.421875 6.0625 
Q 33.25 6.0625 36.671875 8.59375 
Q 40.09375 11.140625 42.09375 16.703125 
z
M 13.234375 30.90625 
L 42.1875 30.90625 
Q 41.609375 37.453125 38.875 40.71875 
Q 34.671875 45.796875 27.984375 45.796875 
Q 21.921875 45.796875 17.796875 41.75 
Q 13.671875 37.703125 13.234375 30.90625 
z
" id="ArialMT-101"/>
     <path d="M 40.4375 6.390625 
Q 35.546875 2.25 31.03125 0.53125 
Q 26.515625 -1.171875 21.34375 -1.171875 
Q 12.796875 -1.171875 8.203125 3 
Q 3.609375 7.171875 3.609375 13.671875 
Q 3.609375 17.484375 5.34375 20.625 
Q 7.078125 23.78125 9.890625 25.6875 
Q 12.703125 27.59375 16.21875 28.5625 
Q 18.796875 29.25 24.03125 29.890625 
Q 34.671875 31.15625 39.703125 32.90625 
Q 39.75 34.71875 39.75 35.203125 
Q 39.75 40.578125 37.25 42.78125 
Q 33.890625 45.75 27.25 45.75 
Q 21.046875 45.75 18.09375 43.578125 
Q 15.140625 41.40625 13.71875 35.890625 
L 5.125 37.0625 
Q 6.296875 42.578125 8.984375 45.96875 
Q 11.671875 49.359375 16.75 51.1875 
Q 21.828125 53.03125 28.515625 53.03125 
Q 35.15625 53.03125 39.296875 51.46875 
Q 43.453125 49.90625 45.40625 47.53125 
Q 47.359375 45.171875 48.140625 41.546875 
Q 48.578125 39.3125 48.578125 33.453125 
L 48.578125 21.734375 
Q 48.578125 9.46875 49.140625 6.21875 
Q 49.703125 2.984375 51.375 0 
L 42.1875 0 
Q 40.828125 2.734375 40.4375 6.390625 
z
M 39.703125 26.03125 
Q 34.90625 24.078125 25.34375 22.703125 
Q 19.921875 21.921875 17.671875 20.9375 
Q 15.4375 19.96875 14.203125 18.09375 
Q 12.984375 16.21875 12.984375 13.921875 
Q 12.984375 10.40625 15.640625 8.0625 
Q 18.3125 5.71875 23.4375 5.71875 
Q 28.515625 5.71875 32.46875 7.9375 
Q 36.421875 10.15625 38.28125 14.015625 
Q 39.703125 17 39.703125 22.796875 
z
" id="ArialMT-97"/>
     <path d="M 3.078125 15.484375 
L 11.765625 16.84375 
Q 12.5 11.625 15.84375 8.84375 
Q 19.1875 6.0625 25.203125 6.0625 
Q 31.25 6.0625 34.171875 8.515625 
Q 37.109375 10.984375 37.109375 14.3125 
Q 37.109375 17.28125 34.515625 19 
Q 32.71875 20.171875 25.53125 21.96875 
Q 15.875 24.421875 12.140625 26.203125 
Q 8.40625 27.984375 6.46875 31.125 
Q 4.546875 34.28125 4.546875 38.09375 
Q 4.546875 41.546875 6.125 44.5 
Q 7.71875 47.46875 10.453125 49.421875 
Q 12.5 50.921875 16.03125 51.96875 
Q 19.578125 53.03125 23.640625 53.03125 
Q 29.734375 53.03125 34.34375 51.265625 
Q 38.96875 49.515625 41.15625 46.5 
Q 43.359375 43.5 44.1875 38.484375 
L 35.59375 37.3125 
Q 35.015625 41.3125 32.203125 43.546875 
Q 29.390625 45.796875 24.265625 45.796875 
Q 18.21875 45.796875 15.625 43.796875 
Q 13.03125 41.796875 13.03125 39.109375 
Q 13.03125 37.40625 14.109375 36.03125 
Q 15.1875 34.625 17.484375 33.6875 
Q 18.796875 33.203125 25.25 31.453125 
Q 34.578125 28.953125 38.25 27.359375 
Q 41.9375 25.78125 44.03125 22.75 
Q 46.140625 19.734375 46.140625 15.234375 
Q 46.140625 10.84375 43.578125 6.953125 
Q 41.015625 3.078125 36.171875 0.953125 
Q 31.34375 -1.171875 25.25 -1.171875 
Q 15.140625 -1.171875 9.84375 3.03125 
Q 4.546875 7.234375 3.078125 15.484375 
z
" id="ArialMT-115"/>
     <path d="M 3.328125 25.921875 
Q 3.328125 40.328125 11.328125 47.265625 
Q 18.015625 53.03125 27.640625 53.03125 
Q 38.328125 53.03125 45.109375 46.015625 
Q 51.90625 39.015625 51.90625 26.65625 
Q 51.90625 16.65625 48.90625 10.90625 
Q 45.90625 5.171875 40.15625 2 
Q 34.421875 -1.171875 27.640625 -1.171875 
Q 16.75 -1.171875 10.03125 5.8125 
Q 3.328125 12.796875 3.328125 25.921875 
z
M 12.359375 25.921875 
Q 12.359375 15.96875 16.703125 11.015625 
Q 21.046875 6.0625 27.640625 6.0625 
Q 34.1875 6.0625 38.53125 11.03125 
Q 42.875 16.015625 42.875 26.21875 
Q 42.875 35.84375 38.5 40.796875 
Q 34.125 45.75 27.640625 45.75 
Q 21.046875 45.75 16.703125 40.8125 
Q 12.359375 35.890625 12.359375 25.921875 
z
" id="ArialMT-111"/>
     <path d="M 6.59375 0 
L 6.59375 51.859375 
L 14.5 51.859375 
L 14.5 44.484375 
Q 20.21875 53.03125 31 53.03125 
Q 35.6875 53.03125 39.625 51.34375 
Q 43.5625 49.65625 45.515625 46.921875 
Q 47.46875 44.1875 48.25 40.4375 
Q 48.734375 37.984375 48.734375 31.890625 
L 48.734375 0 
L 39.9375 0 
L 39.9375 31.546875 
Q 39.9375 36.921875 38.90625 39.578125 
Q 37.890625 42.234375 35.28125 43.8125 
Q 32.671875 45.40625 29.15625 45.40625 
Q 23.53125 45.40625 19.453125 41.84375 
Q 15.375 38.28125 15.375 28.328125 
L 15.375 0 
z
" id="ArialMT-110"/>
     <path d="M 6.390625 0 
L 6.390625 71.578125 
L 15.1875 71.578125 
L 15.1875 0 
z
" id="ArialMT-108"/>
     <path id="ArialMT-32"/>
     <path d="M 58.796875 25.09375 
L 68.265625 22.703125 
Q 65.28125 11.03125 57.546875 4.90625 
Q 49.8125 -1.21875 38.625 -1.21875 
Q 27.046875 -1.21875 19.796875 3.484375 
Q 12.546875 8.203125 8.765625 17.140625 
Q 4.984375 26.078125 4.984375 36.328125 
Q 4.984375 47.515625 9.25 55.828125 
Q 13.53125 64.15625 21.40625 68.46875 
Q 29.296875 72.796875 38.765625 72.796875 
Q 49.515625 72.796875 56.828125 67.328125 
Q 64.15625 61.859375 67.046875 51.953125 
L 57.71875 49.75 
Q 55.21875 57.5625 50.484375 61.125 
Q 45.75 64.703125 38.578125 64.703125 
Q 30.328125 64.703125 24.78125 60.734375 
Q 19.234375 56.78125 16.984375 50.109375 
Q 14.75 43.453125 14.75 36.375 
Q 14.75 27.25 17.40625 20.4375 
Q 20.0625 13.625 25.671875 10.25 
Q 31.296875 6.890625 37.84375 6.890625 
Q 45.796875 6.890625 51.3125 11.46875 
Q 56.84375 16.0625 58.796875 25.09375 
z
" id="ArialMT-67"/>
     <path d="M 6.59375 0 
L 6.59375 51.859375 
L 14.453125 51.859375 
L 14.453125 44.578125 
Q 16.890625 48.390625 20.9375 50.703125 
Q 25 53.03125 30.171875 53.03125 
Q 35.9375 53.03125 39.625 50.640625 
Q 43.3125 48.25 44.828125 43.953125 
Q 50.984375 53.03125 60.84375 53.03125 
Q 68.5625 53.03125 72.703125 48.75 
Q 76.859375 44.484375 76.859375 35.59375 
L 76.859375 0 
L 68.109375 0 
L 68.109375 32.671875 
Q 68.109375 37.9375 67.25 40.25 
Q 66.40625 42.578125 64.15625 43.984375 
Q 61.921875 45.40625 58.890625 45.40625 
Q 53.421875 45.40625 49.796875 41.765625 
Q 46.1875 38.140625 46.1875 30.125 
L 46.1875 0 
L 37.40625 0 
L 37.40625 33.6875 
Q 37.40625 39.546875 35.25 42.46875 
Q 33.109375 45.40625 28.21875 45.40625 
Q 24.515625 45.40625 21.359375 43.453125 
Q 18.21875 41.5 16.796875 37.734375 
Q 15.375 33.984375 15.375 26.90625 
L 15.375 0 
z
" id="ArialMT-109"/>
     <path d="M 6.59375 -19.875 
L 6.59375 51.859375 
L 14.59375 51.859375 
L 14.59375 45.125 
Q 17.4375 49.078125 21 51.046875 
Q 24.5625 53.03125 29.640625 53.03125 
Q 36.28125 53.03125 41.359375 49.609375 
Q 46.4375 46.1875 49.015625 39.953125 
Q 51.609375 33.734375 51.609375 26.3125 
Q 51.609375 18.359375 48.75 11.984375 
Q 45.90625 5.609375 40.453125 2.21875 
Q 35.015625 -1.171875 29 -1.171875 
Q 24.609375 -1.171875 21.109375 0.6875 
Q 17.625 2.546875 15.375 5.375 
L 15.375 -19.875 
z
M 14.546875 25.640625 
Q 14.546875 15.625 18.59375 10.84375 
Q 22.65625 6.0625 28.421875 6.0625 
Q 34.28125 6.0625 38.453125 11.015625 
Q 42.625 15.96875 42.625 26.375 
Q 42.625 36.28125 38.546875 41.203125 
Q 34.46875 46.140625 28.8125 46.140625 
Q 23.1875 46.140625 18.859375 40.890625 
Q 14.546875 35.640625 14.546875 25.640625 
z
" id="ArialMT-112"/>
    </defs>
    <g style="fill:#262626;" transform="translate(311.038438 15.935625)scale(0.12 -0.12)">
     <use xlink:href="#ArialMT-83"/>
     <use x="66.699219" xlink:href="#ArialMT-101"/>
     <use x="122.314453" xlink:href="#ArialMT-97"/>
     <use x="177.929688" xlink:href="#ArialMT-115"/>
     <use x="227.929688" xlink:href="#ArialMT-111"/>
     <use x="283.544922" xlink:href="#ArialMT-110"/>
     <use x="339.160156" xlink:href="#ArialMT-97"/>
     <use x="394.775391" xlink:href="#ArialMT-108"/>
     <use x="416.992188" xlink:href="#ArialMT-32"/>
     <use x="444.775391" xlink:href="#ArialMT-67"/>
     <use x="516.992188" xlink:href="#ArialMT-111"/>
     <use x="572.607422" xlink:href="#ArialMT-109"/>
     <use x="655.908203" xlink:href="#ArialMT-112"/>
     <use x="711.523438" xlink:href="#ArialMT-111"/>
     <use x="767.138672" xlink:href="#ArialMT-110"/>
     <use x="822.753906" xlink:href="#ArialMT-101"/>
     <use x="878.369141" xlink:href="#ArialMT-110"/>
     <use x="933.984375" xlink:href="#ArialMT-116"/>
    </g>
   </g>
   <g id="legend_1">
    <g id="patch_7">
     <path d="M 710.540625 193.588281 
L 753.101563 193.588281 
Q 755.101563 193.588281 755.101563 191.588281 
L 755.101563 178.442969 
Q 755.101563 176.442969 753.101563 176.442969 
L 710.540625 176.442969 
Q 708.540625 176.442969 708.540625 178.442969 
L 708.540625 191.588281 
Q 708.540625 193.588281 710.540625 193.588281 
z
" style="fill:#e6e6e6;opacity:0.8;stroke:#cccccc;stroke-linejoin:miter;"/>
    </g>
    <g id="line2d_17">
     <path d="M 712.540625 184.100781 
L 732.540625 184.100781 
" style="fill:none;stroke:#4c72b0;stroke-linecap:round;stroke-width:1.5;"/>
    </g>
    <g id="line2d_18"/>
    <g id="text_18">
     <!-- s1 -->
     <g style="fill:#262626;" transform="translate(740.540625 187.600781)scale(0.1 -0.1)">
      <use xlink:href="#ArialMT-115"/>
      <use x="50" xlink:href="#ArialMT-49"/>
     </g>
    </g>
   </g>
  </g>
 </g>
 <defs>
  <clipPath id="pbfbc370041">
   <rect height="326.16" width="669.6" x="33.940625" y="21.935625"/>
  </clipPath>
 </defs>
</svg>
