<?xml version="1.0" encoding="utf-8" standalone="no"?>
<!DOCTYPE svg PUBLIC "-//W3C//DTD SVG 1.1//EN"
  "http://www.w3.org/Graphics/SVG/1.1/DTD/svg11.dtd">
<!-- Created with matplotlib (https://matplotlib.org/) -->
<svg height="384.58625pt" version="1.1" viewBox="0 0 753.9625 384.58625" width="753.9625pt" xmlns="http://www.w3.org/2000/svg" xmlns:xlink="http://www.w3.org/1999/xlink">
 <defs>
  <style type="text/css">
*{stroke-linecap:butt;stroke-linejoin:round;}
  </style>
 </defs>
 <g id="figure_1">
  <g id="patch_1">
   <path d="M 0 384.58625 
L 753.9625 384.58625 
L 753.9625 0 
L 0 0 
z
" style="fill:none;"/>
  </g>
  <g id="axes_1">
   <g id="patch_2">
    <path d="M 25.601563 348.095625 
L 695.201563 348.095625 
L 695.201563 21.935625 
L 25.601563 21.935625 
z
" style="fill:#e6e6e6;"/>
   </g>
   <g id="matplotlib.axis_1">
    <g id="xtick_1">
     <g id="line2d_1">
      <path clip-path="url(#p2750707bc9)" d="M 56.037926 348.095625 
L 56.037926 21.935625 
" style="fill:none;stroke:#cccccc;stroke-linecap:round;stroke-width:0.8;"/>
     </g>
     <g id="text_1">
      <!-- 0 -->
      <defs>
       <path d="M 4.15625 35.296875 
Q 4.15625 48 6.765625 55.734375 
Q 9.375 63.484375 14.515625 67.671875 
Q 19.671875 71.875 27.484375 71.875 
Q 33.25 71.875 37.59375 69.546875 
Q 41.9375 67.234375 44.765625 62.859375 
Q 47.609375 58.5 49.21875 52.21875 
Q 50.828125 45.953125 50.828125 35.296875 
Q 50.828125 22.703125 48.234375 14.96875 
Q 45.65625 7.234375 40.5 3 
Q 35.359375 -1.21875 27.484375 -1.21875 
Q 17.140625 -1.21875 11.234375 6.203125 
Q 4.15625 15.140625 4.15625 35.296875 
z
M 13.1875 35.296875 
Q 13.1875 17.671875 17.3125 11.828125 
Q 21.4375 6 27.484375 6 
Q 33.546875 6 37.671875 11.859375 
Q 41.796875 17.71875 41.796875 35.296875 
Q 41.796875 52.984375 37.671875 58.78125 
Q 33.546875 64.59375 27.390625 64.59375 
Q 21.34375 64.59375 17.71875 59.46875 
Q 13.1875 52.9375 13.1875 35.296875 
z
" id="ArialMT-48"/>
      </defs>
      <g style="fill:#262626;" transform="translate(53.257457 362.253438)scale(0.1 -0.1)">
       <use xlink:href="#ArialMT-48"/>
      </g>
     </g>
    </g>
    <g id="xtick_2">
     <g id="line2d_2">
      <path clip-path="url(#p2750707bc9)" d="M 177.905248 348.095625 
L 177.905248 21.935625 
" style="fill:none;stroke:#cccccc;stroke-linecap:round;stroke-width:0.8;"/>
     </g>
     <g id="text_2">
      <!-- 200 -->
      <defs>
       <path d="M 50.34375 8.453125 
L 50.34375 0 
L 3.03125 0 
Q 2.9375 3.171875 4.046875 6.109375 
Q 5.859375 10.9375 9.828125 15.625 
Q 13.8125 20.3125 21.34375 26.46875 
Q 33.015625 36.03125 37.109375 41.625 
Q 41.21875 47.21875 41.21875 52.203125 
Q 41.21875 57.421875 37.46875 61 
Q 33.734375 64.59375 27.734375 64.59375 
Q 21.390625 64.59375 17.578125 60.78125 
Q 13.765625 56.984375 13.71875 50.25 
L 4.6875 51.171875 
Q 5.609375 61.28125 11.65625 66.578125 
Q 17.71875 71.875 27.9375 71.875 
Q 38.234375 71.875 44.234375 66.15625 
Q 50.25 60.453125 50.25 52 
Q 50.25 47.703125 48.484375 43.546875 
Q 46.734375 39.40625 42.65625 34.8125 
Q 38.578125 30.21875 29.109375 22.21875 
Q 21.1875 15.578125 18.9375 13.203125 
Q 16.703125 10.84375 15.234375 8.453125 
z
" id="ArialMT-50"/>
      </defs>
      <g style="fill:#262626;" transform="translate(169.563842 362.253438)scale(0.1 -0.1)">
       <use xlink:href="#ArialMT-50"/>
       <use x="55.615234" xlink:href="#ArialMT-48"/>
       <use x="111.230469" xlink:href="#ArialMT-48"/>
      </g>
     </g>
    </g>
    <g id="xtick_3">
     <g id="line2d_3">
      <path clip-path="url(#p2750707bc9)" d="M 299.77257 348.095625 
L 299.77257 21.935625 
" style="fill:none;stroke:#cccccc;stroke-linecap:round;stroke-width:0.8;"/>
     </g>
     <g id="text_3">
      <!-- 400 -->
      <defs>
       <path d="M 32.328125 0 
L 32.328125 17.140625 
L 1.265625 17.140625 
L 1.265625 25.203125 
L 33.9375 71.578125 
L 41.109375 71.578125 
L 41.109375 25.203125 
L 50.78125 25.203125 
L 50.78125 17.140625 
L 41.109375 17.140625 
L 41.109375 0 
z
M 32.328125 25.203125 
L 32.328125 57.46875 
L 9.90625 25.203125 
z
" id="ArialMT-52"/>
      </defs>
      <g style="fill:#262626;" transform="translate(291.431164 362.253438)scale(0.1 -0.1)">
       <use xlink:href="#ArialMT-52"/>
       <use x="55.615234" xlink:href="#ArialMT-48"/>
       <use x="111.230469" xlink:href="#ArialMT-48"/>
      </g>
     </g>
    </g>
    <g id="xtick_4">
     <g id="line2d_4">
      <path clip-path="url(#p2750707bc9)" d="M 421.639892 348.095625 
L 421.639892 21.935625 
" style="fill:none;stroke:#cccccc;stroke-linecap:round;stroke-width:0.8;"/>
     </g>
     <g id="text_4">
      <!-- 600 -->
      <defs>
       <path d="M 49.75 54.046875 
L 41.015625 53.375 
Q 39.84375 58.546875 37.703125 60.890625 
Q 34.125 64.65625 28.90625 64.65625 
Q 24.703125 64.65625 21.53125 62.3125 
Q 17.390625 59.28125 14.984375 53.46875 
Q 12.59375 47.65625 12.5 36.921875 
Q 15.671875 41.75 20.265625 44.09375 
Q 24.859375 46.4375 29.890625 46.4375 
Q 38.671875 46.4375 44.84375 39.96875 
Q 51.03125 33.5 51.03125 23.25 
Q 51.03125 16.5 48.125 10.71875 
Q 45.21875 4.9375 40.140625 1.859375 
Q 35.0625 -1.21875 28.609375 -1.21875 
Q 17.625 -1.21875 10.6875 6.859375 
Q 3.765625 14.9375 3.765625 33.5 
Q 3.765625 54.25 11.421875 63.671875 
Q 18.109375 71.875 29.4375 71.875 
Q 37.890625 71.875 43.28125 67.140625 
Q 48.6875 62.40625 49.75 54.046875 
z
M 13.875 23.1875 
Q 13.875 18.65625 15.796875 14.5 
Q 17.71875 10.359375 21.1875 8.171875 
Q 24.65625 6 28.46875 6 
Q 34.03125 6 38.03125 10.484375 
Q 42.046875 14.984375 42.046875 22.703125 
Q 42.046875 30.125 38.078125 34.390625 
Q 34.125 38.671875 28.125 38.671875 
Q 22.171875 38.671875 18.015625 34.390625 
Q 13.875 30.125 13.875 23.1875 
z
" id="ArialMT-54"/>
      </defs>
      <g style="fill:#262626;" transform="translate(413.298485 362.253438)scale(0.1 -0.1)">
       <use xlink:href="#ArialMT-54"/>
       <use x="55.615234" xlink:href="#ArialMT-48"/>
       <use x="111.230469" xlink:href="#ArialMT-48"/>
      </g>
     </g>
    </g>
    <g id="xtick_5">
     <g id="line2d_5">
      <path clip-path="url(#p2750707bc9)" d="M 543.507214 348.095625 
L 543.507214 21.935625 
" style="fill:none;stroke:#cccccc;stroke-linecap:round;stroke-width:0.8;"/>
     </g>
     <g id="text_5">
      <!-- 800 -->
      <defs>
       <path d="M 17.671875 38.8125 
Q 12.203125 40.828125 9.5625 44.53125 
Q 6.9375 48.25 6.9375 53.421875 
Q 6.9375 61.234375 12.546875 66.546875 
Q 18.171875 71.875 27.484375 71.875 
Q 36.859375 71.875 42.578125 66.421875 
Q 48.296875 60.984375 48.296875 53.171875 
Q 48.296875 48.1875 45.671875 44.5 
Q 43.0625 40.828125 37.75 38.8125 
Q 44.34375 36.671875 47.78125 31.875 
Q 51.21875 27.09375 51.21875 20.453125 
Q 51.21875 11.28125 44.71875 5.03125 
Q 38.234375 -1.21875 27.640625 -1.21875 
Q 17.046875 -1.21875 10.546875 5.046875 
Q 4.046875 11.328125 4.046875 20.703125 
Q 4.046875 27.6875 7.59375 32.390625 
Q 11.140625 37.109375 17.671875 38.8125 
z
M 15.921875 53.71875 
Q 15.921875 48.640625 19.1875 45.40625 
Q 22.46875 42.1875 27.6875 42.1875 
Q 32.765625 42.1875 36.015625 45.375 
Q 39.265625 48.578125 39.265625 53.21875 
Q 39.265625 58.0625 35.90625 61.359375 
Q 32.5625 64.65625 27.59375 64.65625 
Q 22.5625 64.65625 19.234375 61.421875 
Q 15.921875 58.203125 15.921875 53.71875 
z
M 13.09375 20.65625 
Q 13.09375 16.890625 14.875 13.375 
Q 16.65625 9.859375 20.171875 7.921875 
Q 23.6875 6 27.734375 6 
Q 34.03125 6 38.125 10.046875 
Q 42.234375 14.109375 42.234375 20.359375 
Q 42.234375 26.703125 38.015625 30.859375 
Q 33.796875 35.015625 27.4375 35.015625 
Q 21.234375 35.015625 17.15625 30.90625 
Q 13.09375 26.8125 13.09375 20.65625 
z
" id="ArialMT-56"/>
      </defs>
      <g style="fill:#262626;" transform="translate(535.165807 362.253438)scale(0.1 -0.1)">
       <use xlink:href="#ArialMT-56"/>
       <use x="55.615234" xlink:href="#ArialMT-48"/>
       <use x="111.230469" xlink:href="#ArialMT-48"/>
      </g>
     </g>
    </g>
    <g id="xtick_6">
     <g id="line2d_6">
      <path clip-path="url(#p2750707bc9)" d="M 665.374535 348.095625 
L 665.374535 21.935625 
" style="fill:none;stroke:#cccccc;stroke-linecap:round;stroke-width:0.8;"/>
     </g>
     <g id="text_6">
      <!-- 1000 -->
      <defs>
       <path d="M 37.25 0 
L 28.46875 0 
L 28.46875 56 
Q 25.296875 52.984375 20.140625 49.953125 
Q 14.984375 46.921875 10.890625 45.40625 
L 10.890625 53.90625 
Q 18.265625 57.375 23.78125 62.296875 
Q 29.296875 67.234375 31.59375 71.875 
L 37.25 71.875 
z
" id="ArialMT-49"/>
      </defs>
      <g style="fill:#262626;" transform="translate(654.25266 362.253438)scale(0.1 -0.1)">
       <use xlink:href="#ArialMT-49"/>
       <use x="55.615234" xlink:href="#ArialMT-48"/>
       <use x="111.230469" xlink:href="#ArialMT-48"/>
       <use x="166.845703" xlink:href="#ArialMT-48"/>
      </g>
     </g>
    </g>
    <g id="text_7">
     <!-- t -->
     <defs>
      <path d="M 25.78125 7.859375 
L 27.046875 0.09375 
Q 23.34375 -0.6875 20.40625 -0.6875 
Q 15.625 -0.6875 12.984375 0.828125 
Q 10.359375 2.34375 9.28125 4.8125 
Q 8.203125 7.28125 8.203125 15.1875 
L 8.203125 45.015625 
L 1.765625 45.015625 
L 1.765625 51.859375 
L 8.203125 51.859375 
L 8.203125 64.703125 
L 16.9375 69.96875 
L 16.9375 51.859375 
L 25.78125 51.859375 
L 25.78125 45.015625 
L 16.9375 45.015625 
L 16.9375 14.703125 
Q 16.9375 10.9375 17.40625 9.859375 
Q 17.875 8.796875 18.921875 8.15625 
Q 19.96875 7.515625 21.921875 7.515625 
Q 23.390625 7.515625 25.78125 7.859375 
z
" id="ArialMT-116"/>
     </defs>
     <g style="fill:#262626;" transform="translate(359.0125 375.39875)scale(0.1 -0.1)">
      <use xlink:href="#ArialMT-116"/>
     </g>
    </g>
   </g>
   <g id="matplotlib.axis_2">
    <g id="ytick_1">
     <g id="line2d_7">
      <path clip-path="url(#p2750707bc9)" d="M 25.601563 330.134536 
L 695.201563 330.134536 
" style="fill:none;stroke:#cccccc;stroke-linecap:round;stroke-width:0.8;"/>
     </g>
     <g id="text_8">
      <!-- −2 -->
      <defs>
       <path d="M 52.828125 31.203125 
L 5.5625 31.203125 
L 5.5625 39.40625 
L 52.828125 39.40625 
z
" id="ArialMT-8722"/>
      </defs>
      <g style="fill:#262626;" transform="translate(7.2 333.713442)scale(0.1 -0.1)">
       <use xlink:href="#ArialMT-8722"/>
       <use x="58.398438" xlink:href="#ArialMT-50"/>
      </g>
     </g>
    </g>
    <g id="ytick_2">
     <g id="line2d_8">
      <path clip-path="url(#p2750707bc9)" d="M 25.601563 289.073642 
L 695.201563 289.073642 
" style="fill:none;stroke:#cccccc;stroke-linecap:round;stroke-width:0.8;"/>
     </g>
     <g id="text_9">
      <!-- 0 -->
      <g style="fill:#262626;" transform="translate(13.040625 292.652549)scale(0.1 -0.1)">
       <use xlink:href="#ArialMT-48"/>
      </g>
     </g>
    </g>
    <g id="ytick_3">
     <g id="line2d_9">
      <path clip-path="url(#p2750707bc9)" d="M 25.601563 248.012749 
L 695.201563 248.012749 
" style="fill:none;stroke:#cccccc;stroke-linecap:round;stroke-width:0.8;"/>
     </g>
     <g id="text_10">
      <!-- 2 -->
      <g style="fill:#262626;" transform="translate(13.040625 251.591656)scale(0.1 -0.1)">
       <use xlink:href="#ArialMT-50"/>
      </g>
     </g>
    </g>
    <g id="ytick_4">
     <g id="line2d_10">
      <path clip-path="url(#p2750707bc9)" d="M 25.601563 206.951856 
L 695.201563 206.951856 
" style="fill:none;stroke:#cccccc;stroke-linecap:round;stroke-width:0.8;"/>
     </g>
     <g id="text_11">
      <!-- 4 -->
      <g style="fill:#262626;" transform="translate(13.040625 210.530762)scale(0.1 -0.1)">
       <use xlink:href="#ArialMT-52"/>
      </g>
     </g>
    </g>
    <g id="ytick_5">
     <g id="line2d_11">
      <path clip-path="url(#p2750707bc9)" d="M 25.601563 165.890963 
L 695.201563 165.890963 
" style="fill:none;stroke:#cccccc;stroke-linecap:round;stroke-width:0.8;"/>
     </g>
     <g id="text_12">
      <!-- 6 -->
      <g style="fill:#262626;" transform="translate(13.040625 169.469869)scale(0.1 -0.1)">
       <use xlink:href="#ArialMT-54"/>
      </g>
     </g>
    </g>
    <g id="ytick_6">
     <g id="line2d_12">
      <path clip-path="url(#p2750707bc9)" d="M 25.601563 124.83007 
L 695.201563 124.83007 
" style="fill:none;stroke:#cccccc;stroke-linecap:round;stroke-width:0.8;"/>
     </g>
     <g id="text_13">
      <!-- 8 -->
      <g style="fill:#262626;" transform="translate(13.040625 128.408976)scale(0.1 -0.1)">
       <use xlink:href="#ArialMT-56"/>
      </g>
     </g>
    </g>
    <g id="ytick_7">
     <g id="line2d_13">
      <path clip-path="url(#p2750707bc9)" d="M 25.601563 83.769177 
L 695.201563 83.769177 
" style="fill:none;stroke:#cccccc;stroke-linecap:round;stroke-width:0.8;"/>
     </g>
     <g id="text_14">
      <!-- 10 -->
      <g style="fill:#262626;" transform="translate(7.479688 87.348083)scale(0.1 -0.1)">
       <use xlink:href="#ArialMT-49"/>
       <use x="55.615234" xlink:href="#ArialMT-48"/>
      </g>
     </g>
    </g>
    <g id="ytick_8">
     <g id="line2d_14">
      <path clip-path="url(#p2750707bc9)" d="M 25.601563 42.708283 
L 695.201563 42.708283 
" style="fill:none;stroke:#cccccc;stroke-linecap:round;stroke-width:0.8;"/>
     </g>
     <g id="text_15">
      <!-- 12 -->
      <g style="fill:#262626;" transform="translate(7.479688 46.28719)scale(0.1 -0.1)">
       <use xlink:href="#ArialMT-49"/>
       <use x="55.615234" xlink:href="#ArialMT-50"/>
      </g>
     </g>
    </g>
   </g>
   <g id="line2d_15">
    <path clip-path="url(#p2750707bc9)" d="M 56.037926 288.794715 
L 56.647263 275.800246 
L 57.256599 253.272328 
L 57.865936 242.202134 
L 58.475273 247.793374 
L 59.084609 240.619258 
L 59.693946 244.83124 
L 60.303282 252.920541 
L 60.912619 250.678794 
L 61.521956 268.546606 
L 62.131292 262.045556 
L 62.740629 264.805715 
L 63.959302 253.131748 
L 64.568639 241.140175 
L 65.177975 240.527289 
L 65.787312 246.402652 
L 66.396648 250.953697 
L 67.005985 249.221208 
L 67.615322 272.98505 
L 68.224658 285.457307 
L 68.833995 302.558926 
L 69.443332 309.813001 
L 70.052668 325.004687 
L 70.662005 320.073629 
L 71.271341 319.427752 
L 71.880678 323.726316 
L 72.490015 312.546222 
L 73.099351 310.024699 
L 73.708688 303.889228 
L 74.318024 296.147767 
L 74.927361 309.319651 
L 75.536698 311.0869 
L 76.146034 319.566747 
L 76.755371 321.845107 
L 77.974044 333.27017 
L 78.583381 320.029054 
L 79.192717 310.07842 
L 79.802054 305.12111 
L 80.411391 290.190487 
L 81.020727 269.782207 
L 81.630064 255.90312 
L 82.2394 257.069103 
L 82.848737 243.383162 
L 83.458074 238.18378 
L 84.676747 249.266122 
L 85.286083 250.574007 
L 85.89542 252.474208 
L 86.504757 248.123468 
L 87.114093 253.694897 
L 87.72343 247.137241 
L 88.332766 252.482574 
L 89.55144 231.487293 
L 90.160776 229.08714 
L 90.770113 248.410144 
L 91.379449 237.318844 
L 91.988786 260.118102 
L 92.598123 275.630684 
L 93.207459 294.741712 
L 93.816796 299.111707 
L 94.426133 315.5961 
L 95.035469 312.787507 
L 95.644806 317.781847 
L 96.254142 316.592345 
L 96.863479 303.866285 
L 98.082152 291.003841 
L 98.691489 297.247537 
L 99.300825 300.271729 
L 99.910162 308.611868 
L 100.519499 296.007848 
L 101.128835 323.634383 
L 101.738172 324.768886 
L 102.347508 311.581055 
L 102.956845 316.003297 
L 103.566182 313.387427 
L 104.175518 286.318838 
L 104.784855 265.073995 
L 106.612865 226.111076 
L 107.222201 231.119786 
L 107.831538 214.07868 
L 108.440875 241.773178 
L 109.050211 229.15746 
L 109.659548 246.417929 
L 110.268884 247.077161 
L 110.878221 252.749898 
L 111.487558 252.421152 
L 112.096894 233.411194 
L 112.706231 223.508302 
L 113.315567 227.069136 
L 113.924904 225.062643 
L 114.534241 232.428929 
L 115.143577 229.339634 
L 115.752914 236.673929 
L 116.36225 250.115915 
L 116.971587 257.370467 
L 117.580924 287.228785 
L 118.19026 302.430931 
L 120.01827 315.046174 
L 120.627607 322.257137 
L 121.236943 304.863296 
L 121.84628 281.402862 
L 122.455617 278.730917 
L 123.064953 293.18638 
L 123.67429 292.807401 
L 124.283626 305.88614 
L 124.892963 301.985418 
L 125.5023 302.818945 
L 126.111636 314.430998 
L 126.720973 312.534589 
L 127.330309 306.867502 
L 127.939646 291.41461 
L 128.548983 283.738823 
L 129.158319 266.233161 
L 129.767656 238.786925 
L 130.376992 240.399097 
L 130.986329 230.709309 
L 131.595666 217.760457 
L 132.205002 220.055144 
L 132.814339 225.835974 
L 134.033012 232.550791 
L 134.642349 246.948382 
L 135.251685 237.452074 
L 135.861022 243.99159 
L 136.470359 228.218775 
L 137.079695 223.354892 
L 137.689032 217.394707 
L 138.298368 215.24801 
L 138.907705 218.247162 
L 139.517042 216.000678 
L 140.126378 236.702287 
L 140.735715 252.90606 
L 141.345051 259.363889 
L 141.954388 282.550542 
L 142.563725 293.381073 
L 143.173061 299.569729 
L 143.782398 295.092047 
L 144.391734 293.874507 
L 145.001071 299.379488 
L 145.610408 273.475994 
L 146.219744 285.519138 
L 146.829081 281.809323 
L 147.438418 279.492601 
L 148.047754 269.34472 
L 148.657091 293.731391 
L 149.266427 305.510983 
L 149.875764 295.251837 
L 150.485101 308.015908 
L 151.094437 306.776816 
L 151.703774 293.351982 
L 152.31311 290.649328 
L 152.922447 263.140152 
L 153.531784 260.669701 
L 154.14112 233.166616 
L 154.750457 223.093615 
L 155.359793 217.818627 
L 155.96913 223.669737 
L 156.578467 217.40076 
L 157.187803 225.547041 
L 157.79714 218.750623 
L 158.406477 220.636437 
L 159.015813 229.729031 
L 159.62515 235.186092 
L 160.234486 234.281594 
L 160.843823 227.261587 
L 161.45316 213.144403 
L 162.671833 202.773341 
L 163.281169 216.221782 
L 163.890506 221.539403 
L 164.499843 209.691656 
L 165.718516 258.056747 
L 166.327852 273.65989 
L 166.937189 282.579835 
L 167.546526 293.850956 
L 168.155862 292.694138 
L 168.765199 287.499231 
L 169.374535 292.063523 
L 169.983872 271.848902 
L 170.593209 276.155778 
L 171.202545 266.448349 
L 171.811882 259.850004 
L 173.030555 288.634327 
L 173.639892 279.411017 
L 174.249228 294.751278 
L 174.858565 287.928175 
L 175.467902 290.004399 
L 176.077238 287.773948 
L 176.686575 262.455855 
L 177.295911 262.805877 
L 177.905248 239.281005 
L 178.514585 226.528532 
L 179.123921 216.621296 
L 179.733258 210.852964 
L 180.951931 194.908077 
L 182.170604 224.447636 
L 182.779941 225.006278 
L 183.389277 222.445466 
L 183.998614 228.120576 
L 184.607951 213.061919 
L 185.217287 207.128346 
L 185.826624 211.863007 
L 186.435961 207.984346 
L 187.045297 190.77144 
L 187.654634 211.033011 
L 188.26397 197.72928 
L 188.873307 211.865055 
L 190.09198 259.216934 
L 191.310653 268.83619 
L 191.91999 278.663521 
L 192.529327 291.726353 
L 193.138663 283.456505 
L 193.748 271.535544 
L 194.357336 270.358388 
L 194.966673 274.303055 
L 195.57601 251.143354 
L 196.794683 267.372008 
L 197.40402 282.931486 
L 198.013356 289.662042 
L 198.622693 293.071956 
L 199.232029 290.222889 
L 199.841366 280.903363 
L 200.450703 276.170552 
L 201.060039 262.36377 
L 201.669376 252.030017 
L 202.278712 246.492844 
L 202.888049 225.278759 
L 203.497386 197.316379 
L 204.106722 195.558184 
L 204.716059 197.902523 
L 205.325395 209.827257 
L 205.934732 209.403916 
L 206.544069 198.173396 
L 207.153405 212.70017 
L 207.762742 213.630895 
L 208.372078 222.27364 
L 208.981415 207.140928 
L 209.590752 217.785669 
L 210.200088 196.0864 
L 210.809425 180.223538 
L 211.418762 189.884011 
L 212.028098 186.867945 
L 213.856108 235.56164 
L 214.465445 233.936753 
L 215.684118 262.838223 
L 216.293454 266.507075 
L 216.902791 268.199019 
L 217.512128 268.601693 
L 218.121464 263.583731 
L 218.730801 261.720106 
L 219.340137 257.627639 
L 219.949474 249.022855 
L 220.558811 263.699988 
L 221.168147 259.750227 
L 221.777484 257.444155 
L 222.38682 263.639485 
L 222.996157 282.194949 
L 223.605494 289.020267 
L 224.21483 273.487941 
L 224.824167 265.338486 
L 225.433504 267.536249 
L 226.04284 238.5965 
L 226.652177 226.517523 
L 227.261513 211.397797 
L 227.87085 210.76768 
L 228.480187 191.587644 
L 229.089523 194.875928 
L 229.69886 187.699751 
L 230.308196 202.602801 
L 230.917533 200.782241 
L 231.52687 209.613709 
L 232.136206 206.286998 
L 232.745543 214.98326 
L 233.354879 194.281351 
L 233.964216 208.915473 
L 234.573553 186.493158 
L 235.182889 183.130691 
L 235.792226 186.713962 
L 236.401563 179.837482 
L 237.010899 194.477499 
L 237.620236 201.798369 
L 238.229572 223.688667 
L 238.838909 227.02416 
L 239.448246 253.986566 
L 240.057582 257.874445 
L 240.666919 270.201681 
L 241.276255 269.581798 
L 241.885592 250.52223 
L 242.494929 254.311121 
L 243.104265 256.139359 
L 243.713602 240.695471 
L 244.322938 246.794686 
L 244.932275 244.602725 
L 245.541612 257.905227 
L 246.150948 264.42412 
L 247.369621 265.750036 
L 247.978958 279.176538 
L 248.588295 269.28128 
L 249.197631 256.223431 
L 250.416305 240.925441 
L 251.025641 224.381234 
L 251.634978 198.690906 
L 252.244314 193.454574 
L 252.853651 190.168389 
L 253.462988 193.031976 
L 254.072324 193.656486 
L 254.681661 185.791562 
L 255.290997 182.471009 
L 255.900334 196.345964 
L 256.509671 204.540789 
L 257.119007 207.640478 
L 257.728344 200.463011 
L 258.33768 188.483645 
L 258.947017 182.276996 
L 259.556354 172.687114 
L 260.16569 167.438443 
L 260.775027 185.254996 
L 261.384363 186.793566 
L 261.9937 206.939723 
L 262.603037 213.915849 
L 263.212373 216.569983 
L 263.82171 250.619506 
L 264.431047 242.987394 
L 265.040383 266.519466 
L 265.64972 270.294751 
L 266.259056 245.733853 
L 266.868393 247.852604 
L 267.47773 249.079013 
L 268.087066 237.954572 
L 268.696403 237.872821 
L 269.305739 237.509275 
L 269.915076 244.126633 
L 270.524413 246.806395 
L 271.133749 259.338366 
L 271.743086 254.036198 
L 272.352422 269.070289 
L 273.571096 257.732213 
L 274.789769 222.601219 
L 276.008442 194.215012 
L 277.227115 179.78915 
L 277.836452 188.34272 
L 278.445789 178.135682 
L 279.055125 173.007816 
L 280.273798 195.406612 
L 280.883135 186.121605 
L 281.492472 185.868405 
L 282.101808 183.75827 
L 282.711145 178.236192 
L 283.320481 163.371674 
L 283.929818 168.036657 
L 284.539155 175.484617 
L 285.148491 178.454085 
L 286.367164 190.363144 
L 286.976501 197.596391 
L 288.804511 252.350074 
L 289.413848 244.592354 
L 290.023184 256.158386 
L 290.632521 242.155603 
L 291.241857 235.65217 
L 291.851194 234.773083 
L 292.460531 228.394641 
L 293.069867 223.453611 
L 293.679204 237.767031 
L 294.28854 248.383016 
L 294.897877 244.307562 
L 295.507214 244.063541 
L 296.11655 242.967179 
L 296.725887 250.460532 
L 297.335223 250.141355 
L 298.553897 231.220366 
L 299.163233 207.268558 
L 299.77257 197.150075 
L 300.381906 182.36979 
L 300.991243 184.526011 
L 301.60058 164.042419 
L 302.819253 176.859601 
L 303.42859 170.247968 
L 304.037926 180.409012 
L 304.647263 196.326595 
L 305.256599 182.560243 
L 305.865936 178.400171 
L 306.475273 176.061791 
L 307.084609 159.747639 
L 307.693946 158.889615 
L 308.303282 160.196345 
L 308.912619 146.568876 
L 309.521956 158.779731 
L 310.131292 165.836463 
L 310.740629 171.102884 
L 311.959302 212.467149 
L 312.568639 222.309861 
L 313.177975 223.716203 
L 313.787312 236.706843 
L 314.396648 238.249014 
L 315.005985 230.921513 
L 315.615322 231.867801 
L 316.224658 218.998554 
L 316.833995 220.29169 
L 317.443332 222.730932 
L 318.052668 206.437704 
L 318.662005 234.277504 
L 319.271341 233.593649 
L 319.880678 246.9552 
L 320.490015 257.712811 
L 321.099351 256.768265 
L 321.708688 251.951385 
L 322.927361 215.217992 
L 323.536698 212.637324 
L 324.146034 187.822029 
L 325.364707 162.516442 
L 325.974044 160.577619 
L 326.583381 161.78822 
L 327.192717 159.773187 
L 327.802054 169.952009 
L 328.411391 173.924984 
L 329.020727 172.810211 
L 329.630064 180.479076 
L 330.2394 177.27407 
L 330.848737 169.49959 
L 331.458074 166.449066 
L 332.06741 162.085826 
L 332.676747 148.619644 
L 333.286083 153.796144 
L 333.89542 143.689556 
L 335.114093 181.129148 
L 335.72343 180.193945 
L 336.332766 196.632786 
L 336.942103 206.588029 
L 338.160776 220.566842 
L 338.770113 231.392291 
L 339.379449 231.266617 
L 339.988786 217.280752 
L 340.598123 214.606152 
L 341.207459 217.120907 
L 341.816796 210.167731 
L 342.426133 215.235557 
L 343.035469 224.610637 
L 343.644806 227.883775 
L 344.254142 235.235363 
L 344.863479 238.205611 
L 345.472816 226.280628 
L 346.082152 230.389097 
L 346.691489 226.709213 
L 347.300825 219.575309 
L 347.910162 195.201732 
L 348.519499 186.611572 
L 349.128835 166.767305 
L 349.738172 151.01429 
L 350.347508 157.982788 
L 350.956845 156.211564 
L 351.566182 158.03913 
L 352.175518 168.810362 
L 352.784855 164.045436 
L 353.394191 160.185555 
L 354.003528 174.352487 
L 354.612865 171.185901 
L 355.831538 149.236989 
L 356.440875 140.45902 
L 357.050211 140.534473 
L 357.659548 131.765491 
L 358.268884 141.044346 
L 358.878221 160.647298 
L 359.487558 168.951251 
L 361.924904 215.001237 
L 362.534241 222.291365 
L 363.143577 221.708188 
L 363.752914 219.653794 
L 364.36225 207.57834 
L 364.971587 202.765411 
L 365.580924 203.055733 
L 366.19026 206.348102 
L 366.799597 202.796492 
L 367.408934 215.28685 
L 368.01827 221.176261 
L 369.236943 229.783946 
L 369.84628 240.732134 
L 371.064953 216.19422 
L 371.67429 186.257006 
L 372.283626 190.029382 
L 372.892963 171.679885 
L 373.5023 158.819373 
L 374.111636 152.585974 
L 374.720973 154.370542 
L 375.330309 151.21711 
L 375.939646 154.451471 
L 376.548983 158.419204 
L 377.158319 156.137143 
L 377.767656 159.461143 
L 378.376992 163.519023 
L 378.986329 149.903058 
L 379.595666 150.553223 
L 380.205002 137.501029 
L 380.814339 136.96571 
L 381.423676 132.927296 
L 382.033012 132.658884 
L 382.642349 125.273515 
L 383.251685 159.636785 
L 383.861022 153.486302 
L 384.470359 177.163619 
L 385.079695 190.565535 
L 385.689032 195.970618 
L 386.298368 212.384762 
L 386.907705 214.423217 
L 387.517042 210.014318 
L 388.126378 198.813735 
L 388.735715 199.43632 
L 389.345051 197.947784 
L 389.954388 196.892873 
L 390.563725 196.229385 
L 391.173061 199.596307 
L 391.782398 210.65002 
L 392.391734 211.030168 
L 393.610408 226.432703 
L 394.219744 221.482255 
L 395.438418 214.777404 
L 396.657091 174.548666 
L 397.266427 155.617695 
L 397.875764 157.428659 
L 399.094437 135.504031 
L 399.703774 142.131173 
L 400.31311 138.526964 
L 400.922447 150.226931 
L 401.531784 152.208567 
L 402.14112 141.873286 
L 402.750457 142.586616 
L 403.359793 150.986857 
L 403.96913 135.869247 
L 404.578467 128.28732 
L 405.187803 126.967352 
L 405.79714 126.579534 
L 406.406477 128.748737 
L 407.015813 127.334569 
L 407.62515 144.310034 
L 408.234486 141.789059 
L 408.843823 166.301992 
L 410.062496 198.286886 
L 410.671833 196.139859 
L 411.281169 204.891537 
L 411.890506 196.022451 
L 412.499843 204.165757 
L 413.109179 184.846927 
L 413.718516 184.449454 
L 414.327852 188.835975 
L 414.937189 190.220714 
L 415.546526 190.1737 
L 416.155862 193.546875 
L 416.765199 213.987828 
L 417.374535 220.803942 
L 417.983872 212.022265 
L 418.593209 220.709935 
L 419.202545 194.699839 
L 419.811882 203.615331 
L 420.421219 190.742189 
L 421.030555 169.816122 
L 422.249228 137.057207 
L 422.858565 131.288264 
L 423.467902 136.432719 
L 424.077238 124.166174 
L 424.686575 130.214859 
L 425.295911 140.157438 
L 425.905248 144.722342 
L 426.514585 139.400113 
L 427.123921 149.274246 
L 428.342594 130.772243 
L 429.561268 103.087367 
L 430.170604 110.347376 
L 430.779941 112.871516 
L 431.389277 119.525362 
L 431.998614 135.684796 
L 432.607951 140.840833 
L 433.217287 163.684075 
L 434.435961 193.003314 
L 435.045297 199.656833 
L 435.654634 187.65401 
L 436.26397 184.286653 
L 436.873307 188.432906 
L 437.482644 187.706392 
L 438.09198 183.125283 
L 438.701317 177.327882 
L 440.529327 193.337183 
L 441.138663 203.94215 
L 441.748 204.308036 
L 442.357336 212.880148 
L 442.966673 210.969932 
L 443.57601 205.688207 
L 444.185346 187.250904 
L 444.794683 173.033806 
L 445.40402 153.47922 
L 446.013356 146.450761 
L 446.622693 137.651135 
L 447.232029 121.132126 
L 447.841366 123.450259 
L 448.450703 115.246266 
L 449.060039 129.201457 
L 449.669376 123.215216 
L 450.278712 132.969484 
L 450.888049 132.901503 
L 451.497386 136.072403 
L 452.106722 132.535967 
L 452.716059 116.259666 
L 453.325395 114.881367 
L 453.934732 118.157309 
L 454.544069 109.68568 
L 455.153405 109.559544 
L 455.762742 110.240476 
L 456.372078 129.208068 
L 456.981415 135.024189 
L 457.590752 143.53701 
L 458.200088 166.239964 
L 458.809425 181.028992 
L 459.418762 186.405418 
L 460.028098 181.950559 
L 460.637435 183.864404 
L 461.246771 176.545197 
L 461.856108 173.100935 
L 462.465445 179.326882 
L 463.074781 166.768461 
L 464.293454 180.606219 
L 464.902791 189.400323 
L 465.512128 203.875231 
L 466.121464 197.008234 
L 466.730801 208.96964 
L 467.340137 194.339755 
L 467.949474 195.337379 
L 468.558811 164.869018 
L 469.168147 171.139706 
L 469.777484 153.415221 
L 470.38682 125.973787 
L 470.996157 122.351658 
L 471.605494 114.629033 
L 472.21483 111.673931 
L 472.824167 124.318129 
L 473.433504 127.172207 
L 474.04284 122.750664 
L 474.652177 129.784608 
L 475.261513 122.69453 
L 475.87085 130.632669 
L 476.480187 121.752205 
L 477.089523 109.950717 
L 477.69886 91.571513 
L 478.308196 108.337805 
L 478.917533 91.575456 
L 479.52687 93.322597 
L 480.136206 105.195723 
L 480.745543 105.551164 
L 481.354879 142.302079 
L 481.964216 140.963263 
L 482.573553 167.170336 
L 483.182889 181.709003 
L 483.792226 182.206683 
L 484.401562 177.834092 
L 485.620236 161.077047 
L 486.229572 171.650207 
L 486.838909 155.759255 
L 487.448246 162.597714 
L 488.057582 163.995423 
L 488.666919 170.244997 
L 489.276255 173.838328 
L 489.885592 187.231557 
L 490.494929 191.297634 
L 491.104265 187.035351 
L 491.713602 189.138495 
L 492.322938 184.541912 
L 492.932275 162.316369 
L 493.541612 153.996675 
L 494.760285 123.361939 
L 495.369621 119.937353 
L 495.978958 105.13367 
L 497.197631 111.608737 
L 497.806968 118.752457 
L 498.416305 115.645083 
L 499.025641 125.751534 
L 499.634978 128.885625 
L 500.853651 115.634873 
L 501.462988 109.694908 
L 502.681661 82.35596 
L 503.290997 80.054321 
L 503.900334 75.710419 
L 504.509671 98.425328 
L 505.119007 100.041725 
L 505.728344 120.863959 
L 506.33768 146.923235 
L 506.947017 158.932761 
L 507.556354 149.864073 
L 508.16569 164.981212 
L 508.775027 168.854043 
L 509.384363 156.918897 
L 509.9937 164.089517 
L 510.603037 159.736275 
L 511.212373 156.29789 
L 511.82171 157.336759 
L 512.431047 161.119431 
L 513.64972 170.805535 
L 514.259056 172.971223 
L 514.868393 187.190033 
L 515.47773 182.066881 
L 516.087066 191.731422 
L 516.696403 170.994578 
L 517.305739 166.144188 
L 517.915076 142.349815 
L 518.524413 135.194373 
L 519.133749 118.409234 
L 520.352422 93.900311 
L 520.961759 98.826958 
L 521.571096 87.85287 
L 522.180432 106.044462 
L 522.789769 111.740153 
L 523.399105 114.589838 
L 524.008442 120.386229 
L 524.617779 106.410953 
L 525.227115 99.755003 
L 525.836452 102.4557 
L 526.445789 91.097144 
L 527.055125 76.906287 
L 527.664462 82.283928 
L 528.273798 79.066145 
L 528.883135 87.445759 
L 529.492472 109.51847 
L 530.101808 119.935907 
L 530.711145 137.373528 
L 531.320481 149.147845 
L 531.929818 146.19635 
L 532.539155 154.074601 
L 533.148491 156.257426 
L 533.757828 163.293101 
L 534.367164 162.041212 
L 534.976501 150.37415 
L 535.585838 156.489981 
L 536.195174 149.782383 
L 536.804511 144.81685 
L 537.413848 154.526422 
L 538.023184 159.689765 
L 539.241857 181.3237 
L 539.851194 186.997971 
L 541.069867 161.194862 
L 541.679204 155.24807 
L 542.28854 141.803592 
L 542.897877 116.103802 
L 543.507214 100.280012 
L 544.11655 100.869365 
L 544.725887 87.735211 
L 545.335223 94.143444 
L 545.94456 80.880823 
L 546.553897 94.260148 
L 547.163233 100.231765 
L 547.77257 114.582506 
L 548.381906 95.106629 
L 548.991243 94.066414 
L 549.60058 88.537156 
L 550.819253 71.967694 
L 551.42859 79.527563 
L 552.037926 63.327585 
L 552.647263 81.374949 
L 553.256599 79.396844 
L 553.865936 98.409751 
L 554.475273 112.808141 
L 555.084609 131.510287 
L 555.693946 134.859942 
L 556.303282 147.315917 
L 556.912619 148.464345 
L 557.521956 142.302219 
L 558.131292 144.77224 
L 558.740629 140.235422 
L 559.349965 131.553615 
L 559.959302 139.561965 
L 560.568639 122.103731 
L 561.177975 152.3123 
L 561.787312 156.270285 
L 562.396648 161.082678 
L 563.005985 160.300406 
L 563.615322 172.288733 
L 564.224658 169.038988 
L 564.833995 163.976742 
L 565.443332 162.516772 
L 566.052668 150.378258 
L 566.662005 135.307667 
L 567.271341 110.637782 
L 567.880678 104.410132 
L 569.099351 80.76053 
L 570.927361 85.813018 
L 571.536698 91.108211 
L 572.146034 94.776248 
L 572.755371 93.390184 
L 573.364707 91.231741 
L 573.974044 90.988066 
L 574.583381 77.376253 
L 575.192717 57.975635 
L 575.802054 53.435918 
L 576.411391 57.26876 
L 577.020727 70.507059 
L 577.630064 78.201802 
L 578.2394 95.381239 
L 578.848737 88.583661 
L 579.458074 117.511079 
L 580.676747 143.385229 
L 581.286083 142.276825 
L 581.89542 132.137971 
L 582.504757 135.861994 
L 583.114093 124.79174 
L 583.72343 136.225303 
L 584.332766 132.745075 
L 584.942103 124.046804 
L 585.55144 142.256788 
L 586.160776 141.1297 
L 586.770113 157.629896 
L 587.379449 157.243347 
L 587.988786 153.429428 
L 588.598123 179.705709 
L 589.207459 160.822724 
L 590.426133 128.954073 
L 591.035469 124.248499 
L 591.644806 105.607609 
L 592.254142 92.820695 
L 592.863479 84.442301 
L 593.472816 66.896519 
L 594.082152 82.20401 
L 594.691489 86.637088 
L 595.300825 80.081142 
L 595.910162 80.500307 
L 596.519499 77.889354 
L 597.128835 90.177513 
L 597.738172 82.598097 
L 598.347508 80.805428 
L 598.956845 55.876422 
L 599.566182 57.204446 
L 600.175518 57.133104 
L 600.784855 52.166591 
L 601.394191 53.868789 
L 602.003528 64.133366 
L 602.612865 77.07605 
L 603.831538 106.26185 
L 605.050211 136.405981 
L 605.659548 126.664693 
L 606.268884 118.975239 
L 606.878221 129.528784 
L 607.487558 120.75484 
L 608.096894 131.557395 
L 608.706231 115.799279 
L 609.315567 114.698071 
L 609.924904 128.463264 
L 610.534241 139.234033 
L 611.143577 147.937982 
L 611.752914 143.738476 
L 612.36225 154.187391 
L 612.971587 152.682039 
L 613.580924 146.901893 
L 614.19026 137.033386 
L 614.799597 132.409073 
L 615.408934 112.333777 
L 616.627607 81.847447 
L 617.236943 71.254235 
L 618.455617 68.308398 
L 619.064953 80.53087 
L 619.67429 82.246495 
L 620.283626 90.535579 
L 620.892963 84.982797 
L 621.5023 80.599579 
L 622.111636 83.480879 
L 622.720973 65.690752 
L 623.330309 52.698373 
L 623.939646 56.656255 
L 624.548983 49.516011 
L 625.158319 46.814925 
L 626.376992 59.818356 
L 626.986329 76.000775 
L 627.595666 96.297809 
L 628.205002 105.788666 
L 628.814339 113.510088 
L 629.423676 116.365739 
L 630.033012 133.389459 
L 630.642349 125.776709 
L 631.251685 121.055415 
L 631.861022 125.323707 
L 632.470359 110.455304 
L 633.079695 106.56053 
L 633.689032 112.374329 
L 634.298368 124.809874 
L 634.907705 116.679588 
L 635.517042 126.731611 
L 636.126378 130.160053 
L 636.735715 150.93958 
L 637.345051 150.011398 
L 637.954388 149.428483 
L 638.563725 136.342627 
L 639.173061 114.236468 
L 639.782398 105.716555 
L 640.391734 91.863076 
L 641.001071 71.689504 
L 641.610408 63.189261 
L 642.219744 47.989987 
L 643.438418 53.916292 
L 644.047754 76.248015 
L 644.657091 65.272015 
L 645.266427 70.933097 
L 645.875764 78.281346 
L 646.485101 66.475129 
L 647.094437 65.803093 
L 647.703774 43.35545 
L 648.31311 38.882741 
L 648.922447 41.578385 
L 649.531784 47.07375 
L 650.14112 36.76108 
L 650.750457 47.319225 
L 651.359793 68.312367 
L 651.96913 78.073914 
L 652.578467 100.385253 
L 653.187803 101.928873 
L 653.79714 104.306332 
L 654.406477 107.552123 
L 655.015813 122.903514 
L 655.62515 109.136396 
L 656.234486 111.008999 
L 656.843823 106.732624 
L 657.45316 96.285064 
L 658.062496 97.624476 
L 658.671833 114.600769 
L 659.281169 121.908467 
L 659.890506 127.511987 
L 660.499843 143.578503 
L 661.109179 141.366361 
L 661.718516 138.16278 
L 662.327852 124.47388 
L 662.937189 131.86252 
L 664.765199 74.678377 
L 664.765199 74.678377 
" style="fill:none;stroke:#4c72b0;stroke-linecap:round;stroke-width:1.5;"/>
   </g>
   <g id="patch_3">
    <path d="M 25.601563 348.095625 
L 25.601563 21.935625 
" style="fill:none;stroke:#ffffff;stroke-linecap:square;stroke-linejoin:miter;stroke-width:0.8;"/>
   </g>
   <g id="patch_4">
    <path d="M 695.201563 348.095625 
L 695.201563 21.935625 
" style="fill:none;stroke:#ffffff;stroke-linecap:square;stroke-linejoin:miter;stroke-width:0.8;"/>
   </g>
   <g id="patch_5">
    <path d="M 25.601563 348.095625 
L 695.201563 348.095625 
" style="fill:none;stroke:#ffffff;stroke-linecap:square;stroke-linejoin:miter;stroke-width:0.8;"/>
   </g>
   <g id="patch_6">
    <path d="M 25.601563 21.935625 
L 695.201563 21.935625 
" style="fill:none;stroke:#ffffff;stroke-linecap:square;stroke-linejoin:miter;stroke-width:0.8;"/>
   </g>
   <g id="text_16">
    <!-- Sample Data 3 -->
    <defs>
     <path d="M 4.5 23 
L 13.421875 23.78125 
Q 14.0625 18.40625 16.375 14.96875 
Q 18.703125 11.53125 23.578125 9.40625 
Q 28.46875 7.28125 34.578125 7.28125 
Q 39.984375 7.28125 44.140625 8.890625 
Q 48.296875 10.5 50.3125 13.296875 
Q 52.34375 16.109375 52.34375 19.4375 
Q 52.34375 22.796875 50.390625 25.3125 
Q 48.4375 27.828125 43.953125 29.546875 
Q 41.0625 30.671875 31.203125 33.03125 
Q 21.34375 35.40625 17.390625 37.5 
Q 12.25 40.1875 9.734375 44.15625 
Q 7.234375 48.140625 7.234375 53.078125 
Q 7.234375 58.5 10.296875 63.203125 
Q 13.375 67.921875 19.28125 70.359375 
Q 25.203125 72.796875 32.421875 72.796875 
Q 40.375 72.796875 46.453125 70.234375 
Q 52.546875 67.671875 55.8125 62.6875 
Q 59.078125 57.71875 59.328125 51.421875 
L 50.25 50.734375 
Q 49.515625 57.515625 45.28125 60.984375 
Q 41.0625 64.453125 32.8125 64.453125 
Q 24.21875 64.453125 20.28125 61.296875 
Q 16.359375 58.15625 16.359375 53.71875 
Q 16.359375 49.859375 19.140625 47.359375 
Q 21.875 44.875 33.421875 42.265625 
Q 44.96875 39.65625 49.265625 37.703125 
Q 55.515625 34.8125 58.484375 30.390625 
Q 61.46875 25.984375 61.46875 20.21875 
Q 61.46875 14.5 58.203125 9.4375 
Q 54.9375 4.390625 48.796875 1.578125 
Q 42.671875 -1.21875 35.015625 -1.21875 
Q 25.296875 -1.21875 18.71875 1.609375 
Q 12.15625 4.4375 8.421875 10.125 
Q 4.6875 15.828125 4.5 23 
z
" id="ArialMT-83"/>
     <path d="M 40.4375 6.390625 
Q 35.546875 2.25 31.03125 0.53125 
Q 26.515625 -1.171875 21.34375 -1.171875 
Q 12.796875 -1.171875 8.203125 3 
Q 3.609375 7.171875 3.609375 13.671875 
Q 3.609375 17.484375 5.34375 20.625 
Q 7.078125 23.78125 9.890625 25.6875 
Q 12.703125 27.59375 16.21875 28.5625 
Q 18.796875 29.25 24.03125 29.890625 
Q 34.671875 31.15625 39.703125 32.90625 
Q 39.75 34.71875 39.75 35.203125 
Q 39.75 40.578125 37.25 42.78125 
Q 33.890625 45.75 27.25 45.75 
Q 21.046875 45.75 18.09375 43.578125 
Q 15.140625 41.40625 13.71875 35.890625 
L 5.125 37.0625 
Q 6.296875 42.578125 8.984375 45.96875 
Q 11.671875 49.359375 16.75 51.1875 
Q 21.828125 53.03125 28.515625 53.03125 
Q 35.15625 53.03125 39.296875 51.46875 
Q 43.453125 49.90625 45.40625 47.53125 
Q 47.359375 45.171875 48.140625 41.546875 
Q 48.578125 39.3125 48.578125 33.453125 
L 48.578125 21.734375 
Q 48.578125 9.46875 49.140625 6.21875 
Q 49.703125 2.984375 51.375 0 
L 42.1875 0 
Q 40.828125 2.734375 40.4375 6.390625 
z
M 39.703125 26.03125 
Q 34.90625 24.078125 25.34375 22.703125 
Q 19.921875 21.921875 17.671875 20.9375 
Q 15.4375 19.96875 14.203125 18.09375 
Q 12.984375 16.21875 12.984375 13.921875 
Q 12.984375 10.40625 15.640625 8.0625 
Q 18.3125 5.71875 23.4375 5.71875 
Q 28.515625 5.71875 32.46875 7.9375 
Q 36.421875 10.15625 38.28125 14.015625 
Q 39.703125 17 39.703125 22.796875 
z
" id="ArialMT-97"/>
     <path d="M 6.59375 0 
L 6.59375 51.859375 
L 14.453125 51.859375 
L 14.453125 44.578125 
Q 16.890625 48.390625 20.9375 50.703125 
Q 25 53.03125 30.171875 53.03125 
Q 35.9375 53.03125 39.625 50.640625 
Q 43.3125 48.25 44.828125 43.953125 
Q 50.984375 53.03125 60.84375 53.03125 
Q 68.5625 53.03125 72.703125 48.75 
Q 76.859375 44.484375 76.859375 35.59375 
L 76.859375 0 
L 68.109375 0 
L 68.109375 32.671875 
Q 68.109375 37.9375 67.25 40.25 
Q 66.40625 42.578125 64.15625 43.984375 
Q 61.921875 45.40625 58.890625 45.40625 
Q 53.421875 45.40625 49.796875 41.765625 
Q 46.1875 38.140625 46.1875 30.125 
L 46.1875 0 
L 37.40625 0 
L 37.40625 33.6875 
Q 37.40625 39.546875 35.25 42.46875 
Q 33.109375 45.40625 28.21875 45.40625 
Q 24.515625 45.40625 21.359375 43.453125 
Q 18.21875 41.5 16.796875 37.734375 
Q 15.375 33.984375 15.375 26.90625 
L 15.375 0 
z
" id="ArialMT-109"/>
     <path d="M 6.59375 -19.875 
L 6.59375 51.859375 
L 14.59375 51.859375 
L 14.59375 45.125 
Q 17.4375 49.078125 21 51.046875 
Q 24.5625 53.03125 29.640625 53.03125 
Q 36.28125 53.03125 41.359375 49.609375 
Q 46.4375 46.1875 49.015625 39.953125 
Q 51.609375 33.734375 51.609375 26.3125 
Q 51.609375 18.359375 48.75 11.984375 
Q 45.90625 5.609375 40.453125 2.21875 
Q 35.015625 -1.171875 29 -1.171875 
Q 24.609375 -1.171875 21.109375 0.6875 
Q 17.625 2.546875 15.375 5.375 
L 15.375 -19.875 
z
M 14.546875 25.640625 
Q 14.546875 15.625 18.59375 10.84375 
Q 22.65625 6.0625 28.421875 6.0625 
Q 34.28125 6.0625 38.453125 11.015625 
Q 42.625 15.96875 42.625 26.375 
Q 42.625 36.28125 38.546875 41.203125 
Q 34.46875 46.140625 28.8125 46.140625 
Q 23.1875 46.140625 18.859375 40.890625 
Q 14.546875 35.640625 14.546875 25.640625 
z
" id="ArialMT-112"/>
     <path d="M 6.390625 0 
L 6.390625 71.578125 
L 15.1875 71.578125 
L 15.1875 0 
z
" id="ArialMT-108"/>
     <path d="M 42.09375 16.703125 
L 51.171875 15.578125 
Q 49.03125 7.625 43.21875 3.21875 
Q 37.40625 -1.171875 28.375 -1.171875 
Q 17 -1.171875 10.328125 5.828125 
Q 3.65625 12.84375 3.65625 25.484375 
Q 3.65625 38.578125 10.390625 45.796875 
Q 17.140625 53.03125 27.875 53.03125 
Q 38.28125 53.03125 44.875 45.953125 
Q 51.46875 38.875 51.46875 26.03125 
Q 51.46875 25.25 51.421875 23.6875 
L 12.75 23.6875 
Q 13.234375 15.140625 17.578125 10.59375 
Q 21.921875 6.0625 28.421875 6.0625 
Q 33.25 6.0625 36.671875 8.59375 
Q 40.09375 11.140625 42.09375 16.703125 
z
M 13.234375 30.90625 
L 42.1875 30.90625 
Q 41.609375 37.453125 38.875 40.71875 
Q 34.671875 45.796875 27.984375 45.796875 
Q 21.921875 45.796875 17.796875 41.75 
Q 13.671875 37.703125 13.234375 30.90625 
z
" id="ArialMT-101"/>
     <path id="ArialMT-32"/>
     <path d="M 7.71875 0 
L 7.71875 71.578125 
L 32.375 71.578125 
Q 40.71875 71.578125 45.125 70.5625 
Q 51.265625 69.140625 55.609375 65.4375 
Q 61.28125 60.640625 64.078125 53.1875 
Q 66.890625 45.75 66.890625 36.1875 
Q 66.890625 28.03125 64.984375 21.734375 
Q 63.09375 15.4375 60.109375 11.296875 
Q 57.125 7.171875 53.578125 4.796875 
Q 50.046875 2.4375 45.046875 1.21875 
Q 40.046875 0 33.546875 0 
z
M 17.1875 8.453125 
L 32.46875 8.453125 
Q 39.546875 8.453125 43.578125 9.765625 
Q 47.609375 11.078125 50 13.484375 
Q 53.375 16.84375 55.25 22.53125 
Q 57.125 28.21875 57.125 36.328125 
Q 57.125 47.5625 53.4375 53.59375 
Q 49.75 59.625 44.484375 61.671875 
Q 40.671875 63.140625 32.234375 63.140625 
L 17.1875 63.140625 
z
" id="ArialMT-68"/>
     <path d="M 4.203125 18.890625 
L 12.984375 20.0625 
Q 14.5 12.59375 18.140625 9.296875 
Q 21.78125 6 27 6 
Q 33.203125 6 37.46875 10.296875 
Q 41.75 14.59375 41.75 20.953125 
Q 41.75 27 37.796875 30.921875 
Q 33.84375 34.859375 27.734375 34.859375 
Q 25.25 34.859375 21.53125 33.890625 
L 22.515625 41.609375 
Q 23.390625 41.5 23.921875 41.5 
Q 29.546875 41.5 34.03125 44.421875 
Q 38.53125 47.359375 38.53125 53.46875 
Q 38.53125 58.296875 35.25 61.46875 
Q 31.984375 64.65625 26.8125 64.65625 
Q 21.6875 64.65625 18.265625 61.421875 
Q 14.84375 58.203125 13.875 51.765625 
L 5.078125 53.328125 
Q 6.6875 62.15625 12.390625 67.015625 
Q 18.109375 71.875 26.609375 71.875 
Q 32.46875 71.875 37.390625 69.359375 
Q 42.328125 66.84375 44.9375 62.5 
Q 47.5625 58.15625 47.5625 53.265625 
Q 47.5625 48.640625 45.0625 44.828125 
Q 42.578125 41.015625 37.703125 38.765625 
Q 44.046875 37.3125 47.5625 32.6875 
Q 51.078125 28.078125 51.078125 21.140625 
Q 51.078125 11.765625 44.234375 5.25 
Q 37.40625 -1.265625 26.953125 -1.265625 
Q 17.53125 -1.265625 11.296875 4.34375 
Q 5.078125 9.96875 4.203125 18.890625 
z
" id="ArialMT-51"/>
    </defs>
    <g style="fill:#262626;" transform="translate(320.715312 15.935625)scale(0.12 -0.12)">
     <use xlink:href="#ArialMT-83"/>
     <use x="66.699219" xlink:href="#ArialMT-97"/>
     <use x="122.314453" xlink:href="#ArialMT-109"/>
     <use x="205.615234" xlink:href="#ArialMT-112"/>
     <use x="261.230469" xlink:href="#ArialMT-108"/>
     <use x="283.447266" xlink:href="#ArialMT-101"/>
     <use x="339.0625" xlink:href="#ArialMT-32"/>
     <use x="366.845703" xlink:href="#ArialMT-68"/>
     <use x="439.0625" xlink:href="#ArialMT-97"/>
     <use x="494.677734" xlink:href="#ArialMT-116"/>
     <use x="522.460938" xlink:href="#ArialMT-97"/>
     <use x="578.076172" xlink:href="#ArialMT-32"/>
     <use x="605.859375" xlink:href="#ArialMT-51"/>
    </g>
   </g>
   <g id="legend_1">
    <g id="patch_7">
     <path d="M 702.201563 193.661719 
L 744.7625 193.661719 
Q 746.7625 193.661719 746.7625 191.661719 
L 746.7625 178.369531 
Q 746.7625 176.369531 744.7625 176.369531 
L 702.201563 176.369531 
Q 700.201563 176.369531 700.201563 178.369531 
L 700.201563 191.661719 
Q 700.201563 193.661719 702.201563 193.661719 
z
" style="fill:#e6e6e6;opacity:0.8;stroke:#cccccc;stroke-linejoin:miter;"/>
    </g>
    <g id="line2d_16">
     <path d="M 704.201563 184.057031 
L 724.201563 184.057031 
" style="fill:none;stroke:#4c72b0;stroke-linecap:round;stroke-width:1.5;"/>
    </g>
    <g id="line2d_17"/>
    <g id="text_17">
     <!-- y3 -->
     <defs>
      <path d="M 6.203125 -19.96875 
L 5.21875 -11.71875 
Q 8.109375 -12.5 10.25 -12.5 
Q 13.1875 -12.5 14.9375 -11.515625 
Q 16.703125 -10.546875 17.828125 -8.796875 
Q 18.65625 -7.46875 20.515625 -2.25 
Q 20.75 -1.515625 21.296875 -0.09375 
L 1.609375 51.859375 
L 11.078125 51.859375 
L 21.875 21.828125 
Q 23.96875 16.109375 25.640625 9.8125 
Q 27.15625 15.875 29.25 21.625 
L 40.328125 51.859375 
L 49.125 51.859375 
L 29.390625 -0.875 
Q 26.21875 -9.421875 24.46875 -12.640625 
Q 22.125 -17 19.09375 -19.015625 
Q 16.0625 -21.046875 11.859375 -21.046875 
Q 9.328125 -21.046875 6.203125 -19.96875 
z
" id="ArialMT-121"/>
     </defs>
     <g style="fill:#262626;" transform="translate(732.201563 187.557031)scale(0.1 -0.1)">
      <use xlink:href="#ArialMT-121"/>
      <use x="50" xlink:href="#ArialMT-51"/>
     </g>
    </g>
   </g>
  </g>
 </g>
 <defs>
  <clipPath id="p2750707bc9">
   <rect height="326.16" width="669.6" x="25.601563" y="21.935625"/>
  </clipPath>
 </defs>
</svg>
