<?xml version="1.0" encoding="utf-8" standalone="no"?>
<!DOCTYPE svg PUBLIC "-//W3C//DTD SVG 1.1//EN"
  "http://www.w3.org/Graphics/SVG/1.1/DTD/svg11.dtd">
<!-- Created with matplotlib (https://matplotlib.org/) -->
<svg height="384.58625pt" version="1.1" viewBox="0 0 753.9625 384.58625" width="753.9625pt" xmlns="http://www.w3.org/2000/svg" xmlns:xlink="http://www.w3.org/1999/xlink">
 <defs>
  <style type="text/css">
*{stroke-linecap:butt;stroke-linejoin:round;}
  </style>
 </defs>
 <g id="figure_1">
  <g id="patch_1">
   <path d="M 0 384.58625 
L 753.9625 384.58625 
L 753.9625 0 
L 0 0 
z
" style="fill:none;"/>
  </g>
  <g id="axes_1">
   <g id="patch_2">
    <path d="M 25.601563 348.095625 
L 695.201563 348.095625 
L 695.201563 21.935625 
L 25.601563 21.935625 
z
" style="fill:#e6e6e6;"/>
   </g>
   <g id="matplotlib.axis_1">
    <g id="xtick_1">
     <g id="line2d_1">
      <path clip-path="url(#p0f28371f94)" d="M 56.037926 348.095625 
L 56.037926 21.935625 
" style="fill:none;stroke:#cccccc;stroke-linecap:round;stroke-width:0.8;"/>
     </g>
     <g id="text_1">
      <!-- 0 -->
      <defs>
       <path d="M 4.15625 35.296875 
Q 4.15625 48 6.765625 55.734375 
Q 9.375 63.484375 14.515625 67.671875 
Q 19.671875 71.875 27.484375 71.875 
Q 33.25 71.875 37.59375 69.546875 
Q 41.9375 67.234375 44.765625 62.859375 
Q 47.609375 58.5 49.21875 52.21875 
Q 50.828125 45.953125 50.828125 35.296875 
Q 50.828125 22.703125 48.234375 14.96875 
Q 45.65625 7.234375 40.5 3 
Q 35.359375 -1.21875 27.484375 -1.21875 
Q 17.140625 -1.21875 11.234375 6.203125 
Q 4.15625 15.140625 4.15625 35.296875 
z
M 13.1875 35.296875 
Q 13.1875 17.671875 17.3125 11.828125 
Q 21.4375 6 27.484375 6 
Q 33.546875 6 37.671875 11.859375 
Q 41.796875 17.71875 41.796875 35.296875 
Q 41.796875 52.984375 37.671875 58.78125 
Q 33.546875 64.59375 27.390625 64.59375 
Q 21.34375 64.59375 17.71875 59.46875 
Q 13.1875 52.9375 13.1875 35.296875 
z
" id="ArialMT-48"/>
      </defs>
      <g style="fill:#262626;" transform="translate(53.257457 362.253438)scale(0.1 -0.1)">
       <use xlink:href="#ArialMT-48"/>
      </g>
     </g>
    </g>
    <g id="xtick_2">
     <g id="line2d_2">
      <path clip-path="url(#p0f28371f94)" d="M 177.905248 348.095625 
L 177.905248 21.935625 
" style="fill:none;stroke:#cccccc;stroke-linecap:round;stroke-width:0.8;"/>
     </g>
     <g id="text_2">
      <!-- 200 -->
      <defs>
       <path d="M 50.34375 8.453125 
L 50.34375 0 
L 3.03125 0 
Q 2.9375 3.171875 4.046875 6.109375 
Q 5.859375 10.9375 9.828125 15.625 
Q 13.8125 20.3125 21.34375 26.46875 
Q 33.015625 36.03125 37.109375 41.625 
Q 41.21875 47.21875 41.21875 52.203125 
Q 41.21875 57.421875 37.46875 61 
Q 33.734375 64.59375 27.734375 64.59375 
Q 21.390625 64.59375 17.578125 60.78125 
Q 13.765625 56.984375 13.71875 50.25 
L 4.6875 51.171875 
Q 5.609375 61.28125 11.65625 66.578125 
Q 17.71875 71.875 27.9375 71.875 
Q 38.234375 71.875 44.234375 66.15625 
Q 50.25 60.453125 50.25 52 
Q 50.25 47.703125 48.484375 43.546875 
Q 46.734375 39.40625 42.65625 34.8125 
Q 38.578125 30.21875 29.109375 22.21875 
Q 21.1875 15.578125 18.9375 13.203125 
Q 16.703125 10.84375 15.234375 8.453125 
z
" id="ArialMT-50"/>
      </defs>
      <g style="fill:#262626;" transform="translate(169.563842 362.253438)scale(0.1 -0.1)">
       <use xlink:href="#ArialMT-50"/>
       <use x="55.615234" xlink:href="#ArialMT-48"/>
       <use x="111.230469" xlink:href="#ArialMT-48"/>
      </g>
     </g>
    </g>
    <g id="xtick_3">
     <g id="line2d_3">
      <path clip-path="url(#p0f28371f94)" d="M 299.77257 348.095625 
L 299.77257 21.935625 
" style="fill:none;stroke:#cccccc;stroke-linecap:round;stroke-width:0.8;"/>
     </g>
     <g id="text_3">
      <!-- 400 -->
      <defs>
       <path d="M 32.328125 0 
L 32.328125 17.140625 
L 1.265625 17.140625 
L 1.265625 25.203125 
L 33.9375 71.578125 
L 41.109375 71.578125 
L 41.109375 25.203125 
L 50.78125 25.203125 
L 50.78125 17.140625 
L 41.109375 17.140625 
L 41.109375 0 
z
M 32.328125 25.203125 
L 32.328125 57.46875 
L 9.90625 25.203125 
z
" id="ArialMT-52"/>
      </defs>
      <g style="fill:#262626;" transform="translate(291.431164 362.253438)scale(0.1 -0.1)">
       <use xlink:href="#ArialMT-52"/>
       <use x="55.615234" xlink:href="#ArialMT-48"/>
       <use x="111.230469" xlink:href="#ArialMT-48"/>
      </g>
     </g>
    </g>
    <g id="xtick_4">
     <g id="line2d_4">
      <path clip-path="url(#p0f28371f94)" d="M 421.639892 348.095625 
L 421.639892 21.935625 
" style="fill:none;stroke:#cccccc;stroke-linecap:round;stroke-width:0.8;"/>
     </g>
     <g id="text_4">
      <!-- 600 -->
      <defs>
       <path d="M 49.75 54.046875 
L 41.015625 53.375 
Q 39.84375 58.546875 37.703125 60.890625 
Q 34.125 64.65625 28.90625 64.65625 
Q 24.703125 64.65625 21.53125 62.3125 
Q 17.390625 59.28125 14.984375 53.46875 
Q 12.59375 47.65625 12.5 36.921875 
Q 15.671875 41.75 20.265625 44.09375 
Q 24.859375 46.4375 29.890625 46.4375 
Q 38.671875 46.4375 44.84375 39.96875 
Q 51.03125 33.5 51.03125 23.25 
Q 51.03125 16.5 48.125 10.71875 
Q 45.21875 4.9375 40.140625 1.859375 
Q 35.0625 -1.21875 28.609375 -1.21875 
Q 17.625 -1.21875 10.6875 6.859375 
Q 3.765625 14.9375 3.765625 33.5 
Q 3.765625 54.25 11.421875 63.671875 
Q 18.109375 71.875 29.4375 71.875 
Q 37.890625 71.875 43.28125 67.140625 
Q 48.6875 62.40625 49.75 54.046875 
z
M 13.875 23.1875 
Q 13.875 18.65625 15.796875 14.5 
Q 17.71875 10.359375 21.1875 8.171875 
Q 24.65625 6 28.46875 6 
Q 34.03125 6 38.03125 10.484375 
Q 42.046875 14.984375 42.046875 22.703125 
Q 42.046875 30.125 38.078125 34.390625 
Q 34.125 38.671875 28.125 38.671875 
Q 22.171875 38.671875 18.015625 34.390625 
Q 13.875 30.125 13.875 23.1875 
z
" id="ArialMT-54"/>
      </defs>
      <g style="fill:#262626;" transform="translate(413.298485 362.253438)scale(0.1 -0.1)">
       <use xlink:href="#ArialMT-54"/>
       <use x="55.615234" xlink:href="#ArialMT-48"/>
       <use x="111.230469" xlink:href="#ArialMT-48"/>
      </g>
     </g>
    </g>
    <g id="xtick_5">
     <g id="line2d_5">
      <path clip-path="url(#p0f28371f94)" d="M 543.507214 348.095625 
L 543.507214 21.935625 
" style="fill:none;stroke:#cccccc;stroke-linecap:round;stroke-width:0.8;"/>
     </g>
     <g id="text_5">
      <!-- 800 -->
      <defs>
       <path d="M 17.671875 38.8125 
Q 12.203125 40.828125 9.5625 44.53125 
Q 6.9375 48.25 6.9375 53.421875 
Q 6.9375 61.234375 12.546875 66.546875 
Q 18.171875 71.875 27.484375 71.875 
Q 36.859375 71.875 42.578125 66.421875 
Q 48.296875 60.984375 48.296875 53.171875 
Q 48.296875 48.1875 45.671875 44.5 
Q 43.0625 40.828125 37.75 38.8125 
Q 44.34375 36.671875 47.78125 31.875 
Q 51.21875 27.09375 51.21875 20.453125 
Q 51.21875 11.28125 44.71875 5.03125 
Q 38.234375 -1.21875 27.640625 -1.21875 
Q 17.046875 -1.21875 10.546875 5.046875 
Q 4.046875 11.328125 4.046875 20.703125 
Q 4.046875 27.6875 7.59375 32.390625 
Q 11.140625 37.109375 17.671875 38.8125 
z
M 15.921875 53.71875 
Q 15.921875 48.640625 19.1875 45.40625 
Q 22.46875 42.1875 27.6875 42.1875 
Q 32.765625 42.1875 36.015625 45.375 
Q 39.265625 48.578125 39.265625 53.21875 
Q 39.265625 58.0625 35.90625 61.359375 
Q 32.5625 64.65625 27.59375 64.65625 
Q 22.5625 64.65625 19.234375 61.421875 
Q 15.921875 58.203125 15.921875 53.71875 
z
M 13.09375 20.65625 
Q 13.09375 16.890625 14.875 13.375 
Q 16.65625 9.859375 20.171875 7.921875 
Q 23.6875 6 27.734375 6 
Q 34.03125 6 38.125 10.046875 
Q 42.234375 14.109375 42.234375 20.359375 
Q 42.234375 26.703125 38.015625 30.859375 
Q 33.796875 35.015625 27.4375 35.015625 
Q 21.234375 35.015625 17.15625 30.90625 
Q 13.09375 26.8125 13.09375 20.65625 
z
" id="ArialMT-56"/>
      </defs>
      <g style="fill:#262626;" transform="translate(535.165807 362.253438)scale(0.1 -0.1)">
       <use xlink:href="#ArialMT-56"/>
       <use x="55.615234" xlink:href="#ArialMT-48"/>
       <use x="111.230469" xlink:href="#ArialMT-48"/>
      </g>
     </g>
    </g>
    <g id="xtick_6">
     <g id="line2d_6">
      <path clip-path="url(#p0f28371f94)" d="M 665.374535 348.095625 
L 665.374535 21.935625 
" style="fill:none;stroke:#cccccc;stroke-linecap:round;stroke-width:0.8;"/>
     </g>
     <g id="text_6">
      <!-- 1000 -->
      <defs>
       <path d="M 37.25 0 
L 28.46875 0 
L 28.46875 56 
Q 25.296875 52.984375 20.140625 49.953125 
Q 14.984375 46.921875 10.890625 45.40625 
L 10.890625 53.90625 
Q 18.265625 57.375 23.78125 62.296875 
Q 29.296875 67.234375 31.59375 71.875 
L 37.25 71.875 
z
" id="ArialMT-49"/>
      </defs>
      <g style="fill:#262626;" transform="translate(654.25266 362.253438)scale(0.1 -0.1)">
       <use xlink:href="#ArialMT-49"/>
       <use x="55.615234" xlink:href="#ArialMT-48"/>
       <use x="111.230469" xlink:href="#ArialMT-48"/>
       <use x="166.845703" xlink:href="#ArialMT-48"/>
      </g>
     </g>
    </g>
    <g id="text_7">
     <!-- t -->
     <defs>
      <path d="M 25.78125 7.859375 
L 27.046875 0.09375 
Q 23.34375 -0.6875 20.40625 -0.6875 
Q 15.625 -0.6875 12.984375 0.828125 
Q 10.359375 2.34375 9.28125 4.8125 
Q 8.203125 7.28125 8.203125 15.1875 
L 8.203125 45.015625 
L 1.765625 45.015625 
L 1.765625 51.859375 
L 8.203125 51.859375 
L 8.203125 64.703125 
L 16.9375 69.96875 
L 16.9375 51.859375 
L 25.78125 51.859375 
L 25.78125 45.015625 
L 16.9375 45.015625 
L 16.9375 14.703125 
Q 16.9375 10.9375 17.40625 9.859375 
Q 17.875 8.796875 18.921875 8.15625 
Q 19.96875 7.515625 21.921875 7.515625 
Q 23.390625 7.515625 25.78125 7.859375 
z
" id="ArialMT-116"/>
     </defs>
     <g style="fill:#262626;" transform="translate(359.0125 375.39875)scale(0.1 -0.1)">
      <use xlink:href="#ArialMT-116"/>
     </g>
    </g>
   </g>
   <g id="matplotlib.axis_2">
    <g id="ytick_1">
     <g id="line2d_7">
      <path clip-path="url(#p0f28371f94)" d="M 25.601563 302.448529 
L 695.201563 302.448529 
" style="fill:none;stroke:#cccccc;stroke-linecap:round;stroke-width:0.8;"/>
     </g>
     <g id="text_8">
      <!-- −2 -->
      <defs>
       <path d="M 52.828125 31.203125 
L 5.5625 31.203125 
L 5.5625 39.40625 
L 52.828125 39.40625 
z
" id="ArialMT-8722"/>
      </defs>
      <g style="fill:#262626;" transform="translate(7.2 306.027436)scale(0.1 -0.1)">
       <use xlink:href="#ArialMT-8722"/>
       <use x="58.398438" xlink:href="#ArialMT-50"/>
      </g>
     </g>
    </g>
    <g id="ytick_2">
     <g id="line2d_8">
      <path clip-path="url(#p0f28371f94)" d="M 25.601563 243.565431 
L 695.201563 243.565431 
" style="fill:none;stroke:#cccccc;stroke-linecap:round;stroke-width:0.8;"/>
     </g>
     <g id="text_9">
      <!-- −1 -->
      <g style="fill:#262626;" transform="translate(7.2 247.144337)scale(0.1 -0.1)">
       <use xlink:href="#ArialMT-8722"/>
       <use x="58.398438" xlink:href="#ArialMT-49"/>
      </g>
     </g>
    </g>
    <g id="ytick_3">
     <g id="line2d_9">
      <path clip-path="url(#p0f28371f94)" d="M 25.601563 184.682332 
L 695.201563 184.682332 
" style="fill:none;stroke:#cccccc;stroke-linecap:round;stroke-width:0.8;"/>
     </g>
     <g id="text_10">
      <!-- 0 -->
      <g style="fill:#262626;" transform="translate(13.040625 188.261238)scale(0.1 -0.1)">
       <use xlink:href="#ArialMT-48"/>
      </g>
     </g>
    </g>
    <g id="ytick_4">
     <g id="line2d_10">
      <path clip-path="url(#p0f28371f94)" d="M 25.601563 125.799233 
L 695.201563 125.799233 
" style="fill:none;stroke:#cccccc;stroke-linecap:round;stroke-width:0.8;"/>
     </g>
     <g id="text_11">
      <!-- 1 -->
      <g style="fill:#262626;" transform="translate(13.040625 129.378139)scale(0.1 -0.1)">
       <use xlink:href="#ArialMT-49"/>
      </g>
     </g>
    </g>
    <g id="ytick_5">
     <g id="line2d_11">
      <path clip-path="url(#p0f28371f94)" d="M 25.601563 66.916134 
L 695.201563 66.916134 
" style="fill:none;stroke:#cccccc;stroke-linecap:round;stroke-width:0.8;"/>
     </g>
     <g id="text_12">
      <!-- 2 -->
      <g style="fill:#262626;" transform="translate(13.040625 70.49504)scale(0.1 -0.1)">
       <use xlink:href="#ArialMT-50"/>
      </g>
     </g>
    </g>
   </g>
   <g id="line2d_12">
    <path clip-path="url(#p0f28371f94)" d="M 56.037926 183.882343 
L 56.647263 173.996226 
L 57.256599 130.897771 
L 57.865936 110.2077 
L 58.475273 124.556841 
L 59.084609 90.045154 
L 59.693946 79.122859 
L 60.303282 75.422085 
L 60.912619 44.214067 
L 61.521956 78.362085 
L 62.131292 54.172757 
L 62.740629 69.443443 
L 63.349965 70.885471 
L 63.959302 80.935314 
L 64.568639 74.567941 
L 65.177975 96.647341 
L 65.787312 128.054512 
L 66.396648 143.32265 
L 67.005985 127.871992 
L 67.615322 175.275062 
L 68.224658 184.696239 
L 68.833995 207.699485 
L 69.443332 208.598352 
L 70.052668 242.891911 
L 70.662005 232.261958 
L 71.271341 246.072026 
L 71.880678 282.91088 
L 72.490015 278.963074 
L 73.099351 297.425791 
L 73.708688 297.600684 
L 74.318024 281.482604 
L 74.927361 312.454942 
L 75.536698 299.446794 
L 76.146034 298.508849 
L 76.755371 278.264612 
L 77.364707 271.240443 
L 77.974044 275.915757 
L 78.583381 237.551646 
L 79.192717 221.264771 
L 79.802054 229.383995 
L 80.411391 214.219498 
L 81.020727 182.73546 
L 81.630064 163.572258 
L 82.2394 176.761039 
L 82.848737 134.527052 
L 83.458074 104.58921 
L 84.06741 96.645212 
L 84.676747 85.762152 
L 85.286083 65.271777 
L 85.89542 54.641133 
L 86.504757 37.894775 
L 87.114093 62.482537 
L 87.72343 63.402739 
L 88.332766 105.388785 
L 88.942103 102.658708 
L 89.55144 96.156946 
L 90.160776 102.691675 
L 90.770113 159.026041 
L 91.379449 115.553984 
L 91.988786 159.390935 
L 92.598123 177.287481 
L 93.207459 206.417976 
L 93.816796 199.938019 
L 94.426133 239.165405 
L 95.035469 235.913746 
L 95.644806 266.973187 
L 96.254142 288.691405 
L 96.863479 280.340384 
L 97.472816 285.437125 
L 98.082152 285.314831 
L 98.691489 308.02592 
L 99.300825 308.648285 
L 99.910162 313.555045 
L 100.519499 251.724037 
L 101.128835 304.36445 
L 101.738172 286.065004 
L 102.347508 236.57992 
L 102.956845 250.177609 
L 103.566182 256.093643 
L 104.175518 201.570928 
L 104.784855 168.51098 
L 105.394191 156.475871 
L 106.003528 140.944505 
L 106.612865 111.75367 
L 107.222201 121.851027 
L 107.831538 56.895073 
L 108.440875 112.08379 
L 109.050211 48.937747 
L 109.659548 74.793162 
L 110.268884 61.658334 
L 110.878221 74.94671 
L 111.487558 83.848479 
L 112.096894 49.969493 
L 112.706231 48.615819 
L 113.315567 86.486421 
L 113.924904 103.068845 
L 114.534241 136.448396 
L 115.143577 127.200589 
L 115.752914 135.422556 
L 116.36225 151.671835 
L 116.971587 145.699746 
L 117.580924 206.07711 
L 118.19026 231.601408 
L 118.799597 236.939946 
L 119.408934 256.610929 
L 120.01827 284.834306 
L 120.627607 331.210637 
L 121.236943 309.441267 
L 121.84628 266.66491 
L 122.455617 274.664039 
L 123.064953 319.636308 
L 123.67429 309.271852 
L 124.283626 326.876358 
L 124.892963 289.643071 
L 125.5023 265.683363 
L 126.111636 278.234053 
L 127.330309 248.274908 
L 127.939646 218.510796 
L 128.548983 220.333184 
L 129.158319 198.150928 
L 129.767656 145.636239 
L 130.376992 169.030412 
L 130.986329 148.593573 
L 131.595666 105.911389 
L 132.205002 95.394339 
L 132.814339 87.195765 
L 133.423676 69.995686 
L 134.033012 56.550227 
L 134.642349 83.908066 
L 135.251685 54.98481 
L 135.861022 84.800912 
L 136.470359 61.07668 
L 137.079695 74.509784 
L 137.689032 84.798602 
L 138.298368 100.155256 
L 138.907705 119.817289 
L 139.517042 111.687155 
L 140.126378 157.125464 
L 140.735715 180.596665 
L 141.345051 172.216684 
L 141.954388 213.939521 
L 143.173061 240.109855 
L 143.782398 234.621785 
L 144.391734 249.900102 
L 145.001071 291.892358 
L 145.610408 245.624392 
L 146.219744 304.002381 
L 146.829081 307.918432 
L 147.438418 303.48922 
L 148.047754 263.902489 
L 148.657091 313.091886 
L 149.266427 320.526441 
L 149.875764 265.056643 
L 150.485101 281.758656 
L 151.094437 268.92732 
L 151.703774 233.936482 
L 152.31311 241.847535 
L 152.922447 187.459035 
L 153.531784 208.491241 
L 154.14112 155.304675 
L 154.750457 144.186391 
L 155.359793 135.142369 
L 155.96913 145.118091 
L 156.578467 109.06135 
L 157.187803 107.166712 
L 157.79714 60.895225 
L 158.406477 44.000401 
L 160.234486 82.187429 
L 160.843823 84.390662 
L 161.45316 71.559179 
L 162.062496 83.932342 
L 162.671833 89.505974 
L 163.281169 137.921908 
L 163.890506 150.191781 
L 164.499843 101.185854 
L 165.109179 150.613965 
L 165.718516 189.288945 
L 166.327852 209.798608 
L 166.937189 219.301199 
L 167.546526 247.359692 
L 168.765199 257.478945 
L 169.374535 297.224895 
L 169.983872 267.119712 
L 170.593209 302.58455 
L 171.202545 288.161379 
L 171.811882 270.15107 
L 173.030555 319.49246 
L 173.639892 266.444323 
L 174.249228 284.759933 
L 174.858565 246.177201 
L 175.467902 244.080713 
L 176.077238 242.487213 
L 176.686575 186.607971 
L 177.295911 212.741677 
L 177.905248 173.418727 
L 179.733258 138.553326 
L 180.342594 106.700789 
L 180.951931 65.757248 
L 181.561268 80.156917 
L 182.170604 98.202791 
L 183.389277 59.245852 
L 183.998614 76.436875 
L 184.607951 46.665917 
L 185.217287 52.760262 
L 185.826624 94.211778 
L 186.435961 109.74261 
L 187.045297 80.102632 
L 187.654634 146.822995 
L 188.26397 104.398685 
L 188.873307 128.860725 
L 190.09198 213.465444 
L 190.701317 204.450042 
L 191.310653 202.379634 
L 191.91999 227.583746 
L 192.529327 274.893719 
L 193.138663 271.8183 
L 193.748 264.676629 
L 194.357336 288.958265 
L 194.966673 322.609133 
L 195.57601 268.437508 
L 196.185346 290.394367 
L 196.794683 301.781825 
L 197.40402 324.104256 
L 198.013356 316.629301 
L 198.622693 301.150352 
L 199.232029 274.90221 
L 199.841366 241.367235 
L 200.450703 233.878224 
L 201.060039 212.051132 
L 201.669376 208.107696 
L 202.278712 220.344277 
L 202.888049 184.010643 
L 203.497386 119.474616 
L 204.106722 117.94471 
L 204.716059 115.390965 
L 205.325395 129.685685 
L 205.934732 102.425827 
L 206.544069 43.865387 
L 207.153405 64.775748 
L 207.762742 56.963418 
L 208.372078 83.966907 
L 208.981415 55.121099 
L 209.590752 109.488349 
L 210.200088 75.278462 
L 210.809425 55.985896 
L 211.418762 102.463293 
L 212.028098 101.167266 
L 213.246771 185.503395 
L 213.856108 193.40434 
L 214.465445 161.842429 
L 215.074781 178.881162 
L 215.684118 207.796025 
L 216.293454 216.631591 
L 216.902791 232.544436 
L 217.512128 255.212906 
L 218.121464 268.204102 
L 218.730801 290.242207 
L 219.340137 300.018224 
L 219.949474 286.399163 
L 220.558811 326.80743 
L 221.777484 271.926834 
L 222.38682 262.793985 
L 222.996157 291.23417 
L 223.605494 293.711362 
L 224.21483 243.619551 
L 224.824167 227.60052 
L 225.433504 252.674219 
L 226.04284 195.876006 
L 226.652177 189.257951 
L 227.261513 169.730477 
L 227.87085 182.479369 
L 228.480187 129.684712 
L 229.089523 128.634066 
L 229.69886 87.298481 
L 230.308196 103.691384 
L 230.917533 72.424182 
L 231.52687 77.847149 
L 232.136206 59.028341 
L 232.745543 87.482722 
L 233.354879 43.770354 
L 233.964216 110.252482 
L 234.573553 74.061013 
L 235.182889 90.11183 
L 235.792226 118.160918 
L 236.401563 104.523677 
L 237.010899 139.706748 
L 237.620236 142.626866 
L 238.229572 180.151257 
L 238.838909 162.938967 
L 239.448246 217.965982 
L 240.057582 216.303331 
L 240.666919 251.271468 
L 241.276255 261.745992 
L 241.885592 229.418723 
L 243.104265 300.235634 
L 243.713602 276.584447 
L 244.322938 303.922165 
L 244.932275 294.653906 
L 245.541612 317.78107 
L 246.150948 312.828716 
L 247.369621 265.426985 
L 247.978958 287.854769 
L 249.197631 226.363635 
L 249.806968 222.872883 
L 250.416305 228.87097 
L 251.025641 209.292851 
L 251.634978 158.723109 
L 252.244314 157.123433 
L 252.853651 148.612686 
L 253.462988 145.164457 
L 254.072324 125.402308 
L 254.681661 76.250141 
L 255.290997 41.044919 
L 255.900334 61.826013 
L 257.119007 90.972005 
L 257.728344 87.121649 
L 258.33768 77.8936 
L 258.947017 88.240816 
L 259.556354 85.866015 
L 260.16569 87.547613 
L 260.775027 143.450657 
L 261.384363 139.812129 
L 261.9937 178.579571 
L 262.603037 172.906118 
L 263.212373 153.92352 
L 263.82171 230.027203 
L 264.431047 196.4764 
L 265.040383 264.882738 
L 265.64972 289.129157 
L 266.259056 241.79872 
L 267.47773 305.920196 
L 268.087066 293.742464 
L 268.696403 302.116418 
L 269.305739 296.805677 
L 269.915076 299.704248 
L 270.524413 283.148534 
L 271.133749 292.128241 
L 271.743086 253.272059 
L 272.352422 281.365569 
L 272.961759 263.219725 
L 273.571096 255.710103 
L 274.180432 222.455995 
L 274.789769 202.64327 
L 276.008442 171.224211 
L 276.617779 164.150168 
L 277.227115 141.714551 
L 277.836452 153.433505 
L 278.445789 101.855334 
L 279.055125 60.369401 
L 279.664462 67.010079 
L 280.273798 81.275436 
L 280.883135 47.839464 
L 281.492472 53.198366 
L 282.711145 74.775137 
L 283.320481 60.260085 
L 284.539155 135.173754 
L 285.148491 147.203195 
L 285.757828 154.220127 
L 286.367164 152.175445 
L 286.976501 146.875344 
L 288.195174 202.114585 
L 288.804511 246.327897 
L 289.413848 226.293434 
L 290.023184 274.021936 
L 290.632521 257.697951 
L 291.241857 267.071038 
L 291.851194 290.753233 
L 292.460531 291.229637 
L 293.069867 284.412644 
L 293.679204 319.921018 
L 294.28854 333.27017 
L 294.897877 296.802924 
L 296.11655 243.054371 
L 296.725887 250.610257 
L 297.335223 248.007809 
L 297.94456 232.692632 
L 298.553897 226.314545 
L 299.163233 185.001829 
L 299.77257 183.364289 
L 300.381906 162.486718 
L 300.991243 179.731151 
L 301.60058 119.295413 
L 302.209916 122.869593 
L 302.819253 119.117876 
L 303.42859 73.25355 
L 304.037926 77.617811 
L 304.647263 106.172406 
L 305.256599 61.145561 
L 305.865936 56.568423 
L 306.475273 68.632074 
L 307.084609 48.045166 
L 308.303282 101.194802 
L 308.912619 76.666159 
L 309.521956 113.903298 
L 310.131292 123.660885 
L 310.740629 118.011751 
L 311.349965 155.066345 
L 311.959302 184.252032 
L 312.568639 192.575334 
L 313.177975 187.33133 
L 313.787312 228.102361 
L 314.396648 248.187938 
L 315.005985 251.682231 
L 315.615322 282.51394 
L 316.224658 271.29849 
L 316.833995 292.779269 
L 317.443332 305.860328 
L 318.052668 252.324172 
L 318.662005 314.094356 
L 319.271341 286.874124 
L 319.880678 298.417439 
L 320.490015 306.967696 
L 321.708688 277.242559 
L 322.318024 235.894178 
L 322.927361 206.477633 
L 323.536698 226.733875 
L 324.146034 182.610135 
L 324.755371 164.979292 
L 325.364707 140.519382 
L 325.974044 131.977148 
L 326.583381 120.423692 
L 327.192717 90.995298 
L 327.802054 93.225971 
L 328.411391 80.379304 
L 329.020727 61.101454 
L 329.630064 78.828364 
L 330.2394 78.244552 
L 330.848737 75.674797 
L 332.06741 108.938748 
L 332.676747 93.428915 
L 333.286083 121.694142 
L 333.89542 93.621889 
L 335.114093 167.787338 
L 335.72343 138.510212 
L 336.332766 159.976644 
L 336.942103 169.515663 
L 337.55144 181.599517 
L 338.160776 206.360457 
L 338.770113 254.144023 
L 339.379449 278.913392 
L 339.988786 266.949141 
L 340.598123 284.407968 
L 341.207459 308.355744 
L 341.816796 293.217061 
L 342.426133 299.700744 
L 343.035469 307.575805 
L 343.644806 291.281861 
L 344.254142 285.771967 
L 344.863479 272.7376 
L 345.472816 226.874472 
L 346.082152 239.572232 
L 347.300825 245.088272 
L 347.910162 203.054843 
L 348.519499 205.072685 
L 349.738172 131.313148 
L 350.347508 147.031347 
L 351.566182 106.870853 
L 352.175518 110.800608 
L 352.784855 73.485281 
L 353.394191 47.389244 
L 354.003528 85.03971 
L 354.612865 85.802306 
L 355.222201 74.841622 
L 355.831538 70.542824 
L 356.440875 73.024674 
L 357.050211 95.578299 
L 357.659548 82.680501 
L 358.268884 108.90562 
L 358.878221 152.315159 
L 359.487558 153.828113 
L 360.096894 161.61576 
L 361.315567 189.086275 
L 361.924904 208.983271 
L 362.534241 235.977091 
L 363.143577 252.076444 
L 363.752914 271.878928 
L 364.36225 265.363152 
L 364.971587 276.069456 
L 365.580924 292.564621 
L 366.19026 305.520173 
L 366.799597 286.056335 
L 367.408934 301.973314 
L 368.01827 292.818975 
L 368.627607 278.848601 
L 369.236943 270.402539 
L 369.84628 291.321161 
L 370.455617 257.623581 
L 371.064953 237.715766 
L 371.67429 175.690455 
L 372.283626 214.535452 
L 372.892963 188.111 
L 373.5023 169.996264 
L 374.111636 159.472647 
L 374.720973 159.047187 
L 375.330309 132.90446 
L 376.548983 101.880604 
L 377.158319 72.33283 
L 377.767656 67.93065 
L 378.376992 77.88198 
L 378.986329 49.890419 
L 379.595666 73.268715 
L 380.205002 63.217035 
L 380.814339 89.064837 
L 382.033012 109.286259 
L 382.642349 86.41736 
L 383.251685 171.038494 
L 383.861022 130.395751 
L 384.470359 171.402757 
L 385.079695 185.062119 
L 385.689032 183.465952 
L 386.298368 224.999385 
L 386.907705 238.20016 
L 387.517042 244.325383 
L 388.126378 238.404633 
L 388.735715 268.215758 
L 389.345051 287.783719 
L 389.954388 299.314263 
L 390.563725 299.626669 
L 391.173061 298.801563 
L 391.782398 309.750883 
L 392.391734 284.490845 
L 393.001071 280.73465 
L 393.610408 282.714523 
L 394.219744 259.238696 
L 394.829081 253.468063 
L 395.438418 259.183852 
L 396.047754 221.856457 
L 397.266427 167.831219 
L 397.875764 190.797175 
L 398.485101 164.956441 
L 399.094437 127.194777 
L 399.703774 128.125221 
L 400.31311 92.529161 
L 400.922447 99.306907 
L 401.531784 82.68691 
L 402.14112 40.231002 
L 402.750457 41.889452 
L 403.359793 78.234475 
L 403.96913 57.213081 
L 404.578467 63.125281 
L 405.79714 105.9191 
L 406.406477 121.985202 
L 407.015813 114.947722 
L 407.62515 148.609264 
L 408.234486 117.729783 
L 408.843823 161.071927 
L 410.062496 212.485285 
L 410.671833 202.059367 
L 411.281169 235.768359 
L 411.890506 230.05918 
L 412.499843 280.070056 
L 413.109179 252.534077 
L 413.718516 274.506436 
L 414.327852 300.505934 
L 414.937189 305.391802 
L 416.155862 281.716977 
L 416.765199 313.748518 
L 417.374535 307.616134 
L 417.983872 263.416044 
L 418.593209 280.281753 
L 419.202545 210.486174 
L 419.811882 252.791817 
L 420.421219 241.000342 
L 421.030555 209.130991 
L 421.639892 190.554653 
L 422.249228 157.040639 
L 422.858565 145.298441 
L 423.467902 152.001902 
L 424.077238 97.806908 
L 424.686575 89.473473 
L 425.295911 91.394767 
L 425.905248 82.934011 
L 426.514585 56.008152 
L 427.123921 85.242336 
L 427.733258 70.665652 
L 428.342594 68.70791 
L 428.951931 58.215695 
L 429.561268 43.832555 
L 430.170604 84.383016 
L 431.389277 115.04664 
L 431.998614 145.312711 
L 432.607951 135.85917 
L 433.217287 174.412495 
L 433.826624 192.876031 
L 434.435961 219.827941 
L 435.045297 235.929288 
L 435.654634 211.34879 
L 436.26397 222.334142 
L 436.873307 261.27463 
L 437.482644 286.848748 
L 438.09198 296.046952 
L 438.701317 291.671907 
L 439.310653 306.807621 
L 439.91999 309.039567 
L 440.529327 302.083599 
L 441.138663 305.720792 
L 441.748 281.511305 
L 442.357336 288.020094 
L 442.966673 275.735661 
L 443.57601 266.672319 
L 444.185346 231.564492 
L 444.794683 216.483285 
L 445.40402 188.516714 
L 446.013356 192.868683 
L 446.622693 183.293092 
L 447.232029 139.427893 
L 447.841366 136.798988 
L 448.450703 93.362776 
L 449.060039 107.341795 
L 449.669376 63.822401 
L 450.278712 71.044799 
L 450.888049 60.368094 
L 451.497386 71.677858 
L 452.106722 76.091173 
L 452.716059 53.246543 
L 453.325395 77.318959 
L 453.934732 112.918138 
L 454.544069 107.391098 
L 455.153405 114.383641 
L 455.762742 110.792857 
L 456.372078 148.095141 
L 456.981415 139.997789 
L 457.590752 137.511703 
L 458.200088 179.623116 
L 458.809425 208.103632 
L 459.418762 221.836663 
L 460.028098 220.119947 
L 460.637435 247.122588 
L 461.246771 253.513612 
L 461.856108 271.018313 
L 462.465445 310.388435 
L 463.074781 285.430003 
L 463.684118 303.786862 
L 464.293454 309.495168 
L 464.902791 311.714795 
L 465.512128 326.328494 
L 466.121464 281.85486 
L 466.730801 299.062795 
L 467.340137 251.559263 
L 467.949474 261.774845 
L 468.558811 193.159275 
L 469.168147 237.347642 
L 469.777484 214.537782 
L 470.38682 159.670585 
L 470.996157 163.838125 
L 472.21483 124.947096 
L 472.824167 140.458065 
L 473.433504 122.293472 
L 474.04284 83.566426 
L 474.652177 83.833937 
L 475.261513 54.221466 
L 475.87085 80.501486 
L 477.089523 61.356556 
L 477.69886 36.76108 
L 478.308196 110.542919 
L 478.917533 80.239006 
L 479.52687 91.335059 
L 480.136206 118.582445 
L 480.745543 101.525109 
L 481.354879 181.671039 
L 481.964216 151.052427 
L 482.573553 203.913079 
L 483.182889 232.797812 
L 483.792226 233.837758 
L 484.401562 233.549191 
L 485.010899 231.225384 
L 485.620236 235.483578 
L 486.229572 292.856993 
L 486.838909 267.923588 
L 487.448246 297.38152 
L 488.057582 298.408749 
L 488.666919 301.307504 
L 489.276255 287.964384 
L 489.885592 299.414252 
L 490.494929 286.834611 
L 491.104265 258.52943 
L 491.713602 260.29337 
L 492.322938 255.718395 
L 492.932275 211.701741 
L 493.541612 214.495305 
L 494.150948 201.711524 
L 494.760285 177.616672 
L 495.369621 181.213241 
L 495.978958 139.669312 
L 496.588295 136.691021 
L 497.197631 125.025821 
L 497.806968 118.919747 
L 498.416305 84.32594 
L 499.025641 94.298638 
L 499.634978 95.236201 
L 500.244314 79.760477 
L 500.853651 78.770765 
L 501.462988 86.864245 
L 502.072324 75.689952 
L 502.681661 61.732007 
L 503.290997 71.865947 
L 503.900334 64.210888 
L 504.509671 121.307934 
L 505.119007 106.93042 
L 505.728344 140.968803 
L 506.33768 189.11418 
L 506.947017 202.005243 
L 507.556354 164.334216 
L 508.16569 208.605796 
L 508.775027 233.131988 
L 509.384363 222.013299 
L 509.9937 270.451359 
L 510.603037 284.621049 
L 512.431047 312.656554 
L 513.040383 309.631352 
L 513.64972 300.11505 
L 514.259056 279.36336 
L 514.868393 296.495034 
L 515.47773 266.775827 
L 516.087066 291.513042 
L 516.696403 241.882618 
L 517.305739 248.614502 
L 517.915076 207.418856 
L 518.524413 214.554252 
L 519.743086 163.701975 
L 520.352422 130.321486 
L 520.961759 131.638113 
L 521.571096 77.859977 
L 522.180432 103.256267 
L 523.399105 84.429495 
L 524.008442 94.248279 
L 524.617779 60.251079 
L 525.227115 58.933192 
L 525.836452 92.373687 
L 526.445789 87.914039 
L 527.055125 71.723631 
L 527.664462 102.809669 
L 528.273798 97.093539 
L 528.883135 111.849486 
L 529.492472 155.249483 
L 530.101808 159.081917 
L 530.711145 182.744186 
L 531.320481 195.760264 
L 531.929818 176.813389 
L 533.148491 222.440893 
L 533.757828 266.457029 
L 534.367164 290.892002 
L 534.976501 283.63335 
L 535.585838 319.944409 
L 536.195174 308.060747 
L 536.804511 288.275415 
L 537.413848 299.024893 
L 538.023184 289.055318 
L 538.632521 290.624519 
L 539.241857 301.1991 
L 539.851194 303.5377 
L 540.460531 264.642321 
L 541.069867 238.905332 
L 541.679204 243.362985 
L 542.28854 232.186203 
L 542.897877 185.860122 
L 543.507214 161.989689 
L 544.11655 174.740209 
L 544.725887 135.383295 
L 545.335223 139.826963 
L 545.94456 78.785994 
L 546.553897 90.257464 
L 547.163233 82.606085 
L 547.77257 106.666843 
L 548.381906 45.264586 
L 548.991243 49.63547 
L 550.209916 55.364749 
L 550.819253 59.253742 
L 551.42859 104.773312 
L 552.037926 72.866493 
L 552.647263 126.843244 
L 553.256599 110.688136 
L 553.865936 144.465116 
L 554.475273 159.410609 
L 555.084609 187.004305 
L 555.693946 176.704956 
L 556.303282 203.152257 
L 556.912619 209.958799 
L 557.521956 207.947785 
L 558.131292 239.54222 
L 558.740629 254.647908 
L 559.349965 255.442396 
L 559.959302 296.18299 
L 560.568639 252.196364 
L 561.177975 332.031389 
L 561.787312 325.306462 
L 562.396648 313.849943 
L 563.005985 284.827549 
L 563.615322 296.907606 
L 564.224658 274.77363 
L 564.833995 259.867231 
L 565.443332 267.932313 
L 566.052668 255.455222 
L 566.662005 239.889287 
L 567.271341 196.182597 
L 567.880678 198.964378 
L 568.490015 174.67897 
L 569.099351 137.998388 
L 569.708688 127.979449 
L 570.927361 86.85162 
L 571.536698 77.797191 
L 572.146034 72.236852 
L 572.755371 63.993445 
L 573.364707 66.411266 
L 573.974044 85.440511 
L 574.583381 73.055822 
L 575.192717 45.285269 
L 575.802054 55.37731 
L 576.411391 79.788811 
L 577.020727 118.671715 
L 577.630064 129.079659 
L 578.2394 156.798475 
L 578.848737 110.707548 
L 579.458074 167.9923 
L 580.06741 186.723722 
L 580.676747 215.136843 
L 581.286083 216.761471 
L 581.89542 204.417601 
L 582.504757 240.228233 
L 583.114093 236.626209 
L 583.72343 294.548468 
L 584.332766 301.302114 
L 584.942103 281.158347 
L 585.55144 325.33488 
L 586.160776 303.088812 
L 586.770113 324.731215 
L 587.988786 264.53573 
L 588.598123 328.237133 
L 589.207459 274.993414 
L 590.426133 220.122284 
L 591.035469 234.49839 
L 591.644806 207.689869 
L 592.863479 175.322483 
L 593.472816 120.731603 
L 594.082152 148.554227 
L 594.691489 137.027177 
L 595.300825 91.261086 
L 596.519499 46.300178 
L 597.128835 78.562158 
L 597.738172 66.668378 
L 598.347508 82.170068 
L 598.956845 37.720199 
L 599.566182 69.186908 
L 600.175518 91.319513 
L 600.784855 89.327529 
L 601.394191 93.822136 
L 603.222201 144.30588 
L 603.831538 156.935396 
L 604.440875 179.170635 
L 605.050211 218.508836 
L 605.659548 196.655081 
L 606.268884 192.373015 
L 606.878221 248.336158 
L 607.487558 251.289399 
L 608.096894 306.782263 
L 608.706231 277.249119 
L 609.315567 277.603512 
L 609.924904 307.805763 
L 610.534241 318.790811 
L 611.143577 317.708812 
L 611.752914 279.31393 
L 612.36225 288.528639 
L 614.19026 245.619203 
L 614.799597 256.193483 
L 615.408934 226.641294 
L 616.627607 184.177679 
L 617.236943 161.149739 
L 617.84628 151.614751 
L 618.455617 130.058657 
L 619.064953 140.335272 
L 619.67429 118.354242 
L 620.283626 119.125429 
L 620.892963 89.263868 
L 621.5023 75.005399 
L 622.111636 94.329422 
L 622.720973 64.819362 
L 623.330309 54.939238 
L 623.939646 93.673931 
L 624.548983 94.708659 
L 625.158319 98.021916 
L 625.767656 114.946074 
L 626.376992 119.694162 
L 626.986329 143.104115 
L 627.595666 174.416173 
L 628.205002 176.858282 
L 628.814339 181.905575 
L 629.423676 184.552076 
L 630.033012 240.73189 
L 630.642349 237.668188 
L 631.251685 250.330601 
L 631.861022 290.59793 
L 632.470359 271.791275 
L 633.079695 275.176844 
L 633.689032 294.066672 
L 634.298368 319.25116 
L 634.907705 275.179111 
L 635.517042 277.658849 
L 636.126378 261.446239 
L 636.735715 301.137271 
L 637.345051 289.197651 
L 637.954388 291.038551 
L 638.563725 269.169682 
L 639.173061 230.277502 
L 639.782398 233.95933 
L 640.391734 219.921015 
L 641.001071 179.833416 
L 641.610408 161.539084 
L 642.219744 111.140483 
L 642.829081 102.241726 
L 643.438418 84.801989 
L 644.047754 122.072534 
L 644.657091 68.288914 
L 645.266427 71.711961 
L 645.875764 92.399935 
L 646.485101 70.791085 
L 647.094437 91.200849 
L 647.703774 54.476886 
L 648.31311 68.697444 
L 649.531784 122.67783 
L 650.14112 90.118676 
L 650.750457 105.374788 
L 651.359793 141.935832 
L 651.96913 142.969722 
L 652.578467 182.719072 
L 653.187803 171.065724 
L 653.79714 173.616423 
L 654.406477 191.534057 
L 655.015813 255.291302 
L 655.62515 242.461182 
L 656.234486 275.704069 
L 656.843823 286.551401 
L 657.45316 270.005469 
L 658.062496 274.761336 
L 658.671833 311.789569 
L 659.281169 311.195381 
L 659.890506 300.671881 
L 660.499843 321.070451 
L 661.109179 295.712355 
L 661.718516 278.472928 
L 662.327852 244.015605 
L 662.937189 281.942105 
L 664.155862 215.59446 
L 664.765199 196.341077 
L 664.765199 196.341077 
" style="fill:none;stroke:#4c72b0;stroke-linecap:round;stroke-width:1.5;"/>
   </g>
   <g id="patch_3">
    <path d="M 25.601563 348.095625 
L 25.601563 21.935625 
" style="fill:none;stroke:#ffffff;stroke-linecap:square;stroke-linejoin:miter;stroke-width:0.8;"/>
   </g>
   <g id="patch_4">
    <path d="M 695.201563 348.095625 
L 695.201563 21.935625 
" style="fill:none;stroke:#ffffff;stroke-linecap:square;stroke-linejoin:miter;stroke-width:0.8;"/>
   </g>
   <g id="patch_5">
    <path d="M 25.601563 348.095625 
L 695.201563 348.095625 
" style="fill:none;stroke:#ffffff;stroke-linecap:square;stroke-linejoin:miter;stroke-width:0.8;"/>
   </g>
   <g id="patch_6">
    <path d="M 25.601563 21.935625 
L 695.201563 21.935625 
" style="fill:none;stroke:#ffffff;stroke-linecap:square;stroke-linejoin:miter;stroke-width:0.8;"/>
   </g>
   <g id="text_13">
    <!-- Sample Data 1 -->
    <defs>
     <path d="M 4.5 23 
L 13.421875 23.78125 
Q 14.0625 18.40625 16.375 14.96875 
Q 18.703125 11.53125 23.578125 9.40625 
Q 28.46875 7.28125 34.578125 7.28125 
Q 39.984375 7.28125 44.140625 8.890625 
Q 48.296875 10.5 50.3125 13.296875 
Q 52.34375 16.109375 52.34375 19.4375 
Q 52.34375 22.796875 50.390625 25.3125 
Q 48.4375 27.828125 43.953125 29.546875 
Q 41.0625 30.671875 31.203125 33.03125 
Q 21.34375 35.40625 17.390625 37.5 
Q 12.25 40.1875 9.734375 44.15625 
Q 7.234375 48.140625 7.234375 53.078125 
Q 7.234375 58.5 10.296875 63.203125 
Q 13.375 67.921875 19.28125 70.359375 
Q 25.203125 72.796875 32.421875 72.796875 
Q 40.375 72.796875 46.453125 70.234375 
Q 52.546875 67.671875 55.8125 62.6875 
Q 59.078125 57.71875 59.328125 51.421875 
L 50.25 50.734375 
Q 49.515625 57.515625 45.28125 60.984375 
Q 41.0625 64.453125 32.8125 64.453125 
Q 24.21875 64.453125 20.28125 61.296875 
Q 16.359375 58.15625 16.359375 53.71875 
Q 16.359375 49.859375 19.140625 47.359375 
Q 21.875 44.875 33.421875 42.265625 
Q 44.96875 39.65625 49.265625 37.703125 
Q 55.515625 34.8125 58.484375 30.390625 
Q 61.46875 25.984375 61.46875 20.21875 
Q 61.46875 14.5 58.203125 9.4375 
Q 54.9375 4.390625 48.796875 1.578125 
Q 42.671875 -1.21875 35.015625 -1.21875 
Q 25.296875 -1.21875 18.71875 1.609375 
Q 12.15625 4.4375 8.421875 10.125 
Q 4.6875 15.828125 4.5 23 
z
" id="ArialMT-83"/>
     <path d="M 40.4375 6.390625 
Q 35.546875 2.25 31.03125 0.53125 
Q 26.515625 -1.171875 21.34375 -1.171875 
Q 12.796875 -1.171875 8.203125 3 
Q 3.609375 7.171875 3.609375 13.671875 
Q 3.609375 17.484375 5.34375 20.625 
Q 7.078125 23.78125 9.890625 25.6875 
Q 12.703125 27.59375 16.21875 28.5625 
Q 18.796875 29.25 24.03125 29.890625 
Q 34.671875 31.15625 39.703125 32.90625 
Q 39.75 34.71875 39.75 35.203125 
Q 39.75 40.578125 37.25 42.78125 
Q 33.890625 45.75 27.25 45.75 
Q 21.046875 45.75 18.09375 43.578125 
Q 15.140625 41.40625 13.71875 35.890625 
L 5.125 37.0625 
Q 6.296875 42.578125 8.984375 45.96875 
Q 11.671875 49.359375 16.75 51.1875 
Q 21.828125 53.03125 28.515625 53.03125 
Q 35.15625 53.03125 39.296875 51.46875 
Q 43.453125 49.90625 45.40625 47.53125 
Q 47.359375 45.171875 48.140625 41.546875 
Q 48.578125 39.3125 48.578125 33.453125 
L 48.578125 21.734375 
Q 48.578125 9.46875 49.140625 6.21875 
Q 49.703125 2.984375 51.375 0 
L 42.1875 0 
Q 40.828125 2.734375 40.4375 6.390625 
z
M 39.703125 26.03125 
Q 34.90625 24.078125 25.34375 22.703125 
Q 19.921875 21.921875 17.671875 20.9375 
Q 15.4375 19.96875 14.203125 18.09375 
Q 12.984375 16.21875 12.984375 13.921875 
Q 12.984375 10.40625 15.640625 8.0625 
Q 18.3125 5.71875 23.4375 5.71875 
Q 28.515625 5.71875 32.46875 7.9375 
Q 36.421875 10.15625 38.28125 14.015625 
Q 39.703125 17 39.703125 22.796875 
z
" id="ArialMT-97"/>
     <path d="M 6.59375 0 
L 6.59375 51.859375 
L 14.453125 51.859375 
L 14.453125 44.578125 
Q 16.890625 48.390625 20.9375 50.703125 
Q 25 53.03125 30.171875 53.03125 
Q 35.9375 53.03125 39.625 50.640625 
Q 43.3125 48.25 44.828125 43.953125 
Q 50.984375 53.03125 60.84375 53.03125 
Q 68.5625 53.03125 72.703125 48.75 
Q 76.859375 44.484375 76.859375 35.59375 
L 76.859375 0 
L 68.109375 0 
L 68.109375 32.671875 
Q 68.109375 37.9375 67.25 40.25 
Q 66.40625 42.578125 64.15625 43.984375 
Q 61.921875 45.40625 58.890625 45.40625 
Q 53.421875 45.40625 49.796875 41.765625 
Q 46.1875 38.140625 46.1875 30.125 
L 46.1875 0 
L 37.40625 0 
L 37.40625 33.6875 
Q 37.40625 39.546875 35.25 42.46875 
Q 33.109375 45.40625 28.21875 45.40625 
Q 24.515625 45.40625 21.359375 43.453125 
Q 18.21875 41.5 16.796875 37.734375 
Q 15.375 33.984375 15.375 26.90625 
L 15.375 0 
z
" id="ArialMT-109"/>
     <path d="M 6.59375 -19.875 
L 6.59375 51.859375 
L 14.59375 51.859375 
L 14.59375 45.125 
Q 17.4375 49.078125 21 51.046875 
Q 24.5625 53.03125 29.640625 53.03125 
Q 36.28125 53.03125 41.359375 49.609375 
Q 46.4375 46.1875 49.015625 39.953125 
Q 51.609375 33.734375 51.609375 26.3125 
Q 51.609375 18.359375 48.75 11.984375 
Q 45.90625 5.609375 40.453125 2.21875 
Q 35.015625 -1.171875 29 -1.171875 
Q 24.609375 -1.171875 21.109375 0.6875 
Q 17.625 2.546875 15.375 5.375 
L 15.375 -19.875 
z
M 14.546875 25.640625 
Q 14.546875 15.625 18.59375 10.84375 
Q 22.65625 6.0625 28.421875 6.0625 
Q 34.28125 6.0625 38.453125 11.015625 
Q 42.625 15.96875 42.625 26.375 
Q 42.625 36.28125 38.546875 41.203125 
Q 34.46875 46.140625 28.8125 46.140625 
Q 23.1875 46.140625 18.859375 40.890625 
Q 14.546875 35.640625 14.546875 25.640625 
z
" id="ArialMT-112"/>
     <path d="M 6.390625 0 
L 6.390625 71.578125 
L 15.1875 71.578125 
L 15.1875 0 
z
" id="ArialMT-108"/>
     <path d="M 42.09375 16.703125 
L 51.171875 15.578125 
Q 49.03125 7.625 43.21875 3.21875 
Q 37.40625 -1.171875 28.375 -1.171875 
Q 17 -1.171875 10.328125 5.828125 
Q 3.65625 12.84375 3.65625 25.484375 
Q 3.65625 38.578125 10.390625 45.796875 
Q 17.140625 53.03125 27.875 53.03125 
Q 38.28125 53.03125 44.875 45.953125 
Q 51.46875 38.875 51.46875 26.03125 
Q 51.46875 25.25 51.421875 23.6875 
L 12.75 23.6875 
Q 13.234375 15.140625 17.578125 10.59375 
Q 21.921875 6.0625 28.421875 6.0625 
Q 33.25 6.0625 36.671875 8.59375 
Q 40.09375 11.140625 42.09375 16.703125 
z
M 13.234375 30.90625 
L 42.1875 30.90625 
Q 41.609375 37.453125 38.875 40.71875 
Q 34.671875 45.796875 27.984375 45.796875 
Q 21.921875 45.796875 17.796875 41.75 
Q 13.671875 37.703125 13.234375 30.90625 
z
" id="ArialMT-101"/>
     <path id="ArialMT-32"/>
     <path d="M 7.71875 0 
L 7.71875 71.578125 
L 32.375 71.578125 
Q 40.71875 71.578125 45.125 70.5625 
Q 51.265625 69.140625 55.609375 65.4375 
Q 61.28125 60.640625 64.078125 53.1875 
Q 66.890625 45.75 66.890625 36.1875 
Q 66.890625 28.03125 64.984375 21.734375 
Q 63.09375 15.4375 60.109375 11.296875 
Q 57.125 7.171875 53.578125 4.796875 
Q 50.046875 2.4375 45.046875 1.21875 
Q 40.046875 0 33.546875 0 
z
M 17.1875 8.453125 
L 32.46875 8.453125 
Q 39.546875 8.453125 43.578125 9.765625 
Q 47.609375 11.078125 50 13.484375 
Q 53.375 16.84375 55.25 22.53125 
Q 57.125 28.21875 57.125 36.328125 
Q 57.125 47.5625 53.4375 53.59375 
Q 49.75 59.625 44.484375 61.671875 
Q 40.671875 63.140625 32.234375 63.140625 
L 17.1875 63.140625 
z
" id="ArialMT-68"/>
    </defs>
    <g style="fill:#262626;" transform="translate(320.715312 15.935625)scale(0.12 -0.12)">
     <use xlink:href="#ArialMT-83"/>
     <use x="66.699219" xlink:href="#ArialMT-97"/>
     <use x="122.314453" xlink:href="#ArialMT-109"/>
     <use x="205.615234" xlink:href="#ArialMT-112"/>
     <use x="261.230469" xlink:href="#ArialMT-108"/>
     <use x="283.447266" xlink:href="#ArialMT-101"/>
     <use x="339.0625" xlink:href="#ArialMT-32"/>
     <use x="366.845703" xlink:href="#ArialMT-68"/>
     <use x="439.0625" xlink:href="#ArialMT-97"/>
     <use x="494.677734" xlink:href="#ArialMT-116"/>
     <use x="522.460938" xlink:href="#ArialMT-97"/>
     <use x="578.076172" xlink:href="#ArialMT-32"/>
     <use x="605.859375" xlink:href="#ArialMT-49"/>
    </g>
   </g>
   <g id="legend_1">
    <g id="patch_7">
     <path d="M 702.201563 193.661719 
L 744.7625 193.661719 
Q 746.7625 193.661719 746.7625 191.661719 
L 746.7625 178.369531 
Q 746.7625 176.369531 744.7625 176.369531 
L 702.201563 176.369531 
Q 700.201563 176.369531 700.201563 178.369531 
L 700.201563 191.661719 
Q 700.201563 193.661719 702.201563 193.661719 
z
" style="fill:#e6e6e6;opacity:0.8;stroke:#cccccc;stroke-linejoin:miter;"/>
    </g>
    <g id="line2d_13">
     <path d="M 704.201563 184.057031 
L 724.201563 184.057031 
" style="fill:none;stroke:#4c72b0;stroke-linecap:round;stroke-width:1.5;"/>
    </g>
    <g id="line2d_14"/>
    <g id="text_14">
     <!-- y1 -->
     <defs>
      <path d="M 6.203125 -19.96875 
L 5.21875 -11.71875 
Q 8.109375 -12.5 10.25 -12.5 
Q 13.1875 -12.5 14.9375 -11.515625 
Q 16.703125 -10.546875 17.828125 -8.796875 
Q 18.65625 -7.46875 20.515625 -2.25 
Q 20.75 -1.515625 21.296875 -0.09375 
L 1.609375 51.859375 
L 11.078125 51.859375 
L 21.875 21.828125 
Q 23.96875 16.109375 25.640625 9.8125 
Q 27.15625 15.875 29.25 21.625 
L 40.328125 51.859375 
L 49.125 51.859375 
L 29.390625 -0.875 
Q 26.21875 -9.421875 24.46875 -12.640625 
Q 22.125 -17 19.09375 -19.015625 
Q 16.0625 -21.046875 11.859375 -21.046875 
Q 9.328125 -21.046875 6.203125 -19.96875 
z
" id="ArialMT-121"/>
     </defs>
     <g style="fill:#262626;" transform="translate(732.201563 187.557031)scale(0.1 -0.1)">
      <use xlink:href="#ArialMT-121"/>
      <use x="50" xlink:href="#ArialMT-49"/>
     </g>
    </g>
   </g>
  </g>
 </g>
 <defs>
  <clipPath id="p0f28371f94">
   <rect height="326.16" width="669.6" x="25.601563" y="21.935625"/>
  </clipPath>
 </defs>
</svg>
