<?xml version="1.0" encoding="utf-8" standalone="no"?>
<!DOCTYPE svg PUBLIC "-//W3C//DTD SVG 1.1//EN"
  "http://www.w3.org/Graphics/SVG/1.1/DTD/svg11.dtd">
<!-- Created with matplotlib (https://matplotlib.org/) -->
<svg height="384.58625pt" version="1.1" viewBox="0 0 715.664062 384.58625" width="715.664062pt" xmlns="http://www.w3.org/2000/svg" xmlns:xlink="http://www.w3.org/1999/xlink">
 <defs>
  <style type="text/css">
*{stroke-linecap:butt;stroke-linejoin:round;}
  </style>
 </defs>
 <g id="figure_1">
  <g id="patch_1">
   <path d="M 0 384.58625 
L 715.664062 384.58625 
L 715.664062 0 
L 0 0 
z
" style="fill:none;"/>
  </g>
  <g id="axes_1">
   <g id="patch_2">
    <path d="M 38.864063 348.095625 
L 343.227699 348.095625 
L 343.227699 21.935625 
L 38.864063 21.935625 
z
" style="fill:#e6e6e6;"/>
   </g>
   <g id="matplotlib.axis_1">
    <g id="xtick_1">
     <g id="line2d_1">
      <path clip-path="url(#p38ff0bbf9e)" d="M 69.45735 348.095625 
L 69.45735 21.935625 
" style="fill:none;stroke:#cccccc;stroke-linecap:round;stroke-width:0.8;"/>
     </g>
     <g id="text_1">
      <!-- −2 -->
      <defs>
       <path d="M 52.828125 31.203125 
L 5.5625 31.203125 
L 5.5625 39.40625 
L 52.828125 39.40625 
z
" id="ArialMT-8722"/>
       <path d="M 50.34375 8.453125 
L 50.34375 0 
L 3.03125 0 
Q 2.9375 3.171875 4.046875 6.109375 
Q 5.859375 10.9375 9.828125 15.625 
Q 13.8125 20.3125 21.34375 26.46875 
Q 33.015625 36.03125 37.109375 41.625 
Q 41.21875 47.21875 41.21875 52.203125 
Q 41.21875 57.421875 37.46875 61 
Q 33.734375 64.59375 27.734375 64.59375 
Q 21.390625 64.59375 17.578125 60.78125 
Q 13.765625 56.984375 13.71875 50.25 
L 4.6875 51.171875 
Q 5.609375 61.28125 11.65625 66.578125 
Q 17.71875 71.875 27.9375 71.875 
Q 38.234375 71.875 44.234375 66.15625 
Q 50.25 60.453125 50.25 52 
Q 50.25 47.703125 48.484375 43.546875 
Q 46.734375 39.40625 42.65625 34.8125 
Q 38.578125 30.21875 29.109375 22.21875 
Q 21.1875 15.578125 18.9375 13.203125 
Q 16.703125 10.84375 15.234375 8.453125 
z
" id="ArialMT-50"/>
      </defs>
      <g style="fill:#262626;" transform="translate(63.756569 362.253438)scale(0.1 -0.1)">
       <use xlink:href="#ArialMT-8722"/>
       <use x="58.398438" xlink:href="#ArialMT-50"/>
      </g>
     </g>
    </g>
    <g id="xtick_2">
     <g id="line2d_2">
      <path clip-path="url(#p38ff0bbf9e)" d="M 130.35165 348.095625 
L 130.35165 21.935625 
" style="fill:none;stroke:#cccccc;stroke-linecap:round;stroke-width:0.8;"/>
     </g>
     <g id="text_2">
      <!-- −1 -->
      <defs>
       <path d="M 37.25 0 
L 28.46875 0 
L 28.46875 56 
Q 25.296875 52.984375 20.140625 49.953125 
Q 14.984375 46.921875 10.890625 45.40625 
L 10.890625 53.90625 
Q 18.265625 57.375 23.78125 62.296875 
Q 29.296875 67.234375 31.59375 71.875 
L 37.25 71.875 
z
" id="ArialMT-49"/>
      </defs>
      <g style="fill:#262626;" transform="translate(124.650869 362.253438)scale(0.1 -0.1)">
       <use xlink:href="#ArialMT-8722"/>
       <use x="58.398438" xlink:href="#ArialMT-49"/>
      </g>
     </g>
    </g>
    <g id="xtick_3">
     <g id="line2d_3">
      <path clip-path="url(#p38ff0bbf9e)" d="M 191.245951 348.095625 
L 191.245951 21.935625 
" style="fill:none;stroke:#cccccc;stroke-linecap:round;stroke-width:0.8;"/>
     </g>
     <g id="text_3">
      <!-- 0 -->
      <defs>
       <path d="M 4.15625 35.296875 
Q 4.15625 48 6.765625 55.734375 
Q 9.375 63.484375 14.515625 67.671875 
Q 19.671875 71.875 27.484375 71.875 
Q 33.25 71.875 37.59375 69.546875 
Q 41.9375 67.234375 44.765625 62.859375 
Q 47.609375 58.5 49.21875 52.21875 
Q 50.828125 45.953125 50.828125 35.296875 
Q 50.828125 22.703125 48.234375 14.96875 
Q 45.65625 7.234375 40.5 3 
Q 35.359375 -1.21875 27.484375 -1.21875 
Q 17.140625 -1.21875 11.234375 6.203125 
Q 4.15625 15.140625 4.15625 35.296875 
z
M 13.1875 35.296875 
Q 13.1875 17.671875 17.3125 11.828125 
Q 21.4375 6 27.484375 6 
Q 33.546875 6 37.671875 11.859375 
Q 41.796875 17.71875 41.796875 35.296875 
Q 41.796875 52.984375 37.671875 58.78125 
Q 33.546875 64.59375 27.390625 64.59375 
Q 21.34375 64.59375 17.71875 59.46875 
Q 13.1875 52.9375 13.1875 35.296875 
z
" id="ArialMT-48"/>
      </defs>
      <g style="fill:#262626;" transform="translate(188.465482 362.253438)scale(0.1 -0.1)">
       <use xlink:href="#ArialMT-48"/>
      </g>
     </g>
    </g>
    <g id="xtick_4">
     <g id="line2d_4">
      <path clip-path="url(#p38ff0bbf9e)" d="M 252.140251 348.095625 
L 252.140251 21.935625 
" style="fill:none;stroke:#cccccc;stroke-linecap:round;stroke-width:0.8;"/>
     </g>
     <g id="text_4">
      <!-- 1 -->
      <g style="fill:#262626;" transform="translate(249.359782 362.253438)scale(0.1 -0.1)">
       <use xlink:href="#ArialMT-49"/>
      </g>
     </g>
    </g>
    <g id="xtick_5">
     <g id="line2d_5">
      <path clip-path="url(#p38ff0bbf9e)" d="M 313.034552 348.095625 
L 313.034552 21.935625 
" style="fill:none;stroke:#cccccc;stroke-linecap:round;stroke-width:0.8;"/>
     </g>
     <g id="text_5">
      <!-- 2 -->
      <g style="fill:#262626;" transform="translate(310.254083 362.253438)scale(0.1 -0.1)">
       <use xlink:href="#ArialMT-50"/>
      </g>
     </g>
    </g>
    <g id="text_6">
     <!-- y_test -->
     <defs>
      <path d="M 6.203125 -19.96875 
L 5.21875 -11.71875 
Q 8.109375 -12.5 10.25 -12.5 
Q 13.1875 -12.5 14.9375 -11.515625 
Q 16.703125 -10.546875 17.828125 -8.796875 
Q 18.65625 -7.46875 20.515625 -2.25 
Q 20.75 -1.515625 21.296875 -0.09375 
L 1.609375 51.859375 
L 11.078125 51.859375 
L 21.875 21.828125 
Q 23.96875 16.109375 25.640625 9.8125 
Q 27.15625 15.875 29.25 21.625 
L 40.328125 51.859375 
L 49.125 51.859375 
L 29.390625 -0.875 
Q 26.21875 -9.421875 24.46875 -12.640625 
Q 22.125 -17 19.09375 -19.015625 
Q 16.0625 -21.046875 11.859375 -21.046875 
Q 9.328125 -21.046875 6.203125 -19.96875 
z
" id="ArialMT-121"/>
      <path d="M -1.515625 -19.875 
L -1.515625 -13.53125 
L 56.734375 -13.53125 
L 56.734375 -19.875 
z
" id="ArialMT-95"/>
      <path d="M 25.78125 7.859375 
L 27.046875 0.09375 
Q 23.34375 -0.6875 20.40625 -0.6875 
Q 15.625 -0.6875 12.984375 0.828125 
Q 10.359375 2.34375 9.28125 4.8125 
Q 8.203125 7.28125 8.203125 15.1875 
L 8.203125 45.015625 
L 1.765625 45.015625 
L 1.765625 51.859375 
L 8.203125 51.859375 
L 8.203125 64.703125 
L 16.9375 69.96875 
L 16.9375 51.859375 
L 25.78125 51.859375 
L 25.78125 45.015625 
L 16.9375 45.015625 
L 16.9375 14.703125 
Q 16.9375 10.9375 17.40625 9.859375 
Q 17.875 8.796875 18.921875 8.15625 
Q 19.96875 7.515625 21.921875 7.515625 
Q 23.390625 7.515625 25.78125 7.859375 
z
" id="ArialMT-116"/>
      <path d="M 42.09375 16.703125 
L 51.171875 15.578125 
Q 49.03125 7.625 43.21875 3.21875 
Q 37.40625 -1.171875 28.375 -1.171875 
Q 17 -1.171875 10.328125 5.828125 
Q 3.65625 12.84375 3.65625 25.484375 
Q 3.65625 38.578125 10.390625 45.796875 
Q 17.140625 53.03125 27.875 53.03125 
Q 38.28125 53.03125 44.875 45.953125 
Q 51.46875 38.875 51.46875 26.03125 
Q 51.46875 25.25 51.421875 23.6875 
L 12.75 23.6875 
Q 13.234375 15.140625 17.578125 10.59375 
Q 21.921875 6.0625 28.421875 6.0625 
Q 33.25 6.0625 36.671875 8.59375 
Q 40.09375 11.140625 42.09375 16.703125 
z
M 13.234375 30.90625 
L 42.1875 30.90625 
Q 41.609375 37.453125 38.875 40.71875 
Q 34.671875 45.796875 27.984375 45.796875 
Q 21.921875 45.796875 17.796875 41.75 
Q 13.671875 37.703125 13.234375 30.90625 
z
" id="ArialMT-101"/>
      <path d="M 3.078125 15.484375 
L 11.765625 16.84375 
Q 12.5 11.625 15.84375 8.84375 
Q 19.1875 6.0625 25.203125 6.0625 
Q 31.25 6.0625 34.171875 8.515625 
Q 37.109375 10.984375 37.109375 14.3125 
Q 37.109375 17.28125 34.515625 19 
Q 32.71875 20.171875 25.53125 21.96875 
Q 15.875 24.421875 12.140625 26.203125 
Q 8.40625 27.984375 6.46875 31.125 
Q 4.546875 34.28125 4.546875 38.09375 
Q 4.546875 41.546875 6.125 44.5 
Q 7.71875 47.46875 10.453125 49.421875 
Q 12.5 50.921875 16.03125 51.96875 
Q 19.578125 53.03125 23.640625 53.03125 
Q 29.734375 53.03125 34.34375 51.265625 
Q 38.96875 49.515625 41.15625 46.5 
Q 43.359375 43.5 44.1875 38.484375 
L 35.59375 37.3125 
Q 35.015625 41.3125 32.203125 43.546875 
Q 29.390625 45.796875 24.265625 45.796875 
Q 18.21875 45.796875 15.625 43.796875 
Q 13.03125 41.796875 13.03125 39.109375 
Q 13.03125 37.40625 14.109375 36.03125 
Q 15.1875 34.625 17.484375 33.6875 
Q 18.796875 33.203125 25.25 31.453125 
Q 34.578125 28.953125 38.25 27.359375 
Q 41.9375 25.78125 44.03125 22.75 
Q 46.140625 19.734375 46.140625 15.234375 
Q 46.140625 10.84375 43.578125 6.953125 
Q 41.015625 3.078125 36.171875 0.953125 
Q 31.34375 -1.171875 25.25 -1.171875 
Q 15.140625 -1.171875 9.84375 3.03125 
Q 4.546875 7.234375 3.078125 15.484375 
z
" id="ArialMT-115"/>
     </defs>
     <g style="fill:#262626;" transform="translate(177.706818 375.281563)scale(0.1 -0.1)">
      <use xlink:href="#ArialMT-121"/>
      <use x="50" xlink:href="#ArialMT-95"/>
      <use x="105.615234" xlink:href="#ArialMT-116"/>
      <use x="133.398438" xlink:href="#ArialMT-101"/>
      <use x="189.013672" xlink:href="#ArialMT-115"/>
      <use x="239.013672" xlink:href="#ArialMT-116"/>
     </g>
    </g>
   </g>
   <g id="matplotlib.axis_2">
    <g id="ytick_1">
     <g id="line2d_6">
      <path clip-path="url(#p38ff0bbf9e)" d="M 38.864063 305.703534 
L 343.227699 305.703534 
" style="fill:none;stroke:#cccccc;stroke-linecap:round;stroke-width:0.8;"/>
     </g>
     <g id="text_7">
      <!-- −2 -->
      <g style="fill:#262626;" transform="translate(20.4625 309.282441)scale(0.1 -0.1)">
       <use xlink:href="#ArialMT-8722"/>
       <use x="58.398438" xlink:href="#ArialMT-50"/>
      </g>
     </g>
    </g>
    <g id="ytick_2">
     <g id="line2d_7">
      <path clip-path="url(#p38ff0bbf9e)" d="M 38.864063 245.45322 
L 343.227699 245.45322 
" style="fill:none;stroke:#cccccc;stroke-linecap:round;stroke-width:0.8;"/>
     </g>
     <g id="text_8">
      <!-- −1 -->
      <g style="fill:#262626;" transform="translate(20.4625 249.032126)scale(0.1 -0.1)">
       <use xlink:href="#ArialMT-8722"/>
       <use x="58.398438" xlink:href="#ArialMT-49"/>
      </g>
     </g>
    </g>
    <g id="ytick_3">
     <g id="line2d_8">
      <path clip-path="url(#p38ff0bbf9e)" d="M 38.864063 185.202906 
L 343.227699 185.202906 
" style="fill:none;stroke:#cccccc;stroke-linecap:round;stroke-width:0.8;"/>
     </g>
     <g id="text_9">
      <!-- 0 -->
      <g style="fill:#262626;" transform="translate(26.303125 188.781812)scale(0.1 -0.1)">
       <use xlink:href="#ArialMT-48"/>
      </g>
     </g>
    </g>
    <g id="ytick_4">
     <g id="line2d_9">
      <path clip-path="url(#p38ff0bbf9e)" d="M 38.864063 124.952592 
L 343.227699 124.952592 
" style="fill:none;stroke:#cccccc;stroke-linecap:round;stroke-width:0.8;"/>
     </g>
     <g id="text_10">
      <!-- 1 -->
      <g style="fill:#262626;" transform="translate(26.303125 128.531498)scale(0.1 -0.1)">
       <use xlink:href="#ArialMT-49"/>
      </g>
     </g>
    </g>
    <g id="ytick_5">
     <g id="line2d_10">
      <path clip-path="url(#p38ff0bbf9e)" d="M 38.864063 64.702278 
L 343.227699 64.702278 
" style="fill:none;stroke:#cccccc;stroke-linecap:round;stroke-width:0.8;"/>
     </g>
     <g id="text_11">
      <!-- 2 -->
      <g style="fill:#262626;" transform="translate(26.303125 68.281184)scale(0.1 -0.1)">
       <use xlink:href="#ArialMT-50"/>
      </g>
     </g>
    </g>
    <g id="text_12">
     <!-- y_pred -->
     <defs>
      <path d="M 6.59375 -19.875 
L 6.59375 51.859375 
L 14.59375 51.859375 
L 14.59375 45.125 
Q 17.4375 49.078125 21 51.046875 
Q 24.5625 53.03125 29.640625 53.03125 
Q 36.28125 53.03125 41.359375 49.609375 
Q 46.4375 46.1875 49.015625 39.953125 
Q 51.609375 33.734375 51.609375 26.3125 
Q 51.609375 18.359375 48.75 11.984375 
Q 45.90625 5.609375 40.453125 2.21875 
Q 35.015625 -1.171875 29 -1.171875 
Q 24.609375 -1.171875 21.109375 0.6875 
Q 17.625 2.546875 15.375 5.375 
L 15.375 -19.875 
z
M 14.546875 25.640625 
Q 14.546875 15.625 18.59375 10.84375 
Q 22.65625 6.0625 28.421875 6.0625 
Q 34.28125 6.0625 38.453125 11.015625 
Q 42.625 15.96875 42.625 26.375 
Q 42.625 36.28125 38.546875 41.203125 
Q 34.46875 46.140625 28.8125 46.140625 
Q 23.1875 46.140625 18.859375 40.890625 
Q 14.546875 35.640625 14.546875 25.640625 
z
" id="ArialMT-112"/>
      <path d="M 6.5 0 
L 6.5 51.859375 
L 14.40625 51.859375 
L 14.40625 44 
Q 17.4375 49.515625 20 51.265625 
Q 22.5625 53.03125 25.640625 53.03125 
Q 30.078125 53.03125 34.671875 50.203125 
L 31.640625 42.046875 
Q 28.421875 43.953125 25.203125 43.953125 
Q 22.3125 43.953125 20.015625 42.21875 
Q 17.71875 40.484375 16.75 37.40625 
Q 15.28125 32.71875 15.28125 27.15625 
L 15.28125 0 
z
" id="ArialMT-114"/>
      <path d="M 40.234375 0 
L 40.234375 6.546875 
Q 35.296875 -1.171875 25.734375 -1.171875 
Q 19.53125 -1.171875 14.328125 2.25 
Q 9.125 5.671875 6.265625 11.796875 
Q 3.421875 17.921875 3.421875 25.875 
Q 3.421875 33.640625 6 39.96875 
Q 8.59375 46.296875 13.765625 49.65625 
Q 18.953125 53.03125 25.34375 53.03125 
Q 30.03125 53.03125 33.6875 51.046875 
Q 37.359375 49.078125 39.65625 45.90625 
L 39.65625 71.578125 
L 48.390625 71.578125 
L 48.390625 0 
z
M 12.453125 25.875 
Q 12.453125 15.921875 16.640625 10.984375 
Q 20.84375 6.0625 26.5625 6.0625 
Q 32.328125 6.0625 36.34375 10.765625 
Q 40.375 15.484375 40.375 25.140625 
Q 40.375 35.796875 36.265625 40.765625 
Q 32.171875 45.75 26.171875 45.75 
Q 20.3125 45.75 16.375 40.96875 
Q 12.453125 36.1875 12.453125 25.875 
z
" id="ArialMT-100"/>
     </defs>
     <g style="fill:#262626;" transform="translate(14.357812 200.302344)rotate(-90)scale(0.1 -0.1)">
      <use xlink:href="#ArialMT-121"/>
      <use x="50" xlink:href="#ArialMT-95"/>
      <use x="105.615234" xlink:href="#ArialMT-112"/>
      <use x="161.230469" xlink:href="#ArialMT-114"/>
      <use x="194.53125" xlink:href="#ArialMT-101"/>
      <use x="250.146484" xlink:href="#ArialMT-100"/>
     </g>
    </g>
   </g>
   <g id="PathCollection_1">
    <defs>
     <path d="M 0 3 
C 0.795609 3 1.55874 2.683901 2.12132 2.12132 
C 2.683901 1.55874 3 0.795609 3 0 
C 3 -0.795609 2.683901 -1.55874 2.12132 -2.12132 
C 1.55874 -2.683901 0.795609 -3 0 -3 
C -0.795609 -3 -1.55874 -2.683901 -2.12132 -2.12132 
C -2.683901 -1.55874 -3 -0.795609 -3 0 
C -3 0.795609 -2.683901 1.55874 -2.12132 2.12132 
C -1.55874 2.683901 -0.795609 3 0 3 
z
" id="mf7f656b656" style="stroke:#4c72b0;stroke-opacity:0.8;"/>
    </defs>
    <g clip-path="url(#p38ff0bbf9e)">
     <use style="fill:#4c72b0;fill-opacity:0.8;stroke:#4c72b0;stroke-opacity:0.8;" x="171.358361" xlink:href="#mf7f656b656" y="182.252166"/>
     <use style="fill:#4c72b0;fill-opacity:0.8;stroke:#4c72b0;stroke-opacity:0.8;" x="141.487046" xlink:href="#mf7f656b656" y="199.830624"/>
     <use style="fill:#4c72b0;fill-opacity:0.8;stroke:#4c72b0;stroke-opacity:0.8;" x="140.41158" xlink:href="#mf7f656b656" y="217.257772"/>
     <use style="fill:#4c72b0;fill-opacity:0.8;stroke:#4c72b0;stroke-opacity:0.8;" x="140.710004" xlink:href="#mf7f656b656" y="234.190303"/>
     <use style="fill:#4c72b0;fill-opacity:0.8;stroke:#4c72b0;stroke-opacity:0.8;" x="143.113182" xlink:href="#mf7f656b656" y="250.234306"/>
     <use style="fill:#4c72b0;fill-opacity:0.8;stroke:#4c72b0;stroke-opacity:0.8;" x="138.709545" xlink:href="#mf7f656b656" y="264.956184"/>
     <use style="fill:#4c72b0;fill-opacity:0.8;stroke:#4c72b0;stroke-opacity:0.8;" x="79.376493" xlink:href="#mf7f656b656" y="277.906453"/>
     <use style="fill:#4c72b0;fill-opacity:0.8;stroke:#4c72b0;stroke-opacity:0.8;" x="105.16152" xlink:href="#mf7f656b656" y="288.652597"/>
     <use style="fill:#4c72b0;fill-opacity:0.8;stroke:#4c72b0;stroke-opacity:0.8;" x="74.697427" xlink:href="#mf7f656b656" y="296.815332"/>
     <use style="fill:#4c72b0;fill-opacity:0.8;stroke:#4c72b0;stroke-opacity:0.8;" x="73.635113" xlink:href="#mf7f656b656" y="302.102005"/>
     <use style="fill:#4c72b0;fill-opacity:0.8;stroke:#4c72b0;stroke-opacity:0.8;" x="70.637348" xlink:href="#mf7f656b656" y="304.331355"/>
     <use style="fill:#4c72b0;fill-opacity:0.8;stroke:#4c72b0;stroke-opacity:0.8;" x="84.436214" xlink:href="#mf7f656b656" y="303.445527"/>
     <use style="fill:#4c72b0;fill-opacity:0.8;stroke:#4c72b0;stroke-opacity:0.8;" x="72.595266" xlink:href="#mf7f656b656" y="299.507667"/>
     <use style="fill:#4c72b0;fill-opacity:0.8;stroke:#4c72b0;stroke-opacity:0.8;" x="85.604575" xlink:href="#mf7f656b656" y="292.68623"/>
     <use style="fill:#4c72b0;fill-opacity:0.8;stroke:#4c72b0;stroke-opacity:0.8;" x="114.876543" xlink:href="#mf7f656b656" y="283.229683"/>
     <use style="fill:#4c72b0;fill-opacity:0.8;stroke:#4c72b0;stroke-opacity:0.8;" x="113.052354" xlink:href="#mf7f656b656" y="271.437179"/>
     <use style="fill:#4c72b0;fill-opacity:0.8;stroke:#4c72b0;stroke-opacity:0.8;" x="117.783591" xlink:href="#mf7f656b656" y="257.631436"/>
     <use style="fill:#4c72b0;fill-opacity:0.8;stroke:#4c72b0;stroke-opacity:0.8;" x="163.303671" xlink:href="#mf7f656b656" y="242.139417"/>
     <use style="fill:#4c72b0;fill-opacity:0.8;stroke:#4c72b0;stroke-opacity:0.8;" x="160.414691" xlink:href="#mf7f656b656" y="225.284386"/>
     <use style="fill:#4c72b0;fill-opacity:0.8;stroke:#4c72b0;stroke-opacity:0.8;" x="173.635113" xlink:href="#mf7f656b656" y="207.390069"/>
     <use style="fill:#4c72b0;fill-opacity:0.8;stroke:#4c72b0;stroke-opacity:0.8;" x="198.552944" xlink:href="#mf7f656b656" y="188.794444"/>
     <use style="fill:#4c72b0;fill-opacity:0.8;stroke:#4c72b0;stroke-opacity:0.8;" x="194.833532" xlink:href="#mf7f656b656" y="169.867974"/>
     <use style="fill:#4c72b0;fill-opacity:0.8;stroke:#4c72b0;stroke-opacity:0.8;" x="237.796428" xlink:href="#mf7f656b656" y="151.029558"/>
     <use style="fill:#4c72b0;fill-opacity:0.8;stroke:#4c72b0;stroke-opacity:0.8;" x="240.876445" xlink:href="#mf7f656b656" y="132.753521"/>
     <use style="fill:#4c72b0;fill-opacity:0.8;stroke:#4c72b0;stroke-opacity:0.8;" x="252.94008" xlink:href="#mf7f656b656" y="115.562749"/>
     <use style="fill:#4c72b0;fill-opacity:0.8;stroke:#4c72b0;stroke-opacity:0.8;" x="259.254711" xlink:href="#mf7f656b656" y="100.00617"/>
     <use style="fill:#4c72b0;fill-opacity:0.8;stroke:#4c72b0;stroke-opacity:0.8;" x="295.0301" xlink:href="#mf7f656b656" y="86.622557"/>
     <use style="fill:#4c72b0;fill-opacity:0.8;stroke:#4c72b0;stroke-opacity:0.8;" x="284.716776" xlink:href="#mf7f656b656" y="75.896119"/>
     <use style="fill:#4c72b0;fill-opacity:0.8;stroke:#4c72b0;stroke-opacity:0.8;" x="283.747189" xlink:href="#mf7f656b656" y="68.211711"/>
     <use style="fill:#4c72b0;fill-opacity:0.8;stroke:#4c72b0;stroke-opacity:0.8;" x="299.7515" xlink:href="#mf7f656b656" y="63.818114"/>
     <use style="fill:#4c72b0;fill-opacity:0.8;stroke:#4c72b0;stroke-opacity:0.8;" x="300.775016" xlink:href="#mf7f656b656" y="62.806538"/>
     <use style="fill:#4c72b0;fill-opacity:0.8;stroke:#4c72b0;stroke-opacity:0.8;" x="292.405096" xlink:href="#mf7f656b656" y="65.10852"/>
     <use style="fill:#4c72b0;fill-opacity:0.8;stroke:#4c72b0;stroke-opacity:0.8;" x="303.961057" xlink:href="#mf7f656b656" y="70.51351"/>
     <use style="fill:#4c72b0;fill-opacity:0.8;stroke:#4c72b0;stroke-opacity:0.8;" x="318.395747" xlink:href="#mf7f656b656" y="78.702449"/>
     <use style="fill:#4c72b0;fill-opacity:0.8;stroke:#4c72b0;stroke-opacity:0.8;" x="307.915674" xlink:href="#mf7f656b656" y="89.290575"/>
     <use style="fill:#4c72b0;fill-opacity:0.8;stroke:#4c72b0;stroke-opacity:0.8;" x="315.832198" xlink:href="#mf7f656b656" y="101.871121"/>
     <use style="fill:#4c72b0;fill-opacity:0.8;stroke:#4c72b0;stroke-opacity:0.8;" x="256.784955" xlink:href="#mf7f656b656" y="116.05186"/>
     <use style="fill:#4c72b0;fill-opacity:0.8;stroke:#4c72b0;stroke-opacity:0.8;" x="271.653544" xlink:href="#mf7f656b656" y="131.478411"/>
     <use style="fill:#4c72b0;fill-opacity:0.8;stroke:#4c72b0;stroke-opacity:0.8;" x="236.452552" xlink:href="#mf7f656b656" y="147.841395"/>
     <use style="fill:#4c72b0;fill-opacity:0.8;stroke:#4c72b0;stroke-opacity:0.8;" x="186.662729" xlink:href="#mf7f656b656" y="164.868133"/>
     <use style="fill:#4c72b0;fill-opacity:0.8;stroke:#4c72b0;stroke-opacity:0.8;" x="173.331361" xlink:href="#mf7f656b656" y="182.302808"/>
     <use style="fill:#4c72b0;fill-opacity:0.8;stroke:#4c72b0;stroke-opacity:0.8;" x="212.289073" xlink:href="#mf7f656b656" y="199.881274"/>
     <use style="fill:#4c72b0;fill-opacity:0.8;stroke:#4c72b0;stroke-opacity:0.8;" x="166.505361" xlink:href="#mf7f656b656" y="217.307514"/>
     <use style="fill:#4c72b0;fill-opacity:0.8;stroke:#4c72b0;stroke-opacity:0.8;" x="141.141456" xlink:href="#mf7f656b656" y="234.238071"/>
     <use style="fill:#4c72b0;fill-opacity:0.8;stroke:#4c72b0;stroke-opacity:0.8;" x="152.639913" xlink:href="#mf7f656b656" y="250.278898"/>
     <use style="fill:#4c72b0;fill-opacity:0.8;stroke:#4c72b0;stroke-opacity:0.8;" x="102.547411" xlink:href="#mf7f656b656" y="264.996311"/>
     <use style="fill:#4c72b0;fill-opacity:0.8;stroke:#4c72b0;stroke-opacity:0.8;" x="87.893743" xlink:href="#mf7f656b656" y="277.940827"/>
     <use style="fill:#4c72b0;fill-opacity:0.8;stroke:#4c72b0;stroke-opacity:0.8;" x="77.690201" xlink:href="#mf7f656b656" y="288.680028"/>
     <use style="fill:#4c72b0;fill-opacity:0.8;stroke:#4c72b0;stroke-opacity:0.8;" x="65.706413" xlink:href="#mf7f656b656" y="296.834837"/>
     <use style="fill:#4c72b0;fill-opacity:0.8;stroke:#4c72b0;stroke-opacity:0.8;" x="58.900661" xlink:href="#mf7f656b656" y="302.112893"/>
     <use style="fill:#4c72b0;fill-opacity:0.8;stroke:#4c72b0;stroke-opacity:0.8;" x="62.029192" xlink:href="#mf7f656b656" y="304.333278"/>
     <use style="fill:#4c72b0;fill-opacity:0.8;stroke:#4c72b0;stroke-opacity:0.8;" x="71.870531" xlink:href="#mf7f656b656" y="303.438498"/>
     <use style="fill:#4c72b0;fill-opacity:0.8;stroke:#4c72b0;stroke-opacity:0.8;" x="93.331013" xlink:href="#mf7f656b656" y="299.492031"/>
     <use style="fill:#4c72b0;fill-opacity:0.8;stroke:#4c72b0;stroke-opacity:0.8;" x="75.614192" xlink:href="#mf7f656b656" y="292.662602"/>
     <use style="fill:#4c72b0;fill-opacity:0.8;stroke:#4c72b0;stroke-opacity:0.8;" x="106.348483" xlink:href="#mf7f656b656" y="283.198868"/>
     <use style="fill:#4c72b0;fill-opacity:0.8;stroke:#4c72b0;stroke-opacity:0.8;" x="80.766348" xlink:href="#mf7f656b656" y="271.400085"/>
     <use style="fill:#4c72b0;fill-opacity:0.8;stroke:#4c72b0;stroke-opacity:0.8;" x="132.091941" xlink:href="#mf7f656b656" y="257.589008"/>
     <use style="fill:#4c72b0;fill-opacity:0.8;stroke:#4c72b0;stroke-opacity:0.8;" x="125.130124" xlink:href="#mf7f656b656" y="242.092593"/>
     <use style="fill:#4c72b0;fill-opacity:0.8;stroke:#4c72b0;stroke-opacity:0.8;" x="167.732841" xlink:href="#mf7f656b656" y="225.234095"/>
     <use style="fill:#4c72b0;fill-opacity:0.8;stroke:#4c72b0;stroke-opacity:0.8;" x="160.35373" xlink:href="#mf7f656b656" y="207.337258"/>
     <use style="fill:#4c72b0;fill-opacity:0.8;stroke:#4c72b0;stroke-opacity:0.8;" x="187.0391" xlink:href="#mf7f656b656" y="188.740125"/>
     <use style="fill:#4c72b0;fill-opacity:0.8;stroke:#4c72b0;stroke-opacity:0.8;" x="212.942909" xlink:href="#mf7f656b656" y="169.813281"/>
     <use style="fill:#4c72b0;fill-opacity:0.8;stroke:#4c72b0;stroke-opacity:0.8;" x="247.463537" xlink:href="#mf7f656b656" y="150.975778"/>
     <use style="fill:#4c72b0;fill-opacity:0.8;stroke:#4c72b0;stroke-opacity:0.8;" x="246.101939" xlink:href="#mf7f656b656" y="132.702101"/>
     <use style="fill:#4c72b0;fill-opacity:0.8;stroke:#4c72b0;stroke-opacity:0.8;" x="301.716913" xlink:href="#mf7f656b656" y="115.51525"/>
     <use style="fill:#4c72b0;fill-opacity:0.8;stroke:#4c72b0;stroke-opacity:0.8;" x="275.453191" xlink:href="#mf7f656b656" y="99.96418"/>
     <use style="fill:#4c72b0;fill-opacity:0.8;stroke:#4c72b0;stroke-opacity:0.8;" x="284.681113" xlink:href="#mf7f656b656" y="86.587574"/>
     <use style="fill:#4c72b0;fill-opacity:0.8;stroke:#4c72b0;stroke-opacity:0.8;" x="294.923007" xlink:href="#mf7f656b656" y="75.869418"/>
     <use style="fill:#4c72b0;fill-opacity:0.8;stroke:#4c72b0;stroke-opacity:0.8;" x="284.768855" xlink:href="#mf7f656b656" y="68.194218"/>
     <use style="fill:#4c72b0;fill-opacity:0.8;stroke:#4c72b0;stroke-opacity:0.8;" x="319.927258" xlink:href="#mf7f656b656" y="63.810326"/>
     <use style="fill:#4c72b0;fill-opacity:0.8;stroke:#4c72b0;stroke-opacity:0.8;" x="321.290158" xlink:href="#mf7f656b656" y="62.808483"/>
     <use style="fill:#4c72b0;fill-opacity:0.8;stroke:#4c72b0;stroke-opacity:0.8;" x="286.707475" xlink:href="#mf7f656b656" y="65.119782"/>
     <use style="fill:#4c72b0;fill-opacity:0.8;stroke:#4c72b0;stroke-opacity:0.8;" x="291.319446" xlink:href="#mf7f656b656" y="70.533306"/>
     <use style="fill:#4c72b0;fill-opacity:0.8;stroke:#4c72b0;stroke-opacity:0.8;" x="308.062851" xlink:href="#mf7f656b656" y="78.729741"/>
     <use style="fill:#4c72b0;fill-opacity:0.8;stroke:#4c72b0;stroke-opacity:0.8;" x="275.915043" xlink:href="#mf7f656b656" y="89.324201"/>
     <use style="fill:#4c72b0;fill-opacity:0.8;stroke:#4c72b0;stroke-opacity:0.8;" x="281.826412" xlink:href="#mf7f656b656" y="101.909914"/>
     <use style="fill:#4c72b0;fill-opacity:0.8;stroke:#4c72b0;stroke-opacity:0.8;" x="266.566464" xlink:href="#mf7f656b656" y="116.094735"/>
     <use style="fill:#4c72b0;fill-opacity:0.8;stroke:#4c72b0;stroke-opacity:0.8;" x="221.684103" xlink:href="#mf7f656b656" y="131.524412"/>
     <use style="fill:#4c72b0;fill-opacity:0.8;stroke:#4c72b0;stroke-opacity:0.8;" x="217.72077" xlink:href="#mf7f656b656" y="147.88969"/>
     <use style="fill:#4c72b0;fill-opacity:0.8;stroke:#4c72b0;stroke-opacity:0.8;" x="193.250296" xlink:href="#mf7f656b656" y="164.917971"/>
     <use style="fill:#4c72b0;fill-opacity:0.8;stroke:#4c72b0;stroke-opacity:0.8;" x="179.789643" xlink:href="#mf7f656b656" y="182.35345"/>
     <use style="fill:#4c72b0;fill-opacity:0.8;stroke:#4c72b0;stroke-opacity:0.8;" x="199.383664" xlink:href="#mf7f656b656" y="199.931923"/>
     <use style="fill:#4c72b0;fill-opacity:0.8;stroke:#4c72b0;stroke-opacity:0.8;" x="173.725376" xlink:href="#mf7f656b656" y="217.357252"/>
     <use style="fill:#4c72b0;fill-opacity:0.8;stroke:#4c72b0;stroke-opacity:0.8;" x="152.197714" xlink:href="#mf7f656b656" y="234.285832"/>
     <use style="fill:#4c72b0;fill-opacity:0.8;stroke:#4c72b0;stroke-opacity:0.8;" x="106.67817" xlink:href="#mf7f656b656" y="250.323479"/>
     <use style="fill:#4c72b0;fill-opacity:0.8;stroke:#4c72b0;stroke-opacity:0.8;" x="81.4086" xlink:href="#mf7f656b656" y="265.036424"/>
     <use style="fill:#4c72b0;fill-opacity:0.8;stroke:#4c72b0;stroke-opacity:0.8;" x="88.915177" xlink:href="#mf7f656b656" y="277.975182"/>
     <use style="fill:#4c72b0;fill-opacity:0.8;stroke:#4c72b0;stroke-opacity:0.8;" x="51.363883" xlink:href="#mf7f656b656" y="288.707438"/>
     <use style="fill:#4c72b0;fill-opacity:0.8;stroke:#4c72b0;stroke-opacity:0.8;" x="63.653443" xlink:href="#mf7f656b656" y="296.854319"/>
     <use style="fill:#4c72b0;fill-opacity:0.8;stroke:#4c72b0;stroke-opacity:0.8;" x="84.114559" xlink:href="#mf7f656b656" y="302.123755"/>
     <use style="fill:#4c72b0;fill-opacity:0.8;stroke:#4c72b0;stroke-opacity:0.8;" x="72.997923" xlink:href="#mf7f656b656" y="304.335175"/>
     <use style="fill:#4c72b0;fill-opacity:0.8;stroke:#4c72b0;stroke-opacity:0.8;" x="83.308018" xlink:href="#mf7f656b656" y="303.431443"/>
     <use style="fill:#4c72b0;fill-opacity:0.8;stroke:#4c72b0;stroke-opacity:0.8;" x="81.68522" xlink:href="#mf7f656b656" y="299.476371"/>
     <use style="fill:#4c72b0;fill-opacity:0.8;stroke:#4c72b0;stroke-opacity:0.8;" x="70.749455" xlink:href="#mf7f656b656" y="292.638952"/>
     <use style="fill:#4c72b0;fill-opacity:0.8;stroke:#4c72b0;stroke-opacity:0.8;" x="68.330978" xlink:href="#mf7f656b656" y="283.168034"/>
     <use style="fill:#4c72b0;fill-opacity:0.8;stroke:#4c72b0;stroke-opacity:0.8;" x="108.554861" xlink:href="#mf7f656b656" y="271.362975"/>
     <use style="fill:#4c72b0;fill-opacity:0.8;stroke:#4c72b0;stroke-opacity:0.8;" x="135.170918" xlink:href="#mf7f656b656" y="257.546566"/>
     <use style="fill:#4c72b0;fill-opacity:0.8;stroke:#4c72b0;stroke-opacity:0.8;" x="130.561011" xlink:href="#mf7f656b656" y="242.045758"/>
     <use style="fill:#4c72b0;fill-opacity:0.8;stroke:#4c72b0;stroke-opacity:0.8;" x="142.119545" xlink:href="#mf7f656b656" y="225.183796"/>
     <use style="fill:#4c72b0;fill-opacity:0.8;stroke:#4c72b0;stroke-opacity:0.8;" x="190.027932" xlink:href="#mf7f656b656" y="207.284441"/>
     <use style="fill:#4c72b0;fill-opacity:0.8;stroke:#4c72b0;stroke-opacity:0.8;" x="214.71368" xlink:href="#mf7f656b656" y="188.685804"/>
     <use style="fill:#4c72b0;fill-opacity:0.8;stroke:#4c72b0;stroke-opacity:0.8;" x="201.527655" xlink:href="#mf7f656b656" y="169.758588"/>
     <use style="fill:#4c72b0;fill-opacity:0.8;stroke:#4c72b0;stroke-opacity:0.8;" x="242.228837" xlink:href="#mf7f656b656" y="150.922004"/>
     <use style="fill:#4c72b0;fill-opacity:0.8;stroke:#4c72b0;stroke-opacity:0.8;" x="237.633392" xlink:href="#mf7f656b656" y="132.65069"/>
     <use style="fill:#4c72b0;fill-opacity:0.8;stroke:#4c72b0;stroke-opacity:0.8;" x="300.759267" xlink:href="#mf7f656b656" y="115.467764"/>
     <use style="fill:#4c72b0;fill-opacity:0.8;stroke:#4c72b0;stroke-opacity:0.8;" x="288.895979" xlink:href="#mf7f656b656" y="99.922208"/>
     <use style="fill:#4c72b0;fill-opacity:0.8;stroke:#4c72b0;stroke-opacity:0.8;" x="296.808697" xlink:href="#mf7f656b656" y="86.552614"/>
     <use style="fill:#4c72b0;fill-opacity:0.8;stroke:#4c72b0;stroke-opacity:0.8;" x="271.926124" xlink:href="#mf7f656b656" y="75.842741"/>
     <use style="fill:#4c72b0;fill-opacity:0.8;stroke:#4c72b0;stroke-opacity:0.8;" x="335.425627" xlink:href="#mf7f656b656" y="68.176753"/>
     <use style="fill:#4c72b0;fill-opacity:0.8;stroke:#4c72b0;stroke-opacity:0.8;" x="330.905451" xlink:href="#mf7f656b656" y="63.802566"/>
     <use style="fill:#4c72b0;fill-opacity:0.8;stroke:#4c72b0;stroke-opacity:0.8;" x="327.894057" xlink:href="#mf7f656b656" y="62.810455"/>
     <use style="fill:#4c72b0;fill-opacity:0.8;stroke:#4c72b0;stroke-opacity:0.8;" x="324.980484" xlink:href="#mf7f656b656" y="65.13107"/>
     <use style="fill:#4c72b0;fill-opacity:0.8;stroke:#4c72b0;stroke-opacity:0.8;" x="320.95866" xlink:href="#mf7f656b656" y="70.553125"/>
     <use style="fill:#4c72b0;fill-opacity:0.8;stroke:#4c72b0;stroke-opacity:0.8;" x="273.88433" xlink:href="#mf7f656b656" y="78.757053"/>
     <use style="fill:#4c72b0;fill-opacity:0.8;stroke:#4c72b0;stroke-opacity:0.8;" x="306.880953" xlink:href="#mf7f656b656" y="89.357843"/>
     <use style="fill:#4c72b0;fill-opacity:0.8;stroke:#4c72b0;stroke-opacity:0.8;" x="251.060581" xlink:href="#mf7f656b656" y="101.94872"/>
     <use style="fill:#4c72b0;fill-opacity:0.8;stroke:#4c72b0;stroke-opacity:0.8;" x="267.76748" xlink:href="#mf7f656b656" y="116.137621"/>
     <use style="fill:#4c72b0;fill-opacity:0.8;stroke:#4c72b0;stroke-opacity:0.8;" x="232.83682" xlink:href="#mf7f656b656" y="131.570421"/>
     <use style="fill:#4c72b0;fill-opacity:0.8;stroke:#4c72b0;stroke-opacity:0.8;" x="217.380851" xlink:href="#mf7f656b656" y="147.937991"/>
     <use style="fill:#4c72b0;fill-opacity:0.8;stroke:#4c72b0;stroke-opacity:0.8;" x="188.844669" xlink:href="#mf7f656b656" y="164.967812"/>
     <use style="fill:#4c72b0;fill-opacity:0.8;stroke:#4c72b0;stroke-opacity:0.8;" x="199.495801" xlink:href="#mf7f656b656" y="182.404094"/>
     <use style="fill:#4c72b0;fill-opacity:0.8;stroke:#4c72b0;stroke-opacity:0.8;" x="172.145169" xlink:href="#mf7f656b656" y="199.982571"/>
     <use style="fill:#4c72b0;fill-opacity:0.8;stroke:#4c72b0;stroke-opacity:0.8;" x="165.106144" xlink:href="#mf7f656b656" y="217.406986"/>
     <use style="fill:#4c72b0;fill-opacity:0.8;stroke:#4c72b0;stroke-opacity:0.8;" x="167.185847" xlink:href="#mf7f656b656" y="234.333586"/>
     <use style="fill:#4c72b0;fill-opacity:0.8;stroke:#4c72b0;stroke-opacity:0.8;" x="134.512277" xlink:href="#mf7f656b656" y="250.368049"/>
     <use style="fill:#4c72b0;fill-opacity:0.8;stroke:#4c72b0;stroke-opacity:0.8;" x="118.890642" xlink:href="#mf7f656b656" y="265.076522"/>
     <use style="fill:#4c72b0;fill-opacity:0.8;stroke:#4c72b0;stroke-opacity:0.8;" x="118.069017" xlink:href="#mf7f656b656" y="278.009518"/>
     <use style="fill:#4c72b0;fill-opacity:0.8;stroke:#4c72b0;stroke-opacity:0.8;" x="75.936894" xlink:href="#mf7f656b656" y="288.734826"/>
     <use style="fill:#4c72b0;fill-opacity:0.8;stroke:#4c72b0;stroke-opacity:0.8;" x="121.42592" xlink:href="#mf7f656b656" y="296.873776"/>
     <use style="fill:#4c72b0;fill-opacity:0.8;stroke:#4c72b0;stroke-opacity:0.8;" x="38.864062" xlink:href="#mf7f656b656" y="302.134591"/>
     <use style="fill:#4c72b0;fill-opacity:0.8;stroke:#4c72b0;stroke-opacity:0.8;" x="45.818685" xlink:href="#mf7f656b656" y="304.337046"/>
     <use style="fill:#4c72b0;fill-opacity:0.8;stroke:#4c72b0;stroke-opacity:0.8;" x="57.666511" xlink:href="#mf7f656b656" y="303.424363"/>
     <use style="fill:#4c72b0;fill-opacity:0.8;stroke:#4c72b0;stroke-opacity:0.8;" x="87.68019" xlink:href="#mf7f656b656" y="299.460686"/>
     <use style="fill:#4c72b0;fill-opacity:0.8;stroke:#4c72b0;stroke-opacity:0.8;" x="75.187529" xlink:href="#mf7f656b656" y="292.615281"/>
     <use style="fill:#4c72b0;fill-opacity:0.8;stroke:#4c72b0;stroke-opacity:0.8;" x="98.077508" xlink:href="#mf7f656b656" y="283.13718"/>
     <use style="fill:#4c72b0;fill-opacity:0.8;stroke:#4c72b0;stroke-opacity:0.8;" x="113.493049" xlink:href="#mf7f656b656" y="271.325848"/>
     <use style="fill:#4c72b0;fill-opacity:0.8;stroke:#4c72b0;stroke-opacity:0.8;" x="105.152497" xlink:href="#mf7f656b656" y="257.50411"/>
     <use style="fill:#4c72b0;fill-opacity:0.8;stroke:#4c72b0;stroke-opacity:0.8;" x="118.055753" xlink:href="#mf7f656b656" y="241.998912"/>
     <use style="fill:#4c72b0;fill-opacity:0.8;stroke:#4c72b0;stroke-opacity:0.8;" x="134.153356" xlink:href="#mf7f656b656" y="225.133488"/>
     <use style="fill:#4c72b0;fill-opacity:0.8;stroke:#4c72b0;stroke-opacity:0.8;" x="179.352884" xlink:href="#mf7f656b656" y="207.231618"/>
     <use style="fill:#4c72b0;fill-opacity:0.8;stroke:#4c72b0;stroke-opacity:0.8;" x="176.476089" xlink:href="#mf7f656b656" y="188.63148"/>
     <use style="fill:#4c72b0;fill-opacity:0.8;stroke:#4c72b0;stroke-opacity:0.8;" x="201.590986" xlink:href="#mf7f656b656" y="169.703896"/>
     <use style="fill:#4c72b0;fill-opacity:0.8;stroke:#4c72b0;stroke-opacity:0.8;" x="239.524424" xlink:href="#mf7f656b656" y="150.868233"/>
     <use style="fill:#4c72b0;fill-opacity:0.8;stroke:#4c72b0;stroke-opacity:0.8;" x="249.885568" xlink:href="#mf7f656b656" y="132.599289"/>
     <use style="fill:#4c72b0;fill-opacity:0.8;stroke:#4c72b0;stroke-opacity:0.8;" x="269.440506" xlink:href="#mf7f656b656" y="115.420292"/>
     <use style="fill:#4c72b0;fill-opacity:0.8;stroke:#4c72b0;stroke-opacity:0.8;" x="292.418152" xlink:href="#mf7f656b656" y="99.880255"/>
     <use style="fill:#4c72b0;fill-opacity:0.8;stroke:#4c72b0;stroke-opacity:0.8;" x="301.781843" xlink:href="#mf7f656b656" y="86.517676"/>
     <use style="fill:#4c72b0;fill-opacity:0.8;stroke:#4c72b0;stroke-opacity:0.8;" x="307.5321" xlink:href="#mf7f656b656" y="75.81609"/>
     <use style="fill:#4c72b0;fill-opacity:0.8;stroke:#4c72b0;stroke-opacity:0.8;" x="316.057068" xlink:href="#mf7f656b656" y="68.159315"/>
     <use style="fill:#4c72b0;fill-opacity:0.8;stroke:#4c72b0;stroke-opacity:0.8;" x="313.556664" xlink:href="#mf7f656b656" y="63.794835"/>
     <use style="fill:#4c72b0;fill-opacity:0.8;stroke:#4c72b0;stroke-opacity:0.8;" x="293.87746" xlink:href="#mf7f656b656" y="62.812456"/>
     <use style="fill:#4c72b0;fill-opacity:0.8;stroke:#4c72b0;stroke-opacity:0.8;" x="306.685158" xlink:href="#mf7f656b656" y="65.142384"/>
     <use style="fill:#4c72b0;fill-opacity:0.8;stroke:#4c72b0;stroke-opacity:0.8;" x="335.404237" xlink:href="#mf7f656b656" y="70.572966"/>
     <use style="fill:#4c72b0;fill-opacity:0.8;stroke:#4c72b0;stroke-opacity:0.8;" x="324.967494" xlink:href="#mf7f656b656" y="78.784384"/>
     <use style="fill:#4c72b0;fill-opacity:0.8;stroke:#4c72b0;stroke-opacity:0.8;" x="299.722198" xlink:href="#mf7f656b656" y="89.391502"/>
     <use style="fill:#4c72b0;fill-opacity:0.8;stroke:#4c72b0;stroke-opacity:0.8;" x="259.511216" xlink:href="#mf7f656b656" y="101.987539"/>
     <use style="fill:#4c72b0;fill-opacity:0.8;stroke:#4c72b0;stroke-opacity:0.8;" x="248.747779" xlink:href="#mf7f656b656" y="116.180517"/>
     <use style="fill:#4c72b0;fill-opacity:0.8;stroke:#4c72b0;stroke-opacity:0.8;" x="220.082205" xlink:href="#mf7f656b656" y="131.616438"/>
     <use style="fill:#4c72b0;fill-opacity:0.8;stroke:#4c72b0;stroke-opacity:0.8;" x="267.747405" xlink:href="#mf7f656b656" y="147.986296"/>
     <use style="fill:#4c72b0;fill-opacity:0.8;stroke:#4c72b0;stroke-opacity:0.8;" x="208.506044" xlink:href="#mf7f656b656" y="165.017656"/>
     <use style="fill:#4c72b0;fill-opacity:0.8;stroke:#4c72b0;stroke-opacity:0.8;" x="189.134835" xlink:href="#mf7f656b656" y="182.454739"/>
     <use style="fill:#4c72b0;fill-opacity:0.8;stroke:#4c72b0;stroke-opacity:0.8;" x="159.75124" xlink:href="#mf7f656b656" y="200.033218"/>
     <use style="fill:#4c72b0;fill-opacity:0.8;stroke:#4c72b0;stroke-opacity:0.8;" x="158.071122" xlink:href="#mf7f656b656" y="217.456716"/>
     <use style="fill:#4c72b0;fill-opacity:0.8;stroke:#4c72b0;stroke-opacity:0.8;" x="170.836607" xlink:href="#mf7f656b656" y="234.381332"/>
     <use style="fill:#4c72b0;fill-opacity:0.8;stroke:#4c72b0;stroke-opacity:0.8;" x="133.802833" xlink:href="#mf7f656b656" y="250.412608"/>
     <use style="fill:#4c72b0;fill-opacity:0.8;stroke:#4c72b0;stroke-opacity:0.8;" x="137.527887" xlink:href="#mf7f656b656" y="265.116605"/>
     <use style="fill:#4c72b0;fill-opacity:0.8;stroke:#4c72b0;stroke-opacity:0.8;" x="77.627244" xlink:href="#mf7f656b656" y="278.043837"/>
     <use style="fill:#4c72b0;fill-opacity:0.8;stroke:#4c72b0;stroke-opacity:0.8;" x="70.642922" xlink:href="#mf7f656b656" y="288.762192"/>
     <use style="fill:#4c72b0;fill-opacity:0.8;stroke:#4c72b0;stroke-opacity:0.8;" x="91.474716" xlink:href="#mf7f656b656" y="296.89321"/>
     <use style="fill:#4c72b0;fill-opacity:0.8;stroke:#4c72b0;stroke-opacity:0.8;" x="45.789297" xlink:href="#mf7f656b656" y="302.145402"/>
     <use style="fill:#4c72b0;fill-opacity:0.8;stroke:#4c72b0;stroke-opacity:0.8;" x="68.795197" xlink:href="#mf7f656b656" y="304.338891"/>
     <use style="fill:#4c72b0;fill-opacity:0.8;stroke:#4c72b0;stroke-opacity:0.8;" x="46.413581" xlink:href="#mf7f656b656" y="303.417258"/>
     <use style="fill:#4c72b0;fill-opacity:0.8;stroke:#4c72b0;stroke-opacity:0.8;" x="75.063358" xlink:href="#mf7f656b656" y="299.444978"/>
     <use style="fill:#4c72b0;fill-opacity:0.8;stroke:#4c72b0;stroke-opacity:0.8;" x="108.665093" xlink:href="#mf7f656b656" y="292.591587"/>
     <use style="fill:#4c72b0;fill-opacity:0.8;stroke:#4c72b0;stroke-opacity:0.8;" x="42.787915" xlink:href="#mf7f656b656" y="283.106307"/>
     <use style="fill:#4c72b0;fill-opacity:0.8;stroke:#4c72b0;stroke-opacity:0.8;" x="97.850218" xlink:href="#mf7f656b656" y="271.288704"/>
     <use style="fill:#4c72b0;fill-opacity:0.8;stroke:#4c72b0;stroke-opacity:0.8;" x="127.62355" xlink:href="#mf7f656b656" y="257.46164"/>
     <use style="fill:#4c72b0;fill-opacity:0.8;stroke:#4c72b0;stroke-opacity:0.8;" x="154.595517" xlink:href="#mf7f656b656" y="241.952055"/>
     <use style="fill:#4c72b0;fill-opacity:0.8;stroke:#4c72b0;stroke-opacity:0.8;" x="139.728384" xlink:href="#mf7f656b656" y="225.083172"/>
     <use style="fill:#4c72b0;fill-opacity:0.8;stroke:#4c72b0;stroke-opacity:0.8;" x="167.452572" xlink:href="#mf7f656b656" y="207.178789"/>
     <use style="fill:#4c72b0;fill-opacity:0.8;stroke:#4c72b0;stroke-opacity:0.8;" x="184.97722" xlink:href="#mf7f656b656" y="188.577153"/>
     <use style="fill:#4c72b0;fill-opacity:0.8;stroke:#4c72b0;stroke-opacity:0.8;" x="200.925493" xlink:href="#mf7f656b656" y="169.649205"/>
     <use style="fill:#4c72b0;fill-opacity:0.8;stroke:#4c72b0;stroke-opacity:0.8;" x="257.38097" xlink:href="#mf7f656b656" y="150.814468"/>
     <use style="fill:#4c72b0;fill-opacity:0.8;stroke:#4c72b0;stroke-opacity:0.8;" x="228.608041" xlink:href="#mf7f656b656" y="132.547896"/>
     <use style="fill:#4c72b0;fill-opacity:0.8;stroke:#4c72b0;stroke-opacity:0.8;" x="240.528808" xlink:href="#mf7f656b656" y="115.372833"/>
     <use style="fill:#4c72b0;fill-opacity:0.8;stroke:#4c72b0;stroke-opacity:0.8;" x="287.858078" xlink:href="#mf7f656b656" y="99.838319"/>
     <use style="fill:#4c72b0;fill-opacity:0.8;stroke:#4c72b0;stroke-opacity:0.8;" x="311.071676" xlink:href="#mf7f656b656" y="86.48276"/>
     <use style="fill:#4c72b0;fill-opacity:0.8;stroke:#4c72b0;stroke-opacity:0.8;" x="334.354663" xlink:href="#mf7f656b656" y="75.789465"/>
     <use style="fill:#4c72b0;fill-opacity:0.8;stroke:#4c72b0;stroke-opacity:0.8;" x="300.990748" xlink:href="#mf7f656b656" y="68.141905"/>
     <use style="fill:#4c72b0;fill-opacity:0.8;stroke:#4c72b0;stroke-opacity:0.8;" x="313.290771" xlink:href="#mf7f656b656" y="63.787132"/>
     <use style="fill:#4c72b0;fill-opacity:0.8;stroke:#4c72b0;stroke-opacity:0.8;" x="297.259607" xlink:href="#mf7f656b656" y="62.814484"/>
     <use style="fill:#4c72b0;fill-opacity:0.8;stroke:#4c72b0;stroke-opacity:0.8;" x="343.227699" xlink:href="#mf7f656b656" y="65.153724"/>
     <use style="fill:#4c72b0;fill-opacity:0.8;stroke:#4c72b0;stroke-opacity:0.8;" x="310.686217" xlink:href="#mf7f656b656" y="70.592832"/>
     <use style="fill:#4c72b0;fill-opacity:0.8;stroke:#4c72b0;stroke-opacity:0.8;" x="287.797655" xlink:href="#mf7f656b656" y="78.811736"/>
     <use style="fill:#4c72b0;fill-opacity:0.8;stroke:#4c72b0;stroke-opacity:0.8;" x="289.857677" xlink:href="#mf7f656b656" y="89.425178"/>
     <use style="fill:#4c72b0;fill-opacity:0.8;stroke:#4c72b0;stroke-opacity:0.8;" x="285.209553" xlink:href="#mf7f656b656" y="102.026372"/>
     <use style="fill:#4c72b0;fill-opacity:0.8;stroke:#4c72b0;stroke-opacity:0.8;" x="268.015396" xlink:href="#mf7f656b656" y="116.223424"/>
     <use style="fill:#4c72b0;fill-opacity:0.8;stroke:#4c72b0;stroke-opacity:0.8;" x="252.692065" xlink:href="#mf7f656b656" y="131.662463"/>
     <use style="fill:#4c72b0;fill-opacity:0.8;stroke:#4c72b0;stroke-opacity:0.8;" x="233.001494" xlink:href="#mf7f656b656" y="148.034608"/>
     <use style="fill:#4c72b0;fill-opacity:0.8;stroke:#4c72b0;stroke-opacity:0.8;" x="219.940606" xlink:href="#mf7f656b656" y="165.067504"/>
     <use style="fill:#4c72b0;fill-opacity:0.8;stroke:#4c72b0;stroke-opacity:0.8;" x="196.945904" xlink:href="#mf7f656b656" y="182.505385"/>
     <use style="fill:#4c72b0;fill-opacity:0.8;stroke:#4c72b0;stroke-opacity:0.8;" x="156.264074" xlink:href="#mf7f656b656" y="200.083864"/>
     <use style="fill:#4c72b0;fill-opacity:0.8;stroke:#4c72b0;stroke-opacity:0.8;" x="178.864262" xlink:href="#mf7f656b656" y="217.506442"/>
     <use style="fill:#4c72b0;fill-opacity:0.8;stroke:#4c72b0;stroke-opacity:0.8;" x="183.292585" xlink:href="#mf7f656b656" y="234.429071"/>
     <use style="fill:#4c72b0;fill-opacity:0.8;stroke:#4c72b0;stroke-opacity:0.8;" x="125.417975" xlink:href="#mf7f656b656" y="250.457155"/>
     <use style="fill:#4c72b0;fill-opacity:0.8;stroke:#4c72b0;stroke-opacity:0.8;" x="122.363863" xlink:href="#mf7f656b656" y="265.156673"/>
     <use style="fill:#4c72b0;fill-opacity:0.8;stroke:#4c72b0;stroke-opacity:0.8;" x="64.975594" xlink:href="#mf7f656b656" y="278.078137"/>
     <use style="fill:#4c72b0;fill-opacity:0.8;stroke:#4c72b0;stroke-opacity:0.8;" x="95.517467" xlink:href="#mf7f656b656" y="288.789537"/>
     <use style="fill:#4c72b0;fill-opacity:0.8;stroke:#4c72b0;stroke-opacity:0.8;" x="95.15097" xlink:href="#mf7f656b656" y="296.912619"/>
     <use style="fill:#4c72b0;fill-opacity:0.8;stroke:#4c72b0;stroke-opacity:0.8;" x="63.917135" xlink:href="#mf7f656b656" y="302.156188"/>
     <use style="fill:#4c72b0;fill-opacity:0.8;stroke:#4c72b0;stroke-opacity:0.8;" x="52.556885" xlink:href="#mf7f656b656" y="304.34071"/>
     <use style="fill:#4c72b0;fill-opacity:0.8;stroke:#4c72b0;stroke-opacity:0.8;" x="53.675839" xlink:href="#mf7f656b656" y="303.410127"/>
     <use style="fill:#4c72b0;fill-opacity:0.8;stroke:#4c72b0;stroke-opacity:0.8;" x="93.382131" xlink:href="#mf7f656b656" y="299.429246"/>
     <use style="fill:#4c72b0;fill-opacity:0.8;stroke:#4c72b0;stroke-opacity:0.8;" x="83.852686" xlink:href="#mf7f656b656" y="292.567871"/>
     <use style="fill:#4c72b0;fill-opacity:0.8;stroke:#4c72b0;stroke-opacity:0.8;" x="99.157376" xlink:href="#mf7f656b656" y="283.075414"/>
     <use style="fill:#4c72b0;fill-opacity:0.8;stroke:#4c72b0;stroke-opacity:0.8;" x="114.010556" xlink:href="#mf7f656b656" y="271.251544"/>
     <use style="fill:#4c72b0;fill-opacity:0.8;stroke:#4c72b0;stroke-opacity:0.8;" x="128.227729" xlink:href="#mf7f656b656" y="257.419156"/>
     <use style="fill:#4c72b0;fill-opacity:0.8;stroke:#4c72b0;stroke-opacity:0.8;" x="117.292276" xlink:href="#mf7f656b656" y="241.905186"/>
     <use style="fill:#4c72b0;fill-opacity:0.8;stroke:#4c72b0;stroke-opacity:0.8;" x="147.853845" xlink:href="#mf7f656b656" y="225.032847"/>
     <use style="fill:#4c72b0;fill-opacity:0.8;stroke:#4c72b0;stroke-opacity:0.8;" x="168.590551" xlink:href="#mf7f656b656" y="207.125955"/>
     <use style="fill:#4c72b0;fill-opacity:0.8;stroke:#4c72b0;stroke-opacity:0.8;" x="191.76784" xlink:href="#mf7f656b656" y="188.522823"/>
     <use style="fill:#4c72b0;fill-opacity:0.8;stroke:#4c72b0;stroke-opacity:0.8;" x="215.582319" xlink:href="#mf7f656b656" y="169.594515"/>
     <use style="fill:#4c72b0;fill-opacity:0.8;stroke:#4c72b0;stroke-opacity:0.8;" x="225.442983" xlink:href="#mf7f656b656" y="150.760707"/>
     <use style="fill:#4c72b0;fill-opacity:0.8;stroke:#4c72b0;stroke-opacity:0.8;" x="247.735343" xlink:href="#mf7f656b656" y="132.496512"/>
     <use style="fill:#4c72b0;fill-opacity:0.8;stroke:#4c72b0;stroke-opacity:0.8;" x="237.107722" xlink:href="#mf7f656b656" y="115.325388"/>
     <use style="fill:#4c72b0;fill-opacity:0.8;stroke:#4c72b0;stroke-opacity:0.8;" x="259.839532" xlink:href="#mf7f656b656" y="99.796402"/>
     <use style="fill:#4c72b0;fill-opacity:0.8;stroke:#4c72b0;stroke-opacity:0.8;" x="259.042005" xlink:href="#mf7f656b656" y="86.447866"/>
     <use style="fill:#4c72b0;fill-opacity:0.8;stroke:#4c72b0;stroke-opacity:0.8;" x="289.923513" xlink:href="#mf7f656b656" y="75.762865"/>
     <use style="fill:#4c72b0;fill-opacity:0.8;stroke:#4c72b0;stroke-opacity:0.8;" x="304.668991" xlink:href="#mf7f656b656" y="68.124523"/>
     <use style="fill:#4c72b0;fill-opacity:0.8;stroke:#4c72b0;stroke-opacity:0.8;" x="284.68494" xlink:href="#mf7f656b656" y="63.779457"/>
     <use style="fill:#4c72b0;fill-opacity:0.8;stroke:#4c72b0;stroke-opacity:0.8;" x="315.202941" xlink:href="#mf7f656b656" y="62.816539"/>
     <use style="fill:#4c72b0;fill-opacity:0.8;stroke:#4c72b0;stroke-opacity:0.8;" x="325.420528" xlink:href="#mf7f656b656" y="65.165089"/>
     <use style="fill:#4c72b0;fill-opacity:0.8;stroke:#4c72b0;stroke-opacity:0.8;" x="285.36282" xlink:href="#mf7f656b656" y="70.61272"/>
     <use style="fill:#4c72b0;fill-opacity:0.8;stroke:#4c72b0;stroke-opacity:0.8;" x="284.29275" xlink:href="#mf7f656b656" y="78.839108"/>
     <use style="fill:#4c72b0;fill-opacity:0.8;stroke:#4c72b0;stroke-opacity:0.8;" x="280.866326" xlink:href="#mf7f656b656" y="89.45887"/>
     <use style="fill:#4c72b0;fill-opacity:0.8;stroke:#4c72b0;stroke-opacity:0.8;" x="263.364109" xlink:href="#mf7f656b656" y="102.065218"/>
     <use style="fill:#4c72b0;fill-opacity:0.8;stroke:#4c72b0;stroke-opacity:0.8;" x="258.453846" xlink:href="#mf7f656b656" y="116.266341"/>
     <use style="fill:#4c72b0;fill-opacity:0.8;stroke:#4c72b0;stroke-opacity:0.8;" x="234.244307" xlink:href="#mf7f656b656" y="131.708495"/>
     <use style="fill:#4c72b0;fill-opacity:0.8;stroke:#4c72b0;stroke-opacity:0.8;" x="201.862759" xlink:href="#mf7f656b656" y="148.082925"/>
     <use style="fill:#4c72b0;fill-opacity:0.8;stroke:#4c72b0;stroke-opacity:0.8;" x="199.337238" xlink:href="#mf7f656b656" y="165.117355"/>
     <use style="fill:#4c72b0;fill-opacity:0.8;stroke:#4c72b0;stroke-opacity:0.8;" x="194.11755" xlink:href="#mf7f656b656" y="182.556033"/>
     <use style="fill:#4c72b0;fill-opacity:0.8;stroke:#4c72b0;stroke-opacity:0.8;" x="191.380655" xlink:href="#mf7f656b656" y="200.134508"/>
     <use style="fill:#4c72b0;fill-opacity:0.8;stroke:#4c72b0;stroke-opacity:0.8;" x="133.281973" xlink:href="#mf7f656b656" y="217.556163"/>
     <use style="fill:#4c72b0;fill-opacity:0.8;stroke:#4c72b0;stroke-opacity:0.8;" x="136.450318" xlink:href="#mf7f656b656" y="234.476802"/>
     <use style="fill:#4c72b0;fill-opacity:0.8;stroke:#4c72b0;stroke-opacity:0.8;" x="123.35541" xlink:href="#mf7f656b656" y="250.501692"/>
     <use style="fill:#4c72b0;fill-opacity:0.8;stroke:#4c72b0;stroke-opacity:0.8;" x="81.712716" xlink:href="#mf7f656b656" y="265.196726"/>
     <use style="fill:#4c72b0;fill-opacity:0.8;stroke:#4c72b0;stroke-opacity:0.8;" x="101.161729" xlink:href="#mf7f656b656" y="278.112418"/>
     <use style="fill:#4c72b0;fill-opacity:0.8;stroke:#4c72b0;stroke-opacity:0.8;" x="97.660523" xlink:href="#mf7f656b656" y="288.816861"/>
     <use style="fill:#4c72b0;fill-opacity:0.8;stroke:#4c72b0;stroke-opacity:0.8;" x="78.125497" xlink:href="#mf7f656b656" y="296.932005"/>
     <use style="fill:#4c72b0;fill-opacity:0.8;stroke:#4c72b0;stroke-opacity:0.8;" x="52.080811" xlink:href="#mf7f656b656" y="302.166948"/>
     <use style="fill:#4c72b0;fill-opacity:0.8;stroke:#4c72b0;stroke-opacity:0.8;" x="97.658178" xlink:href="#mf7f656b656" y="304.342503"/>
     <use style="fill:#4c72b0;fill-opacity:0.8;stroke:#4c72b0;stroke-opacity:0.8;" x="95.093743" xlink:href="#mf7f656b656" y="303.40297"/>
     <use style="fill:#4c72b0;fill-opacity:0.8;stroke:#4c72b0;stroke-opacity:0.8;" x="111.860108" xlink:href="#mf7f656b656" y="299.413489"/>
     <use style="fill:#4c72b0;fill-opacity:0.8;stroke:#4c72b0;stroke-opacity:0.8;" x="70.813396" xlink:href="#mf7f656b656" y="292.544134"/>
     <use style="fill:#4c72b0;fill-opacity:0.8;stroke:#4c72b0;stroke-opacity:0.8;" x="83.160823" xlink:href="#mf7f656b656" y="283.044502"/>
     <use style="fill:#4c72b0;fill-opacity:0.8;stroke:#4c72b0;stroke-opacity:0.8;" x="81.257046" xlink:href="#mf7f656b656" y="271.214367"/>
     <use style="fill:#4c72b0;fill-opacity:0.8;stroke:#4c72b0;stroke-opacity:0.8;" x="103.872865" xlink:href="#mf7f656b656" y="257.376658"/>
     <use style="fill:#4c72b0;fill-opacity:0.8;stroke:#4c72b0;stroke-opacity:0.8;" x="144.093439" xlink:href="#mf7f656b656" y="241.858306"/>
     <use style="fill:#4c72b0;fill-opacity:0.8;stroke:#4c72b0;stroke-opacity:0.8;" x="140.285856" xlink:href="#mf7f656b656" y="224.982513"/>
     <use style="fill:#4c72b0;fill-opacity:0.8;stroke:#4c72b0;stroke-opacity:0.8;" x="154.803661" xlink:href="#mf7f656b656" y="207.073114"/>
     <use style="fill:#4c72b0;fill-opacity:0.8;stroke:#4c72b0;stroke-opacity:0.8;" x="196.260486" xlink:href="#mf7f656b656" y="188.468491"/>
     <use style="fill:#4c72b0;fill-opacity:0.8;stroke:#4c72b0;stroke-opacity:0.8;" x="215.179676" xlink:href="#mf7f656b656" y="169.539825"/>
     <use style="fill:#4c72b0;fill-opacity:0.8;stroke:#4c72b0;stroke-opacity:0.8;" x="267.299683" xlink:href="#mf7f656b656" y="150.706951"/>
     <use style="fill:#4c72b0;fill-opacity:0.8;stroke:#4c72b0;stroke-opacity:0.8;" x="276.502384" xlink:href="#mf7f656b656" y="132.445138"/>
     <use style="fill:#4c72b0;fill-opacity:0.8;stroke:#4c72b0;stroke-opacity:0.8;" x="294.537791" xlink:href="#mf7f656b656" y="115.277957"/>
     <use style="fill:#4c72b0;fill-opacity:0.8;stroke:#4c72b0;stroke-opacity:0.8;" x="255.994239" xlink:href="#mf7f656b656" y="99.754503"/>
     <use style="fill:#4c72b0;fill-opacity:0.8;stroke:#4c72b0;stroke-opacity:0.8;" x="311.614884" xlink:href="#mf7f656b656" y="86.412994"/>
     <use style="fill:#4c72b0;fill-opacity:0.8;stroke:#4c72b0;stroke-opacity:0.8;" x="308.074919" xlink:href="#mf7f656b656" y="75.736291"/>
     <use style="fill:#4c72b0;fill-opacity:0.8;stroke:#4c72b0;stroke-opacity:0.8;" x="286.680331" xlink:href="#mf7f656b656" y="68.107168"/>
     <use style="fill:#4c72b0;fill-opacity:0.8;stroke:#4c72b0;stroke-opacity:0.8;" x="309.027249" xlink:href="#mf7f656b656" y="63.77181"/>
     <use style="fill:#4c72b0;fill-opacity:0.8;stroke:#4c72b0;stroke-opacity:0.8;" x="287.920372" xlink:href="#mf7f656b656" y="62.818623"/>
     <use style="fill:#4c72b0;fill-opacity:0.8;stroke:#4c72b0;stroke-opacity:0.8;" x="325.898673" xlink:href="#mf7f656b656" y="65.176481"/>
     <use style="fill:#4c72b0;fill-opacity:0.8;stroke:#4c72b0;stroke-opacity:0.8;" x="311.192399" xlink:href="#mf7f656b656" y="70.632631"/>
     <use style="fill:#4c72b0;fill-opacity:0.8;stroke:#4c72b0;stroke-opacity:0.8;" x="281.848679" xlink:href="#mf7f656b656" y="78.866499"/>
     <use style="fill:#4c72b0;fill-opacity:0.8;stroke:#4c72b0;stroke-opacity:0.8;" x="255.368268" xlink:href="#mf7f656b656" y="89.492579"/>
     <use style="fill:#4c72b0;fill-opacity:0.8;stroke:#4c72b0;stroke-opacity:0.8;" x="289.039508" xlink:href="#mf7f656b656" y="102.104077"/>
     <use style="fill:#4c72b0;fill-opacity:0.8;stroke:#4c72b0;stroke-opacity:0.8;" x="273.262311" xlink:href="#mf7f656b656" y="116.309268"/>
     <use style="fill:#4c72b0;fill-opacity:0.8;stroke:#4c72b0;stroke-opacity:0.8;" x="235.452493" xlink:href="#mf7f656b656" y="131.754535"/>
     <use style="fill:#4c72b0;fill-opacity:0.8;stroke:#4c72b0;stroke-opacity:0.8;" x="234.38329" xlink:href="#mf7f656b656" y="148.131247"/>
     <use style="fill:#4c72b0;fill-opacity:0.8;stroke:#4c72b0;stroke-opacity:0.8;" x="193.276268" xlink:href="#mf7f656b656" y="165.16721"/>
     <use style="fill:#4c72b0;fill-opacity:0.8;stroke:#4c72b0;stroke-opacity:0.8;" x="205.327645" xlink:href="#mf7f656b656" y="182.606681"/>
     <use style="fill:#4c72b0;fill-opacity:0.8;stroke:#4c72b0;stroke-opacity:0.8;" x="202.689825" xlink:href="#mf7f656b656" y="200.185151"/>
     <use style="fill:#4c72b0;fill-opacity:0.8;stroke:#4c72b0;stroke-opacity:0.8;" x="184.160199" xlink:href="#mf7f656b656" y="217.605881"/>
     <use style="fill:#4c72b0;fill-opacity:0.8;stroke:#4c72b0;stroke-opacity:0.8;" x="118.225272" xlink:href="#mf7f656b656" y="234.524526"/>
     <use style="fill:#4c72b0;fill-opacity:0.8;stroke:#4c72b0;stroke-opacity:0.8;" x="131.493615" xlink:href="#mf7f656b656" y="250.546218"/>
     <use style="fill:#4c72b0;fill-opacity:0.8;stroke:#4c72b0;stroke-opacity:0.8;" x="97.11529" xlink:href="#mf7f656b656" y="265.236765"/>
     <use style="fill:#4c72b0;fill-opacity:0.8;stroke:#4c72b0;stroke-opacity:0.8;" x="85.897458" xlink:href="#mf7f656b656" y="278.146681"/>
     <use style="fill:#4c72b0;fill-opacity:0.8;stroke:#4c72b0;stroke-opacity:0.8;" x="103.00853" xlink:href="#mf7f656b656" y="288.844162"/>
     <use style="fill:#4c72b0;fill-opacity:0.8;stroke:#4c72b0;stroke-opacity:0.8;" x="98.090223" xlink:href="#mf7f656b656" y="296.951366"/>
     <use style="fill:#4c72b0;fill-opacity:0.8;stroke:#4c72b0;stroke-opacity:0.8;" x="59.797259" xlink:href="#mf7f656b656" y="302.177682"/>
     <use style="fill:#4c72b0;fill-opacity:0.8;stroke:#4c72b0;stroke-opacity:0.8;" x="60.411742" xlink:href="#mf7f656b656" y="304.34427"/>
     <use style="fill:#4c72b0;fill-opacity:0.8;stroke:#4c72b0;stroke-opacity:0.8;" x="71.294681" xlink:href="#mf7f656b656" y="303.395788"/>
     <use style="fill:#4c72b0;fill-opacity:0.8;stroke:#4c72b0;stroke-opacity:0.8;" x="50.199381" xlink:href="#mf7f656b656" y="299.397709"/>
     <use style="fill:#4c72b0;fill-opacity:0.8;stroke:#4c72b0;stroke-opacity:0.8;" x="76.423604" xlink:href="#mf7f656b656" y="292.520374"/>
     <use style="fill:#4c72b0;fill-opacity:0.8;stroke:#4c72b0;stroke-opacity:0.8;" x="94.251858" xlink:href="#mf7f656b656" y="283.01357"/>
     <use style="fill:#4c72b0;fill-opacity:0.8;stroke:#4c72b0;stroke-opacity:0.8;" x="129.8861" xlink:href="#mf7f656b656" y="271.177173"/>
     <use style="fill:#4c72b0;fill-opacity:0.8;stroke:#4c72b0;stroke-opacity:0.8;" x="90.664188" xlink:href="#mf7f656b656" y="257.334146"/>
     <use style="fill:#4c72b0;fill-opacity:0.8;stroke:#4c72b0;stroke-opacity:0.8;" x="123.439308" xlink:href="#mf7f656b656" y="241.811414"/>
     <use style="fill:#4c72b0;fill-opacity:0.8;stroke:#4c72b0;stroke-opacity:0.8;" x="159.277993" xlink:href="#mf7f656b656" y="224.932171"/>
     <use style="fill:#4c72b0;fill-opacity:0.8;stroke:#4c72b0;stroke-opacity:0.8;" x="179.188992" xlink:href="#mf7f656b656" y="207.020268"/>
    </g>
   </g>
   <g id="PolyCollection_1">
    <defs>
     <path d="M 38.864062 -58.123388 
L 38.864062 -51.31608 
L 41.938443 -54.306423 
L 45.012823 -57.262992 
L 48.087203 -60.215363 
L 51.161583 -63.167701 
L 54.235963 -66.112883 
L 57.310343 -69.069772 
L 60.384724 -72.025108 
L 63.459104 -74.996281 
L 66.533484 -77.954701 
L 69.607864 -80.943961 
L 72.682244 -83.933221 
L 75.756624 -86.865146 
L 78.831005 -89.780522 
L 81.905385 -92.740377 
L 84.979765 -95.707285 
L 88.054145 -98.686909 
L 91.128525 -101.635483 
L 94.202905 -104.608045 
L 97.277286 -107.603171 
L 100.351666 -110.571708 
L 103.426046 -113.507517 
L 106.500426 -116.466013 
L 109.574806 -119.407025 
L 112.649186 -122.3479 
L 115.723567 -125.288648 
L 118.797947 -128.229015 
L 121.872327 -131.170012 
L 124.946707 -134.11034 
L 128.021087 -137.0507 
L 131.095467 -139.990822 
L 134.169848 -142.931545 
L 137.244228 -145.872317 
L 140.318608 -148.813299 
L 143.392988 -151.753864 
L 146.467368 -154.699301 
L 149.541748 -157.647366 
L 152.616129 -160.595277 
L 155.690509 -163.576194 
L 158.764889 -166.499431 
L 161.839269 -169.463398 
L 164.913649 -172.397519 
L 167.988029 -175.335006 
L 171.06241 -178.272089 
L 174.13679 -181.222084 
L 177.21117 -184.100025 
L 180.28555 -187.008837 
L 183.35993 -189.950729 
L 186.43431 -192.890607 
L 189.508691 -195.784684 
L 192.583071 -198.667062 
L 195.657451 -201.575466 
L 198.731831 -204.436502 
L 201.806211 -207.344733 
L 204.880591 -210.261489 
L 207.954972 -213.160567 
L 211.029352 -216.067578 
L 214.103732 -218.972695 
L 217.178112 -221.878081 
L 220.252492 -224.797068 
L 223.326872 -227.714885 
L 226.401253 -230.613276 
L 229.475633 -233.494947 
L 232.550013 -236.386674 
L 235.624393 -239.257062 
L 238.698773 -242.13778 
L 241.773153 -245.018497 
L 244.847534 -247.869486 
L 247.921914 -250.779931 
L 250.996294 -253.664879 
L 254.070674 -256.546134 
L 257.145054 -259.424004 
L 260.219434 -262.300127 
L 263.293815 -265.168269 
L 266.368195 -268.03641 
L 269.442575 -270.885444 
L 272.516955 -273.722927 
L 275.591335 -276.585401 
L 278.665715 -279.448422 
L 281.740096 -282.316614 
L 284.814476 -285.188634 
L 287.888856 -288.065342 
L 290.963236 -290.932829 
L 294.037616 -293.804754 
L 297.111996 -296.700445 
L 300.186377 -299.565788 
L 303.260757 -302.431258 
L 306.335137 -305.296201 
L 309.409517 -308.161246 
L 312.483897 -311.034793 
L 315.558277 -313.909053 
L 318.632658 -316.764377 
L 321.707038 -319.634477 
L 324.781418 -322.486483 
L 327.855798 -325.348374 
L 330.930178 -328.212703 
L 334.004558 -331.077635 
L 337.078939 -333.946649 
L 340.153319 -336.811693 
L 343.227699 -339.676738 
L 343.227699 -347.82517 
L 343.227699 -347.82517 
L 340.153319 -344.843765 
L 337.078939 -341.861259 
L 334.004558 -338.883477 
L 330.930178 -335.899653 
L 327.855798 -332.933067 
L 324.781418 -329.966481 
L 321.707038 -326.999895 
L 318.632658 -324.033309 
L 315.558277 -321.075699 
L 312.483897 -318.110334 
L 309.409517 -315.13355 
L 306.335137 -312.166557 
L 303.260757 -309.199992 
L 300.186377 -306.233372 
L 297.111996 -303.254512 
L 294.037616 -300.263914 
L 290.963236 -297.269438 
L 287.888856 -294.276867 
L 284.814476 -291.294729 
L 281.740096 -288.29203 
L 278.665715 -285.301969 
L 275.591335 -282.337897 
L 272.516955 -279.363447 
L 269.442575 -276.395529 
L 266.368195 -273.418298 
L 263.293815 -270.438538 
L 260.219434 -267.459836 
L 257.145054 -264.507237 
L 254.070674 -261.543031 
L 250.996294 -258.586656 
L 247.921914 -255.632904 
L 244.847534 -252.689104 
L 241.773153 -249.738884 
L 238.698773 -246.775431 
L 235.624393 -243.812205 
L 232.550013 -240.878754 
L 229.475633 -237.933385 
L 226.401253 -234.981851 
L 223.326872 -232.015563 
L 220.252492 -229.047039 
L 217.178112 -226.115389 
L 214.103732 -223.173469 
L 211.029352 -220.20175 
L 207.954972 -217.274799 
L 204.880591 -214.323844 
L 201.806211 -211.371475 
L 198.731831 -208.438816 
L 195.657451 -205.544779 
L 192.583071 -202.637904 
L 189.508691 -199.740631 
L 186.43431 -196.810186 
L 183.35993 -193.847109 
L 180.28555 -190.9493 
L 177.21117 -188.00688 
L 174.13679 -185.094768 
L 171.06241 -182.216192 
L 167.988029 -179.290732 
L 164.913649 -176.365272 
L 161.839269 -173.470169 
L 158.764889 -170.566119 
L 155.690509 -167.659905 
L 152.616129 -164.742612 
L 149.541748 -161.857729 
L 146.467368 -158.942626 
L 143.392988 -156.003006 
L 140.318608 -153.088233 
L 137.244228 -150.198973 
L 134.169848 -147.289005 
L 131.095467 -144.387278 
L 128.021087 -141.498922 
L 124.946707 -138.609185 
L 121.872327 -135.72013 
L 118.797947 -132.831769 
L 115.723567 -129.943408 
L 112.649186 -127.054935 
L 109.574806 -124.19848 
L 106.500426 -121.359952 
L 103.426046 -118.457164 
L 100.351666 -115.550634 
L 97.277286 -112.683978 
L 94.202905 -109.801481 
L 91.128525 -106.899805 
L 88.054145 -103.998657 
L 84.979765 -101.13825 
L 81.905385 -98.25965 
L 78.831005 -95.380239 
L 75.756624 -92.509837 
L 72.682244 -89.622481 
L 69.607864 -86.74314 
L 66.533484 -83.863716 
L 63.459104 -80.985369 
L 60.384724 -78.128054 
L 57.310343 -75.277449 
L 54.235963 -72.39356 
L 51.161583 -69.506773 
L 48.087203 -66.669227 
L 45.012823 -63.812252 
L 41.938443 -60.973366 
L 38.864062 -58.123388 
z
" id="m3533c55d78" style="stroke:#ffffff;stroke-opacity:0.15;"/>
    </defs>
    <g clip-path="url(#p38ff0bbf9e)">
     <use style="fill:#4c72b0;fill-opacity:0.15;stroke:#ffffff;stroke-opacity:0.15;" x="0" xlink:href="#m3533c55d78" y="384.58625"/>
    </g>
   </g>
   <g id="line2d_11">
    <path clip-path="url(#p38ff0bbf9e)" d="M 38.864062 329.989932 
L 41.938443 327.070495 
L 45.012823 324.151058 
L 48.087203 321.231622 
L 51.161583 318.312185 
L 54.235963 315.392748 
L 57.310343 312.473311 
L 60.384724 309.553874 
L 63.459104 306.634438 
L 66.533484 303.715001 
L 69.607864 300.795564 
L 72.682244 297.876127 
L 75.756624 294.956691 
L 78.831005 292.037254 
L 81.905385 289.117817 
L 84.979765 286.19838 
L 88.054145 283.278943 
L 91.128525 280.359507 
L 94.202905 277.44007 
L 97.277286 274.520633 
L 100.351666 271.601196 
L 103.426046 268.68176 
L 106.500426 265.762323 
L 109.574806 262.842886 
L 112.649186 259.923449 
L 115.723567 257.004013 
L 118.797947 254.084576 
L 121.872327 251.165139 
L 124.946707 248.245702 
L 128.021087 245.326265 
L 131.095467 242.406829 
L 134.169848 239.487392 
L 137.244228 236.567955 
L 140.318608 233.648518 
L 143.392988 230.729082 
L 146.467368 227.809645 
L 149.541748 224.890208 
L 152.616129 221.970771 
L 155.690509 219.051334 
L 158.764889 216.131898 
L 161.839269 213.212461 
L 164.913649 210.293024 
L 167.988029 207.373587 
L 171.06241 204.454151 
L 174.13679 201.534714 
L 177.21117 198.615277 
L 180.28555 195.69584 
L 183.35993 192.776403 
L 186.43431 189.856967 
L 189.508691 186.93753 
L 192.583071 184.018093 
L 195.657451 181.098656 
L 198.731831 178.17922 
L 201.806211 175.259783 
L 204.880591 172.340346 
L 207.954972 169.420909 
L 211.029352 166.501472 
L 214.103732 163.582036 
L 217.178112 160.662599 
L 220.252492 157.743162 
L 223.326872 154.823725 
L 226.401253 151.904289 
L 229.475633 148.984852 
L 232.550013 146.065415 
L 235.624393 143.145978 
L 238.698773 140.226541 
L 241.773153 137.307105 
L 244.847534 134.387668 
L 247.921914 131.468231 
L 250.996294 128.548794 
L 254.070674 125.629358 
L 257.145054 122.709921 
L 260.219434 119.790484 
L 263.293815 116.871047 
L 266.368195 113.95161 
L 269.442575 111.032174 
L 272.516955 108.112737 
L 275.591335 105.1933 
L 278.665715 102.273863 
L 281.740096 99.354427 
L 284.814476 96.43499 
L 287.888856 93.515553 
L 290.963236 90.596116 
L 294.037616 87.676679 
L 297.111996 84.757243 
L 300.186377 81.837806 
L 303.260757 78.918369 
L 306.335137 75.998932 
L 309.409517 73.079496 
L 312.483897 70.160059 
L 315.558277 67.240622 
L 318.632658 64.321185 
L 321.707038 61.401749 
L 324.781418 58.482312 
L 327.855798 55.562875 
L 330.930178 52.643438 
L 334.004558 49.724001 
L 337.078939 46.804565 
L 340.153319 43.885128 
L 343.227699 40.965691 
" style="fill:none;stroke:#4c72b0;stroke-linecap:round;stroke-width:2.25;"/>
   </g>
   <g id="patch_3">
    <path d="M 38.864063 348.095625 
L 38.864063 21.935625 
" style="fill:none;stroke:#ffffff;stroke-linecap:square;stroke-linejoin:miter;stroke-width:0.8;"/>
   </g>
   <g id="patch_4">
    <path d="M 343.227699 348.095625 
L 343.227699 21.935625 
" style="fill:none;stroke:#ffffff;stroke-linecap:square;stroke-linejoin:miter;stroke-width:0.8;"/>
   </g>
   <g id="patch_5">
    <path d="M 38.864062 348.095625 
L 343.227699 348.095625 
" style="fill:none;stroke:#ffffff;stroke-linecap:square;stroke-linejoin:miter;stroke-width:0.8;"/>
   </g>
   <g id="patch_6">
    <path d="M 38.864062 21.935625 
L 343.227699 21.935625 
" style="fill:none;stroke:#ffffff;stroke-linecap:square;stroke-linejoin:miter;stroke-width:0.8;"/>
   </g>
   <g id="text_13">
    <!-- Model 1 - Test vs Predictions (Test Set) -->
    <defs>
     <path d="M 7.421875 0 
L 7.421875 71.578125 
L 21.6875 71.578125 
L 38.625 20.90625 
Q 40.96875 13.8125 42.046875 10.296875 
Q 43.265625 14.203125 45.84375 21.78125 
L 62.984375 71.578125 
L 75.734375 71.578125 
L 75.734375 0 
L 66.609375 0 
L 66.609375 59.90625 
L 45.796875 0 
L 37.25 0 
L 16.546875 60.9375 
L 16.546875 0 
z
" id="ArialMT-77"/>
     <path d="M 3.328125 25.921875 
Q 3.328125 40.328125 11.328125 47.265625 
Q 18.015625 53.03125 27.640625 53.03125 
Q 38.328125 53.03125 45.109375 46.015625 
Q 51.90625 39.015625 51.90625 26.65625 
Q 51.90625 16.65625 48.90625 10.90625 
Q 45.90625 5.171875 40.15625 2 
Q 34.421875 -1.171875 27.640625 -1.171875 
Q 16.75 -1.171875 10.03125 5.8125 
Q 3.328125 12.796875 3.328125 25.921875 
z
M 12.359375 25.921875 
Q 12.359375 15.96875 16.703125 11.015625 
Q 21.046875 6.0625 27.640625 6.0625 
Q 34.1875 6.0625 38.53125 11.03125 
Q 42.875 16.015625 42.875 26.21875 
Q 42.875 35.84375 38.5 40.796875 
Q 34.125 45.75 27.640625 45.75 
Q 21.046875 45.75 16.703125 40.8125 
Q 12.359375 35.890625 12.359375 25.921875 
z
" id="ArialMT-111"/>
     <path d="M 6.390625 0 
L 6.390625 71.578125 
L 15.1875 71.578125 
L 15.1875 0 
z
" id="ArialMT-108"/>
     <path id="ArialMT-32"/>
     <path d="M 3.171875 21.484375 
L 3.171875 30.328125 
L 30.171875 30.328125 
L 30.171875 21.484375 
z
" id="ArialMT-45"/>
     <path d="M 25.921875 0 
L 25.921875 63.140625 
L 2.34375 63.140625 
L 2.34375 71.578125 
L 59.078125 71.578125 
L 59.078125 63.140625 
L 35.40625 63.140625 
L 35.40625 0 
z
" id="ArialMT-84"/>
     <path d="M 21 0 
L 1.265625 51.859375 
L 10.546875 51.859375 
L 21.6875 20.796875 
Q 23.484375 15.765625 25 10.359375 
Q 26.171875 14.453125 28.265625 20.21875 
L 39.796875 51.859375 
L 48.828125 51.859375 
L 29.203125 0 
z
" id="ArialMT-118"/>
     <path d="M 7.71875 0 
L 7.71875 71.578125 
L 34.71875 71.578125 
Q 41.84375 71.578125 45.609375 70.90625 
Q 50.875 70.015625 54.4375 67.546875 
Q 58.015625 65.09375 60.1875 60.640625 
Q 62.359375 56.203125 62.359375 50.875 
Q 62.359375 41.75 56.546875 35.421875 
Q 50.734375 29.109375 35.546875 29.109375 
L 17.1875 29.109375 
L 17.1875 0 
z
M 17.1875 37.546875 
L 35.6875 37.546875 
Q 44.875 37.546875 48.734375 40.96875 
Q 52.59375 44.390625 52.59375 50.59375 
Q 52.59375 55.078125 50.3125 58.265625 
Q 48.046875 61.46875 44.34375 62.5 
Q 41.9375 63.140625 35.5 63.140625 
L 17.1875 63.140625 
z
" id="ArialMT-80"/>
     <path d="M 6.640625 61.46875 
L 6.640625 71.578125 
L 15.4375 71.578125 
L 15.4375 61.46875 
z
M 6.640625 0 
L 6.640625 51.859375 
L 15.4375 51.859375 
L 15.4375 0 
z
" id="ArialMT-105"/>
     <path d="M 40.4375 19 
L 49.078125 17.875 
Q 47.65625 8.9375 41.8125 3.875 
Q 35.984375 -1.171875 27.484375 -1.171875 
Q 16.84375 -1.171875 10.375 5.78125 
Q 3.90625 12.75 3.90625 25.734375 
Q 3.90625 34.125 6.6875 40.421875 
Q 9.46875 46.734375 15.15625 49.875 
Q 20.84375 53.03125 27.546875 53.03125 
Q 35.984375 53.03125 41.359375 48.75 
Q 46.734375 44.484375 48.25 36.625 
L 39.703125 35.296875 
Q 38.484375 40.53125 35.375 43.15625 
Q 32.28125 45.796875 27.875 45.796875 
Q 21.234375 45.796875 17.078125 41.03125 
Q 12.9375 36.28125 12.9375 25.984375 
Q 12.9375 15.53125 16.9375 10.796875 
Q 20.953125 6.0625 27.390625 6.0625 
Q 32.5625 6.0625 36.03125 9.234375 
Q 39.5 12.40625 40.4375 19 
z
" id="ArialMT-99"/>
     <path d="M 6.59375 0 
L 6.59375 51.859375 
L 14.5 51.859375 
L 14.5 44.484375 
Q 20.21875 53.03125 31 53.03125 
Q 35.6875 53.03125 39.625 51.34375 
Q 43.5625 49.65625 45.515625 46.921875 
Q 47.46875 44.1875 48.25 40.4375 
Q 48.734375 37.984375 48.734375 31.890625 
L 48.734375 0 
L 39.9375 0 
L 39.9375 31.546875 
Q 39.9375 36.921875 38.90625 39.578125 
Q 37.890625 42.234375 35.28125 43.8125 
Q 32.671875 45.40625 29.15625 45.40625 
Q 23.53125 45.40625 19.453125 41.84375 
Q 15.375 38.28125 15.375 28.328125 
L 15.375 0 
z
" id="ArialMT-110"/>
     <path d="M 23.390625 -21.046875 
Q 16.109375 -11.859375 11.078125 0.4375 
Q 6.0625 12.75 6.0625 25.921875 
Q 6.0625 37.546875 9.8125 48.1875 
Q 14.203125 60.546875 23.390625 72.796875 
L 29.6875 72.796875 
Q 23.78125 62.640625 21.875 58.296875 
Q 18.890625 51.5625 17.1875 44.234375 
Q 15.09375 35.109375 15.09375 25.875 
Q 15.09375 2.390625 29.6875 -21.046875 
z
" id="ArialMT-40"/>
     <path d="M 4.5 23 
L 13.421875 23.78125 
Q 14.0625 18.40625 16.375 14.96875 
Q 18.703125 11.53125 23.578125 9.40625 
Q 28.46875 7.28125 34.578125 7.28125 
Q 39.984375 7.28125 44.140625 8.890625 
Q 48.296875 10.5 50.3125 13.296875 
Q 52.34375 16.109375 52.34375 19.4375 
Q 52.34375 22.796875 50.390625 25.3125 
Q 48.4375 27.828125 43.953125 29.546875 
Q 41.0625 30.671875 31.203125 33.03125 
Q 21.34375 35.40625 17.390625 37.5 
Q 12.25 40.1875 9.734375 44.15625 
Q 7.234375 48.140625 7.234375 53.078125 
Q 7.234375 58.5 10.296875 63.203125 
Q 13.375 67.921875 19.28125 70.359375 
Q 25.203125 72.796875 32.421875 72.796875 
Q 40.375 72.796875 46.453125 70.234375 
Q 52.546875 67.671875 55.8125 62.6875 
Q 59.078125 57.71875 59.328125 51.421875 
L 50.25 50.734375 
Q 49.515625 57.515625 45.28125 60.984375 
Q 41.0625 64.453125 32.8125 64.453125 
Q 24.21875 64.453125 20.28125 61.296875 
Q 16.359375 58.15625 16.359375 53.71875 
Q 16.359375 49.859375 19.140625 47.359375 
Q 21.875 44.875 33.421875 42.265625 
Q 44.96875 39.65625 49.265625 37.703125 
Q 55.515625 34.8125 58.484375 30.390625 
Q 61.46875 25.984375 61.46875 20.21875 
Q 61.46875 14.5 58.203125 9.4375 
Q 54.9375 4.390625 48.796875 1.578125 
Q 42.671875 -1.21875 35.015625 -1.21875 
Q 25.296875 -1.21875 18.71875 1.609375 
Q 12.15625 4.4375 8.421875 10.125 
Q 4.6875 15.828125 4.5 23 
z
" id="ArialMT-83"/>
     <path d="M 12.359375 -21.046875 
L 6.0625 -21.046875 
Q 20.65625 2.390625 20.65625 25.875 
Q 20.65625 35.0625 18.5625 44.09375 
Q 16.890625 51.421875 13.921875 58.15625 
Q 12.015625 62.546875 6.0625 72.796875 
L 12.359375 72.796875 
Q 21.53125 60.546875 25.921875 48.1875 
Q 29.6875 37.546875 29.6875 25.921875 
Q 29.6875 12.75 24.625 0.4375 
Q 19.578125 -11.859375 12.359375 -21.046875 
z
" id="ArialMT-41"/>
    </defs>
    <g style="fill:#262626;" transform="translate(87.125881 15.935625)scale(0.12 -0.12)">
     <use xlink:href="#ArialMT-77"/>
     <use x="83.300781" xlink:href="#ArialMT-111"/>
     <use x="138.916016" xlink:href="#ArialMT-100"/>
     <use x="194.53125" xlink:href="#ArialMT-101"/>
     <use x="250.146484" xlink:href="#ArialMT-108"/>
     <use x="272.363281" xlink:href="#ArialMT-32"/>
     <use x="300.146484" xlink:href="#ArialMT-49"/>
     <use x="355.761719" xlink:href="#ArialMT-32"/>
     <use x="383.544922" xlink:href="#ArialMT-45"/>
     <use x="416.845703" xlink:href="#ArialMT-32"/>
     <use x="442.878906" xlink:href="#ArialMT-84"/>
     <use x="492.837891" xlink:href="#ArialMT-101"/>
     <use x="548.453125" xlink:href="#ArialMT-115"/>
     <use x="598.453125" xlink:href="#ArialMT-116"/>
     <use x="626.236328" xlink:href="#ArialMT-32"/>
     <use x="654.019531" xlink:href="#ArialMT-118"/>
     <use x="704.019531" xlink:href="#ArialMT-115"/>
     <use x="754.019531" xlink:href="#ArialMT-32"/>
     <use x="781.802734" xlink:href="#ArialMT-80"/>
     <use x="848.501953" xlink:href="#ArialMT-114"/>
     <use x="881.802734" xlink:href="#ArialMT-101"/>
     <use x="937.417969" xlink:href="#ArialMT-100"/>
     <use x="993.033203" xlink:href="#ArialMT-105"/>
     <use x="1015.25" xlink:href="#ArialMT-99"/>
     <use x="1065.25" xlink:href="#ArialMT-116"/>
     <use x="1093.033203" xlink:href="#ArialMT-105"/>
     <use x="1115.25" xlink:href="#ArialMT-111"/>
     <use x="1170.865234" xlink:href="#ArialMT-110"/>
     <use x="1226.480469" xlink:href="#ArialMT-115"/>
     <use x="1276.480469" xlink:href="#ArialMT-32"/>
     <use x="1304.263672" xlink:href="#ArialMT-40"/>
     <use x="1337.564453" xlink:href="#ArialMT-84"/>
     <use x="1387.523438" xlink:href="#ArialMT-101"/>
     <use x="1443.138672" xlink:href="#ArialMT-115"/>
     <use x="1493.138672" xlink:href="#ArialMT-116"/>
     <use x="1520.921875" xlink:href="#ArialMT-32"/>
     <use x="1548.705078" xlink:href="#ArialMT-83"/>
     <use x="1615.404297" xlink:href="#ArialMT-101"/>
     <use x="1671.019531" xlink:href="#ArialMT-116"/>
     <use x="1698.802734" xlink:href="#ArialMT-41"/>
    </g>
   </g>
  </g>
  <g id="axes_2">
   <g id="patch_7">
    <path d="M 404.100426 348.095625 
L 708.464062 348.095625 
L 708.464062 21.935625 
L 404.100426 21.935625 
z
" style="fill:#e6e6e6;"/>
   </g>
   <g id="matplotlib.axis_3">
    <g id="xtick_6">
     <g id="line2d_12">
      <path clip-path="url(#pc2876644c0)" d="M 417.749558 348.095625 
L 417.749558 21.935625 
" style="fill:none;stroke:#cccccc;stroke-linecap:round;stroke-width:0.8;"/>
     </g>
     <g id="text_14">
      <!-- −1.0 -->
      <defs>
       <path d="M 9.078125 0 
L 9.078125 10.015625 
L 19.09375 10.015625 
L 19.09375 0 
z
" id="ArialMT-46"/>
      </defs>
      <g style="fill:#262626;" transform="translate(407.879246 362.253438)scale(0.1 -0.1)">
       <use xlink:href="#ArialMT-8722"/>
       <use x="58.398438" xlink:href="#ArialMT-49"/>
       <use x="114.013672" xlink:href="#ArialMT-46"/>
       <use x="141.796875" xlink:href="#ArialMT-48"/>
      </g>
     </g>
    </g>
    <g id="xtick_7">
     <g id="line2d_13">
      <path clip-path="url(#pc2876644c0)" d="M 483.524964 348.095625 
L 483.524964 21.935625 
" style="fill:none;stroke:#cccccc;stroke-linecap:round;stroke-width:0.8;"/>
     </g>
     <g id="text_15">
      <!-- −0.5 -->
      <defs>
       <path d="M 4.15625 18.75 
L 13.375 19.53125 
Q 14.40625 12.796875 18.140625 9.390625 
Q 21.875 6 27.15625 6 
Q 33.5 6 37.890625 10.78125 
Q 42.28125 15.578125 42.28125 23.484375 
Q 42.28125 31 38.0625 35.34375 
Q 33.84375 39.703125 27 39.703125 
Q 22.75 39.703125 19.328125 37.765625 
Q 15.921875 35.84375 13.96875 32.765625 
L 5.71875 33.84375 
L 12.640625 70.609375 
L 48.25 70.609375 
L 48.25 62.203125 
L 19.671875 62.203125 
L 15.828125 42.96875 
Q 22.265625 47.46875 29.34375 47.46875 
Q 38.71875 47.46875 45.15625 40.96875 
Q 51.609375 34.46875 51.609375 24.265625 
Q 51.609375 14.546875 45.953125 7.46875 
Q 39.0625 -1.21875 27.15625 -1.21875 
Q 17.390625 -1.21875 11.203125 4.25 
Q 5.03125 9.71875 4.15625 18.75 
z
" id="ArialMT-53"/>
      </defs>
      <g style="fill:#262626;" transform="translate(473.654652 362.253438)scale(0.1 -0.1)">
       <use xlink:href="#ArialMT-8722"/>
       <use x="58.398438" xlink:href="#ArialMT-48"/>
       <use x="114.013672" xlink:href="#ArialMT-46"/>
       <use x="141.796875" xlink:href="#ArialMT-53"/>
      </g>
     </g>
    </g>
    <g id="xtick_8">
     <g id="line2d_14">
      <path clip-path="url(#pc2876644c0)" d="M 549.30037 348.095625 
L 549.30037 21.935625 
" style="fill:none;stroke:#cccccc;stroke-linecap:round;stroke-width:0.8;"/>
     </g>
     <g id="text_16">
      <!-- 0.0 -->
      <g style="fill:#262626;" transform="translate(542.35037 362.253438)scale(0.1 -0.1)">
       <use xlink:href="#ArialMT-48"/>
       <use x="55.615234" xlink:href="#ArialMT-46"/>
       <use x="83.398438" xlink:href="#ArialMT-48"/>
      </g>
     </g>
    </g>
    <g id="xtick_9">
     <g id="line2d_15">
      <path clip-path="url(#pc2876644c0)" d="M 615.075776 348.095625 
L 615.075776 21.935625 
" style="fill:none;stroke:#cccccc;stroke-linecap:round;stroke-width:0.8;"/>
     </g>
     <g id="text_17">
      <!-- 0.5 -->
      <g style="fill:#262626;" transform="translate(608.125776 362.253438)scale(0.1 -0.1)">
       <use xlink:href="#ArialMT-48"/>
       <use x="55.615234" xlink:href="#ArialMT-46"/>
       <use x="83.398438" xlink:href="#ArialMT-53"/>
      </g>
     </g>
    </g>
    <g id="xtick_10">
     <g id="line2d_16">
      <path clip-path="url(#pc2876644c0)" d="M 680.851182 348.095625 
L 680.851182 21.935625 
" style="fill:none;stroke:#cccccc;stroke-linecap:round;stroke-width:0.8;"/>
     </g>
     <g id="text_18">
      <!-- 1.0 -->
      <g style="fill:#262626;" transform="translate(673.901182 362.253438)scale(0.1 -0.1)">
       <use xlink:href="#ArialMT-49"/>
       <use x="55.615234" xlink:href="#ArialMT-46"/>
       <use x="83.398438" xlink:href="#ArialMT-48"/>
      </g>
     </g>
    </g>
    <g id="text_19">
     <!-- error -->
     <g style="fill:#262626;" transform="translate(545.726776 375.39875)scale(0.1 -0.1)">
      <use xlink:href="#ArialMT-101"/>
      <use x="55.615234" xlink:href="#ArialMT-114"/>
      <use x="88.916016" xlink:href="#ArialMT-114"/>
      <use x="122.216797" xlink:href="#ArialMT-111"/>
      <use x="177.832031" xlink:href="#ArialMT-114"/>
     </g>
    </g>
   </g>
   <g id="matplotlib.axis_4">
    <g id="ytick_6">
     <g id="line2d_17">
      <path clip-path="url(#pc2876644c0)" d="M 404.100426 348.095625 
L 708.464062 348.095625 
" style="fill:none;stroke:#cccccc;stroke-linecap:round;stroke-width:0.8;"/>
     </g>
     <g id="text_20">
      <!-- 0.0 -->
      <g style="fill:#262626;" transform="translate(383.200426 351.674531)scale(0.1 -0.1)">
       <use xlink:href="#ArialMT-48"/>
       <use x="55.615234" xlink:href="#ArialMT-46"/>
       <use x="83.398438" xlink:href="#ArialMT-48"/>
      </g>
     </g>
    </g>
    <g id="ytick_7">
     <g id="line2d_18">
      <path clip-path="url(#pc2876644c0)" d="M 404.100426 301.733477 
L 708.464062 301.733477 
" style="fill:none;stroke:#cccccc;stroke-linecap:round;stroke-width:0.8;"/>
     </g>
     <g id="text_21">
      <!-- 0.2 -->
      <g style="fill:#262626;" transform="translate(383.200426 305.312383)scale(0.1 -0.1)">
       <use xlink:href="#ArialMT-48"/>
       <use x="55.615234" xlink:href="#ArialMT-46"/>
       <use x="83.398438" xlink:href="#ArialMT-50"/>
      </g>
     </g>
    </g>
    <g id="ytick_8">
     <g id="line2d_19">
      <path clip-path="url(#pc2876644c0)" d="M 404.100426 255.371329 
L 708.464062 255.371329 
" style="fill:none;stroke:#cccccc;stroke-linecap:round;stroke-width:0.8;"/>
     </g>
     <g id="text_22">
      <!-- 0.4 -->
      <defs>
       <path d="M 32.328125 0 
L 32.328125 17.140625 
L 1.265625 17.140625 
L 1.265625 25.203125 
L 33.9375 71.578125 
L 41.109375 71.578125 
L 41.109375 25.203125 
L 50.78125 25.203125 
L 50.78125 17.140625 
L 41.109375 17.140625 
L 41.109375 0 
z
M 32.328125 25.203125 
L 32.328125 57.46875 
L 9.90625 25.203125 
z
" id="ArialMT-52"/>
      </defs>
      <g style="fill:#262626;" transform="translate(383.200426 258.950235)scale(0.1 -0.1)">
       <use xlink:href="#ArialMT-48"/>
       <use x="55.615234" xlink:href="#ArialMT-46"/>
       <use x="83.398438" xlink:href="#ArialMT-52"/>
      </g>
     </g>
    </g>
    <g id="ytick_9">
     <g id="line2d_20">
      <path clip-path="url(#pc2876644c0)" d="M 404.100426 209.009181 
L 708.464062 209.009181 
" style="fill:none;stroke:#cccccc;stroke-linecap:round;stroke-width:0.8;"/>
     </g>
     <g id="text_23">
      <!-- 0.6 -->
      <defs>
       <path d="M 49.75 54.046875 
L 41.015625 53.375 
Q 39.84375 58.546875 37.703125 60.890625 
Q 34.125 64.65625 28.90625 64.65625 
Q 24.703125 64.65625 21.53125 62.3125 
Q 17.390625 59.28125 14.984375 53.46875 
Q 12.59375 47.65625 12.5 36.921875 
Q 15.671875 41.75 20.265625 44.09375 
Q 24.859375 46.4375 29.890625 46.4375 
Q 38.671875 46.4375 44.84375 39.96875 
Q 51.03125 33.5 51.03125 23.25 
Q 51.03125 16.5 48.125 10.71875 
Q 45.21875 4.9375 40.140625 1.859375 
Q 35.0625 -1.21875 28.609375 -1.21875 
Q 17.625 -1.21875 10.6875 6.859375 
Q 3.765625 14.9375 3.765625 33.5 
Q 3.765625 54.25 11.421875 63.671875 
Q 18.109375 71.875 29.4375 71.875 
Q 37.890625 71.875 43.28125 67.140625 
Q 48.6875 62.40625 49.75 54.046875 
z
M 13.875 23.1875 
Q 13.875 18.65625 15.796875 14.5 
Q 17.71875 10.359375 21.1875 8.171875 
Q 24.65625 6 28.46875 6 
Q 34.03125 6 38.03125 10.484375 
Q 42.046875 14.984375 42.046875 22.703125 
Q 42.046875 30.125 38.078125 34.390625 
Q 34.125 38.671875 28.125 38.671875 
Q 22.171875 38.671875 18.015625 34.390625 
Q 13.875 30.125 13.875 23.1875 
z
" id="ArialMT-54"/>
      </defs>
      <g style="fill:#262626;" transform="translate(383.200426 212.588087)scale(0.1 -0.1)">
       <use xlink:href="#ArialMT-48"/>
       <use x="55.615234" xlink:href="#ArialMT-46"/>
       <use x="83.398438" xlink:href="#ArialMT-54"/>
      </g>
     </g>
    </g>
    <g id="ytick_10">
     <g id="line2d_21">
      <path clip-path="url(#pc2876644c0)" d="M 404.100426 162.647033 
L 708.464062 162.647033 
" style="fill:none;stroke:#cccccc;stroke-linecap:round;stroke-width:0.8;"/>
     </g>
     <g id="text_24">
      <!-- 0.8 -->
      <defs>
       <path d="M 17.671875 38.8125 
Q 12.203125 40.828125 9.5625 44.53125 
Q 6.9375 48.25 6.9375 53.421875 
Q 6.9375 61.234375 12.546875 66.546875 
Q 18.171875 71.875 27.484375 71.875 
Q 36.859375 71.875 42.578125 66.421875 
Q 48.296875 60.984375 48.296875 53.171875 
Q 48.296875 48.1875 45.671875 44.5 
Q 43.0625 40.828125 37.75 38.8125 
Q 44.34375 36.671875 47.78125 31.875 
Q 51.21875 27.09375 51.21875 20.453125 
Q 51.21875 11.28125 44.71875 5.03125 
Q 38.234375 -1.21875 27.640625 -1.21875 
Q 17.046875 -1.21875 10.546875 5.046875 
Q 4.046875 11.328125 4.046875 20.703125 
Q 4.046875 27.6875 7.59375 32.390625 
Q 11.140625 37.109375 17.671875 38.8125 
z
M 15.921875 53.71875 
Q 15.921875 48.640625 19.1875 45.40625 
Q 22.46875 42.1875 27.6875 42.1875 
Q 32.765625 42.1875 36.015625 45.375 
Q 39.265625 48.578125 39.265625 53.21875 
Q 39.265625 58.0625 35.90625 61.359375 
Q 32.5625 64.65625 27.59375 64.65625 
Q 22.5625 64.65625 19.234375 61.421875 
Q 15.921875 58.203125 15.921875 53.71875 
z
M 13.09375 20.65625 
Q 13.09375 16.890625 14.875 13.375 
Q 16.65625 9.859375 20.171875 7.921875 
Q 23.6875 6 27.734375 6 
Q 34.03125 6 38.125 10.046875 
Q 42.234375 14.109375 42.234375 20.359375 
Q 42.234375 26.703125 38.015625 30.859375 
Q 33.796875 35.015625 27.4375 35.015625 
Q 21.234375 35.015625 17.15625 30.90625 
Q 13.09375 26.8125 13.09375 20.65625 
z
" id="ArialMT-56"/>
      </defs>
      <g style="fill:#262626;" transform="translate(383.200426 166.225939)scale(0.1 -0.1)">
       <use xlink:href="#ArialMT-48"/>
       <use x="55.615234" xlink:href="#ArialMT-46"/>
       <use x="83.398438" xlink:href="#ArialMT-56"/>
      </g>
     </g>
    </g>
    <g id="ytick_11">
     <g id="line2d_22">
      <path clip-path="url(#pc2876644c0)" d="M 404.100426 116.284885 
L 708.464062 116.284885 
" style="fill:none;stroke:#cccccc;stroke-linecap:round;stroke-width:0.8;"/>
     </g>
     <g id="text_25">
      <!-- 1.0 -->
      <g style="fill:#262626;" transform="translate(383.200426 119.863791)scale(0.1 -0.1)">
       <use xlink:href="#ArialMT-49"/>
       <use x="55.615234" xlink:href="#ArialMT-46"/>
       <use x="83.398438" xlink:href="#ArialMT-48"/>
      </g>
     </g>
    </g>
    <g id="ytick_12">
     <g id="line2d_23">
      <path clip-path="url(#pc2876644c0)" d="M 404.100426 69.922737 
L 708.464062 69.922737 
" style="fill:none;stroke:#cccccc;stroke-linecap:round;stroke-width:0.8;"/>
     </g>
     <g id="text_26">
      <!-- 1.2 -->
      <g style="fill:#262626;" transform="translate(383.200426 73.501643)scale(0.1 -0.1)">
       <use xlink:href="#ArialMT-49"/>
       <use x="55.615234" xlink:href="#ArialMT-46"/>
       <use x="83.398438" xlink:href="#ArialMT-50"/>
      </g>
     </g>
    </g>
    <g id="ytick_13">
     <g id="line2d_24">
      <path clip-path="url(#pc2876644c0)" d="M 404.100426 23.560589 
L 708.464062 23.560589 
" style="fill:none;stroke:#cccccc;stroke-linecap:round;stroke-width:0.8;"/>
     </g>
     <g id="text_27">
      <!-- 1.4 -->
      <g style="fill:#262626;" transform="translate(383.200426 27.139495)scale(0.1 -0.1)">
       <use xlink:href="#ArialMT-49"/>
       <use x="55.615234" xlink:href="#ArialMT-46"/>
       <use x="83.398438" xlink:href="#ArialMT-52"/>
      </g>
     </g>
    </g>
   </g>
   <g id="patch_8">
    <path clip-path="url(#pc2876644c0)" d="M 456.310874 348.095625 
L 471.691085 348.095625 
L 471.691085 295.222677 
L 456.310874 295.222677 
z
" style="fill:#4c72b0;opacity:0.4;stroke:#ffffff;stroke-linejoin:miter;"/>
   </g>
   <g id="patch_9">
    <path clip-path="url(#pc2876644c0)" d="M 471.691085 348.095625 
L 487.071295 348.095625 
L 487.071295 295.222677 
L 471.691085 295.222677 
z
" style="fill:#4c72b0;opacity:0.4;stroke:#ffffff;stroke-linejoin:miter;"/>
   </g>
   <g id="patch_10">
    <path clip-path="url(#pc2876644c0)" d="M 487.071295 348.095625 
L 502.451506 348.095625 
L 502.451506 235.74061 
L 487.071295 235.74061 
z
" style="fill:#4c72b0;opacity:0.4;stroke:#ffffff;stroke-linejoin:miter;"/>
   </g>
   <g id="patch_11">
    <path clip-path="url(#pc2876644c0)" d="M 502.451506 348.095625 
L 517.831717 348.095625 
L 517.831717 189.47678 
L 502.451506 189.47678 
z
" style="fill:#4c72b0;opacity:0.4;stroke:#ffffff;stroke-linejoin:miter;"/>
   </g>
   <g id="patch_12">
    <path clip-path="url(#pc2876644c0)" d="M 517.831717 348.095625 
L 533.211928 348.095625 
L 533.211928 37.467054 
L 517.831717 37.467054 
z
" style="fill:#4c72b0;opacity:0.4;stroke:#ffffff;stroke-linejoin:miter;"/>
   </g>
   <g id="patch_13">
    <path clip-path="url(#pc2876644c0)" d="M 533.211928 348.095625 
L 548.592139 348.095625 
L 548.592139 96.94912 
L 533.211928 96.94912 
z
" style="fill:#4c72b0;opacity:0.4;stroke:#ffffff;stroke-linejoin:miter;"/>
   </g>
   <g id="patch_14">
    <path clip-path="url(#pc2876644c0)" d="M 548.592139 348.095625 
L 563.97235 348.095625 
L 563.97235 57.294409 
L 548.592139 57.294409 
z
" style="fill:#4c72b0;opacity:0.4;stroke:#ffffff;stroke-linejoin:miter;"/>
   </g>
   <g id="patch_15">
    <path clip-path="url(#pc2876644c0)" d="M 563.97235 348.095625 
L 579.352561 348.095625 
L 579.352561 77.121765 
L 563.97235 77.121765 
z
" style="fill:#4c72b0;opacity:0.4;stroke:#ffffff;stroke-linejoin:miter;"/>
   </g>
   <g id="patch_16">
    <path clip-path="url(#pc2876644c0)" d="M 579.352561 348.095625 
L 594.732771 348.095625 
L 594.732771 123.385595 
L 579.352561 123.385595 
z
" style="fill:#4c72b0;opacity:0.4;stroke:#ffffff;stroke-linejoin:miter;"/>
   </g>
   <g id="patch_17">
    <path clip-path="url(#pc2876644c0)" d="M 594.732771 348.095625 
L 610.112982 348.095625 
L 610.112982 163.040306 
L 594.732771 163.040306 
z
" style="fill:#4c72b0;opacity:0.4;stroke:#ffffff;stroke-linejoin:miter;"/>
   </g>
   <g id="patch_18">
    <path clip-path="url(#pc2876644c0)" d="M 610.112982 348.095625 
L 625.493193 348.095625 
L 625.493193 288.613558 
L 610.112982 288.613558 
z
" style="fill:#4c72b0;opacity:0.4;stroke:#ffffff;stroke-linejoin:miter;"/>
   </g>
   <g id="patch_19">
    <path clip-path="url(#pc2876644c0)" d="M 625.493193 348.095625 
L 640.873404 348.095625 
L 640.873404 341.486506 
L 625.493193 341.486506 
z
" style="fill:#4c72b0;opacity:0.4;stroke:#ffffff;stroke-linejoin:miter;"/>
   </g>
   <g id="patch_20">
    <path clip-path="url(#pc2876644c0)" d="M 640.873404 348.095625 
L 656.253615 348.095625 
L 656.253615 341.486506 
L 640.873404 341.486506 
z
" style="fill:#4c72b0;opacity:0.4;stroke:#ffffff;stroke-linejoin:miter;"/>
   </g>
   <g id="line2d_25">
    <path clip-path="url(#pc2876644c0)" d="M 417.935137 347.975846 
L 422.292526 347.815422 
L 426.649915 347.404792 
L 428.82861 347.042586 
L 431.007305 346.529553 
L 433.185999 345.824815 
L 435.364694 344.885405 
L 437.543388 343.670045 
L 439.722083 342.143872 
L 441.900778 340.283544 
L 444.079472 338.081873 
L 446.258167 335.55095 
L 448.436861 332.722754 
L 452.794251 326.382684 
L 459.330334 316.041093 
L 465.866418 305.301424 
L 468.045113 301.482016 
L 470.223807 297.423377 
L 472.402502 293.054354 
L 474.581197 288.323537 
L 476.759891 283.209595 
L 478.938586 277.72575 
L 483.295975 265.851115 
L 489.832059 246.785902 
L 494.189448 233.579322 
L 498.546837 219.399774 
L 500.725532 211.603986 
L 502.904226 203.133471 
L 505.082921 193.861285 
L 507.261616 183.710516 
L 509.44031 172.675724 
L 511.619005 160.838827 
L 515.976394 135.560166 
L 520.333783 110.315776 
L 522.512478 98.718625 
L 524.691173 88.353563 
L 526.869867 79.56744 
L 529.048562 72.610809 
L 531.227256 67.611776 
L 533.405951 64.564181 
L 535.584646 63.331934 
L 537.76334 63.668615 
L 539.942035 65.248778 
L 542.120729 67.70567 
L 546.478119 73.800571 
L 548.656813 76.815151 
L 550.835508 79.500419 
L 553.014202 81.721466 
L 555.192897 83.420897 
L 557.371592 84.61381 
L 559.550286 85.37991 
L 561.728981 85.853631 
L 566.08637 86.661339 
L 568.265065 87.417902 
L 570.443759 88.690841 
L 572.622454 90.661444 
L 574.801148 93.465945 
L 576.979843 97.183349 
L 579.158538 101.830976 
L 581.337232 107.368996 
L 583.515927 113.713429 
L 585.694621 120.755308 
L 587.873316 128.382244 
L 592.230705 145.036571 
L 596.588095 163.287412 
L 600.945484 183.173667 
L 605.302873 204.739975 
L 611.838957 239.134219 
L 616.196346 261.774444 
L 618.375041 272.495244 
L 620.553735 282.613873 
L 622.73243 292.012664 
L 624.911124 300.606121 
L 627.089819 308.340315 
L 629.268514 315.189941 
L 631.447208 321.154459 
L 633.625903 326.254449 
L 635.804597 330.528696 
L 637.983292 334.031977 
L 640.161987 336.833131 
L 642.340681 339.012854 
L 644.519376 340.660785 
L 646.69807 341.871675 
L 648.876765 342.740806 
L 651.05546 343.359052 
L 655.412849 344.156959 
L 668.485016 346.053862 
L 675.0211 346.998584 
L 679.37849 347.462717 
L 685.914573 347.866843 
L 692.450657 348.002928 
L 694.629352 348.002064 
L 694.629352 348.002064 
" style="fill:none;stroke:#4c72b0;stroke-linecap:round;stroke-width:1.5;"/>
   </g>
   <g id="line2d_26">
    <path clip-path="url(#pc2876644c0)" d="M 549.509312 348.095625 
L 549.509312 21.935625 
" style="fill:none;stroke:#c44e52;stroke-dasharray:5.55,2.4;stroke-dashoffset:0;stroke-width:1.5;"/>
   </g>
   <g id="line2d_27">
    <path clip-path="url(#pc2876644c0)" d="M 624.978335 348.095625 
L 624.978335 21.935625 
" style="fill:none;stroke:#8172b3;stroke-dasharray:5.55,2.4;stroke-dashoffset:0;stroke-width:1.5;"/>
   </g>
   <g id="line2d_28">
    <path clip-path="url(#pc2876644c0)" d="M 474.04029 348.095625 
L 474.04029 21.935625 
" style="fill:none;stroke:#8172b3;stroke-dasharray:5.55,2.4;stroke-dashoffset:0;stroke-width:1.5;"/>
   </g>
   <g id="line2d_29">
    <path clip-path="url(#pc2876644c0)" d="M 549.509312 348.095625 
L 549.509312 21.935625 
" style="fill:none;stroke:#c44e52;stroke-dasharray:5.55,2.4;stroke-dashoffset:0;stroke-width:1.5;"/>
   </g>
   <g id="patch_21">
    <path d="M 404.100426 348.095625 
L 404.100426 21.935625 
" style="fill:none;stroke:#ffffff;stroke-linecap:square;stroke-linejoin:miter;stroke-width:0.8;"/>
   </g>
   <g id="patch_22">
    <path d="M 708.464062 348.095625 
L 708.464062 21.935625 
" style="fill:none;stroke:#ffffff;stroke-linecap:square;stroke-linejoin:miter;stroke-width:0.8;"/>
   </g>
   <g id="patch_23">
    <path d="M 404.100426 348.095625 
L 708.464062 348.095625 
" style="fill:none;stroke:#ffffff;stroke-linecap:square;stroke-linejoin:miter;stroke-width:0.8;"/>
   </g>
   <g id="patch_24">
    <path d="M 404.100426 21.935625 
L 708.464062 21.935625 
" style="fill:none;stroke:#ffffff;stroke-linecap:square;stroke-linejoin:miter;stroke-width:0.8;"/>
   </g>
   <g id="text_28">
    <!-- Model 1  - Errors -->
    <defs>
     <path d="M 7.90625 0 
L 7.90625 71.578125 
L 59.671875 71.578125 
L 59.671875 63.140625 
L 17.390625 63.140625 
L 17.390625 41.21875 
L 56.984375 41.21875 
L 56.984375 32.8125 
L 17.390625 32.8125 
L 17.390625 8.453125 
L 61.328125 8.453125 
L 61.328125 0 
z
" id="ArialMT-69"/>
    </defs>
    <g style="fill:#262626;" transform="translate(511.607557 15.935625)scale(0.12 -0.12)">
     <use xlink:href="#ArialMT-77"/>
     <use x="83.300781" xlink:href="#ArialMT-111"/>
     <use x="138.916016" xlink:href="#ArialMT-100"/>
     <use x="194.53125" xlink:href="#ArialMT-101"/>
     <use x="250.146484" xlink:href="#ArialMT-108"/>
     <use x="272.363281" xlink:href="#ArialMT-32"/>
     <use x="300.146484" xlink:href="#ArialMT-49"/>
     <use x="355.761719" xlink:href="#ArialMT-32"/>
     <use x="383.544922" xlink:href="#ArialMT-32"/>
     <use x="411.328125" xlink:href="#ArialMT-45"/>
     <use x="444.628906" xlink:href="#ArialMT-32"/>
     <use x="472.412109" xlink:href="#ArialMT-69"/>
     <use x="539.111328" xlink:href="#ArialMT-114"/>
     <use x="572.412109" xlink:href="#ArialMT-114"/>
     <use x="605.712891" xlink:href="#ArialMT-111"/>
     <use x="661.328125" xlink:href="#ArialMT-114"/>
     <use x="694.628906" xlink:href="#ArialMT-115"/>
    </g>
   </g>
   <g id="legend_1">
    <g id="patch_25">
     <path d="M 638.064062 58.793438 
L 701.464062 58.793438 
Q 703.464062 58.793438 703.464062 56.793438 
L 703.464062 28.935625 
Q 703.464062 26.935625 701.464062 26.935625 
L 638.064062 26.935625 
Q 636.064062 26.935625 636.064062 28.935625 
L 636.064062 56.793438 
Q 636.064062 58.793438 638.064062 58.793438 
z
" style="fill:#e6e6e6;opacity:0.8;stroke:#cccccc;stroke-linejoin:miter;"/>
    </g>
    <g id="line2d_30">
     <path d="M 640.064062 34.593438 
L 660.064062 34.593438 
" style="fill:none;stroke:#c44e52;stroke-dasharray:5.55,2.4;stroke-dashoffset:0;stroke-width:1.5;"/>
    </g>
    <g id="line2d_31"/>
    <g id="text_29">
     <!-- $\mu$ -->
     <defs>
      <path d="M -1.3125 -20.796875 
L 13.375 54.6875 
L 22.40625 54.6875 
L 15.765625 20.65625 
Q 15.578125 19.625 15.421875 18.359375 
Q 15.28125 17.09375 15.28125 15.828125 
Q 15.28125 11.28125 18.140625 8.828125 
Q 21 6.390625 26.3125 6.390625 
Q 33.546875 6.390625 37.984375 10.484375 
Q 42.4375 14.59375 44 22.796875 
L 50.203125 54.6875 
L 59.1875 54.6875 
L 51.03125 12.640625 
Q 50.828125 11.71875 50.75 11.03125 
Q 50.6875 10.359375 50.6875 9.8125 
Q 50.6875 8.296875 51.296875 7.59375 
Q 51.90625 6.890625 53.21875 6.890625 
Q 53.71875 6.890625 54.5625 7.125 
Q 55.421875 7.375 56.984375 8.015625 
L 55.609375 0.78125 
Q 53.46875 -0.296875 51.515625 -0.859375 
Q 49.5625 -1.421875 47.703125 -1.421875 
Q 44.484375 -1.421875 42.65625 0.625 
Q 40.828125 2.6875 40.828125 6.296875 
Q 38.09375 2.390625 34.296875 0.484375 
Q 30.515625 -1.421875 25.390625 -1.421875 
Q 20.84375 -1.421875 17.453125 0.671875 
Q 14.0625 2.78125 12.984375 6.203125 
L 7.71875 -20.796875 
z
" id="DejaVuSans-Oblique-956"/>
     </defs>
     <g style="fill:#262626;" transform="translate(668.064062 38.093438)scale(0.1 -0.1)">
      <use transform="translate(0 0.3125)" xlink:href="#DejaVuSans-Oblique-956"/>
     </g>
    </g>
    <g id="line2d_32">
     <path d="M 640.064062 49.193438 
L 660.064062 49.193438 
" style="fill:none;stroke:#8172b3;stroke-dasharray:5.55,2.4;stroke-dashoffset:0;stroke-width:1.5;"/>
    </g>
    <g id="line2d_33"/>
    <g id="text_30">
     <!-- $\mu \pm 2\sigma$ -->
     <defs>
      <path d="M 46 62.703125 
L 46 43.796875 
L 73.1875 43.796875 
L 73.1875 35.5 
L 46 35.5 
L 46 16.609375 
L 37.796875 16.609375 
L 37.796875 35.5 
L 10.59375 35.5 
L 10.59375 43.796875 
L 37.796875 43.796875 
L 37.796875 62.703125 
z
M 10.59375 8.296875 
L 73.1875 8.296875 
L 73.1875 0 
L 10.59375 0 
z
" id="DejaVuSans-177"/>
      <path d="M 19.1875 8.296875 
L 53.609375 8.296875 
L 53.609375 0 
L 7.328125 0 
L 7.328125 8.296875 
Q 12.9375 14.109375 22.625 23.890625 
Q 32.328125 33.6875 34.8125 36.53125 
Q 39.546875 41.84375 41.421875 45.53125 
Q 43.3125 49.21875 43.3125 52.78125 
Q 43.3125 58.59375 39.234375 62.25 
Q 35.15625 65.921875 28.609375 65.921875 
Q 23.96875 65.921875 18.8125 64.3125 
Q 13.671875 62.703125 7.8125 59.421875 
L 7.8125 69.390625 
Q 13.765625 71.78125 18.9375 73 
Q 24.125 74.21875 28.421875 74.21875 
Q 39.75 74.21875 46.484375 68.546875 
Q 53.21875 62.890625 53.21875 53.421875 
Q 53.21875 48.921875 51.53125 44.890625 
Q 49.859375 40.875 45.40625 35.40625 
Q 44.1875 33.984375 37.640625 27.21875 
Q 31.109375 20.453125 19.1875 8.296875 
z
" id="DejaVuSans-50"/>
      <path d="M 34.671875 47.5625 
Q 27.25 47.5625 22.21875 42.1875 
Q 16.890625 36.578125 15.140625 27.296875 
Q 13.1875 17.484375 16.3125 11.8125 
Q 19.390625 6.203125 26.65625 6.203125 
Q 33.84375 6.203125 39.109375 11.859375 
Q 44.4375 17.53125 46.34375 27.296875 
Q 48.046875 36.234375 45.015625 42.1875 
Q 42.1875 47.5625 34.671875 47.5625 
z
M 36.078125 54.734375 
L 65.921875 54.6875 
L 64.15625 45.703125 
L 54.109375 45.703125 
Q 57.90625 38.09375 55.859375 27.296875 
Q 53.21875 13.875 45.0625 6.25 
Q 36.859375 -1.421875 25.140625 -1.421875 
Q 13.375 -1.421875 8.203125 6.25 
Q 3.03125 13.875 5.671875 27.296875 
Q 8.25 40.765625 16.40625 48.390625 
Q 23.1875 54.734375 36.078125 54.734375 
z
" id="DejaVuSans-Oblique-963"/>
     </defs>
     <g style="fill:#262626;" transform="translate(668.064062 52.693438)scale(0.1 -0.1)">
      <use transform="translate(0 0.78125)" xlink:href="#DejaVuSans-Oblique-956"/>
      <use transform="translate(83.105469 0.78125)" xlink:href="#DejaVuSans-177"/>
      <use transform="translate(186.376953 0.78125)" xlink:href="#DejaVuSans-50"/>
      <use transform="translate(250 0.78125)" xlink:href="#DejaVuSans-Oblique-963"/>
     </g>
    </g>
   </g>
  </g>
 </g>
 <defs>
  <clipPath id="p38ff0bbf9e">
   <rect height="326.16" width="304.363636" x="38.864063" y="21.935625"/>
  </clipPath>
  <clipPath id="pc2876644c0">
   <rect height="326.16" width="304.363636" x="404.100426" y="21.935625"/>
  </clipPath>
 </defs>
</svg>
