<?xml version="1.0" encoding="UTF-8" standalone="no"?>
<!DOCTYPE svg PUBLIC "-//W3C//DTD SVG 1.1//EN"
 "http://www.w3.org/Graphics/SVG/1.1/DTD/svg11.dtd">
<!-- Generated by graphviz version 2.50.0 (0)
 -->
<!-- Pages: 1 -->
<svg width="464pt" height="438pt"
 viewBox="0.00 0.00 463.82 437.88" xmlns="http://www.w3.org/2000/svg" xmlns:xlink="http://www.w3.org/1999/xlink">
<g id="graph0" class="graph" transform="scale(1 1) rotate(0) translate(4 433.88)">
<polygon fill="white" stroke="transparent" points="-4,4 -4,-433.88 459.82,-433.88 459.82,4 -4,4"/>
<g id="clust1" class="cluster">
<title>clusterdate (91)</title>
<path fill="none" stroke="black" d="M106.13,-8C106.13,-8 210.13,-8 210.13,-8 216.13,-8 222.13,-14 222.13,-20 222.13,-20 222.13,-409.88 222.13,-409.88 222.13,-415.88 216.13,-421.88 210.13,-421.88 210.13,-421.88 106.13,-421.88 106.13,-421.88 100.13,-421.88 94.13,-415.88 94.13,-409.88 94.13,-409.88 94.13,-20 94.13,-20 94.13,-14 100.13,-8 106.13,-8"/>
<text text-anchor="middle" x="189.63" y="-15.8" font-family="Times,serif" font-size="14.00">date (91)</text>
</g>
<!-- mu -->
<g id="node1" class="node">
<title>mu</title>
<polygon fill="none" stroke="black" points="209.63,-302.93 118.63,-302.93 118.63,-249.93 209.63,-249.93 209.63,-302.93"/>
<text text-anchor="middle" x="164.13" y="-287.73" font-family="Times,serif" font-size="14.00">mu</text>
<text text-anchor="middle" x="164.13" y="-272.73" font-family="Times,serif" font-size="14.00">~</text>
<text text-anchor="middle" x="164.13" y="-257.73" font-family="Times,serif" font-size="14.00">Deterministic</text>
</g>
<!-- likelihood -->
<g id="node3" class="node">
<title>likelihood</title>
<ellipse fill="lightgrey" stroke="black" cx="162.13" cy="-165.48" rx="50.41" ry="37.45"/>
<text text-anchor="middle" x="162.13" y="-176.78" font-family="Times,serif" font-size="14.00">likelihood</text>
<text text-anchor="middle" x="162.13" y="-161.78" font-family="Times,serif" font-size="14.00">~</text>
<text text-anchor="middle" x="162.13" y="-146.78" font-family="Times,serif" font-size="14.00">StudentT</text>
</g>
<!-- mu&#45;&gt;likelihood -->
<g id="edge6" class="edge">
<title>mu&#45;&gt;likelihood</title>
<path fill="none" stroke="black" d="M163.66,-249.89C163.46,-238.98 163.22,-225.89 162.99,-213.35"/>
<polygon fill="black" stroke="black" points="166.49,-212.94 162.8,-203 159.49,-213.06 166.49,-212.94"/>
</g>
<!-- y_treatment_data -->
<g id="node2" class="node">
<title>y_treatment_data</title>
<path fill="lightgrey" stroke="black" d="M201.63,-92C201.63,-92 114.63,-92 114.63,-92 108.63,-92 102.63,-86 102.63,-80 102.63,-80 102.63,-51 102.63,-51 102.63,-45 108.63,-39 114.63,-39 114.63,-39 201.63,-39 201.63,-39 207.63,-39 213.63,-45 213.63,-51 213.63,-51 213.63,-80 213.63,-80 213.63,-86 207.63,-92 201.63,-92"/>
<text text-anchor="middle" x="158.13" y="-76.8" font-family="Times,serif" font-size="14.00">y_treatment_data</text>
<text text-anchor="middle" x="158.13" y="-61.8" font-family="Times,serif" font-size="14.00">~</text>
<text text-anchor="middle" x="158.13" y="-46.8" font-family="Times,serif" font-size="14.00">MutableData</text>
</g>
<!-- likelihood&#45;&gt;y_treatment_data -->
<g id="edge1" class="edge">
<title>likelihood&#45;&gt;y_treatment_data</title>
<path fill="none" stroke="black" d="M160.64,-127.99C160.3,-119.58 159.94,-110.63 159.59,-102.25"/>
<polygon fill="black" stroke="black" points="163.08,-101.86 159.18,-92.01 156.09,-102.14 163.08,-101.86"/>
</g>
<!-- y_control_data -->
<g id="node4" class="node">
<title>y_control_data</title>
<path fill="lightgrey" stroke="black" d="M200.13,-413.88C200.13,-413.88 126.13,-413.88 126.13,-413.88 120.13,-413.88 114.13,-407.88 114.13,-401.88 114.13,-401.88 114.13,-372.88 114.13,-372.88 114.13,-366.88 120.13,-360.88 126.13,-360.88 126.13,-360.88 200.13,-360.88 200.13,-360.88 206.13,-360.88 212.13,-366.88 212.13,-372.88 212.13,-372.88 212.13,-401.88 212.13,-401.88 212.13,-407.88 206.13,-413.88 200.13,-413.88"/>
<text text-anchor="middle" x="163.13" y="-398.68" font-family="Times,serif" font-size="14.00">y_control_data</text>
<text text-anchor="middle" x="163.13" y="-383.68" font-family="Times,serif" font-size="14.00">~</text>
<text text-anchor="middle" x="163.13" y="-368.68" font-family="Times,serif" font-size="14.00">MutableData</text>
</g>
<!-- y_control_data&#45;&gt;mu -->
<g id="edge4" class="edge">
<title>y_control_data&#45;&gt;mu</title>
<path fill="none" stroke="black" d="M163.37,-360.84C163.5,-346.73 163.66,-328.98 163.8,-313.49"/>
<polygon fill="black" stroke="black" points="167.31,-313.22 163.9,-303.19 160.31,-313.16 167.31,-313.22"/>
</g>
<!-- nu -->
<g id="node5" class="node">
<title>nu</title>
<ellipse fill="none" stroke="black" cx="43.13" cy="-276.43" rx="43.27" ry="37.45"/>
<text text-anchor="middle" x="43.13" y="-287.73" font-family="Times,serif" font-size="14.00">nu</text>
<text text-anchor="middle" x="43.13" y="-272.73" font-family="Times,serif" font-size="14.00">~</text>
<text text-anchor="middle" x="43.13" y="-257.73" font-family="Times,serif" font-size="14.00">Gamma</text>
</g>
<!-- nu&#45;&gt;likelihood -->
<g id="edge5" class="edge">
<title>nu&#45;&gt;likelihood</title>
<path fill="none" stroke="black" d="M72.55,-248.5C87.95,-234.4 107,-216.96 123.56,-201.79"/>
<polygon fill="black" stroke="black" points="125.96,-204.34 130.98,-195 121.24,-199.17 125.96,-204.34"/>
</g>
<!-- sigma -->
<g id="node6" class="node">
<title>sigma</title>
<ellipse fill="none" stroke="black" cx="289.13" cy="-276.43" rx="58.88" ry="37.45"/>
<text text-anchor="middle" x="289.13" y="-287.73" font-family="Times,serif" font-size="14.00">sigma</text>
<text text-anchor="middle" x="289.13" y="-272.73" font-family="Times,serif" font-size="14.00">~</text>
<text text-anchor="middle" x="289.13" y="-257.73" font-family="Times,serif" font-size="14.00">HalfNormal</text>
</g>
<!-- sigma&#45;&gt;likelihood -->
<g id="edge7" class="edge">
<title>sigma&#45;&gt;likelihood</title>
<path fill="none" stroke="black" d="M254.77,-245.95C238.73,-232.19 219.53,-215.72 202.78,-201.35"/>
<polygon fill="black" stroke="black" points="204.65,-198.34 194.78,-194.48 200.09,-203.65 204.65,-198.34"/>
</g>
<!-- intercept -->
<g id="node7" class="node">
<title>intercept</title>
<ellipse fill="none" stroke="black" cx="275.13" cy="-387.38" rx="45.01" ry="37.45"/>
<text text-anchor="middle" x="275.13" y="-398.68" font-family="Times,serif" font-size="14.00">intercept</text>
<text text-anchor="middle" x="275.13" y="-383.68" font-family="Times,serif" font-size="14.00">~</text>
<text text-anchor="middle" x="275.13" y="-368.68" font-family="Times,serif" font-size="14.00">Normal</text>
</g>
<!-- intercept&#45;&gt;mu -->
<g id="edge2" class="edge">
<title>intercept&#45;&gt;mu</title>
<path fill="none" stroke="black" d="M246.55,-358.33C231.64,-343.7 213.32,-325.71 197.74,-310.42"/>
<polygon fill="black" stroke="black" points="199.93,-307.66 190.34,-303.15 195.02,-312.66 199.93,-307.66"/>
</g>
<!-- beta -->
<g id="node8" class="node">
<title>beta</title>
<ellipse fill="none" stroke="black" cx="397.13" cy="-387.38" rx="58.88" ry="37.45"/>
<text text-anchor="middle" x="397.13" y="-398.68" font-family="Times,serif" font-size="14.00">beta</text>
<text text-anchor="middle" x="397.13" y="-383.68" font-family="Times,serif" font-size="14.00">~</text>
<text text-anchor="middle" x="397.13" y="-368.68" font-family="Times,serif" font-size="14.00">HalfNormal</text>
</g>
<!-- beta&#45;&gt;mu -->
<g id="edge3" class="edge">
<title>beta&#45;&gt;mu</title>
<path fill="none" stroke="black" d="M353.78,-361.71C345.71,-357.53 337.25,-353.41 329.13,-349.91 282.67,-329.88 266.79,-335.71 221.13,-313.91 217.54,-312.19 213.9,-310.29 210.28,-308.28"/>
<polygon fill="black" stroke="black" points="211.8,-305.12 201.4,-303.12 208.28,-311.17 211.8,-305.12"/>
</g>
</g>
</svg>
