<?xml version="1.0" encoding="UTF-8" standalone="no"?>
<!DOCTYPE svg PUBLIC "-//W3C//DTD SVG 1.1//EN"
 "http://www.w3.org/Graphics/SVG/1.1/DTD/svg11.dtd">
<!-- Generated by graphviz version 7.0.6 (20230106.0513)
 -->
<!-- Pages: 1 -->
<svg width="1223pt" height="638pt"
 viewBox="0.00 0.00 1222.93 637.86" xmlns="http://www.w3.org/2000/svg" xmlns:xlink="http://www.w3.org/1999/xlink">
<g id="graph0" class="graph" transform="scale(1 1) rotate(0) translate(4 633.86)">
<polygon fill="white" stroke="none" points="-4,4 -4,-633.86 1218.93,-633.86 1218.93,4 -4,4"/>
<g id="clust1" class="cluster">
<title>clusterobs (595)</title>
<path fill="none" stroke="black" d="M20,-8C20,-8 484,-8 484,-8 490,-8 496,-14 496,-20 496,-20 496,-509.86 496,-509.86 496,-515.86 490,-521.86 484,-521.86 484,-521.86 20,-521.86 20,-521.86 14,-521.86 8,-515.86 8,-509.86 8,-509.86 8,-20 8,-20 8,-14 14,-8 20,-8"/>
<text text-anchor="middle" x="462" y="-15.8" font-family="Times,serif" font-size="14.00">obs (595)</text>
</g>
<g id="clust2" class="cluster">
<title>clusterobs (595) x feature (3)</title>
<path fill="none" stroke="black" d="M25,-529.86C25,-529.86 141,-529.86 141,-529.86 147,-529.86 153,-535.86 153,-541.86 153,-541.86 153,-609.86 153,-609.86 153,-615.86 147,-621.86 141,-621.86 141,-621.86 25,-621.86 25,-621.86 19,-621.86 13,-615.86 13,-609.86 13,-609.86 13,-541.86 13,-541.86 13,-535.86 19,-529.86 25,-529.86"/>
<text text-anchor="middle" x="83" y="-537.66" font-family="Times,serif" font-size="14.00">obs (595) x feature (3)</text>
</g>
<!-- mean_revenue_per_user -->
<g id="node1" class="node">
<title>mean_revenue_per_user</title>
<polygon fill="none" stroke="black" points="487.5,-191.98 338.5,-191.98 338.5,-138.98 487.5,-138.98 487.5,-191.98"/>
<text text-anchor="middle" x="413" y="-176.78" font-family="Times,serif" font-size="14.00">mean_revenue_per_user</text>
<text text-anchor="middle" x="413" y="-161.78" font-family="Times,serif" font-size="14.00">~</text>
<text text-anchor="middle" x="413" y="-146.78" font-family="Times,serif" font-size="14.00">Deterministic</text>
</g>
<!-- mean_revenue_per_active_user -->
<g id="node13" class="node">
<title>mean_revenue_per_active_user</title>
<polygon fill="none" stroke="black" points="487,-92 299,-92 299,-39 487,-39 487,-92"/>
<text text-anchor="middle" x="393" y="-76.8" font-family="Times,serif" font-size="14.00">mean_revenue_per_active_user</text>
<text text-anchor="middle" x="393" y="-61.8" font-family="Times,serif" font-size="14.00">~</text>
<text text-anchor="middle" x="393" y="-46.8" font-family="Times,serif" font-size="14.00">Deterministic</text>
</g>
<!-- mean_revenue_per_user&#45;&gt;mean_revenue_per_active_user -->
<g id="edge17" class="edge">
<title>mean_revenue_per_user&#45;&gt;mean_revenue_per_active_user</title>
<path fill="none" stroke="black" d="M407.69,-138.48C405.51,-127.76 402.93,-115.15 400.55,-103.5"/>
<polygon fill="black" stroke="black" points="403.99,-102.86 398.57,-93.76 397.14,-104.26 403.99,-102.86"/>
</g>
<!-- mu -->
<g id="node2" class="node">
<title>mu</title>
<ellipse fill="none" stroke="black" cx="70" cy="-476.38" rx="54.39" ry="37.45"/>
<text text-anchor="middle" x="70" y="-487.68" font-family="Times,serif" font-size="14.00">mu</text>
<text text-anchor="middle" x="70" y="-472.68" font-family="Times,serif" font-size="14.00">~</text>
<text text-anchor="middle" x="70" y="-457.68" font-family="Times,serif" font-size="14.00">BART_mu</text>
</g>
<!-- p -->
<g id="node3" class="node">
<title>p</title>
<polygon fill="none" stroke="black" points="111.5,-402.91 20.5,-402.91 20.5,-349.91 111.5,-349.91 111.5,-402.91"/>
<text text-anchor="middle" x="66" y="-387.71" font-family="Times,serif" font-size="14.00">p</text>
<text text-anchor="middle" x="66" y="-372.71" font-family="Times,serif" font-size="14.00">~</text>
<text text-anchor="middle" x="66" y="-357.71" font-family="Times,serif" font-size="14.00">Deterministic</text>
</g>
<!-- mu&#45;&gt;p -->
<g id="edge4" class="edge">
<title>mu&#45;&gt;p</title>
<path fill="none" stroke="black" d="M68.5,-438.62C68.18,-430.83 67.85,-422.6 67.53,-414.79"/>
<polygon fill="black" stroke="black" points="71.03,-414.73 67.12,-404.88 64.03,-415.02 71.03,-414.73"/>
</g>
<!-- n_active_users_estimated -->
<g id="node6" class="node">
<title>n_active_users_estimated</title>
<ellipse fill="lightgrey" stroke="black" cx="160" cy="-276.43" rx="110.12" ry="37.45"/>
<text text-anchor="middle" x="160" y="-287.73" font-family="Times,serif" font-size="14.00">n_active_users_estimated</text>
<text text-anchor="middle" x="160" y="-272.73" font-family="Times,serif" font-size="14.00">~</text>
<text text-anchor="middle" x="160" y="-257.73" font-family="Times,serif" font-size="14.00">Binomial</text>
</g>
<!-- p&#45;&gt;n_active_users_estimated -->
<g id="edge12" class="edge">
<title>p&#45;&gt;n_active_users_estimated</title>
<path fill="none" stroke="black" d="M90.94,-349.41C99.44,-340.55 109.18,-330.39 118.62,-320.56"/>
<polygon fill="black" stroke="black" points="121,-323.14 125.39,-313.5 115.94,-318.29 121,-323.14"/>
</g>
<!-- p&#45;&gt;mean_revenue_per_active_user -->
<g id="edge18" class="edge">
<title>p&#45;&gt;mean_revenue_per_active_user</title>
<path fill="none" stroke="black" d="M50.27,-349.71C22.28,-300.31 -28.3,-191.42 27,-128 63.66,-85.95 214.78,-101.22 287.71,-91.81"/>
<polygon fill="black" stroke="black" points="287.88,-95.32 297.22,-90.31 286.79,-88.41 287.88,-95.32"/>
</g>
<!-- revenue -->
<g id="node4" class="node">
<title>revenue</title>
<path fill="lightgrey" stroke="black" d="M268,-92C268,-92 204,-92 204,-92 198,-92 192,-86 192,-80 192,-80 192,-51 192,-51 192,-45 198,-39 204,-39 204,-39 268,-39 268,-39 274,-39 280,-45 280,-51 280,-51 280,-80 280,-80 280,-86 274,-92 268,-92"/>
<text text-anchor="middle" x="236" y="-76.8" font-family="Times,serif" font-size="14.00">revenue</text>
<text text-anchor="middle" x="236" y="-61.8" font-family="Times,serif" font-size="14.00">~</text>
<text text-anchor="middle" x="236" y="-46.8" font-family="Times,serif" font-size="14.00">MutableData</text>
</g>
<!-- n_active_users -->
<g id="node5" class="node">
<title>n_active_users</title>
<path fill="lightgrey" stroke="black" d="M121.5,-191.98C121.5,-191.98 48.5,-191.98 48.5,-191.98 42.5,-191.98 36.5,-185.98 36.5,-179.98 36.5,-179.98 36.5,-150.98 36.5,-150.98 36.5,-144.98 42.5,-138.98 48.5,-138.98 48.5,-138.98 121.5,-138.98 121.5,-138.98 127.5,-138.98 133.5,-144.98 133.5,-150.98 133.5,-150.98 133.5,-179.98 133.5,-179.98 133.5,-185.98 127.5,-191.98 121.5,-191.98"/>
<text text-anchor="middle" x="85" y="-176.78" font-family="Times,serif" font-size="14.00">n_active_users</text>
<text text-anchor="middle" x="85" y="-161.78" font-family="Times,serif" font-size="14.00">~</text>
<text text-anchor="middle" x="85" y="-146.78" font-family="Times,serif" font-size="14.00">MutableData</text>
</g>
<!-- n_active_users_estimated&#45;&gt;n_active_users -->
<g id="edge1" class="edge">
<title>n_active_users_estimated&#45;&gt;n_active_users</title>
<path fill="none" stroke="black" d="M135.23,-239.45C126.88,-227.32 117.58,-213.81 109.27,-201.73"/>
<polygon fill="black" stroke="black" points="112.27,-199.91 103.71,-193.66 106.5,-203.88 112.27,-199.91"/>
</g>
<!-- revenue_estimated -->
<g id="node11" class="node">
<title>revenue_estimated</title>
<ellipse fill="lightgrey" stroke="black" cx="236" cy="-165.48" rx="84.29" ry="37.45"/>
<text text-anchor="middle" x="236" y="-176.78" font-family="Times,serif" font-size="14.00">revenue_estimated</text>
<text text-anchor="middle" x="236" y="-161.78" font-family="Times,serif" font-size="14.00">~</text>
<text text-anchor="middle" x="236" y="-146.78" font-family="Times,serif" font-size="14.00">Gamma</text>
</g>
<!-- n_active_users_estimated&#45;&gt;revenue_estimated -->
<g id="edge14" class="edge">
<title>n_active_users_estimated&#45;&gt;revenue_estimated</title>
<path fill="none" stroke="black" d="M184.89,-239.75C191.31,-230.54 198.31,-220.5 205.01,-210.9"/>
<polygon fill="black" stroke="black" points="207.86,-212.93 210.71,-202.73 202.12,-208.93 207.86,-212.93"/>
</g>
<!-- n_users -->
<g id="node7" class="node">
<title>n_users</title>
<path fill="lightgrey" stroke="black" d="M206,-402.91C206,-402.91 142,-402.91 142,-402.91 136,-402.91 130,-396.91 130,-390.91 130,-390.91 130,-361.91 130,-361.91 130,-355.91 136,-349.91 142,-349.91 142,-349.91 206,-349.91 206,-349.91 212,-349.91 218,-355.91 218,-361.91 218,-361.91 218,-390.91 218,-390.91 218,-396.91 212,-402.91 206,-402.91"/>
<text text-anchor="middle" x="174" y="-387.71" font-family="Times,serif" font-size="14.00">n_users</text>
<text text-anchor="middle" x="174" y="-372.71" font-family="Times,serif" font-size="14.00">~</text>
<text text-anchor="middle" x="174" y="-357.71" font-family="Times,serif" font-size="14.00">MutableData</text>
</g>
<!-- n_users&#45;&gt;n_active_users_estimated -->
<g id="edge13" class="edge">
<title>n_users&#45;&gt;n_active_users_estimated</title>
<path fill="none" stroke="black" d="M170.29,-349.41C169.23,-342 168.04,-333.69 166.86,-325.42"/>
<polygon fill="black" stroke="black" points="170.35,-325.15 165.47,-315.75 163.42,-326.14 170.35,-325.15"/>
</g>
<!-- lam_log -->
<g id="node8" class="node">
<title>lam_log</title>
<polygon fill="none" stroke="black" points="487.5,-402.91 396.5,-402.91 396.5,-349.91 487.5,-349.91 487.5,-402.91"/>
<text text-anchor="middle" x="442" y="-387.71" font-family="Times,serif" font-size="14.00">lam_log</text>
<text text-anchor="middle" x="442" y="-372.71" font-family="Times,serif" font-size="14.00">~</text>
<text text-anchor="middle" x="442" y="-357.71" font-family="Times,serif" font-size="14.00">Deterministic</text>
</g>
<!-- lam -->
<g id="node12" class="node">
<title>lam</title>
<polygon fill="none" stroke="black" points="458.5,-302.93 367.5,-302.93 367.5,-249.93 458.5,-249.93 458.5,-302.93"/>
<text text-anchor="middle" x="413" y="-287.73" font-family="Times,serif" font-size="14.00">lam</text>
<text text-anchor="middle" x="413" y="-272.73" font-family="Times,serif" font-size="14.00">~</text>
<text text-anchor="middle" x="413" y="-257.73" font-family="Times,serif" font-size="14.00">Deterministic</text>
</g>
<!-- lam_log&#45;&gt;lam -->
<g id="edge11" class="edge">
<title>lam_log&#45;&gt;lam</title>
<path fill="none" stroke="black" d="M434.3,-349.41C431.1,-338.58 427.32,-325.82 423.84,-314.07"/>
<polygon fill="black" stroke="black" points="427.25,-313.26 421.06,-304.66 420.54,-315.24 427.25,-313.26"/>
</g>
<!-- cohort_age_scaled -->
<g id="node9" class="node">
<title>cohort_age_scaled</title>
<path fill="lightgrey" stroke="black" d="M473.5,-502.88C473.5,-502.88 380.5,-502.88 380.5,-502.88 374.5,-502.88 368.5,-496.88 368.5,-490.88 368.5,-490.88 368.5,-461.88 368.5,-461.88 368.5,-455.88 374.5,-449.88 380.5,-449.88 380.5,-449.88 473.5,-449.88 473.5,-449.88 479.5,-449.88 485.5,-455.88 485.5,-461.88 485.5,-461.88 485.5,-490.88 485.5,-490.88 485.5,-496.88 479.5,-502.88 473.5,-502.88"/>
<text text-anchor="middle" x="427" y="-487.68" font-family="Times,serif" font-size="14.00">cohort_age_scaled</text>
<text text-anchor="middle" x="427" y="-472.68" font-family="Times,serif" font-size="14.00">~</text>
<text text-anchor="middle" x="427" y="-457.68" font-family="Times,serif" font-size="14.00">MutableData</text>
</g>
<!-- cohort_age_scaled&#45;&gt;lam_log -->
<g id="edge5" class="edge">
<title>cohort_age_scaled&#45;&gt;lam_log</title>
<path fill="none" stroke="black" d="M430.98,-449.38C432.62,-438.67 434.55,-426.06 436.34,-414.41"/>
<polygon fill="black" stroke="black" points="439.77,-415.1 437.82,-404.68 432.85,-414.04 439.77,-415.1"/>
</g>
<!-- age_scaled -->
<g id="node10" class="node">
<title>age_scaled</title>
<path fill="lightgrey" stroke="black" d="M338,-502.88C338,-502.88 274,-502.88 274,-502.88 268,-502.88 262,-496.88 262,-490.88 262,-490.88 262,-461.88 262,-461.88 262,-455.88 268,-449.88 274,-449.88 274,-449.88 338,-449.88 338,-449.88 344,-449.88 350,-455.88 350,-461.88 350,-461.88 350,-490.88 350,-490.88 350,-496.88 344,-502.88 338,-502.88"/>
<text text-anchor="middle" x="306" y="-487.68" font-family="Times,serif" font-size="14.00">age_scaled</text>
<text text-anchor="middle" x="306" y="-472.68" font-family="Times,serif" font-size="14.00">~</text>
<text text-anchor="middle" x="306" y="-457.68" font-family="Times,serif" font-size="14.00">MutableData</text>
</g>
<!-- age_scaled&#45;&gt;lam_log -->
<g id="edge9" class="edge">
<title>age_scaled&#45;&gt;lam_log</title>
<path fill="none" stroke="black" d="M342.09,-449.38C358.98,-437.22 379.26,-422.61 397.12,-409.74"/>
<polygon fill="black" stroke="black" points="398.92,-412.76 404.99,-404.07 394.83,-407.08 398.92,-412.76"/>
</g>
<!-- revenue_estimated&#45;&gt;revenue -->
<g id="edge2" class="edge">
<title>revenue_estimated&#45;&gt;revenue</title>
<path fill="none" stroke="black" d="M236,-127.72C236,-119.93 236,-111.7 236,-103.89"/>
<polygon fill="black" stroke="black" points="239.5,-103.98 236,-93.98 232.5,-103.98 239.5,-103.98"/>
</g>
<!-- lam&#45;&gt;mean_revenue_per_user -->
<g id="edge16" class="edge">
<title>lam&#45;&gt;mean_revenue_per_user</title>
<path fill="none" stroke="black" d="M413,-249.61C413,-235.77 413,-218.48 413,-203.26"/>
<polygon fill="black" stroke="black" points="416.5,-203.63 413,-193.63 409.5,-203.63 416.5,-203.63"/>
</g>
<!-- lam&#45;&gt;revenue_estimated -->
<g id="edge15" class="edge">
<title>lam&#45;&gt;revenue_estimated</title>
<path fill="none" stroke="black" d="M371.05,-249.61C348.13,-235.5 319.38,-217.8 294.31,-202.37"/>
<polygon fill="black" stroke="black" points="296.18,-199.41 285.83,-197.15 292.51,-205.37 296.18,-199.41"/>
</g>
<!-- x -->
<g id="node14" class="node">
<title>x</title>
<path fill="lightgrey" stroke="black" d="M102,-613.86C102,-613.86 38,-613.86 38,-613.86 32,-613.86 26,-607.86 26,-601.86 26,-601.86 26,-572.86 26,-572.86 26,-566.86 32,-560.86 38,-560.86 38,-560.86 102,-560.86 102,-560.86 108,-560.86 114,-566.86 114,-572.86 114,-572.86 114,-601.86 114,-601.86 114,-607.86 108,-613.86 102,-613.86"/>
<text text-anchor="middle" x="70" y="-598.66" font-family="Times,serif" font-size="14.00">x</text>
<text text-anchor="middle" x="70" y="-583.66" font-family="Times,serif" font-size="14.00">~</text>
<text text-anchor="middle" x="70" y="-568.66" font-family="Times,serif" font-size="14.00">MutableData</text>
</g>
<!-- x&#45;&gt;mu -->
<g id="edge3" class="edge">
<title>x&#45;&gt;mu</title>
<path fill="none" stroke="black" d="M70,-560.53C70,-550.04 70,-537.56 70,-525.51"/>
<polygon fill="black" stroke="black" points="73.5,-525.67 70,-515.67 66.5,-525.67 73.5,-525.67"/>
</g>
<!-- b_cohort_age_scaled -->
<g id="node15" class="node">
<title>b_cohort_age_scaled</title>
<ellipse fill="none" stroke="black" cx="978" cy="-476.38" rx="92.76" ry="37.45"/>
<text text-anchor="middle" x="978" y="-487.68" font-family="Times,serif" font-size="14.00">b_cohort_age_scaled</text>
<text text-anchor="middle" x="978" y="-472.68" font-family="Times,serif" font-size="14.00">~</text>
<text text-anchor="middle" x="978" y="-457.68" font-family="Times,serif" font-size="14.00">Normal</text>
</g>
<!-- b_cohort_age_scaled&#45;&gt;lam_log -->
<g id="edge7" class="edge">
<title>b_cohort_age_scaled&#45;&gt;lam_log</title>
<path fill="none" stroke="black" d="M912.21,-449.66C900.28,-445.63 887.87,-441.84 876,-438.91 743.17,-406.1 582.85,-389.04 499.17,-381.79"/>
<polygon fill="black" stroke="black" points="499.65,-378.32 489.39,-380.96 499.05,-385.29 499.65,-378.32"/>
</g>
<!-- b_age_scaled -->
<g id="node16" class="node">
<title>b_age_scaled</title>
<ellipse fill="none" stroke="black" cx="1152" cy="-476.38" rx="62.87" ry="37.45"/>
<text text-anchor="middle" x="1152" y="-487.68" font-family="Times,serif" font-size="14.00">b_age_scaled</text>
<text text-anchor="middle" x="1152" y="-472.68" font-family="Times,serif" font-size="14.00">~</text>
<text text-anchor="middle" x="1152" y="-457.68" font-family="Times,serif" font-size="14.00">Normal</text>
</g>
<!-- b_age_scaled&#45;&gt;lam_log -->
<g id="edge6" class="edge">
<title>b_age_scaled&#45;&gt;lam_log</title>
<path fill="none" stroke="black" d="M1107.35,-449.56C1098.52,-445.38 1089.15,-441.56 1080,-438.91 971.62,-407.45 634.45,-387.23 499.09,-380.19"/>
<polygon fill="black" stroke="black" points="499.46,-376.71 489.29,-379.69 499.1,-383.7 499.46,-376.71"/>
</g>
<!-- intercept -->
<g id="node17" class="node">
<title>intercept</title>
<ellipse fill="none" stroke="black" cx="549" cy="-476.38" rx="45.01" ry="37.45"/>
<text text-anchor="middle" x="549" y="-487.68" font-family="Times,serif" font-size="14.00">intercept</text>
<text text-anchor="middle" x="549" y="-472.68" font-family="Times,serif" font-size="14.00">~</text>
<text text-anchor="middle" x="549" y="-457.68" font-family="Times,serif" font-size="14.00">Normal</text>
</g>
<!-- intercept&#45;&gt;lam_log -->
<g id="edge8" class="edge">
<title>intercept&#45;&gt;lam_log</title>
<path fill="none" stroke="black" d="M519.19,-448.09C506.61,-436.57 491.84,-423.05 478.61,-410.93"/>
<polygon fill="black" stroke="black" points="481.03,-408.4 471.29,-404.23 476.3,-413.56 481.03,-408.4"/>
</g>
<!-- b_age_cohort_age_interaction -->
<g id="node18" class="node">
<title>b_age_cohort_age_interaction</title>
<ellipse fill="none" stroke="black" cx="740" cy="-476.38" rx="127.06" ry="37.45"/>
<text text-anchor="middle" x="740" y="-487.68" font-family="Times,serif" font-size="14.00">b_age_cohort_age_interaction</text>
<text text-anchor="middle" x="740" y="-472.68" font-family="Times,serif" font-size="14.00">~</text>
<text text-anchor="middle" x="740" y="-457.68" font-family="Times,serif" font-size="14.00">Normal</text>
</g>
<!-- b_age_cohort_age_interaction&#45;&gt;lam_log -->
<g id="edge10" class="edge">
<title>b_age_cohort_age_interaction&#45;&gt;lam_log</title>
<path fill="none" stroke="black" d="M656.2,-447.83C605.89,-431.29 543.23,-410.69 498.71,-396.05"/>
<polygon fill="black" stroke="black" points="499.83,-392.73 489.23,-392.94 497.64,-399.38 499.83,-392.73"/>
</g>
</g>
</svg>
