<?xml version="1.0" encoding="UTF-8" standalone="no"?>
<!DOCTYPE svg PUBLIC "-//W3C//DTD SVG 1.1//EN"
 "http://www.w3.org/Graphics/SVG/1.1/DTD/svg11.dtd">
<!-- Generated by graphviz version 2.50.0 (0)
 -->
<!-- Pages: 1 -->
<svg width="1206pt" height="638pt"
 viewBox="0.00 0.00 1206.21 637.86" xmlns="http://www.w3.org/2000/svg" xmlns:xlink="http://www.w3.org/1999/xlink">
<g id="graph0" class="graph" transform="scale(1 1) rotate(0) translate(4 633.86)">
<polygon fill="white" stroke="transparent" points="-4,4 -4,-633.86 1202.21,-633.86 1202.21,4 -4,4"/>
<g id="clust1" class="cluster">
<title>clusterobs (595)</title>
<path fill="none" stroke="black" d="M276.28,-8C276.28,-8 740.28,-8 740.28,-8 746.28,-8 752.28,-14 752.28,-20 752.28,-20 752.28,-509.86 752.28,-509.86 752.28,-515.86 746.28,-521.86 740.28,-521.86 740.28,-521.86 276.28,-521.86 276.28,-521.86 270.28,-521.86 264.28,-515.86 264.28,-509.86 264.28,-509.86 264.28,-20 264.28,-20 264.28,-14 270.28,-8 276.28,-8"/>
<text text-anchor="middle" x="718.28" y="-15.8" font-family="Times,serif" font-size="14.00">obs (595)</text>
</g>
<g id="clust2" class="cluster">
<title>clusterobs (595) x feature (3)</title>
<path fill="none" stroke="black" d="M282.28,-529.86C282.28,-529.86 398.28,-529.86 398.28,-529.86 404.28,-529.86 410.28,-535.86 410.28,-541.86 410.28,-541.86 410.28,-609.86 410.28,-609.86 410.28,-615.86 404.28,-621.86 398.28,-621.86 398.28,-621.86 282.28,-621.86 282.28,-621.86 276.28,-621.86 270.28,-615.86 270.28,-609.86 270.28,-609.86 270.28,-541.86 270.28,-541.86 270.28,-535.86 276.28,-529.86 282.28,-529.86"/>
<text text-anchor="middle" x="340.28" y="-537.66" font-family="Times,serif" font-size="14.00">obs (595) x feature (3)</text>
</g>
<!-- mu -->
<g id="node1" class="node">
<title>mu</title>
<ellipse fill="none" stroke="black" cx="327.28" cy="-476.38" rx="54.39" ry="37.45"/>
<text text-anchor="middle" x="327.28" y="-487.68" font-family="Times,serif" font-size="14.00">mu</text>
<text text-anchor="middle" x="327.28" y="-472.68" font-family="Times,serif" font-size="14.00">~</text>
<text text-anchor="middle" x="327.28" y="-457.68" font-family="Times,serif" font-size="14.00">BART_mu</text>
</g>
<!-- p -->
<g id="node3" class="node">
<title>p</title>
<polygon fill="none" stroke="black" points="368.78,-402.91 277.78,-402.91 277.78,-349.91 368.78,-349.91 368.78,-402.91"/>
<text text-anchor="middle" x="323.28" y="-387.71" font-family="Times,serif" font-size="14.00">p</text>
<text text-anchor="middle" x="323.28" y="-372.71" font-family="Times,serif" font-size="14.00">~</text>
<text text-anchor="middle" x="323.28" y="-357.71" font-family="Times,serif" font-size="14.00">Deterministic</text>
</g>
<!-- mu&#45;&gt;p -->
<g id="edge4" class="edge">
<title>mu&#45;&gt;p</title>
<path fill="none" stroke="black" d="M325.79,-438.9C325.45,-430.48 325.08,-421.54 324.74,-413.16"/>
<polygon fill="black" stroke="black" points="328.23,-412.77 324.32,-402.92 321.23,-413.05 328.23,-412.77"/>
</g>
<!-- lam_log -->
<g id="node2" class="node">
<title>lam_log</title>
<polygon fill="none" stroke="black" points="728.78,-402.91 637.78,-402.91 637.78,-349.91 728.78,-349.91 728.78,-402.91"/>
<text text-anchor="middle" x="683.28" y="-387.71" font-family="Times,serif" font-size="14.00">lam_log</text>
<text text-anchor="middle" x="683.28" y="-372.71" font-family="Times,serif" font-size="14.00">~</text>
<text text-anchor="middle" x="683.28" y="-357.71" font-family="Times,serif" font-size="14.00">Deterministic</text>
</g>
<!-- lam -->
<g id="node8" class="node">
<title>lam</title>
<polygon fill="none" stroke="black" points="714.78,-302.93 623.78,-302.93 623.78,-249.93 714.78,-249.93 714.78,-302.93"/>
<text text-anchor="middle" x="669.28" y="-287.73" font-family="Times,serif" font-size="14.00">lam</text>
<text text-anchor="middle" x="669.28" y="-272.73" font-family="Times,serif" font-size="14.00">~</text>
<text text-anchor="middle" x="669.28" y="-257.73" font-family="Times,serif" font-size="14.00">Deterministic</text>
</g>
<!-- lam_log&#45;&gt;lam -->
<g id="edge11" class="edge">
<title>lam_log&#45;&gt;lam</title>
<path fill="none" stroke="black" d="M679.6,-349.66C678.01,-338.53 676.12,-325.3 674.39,-313.23"/>
<polygon fill="black" stroke="black" points="677.81,-312.4 672.93,-303 670.88,-313.39 677.81,-312.4"/>
</g>
<!-- mean_revenue_per_active_user -->
<g id="node5" class="node">
<title>mean_revenue_per_active_user</title>
<polygon fill="none" stroke="black" points="743.28,-92 555.28,-92 555.28,-39 743.28,-39 743.28,-92"/>
<text text-anchor="middle" x="649.28" y="-76.8" font-family="Times,serif" font-size="14.00">mean_revenue_per_active_user</text>
<text text-anchor="middle" x="649.28" y="-61.8" font-family="Times,serif" font-size="14.00">~</text>
<text text-anchor="middle" x="649.28" y="-46.8" font-family="Times,serif" font-size="14.00">Deterministic</text>
</g>
<!-- p&#45;&gt;mean_revenue_per_active_user -->
<g id="edge18" class="edge">
<title>p&#45;&gt;mean_revenue_per_active_user</title>
<path fill="none" stroke="black" d="M307.56,-349.71C279.57,-300.32 229,-191.43 284.28,-128 322.75,-83.86 487.77,-102.99 545.28,-92 545.38,-91.98 545.48,-91.96 545.59,-91.94"/>
<polygon fill="black" stroke="black" points="546.15,-95.4 555.27,-90.01 544.78,-88.53 546.15,-95.4"/>
</g>
<!-- n_active_users_estimated -->
<g id="node6" class="node">
<title>n_active_users_estimated</title>
<ellipse fill="lightgrey" stroke="black" cx="417.28" cy="-276.43" rx="110.12" ry="37.45"/>
<text text-anchor="middle" x="417.28" y="-287.73" font-family="Times,serif" font-size="14.00">n_active_users_estimated</text>
<text text-anchor="middle" x="417.28" y="-272.73" font-family="Times,serif" font-size="14.00">~</text>
<text text-anchor="middle" x="417.28" y="-257.73" font-family="Times,serif" font-size="14.00">Binomial</text>
</g>
<!-- p&#45;&gt;n_active_users_estimated -->
<g id="edge13" class="edge">
<title>p&#45;&gt;n_active_users_estimated</title>
<path fill="none" stroke="black" d="M347.98,-349.66C356.82,-340.45 367.03,-329.8 376.85,-319.57"/>
<polygon fill="black" stroke="black" points="379.51,-321.85 383.91,-312.21 374.46,-317 379.51,-321.85"/>
</g>
<!-- cohort_age_scaled -->
<g id="node4" class="node">
<title>cohort_age_scaled</title>
<path fill="lightgrey" stroke="black" d="M729.78,-502.88C729.78,-502.88 636.78,-502.88 636.78,-502.88 630.78,-502.88 624.78,-496.88 624.78,-490.88 624.78,-490.88 624.78,-461.88 624.78,-461.88 624.78,-455.88 630.78,-449.88 636.78,-449.88 636.78,-449.88 729.78,-449.88 729.78,-449.88 735.78,-449.88 741.78,-455.88 741.78,-461.88 741.78,-461.88 741.78,-490.88 741.78,-490.88 741.78,-496.88 735.78,-502.88 729.78,-502.88"/>
<text text-anchor="middle" x="683.28" y="-487.68" font-family="Times,serif" font-size="14.00">cohort_age_scaled</text>
<text text-anchor="middle" x="683.28" y="-472.68" font-family="Times,serif" font-size="14.00">~</text>
<text text-anchor="middle" x="683.28" y="-457.68" font-family="Times,serif" font-size="14.00">MutableData</text>
</g>
<!-- cohort_age_scaled&#45;&gt;lam_log -->
<g id="edge5" class="edge">
<title>cohort_age_scaled&#45;&gt;lam_log</title>
<path fill="none" stroke="black" d="M683.28,-449.64C683.28,-438.5 683.28,-425.28 683.28,-413.21"/>
<polygon fill="black" stroke="black" points="686.78,-412.98 683.28,-402.98 679.78,-412.98 686.78,-412.98"/>
</g>
<!-- revenue_estimated -->
<g id="node7" class="node">
<title>revenue_estimated</title>
<ellipse fill="lightgrey" stroke="black" cx="492.28" cy="-165.48" rx="84.29" ry="37.45"/>
<text text-anchor="middle" x="492.28" y="-176.78" font-family="Times,serif" font-size="14.00">revenue_estimated</text>
<text text-anchor="middle" x="492.28" y="-161.78" font-family="Times,serif" font-size="14.00">~</text>
<text text-anchor="middle" x="492.28" y="-146.78" font-family="Times,serif" font-size="14.00">Gamma</text>
</g>
<!-- n_active_users_estimated&#45;&gt;revenue_estimated -->
<g id="edge15" class="edge">
<title>n_active_users_estimated&#45;&gt;revenue_estimated</title>
<path fill="none" stroke="black" d="M441.84,-239.75C448.38,-230.25 455.52,-219.88 462.32,-210"/>
<polygon fill="black" stroke="black" points="465.39,-211.71 468.18,-201.49 459.62,-207.74 465.39,-211.71"/>
</g>
<!-- n_active_users -->
<g id="node9" class="node">
<title>n_active_users</title>
<path fill="lightgrey" stroke="black" d="M377.78,-191.98C377.78,-191.98 304.78,-191.98 304.78,-191.98 298.78,-191.98 292.78,-185.98 292.78,-179.98 292.78,-179.98 292.78,-150.98 292.78,-150.98 292.78,-144.98 298.78,-138.98 304.78,-138.98 304.78,-138.98 377.78,-138.98 377.78,-138.98 383.78,-138.98 389.78,-144.98 389.78,-150.98 389.78,-150.98 389.78,-179.98 389.78,-179.98 389.78,-185.98 383.78,-191.98 377.78,-191.98"/>
<text text-anchor="middle" x="341.28" y="-176.78" font-family="Times,serif" font-size="14.00">n_active_users</text>
<text text-anchor="middle" x="341.28" y="-161.78" font-family="Times,serif" font-size="14.00">~</text>
<text text-anchor="middle" x="341.28" y="-146.78" font-family="Times,serif" font-size="14.00">MutableData</text>
</g>
<!-- n_active_users_estimated&#45;&gt;n_active_users -->
<g id="edge1" class="edge">
<title>n_active_users_estimated&#45;&gt;n_active_users</title>
<path fill="none" stroke="black" d="M392.39,-239.75C383.6,-227.15 373.74,-213.01 365.04,-200.54"/>
<polygon fill="black" stroke="black" points="367.82,-198.41 359.23,-192.22 362.08,-202.42 367.82,-198.41"/>
</g>
<!-- revenue -->
<g id="node11" class="node">
<title>revenue</title>
<path fill="lightgrey" stroke="black" d="M524.28,-92C524.28,-92 460.28,-92 460.28,-92 454.28,-92 448.28,-86 448.28,-80 448.28,-80 448.28,-51 448.28,-51 448.28,-45 454.28,-39 460.28,-39 460.28,-39 524.28,-39 524.28,-39 530.28,-39 536.28,-45 536.28,-51 536.28,-51 536.28,-80 536.28,-80 536.28,-86 530.28,-92 524.28,-92"/>
<text text-anchor="middle" x="492.28" y="-76.8" font-family="Times,serif" font-size="14.00">revenue</text>
<text text-anchor="middle" x="492.28" y="-61.8" font-family="Times,serif" font-size="14.00">~</text>
<text text-anchor="middle" x="492.28" y="-46.8" font-family="Times,serif" font-size="14.00">MutableData</text>
</g>
<!-- revenue_estimated&#45;&gt;revenue -->
<g id="edge2" class="edge">
<title>revenue_estimated&#45;&gt;revenue</title>
<path fill="none" stroke="black" d="M492.28,-127.99C492.28,-119.58 492.28,-110.63 492.28,-102.25"/>
<polygon fill="black" stroke="black" points="495.78,-102.01 492.28,-92.01 488.78,-102.01 495.78,-102.01"/>
</g>
<!-- lam&#45;&gt;revenue_estimated -->
<g id="edge14" class="edge">
<title>lam&#45;&gt;revenue_estimated</title>
<path fill="none" stroke="black" d="M627.78,-249.89C604.47,-235.54 575.04,-217.42 549.56,-201.74"/>
<polygon fill="black" stroke="black" points="551.08,-198.56 540.73,-196.3 547.41,-204.52 551.08,-198.56"/>
</g>
<!-- mean_revenue_per_user -->
<g id="node10" class="node">
<title>mean_revenue_per_user</title>
<polygon fill="none" stroke="black" points="743.78,-191.98 594.78,-191.98 594.78,-138.98 743.78,-138.98 743.78,-191.98"/>
<text text-anchor="middle" x="669.28" y="-176.78" font-family="Times,serif" font-size="14.00">mean_revenue_per_user</text>
<text text-anchor="middle" x="669.28" y="-161.78" font-family="Times,serif" font-size="14.00">~</text>
<text text-anchor="middle" x="669.28" y="-146.78" font-family="Times,serif" font-size="14.00">Deterministic</text>
</g>
<!-- lam&#45;&gt;mean_revenue_per_user -->
<g id="edge16" class="edge">
<title>lam&#45;&gt;mean_revenue_per_user</title>
<path fill="none" stroke="black" d="M669.28,-249.89C669.28,-235.78 669.28,-218.03 669.28,-202.53"/>
<polygon fill="black" stroke="black" points="672.78,-202.24 669.28,-192.24 665.78,-202.24 672.78,-202.24"/>
</g>
<!-- mean_revenue_per_user&#45;&gt;mean_revenue_per_active_user -->
<g id="edge17" class="edge">
<title>mean_revenue_per_user&#45;&gt;mean_revenue_per_active_user</title>
<path fill="none" stroke="black" d="M664.02,-138.73C661.73,-127.48 659,-114.1 656.51,-101.93"/>
<polygon fill="black" stroke="black" points="659.93,-101.17 654.5,-92.07 653.07,-102.57 659.93,-101.17"/>
</g>
<!-- n_users -->
<g id="node12" class="node">
<title>n_users</title>
<path fill="lightgrey" stroke="black" d="M463.28,-402.91C463.28,-402.91 399.28,-402.91 399.28,-402.91 393.28,-402.91 387.28,-396.91 387.28,-390.91 387.28,-390.91 387.28,-361.91 387.28,-361.91 387.28,-355.91 393.28,-349.91 399.28,-349.91 399.28,-349.91 463.28,-349.91 463.28,-349.91 469.28,-349.91 475.28,-355.91 475.28,-361.91 475.28,-361.91 475.28,-390.91 475.28,-390.91 475.28,-396.91 469.28,-402.91 463.28,-402.91"/>
<text text-anchor="middle" x="431.28" y="-387.71" font-family="Times,serif" font-size="14.00">n_users</text>
<text text-anchor="middle" x="431.28" y="-372.71" font-family="Times,serif" font-size="14.00">~</text>
<text text-anchor="middle" x="431.28" y="-357.71" font-family="Times,serif" font-size="14.00">MutableData</text>
</g>
<!-- n_users&#45;&gt;n_active_users_estimated -->
<g id="edge12" class="edge">
<title>n_users&#45;&gt;n_active_users_estimated</title>
<path fill="none" stroke="black" d="M427.6,-349.66C426.48,-341.84 425.22,-332.99 423.97,-324.23"/>
<polygon fill="black" stroke="black" points="427.39,-323.46 422.51,-314.05 420.46,-324.45 427.39,-323.46"/>
</g>
<!-- age_scaled -->
<g id="node13" class="node">
<title>age_scaled</title>
<path fill="lightgrey" stroke="black" d="M594.28,-502.88C594.28,-502.88 530.28,-502.88 530.28,-502.88 524.28,-502.88 518.28,-496.88 518.28,-490.88 518.28,-490.88 518.28,-461.88 518.28,-461.88 518.28,-455.88 524.28,-449.88 530.28,-449.88 530.28,-449.88 594.28,-449.88 594.28,-449.88 600.28,-449.88 606.28,-455.88 606.28,-461.88 606.28,-461.88 606.28,-490.88 606.28,-490.88 606.28,-496.88 600.28,-502.88 594.28,-502.88"/>
<text text-anchor="middle" x="562.28" y="-487.68" font-family="Times,serif" font-size="14.00">age_scaled</text>
<text text-anchor="middle" x="562.28" y="-472.68" font-family="Times,serif" font-size="14.00">~</text>
<text text-anchor="middle" x="562.28" y="-457.68" font-family="Times,serif" font-size="14.00">MutableData</text>
</g>
<!-- age_scaled&#45;&gt;lam_log -->
<g id="edge6" class="edge">
<title>age_scaled&#45;&gt;lam_log</title>
<path fill="none" stroke="black" d="M594.07,-449.64C609.22,-437.38 627.49,-422.58 643.54,-409.59"/>
<polygon fill="black" stroke="black" points="646.13,-411.99 651.7,-402.98 641.73,-406.55 646.13,-411.99"/>
</g>
<!-- x -->
<g id="node14" class="node">
<title>x</title>
<path fill="lightgrey" stroke="black" d="M359.28,-613.86C359.28,-613.86 295.28,-613.86 295.28,-613.86 289.28,-613.86 283.28,-607.86 283.28,-601.86 283.28,-601.86 283.28,-572.86 283.28,-572.86 283.28,-566.86 289.28,-560.86 295.28,-560.86 295.28,-560.86 359.28,-560.86 359.28,-560.86 365.28,-560.86 371.28,-566.86 371.28,-572.86 371.28,-572.86 371.28,-601.86 371.28,-601.86 371.28,-607.86 365.28,-613.86 359.28,-613.86"/>
<text text-anchor="middle" x="327.28" y="-598.66" font-family="Times,serif" font-size="14.00">x</text>
<text text-anchor="middle" x="327.28" y="-583.66" font-family="Times,serif" font-size="14.00">~</text>
<text text-anchor="middle" x="327.28" y="-568.66" font-family="Times,serif" font-size="14.00">MutableData</text>
</g>
<!-- x&#45;&gt;mu -->
<g id="edge3" class="edge">
<title>x&#45;&gt;mu</title>
<path fill="none" stroke="black" d="M327.28,-560.81C327.28,-549.9 327.28,-536.81 327.28,-524.26"/>
<polygon fill="black" stroke="black" points="330.78,-523.92 327.28,-513.92 323.78,-523.92 330.78,-523.92"/>
</g>
<!-- b_age_cohort_age_interaction -->
<g id="node15" class="node">
<title>b_age_cohort_age_interaction</title>
<ellipse fill="none" stroke="black" cx="127.28" cy="-476.38" rx="127.06" ry="37.45"/>
<text text-anchor="middle" x="127.28" y="-487.68" font-family="Times,serif" font-size="14.00">b_age_cohort_age_interaction</text>
<text text-anchor="middle" x="127.28" y="-472.68" font-family="Times,serif" font-size="14.00">~</text>
<text text-anchor="middle" x="127.28" y="-457.68" font-family="Times,serif" font-size="14.00">Normal</text>
</g>
<!-- b_age_cohort_age_interaction&#45;&gt;lam_log -->
<g id="edge7" class="edge">
<title>b_age_cohort_age_interaction&#45;&gt;lam_log</title>
<path fill="none" stroke="black" d="M215.98,-449.43C230.7,-445.59 245.87,-441.92 260.28,-438.91 329.38,-424.46 529.43,-397.52 627.6,-384.63"/>
<polygon fill="black" stroke="black" points="628.17,-388.09 637.63,-383.32 627.26,-381.15 628.17,-388.09"/>
</g>
<!-- b_cohort_age_scaled -->
<g id="node16" class="node">
<title>b_cohort_age_scaled</title>
<ellipse fill="none" stroke="black" cx="961.28" cy="-476.38" rx="92.76" ry="37.45"/>
<text text-anchor="middle" x="961.28" y="-487.68" font-family="Times,serif" font-size="14.00">b_cohort_age_scaled</text>
<text text-anchor="middle" x="961.28" y="-472.68" font-family="Times,serif" font-size="14.00">~</text>
<text text-anchor="middle" x="961.28" y="-457.68" font-family="Times,serif" font-size="14.00">Normal</text>
</g>
<!-- b_cohort_age_scaled&#45;&gt;lam_log -->
<g id="edge8" class="edge">
<title>b_cohort_age_scaled&#45;&gt;lam_log</title>
<path fill="none" stroke="black" d="M892.99,-450.89C881.74,-446.87 870.18,-442.76 859.28,-438.91 818.83,-424.61 773.09,-408.63 738.38,-396.54"/>
<polygon fill="black" stroke="black" points="739.49,-393.23 728.89,-393.24 737.19,-399.84 739.49,-393.23"/>
</g>
<!-- b_age_scaled -->
<g id="node17" class="node">
<title>b_age_scaled</title>
<ellipse fill="none" stroke="black" cx="1135.28" cy="-476.38" rx="62.87" ry="37.45"/>
<text text-anchor="middle" x="1135.28" y="-487.68" font-family="Times,serif" font-size="14.00">b_age_scaled</text>
<text text-anchor="middle" x="1135.28" y="-472.68" font-family="Times,serif" font-size="14.00">~</text>
<text text-anchor="middle" x="1135.28" y="-457.68" font-family="Times,serif" font-size="14.00">Normal</text>
</g>
<!-- b_age_scaled&#45;&gt;lam_log -->
<g id="edge9" class="edge">
<title>b_age_scaled&#45;&gt;lam_log</title>
<path fill="none" stroke="black" d="M1090.48,-450.03C1081.67,-445.81 1072.34,-441.86 1063.28,-438.91 951.6,-402.56 814.18,-387.13 738.99,-381.03"/>
<polygon fill="black" stroke="black" points="739.04,-377.53 728.8,-380.23 738.49,-384.5 739.04,-377.53"/>
</g>
<!-- intercept -->
<g id="node18" class="node">
<title>intercept</title>
<ellipse fill="none" stroke="black" cx="805.28" cy="-476.38" rx="45.01" ry="37.45"/>
<text text-anchor="middle" x="805.28" y="-487.68" font-family="Times,serif" font-size="14.00">intercept</text>
<text text-anchor="middle" x="805.28" y="-472.68" font-family="Times,serif" font-size="14.00">~</text>
<text text-anchor="middle" x="805.28" y="-457.68" font-family="Times,serif" font-size="14.00">Normal</text>
</g>
<!-- intercept&#45;&gt;lam_log -->
<g id="edge10" class="edge">
<title>intercept&#45;&gt;lam_log</title>
<path fill="none" stroke="black" d="M773.23,-449.64C757.95,-437.38 739.53,-422.58 723.35,-409.59"/>
<polygon fill="black" stroke="black" points="725.11,-406.51 715.12,-402.98 720.72,-411.97 725.11,-406.51"/>
</g>
</g>
</svg>
