<?xml version="1.0" encoding="UTF-8" standalone="no"?>
<!DOCTYPE svg PUBLIC "-//W3C//DTD SVG 1.1//EN"
 "http://www.w3.org/Graphics/SVG/1.1/DTD/svg11.dtd">
<!-- Generated by graphviz version 8.0.5 (20230430.1635)
 -->
<!-- Pages: 1 -->
<svg width="442pt" height="247pt"
 viewBox="0.00 0.00 441.59 247.13" xmlns="http://www.w3.org/2000/svg" xmlns:xlink="http://www.w3.org/1999/xlink">
<g id="graph0" class="graph" transform="scale(1 1) rotate(0) translate(4 243.13)">
<polygon fill="white" stroke="none" points="-4,4 -4,-243.13 437.59,-243.13 437.59,4 -4,4"/>
<g id="clust1" class="cluster">
<title>clustersales_obs (700)</title>
<path fill="none" stroke="black" d="M192.98,-8C192.98,-8 268.98,-8 268.98,-8 274.98,-8 280.98,-14 280.98,-20 280.98,-20 280.98,-117.82 280.98,-117.82 280.98,-123.82 274.98,-129.82 268.98,-129.82 268.98,-129.82 192.98,-129.82 192.98,-129.82 186.98,-129.82 180.98,-123.82 180.98,-117.82 180.98,-117.82 180.98,-20 180.98,-20 180.98,-14 186.98,-8 192.98,-8"/>
<text text-anchor="middle" x="230.61" y="-15.2" font-family="Times,serif" font-size="14.00">sales_obs (700)</text>
</g>
<!-- sales_sigma -->
<g id="node1" class="node">
<title>sales_sigma</title>
<ellipse fill="none" stroke="black" cx="57.98" cy="-198.48" rx="57.98" ry="40.66"/>
<text text-anchor="middle" x="57.98" y="-209.93" font-family="Times,serif" font-size="14.00">sales_sigma</text>
<text text-anchor="middle" x="57.98" y="-193.43" font-family="Times,serif" font-size="14.00">~</text>
<text text-anchor="middle" x="57.98" y="-176.93" font-family="Times,serif" font-size="14.00">Exponential</text>
</g>
<!-- sales -->
<g id="node5" class="node">
<title>sales</title>
<ellipse fill="lightgrey" stroke="black" cx="230.98" cy="-81.16" rx="41.01" ry="40.66"/>
<text text-anchor="middle" x="230.98" y="-92.61" font-family="Times,serif" font-size="14.00">sales</text>
<text text-anchor="middle" x="230.98" y="-76.11" font-family="Times,serif" font-size="14.00">~</text>
<text text-anchor="middle" x="230.98" y="-59.61" font-family="Times,serif" font-size="14.00">Normal</text>
</g>
<!-- sales_sigma&#45;&gt;sales -->
<g id="edge1" class="edge">
<title>sales_sigma&#45;&gt;sales</title>
<path fill="none" stroke="black" d="M99.42,-169.85C126.27,-151.96 161.17,-128.7 188.27,-110.63"/>
<polygon fill="black" stroke="black" points="189.76,-113.18 196.14,-104.72 185.88,-107.35 189.76,-113.18"/>
</g>
<!-- discount -->
<g id="node2" class="node">
<title>discount</title>
<ellipse fill="none" stroke="black" cx="177.98" cy="-198.48" rx="43.66" ry="40.66"/>
<text text-anchor="middle" x="177.98" y="-209.93" font-family="Times,serif" font-size="14.00">discount</text>
<text text-anchor="middle" x="177.98" y="-193.43" font-family="Times,serif" font-size="14.00">~</text>
<text text-anchor="middle" x="177.98" y="-176.93" font-family="Times,serif" font-size="14.00">Normal</text>
</g>
<!-- discount&#45;&gt;sales -->
<g id="edge4" class="edge">
<title>discount&#45;&gt;sales</title>
<path fill="none" stroke="black" d="M194.9,-160.67C199.63,-150.38 204.83,-139.06 209.78,-128.29"/>
<polygon fill="black" stroke="black" points="213.23,-130.16 214.23,-119.61 206.87,-127.24 213.23,-130.16"/>
</g>
<!-- Intercept -->
<g id="node3" class="node">
<title>Intercept</title>
<ellipse fill="none" stroke="black" cx="284.98" cy="-198.48" rx="45.25" ry="40.66"/>
<text text-anchor="middle" x="284.98" y="-209.93" font-family="Times,serif" font-size="14.00">Intercept</text>
<text text-anchor="middle" x="284.98" y="-193.43" font-family="Times,serif" font-size="14.00">~</text>
<text text-anchor="middle" x="284.98" y="-176.93" font-family="Times,serif" font-size="14.00">Normal</text>
</g>
<!-- Intercept&#45;&gt;sales -->
<g id="edge3" class="edge">
<title>Intercept&#45;&gt;sales</title>
<path fill="none" stroke="black" d="M267.75,-160.67C262.93,-150.38 257.63,-139.06 252.59,-128.29"/>
<polygon fill="black" stroke="black" points="255.46,-127.19 248.05,-119.61 249.12,-130.15 255.46,-127.19"/>
</g>
<!-- visits -->
<g id="node4" class="node">
<title>visits</title>
<ellipse fill="none" stroke="black" cx="390.98" cy="-198.48" rx="42.6" ry="40.66"/>
<text text-anchor="middle" x="390.98" y="-209.93" font-family="Times,serif" font-size="14.00">visits</text>
<text text-anchor="middle" x="390.98" y="-193.43" font-family="Times,serif" font-size="14.00">~</text>
<text text-anchor="middle" x="390.98" y="-176.93" font-family="Times,serif" font-size="14.00">Gamma</text>
</g>
<!-- visits&#45;&gt;sales -->
<g id="edge2" class="edge">
<title>visits&#45;&gt;sales</title>
<path fill="none" stroke="black" d="M358.12,-172.1C351.81,-167.31 345.22,-162.37 338.98,-157.82 317.51,-142.12 293.28,-125.08 273.22,-111.16"/>
<polygon fill="black" stroke="black" points="275.53,-107.81 265.32,-104.99 271.54,-113.56 275.53,-107.81"/>
</g>
</g>
</svg>
