<?xml version="1.0" encoding="UTF-8" standalone="no"?>
<!DOCTYPE svg PUBLIC "-//W3C//DTD SVG 1.1//EN"
 "http://www.w3.org/Graphics/SVG/1.1/DTD/svg11.dtd">
<!-- Generated by graphviz version 8.0.1 (20230327.1645)
 -->
<!-- Pages: 1 -->
<svg width="1312pt" height="766pt"
 viewBox="0.00 0.00 1312.25 765.77" xmlns="http://www.w3.org/2000/svg" xmlns:xlink="http://www.w3.org/1999/xlink">
<g id="graph0" class="graph" transform="scale(1 1) rotate(0) translate(4 761.77)">
<polygon fill="white" stroke="none" points="-4,4 -4,-761.77 1308.25,-761.77 1308.25,4 -4,4"/>
<g id="clust1" class="cluster">
<title>clusterdate (179) x channel (2)</title>
<path fill="none" stroke="black" d="M794.25,-329.88C794.25,-329.88 948.25,-329.88 948.25,-329.88 954.25,-329.88 960.25,-335.88 960.25,-341.88 960.25,-341.88 960.25,-726.79 960.25,-726.79 960.25,-732.79 954.25,-738.79 948.25,-738.79 948.25,-738.79 794.25,-738.79 794.25,-738.79 788.25,-738.79 782.25,-732.79 782.25,-726.79 782.25,-726.79 782.25,-341.88 782.25,-341.88 782.25,-335.88 788.25,-329.88 794.25,-329.88"/>
<text text-anchor="middle" x="886.25" y="-337.68" font-family="Times,serif" font-size="14.00">date (179) x channel (2)</text>
</g>
<g id="clust2" class="cluster">
<title>clusterdate (179)</title>
<path fill="none" stroke="black" d="M300.25,-8C300.25,-8 392.25,-8 392.25,-8 398.25,-8 404.25,-14 404.25,-20 404.25,-20 404.25,-298.93 404.25,-298.93 404.25,-304.93 398.25,-310.93 392.25,-310.93 392.25,-310.93 300.25,-310.93 300.25,-310.93 294.25,-310.93 288.25,-304.93 288.25,-298.93 288.25,-298.93 288.25,-20 288.25,-20 288.25,-14 294.25,-8 300.25,-8"/>
<text text-anchor="middle" x="368.25" y="-15.8" font-family="Times,serif" font-size="14.00">date (179)</text>
</g>
<g id="clust3" class="cluster">
<title>clusterchannel (2)</title>
<path fill="none" stroke="black" d="M980.25,-635.81C980.25,-635.81 1284.25,-635.81 1284.25,-635.81 1290.25,-635.81 1296.25,-641.81 1296.25,-647.81 1296.25,-647.81 1296.25,-737.77 1296.25,-737.77 1296.25,-743.77 1290.25,-749.77 1284.25,-749.77 1284.25,-749.77 980.25,-749.77 980.25,-749.77 974.25,-749.77 968.25,-743.77 968.25,-737.77 968.25,-737.77 968.25,-647.81 968.25,-647.81 968.25,-641.81 974.25,-635.81 980.25,-635.81"/>
<text text-anchor="middle" x="1257.25" y="-643.61" font-family="Times,serif" font-size="14.00">channel (2)</text>
</g>
<g id="clust4" class="cluster">
<title>clusterdate (179) x control (3)</title>
<path fill="none" stroke="black" d="M112.25,-329.88C112.25,-329.88 238.25,-329.88 238.25,-329.88 244.25,-329.88 250.25,-335.88 250.25,-341.88 250.25,-341.88 250.25,-523.84 250.25,-523.84 250.25,-529.84 244.25,-535.84 238.25,-535.84 238.25,-535.84 112.25,-535.84 112.25,-535.84 106.25,-535.84 100.25,-529.84 100.25,-523.84 100.25,-523.84 100.25,-341.88 100.25,-341.88 100.25,-335.88 106.25,-329.88 112.25,-329.88"/>
<text text-anchor="middle" x="178.25" y="-337.68" font-family="Times,serif" font-size="14.00">date (179) x control (3)</text>
</g>
<g id="clust5" class="cluster">
<title>clustercontrol (3)</title>
<path fill="none" stroke="black" d="M270.25,-432.86C270.25,-432.86 408.25,-432.86 408.25,-432.86 414.25,-432.86 420.25,-438.86 420.25,-444.86 420.25,-444.86 420.25,-534.81 420.25,-534.81 420.25,-540.81 414.25,-546.81 408.25,-546.81 408.25,-546.81 270.25,-546.81 270.25,-546.81 264.25,-546.81 258.25,-540.81 258.25,-534.81 258.25,-534.81 258.25,-444.86 258.25,-444.86 258.25,-438.86 264.25,-432.86 270.25,-432.86"/>
<text text-anchor="middle" x="383.25" y="-440.66" font-family="Times,serif" font-size="14.00">control (3)</text>
</g>
<g id="clust7" class="cluster">
<title>clusterfourier_mode (4)</title>
<path fill="none" stroke="black" d="M628.25,-432.86C628.25,-432.86 762.25,-432.86 762.25,-432.86 768.25,-432.86 774.25,-438.86 774.25,-444.86 774.25,-444.86 774.25,-534.81 774.25,-534.81 774.25,-540.81 768.25,-546.81 762.25,-546.81 762.25,-546.81 628.25,-546.81 628.25,-546.81 622.25,-546.81 616.25,-540.81 616.25,-534.81 616.25,-534.81 616.25,-444.86 616.25,-444.86 616.25,-438.86 622.25,-432.86 628.25,-432.86"/>
<text text-anchor="middle" x="719.25" y="-440.66" font-family="Times,serif" font-size="14.00">fourier_mode (4)</text>
</g>
<g id="clust6" class="cluster">
<title>clusterdate (179) x fourier_mode (4)</title>
<path fill="none" stroke="black" d="M440.25,-329.88C440.25,-329.88 596.25,-329.88 596.25,-329.88 602.25,-329.88 608.25,-335.88 608.25,-341.88 608.25,-341.88 608.25,-523.84 608.25,-523.84 608.25,-529.84 602.25,-535.84 596.25,-535.84 596.25,-535.84 440.25,-535.84 440.25,-535.84 434.25,-535.84 428.25,-529.84 428.25,-523.84 428.25,-523.84 428.25,-341.88 428.25,-341.88 428.25,-335.88 434.25,-329.88 440.25,-329.88"/>
<text text-anchor="middle" x="518.25" y="-337.68" font-family="Times,serif" font-size="14.00">date (179) x fourier_mode (4)</text>
</g>
<!-- channel_contributions -->
<g id="node1" class="node">
<title>channel_contributions</title>
<polygon fill="none" stroke="black" points="939.75,-413.88 802.75,-413.88 802.75,-360.88 939.75,-360.88 939.75,-413.88"/>
<text text-anchor="middle" x="871.25" y="-398.68" font-family="Times,serif" font-size="14.00">channel_contributions</text>
<text text-anchor="middle" x="871.25" y="-383.68" font-family="Times,serif" font-size="14.00">~</text>
<text text-anchor="middle" x="871.25" y="-368.68" font-family="Times,serif" font-size="14.00">Deterministic</text>
</g>
<!-- mu -->
<g id="node6" class="node">
<title>mu</title>
<polygon fill="none" stroke="black" points="391.75,-302.93 300.75,-302.93 300.75,-249.93 391.75,-249.93 391.75,-302.93"/>
<text text-anchor="middle" x="346.25" y="-287.73" font-family="Times,serif" font-size="14.00">mu</text>
<text text-anchor="middle" x="346.25" y="-272.73" font-family="Times,serif" font-size="14.00">~</text>
<text text-anchor="middle" x="346.25" y="-257.73" font-family="Times,serif" font-size="14.00">Deterministic</text>
</g>
<!-- channel_contributions&#45;&gt;mu -->
<g id="edge12" class="edge">
<title>channel_contributions&#45;&gt;mu</title>
<path fill="none" stroke="black" d="M802.35,-370.96C750.21,-359.38 676.81,-343.29 612.25,-329.88 540.03,-314.89 456.56,-298.6 402.67,-288.21"/>
<polygon fill="black" stroke="black" points="403.45,-284.61 392.97,-286.15 402.13,-291.48 403.45,-284.61"/>
</g>
<!-- channel_adstock -->
<g id="node2" class="node">
<title>channel_adstock</title>
<polygon fill="none" stroke="black" points="937.75,-627.81 830.75,-627.81 830.75,-574.81 937.75,-574.81 937.75,-627.81"/>
<text text-anchor="middle" x="884.25" y="-612.61" font-family="Times,serif" font-size="14.00">channel_adstock</text>
<text text-anchor="middle" x="884.25" y="-597.61" font-family="Times,serif" font-size="14.00">~</text>
<text text-anchor="middle" x="884.25" y="-582.61" font-family="Times,serif" font-size="14.00">Deterministic</text>
</g>
<!-- channel_adstock_saturated -->
<g id="node3" class="node">
<title>channel_adstock_saturated</title>
<polygon fill="none" stroke="black" points="952.25,-527.84 790.25,-527.84 790.25,-474.84 952.25,-474.84 952.25,-527.84"/>
<text text-anchor="middle" x="871.25" y="-512.64" font-family="Times,serif" font-size="14.00">channel_adstock_saturated</text>
<text text-anchor="middle" x="871.25" y="-497.64" font-family="Times,serif" font-size="14.00">~</text>
<text text-anchor="middle" x="871.25" y="-482.64" font-family="Times,serif" font-size="14.00">Deterministic</text>
</g>
<!-- channel_adstock&#45;&gt;channel_adstock_saturated -->
<g id="edge4" class="edge">
<title>channel_adstock&#45;&gt;channel_adstock_saturated</title>
<path fill="none" stroke="black" d="M880.81,-574.31C879.37,-563.49 877.68,-550.72 876.12,-538.97"/>
<polygon fill="black" stroke="black" points="879.46,-538.57 874.68,-529.12 872.52,-539.49 879.46,-538.57"/>
</g>
<!-- channel_adstock_saturated&#45;&gt;channel_contributions -->
<g id="edge6" class="edge">
<title>channel_adstock_saturated&#45;&gt;channel_contributions</title>
<path fill="none" stroke="black" d="M871.25,-474.37C871.25,-459.68 871.25,-441.06 871.25,-424.92"/>
<polygon fill="black" stroke="black" points="874.75,-425.21 871.25,-415.21 867.75,-425.21 874.75,-425.21"/>
</g>
<!-- channel_data -->
<g id="node4" class="node">
<title>channel_data</title>
<path fill="lightgrey" stroke="black" d="M916.25,-730.79C916.25,-730.79 852.25,-730.79 852.25,-730.79 846.25,-730.79 840.25,-724.79 840.25,-718.79 840.25,-718.79 840.25,-689.79 840.25,-689.79 840.25,-683.79 846.25,-677.79 852.25,-677.79 852.25,-677.79 916.25,-677.79 916.25,-677.79 922.25,-677.79 928.25,-683.79 928.25,-689.79 928.25,-689.79 928.25,-718.79 928.25,-718.79 928.25,-724.79 922.25,-730.79 916.25,-730.79"/>
<text text-anchor="middle" x="884.25" y="-715.59" font-family="Times,serif" font-size="14.00">channel_data</text>
<text text-anchor="middle" x="884.25" y="-700.59" font-family="Times,serif" font-size="14.00">~</text>
<text text-anchor="middle" x="884.25" y="-685.59" font-family="Times,serif" font-size="14.00">MutableData</text>
</g>
<!-- channel_data&#45;&gt;channel_adstock -->
<g id="edge3" class="edge">
<title>channel_data&#45;&gt;channel_adstock</title>
<path fill="none" stroke="black" d="M884.25,-677.55C884.25,-665.8 884.25,-651.67 884.25,-638.85"/>
<polygon fill="black" stroke="black" points="887.75,-639.01 884.25,-629.01 880.75,-639.01 887.75,-639.01"/>
</g>
<!-- likelihood -->
<g id="node5" class="node">
<title>likelihood</title>
<ellipse fill="lightgrey" stroke="black" cx="346.25" cy="-165.48" rx="50.41" ry="37.45"/>
<text text-anchor="middle" x="346.25" y="-176.78" font-family="Times,serif" font-size="14.00">likelihood</text>
<text text-anchor="middle" x="346.25" y="-161.78" font-family="Times,serif" font-size="14.00">~</text>
<text text-anchor="middle" x="346.25" y="-146.78" font-family="Times,serif" font-size="14.00">Normal</text>
</g>
<!-- target -->
<g id="node7" class="node">
<title>target</title>
<path fill="lightgrey" stroke="black" d="M378.25,-92C378.25,-92 314.25,-92 314.25,-92 308.25,-92 302.25,-86 302.25,-80 302.25,-80 302.25,-51 302.25,-51 302.25,-45 308.25,-39 314.25,-39 314.25,-39 378.25,-39 378.25,-39 384.25,-39 390.25,-45 390.25,-51 390.25,-51 390.25,-80 390.25,-80 390.25,-86 384.25,-92 378.25,-92"/>
<text text-anchor="middle" x="346.25" y="-76.8" font-family="Times,serif" font-size="14.00">target</text>
<text text-anchor="middle" x="346.25" y="-61.8" font-family="Times,serif" font-size="14.00">~</text>
<text text-anchor="middle" x="346.25" y="-46.8" font-family="Times,serif" font-size="14.00">MutableData</text>
</g>
<!-- likelihood&#45;&gt;target -->
<g id="edge1" class="edge">
<title>likelihood&#45;&gt;target</title>
<path fill="none" stroke="black" d="M346.25,-127.72C346.25,-119.74 346.25,-111.31 346.25,-103.34"/>
<polygon fill="black" stroke="black" points="349.75,-103.46 346.25,-93.46 342.75,-103.46 349.75,-103.46"/>
</g>
<!-- mu&#45;&gt;likelihood -->
<g id="edge17" class="edge">
<title>mu&#45;&gt;likelihood</title>
<path fill="none" stroke="black" d="M346.25,-249.61C346.25,-239.01 346.25,-226.39 346.25,-214.22"/>
<polygon fill="black" stroke="black" points="349.75,-214.24 346.25,-204.24 342.75,-214.24 349.75,-214.24"/>
</g>
<!-- intercept -->
<g id="node8" class="node">
<title>intercept</title>
<ellipse fill="none" stroke="black" cx="45.25" cy="-387.38" rx="45.01" ry="37.45"/>
<text text-anchor="middle" x="45.25" y="-398.68" font-family="Times,serif" font-size="14.00">intercept</text>
<text text-anchor="middle" x="45.25" y="-383.68" font-family="Times,serif" font-size="14.00">~</text>
<text text-anchor="middle" x="45.25" y="-368.68" font-family="Times,serif" font-size="14.00">Normal</text>
</g>
<!-- intercept&#45;&gt;mu -->
<g id="edge15" class="edge">
<title>intercept&#45;&gt;mu</title>
<path fill="none" stroke="black" d="M66.79,-354.35C74.87,-344.86 84.89,-335.51 96.25,-329.88 173.4,-291.71 207.72,-341.47 289.25,-313.91 293.51,-312.47 297.77,-310.64 301.93,-308.58"/>
<polygon fill="black" stroke="black" points="303.32,-311.27 310.43,-303.41 299.97,-305.12 303.32,-311.27"/>
</g>
<!-- sigma -->
<g id="node9" class="node">
<title>sigma</title>
<ellipse fill="none" stroke="black" cx="221.25" cy="-276.43" rx="58.88" ry="37.45"/>
<text text-anchor="middle" x="221.25" y="-287.73" font-family="Times,serif" font-size="14.00">sigma</text>
<text text-anchor="middle" x="221.25" y="-272.73" font-family="Times,serif" font-size="14.00">~</text>
<text text-anchor="middle" x="221.25" y="-257.73" font-family="Times,serif" font-size="14.00">HalfNormal</text>
</g>
<!-- sigma&#45;&gt;likelihood -->
<g id="edge16" class="edge">
<title>sigma&#45;&gt;likelihood</title>
<path fill="none" stroke="black" d="M255.41,-245.66C270.92,-232.14 289.39,-216.04 305.61,-201.9"/>
<polygon fill="black" stroke="black" points="307.62,-203.92 312.86,-194.71 303.02,-198.64 307.62,-203.92"/>
</g>
<!-- lam -->
<g id="node10" class="node">
<title>lam</title>
<ellipse fill="none" stroke="black" cx="1103.25" cy="-704.29" rx="43.27" ry="37.45"/>
<text text-anchor="middle" x="1103.25" y="-715.59" font-family="Times,serif" font-size="14.00">lam</text>
<text text-anchor="middle" x="1103.25" y="-700.59" font-family="Times,serif" font-size="14.00">~</text>
<text text-anchor="middle" x="1103.25" y="-685.59" font-family="Times,serif" font-size="14.00">Gamma</text>
</g>
<!-- lam&#45;&gt;channel_adstock_saturated -->
<g id="edge5" class="edge">
<title>lam&#45;&gt;channel_adstock_saturated</title>
<path fill="none" stroke="black" d="M1081.64,-671.57C1072.87,-659.74 1062.23,-646.59 1051.25,-635.81 1011.29,-596.58 959.35,-559.26 921.54,-534.11"/>
<polygon fill="black" stroke="black" points="924.01,-530.89 913.74,-528.3 920.16,-536.73 924.01,-530.89"/>
</g>
<!-- alpha -->
<g id="node11" class="node">
<title>alpha</title>
<ellipse fill="none" stroke="black" cx="1009.25" cy="-704.29" rx="32.55" ry="37.45"/>
<text text-anchor="middle" x="1009.25" y="-715.59" font-family="Times,serif" font-size="14.00">alpha</text>
<text text-anchor="middle" x="1009.25" y="-700.59" font-family="Times,serif" font-size="14.00">~</text>
<text text-anchor="middle" x="1009.25" y="-685.59" font-family="Times,serif" font-size="14.00">Beta</text>
</g>
<!-- alpha&#45;&gt;channel_adstock -->
<g id="edge2" class="edge">
<title>alpha&#45;&gt;channel_adstock</title>
<path fill="none" stroke="black" d="M993.29,-671.41C985.83,-659.01 975.99,-645.49 964.25,-635.81 959.15,-631.6 953.43,-627.85 947.47,-624.52"/>
<polygon fill="black" stroke="black" points="949.45,-621.09 938.96,-619.63 946.26,-627.31 949.45,-621.09"/>
</g>
<!-- beta_channel -->
<g id="node12" class="node">
<title>beta_channel</title>
<ellipse fill="none" stroke="black" cx="1226.25" cy="-704.29" rx="62.45" ry="37.45"/>
<text text-anchor="middle" x="1226.25" y="-715.59" font-family="Times,serif" font-size="14.00">beta_channel</text>
<text text-anchor="middle" x="1226.25" y="-700.59" font-family="Times,serif" font-size="14.00">~</text>
<text text-anchor="middle" x="1226.25" y="-685.59" font-family="Times,serif" font-size="14.00">HalfNormal</text>
</g>
<!-- beta_channel&#45;&gt;channel_contributions -->
<g id="edge7" class="edge">
<title>beta_channel&#45;&gt;channel_contributions</title>
<path fill="none" stroke="black" d="M1200.21,-670.23C1155.79,-615.46 1060.51,-504.81 961.25,-432.86 954.71,-428.11 947.57,-423.63 940.29,-419.46"/>
<polygon fill="black" stroke="black" points="942.45,-416.11 932,-414.36 939.08,-422.24 942.45,-416.11"/>
</g>
<!-- control_data -->
<g id="node13" class="node">
<title>control_data</title>
<path fill="lightgrey" stroke="black" d="M207.25,-527.84C207.25,-527.84 143.25,-527.84 143.25,-527.84 137.25,-527.84 131.25,-521.84 131.25,-515.84 131.25,-515.84 131.25,-486.84 131.25,-486.84 131.25,-480.84 137.25,-474.84 143.25,-474.84 143.25,-474.84 207.25,-474.84 207.25,-474.84 213.25,-474.84 219.25,-480.84 219.25,-486.84 219.25,-486.84 219.25,-515.84 219.25,-515.84 219.25,-521.84 213.25,-527.84 207.25,-527.84"/>
<text text-anchor="middle" x="175.25" y="-512.64" font-family="Times,serif" font-size="14.00">control_data</text>
<text text-anchor="middle" x="175.25" y="-497.64" font-family="Times,serif" font-size="14.00">~</text>
<text text-anchor="middle" x="175.25" y="-482.64" font-family="Times,serif" font-size="14.00">MutableData</text>
</g>
<!-- control_contributions -->
<g id="node14" class="node">
<title>control_contributions</title>
<polygon fill="none" stroke="black" points="241.75,-413.88 108.75,-413.88 108.75,-360.88 241.75,-360.88 241.75,-413.88"/>
<text text-anchor="middle" x="175.25" y="-398.68" font-family="Times,serif" font-size="14.00">control_contributions</text>
<text text-anchor="middle" x="175.25" y="-383.68" font-family="Times,serif" font-size="14.00">~</text>
<text text-anchor="middle" x="175.25" y="-368.68" font-family="Times,serif" font-size="14.00">Deterministic</text>
</g>
<!-- control_data&#45;&gt;control_contributions -->
<g id="edge8" class="edge">
<title>control_data&#45;&gt;control_contributions</title>
<path fill="none" stroke="black" d="M175.25,-474.37C175.25,-459.68 175.25,-441.06 175.25,-424.92"/>
<polygon fill="black" stroke="black" points="178.75,-425.21 175.25,-415.21 171.75,-425.21 178.75,-425.21"/>
</g>
<!-- control_contributions&#45;&gt;mu -->
<g id="edge13" class="edge">
<title>control_contributions&#45;&gt;mu</title>
<path fill="none" stroke="black" d="M216.17,-360.42C237.89,-346.62 265.03,-329.36 289.25,-313.91 291.68,-312.36 294.16,-310.78 296.67,-309.18"/>
<polygon fill="black" stroke="black" points="298.24,-311.68 304.78,-303.35 294.47,-305.79 298.24,-311.68"/>
</g>
<!-- gamma_control -->
<g id="node15" class="node">
<title>gamma_control</title>
<ellipse fill="none" stroke="black" cx="339.25" cy="-501.34" rx="72.66" ry="37.45"/>
<text text-anchor="middle" x="339.25" y="-512.64" font-family="Times,serif" font-size="14.00">gamma_control</text>
<text text-anchor="middle" x="339.25" y="-497.64" font-family="Times,serif" font-size="14.00">~</text>
<text text-anchor="middle" x="339.25" y="-482.64" font-family="Times,serif" font-size="14.00">Normal</text>
</g>
<!-- gamma_control&#45;&gt;control_contributions -->
<g id="edge9" class="edge">
<title>gamma_control&#45;&gt;control_contributions</title>
<path fill="none" stroke="black" d="M302.14,-468.78C287.59,-456.98 270.52,-443.79 254.25,-432.86 247.55,-428.35 240.36,-423.86 233.14,-419.57"/>
<polygon fill="black" stroke="black" points="235.43,-416.27 225.03,-414.25 231.9,-422.31 235.43,-416.27"/>
</g>
<!-- fourier_data -->
<g id="node16" class="node">
<title>fourier_data</title>
<path fill="lightgrey" stroke="black" d="M550.25,-527.84C550.25,-527.84 486.25,-527.84 486.25,-527.84 480.25,-527.84 474.25,-521.84 474.25,-515.84 474.25,-515.84 474.25,-486.84 474.25,-486.84 474.25,-480.84 480.25,-474.84 486.25,-474.84 486.25,-474.84 550.25,-474.84 550.25,-474.84 556.25,-474.84 562.25,-480.84 562.25,-486.84 562.25,-486.84 562.25,-515.84 562.25,-515.84 562.25,-521.84 556.25,-527.84 550.25,-527.84"/>
<text text-anchor="middle" x="518.25" y="-512.64" font-family="Times,serif" font-size="14.00">fourier_data</text>
<text text-anchor="middle" x="518.25" y="-497.64" font-family="Times,serif" font-size="14.00">~</text>
<text text-anchor="middle" x="518.25" y="-482.64" font-family="Times,serif" font-size="14.00">MutableData</text>
</g>
<!-- fourier_contributions -->
<g id="node17" class="node">
<title>fourier_contributions</title>
<polygon fill="none" stroke="black" points="583.75,-413.88 452.75,-413.88 452.75,-360.88 583.75,-360.88 583.75,-413.88"/>
<text text-anchor="middle" x="518.25" y="-398.68" font-family="Times,serif" font-size="14.00">fourier_contributions</text>
<text text-anchor="middle" x="518.25" y="-383.68" font-family="Times,serif" font-size="14.00">~</text>
<text text-anchor="middle" x="518.25" y="-368.68" font-family="Times,serif" font-size="14.00">Deterministic</text>
</g>
<!-- fourier_data&#45;&gt;fourier_contributions -->
<g id="edge10" class="edge">
<title>fourier_data&#45;&gt;fourier_contributions</title>
<path fill="none" stroke="black" d="M518.25,-474.37C518.25,-459.68 518.25,-441.06 518.25,-424.92"/>
<polygon fill="black" stroke="black" points="521.75,-425.21 518.25,-415.21 514.75,-425.21 521.75,-425.21"/>
</g>
<!-- fourier_contributions&#45;&gt;mu -->
<g id="edge14" class="edge">
<title>fourier_contributions&#45;&gt;mu</title>
<path fill="none" stroke="black" d="M477.49,-360.56C453.16,-345.15 422.08,-325.46 396.27,-309.11"/>
<polygon fill="black" stroke="black" points="398.34,-305.65 388.02,-303.25 394.6,-311.56 398.34,-305.65"/>
</g>
<!-- gamma_fourier -->
<g id="node18" class="node">
<title>gamma_fourier</title>
<ellipse fill="none" stroke="black" cx="695.25" cy="-501.34" rx="71.34" ry="37.45"/>
<text text-anchor="middle" x="695.25" y="-512.64" font-family="Times,serif" font-size="14.00">gamma_fourier</text>
<text text-anchor="middle" x="695.25" y="-497.64" font-family="Times,serif" font-size="14.00">~</text>
<text text-anchor="middle" x="695.25" y="-482.64" font-family="Times,serif" font-size="14.00">Laplace</text>
</g>
<!-- gamma_fourier&#45;&gt;fourier_contributions -->
<g id="edge11" class="edge">
<title>gamma_fourier&#45;&gt;fourier_contributions</title>
<path fill="none" stroke="black" d="M659.91,-468.45C645.68,-456.47 628.75,-443.26 612.25,-432.86 604.68,-428.09 596.51,-423.49 588.26,-419.19"/>
<polygon fill="black" stroke="black" points="590.08,-415.68 579.58,-414.28 586.91,-421.92 590.08,-415.68"/>
</g>
</g>
</svg>