<?xml version="1.0" encoding="UTF-8" standalone="no"?>
<!DOCTYPE svg PUBLIC "-//W3C//DTD SVG 1.1//EN"
 "http://www.w3.org/Graphics/SVG/1.1/DTD/svg11.dtd">
<!-- Generated by graphviz version 8.1.0 (20230707.0739)
 -->
<!-- Pages: 1 -->
<svg width="728pt" height="808pt"
 viewBox="0.00 0.00 727.83 807.77" xmlns="http://www.w3.org/2000/svg" xmlns:xlink="http://www.w3.org/1999/xlink">
<g id="graph0" class="graph" transform="scale(1 1) rotate(0) translate(4 803.77)">
<polygon fill="white" stroke="none" points="-4,4 -4,-803.77 723.83,-803.77 723.83,4 -4,4"/>
<g id="clust1" class="cluster">
<title>cluster3</title>
<path fill="none" stroke="black" d="M96,-669.95C96,-669.95 256,-669.95 256,-669.95 262,-669.95 268,-675.95 268,-681.95 268,-681.95 268,-779.77 268,-779.77 268,-785.77 262,-791.77 256,-791.77 256,-791.77 96,-791.77 96,-791.77 90,-791.77 84,-785.77 84,-779.77 84,-779.77 84,-681.95 84,-681.95 84,-675.95 90,-669.95 96,-669.95"/>
<text text-anchor="middle" x="256.62" y="-677.15" font-family="Times,serif" font-size="14.00">3</text>
</g>
<g id="clust2" class="cluster">
<title>cluster2 x 2</title>
<path fill="none" stroke="black" d="M20,-563.95C20,-563.95 106,-563.95 106,-563.95 112,-563.95 118,-569.95 118,-575.95 118,-575.95 118,-649.95 118,-649.95 118,-655.95 112,-661.95 106,-661.95 106,-661.95 20,-661.95 20,-661.95 14,-661.95 8,-655.95 8,-649.95 8,-649.95 8,-575.95 8,-575.95 8,-569.95 14,-563.95 20,-563.95"/>
<text text-anchor="middle" x="96.12" y="-571.15" font-family="Times,serif" font-size="14.00">2 x 2</text>
</g>
<g id="clust3" class="cluster">
<title>cluster2</title>
<path fill="none" stroke="black" d="M138,-563.95C138,-563.95 224,-563.95 224,-563.95 230,-563.95 236,-569.95 236,-575.95 236,-575.95 236,-649.95 236,-649.95 236,-655.95 230,-661.95 224,-661.95 224,-661.95 138,-661.95 138,-661.95 132,-661.95 126,-655.95 126,-649.95 126,-649.95 126,-575.95 126,-575.95 126,-569.95 132,-563.95 138,-563.95"/>
<text text-anchor="middle" x="224.62" y="-571.15" font-family="Times,serif" font-size="14.00">2</text>
</g>
<g id="clust4" class="cluster">
<title>clustereffect (2) x region (9)</title>
<path fill="none" stroke="black" d="M288,-669.95C288,-669.95 398,-669.95 398,-669.95 404,-669.95 410,-675.95 410,-681.95 410,-681.95 410,-779.77 410,-779.77 410,-785.77 404,-791.77 398,-791.77 398,-791.77 288,-791.77 288,-791.77 282,-791.77 276,-785.77 276,-779.77 276,-779.77 276,-681.95 276,-681.95 276,-675.95 282,-669.95 288,-669.95"/>
<text text-anchor="middle" x="342.75" y="-677.15" font-family="Times,serif" font-size="14.00">effect (2) x region (9)</text>
</g>
<g id="clust5" class="cluster">
<title>clusterregion (9) x effect (2)</title>
<path fill="none" stroke="black" d="M274,-563.95C274,-563.95 384,-563.95 384,-563.95 390,-563.95 396,-569.95 396,-575.95 396,-575.95 396,-649.95 396,-649.95 396,-655.95 390,-661.95 384,-661.95 384,-661.95 274,-661.95 274,-661.95 268,-661.95 262,-655.95 262,-649.95 262,-649.95 262,-575.95 262,-575.95 262,-569.95 268,-563.95 274,-563.95"/>
<text text-anchor="middle" x="328.75" y="-571.15" font-family="Times,serif" font-size="14.00">region (9) x effect (2)</text>
</g>
<g id="clust6" class="cluster">
<title>clusterregion (9)</title>
<path fill="none" stroke="black" d="M187,-348.63C187,-348.63 379,-348.63 379,-348.63 385,-348.63 391,-354.63 391,-360.63 391,-360.63 391,-540.04 391,-540.04 391,-546.04 385,-552.04 379,-552.04 379,-552.04 187,-552.04 187,-552.04 181,-552.04 175,-546.04 175,-540.04 175,-540.04 175,-360.63 175,-360.63 175,-354.63 181,-348.63 187,-348.63"/>
<text text-anchor="middle" x="356" y="-355.83" font-family="Times,serif" font-size="14.00">region (9)</text>
</g>
<g id="clust7" class="cluster">
<title>clusterobs (2379)</title>
<path fill="none" stroke="black" d="M189,-8C189,-8 379,-8 379,-8 385,-8 391,-14 391,-20 391,-20 391,-328.63 391,-328.63 391,-334.63 385,-340.63 379,-340.63 379,-340.63 189,-340.63 189,-340.63 183,-340.63 177,-334.63 177,-328.63 177,-328.63 177,-20 177,-20 177,-14 183,-8 189,-8"/>
<text text-anchor="middle" x="353.75" y="-15.2" font-family="Times,serif" font-size="14.00">obs (2379)</text>
</g>
<!-- sigma -->
<g id="node1" class="node">
<title>sigma</title>
<ellipse fill="none" stroke="black" cx="112" cy="-198.48" rx="57.45" ry="40.66"/>
<text text-anchor="middle" x="112" y="-209.93" font-family="Times,serif" font-size="14.00">sigma</text>
<text text-anchor="middle" x="112" y="-193.43" font-family="Times,serif" font-size="14.00">~</text>
<text text-anchor="middle" x="112" y="-176.93" font-family="Times,serif" font-size="14.00">Exponential</text>
</g>
<!-- likelihood -->
<g id="node16" class="node">
<title>likelihood</title>
<ellipse fill="lightgrey" stroke="black" cx="235" cy="-81.16" rx="50.03" ry="40.66"/>
<text text-anchor="middle" x="235" y="-92.61" font-family="Times,serif" font-size="14.00">likelihood</text>
<text text-anchor="middle" x="235" y="-76.11" font-family="Times,serif" font-size="14.00">~</text>
<text text-anchor="middle" x="235" y="-59.61" font-family="Times,serif" font-size="14.00">Normal</text>
</g>
<!-- sigma&#45;&gt;likelihood -->
<g id="edge15" class="edge">
<title>sigma&#45;&gt;likelihood</title>
<path fill="none" stroke="black" d="M146.26,-165.35C161.27,-151.28 179,-134.66 194.65,-119.99"/>
<polygon fill="black" stroke="black" points="196.71,-122.92 201.61,-113.52 191.92,-117.81 196.71,-122.92"/>
</g>
<!-- alpha_j_intercept -->
<g id="node2" class="node">
<title>alpha_j_intercept</title>
<ellipse fill="none" stroke="black" cx="479" cy="-515.29" rx="77.6" ry="40.66"/>
<text text-anchor="middle" x="479" y="-526.74" font-family="Times,serif" font-size="14.00">alpha_j_intercept</text>
<text text-anchor="middle" x="479" y="-510.24" font-family="Times,serif" font-size="14.00">~</text>
<text text-anchor="middle" x="479" y="-493.74" font-family="Times,serif" font-size="14.00">Normal</text>
</g>
<!-- alpha_j -->
<g id="node12" class="node">
<title>alpha_j</title>
<polygon fill="none" stroke="black" points="275.12,-438.63 184.88,-438.63 184.88,-381.13 275.12,-381.13 275.12,-438.63"/>
<text text-anchor="middle" x="230" y="-421.33" font-family="Times,serif" font-size="14.00">alpha_j</text>
<text text-anchor="middle" x="230" y="-404.83" font-family="Times,serif" font-size="14.00">~</text>
<text text-anchor="middle" x="230" y="-388.33" font-family="Times,serif" font-size="14.00">Deterministic</text>
</g>
<!-- alpha_j_intercept&#45;&gt;alpha_j -->
<g id="edge8" class="edge">
<title>alpha_j_intercept&#45;&gt;alpha_j</title>
<path fill="none" stroke="black" d="M423.41,-486.83C414.02,-482.54 404.3,-478.32 395,-474.63 349.8,-456.72 333.88,-458.26 285.54,-439.02"/>
<polygon fill="black" stroke="black" points="287,-435.42 276.42,-434.88 284.35,-441.9 287,-435.42"/>
</g>
<!-- beta_j_intercept -->
<g id="node3" class="node">
<title>beta_j_intercept</title>
<ellipse fill="none" stroke="black" cx="647" cy="-515.29" rx="72.83" ry="40.66"/>
<text text-anchor="middle" x="647" y="-526.74" font-family="Times,serif" font-size="14.00">beta_j_intercept</text>
<text text-anchor="middle" x="647" y="-510.24" font-family="Times,serif" font-size="14.00">~</text>
<text text-anchor="middle" x="647" y="-493.74" font-family="Times,serif" font-size="14.00">Normal</text>
</g>
<!-- beta_j -->
<g id="node9" class="node">
<title>beta_j</title>
<polygon fill="none" stroke="black" points="383.12,-438.63 292.88,-438.63 292.88,-381.13 383.12,-381.13 383.12,-438.63"/>
<text text-anchor="middle" x="338" y="-421.33" font-family="Times,serif" font-size="14.00">beta_j</text>
<text text-anchor="middle" x="338" y="-404.83" font-family="Times,serif" font-size="14.00">~</text>
<text text-anchor="middle" x="338" y="-388.33" font-family="Times,serif" font-size="14.00">Deterministic</text>
</g>
<!-- beta_j_intercept&#45;&gt;beta_j -->
<g id="edge10" class="edge">
<title>beta_j_intercept&#45;&gt;beta_j</title>
<path fill="none" stroke="black" d="M594.46,-486.85C585.11,-482.46 575.36,-478.2 566,-474.63 508.63,-452.78 440.59,-434.73 393.86,-423.48"/>
<polygon fill="black" stroke="black" points="394.88,-419.88 384.34,-420.97 393.26,-426.69 394.88,-419.88"/>
</g>
<!-- chol_cov -->
<g id="node4" class="node">
<title>chol_cov</title>
<ellipse fill="none" stroke="black" cx="176" cy="-743.11" rx="84.5" ry="40.66"/>
<text text-anchor="middle" x="176" y="-754.56" font-family="Times,serif" font-size="14.00">chol_cov</text>
<text text-anchor="middle" x="176" y="-738.06" font-family="Times,serif" font-size="14.00">~</text>
<text text-anchor="middle" x="176" y="-721.56" font-family="Times,serif" font-size="14.00">_LKJCholeskyCov</text>
</g>
<!-- chol_cov_corr -->
<g id="node5" class="node">
<title>chol_cov_corr</title>
<polygon fill="none" stroke="black" points="110,-653.95 16,-653.95 16,-596.45 110,-596.45 110,-653.95"/>
<text text-anchor="middle" x="63" y="-636.65" font-family="Times,serif" font-size="14.00">chol_cov_corr</text>
<text text-anchor="middle" x="63" y="-620.15" font-family="Times,serif" font-size="14.00">~</text>
<text text-anchor="middle" x="63" y="-603.65" font-family="Times,serif" font-size="14.00">Deterministic</text>
</g>
<!-- chol_cov&#45;&gt;chol_cov_corr -->
<g id="edge1" class="edge">
<title>chol_cov&#45;&gt;chol_cov_corr</title>
<path fill="none" stroke="black" d="M140.56,-705.75C126.9,-691.75 111.34,-675.78 97.75,-661.85"/>
<polygon fill="black" stroke="black" points="100.92,-660.05 91.43,-655.34 95.9,-664.94 100.92,-660.05"/>
</g>
<!-- chol_cov_stds -->
<g id="node6" class="node">
<title>chol_cov_stds</title>
<polygon fill="none" stroke="black" points="227.62,-653.95 134.38,-653.95 134.38,-596.45 227.62,-596.45 227.62,-653.95"/>
<text text-anchor="middle" x="181" y="-636.65" font-family="Times,serif" font-size="14.00">chol_cov_stds</text>
<text text-anchor="middle" x="181" y="-620.15" font-family="Times,serif" font-size="14.00">~</text>
<text text-anchor="middle" x="181" y="-603.65" font-family="Times,serif" font-size="14.00">Deterministic</text>
</g>
<!-- chol_cov&#45;&gt;chol_cov_stds -->
<g id="edge2" class="edge">
<title>chol_cov&#45;&gt;chol_cov_stds</title>
<path fill="none" stroke="black" d="M177.72,-702.22C178.24,-690.09 178.82,-676.78 179.34,-664.74"/>
<polygon fill="black" stroke="black" points="182.86,-665.25 179.8,-655.11 175.87,-664.95 182.86,-665.25"/>
</g>
<!-- slopes -->
<g id="node8" class="node">
<title>slopes</title>
<polygon fill="none" stroke="black" points="369.12,-653.95 278.88,-653.95 278.88,-596.45 369.12,-596.45 369.12,-653.95"/>
<text text-anchor="middle" x="324" y="-636.65" font-family="Times,serif" font-size="14.00">slopes</text>
<text text-anchor="middle" x="324" y="-620.15" font-family="Times,serif" font-size="14.00">~</text>
<text text-anchor="middle" x="324" y="-603.65" font-family="Times,serif" font-size="14.00">Deterministic</text>
</g>
<!-- chol_cov&#45;&gt;slopes -->
<g id="edge4" class="edge">
<title>chol_cov&#45;&gt;slopes</title>
<path fill="none" stroke="black" d="M219.6,-707.96C238.53,-693.14 260.67,-675.8 279.68,-660.91"/>
<polygon fill="black" stroke="black" points="281.46,-663.18 287.17,-654.26 277.14,-657.67 281.46,-663.18"/>
</g>
<!-- z_slopes -->
<g id="node7" class="node">
<title>z_slopes</title>
<ellipse fill="none" stroke="black" cx="328" cy="-743.11" rx="44.19" ry="40.66"/>
<text text-anchor="middle" x="328" y="-754.56" font-family="Times,serif" font-size="14.00">z_slopes</text>
<text text-anchor="middle" x="328" y="-738.06" font-family="Times,serif" font-size="14.00">~</text>
<text text-anchor="middle" x="328" y="-721.56" font-family="Times,serif" font-size="14.00">Normal</text>
</g>
<!-- z_slopes&#45;&gt;slopes -->
<g id="edge3" class="edge">
<title>z_slopes&#45;&gt;slopes</title>
<path fill="none" stroke="black" d="M326.62,-702.22C326.2,-690.09 325.75,-676.78 325.33,-664.74"/>
<polygon fill="black" stroke="black" points="328.81,-664.98 324.96,-655.11 321.81,-665.22 328.81,-664.98"/>
</g>
<!-- alpha_j_slope -->
<g id="node10" class="node">
<title>alpha_j_slope</title>
<polygon fill="none" stroke="black" points="274.5,-544.04 183.5,-544.04 183.5,-486.54 274.5,-486.54 274.5,-544.04"/>
<text text-anchor="middle" x="229" y="-526.74" font-family="Times,serif" font-size="14.00">alpha_j_slope</text>
<text text-anchor="middle" x="229" y="-510.24" font-family="Times,serif" font-size="14.00">~</text>
<text text-anchor="middle" x="229" y="-493.74" font-family="Times,serif" font-size="14.00">Deterministic</text>
</g>
<!-- slopes&#45;&gt;alpha_j_slope -->
<g id="edge5" class="edge">
<title>slopes&#45;&gt;alpha_j_slope</title>
<path fill="none" stroke="black" d="M299.29,-596.13C287.52,-582.77 273.31,-566.63 260.76,-552.37"/>
<polygon fill="black" stroke="black" points="263.82,-550.42 254.59,-545.22 258.57,-555.04 263.82,-550.42"/>
</g>
<!-- beta_j_slope -->
<g id="node11" class="node">
<title>beta_j_slope</title>
<polygon fill="none" stroke="black" points="383.12,-544.04 292.88,-544.04 292.88,-486.54 383.12,-486.54 383.12,-544.04"/>
<text text-anchor="middle" x="338" y="-526.74" font-family="Times,serif" font-size="14.00">beta_j_slope</text>
<text text-anchor="middle" x="338" y="-510.24" font-family="Times,serif" font-size="14.00">~</text>
<text text-anchor="middle" x="338" y="-493.74" font-family="Times,serif" font-size="14.00">Deterministic</text>
</g>
<!-- slopes&#45;&gt;beta_j_slope -->
<g id="edge6" class="edge">
<title>slopes&#45;&gt;beta_j_slope</title>
<path fill="none" stroke="black" d="M327.64,-596.13C329.28,-583.52 331.24,-568.43 333.01,-554.78"/>
<polygon fill="black" stroke="black" points="336.56,-555.59 334.38,-545.22 329.62,-554.69 336.56,-555.59"/>
</g>
<!-- beta -->
<g id="node14" class="node">
<title>beta</title>
<polygon fill="none" stroke="black" points="383.12,-332.63 292.88,-332.63 292.88,-275.13 383.12,-275.13 383.12,-332.63"/>
<text text-anchor="middle" x="338" y="-315.33" font-family="Times,serif" font-size="14.00">beta</text>
<text text-anchor="middle" x="338" y="-298.83" font-family="Times,serif" font-size="14.00">~</text>
<text text-anchor="middle" x="338" y="-282.33" font-family="Times,serif" font-size="14.00">Deterministic</text>
</g>
<!-- beta_j&#45;&gt;beta -->
<g id="edge12" class="edge">
<title>beta_j&#45;&gt;beta</title>
<path fill="none" stroke="black" d="M338,-380.74C338,-369.41 338,-356.15 338,-343.92"/>
<polygon fill="black" stroke="black" points="341.5,-344.05 338,-334.05 334.5,-344.05 341.5,-344.05"/>
</g>
<!-- alpha_j_slope&#45;&gt;alpha_j -->
<g id="edge7" class="edge">
<title>alpha_j_slope&#45;&gt;alpha_j</title>
<path fill="none" stroke="black" d="M229.27,-486.31C229.38,-475.04 229.51,-461.86 229.62,-449.69"/>
<polygon fill="black" stroke="black" points="233.13,-449.92 229.73,-439.89 226.13,-449.86 233.13,-449.92"/>
</g>
<!-- beta_j_slope&#45;&gt;beta_j -->
<g id="edge9" class="edge">
<title>beta_j_slope&#45;&gt;beta_j</title>
<path fill="none" stroke="black" d="M338,-486.31C338,-475.04 338,-461.86 338,-449.69"/>
<polygon fill="black" stroke="black" points="341.5,-449.89 338,-439.89 334.5,-449.89 341.5,-449.89"/>
</g>
<!-- alpha -->
<g id="node15" class="node">
<title>alpha</title>
<polygon fill="none" stroke="black" points="275.12,-332.63 184.88,-332.63 184.88,-275.13 275.12,-275.13 275.12,-332.63"/>
<text text-anchor="middle" x="230" y="-315.33" font-family="Times,serif" font-size="14.00">alpha</text>
<text text-anchor="middle" x="230" y="-298.83" font-family="Times,serif" font-size="14.00">~</text>
<text text-anchor="middle" x="230" y="-282.33" font-family="Times,serif" font-size="14.00">Deterministic</text>
</g>
<!-- alpha_j&#45;&gt;alpha -->
<g id="edge11" class="edge">
<title>alpha_j&#45;&gt;alpha</title>
<path fill="none" stroke="black" d="M230,-380.74C230,-369.41 230,-356.15 230,-343.92"/>
<polygon fill="black" stroke="black" points="233.5,-344.05 230,-334.05 226.5,-344.05 233.5,-344.05"/>
</g>
<!-- mu -->
<g id="node13" class="node">
<title>mu</title>
<polygon fill="none" stroke="black" points="280.12,-227.23 189.88,-227.23 189.88,-169.73 280.12,-169.73 280.12,-227.23"/>
<text text-anchor="middle" x="235" y="-209.93" font-family="Times,serif" font-size="14.00">mu</text>
<text text-anchor="middle" x="235" y="-193.43" font-family="Times,serif" font-size="14.00">~</text>
<text text-anchor="middle" x="235" y="-176.93" font-family="Times,serif" font-size="14.00">Deterministic</text>
</g>
<!-- mu&#45;&gt;likelihood -->
<g id="edge16" class="edge">
<title>mu&#45;&gt;likelihood</title>
<path fill="none" stroke="black" d="M235,-169.27C235,-158.33 235,-145.47 235,-133.03"/>
<polygon fill="black" stroke="black" points="238.5,-133.27 235,-123.27 231.5,-133.27 238.5,-133.27"/>
</g>
<!-- beta&#45;&gt;mu -->
<g id="edge13" class="edge">
<title>beta&#45;&gt;mu</title>
<path fill="none" stroke="black" d="M310.13,-274.9C297.88,-262.6 283.35,-248.01 270.34,-234.96"/>
<polygon fill="black" stroke="black" points="273.43,-233.1 263.9,-228.48 268.47,-238.04 273.43,-233.1"/>
</g>
<!-- alpha&#45;&gt;mu -->
<g id="edge14" class="edge">
<title>alpha&#45;&gt;mu</title>
<path fill="none" stroke="black" d="M231.35,-274.9C231.9,-263.64 232.54,-250.45 233.12,-238.28"/>
<polygon fill="black" stroke="black" points="236.66,-238.64 233.65,-228.48 229.67,-238.3 236.66,-238.64"/>
</g>
</g>
</svg>
