<?xml version="1.0" encoding="UTF-8" standalone="no"?>
<!DOCTYPE svg PUBLIC "-//W3C//DTD SVG 1.1//EN"
 "http://www.w3.org/Graphics/SVG/1.1/DTD/svg11.dtd">
<!-- Generated by graphviz version 8.1.0 (20230707.0739)
 -->
<!-- Pages: 1 -->
<svg width="1334pt" height="673pt"
 viewBox="0.00 0.00 1334.03 673.45" xmlns="http://www.w3.org/2000/svg" xmlns:xlink="http://www.w3.org/1999/xlink">
<g id="graph0" class="graph" transform="scale(1 1) rotate(0) translate(4 669.45)">
<polygon fill="white" stroke="none" points="-4,4 -4,-669.45 1330.03,-669.45 1330.03,4 -4,4"/>
<g id="clust1" class="cluster">
<title>clusterregion (9)</title>
<path fill="none" stroke="black" d="M20.45,-348.63C20.45,-348.63 432.45,-348.63 432.45,-348.63 438.45,-348.63 444.45,-354.63 444.45,-360.63 444.45,-360.63 444.45,-645.45 444.45,-645.45 444.45,-651.45 438.45,-657.45 432.45,-657.45 432.45,-657.45 20.45,-657.45 20.45,-657.45 14.45,-657.45 8.45,-651.45 8.45,-645.45 8.45,-645.45 8.45,-360.63 8.45,-360.63 8.45,-354.63 14.45,-348.63 20.45,-348.63"/>
<text text-anchor="middle" x="409.45" y="-355.83" font-family="Times,serif" font-size="14.00">region (9)</text>
</g>
<g id="clust2" class="cluster">
<title>clusterobs (2379)</title>
<path fill="none" stroke="black" d="M134.45,-8C134.45,-8 324.45,-8 324.45,-8 330.45,-8 336.45,-14 336.45,-20 336.45,-20 336.45,-328.63 336.45,-328.63 336.45,-334.63 330.45,-340.63 324.45,-340.63 324.45,-340.63 134.45,-340.63 134.45,-340.63 128.45,-340.63 122.45,-334.63 122.45,-328.63 122.45,-328.63 122.45,-20 122.45,-20 122.45,-14 128.45,-8 134.45,-8"/>
<text text-anchor="middle" x="299.2" y="-15.2" font-family="Times,serif" font-size="14.00">obs (2379)</text>
</g>
<!-- sigma -->
<g id="node1" class="node">
<title>sigma</title>
<ellipse fill="none" stroke="black" cx="57.45" cy="-198.48" rx="57.45" ry="40.66"/>
<text text-anchor="middle" x="57.45" y="-209.93" font-family="Times,serif" font-size="14.00">sigma</text>
<text text-anchor="middle" x="57.45" y="-193.43" font-family="Times,serif" font-size="14.00">~</text>
<text text-anchor="middle" x="57.45" y="-176.93" font-family="Times,serif" font-size="14.00">Exponential</text>
</g>
<!-- likelihood -->
<g id="node19" class="node">
<title>likelihood</title>
<ellipse fill="lightgrey" stroke="black" cx="180.45" cy="-81.16" rx="50.03" ry="40.66"/>
<text text-anchor="middle" x="180.45" y="-92.61" font-family="Times,serif" font-size="14.00">likelihood</text>
<text text-anchor="middle" x="180.45" y="-76.11" font-family="Times,serif" font-size="14.00">~</text>
<text text-anchor="middle" x="180.45" y="-59.61" font-family="Times,serif" font-size="14.00">Normal</text>
</g>
<!-- sigma&#45;&gt;likelihood -->
<g id="edge17" class="edge">
<title>sigma&#45;&gt;likelihood</title>
<path fill="none" stroke="black" d="M91.71,-165.35C106.73,-151.28 124.45,-134.66 140.1,-119.99"/>
<polygon fill="black" stroke="black" points="142.16,-122.92 147.07,-113.52 137.38,-117.81 142.16,-122.92"/>
</g>
<!-- alpha_j_intercept -->
<g id="node2" class="node">
<title>alpha_j_intercept</title>
<ellipse fill="none" stroke="black" cx="801.45" cy="-608.79" rx="77.6" ry="40.66"/>
<text text-anchor="middle" x="801.45" y="-620.24" font-family="Times,serif" font-size="14.00">alpha_j_intercept</text>
<text text-anchor="middle" x="801.45" y="-603.74" font-family="Times,serif" font-size="14.00">~</text>
<text text-anchor="middle" x="801.45" y="-587.24" font-family="Times,serif" font-size="14.00">Normal</text>
</g>
<!-- alpha_j_mu -->
<g id="node14" class="node">
<title>alpha_j_mu</title>
<polygon fill="none" stroke="black" points="328.58,-532.13 238.33,-532.13 238.33,-474.63 328.58,-474.63 328.58,-532.13"/>
<text text-anchor="middle" x="283.45" y="-514.83" font-family="Times,serif" font-size="14.00">alpha_j_mu</text>
<text text-anchor="middle" x="283.45" y="-498.33" font-family="Times,serif" font-size="14.00">~</text>
<text text-anchor="middle" x="283.45" y="-481.83" font-family="Times,serif" font-size="14.00">Deterministic</text>
</g>
<!-- alpha_j_intercept&#45;&gt;alpha_j_mu -->
<g id="edge2" class="edge">
<title>alpha_j_intercept&#45;&gt;alpha_j_mu</title>
<path fill="none" stroke="black" d="M746.78,-579.56C736.28,-575.1 725.2,-571.01 714.45,-568.13 555.19,-525.52 501.2,-577.24 339.23,-532.2"/>
<polygon fill="black" stroke="black" points="340.49,-528.63 329.92,-529.24 338.56,-535.36 340.49,-528.63"/>
</g>
<!-- beta_j_intercept -->
<g id="node3" class="node">
<title>beta_j_intercept</title>
<ellipse fill="none" stroke="black" cx="1116.45" cy="-608.79" rx="72.83" ry="40.66"/>
<text text-anchor="middle" x="1116.45" y="-620.24" font-family="Times,serif" font-size="14.00">beta_j_intercept</text>
<text text-anchor="middle" x="1116.45" y="-603.74" font-family="Times,serif" font-size="14.00">~</text>
<text text-anchor="middle" x="1116.45" y="-587.24" font-family="Times,serif" font-size="14.00">Normal</text>
</g>
<!-- beta_j_mu -->
<g id="node13" class="node">
<title>beta_j_mu</title>
<polygon fill="none" stroke="black" points="436.58,-532.13 346.33,-532.13 346.33,-474.63 436.58,-474.63 436.58,-532.13"/>
<text text-anchor="middle" x="391.45" y="-514.83" font-family="Times,serif" font-size="14.00">beta_j_mu</text>
<text text-anchor="middle" x="391.45" y="-498.33" font-family="Times,serif" font-size="14.00">~</text>
<text text-anchor="middle" x="391.45" y="-481.83" font-family="Times,serif" font-size="14.00">Deterministic</text>
</g>
<!-- beta_j_intercept&#45;&gt;beta_j_mu -->
<g id="edge8" class="edge">
<title>beta_j_intercept&#45;&gt;beta_j_mu</title>
<path fill="none" stroke="black" d="M1065.04,-579.56C1055.13,-575.09 1044.65,-571.01 1034.45,-568.13 924.57,-537.17 582.98,-515.15 447.57,-507.42"/>
<polygon fill="black" stroke="black" points="447.83,-503.87 437.65,-506.8 447.44,-510.86 447.83,-503.87"/>
</g>
<!-- sigma_alpha -->
<g id="node4" class="node">
<title>sigma_alpha</title>
<ellipse fill="none" stroke="black" cx="512.45" cy="-608.79" rx="60.1" ry="40.66"/>
<text text-anchor="middle" x="512.45" y="-620.24" font-family="Times,serif" font-size="14.00">sigma_alpha</text>
<text text-anchor="middle" x="512.45" y="-603.74" font-family="Times,serif" font-size="14.00">~</text>
<text text-anchor="middle" x="512.45" y="-587.24" font-family="Times,serif" font-size="14.00">Exponential</text>
</g>
<!-- alpha_j_sigma -->
<g id="node12" class="node">
<title>alpha_j_sigma</title>
<polygon fill="none" stroke="black" points="112.2,-532.13 16.7,-532.13 16.7,-474.63 112.2,-474.63 112.2,-532.13"/>
<text text-anchor="middle" x="64.45" y="-514.83" font-family="Times,serif" font-size="14.00">alpha_j_sigma</text>
<text text-anchor="middle" x="64.45" y="-498.33" font-family="Times,serif" font-size="14.00">~</text>
<text text-anchor="middle" x="64.45" y="-481.83" font-family="Times,serif" font-size="14.00">Deterministic</text>
</g>
<!-- sigma_alpha&#45;&gt;alpha_j_sigma -->
<g id="edge4" class="edge">
<title>sigma_alpha&#45;&gt;alpha_j_sigma</title>
<path fill="none" stroke="black" d="M471.45,-578.74C464.07,-574.59 456.24,-570.82 448.45,-568.13 313.47,-521.57 264.23,-570.34 122.85,-532.08"/>
<polygon fill="black" stroke="black" points="124.08,-528.51 113.51,-529.18 122.19,-535.25 124.08,-528.51"/>
</g>
<!-- sigma_beta -->
<g id="node5" class="node">
<title>sigma_beta</title>
<ellipse fill="none" stroke="black" cx="648.45" cy="-608.79" rx="57.45" ry="40.66"/>
<text text-anchor="middle" x="648.45" y="-620.24" font-family="Times,serif" font-size="14.00">sigma_beta</text>
<text text-anchor="middle" x="648.45" y="-603.74" font-family="Times,serif" font-size="14.00">~</text>
<text text-anchor="middle" x="648.45" y="-587.24" font-family="Times,serif" font-size="14.00">Exponential</text>
</g>
<!-- beta_j_sigma -->
<g id="node8" class="node">
<title>beta_j_sigma</title>
<polygon fill="none" stroke="black" points="220.58,-532.13 130.33,-532.13 130.33,-474.63 220.58,-474.63 220.58,-532.13"/>
<text text-anchor="middle" x="175.45" y="-514.83" font-family="Times,serif" font-size="14.00">beta_j_sigma</text>
<text text-anchor="middle" x="175.45" y="-498.33" font-family="Times,serif" font-size="14.00">~</text>
<text text-anchor="middle" x="175.45" y="-481.83" font-family="Times,serif" font-size="14.00">Deterministic</text>
</g>
<!-- sigma_beta&#45;&gt;beta_j_sigma -->
<g id="edge10" class="edge">
<title>sigma_beta&#45;&gt;beta_j_sigma</title>
<path fill="none" stroke="black" d="M607.61,-579.9C599.26,-575.28 590.31,-571.05 581.45,-568.13 435.29,-519.99 382.5,-574.41 231.04,-532.14"/>
<polygon fill="black" stroke="black" points="232.5,-528.63 221.92,-529.21 230.56,-535.35 232.5,-528.63"/>
</g>
<!-- alpha_j_slope -->
<g id="node6" class="node">
<title>alpha_j_slope</title>
<ellipse fill="none" stroke="black" cx="961.45" cy="-608.79" rx="64.35" ry="40.66"/>
<text text-anchor="middle" x="961.45" y="-620.24" font-family="Times,serif" font-size="14.00">alpha_j_slope</text>
<text text-anchor="middle" x="961.45" y="-603.74" font-family="Times,serif" font-size="14.00">~</text>
<text text-anchor="middle" x="961.45" y="-587.24" font-family="Times,serif" font-size="14.00">Normal</text>
</g>
<!-- alpha_j_slope&#45;&gt;alpha_j_mu -->
<g id="edge1" class="edge">
<title>alpha_j_slope&#45;&gt;alpha_j_mu</title>
<path fill="none" stroke="black" d="M916.41,-579.45C907.44,-574.93 897.87,-570.86 888.45,-568.13 656.04,-500.94 576.24,-594.86 339.2,-532.14"/>
<polygon fill="black" stroke="black" points="340.45,-528.58 329.89,-529.34 338.62,-535.34 340.45,-528.58"/>
</g>
<!-- beta_j_slope -->
<g id="node7" class="node">
<title>beta_j_slope</title>
<ellipse fill="none" stroke="black" cx="1266.45" cy="-608.79" rx="59.57" ry="40.66"/>
<text text-anchor="middle" x="1266.45" y="-620.24" font-family="Times,serif" font-size="14.00">beta_j_slope</text>
<text text-anchor="middle" x="1266.45" y="-603.74" font-family="Times,serif" font-size="14.00">~</text>
<text text-anchor="middle" x="1266.45" y="-587.24" font-family="Times,serif" font-size="14.00">Normal</text>
</g>
<!-- beta_j_slope&#45;&gt;beta_j_mu -->
<g id="edge7" class="edge">
<title>beta_j_slope&#45;&gt;beta_j_mu</title>
<path fill="none" stroke="black" d="M1224.65,-579.53C1216.28,-575.01 1207.32,-570.91 1198.45,-568.13 1057.98,-524.16 607.07,-509.47 447.81,-505.58"/>
<polygon fill="black" stroke="black" points="447.94,-502.06 437.86,-505.32 447.77,-509.05 447.94,-502.06"/>
</g>
<!-- beta_j -->
<g id="node15" class="node">
<title>beta_j</title>
<polygon fill="none" stroke="black" points="328.58,-438.63 238.33,-438.63 238.33,-381.13 328.58,-381.13 328.58,-438.63"/>
<text text-anchor="middle" x="283.45" y="-421.33" font-family="Times,serif" font-size="14.00">beta_j</text>
<text text-anchor="middle" x="283.45" y="-404.83" font-family="Times,serif" font-size="14.00">~</text>
<text text-anchor="middle" x="283.45" y="-388.33" font-family="Times,serif" font-size="14.00">Deterministic</text>
</g>
<!-- beta_j_sigma&#45;&gt;beta_j -->
<g id="edge12" class="edge">
<title>beta_j_sigma&#45;&gt;beta_j</title>
<path fill="none" stroke="black" d="M208.74,-474.18C219.31,-465.23 231.12,-455.22 242.19,-445.85"/>
<polygon fill="black" stroke="black" points="244.1,-447.97 249.46,-438.83 239.57,-442.63 244.1,-447.97"/>
</g>
<!-- alpha_j -->
<g id="node9" class="node">
<title>alpha_j</title>
<polygon fill="none" stroke="black" points="220.58,-438.63 130.33,-438.63 130.33,-381.13 220.58,-381.13 220.58,-438.63"/>
<text text-anchor="middle" x="175.45" y="-421.33" font-family="Times,serif" font-size="14.00">alpha_j</text>
<text text-anchor="middle" x="175.45" y="-404.83" font-family="Times,serif" font-size="14.00">~</text>
<text text-anchor="middle" x="175.45" y="-388.33" font-family="Times,serif" font-size="14.00">Deterministic</text>
</g>
<!-- alpha -->
<g id="node18" class="node">
<title>alpha</title>
<polygon fill="none" stroke="black" points="220.58,-332.63 130.33,-332.63 130.33,-275.13 220.58,-275.13 220.58,-332.63"/>
<text text-anchor="middle" x="175.45" y="-315.33" font-family="Times,serif" font-size="14.00">alpha</text>
<text text-anchor="middle" x="175.45" y="-298.83" font-family="Times,serif" font-size="14.00">~</text>
<text text-anchor="middle" x="175.45" y="-282.33" font-family="Times,serif" font-size="14.00">Deterministic</text>
</g>
<!-- alpha_j&#45;&gt;alpha -->
<g id="edge13" class="edge">
<title>alpha_j&#45;&gt;alpha</title>
<path fill="none" stroke="black" d="M175.45,-380.74C175.45,-369.41 175.45,-356.15 175.45,-343.92"/>
<polygon fill="black" stroke="black" points="178.95,-344.05 175.45,-334.05 171.95,-344.05 178.95,-344.05"/>
</g>
<!-- z_beta_j -->
<g id="node10" class="node">
<title>z_beta_j</title>
<ellipse fill="none" stroke="black" cx="175.45" cy="-608.79" rx="43.66" ry="40.66"/>
<text text-anchor="middle" x="175.45" y="-620.24" font-family="Times,serif" font-size="14.00">z_beta_j</text>
<text text-anchor="middle" x="175.45" y="-603.74" font-family="Times,serif" font-size="14.00">~</text>
<text text-anchor="middle" x="175.45" y="-587.24" font-family="Times,serif" font-size="14.00">Normal</text>
</g>
<!-- z_beta_j&#45;&gt;beta_j_sigma -->
<g id="edge9" class="edge">
<title>z_beta_j&#45;&gt;beta_j_sigma</title>
<path fill="none" stroke="black" d="M175.45,-567.81C175.45,-559.78 175.45,-551.34 175.45,-543.34"/>
<polygon fill="black" stroke="black" points="178.95,-543.41 175.45,-533.41 171.95,-543.41 178.95,-543.41"/>
</g>
<!-- z_alpha_j -->
<g id="node11" class="node">
<title>z_alpha_j</title>
<ellipse fill="none" stroke="black" cx="64.45" cy="-608.79" rx="48.44" ry="40.66"/>
<text text-anchor="middle" x="64.45" y="-620.24" font-family="Times,serif" font-size="14.00">z_alpha_j</text>
<text text-anchor="middle" x="64.45" y="-603.74" font-family="Times,serif" font-size="14.00">~</text>
<text text-anchor="middle" x="64.45" y="-587.24" font-family="Times,serif" font-size="14.00">Normal</text>
</g>
<!-- z_alpha_j&#45;&gt;alpha_j_sigma -->
<g id="edge3" class="edge">
<title>z_alpha_j&#45;&gt;alpha_j_sigma</title>
<path fill="none" stroke="black" d="M64.45,-567.81C64.45,-559.78 64.45,-551.34 64.45,-543.34"/>
<polygon fill="black" stroke="black" points="67.95,-543.41 64.45,-533.41 60.95,-543.41 67.95,-543.41"/>
</g>
<!-- alpha_j_sigma&#45;&gt;alpha_j -->
<g id="edge6" class="edge">
<title>alpha_j_sigma&#45;&gt;alpha_j</title>
<path fill="none" stroke="black" d="M98.66,-474.18C109.63,-465.14 121.91,-455.02 133.37,-445.57"/>
<polygon fill="black" stroke="black" points="135.06,-447.9 140.55,-438.83 130.6,-442.49 135.06,-447.9"/>
</g>
<!-- beta_j_mu&#45;&gt;beta_j -->
<g id="edge11" class="edge">
<title>beta_j_mu&#45;&gt;beta_j</title>
<path fill="none" stroke="black" d="M358.17,-474.18C347.6,-465.23 335.78,-455.22 324.72,-445.85"/>
<polygon fill="black" stroke="black" points="327.33,-442.63 317.44,-438.83 322.81,-447.97 327.33,-442.63"/>
</g>
<!-- alpha_j_mu&#45;&gt;alpha_j -->
<g id="edge5" class="edge">
<title>alpha_j_mu&#45;&gt;alpha_j</title>
<path fill="none" stroke="black" d="M250.17,-474.18C239.6,-465.23 227.78,-455.22 216.72,-445.85"/>
<polygon fill="black" stroke="black" points="219.33,-442.63 209.44,-438.83 214.81,-447.97 219.33,-442.63"/>
</g>
<!-- beta -->
<g id="node17" class="node">
<title>beta</title>
<polygon fill="none" stroke="black" points="328.58,-332.63 238.33,-332.63 238.33,-275.13 328.58,-275.13 328.58,-332.63"/>
<text text-anchor="middle" x="283.45" y="-315.33" font-family="Times,serif" font-size="14.00">beta</text>
<text text-anchor="middle" x="283.45" y="-298.83" font-family="Times,serif" font-size="14.00">~</text>
<text text-anchor="middle" x="283.45" y="-282.33" font-family="Times,serif" font-size="14.00">Deterministic</text>
</g>
<!-- beta_j&#45;&gt;beta -->
<g id="edge14" class="edge">
<title>beta_j&#45;&gt;beta</title>
<path fill="none" stroke="black" d="M283.45,-380.74C283.45,-369.41 283.45,-356.15 283.45,-343.92"/>
<polygon fill="black" stroke="black" points="286.95,-344.05 283.45,-334.05 279.95,-344.05 286.95,-344.05"/>
</g>
<!-- mu -->
<g id="node16" class="node">
<title>mu</title>
<polygon fill="none" stroke="black" points="225.58,-227.23 135.33,-227.23 135.33,-169.73 225.58,-169.73 225.58,-227.23"/>
<text text-anchor="middle" x="180.45" y="-209.93" font-family="Times,serif" font-size="14.00">mu</text>
<text text-anchor="middle" x="180.45" y="-193.43" font-family="Times,serif" font-size="14.00">~</text>
<text text-anchor="middle" x="180.45" y="-176.93" font-family="Times,serif" font-size="14.00">Deterministic</text>
</g>
<!-- mu&#45;&gt;likelihood -->
<g id="edge18" class="edge">
<title>mu&#45;&gt;likelihood</title>
<path fill="none" stroke="black" d="M180.45,-169.27C180.45,-158.33 180.45,-145.47 180.45,-133.03"/>
<polygon fill="black" stroke="black" points="183.95,-133.27 180.45,-123.27 176.95,-133.27 183.95,-133.27"/>
</g>
<!-- beta&#45;&gt;mu -->
<g id="edge15" class="edge">
<title>beta&#45;&gt;mu</title>
<path fill="none" stroke="black" d="M255.58,-274.9C243.33,-262.6 228.8,-248.01 215.8,-234.96"/>
<polygon fill="black" stroke="black" points="218.88,-233.1 209.35,-228.48 213.93,-238.04 218.88,-233.1"/>
</g>
<!-- alpha&#45;&gt;mu -->
<g id="edge16" class="edge">
<title>alpha&#45;&gt;mu</title>
<path fill="none" stroke="black" d="M176.81,-274.9C177.35,-263.64 177.99,-250.45 178.58,-238.28"/>
<polygon fill="black" stroke="black" points="182.11,-238.64 179.1,-228.48 175.12,-238.3 182.11,-238.64"/>
</g>
</g>
</svg>
