<?xml version="1.0" encoding="UTF-8" standalone="no"?>
<!DOCTYPE svg PUBLIC "-//W3C//DTD SVG 1.1//EN"
 "http://www.w3.org/Graphics/SVG/1.1/DTD/svg11.dtd">
<!-- Generated by graphviz version 8.1.0 (20230707.0739)
 -->
<!-- Pages: 1 -->
<svg width="352pt" height="486pt"
 viewBox="0.00 0.00 352.45 486.45" xmlns="http://www.w3.org/2000/svg" xmlns:xlink="http://www.w3.org/1999/xlink">
<g id="graph0" class="graph" transform="scale(1 1) rotate(0) translate(4 482.45)">
<polygon fill="white" stroke="none" points="-4,4 -4,-482.45 348.45,-482.45 348.45,4 -4,4"/>
<g id="clust1" class="cluster">
<title>clusterregion (9)</title>
<path fill="none" stroke="black" d="M28,-348.63C28,-348.63 202,-348.63 202,-348.63 208,-348.63 214,-354.63 214,-360.63 214,-360.63 214,-458.45 214,-458.45 214,-464.45 208,-470.45 202,-470.45 202,-470.45 28,-470.45 28,-470.45 22,-470.45 16,-464.45 16,-458.45 16,-458.45 16,-360.63 16,-360.63 16,-354.63 22,-348.63 28,-348.63"/>
<text text-anchor="middle" x="179" y="-355.83" font-family="Times,serif" font-size="14.00">region (9)</text>
</g>
<g id="clust2" class="cluster">
<title>clusterobs (2379)</title>
<path fill="none" stroke="black" d="M20,-8C20,-8 210,-8 210,-8 216,-8 222,-14 222,-20 222,-20 222,-328.63 222,-328.63 222,-334.63 216,-340.63 210,-340.63 210,-340.63 20,-340.63 20,-340.63 14,-340.63 8,-334.63 8,-328.63 8,-328.63 8,-20 8,-20 8,-14 14,-8 20,-8"/>
<text text-anchor="middle" x="184.75" y="-15.2" font-family="Times,serif" font-size="14.00">obs (2379)</text>
</g>
<!-- beta_j -->
<g id="node1" class="node">
<title>beta_j</title>
<ellipse fill="none" stroke="black" cx="165" cy="-421.79" rx="41.01" ry="40.66"/>
<text text-anchor="middle" x="165" y="-433.24" font-family="Times,serif" font-size="14.00">beta_j</text>
<text text-anchor="middle" x="165" y="-416.74" font-family="Times,serif" font-size="14.00">~</text>
<text text-anchor="middle" x="165" y="-400.24" font-family="Times,serif" font-size="14.00">Normal</text>
</g>
<!-- beta -->
<g id="node5" class="node">
<title>beta</title>
<polygon fill="none" stroke="black" points="214.12,-332.63 123.88,-332.63 123.88,-275.13 214.12,-275.13 214.12,-332.63"/>
<text text-anchor="middle" x="169" y="-315.33" font-family="Times,serif" font-size="14.00">beta</text>
<text text-anchor="middle" x="169" y="-298.83" font-family="Times,serif" font-size="14.00">~</text>
<text text-anchor="middle" x="169" y="-282.33" font-family="Times,serif" font-size="14.00">Deterministic</text>
</g>
<!-- beta_j&#45;&gt;beta -->
<g id="edge2" class="edge">
<title>beta_j&#45;&gt;beta</title>
<path fill="none" stroke="black" d="M166.38,-380.9C166.8,-368.77 167.25,-355.46 167.67,-343.42"/>
<polygon fill="black" stroke="black" points="171.19,-343.9 168.04,-333.79 164.19,-343.66 171.19,-343.9"/>
</g>
<!-- alpha_j -->
<g id="node2" class="node">
<title>alpha_j</title>
<ellipse fill="none" stroke="black" cx="65" cy="-421.79" rx="41.01" ry="40.66"/>
<text text-anchor="middle" x="65" y="-433.24" font-family="Times,serif" font-size="14.00">alpha_j</text>
<text text-anchor="middle" x="65" y="-416.74" font-family="Times,serif" font-size="14.00">~</text>
<text text-anchor="middle" x="65" y="-400.24" font-family="Times,serif" font-size="14.00">Normal</text>
</g>
<!-- alpha -->
<g id="node6" class="node">
<title>alpha</title>
<polygon fill="none" stroke="black" points="106.12,-332.63 15.88,-332.63 15.88,-275.13 106.12,-275.13 106.12,-332.63"/>
<text text-anchor="middle" x="61" y="-315.33" font-family="Times,serif" font-size="14.00">alpha</text>
<text text-anchor="middle" x="61" y="-298.83" font-family="Times,serif" font-size="14.00">~</text>
<text text-anchor="middle" x="61" y="-282.33" font-family="Times,serif" font-size="14.00">Deterministic</text>
</g>
<!-- alpha_j&#45;&gt;alpha -->
<g id="edge1" class="edge">
<title>alpha_j&#45;&gt;alpha</title>
<path fill="none" stroke="black" d="M63.62,-380.9C63.2,-368.77 62.75,-355.46 62.33,-343.42"/>
<polygon fill="black" stroke="black" points="65.81,-343.66 61.96,-333.79 58.81,-343.9 65.81,-343.66"/>
</g>
<!-- sigma -->
<g id="node3" class="node">
<title>sigma</title>
<ellipse fill="none" stroke="black" cx="287" cy="-198.48" rx="57.45" ry="40.66"/>
<text text-anchor="middle" x="287" y="-209.93" font-family="Times,serif" font-size="14.00">sigma</text>
<text text-anchor="middle" x="287" y="-193.43" font-family="Times,serif" font-size="14.00">~</text>
<text text-anchor="middle" x="287" y="-176.93" font-family="Times,serif" font-size="14.00">Exponential</text>
</g>
<!-- likelihood -->
<g id="node7" class="node">
<title>likelihood</title>
<ellipse fill="lightgrey" stroke="black" cx="164" cy="-81.16" rx="50.03" ry="40.66"/>
<text text-anchor="middle" x="164" y="-92.61" font-family="Times,serif" font-size="14.00">likelihood</text>
<text text-anchor="middle" x="164" y="-76.11" font-family="Times,serif" font-size="14.00">~</text>
<text text-anchor="middle" x="164" y="-59.61" font-family="Times,serif" font-size="14.00">Normal</text>
</g>
<!-- sigma&#45;&gt;likelihood -->
<g id="edge5" class="edge">
<title>sigma&#45;&gt;likelihood</title>
<path fill="none" stroke="black" d="M252.74,-165.35C237.73,-151.28 220,-134.66 204.35,-119.99"/>
<polygon fill="black" stroke="black" points="207.08,-117.81 197.39,-113.52 202.29,-122.92 207.08,-117.81"/>
</g>
<!-- mu -->
<g id="node4" class="node">
<title>mu</title>
<polygon fill="none" stroke="black" points="209.12,-227.23 118.88,-227.23 118.88,-169.73 209.12,-169.73 209.12,-227.23"/>
<text text-anchor="middle" x="164" y="-209.93" font-family="Times,serif" font-size="14.00">mu</text>
<text text-anchor="middle" x="164" y="-193.43" font-family="Times,serif" font-size="14.00">~</text>
<text text-anchor="middle" x="164" y="-176.93" font-family="Times,serif" font-size="14.00">Deterministic</text>
</g>
<!-- mu&#45;&gt;likelihood -->
<g id="edge6" class="edge">
<title>mu&#45;&gt;likelihood</title>
<path fill="none" stroke="black" d="M164,-169.27C164,-158.33 164,-145.47 164,-133.03"/>
<polygon fill="black" stroke="black" points="167.5,-133.27 164,-123.27 160.5,-133.27 167.5,-133.27"/>
</g>
<!-- beta&#45;&gt;mu -->
<g id="edge3" class="edge">
<title>beta&#45;&gt;mu</title>
<path fill="none" stroke="black" d="M167.65,-274.9C167.1,-263.64 166.46,-250.45 165.88,-238.28"/>
<polygon fill="black" stroke="black" points="169.33,-238.3 165.35,-228.48 162.34,-238.64 169.33,-238.3"/>
</g>
<!-- alpha&#45;&gt;mu -->
<g id="edge4" class="edge">
<title>alpha&#45;&gt;mu</title>
<path fill="none" stroke="black" d="M88.87,-274.9C101.12,-262.6 115.65,-248.01 128.66,-234.96"/>
<polygon fill="black" stroke="black" points="130.53,-238.04 135.1,-228.48 125.57,-233.1 130.53,-238.04"/>
</g>
</g>
</svg>
