<?xml version="1.0" encoding="UTF-8" standalone="no"?>
<!DOCTYPE svg PUBLIC "-//W3C//DTD SVG 1.1//EN"
 "http://www.w3.org/Graphics/SVG/1.1/DTD/svg11.dtd">
<!-- Generated by graphviz version 12.0.0 (0)
 -->
<!-- Pages: 1 -->
<svg width="1716pt" height="588pt"
 viewBox="0.00 0.00 1715.74 588.00" xmlns="http://www.w3.org/2000/svg" xmlns:xlink="http://www.w3.org/1999/xlink">
<g id="graph0" class="graph" transform="scale(1 1) rotate(0) translate(4 584)">
<polygon fill="white" stroke="none" points="-4,4 -4,-584 1711.74,-584 1711.74,4 -4,4"/>
<g id="clust1" class="cluster">
<title>cluster_sku_category</title>
<polygon fill="none" stroke="black" points="673.74,-92.5 673.74,-313 1133.74,-313 1133.74,-92.5 673.74,-92.5"/>
<text text-anchor="middle" x="1089.74" y="-99.7" font-family="Times,serif" font-size="14.00">sku_category</text>
</g>
<g id="clust2" class="cluster">
<title>cluster_sku</title>
<polygon fill="none" stroke="black" points="1141.74,-92.5 1141.74,-241 1517.74,-241 1517.74,-92.5 1141.74,-92.5"/>
<text text-anchor="middle" x="1500.37" y="-99.7" font-family="Times,serif" font-size="14.00">sku</text>
</g>
<g id="clust3" class="cluster">
<title>cluster_date</title>
<polygon fill="none" stroke="black" points="1557.74,-92.5 1557.74,-169 1699.74,-169 1699.74,-92.5 1557.74,-92.5"/>
<text text-anchor="middle" x="1680.49" y="-99.7" font-family="Times,serif" font-size="14.00">date</text>
</g>
<g id="clust4" class="cluster">
<title>cluster_data</title>
<polygon fill="none" stroke="black" points="1479.74,-8 1479.74,-84.5 1549.74,-84.5 1549.74,-8 1479.74,-8"/>
<text text-anchor="middle" x="1530.49" y="-15.2" font-family="Times,serif" font-size="14.00">data</text>
</g>
<!-- beta_log_price_loc_loc -->
<g id="node1" class="node">
<title>beta_log_price_loc_loc</title>
<ellipse fill="white" stroke="black" cx="338.74" cy="-287" rx="97.41" ry="18"/>
<text text-anchor="middle" x="338.74" y="-281.95" font-family="Times,serif" font-size="14.00">beta_log_price_loc_loc</text>
</g>
<!-- beta_log_price_loc -->
<g id="node6" class="node">
<title>beta_log_price_loc</title>
<ellipse fill="white" stroke="black" stroke-dasharray="5,2" cx="958.74" cy="-215" rx="81.55" ry="18"/>
<text text-anchor="middle" x="958.74" y="-209.95" font-family="Times,serif" font-size="14.00">beta_log_price_loc</text>
</g>
<!-- beta_log_price_loc_loc&#45;&gt;beta_log_price_loc -->
<g id="edge1" class="edge">
<title>beta_log_price_loc_loc&#45;&gt;beta_log_price_loc</title>
<path fill="none" stroke="black" d="M407.9,-273.96C420.14,-272.1 432.8,-270.35 444.74,-269 632.41,-247.8 682.56,-272.66 868.74,-241 879.9,-239.1 891.65,-236.38 902.85,-233.43"/>
<polygon fill="black" stroke="black" points="903.65,-236.84 912.37,-230.82 901.8,-230.09 903.65,-236.84"/>
</g>
<!-- beta_log_price_loc_scale -->
<g id="node2" class="node">
<title>beta_log_price_loc_scale</title>
<ellipse fill="white" stroke="black" cx="558.74" cy="-287" rx="104.58" ry="18"/>
<text text-anchor="middle" x="558.74" y="-281.95" font-family="Times,serif" font-size="14.00">beta_log_price_loc_scale</text>
</g>
<!-- beta_log_price_loc_scale&#45;&gt;beta_log_price_loc -->
<g id="edge2" class="edge">
<title>beta_log_price_loc_scale&#45;&gt;beta_log_price_loc</title>
<path fill="none" stroke="black" d="M634.56,-274.26C646.33,-272.48 658.36,-270.67 669.74,-269 758.11,-256.02 781.31,-259.21 868.74,-241 879.35,-238.79 890.55,-236.03 901.31,-233.16"/>
<polygon fill="black" stroke="black" points="902.14,-236.56 910.86,-230.55 900.29,-229.81 902.14,-236.56"/>
</g>
<!-- beta_log_price_scale_scale -->
<g id="node3" class="node">
<title>beta_log_price_scale_scale</title>
<ellipse fill="white" stroke="black" cx="111.74" cy="-287" rx="111.74" ry="18"/>
<text text-anchor="middle" x="111.74" y="-281.95" font-family="Times,serif" font-size="14.00">beta_log_price_scale_scale</text>
</g>
<!-- beta_log_price_scale -->
<g id="node7" class="node">
<title>beta_log_price_scale</title>
<ellipse fill="white" stroke="black" cx="770.74" cy="-215" rx="88.71" ry="18"/>
<text text-anchor="middle" x="770.74" y="-209.95" font-family="Times,serif" font-size="14.00">beta_log_price_scale</text>
</g>
<!-- beta_log_price_scale_scale&#45;&gt;beta_log_price_scale -->
<g id="edge4" class="edge">
<title>beta_log_price_scale_scale&#45;&gt;beta_log_price_scale</title>
<path fill="none" stroke="black" d="M192.39,-274.2C205.85,-272.36 219.69,-270.56 232.74,-269 389.2,-250.31 571.82,-233.34 679.01,-223.87"/>
<polygon fill="black" stroke="black" points="679.26,-227.36 688.91,-223 678.65,-220.39 679.26,-227.36"/>
</g>
<!-- sigma_global -->
<g id="node4" class="node">
<title>sigma_global</title>
<ellipse fill="white" stroke="black" cx="1038.74" cy="-460.5" rx="61.08" ry="18"/>
<text text-anchor="middle" x="1038.74" y="-455.45" font-family="Times,serif" font-size="14.00">sigma_global</text>
</g>
<!-- sigma_sku_category -->
<g id="node9" class="node">
<title>sigma_sku_category</title>
<ellipse fill="white" stroke="black" cx="1038.74" cy="-287" rx="87.18" ry="18"/>
<text text-anchor="middle" x="1038.74" y="-281.95" font-family="Times,serif" font-size="14.00">sigma_sku_category</text>
</g>
<!-- sigma_global&#45;&gt;sigma_sku_category -->
<g id="edge7" class="edge">
<title>sigma_global&#45;&gt;sigma_sku_category</title>
<path fill="none" stroke="black" d="M1038.74,-442.11C1038.74,-412.58 1038.74,-352.35 1038.74,-316.56"/>
<polygon fill="black" stroke="black" points="1042.24,-316.95 1038.74,-306.95 1035.24,-316.95 1042.24,-316.95"/>
</g>
<!-- beta_log_price_loc_decentered -->
<g id="node5" class="node">
<title>beta_log_price_loc_decentered</title>
<ellipse fill="white" stroke="black" cx="807.74" cy="-287" rx="126.08" ry="18"/>
<text text-anchor="middle" x="807.74" y="-281.95" font-family="Times,serif" font-size="14.00">beta_log_price_loc_decentered</text>
</g>
<!-- beta_log_price_loc_decentered&#45;&gt;beta_log_price_loc -->
<g id="edge3" class="edge">
<title>beta_log_price_loc_decentered&#45;&gt;beta_log_price_loc</title>
<path fill="none" stroke="black" d="M843.53,-269.41C864.76,-259.57 891.85,-247.01 914.43,-236.54"/>
<polygon fill="black" stroke="black" points="915.8,-239.77 923.4,-232.39 912.85,-233.42 915.8,-239.77"/>
</g>
<!-- beta_log_price_prior -->
<g id="node8" class="node">
<title>beta_log_price_prior</title>
<ellipse fill="white" stroke="black" cx="864.74" cy="-143" rx="88.2" ry="18"/>
<text text-anchor="middle" x="864.74" y="-137.95" font-family="Times,serif" font-size="14.00">beta_log_price_prior</text>
</g>
<!-- beta_log_price_loc&#45;&gt;beta_log_price_prior -->
<g id="edge5" class="edge">
<title>beta_log_price_loc&#45;&gt;beta_log_price_prior</title>
<path fill="none" stroke="black" d="M936.47,-197.41C924.5,-188.5 909.54,-177.36 896.38,-167.56"/>
<polygon fill="black" stroke="black" points="898.51,-164.78 888.4,-161.62 894.33,-170.4 898.51,-164.78"/>
</g>
<!-- beta_log_price -->
<g id="node12" class="node">
<title>beta_log_price</title>
<ellipse fill="white" stroke="black" stroke-dasharray="5,2" cx="1237.74" cy="-143" rx="65.68" ry="18"/>
<text text-anchor="middle" x="1237.74" y="-137.95" font-family="Times,serif" font-size="14.00">beta_log_price</text>
</g>
<!-- beta_log_price_loc&#45;&gt;beta_log_price -->
<g id="edge8" class="edge">
<title>beta_log_price_loc&#45;&gt;beta_log_price</title>
<path fill="none" stroke="black" d="M1011.22,-200.83C1059.21,-188.79 1130.07,-171.01 1179.73,-158.56"/>
<polygon fill="black" stroke="black" points="1180.3,-162.02 1189.14,-156.19 1178.59,-155.23 1180.3,-162.02"/>
</g>
<!-- beta_log_price_scale&#45;&gt;beta_log_price_prior -->
<g id="edge6" class="edge">
<title>beta_log_price_scale&#45;&gt;beta_log_price_prior</title>
<path fill="none" stroke="black" d="M793.02,-197.41C804.99,-188.5 819.95,-177.36 833.11,-167.56"/>
<polygon fill="black" stroke="black" points="835.16,-170.4 841.09,-161.62 830.98,-164.78 835.16,-170.4"/>
</g>
<!-- beta_log_price_scale&#45;&gt;beta_log_price -->
<g id="edge9" class="edge">
<title>beta_log_price_scale&#45;&gt;beta_log_price</title>
<path fill="none" stroke="black" d="M834.56,-202.16C845.61,-200.3 856.99,-198.5 867.74,-197 987.23,-180.35 1018.93,-189.9 1137.74,-169 1152.35,-166.43 1167.98,-162.9 1182.44,-159.31"/>
<polygon fill="black" stroke="black" points="1182.94,-162.8 1191.77,-156.94 1181.21,-156.01 1182.94,-162.8"/>
</g>
<!-- obs -->
<g id="node14" class="node">
<title>obs</title>
<ellipse fill="grey" stroke="black" cx="1514.74" cy="-58.5" rx="27" ry="18"/>
<text text-anchor="middle" x="1514.74" y="-53.45" font-family="Times,serif" font-size="14.00">obs</text>
</g>
<!-- sigma_sku_category&#45;&gt;obs -->
<g id="edge11" class="edge">
<title>sigma_sku_category&#45;&gt;obs</title>
<path fill="none" stroke="black" d="M1125.14,-284.13C1256.9,-280.38 1495.62,-269.67 1521.74,-241 1560.02,-198.99 1540.94,-126.19 1526.29,-86.76"/>
<polygon fill="black" stroke="black" points="1529.58,-85.58 1522.69,-77.53 1523.06,-88.12 1529.58,-85.58"/>
</g>
<!-- sku_intercept -->
<g id="node10" class="node">
<title>sku_intercept</title>
<ellipse fill="white" stroke="black" cx="1448.74" cy="-215" rx="60.56" ry="18"/>
<text text-anchor="middle" x="1448.74" y="-209.95" font-family="Times,serif" font-size="14.00">sku_intercept</text>
</g>
<!-- sku_intercept&#45;&gt;obs -->
<g id="edge12" class="edge">
<title>sku_intercept&#45;&gt;obs</title>
<path fill="none" stroke="black" d="M1456.06,-196.88C1467.47,-170.17 1489.6,-118.37 1503.18,-86.57"/>
<polygon fill="black" stroke="black" points="1506.29,-88.19 1507,-77.62 1499.86,-85.44 1506.29,-88.19"/>
</g>
<!-- beta_log_price_decentered -->
<g id="node11" class="node">
<title>beta_log_price_decentered</title>
<ellipse fill="white" stroke="black" cx="1259.74" cy="-215" rx="110.21" ry="18"/>
<text text-anchor="middle" x="1259.74" y="-209.95" font-family="Times,serif" font-size="14.00">beta_log_price_decentered</text>
</g>
<!-- beta_log_price_decentered&#45;&gt;beta_log_price -->
<g id="edge10" class="edge">
<title>beta_log_price_decentered&#45;&gt;beta_log_price</title>
<path fill="none" stroke="black" d="M1254.31,-196.7C1251.96,-189.24 1249.16,-180.32 1246.53,-171.97"/>
<polygon fill="black" stroke="black" points="1249.91,-171.04 1243.57,-162.55 1243.23,-173.14 1249.91,-171.04"/>
</g>
<!-- beta_log_price&#45;&gt;obs -->
<g id="edge13" class="edge">
<title>beta_log_price&#45;&gt;obs</title>
<path fill="none" stroke="black" d="M1281.03,-129.11C1335.66,-112.84 1428.6,-85.16 1479.25,-70.07"/>
<polygon fill="black" stroke="black" points="1480.25,-73.43 1488.83,-67.22 1478.25,-66.72 1480.25,-73.43"/>
</g>
<!-- date_intercept -->
<g id="node13" class="node">
<title>date_intercept</title>
<ellipse fill="white" stroke="black" cx="1628.74" cy="-143" rx="63.12" ry="18"/>
<text text-anchor="middle" x="1628.74" y="-137.95" font-family="Times,serif" font-size="14.00">date_intercept</text>
</g>
<!-- date_intercept&#45;&gt;obs -->
<g id="edge14" class="edge">
<title>date_intercept&#45;&gt;obs</title>
<path fill="none" stroke="black" d="M1606.22,-125.7C1587.68,-112.28 1561.35,-93.22 1541.69,-79"/>
<polygon fill="black" stroke="black" points="1543.75,-76.17 1533.59,-73.14 1539.64,-81.84 1543.75,-76.17"/>
</g>
<!-- distribution_description_node -->
<g id="node15" class="node">
<title>distribution_description_node</title>
<text text-anchor="start" x="1125.37" y="-562.7" font-family="Times,serif" font-size="14.00">beta_log_price_loc_loc ~ Normal</text>
<text text-anchor="start" x="1125.37" y="-546.2" font-family="Times,serif" font-size="14.00">beta_log_price_loc_scale ~ HalfNormal</text>
<text text-anchor="start" x="1125.37" y="-529.7" font-family="Times,serif" font-size="14.00">beta_log_price_scale_scale ~ HalfNormal</text>
<text text-anchor="start" x="1125.37" y="-513.2" font-family="Times,serif" font-size="14.00">sigma_global ~ HalfNormal</text>
<text text-anchor="start" x="1125.37" y="-496.7" font-family="Times,serif" font-size="14.00">beta_log_price_loc_decentered ~ Normal</text>
<text text-anchor="start" x="1125.37" y="-480.2" font-family="Times,serif" font-size="14.00">beta_log_price_loc ~ Deterministic</text>
<text text-anchor="start" x="1125.37" y="-463.7" font-family="Times,serif" font-size="14.00">beta_log_price_scale ~ HalfNormal</text>
<text text-anchor="start" x="1125.37" y="-447.2" font-family="Times,serif" font-size="14.00">beta_log_price_prior ~ Normal</text>
<text text-anchor="start" x="1125.37" y="-430.7" font-family="Times,serif" font-size="14.00">sigma_sku_category ~ HalfNormal</text>
<text text-anchor="start" x="1125.37" y="-414.2" font-family="Times,serif" font-size="14.00">sku_intercept ~ Normal</text>
<text text-anchor="start" x="1125.37" y="-397.7" font-family="Times,serif" font-size="14.00">beta_log_price_decentered ~ Normal</text>
<text text-anchor="start" x="1125.37" y="-381.2" font-family="Times,serif" font-size="14.00">beta_log_price ~ Deterministic</text>
<text text-anchor="start" x="1125.37" y="-364.7" font-family="Times,serif" font-size="14.00">date_intercept ~ Normal</text>
<text text-anchor="start" x="1125.37" y="-348.2" font-family="Times,serif" font-size="14.00">obs ~ Normal</text>
</g>
</g>
</svg>
